<svg xmlns="http://www.w3.org/2000/svg" width="13" height="17"><path fill="#109CF1" d="M2.203.605C3.362.215 4.888 0 6.5 0c1.612 0 3.138.215 4.297.605 1.82.614 2.203 1.48 2.203 2.1v11.591c0 .619-.382 1.485-2.203 2.099-1.159.39-2.685.605-4.297.605-1.612 0-3.138-.215-4.297-.605C.383 15.78 0 14.915 0 14.295V2.705c0-.62.382-1.486 2.203-2.1zM10.087 2c-.981-.293-2.255-.455-3.587-.455-1.332 0-2.606.162-3.587.455-.933.278-1.29.583-1.372.705.082.121.439.426 1.372.704.981.293 2.255.455 3.587.455 1.332 0 2.606-.162 3.587-.455.933-.278 1.29-.583 1.372-.704-.082-.122-.439-.427-1.372-.705zM1.529 14.275c.053.105.394.43 1.384.725.98.293 2.255.455 3.587.455 1.332 0 2.606-.162 3.587-.455.99-.295 1.331-.62 1.384-.725v-2.011c-.2.093-.423.182-.674.267-1.159.39-2.685.605-4.297.605-1.612 0-3.138-.215-4.297-.605a6.58 6.58 0 0 1-.674-.267v2.011zm0-3.863c.053.105.394.43 1.384.725.98.293 2.255.454 3.587.454 1.332 0 2.606-.161 3.587-.454.99-.296 1.331-.62 1.384-.725V8.4c-.2.093-.423.183-.674.267-1.159.39-2.685.606-4.297.606-1.612 0-3.138-.215-4.297-.606a6.357 6.357 0 0 1-.674-.267v2.012zm0-3.864c.053.105.394.43 1.384.725.98.293 2.255.454 3.587.454 1.332 0 2.606-.161 3.587-.454.99-.296 1.331-.62 1.384-.725V4.537c-.2.093-.423.182-.674.267-1.159.39-2.685.605-4.297.605-1.612 0-3.138-.215-4.297-.605a6.572 6.572 0 0 1-.674-.268v2.012z"/></svg>