<svg xmlns="http://www.w3.org/2000/svg" width="15" height="17"><g fill="#109CF1"><path d="M11 7.5c0-.276-.291-.5-.65-.5h-6.7c-.359 0-.65.224-.65.5s.291.5.65.5h6.7c.359 0 .65-.224.65-.5zM3.606 10c-.335 0-.606.224-.606.5s.271.5.606.5h3.788c.335 0 .606-.224.606-.5s-.271-.5-.606-.5H3.606z"/><path d="M4.705 15.672H2.562c-.706 0-1.28-.596-1.28-1.328V2.656c0-.732.574-1.328 1.28-1.328h7.876c.706 0 1.28.596 1.28 1.328V6.74c0 .367.288.664.641.664A.653.653 0 0 0 13 6.74V2.656C13 1.192 11.85 0 10.438 0H2.562C1.15 0 0 1.192 0 2.656v11.688C0 15.808 1.15 17 2.562 17h2.143c.353 0 .64-.297.64-.664a.652.652 0 0 0-.64-.664z"/><path d="M14.42 9.585a1.974 1.974 0 0 0-2.805 0l-3.63 3.652a.67.67 0 0 0-.166.278l-.79 2.624a.67.67 0 0 0 .159.66.66.66 0 0 0 .65.177l2.669-.746c.11-.03.21-.09.29-.17l3.623-3.646c.773-.78.773-2.05 0-2.829zm-4.434 5.407l-1.343.375.393-1.304 2.45-2.465.935.943-2.435 2.451zm3.5-3.522l-.129.13-.935-.944.128-.128c.258-.26.677-.26.935 0s.258.683 0 .942zM10.35 4h-6.7c-.359 0-.65.224-.65.5s.291.5.65.5h6.7c.359 0 .65-.224.65-.5s-.291-.5-.65-.5z"/></g></svg>