<svg xmlns="http://www.w3.org/2000/svg" width="17" height="19"><g fill="#109CF1"><path stroke="#109CF1" stroke-width=".3" d="M7.516 17H2.234C1.002 17 0 16.047 0 14.875V2.125C0 .953 1.002 0 2.234 0h8.532C11.998 0 13 .953 13 2.125v5.796c0 .32-.273.58-.61.58-.336 0-.609-.26-.609-.58V2.125c0-.532-.455-.966-1.015-.966H2.234c-.56 0-1.015.434-1.015.966v12.75c0 .533.456.966 1.015.966h5.282c.336 0 .609.26.609.58 0 .32-.273.579-.61.579z"/><path d="M3.5 10c-.276 0-.5-.252-.5-.563V7.563C3 7.252 3.224 7 3.5 7s.5.252.5.563v1.874c0 .311-.224.563-.5.563zm12.139 9H11.36c-.75 0-1.361-.56-1.361-1.25v-2.5c0-.69.61-1.25 1.361-1.25h4.278c.75 0 1.361.56 1.361 1.25v2.5c0 .69-.61 1.25-1.361 1.25zm-4.278-3.929c-.107 0-.194.08-.194.179v2.5c0 .099.087.179.194.179h4.278c.107 0 .194-.08.194-.179v-2.5c0-.099-.087-.179-.194-.179H11.36zM14.4 14h-2.8c-.331 0-.6-.244-.6-.545v-1.637c0-1.003.897-1.818 2-1.818s2 .815 2 1.818v1.637c0 .3-.269.545-.6.545zm-2.2-1.09h1.6v-1.092c0-.401-.358-.727-.8-.727-.442 0-.8.326-.8.727v1.091z"/></g></svg>