<svg xmlns="http://www.w3.org/2000/svg" width="16" height="17"><path fill="#109CF1" d="M2.313 16.8C1.036 16.8 0 15.715 0 14.38V8.17c0-1.335 1.037-2.42 2.313-2.42 1.275 0 2.312 1.085 2.312 2.42v6.21c0 1.335-1.037 2.42-2.313 2.42zm0-9.742c-.586 0-1.063.498-1.063 1.111v6.212c0 .613.477 1.111 1.063 1.111.585 0 1.062-.498 1.062-1.111V8.169c0-.613-.477-1.111-1.063-1.111zM8 16.8c-1.275 0-2.313-1.085-2.313-2.42V11.7c0-1.334 1.038-2.42 2.313-2.42 1.275 0 2.313 1.086 2.313 2.42v2.68c0 1.335-1.038 2.42-2.313 2.42zm0-6.212c-.586 0-1.063.5-1.063 1.112v2.68c0 .614.477 1.112 1.063 1.112s1.063-.498 1.063-1.111V11.7c0-.613-.477-1.112-1.063-1.112zm5.688 6.212c-1.276 0-2.313-1.085-2.313-2.42V8.66c0-1.334 1.037-2.42 2.313-2.42C14.963 6.24 16 7.326 16 8.66v5.72c0 1.335-1.037 2.42-2.313 2.42zm0-9.252c-.586 0-1.063.499-1.063 1.112v5.72c0 .614.477 1.112 1.063 1.112.585 0 1.062-.498 1.062-1.111V8.66c0-.613-.477-1.112-1.063-1.112zm-3.475-.26l3.458-3.8a.676.676 0 0 0-.021-.925.605.605 0 0 0-.884.023L9.302 6.393l-.012.013a.91.91 0 0 1-1.264.125l-3.968-3.77-.032-.03a2.11 2.11 0 0 0-2.82.094l-.022.02L.186 3.88a.675.675 0 0 0-.005.925.606.606 0 0 0 .884.005l.986-1.021a.903.903 0 0 1 1.184-.043l3.969 3.771a2.121 2.121 0 0 0 3.009-.228zM16 3.788V2.023C16 .941 15.159.062 14.125.062h-1.688c-.345 0-.624.292-.624.653 0 .362.28.654.624.654h1.688c.345 0 .625.294.625.654v1.765c0 .362.28.654.625.654S16 4.15 16 3.788z"/></svg>