<svg xmlns="http://www.w3.org/2000/svg" width="17" height="23"><g fill="#109CF1" stroke="#109CF1" stroke-width=".3"><path d="M15.953 21.248l-2.637-5.835a.501.501 0 0 0-.253-.254l-1.311-.61 2.272-3.987.016-.03c.451-.922.68-1.919.68-2.962 0-1.756-.657-3.402-1.852-4.635-1.195-1.231-2.778-1.897-4.456-1.872-1.63.023-3.166.709-4.323 1.929a6.622 6.622 0 0 0-1.81 4.538 6.792 6.792 0 0 0 .681 3.003l.016.029 2.272 3.985-1.319.614a.503.503 0 0 0-.245.251l-2.637 5.836a.536.536 0 0 0 .094.582.477.477 0 0 0 .553.11l3.303-1.538 3.302 1.538c.128.06.274.06.402 0l3.302-1.538 3.303 1.538a.477.477 0 0 0 .553-.11.534.534 0 0 0 .094-.582zm-12.121-11.2a5.63 5.63 0 0 1-.566-2.51c.017-2.96 2.332-5.402 5.16-5.443 1.412-.02 2.744.54 3.749 1.577s1.559 2.421 1.559 3.899c0 .872-.19 1.706-.566 2.478l-4.244 7.443a.482.482 0 0 1-.848 0l-4.244-7.443zm8.372 9.317a.47.47 0 0 0-.401 0L8.5 20.904l-3.303-1.539a.47.47 0 0 0-.401 0l-2.288 1.067 1.99-4.403 1.26-.587 1.47 2.58c.27.473.746.755 1.272.755s1.001-.282 1.271-.755l1.471-2.58 1.26.587 1.99 4.403-2.288-1.066z"/><path d="M8.5 5.247c-1.379 0-2.5.938-2.5 2.092 0 1.153 1.121 2.092 2.5 2.092S11 8.493 11 7.339c0-1.154-1.121-2.092-2.5-2.092zm0 3.267c-.774 0-1.404-.527-1.404-1.175s.63-1.177 1.404-1.177c.774 0 1.404.528 1.404 1.176 0 .648-.63 1.175-1.404 1.175z"/></g></svg>