<svg xmlns="http://www.w3.org/2000/svg" width="17" height="15"><g fill="#109CF1"><path d="M9.5 3a.5.5 0 1 0 0 1 .5.5 0 0 0 0-1zm-7 7a.5.5 0 1 0 0-1 .5.5 0 0 0 0 1z"/><path stroke="#109CF1" stroke-width=".6" d="M11.156 0C8.167 0 5.714 2.024 5.524 4.573 2.677 4.713 0 6.73 0 9.457c0 1.139.46 2.243 1.295 3.118.165.67-.035 1.38-.534 1.868a.324.324 0 0 0-.072.356.333.333 0 0 0 .307.201c.947 0 1.86-.365 2.538-1.007.66.22 1.522.355 2.31.355 2.989 0 5.442-2.024 5.632-4.573a7.55 7.55 0 0 0 1.99-.348 3.698 3.698 0 0 0 2.538 1.008c.134 0 .255-.08.307-.201a.323.323 0 0 0-.072-.356 1.956 1.956 0 0 1-.534-1.868C16.541 7.135 17 6.03 17 4.89 17 2.058 14.117 0 11.156 0zM5.844 13.696c-.784 0-1.677-.151-2.275-.385a.337.337 0 0 0-.368.083c-.4.43-.922.73-1.49.868a2.59 2.59 0 0 0 .202-1.94.324.324 0 0 0-.08-.139c-.754-.762-1.169-1.73-1.169-2.726 0-2.298 2.372-4.24 5.18-4.24 2.651 0 4.98 1.811 4.98 4.24 0 2.337-2.234 4.239-4.98 4.239zm9.324-6.078a.318.318 0 0 0-.081.138 2.594 2.594 0 0 0 .202 1.94 2.99 2.99 0 0 1-1.49-.868.335.335 0 0 0-.368-.082c-.518.202-1.258.342-1.956.376-.097-1.233-.723-2.392-1.794-3.252h4.33a.33.33 0 0 0 .333-.327.33.33 0 0 0-.332-.326H8.66a6.294 6.294 0 0 0-2.471-.642c.19-2.19 2.345-3.923 4.966-3.923 2.808 0 5.18 1.941 5.18 4.24 0 .996-.415 1.964-1.168 2.726z"/><path d="M9.658 9H5.342C5.153 9 5 9.224 5 9.5s.153.5.342.5h4.316c.189 0 .342-.224.342-.5S9.847 9 9.658 9zm-1.981 2H2.323c-.179 0-.323.224-.323.5s.144.5.323.5h5.354c.179 0 .323-.224.323-.5s-.144-.5-.323-.5zm6.981-8h-4.316c-.189 0-.342.224-.342.5s.153.5.342.5h4.316c.189 0 .342-.224.342-.5s-.153-.5-.342-.5z"/></g></svg>