<svg xmlns="http://www.w3.org/2000/svg" width="17" height="13"><g fill="#109CF1"><path d="M12 8.616c-1.103 0-2 .938-2 2.092 0 1.153.897 2.092 2 2.092s2-.939 2-2.092c0-1.154-.897-2.093-2-2.093zm0 3.138c-.551 0-1-.47-1-1.046 0-.577.449-1.047 1-1.047.551 0 1 .47 1 1.047s-.449 1.046-1 1.046zM4 8.616c-1.103 0-2 .938-2 2.092 0 1.153.897 2.092 2 2.092s2-.939 2-2.092c0-1.154-.897-2.093-2-2.093zm0 3.138c-.551 0-1-.47-1-1.046 0-.577.449-1.047 1-1.047.551 0 1 .47 1 1.047s-.449 1.046-1 1.046zm9.69-9.183a.438.438 0 0 0-.39-.233H11v.847h2.03l1.19 2.292.78-.38-1.31-2.526zM7 9.661h3v1.046H7z"/><path d="M2.451 9.661H.55a.537.537 0 0 0-.549.523c0 .29.246.524.549.524h1.9a.537.537 0 0 0 .549-.524.537.537 0 0 0-.549-.523zm14.433-3.413l-1.09-1.392a.552.552 0 0 0-.436-.213h-4.024V.796a.551.551 0 0 0-.553-.55H1.554A.552.552 0 0 0 1 .796c0 .303.248.55.554.55h8.673v3.847c0 .303.248.55.554.55h4.305l.807 1.03v2.835H14.36a.552.552 0 0 0-.554.55c0 .304.248.55.554.55h2.085a.552.552 0 0 0 .554-.55V6.585a.55.55 0 0 0-.116-.337zM2.545 7.569H.455c-.252 0-.455.234-.455.523 0 .29.203.523.455.523h2.09c.252 0 .455-.234.455-.523 0-.289-.203-.523-.455-.523z"/><path d="M5.43 4.431H.57c-.315 0-.57.234-.57.523 0 .289.255.523.57.523h4.86c.315 0 .57-.234.57-.523 0-.29-.255-.523-.57-.523zm0-2.093H.57c-.315 0-.57.234-.57.523 0 .29.255.523.57.523h4.86c.315 0 .57-.234.57-.523 0-.289-.255-.523-.57-.523z"/></g></svg>