<svg xmlns="http://www.w3.org/2000/svg" width="16" height="16"><path fill="#109CF1" stroke="#109CF1" stroke-width=".3" d="M15.734 4s0 0 0 0h-4V.267A.267.267 0 0 0 11.467 0s0 0 0 0H4.533a.267.267 0 0 0-.266.266s0 0 0 0V4h-4A.267.267 0 0 0 0 4.266s0 0 0 0v9.6c0 .148.12.267.266.267 0 0 0 0 0 0h.558A1.71 1.71 0 0 0 .8 14.4v1.333c0 .148.12.267.266.267 0 0 0 0 0 0h13.867c.148 0 .267-.12.267-.266 0 0 0 0 0 0V14.4c0-.09-.009-.179-.024-.267h.557a.266.266 0 0 0 .267-.266s0 0 0 0v-9.6A.267.267 0 0 0 15.734 4zm-4.267 7.467a.534.534 0 1 1-1.069-.003.534.534 0 0 1 1.069.003zm-6.4-.534a.534.534 0 1 1-.003 1.069.534.534 0 0 1 .003-1.069zm-1.6 4.534H1.333V14.4a1.067 1.067 0 1 1 2.134 0v1.067zm-1.6-3.2a.533.533 0 1 1 1.066-.002.533.533 0 0 1-1.066.002zm1.64.98c-.1-.096-.213-.18-.335-.248a1.068 1.068 0 0 0-.035-1.508 1.068 1.068 0 1 0-1.509 1.508 1.62 1.62 0 0 0-.612.601H.533V4.533h3.734v6.236a1.05 1.05 0 0 0 .028 1.43c-.4.221-.687.603-.788 1.049zm2.626 2.22H4V13.6a1.067 1.067 0 1 1 2.133 0v1.867zm3.2 0H6.667V13.6a1.333 1.333 0 0 1 2.666 0v1.867zM7.2 10.933a.8.8 0 1 1 1.6 0 .8.8 0 0 1-1.6 0zm2.424 1.75a1.869 1.869 0 0 0-.765-.738 1.334 1.334 0 0 0-1.718-2.04 1.333 1.333 0 0 0 0 2.039c-.32.168-.586.424-.765.74-.14-.2-.324-.366-.538-.485a1.057 1.057 0 0 0-.017-1.497c-.27-.264-.658-.364-1.021-.264V.533h6.4v9.905a1.05 1.05 0 0 0-.267-.038 1.063 1.063 0 0 0-.771 1.799 1.612 1.612 0 0 0-.538.484zM12 14.4v1.067H9.867V13.6a1.066 1.066 0 1 1 2.133 0v.8zm2.667 1.067h-2.134V14.4a1.067 1.067 0 1 1 2.134 0v1.067zm-1.6-3.2a.533.533 0 1 1 1.066-.002.533.533 0 0 1-1.066.002zm2.4 1.333h-.483a1.603 1.603 0 0 0-.612-.6 1.07 1.07 0 0 0-.035-1.509 1.068 1.068 0 1 0-1.509 1.508 1.598 1.598 0 0 0-.335.248 1.604 1.604 0 0 0-.788-1.048 1.05 1.05 0 0 0 .028-1.43V4.533h3.734V13.6h0z"/></svg>