<svg width="27" height="16" viewBox="0 0 27 16" fill="none" xmlns="http://www.w3.org/2000/svg">
<path fill-rule="evenodd" clip-rule="evenodd" d="M23.115 4.43906C23.1971 4.41088 23.286 4.40906 23.3692 4.43386C23.4525 4.45866 23.5259 4.50885 23.5792 4.5774L26.4958 8.3274C26.5527 8.40054 26.5836 8.49056 26.5836 8.58323C26.5836 8.6759 26.5527 8.76592 26.4958 8.83906L23.5792 12.5891C23.5258 12.6575 23.4525 12.7077 23.3693 12.7324C23.2861 12.7572 23.1973 12.7553 23.1152 12.7272C23.0331 12.699 22.9618 12.6459 22.9114 12.5753C22.8609 12.5046 22.8338 12.42 22.8338 12.3332V10.6707C20.5925 10.7174 19.5158 11.1428 18.975 11.6053C18.4608 12.0449 18.3667 12.562 18.2688 13.1036L18.2433 13.2432C18.2246 13.3431 18.1701 13.4327 18.0899 13.4952C18.0098 13.5577 17.9096 13.5887 17.8082 13.5824C17.7067 13.5762 17.6111 13.5331 17.5392 13.4613C17.4674 13.3894 17.4242 13.2938 17.4179 13.1924C17.3463 12.0474 17.4538 10.3882 18.2625 9.00031C19.0475 7.65323 20.4608 6.6174 22.8338 6.50906V4.83323C22.8337 4.74642 22.8608 4.66177 22.9112 4.5911C22.9617 4.52043 23.0329 4.46728 23.115 4.43906V4.43906Z" fill="#B7BCD6"/>
<path d="M11 4.33325C11 5.98725 9.654 7.33325 8 7.33325C6.346 7.33325 5 5.98725 5 4.33325C5 2.67925 6.346 1.33325 8 1.33325C9.654 1.33325 11 2.67925 11 4.33325ZM2.66667 13.9999H2V13.3333C2 10.7606 4.094 8.66659 6.66667 8.66659H9.33333C11.9067 8.66659 14 10.7606 14 13.3333V13.9999H2.66667Z" fill="#B7BCD6"/>
</svg>
