<svg width="16" height="16" viewBox="0 0 16 16" fill="none" xmlns="http://www.w3.org/2000/svg">
<path d="M15.4922 5.7809L10.7811 5.09624L8.67519 0.826801C8.61767 0.709907 8.52304 0.615278 8.40614 0.557758C8.11298 0.413032 7.75673 0.533637 7.61015 0.826801L5.50419 5.09624L0.793155 5.7809C0.663272 5.79946 0.544522 5.86069 0.453604 5.95346C0.343689 6.06644 0.283121 6.21842 0.285208 6.37603C0.287296 6.53364 0.351868 6.68397 0.464737 6.79399L3.87323 10.1171L3.06796 14.8096C3.04908 14.9188 3.06115 15.031 3.10283 15.1337C3.1445 15.2363 3.2141 15.3252 3.30373 15.3903C3.39336 15.4554 3.49944 15.4941 3.60994 15.502C3.72044 15.5099 3.83093 15.4866 3.9289 15.4349L8.14267 13.2195L12.3564 15.4349C12.4715 15.4961 12.6051 15.5165 12.7331 15.4943C13.0559 15.4386 13.273 15.1325 13.2174 14.8096L12.4121 10.1171L15.8206 6.79399C15.9134 6.70307 15.9746 6.58432 15.9932 6.45444C16.0433 6.12973 15.8169 5.82915 15.4922 5.7809Z" fill="#B7BCD6"/>
</svg>
