<svg xmlns="http://www.w3.org/2000/svg" width="13" height="13" viewBox="0 0 13 13">
    <g fill="none" fill-rule="evenodd">
        <g fill="#FFF" fill-rule="nonzero">
            <g>
                <g>
                    <g>
                        <g>
                            <path d="M10 3c.552 0 1-.438 1-.984V.986C11 .44 10.553 0 10 0c-.553 0-1 .44-1 .986v1.03C9 2.562 9.447 3 10 3z" transform="translate(-874 -37) translate(-10 -9) translate(737 32) translate(133 1) translate(14 13)"/>
                            <path d="M12.986 2.022h-1.841v.44c0 .726-.624 1.317-1.393 1.317-.77 0-1.392-.591-1.392-1.317v-.44H4.644v.44c0 .726-.625 1.317-1.393 1.317-.769 0-1.393-.59-1.393-1.317v-.44L0 2v11h12.072l.928-.003-.014-10.975zm-.915 10.102H.93V5.097h11.143v7.027z" transform="translate(-874 -37) translate(-10 -9) translate(737 32) translate(133 1) translate(14 13)"/>
                            <path d="M3 3c.552 0 1-.438 1-.984V.986C4 .439 3.552 0 3 0c-.553 0-1 .44-1 .986v1.03C2 2.562 2.446 3 3 3zM5 6H7V7H5z" transform="translate(-874 -37) translate(-10 -9) translate(737 32) translate(133 1) translate(14 13)"/>
                            <path d="M6 6H8V7H6zM8 6H10V7H8zM5 7H7V8H5z" transform="translate(-874 -37) translate(-10 -9) translate(737 32) translate(133 1) translate(14 13)"/>
                            <path d="M6 7H8V8H6zM8 7H10V8H8zM5 9H7V10H5zM3 7H5V8H3zM3 9H5V10H3z" transform="translate(-874 -37) translate(-10 -9) translate(737 32) translate(133 1) translate(14 13)"/>
                            <path d="M6 9H8V10H6zM8 9H10V10H8z" transform="translate(-874 -37) translate(-10 -9) translate(737 32) translate(133 1) translate(14 13)"/>
                        </g>
                    </g>
                </g>
            </g>
        </g>
    </g>
</svg>
