<svg xmlns="http://www.w3.org/2000/svg" width="16" height="17" viewBox="0 0 16 17">
    <g fill="none" fill-rule="evenodd">
        <g fill="#109CF1" fill-rule="nonzero">
            <g>
                <g>
                    <path d="M2.313 16.738C1.036 16.738 0 15.653 0 14.32V8.108c0-1.334 1.037-2.42 2.313-2.42 1.275 0 2.312 1.086 2.312 2.42v6.211c0 1.334-1.037 2.42-2.313 2.42zm0-9.742c-.586 0-1.063.499-1.063 1.112v6.211c0 .613.477 1.112 1.063 1.112.585 0 1.062-.499 1.062-1.112V8.108c0-.613-.477-1.112-1.063-1.112zM8 16.738c-1.275 0-2.313-1.085-2.313-2.419v-2.68c0-1.335 1.038-2.42 2.313-2.42 1.275 0 2.313 1.085 2.313 2.42v2.68c0 1.334-1.038 2.42-2.313 2.42zm0-6.211c-.586 0-1.063.499-1.063 1.111v2.681c0 .613.477 1.112 1.063 1.112s1.063-.499 1.063-1.112v-2.68c0-.613-.477-1.112-1.063-1.112zm5.688 6.211c-1.276 0-2.313-1.085-2.313-2.419V8.6c0-1.335 1.037-2.42 2.313-2.42 1.275 0 2.312 1.085 2.312 2.42v5.72c0 1.334-1.037 2.42-2.313 2.42zm0-9.251c-.586 0-1.063.498-1.063 1.111v5.721c0 .613.477 1.112 1.063 1.112.585 0 1.062-.499 1.062-1.112V8.6c0-.614-.477-1.112-1.063-1.112zm-3.475-.26l3.458-3.801c.238-.262.229-.676-.021-.925s-.646-.238-.884.023L9.302 6.331l-.012.014c-.326.378-.877.431-1.264.125L4.058 2.699l-.032-.03c-.84-.693-2.025-.654-2.82.094l-.022.021-.998 1.034c-.246.254-.248.668-.005.925.242.256.638.258.884.005l.986-1.022c.336-.307.83-.325 1.184-.043l3.969 3.772c.01.01.02.02.032.028.4.33.878.492 1.355.492.598 0 1.193-.254 1.622-.748zM16 3.727V1.962C16 .88 15.159 0 14.125 0h-1.688c-.345 0-.624.293-.624.654 0 .361.28.654.624.654h1.688c.345 0 .625.293.625.654v1.765c0 .361.28.654.625.654S16 4.088 16 3.727z" transform="translate(-311 -121) translate(-10 -9) translate(321 130)"/>
                </g>
            </g>
        </g>
    </g>
</svg>
