<svg xmlns="http://www.w3.org/2000/svg" width="15" height="18" viewBox="0 0 15 18">
    <g fill="none" fill-rule="evenodd">
        <g fill="#B7BCD6" fill-rule="nonzero">
            <g transform="translate(-1426 -118) translate(-10 -9) translate(1219 113) translate(217 14)">
                <circle cx="7.5" cy="4.5" r="4.5"/>
                <path d="M6 14.318L7.5 16 9 14.318 7.5 11z"/>
                <path d="M12.049 9c-.866 1.022-2.074 1.748-3.446 2.005l1.255 3.19c.086.218.05.466-.093.651l-1.733 2.23c-.127.165-.324.261-.532.261-.208 0-.405-.096-.532-.26l-1.733-2.23c-.144-.186-.18-.434-.093-.652l1.255-3.19c-1.372-.257-2.58-.983-3.446-2.005C1.288 9.221 0 10.645 0 12.364v4.968c0 .177.07.347.197.472.126.126.297.196.476.196h13.654c.372 0 .673-.3.673-.669v-4.967c0-1.72-1.288-3.143-2.951-3.364z"/>
            </g>
        </g>
    </g>
</svg>
