<svg xmlns="http://www.w3.org/2000/svg" width="13" height="17" viewBox="0 0 13 17">
    <g fill="none" fill-rule="evenodd">
        <g fill="#FFF" fill-rule="nonzero">
            <g>
                <g>
                    <g>
                        <g>
                            <g>
                                <g>
                                    <path d="M6.5 7C8.43 7 10 5.43 10 3.5S8.43 0 6.5 0 3 1.57 3 3.5 4.57 7 6.5 7zM10.977 8.31l-.005-.002c-.434-.107-1.765-.295-1.765-.295-.15-.046-.31.034-.364.183l-2.003 5.54c-.115.32-.564.32-.68 0L4.16 8.196C4.115 8.076 4.002 8 3.88 8c-.029 0-1.396.193-1.852.308C.785 8.62 0 9.853 0 11.139v4.61C0 16.44.555 17 1.24 17h10.52c.685 0 1.24-.56 1.24-1.25v-4.626c0-1.28-.816-2.417-2.023-2.814z" transform="translate(-1243 -119) translate(-10 -9) translate(1219 113) translate(34 15)"/>
                                    <path d="M6.937 9.06C6.891 9.02 6.823 9 6.755 9h-.51c-.068 0-.136.02-.182.06-.072.06-.082.148-.031.217l.272.32-.127.842.251.522c.024.052.12.052.144 0l.251-.522-.127-.841.272-.321c.051-.069.04-.157-.03-.218z" transform="translate(-1243 -119) translate(-10 -9) translate(1219 113) translate(34 15)"/>
                                </g>
                            </g>
                        </g>
                    </g>
                </g>
            </g>
        </g>
    </g>
</svg>
