<svg xmlns="http://www.w3.org/2000/svg" width="11" height="11" viewBox="0 0 11 11">
    <g fill="#BFC5D2">
        <path d="M10.195.941H2c-.025 0-.047.009-.07.015L1.728.334C1.664.135 1.47 0 1.25 0h-1C.112 0 0 .105 0 .235v.47c0 .13.112.236.25.236h.63l1.562 4.831-.584.64c-.23.254-.334.603-.228.921.136.407.517.667.957.667H9.75c.138 0 .25-.105.25-.235v-.47c0-.13-.112-.236-.25-.236H2.587l.793-.87c.02-.022.034-.047.05-.071h4.844c.387 0 .74-.211.905-.541l1.745-3.489c.05-.1.076-.212.076-.322v-.067c0-.419-.36-.758-.805-.758z"/>
        <circle cx="3" cy="10" r="1"/>
        <circle cx="9" cy="10" r="1"/>
    </g>
</svg>
