<svg xmlns="http://www.w3.org/2000/svg" width="12" height="14" viewBox="0 0 12 14">
    <g fill="none" fill-rule="evenodd">
        <g fill="#B7BCD6" fill-rule="nonzero">
            <path d="M6 0C3 0 0 .368 0 2.947v7c0 1.422 1.177 2.58 2.625 2.58L1.5 13.631V14h1.672l1.5-1.474H7.5L9 14h1.5v-.368l-1.125-1.106c1.447 0 2.625-1.157 2.625-2.579v-7C12 .368 9.315 0 6 0zM2.625 11.053c-.623 0-1.125-.494-1.125-1.106 0-.611.502-1.105 1.125-1.105s1.125.494 1.125 1.105c0 .612-.503 1.106-1.125 1.106zM5.25 5.895H1.5V2.947h3.75v2.948zm4.125 5.158c-.623 0-1.125-.494-1.125-1.106 0-.611.502-1.105 1.125-1.105s1.125.494 1.125 1.105c0 .612-.503 1.106-1.125 1.106zM10.5 5.895H6.75V2.947h3.75v2.948z" transform="translate(-1170 -366) translate(308 249) translate(632 106) translate(203) translate(27 11)"/>
                   
        </g>
    </g>
</svg>
