<svg xmlns="http://www.w3.org/2000/svg" width="16" height="19" viewBox="0 0 16 19">
    <g fill="none" fill-rule="evenodd">
        <g fill="#109CF1" fill-rule="nonzero" stroke="#109CF1" stroke-width=".2">
            <g>
                <g>
                    <g>
                        <path d="M14.823.605C14.447.229 13.946 0 13.383 0H2.046C1.482 0 .981.23.606.605.23.98 0 1.48 0 2.043v11.3c0 .562.23 1.063.605 1.438.376.354.877.584 1.441.584h2.818l.815 1 .02.021.94 1.147c.188.23.46.375.773.438.271.062.584.02.876-.084.105-.041.188-.083.272-.146.062-.041.125-.104.188-.166l.041-.042.94-1.147.02-.02.815-1.001h2.819c.563 0 1.064-.23 1.44-.605.376-.375.606-.876.606-1.438V2.043c0-.563-.23-1.063-.606-1.438zm-.46 12.737c0 .271-.104.5-.291.688-.167.167-.418.292-.69.292h-3.09c-.187 0-.333.084-.438.23l-.94 1.125-.02.021-.96 1.168c-.021 0-.021.02-.042.02-.084.042-.188.042-.272.021-.062-.02-.125-.041-.146-.062l-.94-1.147-.02-.02-.94-1.147c0-.021-.02-.021-.02-.042-.105-.146-.272-.23-.439-.23H2.046c-.271 0-.501-.103-.689-.291-.167-.167-.292-.417-.292-.688V2.043h.02c0-.271.105-.5.293-.688.167-.167.417-.292.689-.292h11.316c.271 0 .5.104.689.292.167.167.292.417.292.688v11.3h0z" transform="translate(-727 -123) translate(-10 -9) translate(737 132)"/>
                        <path d="M9.526 3.315c-.468-.47-1.11-.744-1.812-.744-.701 0-1.344.294-1.811.763-.468.47-.76 1.115-.76 1.819s.292 1.349.76 1.818c.467.45 1.11.743 1.811.743.702 0 1.344-.293 1.812-.762.468-.47.76-1.115.76-1.819s-.292-1.35-.76-1.818zm-.701 2.952c-.293.294-.682.47-1.11.47-.43 0-.819-.176-1.111-.47-.292-.293-.468-.684-.468-1.114.02-.45.195-.841.468-1.115.292-.293.682-.47 1.11-.47.429 0 .818.177 1.11.47.293.293.468.684.468 1.115 0 .43-.175.82-.467 1.114zM11.245 9.797C10.327 9.307 9.082 9 7.715 9s-2.632.308-3.53.797c-1 .543-1.612 1.304-1.612 2.155v.434c-.02.254.224.471.51.471h9.244c.285 0 .53-.2.53-.47v-.435c0-.87-.612-1.63-1.612-2.155zm-7.652 2.137c.02-.507.449-.978 1.102-1.34.755-.417 1.816-.67 3-.67 1.183 0 2.244.253 3 .67.673.362 1.08.833 1.101 1.34H3.593z" transform="translate(-727 -123) translate(-10 -9) translate(737 132)"/>
                    </g>
                </g>
            </g>
        </g>
    </g>
</svg>
