<svg width="36" height="38" viewBox="0 0 36 38" fill="none" xmlns="http://www.w3.org/2000/svg">
<path d="M26.6291 28.5849C31.8045 23.7104 32.1366 15.4675 27.3709 10.1738C22.6052 4.88024 14.5463 4.54053 9.37092 9.41507C4.1955 14.2896 3.86337 22.5325 8.62908 27.8261C13.3948 33.1197 21.4537 33.4594 26.6291 28.5849Z" fill="#F45617" fill-opacity="0.2"/>
<path d="M29.4045 3.82275H10.6934V18.3059H29.4045V3.82275Z" fill="white" stroke="#1E1E1E" stroke-miterlimit="10"/>
<path d="M22.8303 3.82275H17.2675V6.92628H22.8303V3.82275Z" fill="#F45617" stroke="#1E1E1E" stroke-miterlimit="10"/>
<path d="M30.7244 14.2453C29.5006 14.5402 28.4335 15.2798 27.6042 16.9351L24.8784 18.5127C24.6998 18.2776 24.4691 18.0893 24.2053 17.9634C23.9415 17.8375 23.6522 17.7775 23.3613 17.7885H19.4067C18.8302 17.7885 17.6317 16.2368 16.7163 16.2368H13.4444C12.5089 16.2368 11.3103 17.0695 10.6378 17.7109C9.596 18.7713 6.95621 21.3317 6.6629 21.5696C8.3115 23.0335 11.7503 26.3853 12.5089 27.0681C13.5203 26.0336 13.94 25.0301 14.7845 25.0301H24.0288C24.7975 25.0301 29.005 21.1041 29.541 20.4886C30.0771 19.8731 32.813 16.2574 33.4501 14.7264C33.0506 14.1677 32.0089 13.9453 30.7244 14.2453Z" fill="white"/>
<path d="M17.7733 21.4093H23.336C23.5797 21.4281 23.8246 21.3953 24.0553 21.3129C24.286 21.2305 24.4976 21.1002 24.6768 20.9302C24.856 20.7603 24.999 20.5543 25.0967 20.3252C25.1945 20.0961 25.2449 19.8489 25.2449 19.5989C25.2449 19.3489 25.1945 19.1017 25.0967 18.8726C24.999 18.6435 24.856 18.4375 24.6768 18.2676C24.4976 18.0976 24.286 17.9673 24.0553 17.8849C23.8246 17.8025 23.5797 17.7697 23.336 17.7885H19.3814C18.8049 17.7885 17.6064 16.2367 16.6911 16.2367H13.4444C12.5089 16.2367 11.3103 17.0695 10.6378 17.7109C9.596 18.7713 6.95621 21.3317 6.6629 21.5696C8.3115 23.0335 11.7503 26.3853 12.5089 27.068C13.5203 26.0335 13.94 25.0301 14.7845 25.0301H24.0288C24.7975 25.0301 29.005 21.1041 29.541 20.4886C30.0771 19.873 32.813 16.2574 33.4501 14.7264C33.0506 14.1729 32.0089 13.9453 30.7244 14.2453C29.4399 14.5453 28.4335 15.2798 27.6042 16.935L24.8531 18.3058" stroke="#1E1E1E" stroke-miterlimit="10"/>
<path d="M7.05303 19.4125L3.62079 22.9243L11.2459 30.7208L14.6781 27.209L7.05303 19.4125Z" fill="#F45617" stroke="#1E1E1E" stroke-miterlimit="10"/>
<path d="M6.4455 22.4336L7.77044 23.794" stroke="#1E1E1E" stroke-miterlimit="10"/>
<path d="M12.2105 14.1677H13.2219" stroke="#1E1E1E" stroke-miterlimit="10"/>
<path d="M14.2333 14.1677H15.2447" stroke="#1E1E1E" stroke-miterlimit="10"/>
<path d="M16.2562 14.1677H17.2676" stroke="#1E1E1E" stroke-miterlimit="10"/>
</svg>
