<svg width="28" height="29" viewBox="0 0 28 29" fill="none" xmlns="http://www.w3.org/2000/svg">
<path d="M18.258 25.3519C22.4586 21.4839 22.7281 14.943 18.8601 10.7425C14.9921 6.54197 8.45129 6.2724 4.25076 10.1404C0.0502231 14.0084 -0.219343 20.5492 3.64866 24.7498C7.51666 28.9503 14.0575 29.2199 18.258 25.3519Z" fill="#F45617" fill-opacity="0.2"/>
<path d="M23.594 0.46582H22.1253V4.87186H23.594V0.46582Z" fill="#1E1E1E"/>
<path d="M11.8445 0.46582H10.3758V4.87186H11.8445V0.46582Z" fill="#1E1E1E"/>
<path d="M18.3067 21.0274H26.5313V9.27798H7.43847V10.1592C6.851 10.4529 6.41039 10.7467 5.96979 11.1873V1.93457H8.90715V6.34061H13.3132V1.93457H20.6566V6.34061H25.0626V1.93457H28V22.4961H17.2786C17.7192 22.0555 18.013 21.6149 18.3067 21.0274Z" fill="#1E1E1E"/>
<path d="M11.1102 15.4197C8.31968 15.4197 10.9099 12.6292 10.9099 15.4197C10.9099 18.2102 8.31968 15.4197 11.1102 15.4197C10.9099 15.4197 11.1102 18.2102 11.1102 15.4197ZM11.1102 10.7466C14.7819 10.7466 17.7192 13.6839 17.7192 17.3556C17.7192 21.0273 14.7819 23.9647 11.1102 23.9647C7.43847 23.9647 4.50111 21.0273 4.50111 17.3556C4.50111 13.6839 7.43847 10.7466 11.1102 10.7466Z" fill="#EB5E13"/>
<path d="M7.43847 18.0899H11.8445V13.6838H10.3758V16.6212H7.43847V18.0899Z" fill="#1E1E1E"/>
</svg>
