<svg width="28" height="30" viewBox="0 0 28 30" fill="none" xmlns="http://www.w3.org/2000/svg">
<path d="M27.7701 14.636C27.7701 21.6687 22.4098 26.329 15.8313 26.329C9.25286 26.329 3.89261 21.6687 3.89261 14.636C3.89261 7.60324 9.25286 1.90625 15.8313 1.90625C22.4098 1.90625 27.7701 7.60822 27.7701 14.636Z" fill="#F45617" fill-opacity="0.2"/>
<path d="M10.7148 28.8213L25.3336 28.8213V19.8497H10.7148L10.7148 28.8213Z" fill="white" stroke="#1E1E1E" stroke-miterlimit="10"/>
<path d="M15.5878 22.3416H19.9734V19.8494H15.5878V22.3416Z" fill="#F45617" stroke="#1E1E1E" stroke-miterlimit="10"/>
<path d="M23.8717 26.8274H22.8971" stroke="#1E1E1E" stroke-miterlimit="10"/>
<path d="M21.9223 26.8274H20.9477" stroke="#1E1E1E" stroke-miterlimit="10"/>
<path d="M19.9731 26.8274H18.9985" stroke="#1E1E1E" stroke-miterlimit="10"/>
<path d="M13.9357 12.7172C13.1073 11.5708 11.8549 8.88428 9.18455 8.88428H4.67219C2.9228 8.88428 0.96875 10.7932 0.96875 13.1956V17.8061C0.96875 18.9425 2.24059 20.2234 3.40523 20.5175V29.3196H10.2274V28.6966L10.7147 29.3196V14.3669L13.8577 17.7662C13.9968 17.9186 14.165 18.0402 14.3519 18.1233C14.5389 18.2064 14.7405 18.2493 14.9444 18.2493C15.1482 18.2493 15.3499 18.2064 15.5368 18.1233C15.7238 18.0402 15.892 17.9186 16.0311 17.7662L16.6743 17.0584C16.6743 17.0584 14.7543 13.8685 13.9357 12.7172Z" fill="#F45617"/>
<path d="M7.30363 7.25438C8.56086 7.25438 9.74011 6.4569 9.74011 4.89683V3.00283C9.74011 1.44277 8.56086 0.680176 7.30363 0.680176C6.04641 0.680176 4.86716 1.44277 4.86716 3.00283V4.89683C4.86716 6.4569 6.04641 7.25438 7.30363 7.25438Z" fill="white" stroke="#1E1E1E" stroke-miterlimit="10"/>
<path d="M10.7147 29.3196V14.3669L13.8577 17.7662C13.9968 17.9186 14.165 18.0402 14.3519 18.1233C14.5389 18.2064 14.7405 18.2493 14.9444 18.2493C15.1482 18.2493 15.3499 18.2064 15.5368 18.1233C15.7238 18.0402 15.892 17.9186 16.0311 17.7662L16.6743 17.0584C16.6743 17.0584 14.7543 13.8785 13.9357 12.7371C13.117 11.5957 11.8549 8.88428 9.18455 8.88428H4.67219C2.9228 8.88428 0.96875 10.7932 0.96875 13.1956V17.8061C0.96875 19.092 2.61094 20.5773 3.89252 20.5773" stroke="#1E1E1E" stroke-miterlimit="10"/>
<path d="M3.89261 12.8716V29.3196" stroke="#1E1E1E" stroke-miterlimit="10"/>
<path d="M7.30374 19.8496V29.3197" stroke="#1E1E1E" stroke-miterlimit="10"/>
</svg>
