<svg width="176" height="149" viewBox="0 0 176 149" fill="none" xmlns="http://www.w3.org/2000/svg">
<path d="M112.303 5.63371L56.7106 0L1.02711 5.31097L0 128.863L55.66 126.301L111.267 130.189L166.876 125.511L167.892 3.25884L112.303 5.63371Z" fill="white"/>
<path d="M58.6333 4.78151L57.6546 122.54L6.77046 124.877L7.72851 9.62815L58.6333 4.78151Z" stroke="#B7BCD6" stroke-opacity="0.3" stroke-width="2"/>
<path d="M109.687 9.92964L108.72 126.113L57.8857 122.563L58.8646 4.78629L109.687 9.92964Z" stroke="#B7BCD6" stroke-opacity="0.3" stroke-width="2"/>
<path d="M160.734 7.81774L159.787 121.827L108.952 126.097L109.918 9.9851L160.734 7.81774Z" stroke="#B7BCD6" stroke-opacity="0.3" stroke-width="2"/>
<path opacity="0.47" d="M57.9105 3.67987L56.7134 3.66919L55.6492 123.516L56.8464 123.526L57.9105 3.67987Z" fill="white"/>
<path d="M95.6274 83.0043C95.4145 84.6764 95.2407 86.3533 95.106 88.035C95.0741 88.4355 95.1523 88.9804 95.5381 89.0196C95.7708 89.0437 95.9644 88.8477 96.1208 88.6681C96.7862 87.905 97.5011 86.921 97.1792 85.9482C97.0592 85.5863 96.8044 85.2818 96.706 84.9127C96.5587 84.3574 96.7901 83.7667 96.7308 83.1944C96.6715 82.6221 95.9852 82.0589 95.6007 82.4757L95.6274 83.0043Z" fill="#91EDAB"/>
<path d="M52.8267 28.0137C50.2101 26.6266 48.5645 26.4391 45.7471 26.7468C43.0901 27.0369 41.2946 28.375 39.4704 30.282C39.0553 30.7159 38.6525 31.1902 38.1142 31.4398C35.8599 32.4851 33.0002 32.2728 30.6976 33.3024C27.9604 34.5287 27.1842 38.3416 24.6816 40.0279C23.2322 41.0033 21.4067 41.1268 19.8159 41.8252C17.4606 42.8594 16.3742 45.0063 15.0388 47.097C14.2163 48.3827 11.1872 50.5845 11.3586 52.0878C11.3979 52.3602 11.4967 52.6205 11.6479 52.8502C12.4821 54.1981 13.7282 54.3405 15.0421 54.7253C16.7789 55.2336 17.8262 56.015 19.363 57.1048C20.9655 58.2409 23.1429 59.2346 23.2843 61.2423C23.3495 62.174 22.9148 63.0547 22.7024 63.9628C21.7456 68.0573 25.2968 71.7375 28.7529 73.9497C32.209 76.1619 36.2868 78.3512 37.3862 82.4071C37.4866 82.7769 37.5707 83.1781 37.8424 83.4427C38.8513 84.4377 39.6073 82.187 39.9129 81.4709C40.1085 81.0136 39.9312 80.4576 39.6236 80.0669C39.316 79.6762 38.8963 79.4031 38.5156 79.0869C37.2389 78.02 36.4113 76.3951 36.2803 74.6997C36.2633 74.4841 36.262 74.2515 36.3793 74.0725C36.9789 73.1637 38.472 72.7907 39.2045 71.6892C40.2525 70.1127 40.4917 68.6185 40.6702 66.7473C41.322 59.8755 47.5661 62.3046 51.4835 59.2614C52.2128 58.6943 52.7609 57.7986 52.886 56.8839C52.9632 56.3801 52.8871 55.8646 52.6677 55.4048C52.2825 54.6208 51.4946 54.1151 50.6728 53.889C49.851 53.663 48.9894 53.6793 48.1402 53.6976L45.7764 53.7473C45.5431 53.7525 45.3033 53.759 45.0895 53.8557C44.7878 53.9923 44.5831 54.2876 44.4196 54.5835C43.8893 55.5514 43.6332 56.6463 43.6792 57.7496C42.6404 58.1155 41.6315 57.1224 41.0652 56.1483C40.4079 55.0157 39.9401 53.7829 39.6803 52.4987C39.5799 52.0022 39.518 51.4534 39.7663 51.015C39.9025 50.7739 40.1195 50.5943 40.3385 50.427C41.2209 49.7684 42.2389 49.2699 43.3201 49.1517C45.1671 48.9492 46.9619 49.8625 48.4759 50.981C49.9298 52.0564 52.3014 53.3428 53.9327 51.7977C54.7747 51 54.7897 49.5483 54.2032 48.531C53.2497 46.8833 50.8194 46.0216 49.2358 45.1892C48.4948 44.7972 48.019 43.9982 47.8085 43.1639C47.598 42.3296 47.6175 41.4554 47.6391 40.5943C48.7386 40.1521 49.9235 39.9643 51.1055 40.0449C52.2874 40.1254 53.4361 40.4722 54.4658 41.0595C54.7584 41.228 55.0699 41.4626 55.1045 41.8075C55.139 42.1525 54.8699 42.4576 54.6568 42.7379C52.7609 45.2206 54.4651 47.2315 56.696 48.6349C56.7488 42.3302 56.7612 35.9935 56.767 29.6829C55.4094 29.2379 54.0913 28.6795 52.8267 28.0137Z" fill="#91EDAB"/>
<path d="M72.6433 33.3521C72.3377 32.9392 71.7309 33.0438 71.2298 33.047C69.6278 33.0575 68.3557 31.6567 66.8157 31.1987C66.0089 30.959 65.1544 30.9864 64.315 30.9733C61.7481 30.9305 59.2025 30.4979 56.7649 29.6902C56.761 36.0008 56.7466 42.3375 56.6938 48.6422C58.084 49.5163 59.6787 50.1559 60.7345 50.5303C61.8548 50.9275 62.9243 51.5802 64.1234 51.3359C65.2314 51.1092 66.235 49.8515 67.3866 49.5307C68.2208 49.2988 69.1117 49.4203 69.9589 49.2439C70.8061 49.0675 71.6886 48.4096 71.6534 47.5145C71.6247 46.7854 71.0075 46.2372 70.3923 45.8812C70.3923 45.9504 69.3274 45.0769 69.227 44.8881C68.2977 43.0208 69.6487 41.3764 70.1655 39.7646C70.9143 37.4309 69.8058 36.0589 72.1083 34.7666C72.5964 34.4935 72.9822 33.8101 72.6433 33.3521Z" fill="#91EDAB"/>
<path d="M41.527 92.4464C41.9278 93.2957 42.257 94.0921 42.3443 94.7729C42.7242 97.7332 40.2666 101.375 39.2213 104.078C38.9306 104.83 38.6347 105.629 38.765 106.43C38.8198 106.766 38.9488 107.083 39.0779 107.398C40.0268 109.715 41.8907 111.813 43.5474 113.6C44.1137 112.068 44.0687 108.388 43.9162 106.756C43.8647 106.217 43.7755 105.654 43.9664 105.151C44.5797 103.537 46.5733 101.315 47.953 100.352C49.302 99.409 51.0747 98.6537 51.4247 97.0027C51.5589 96.369 51.4462 95.6902 51.6437 95.0747C51.7623 94.7056 51.9852 94.3842 52.165 94.0412C53.0377 92.3595 53.5336 89.1118 51.7857 87.9168C49.8306 86.5814 47.0679 88.5375 45.3917 86.3586C45.1388 86.0319 44.9505 85.6471 44.6631 85.3512C44.1293 84.8011 43.3088 84.6273 42.5665 84.756C37.6252 85.6105 40.0581 89.3457 41.527 92.4464Z" fill="#91EDAB"/>
<path d="M72.5485 67.9933C74.1087 69.0282 76.8016 66.7579 77.7916 64.104C77.9154 63.7721 78.0307 63.4252 78.2575 63.158C78.7196 62.6137 79.5147 62.5438 80.2068 62.6444C80.8989 62.7451 81.5898 62.975 82.2839 62.8829C83.279 62.7523 84.1008 61.9584 84.5649 61.0359C85.0289 60.1134 85.197 59.0661 85.358 58.0391C86.1012 57.8515 86.8859 57.9232 87.583 58.2423C88.1187 58.4879 88.6472 59.0302 88.4954 59.6175C88.4269 59.8867 88.2282 60.0964 88.0392 60.297C87.4532 60.9251 86.909 61.5909 86.4099 62.2903C86.1016 62.7222 85.7992 63.286 86.0306 63.7669C86.6608 65.0775 87.813 64.396 87.482 66.2705C87.0649 68.6185 83.9894 69.5783 85.7464 72.3831C86.3897 73.4095 87.5589 74.0236 88.7378 74.0817C89.585 74.1216 90.6278 73.6669 90.6369 72.7888C90.6402 72.5275 90.547 72.2603 90.6258 72.0133C90.7282 71.6918 91.082 71.5344 91.4027 71.4834C92.4591 71.3168 93.4804 71.8663 94.4553 72.3204C94.7499 72.4576 95.1012 72.5817 95.3814 72.4184C96.2938 71.8767 95.8676 71.4292 97.1072 71.3077C98.1636 71.2058 99.4006 72.0505 99.9995 72.8861C100.143 73.0874 100.273 73.3435 100.182 73.578C100.103 73.7793 99.8835 73.8825 99.7734 74.0674C99.5909 74.3718 99.7734 74.7926 100.062 74.9918C100.351 75.1911 100.707 75.2342 101.046 75.3067C102.633 75.6458 102.67 77.2158 103.793 77.9991C104.705 78.6355 107.024 78.7609 106.82 76.9309C106.745 76.2619 106.097 75.7118 106.203 75.048C106.297 74.4633 106.931 74.1516 107.498 74.0772C108.065 74.0027 108.671 74.0589 109.176 73.7851C109.514 73.6022 109.769 73.2919 110.077 73.0599C111.972 71.6291 116.464 72.8443 117.916 74.4483C119.275 75.947 119.427 78.5303 121.174 79.5012C120.97 77.5098 120.001 75.6132 118.527 74.3202C118.255 74.0824 117.957 73.8498 117.814 73.512C117.695 73.2291 117.702 72.9077 117.717 72.5974C117.795 71.0202 118.093 69.5509 118.508 68.0782C118.459 68.2546 119.616 65.0546 118.785 65.6609C120.276 64.5777 123.533 62.7986 125.403 62.9169C126.376 62.977 127.338 63.5611 127.749 64.4797C128.16 65.3983 127.911 66.6193 127.106 67.191C126.336 67.7379 125.267 67.6327 124.484 68.1612C123.73 68.6695 123.408 69.7671 123.761 70.625C124.251 69.924 124.978 69.4255 125.808 69.2222C126.901 68.9609 128.142 69.236 129.086 68.6081C129.782 68.1449 130.148 67.2603 130.156 66.4024C130.165 65.5446 129.859 64.7123 129.449 63.9668C129.153 63.4278 128.798 62.911 128.637 62.3132C128.383 61.3535 128.684 60.3088 129.219 59.483C131.21 56.4123 134.895 55.0854 138.304 56.2163C138.532 56.2914 138.773 56.3927 138.891 56.6083C139.062 56.9199 138.897 57.3172 138.97 57.6673C139.084 58.2194 139.896 58.4285 140.246 57.994C140.488 57.6948 140.473 57.2636 140.564 56.8833C140.803 55.8988 141.77 55.2964 142.711 55.0161C143.86 54.6724 146.947 53.0888 147.267 55.1834C147.295 55.3663 147.289 55.5603 147.366 55.7276C147.581 56.1999 148.304 56.132 148.647 55.7498C149.355 54.9619 149.479 53.667 150.165 52.7863C150.772 52.0068 151.668 51.5397 152.176 50.6695C153.435 48.5135 152.476 45.6963 150.286 44.6522C148.188 43.652 145.747 44.0956 143.474 44.5216C141.91 44.8136 136.535 45.9315 136.153 43.3031C136.122 43.0875 136.129 42.8582 136.028 42.6667C135.903 42.4296 135.643 42.3055 135.484 42.0918C135.282 41.8194 135.273 41.4463 135.164 41.1216C134.767 39.9404 133.274 39.7241 132.068 39.7091C132.189 38.9767 132.256 38.0843 131.687 37.6308C131.367 37.3747 130.933 37.3466 130.529 37.3283C129.477 37.282 126.944 37.6733 126.069 37.0357C124.914 36.1902 125.709 34.749 125.206 33.5847C124.671 32.3473 122.682 32.1748 122.461 30.8407C122.413 30.5513 122.466 30.2527 122.432 29.962C122.351 29.2512 121.792 28.7161 121.27 28.2483C120.324 27.399 119.25 26.5032 118.002 26.5359C117.767 26.7286 117.978 27.133 118.242 27.2781C118.507 27.4231 118.846 27.4983 118.98 27.7759C119.238 28.3084 118.5 28.7461 117.937 28.8572C117.91 29.636 118.665 30.1521 119.248 30.6434C120.246 31.4962 120.932 32.6588 121.197 33.9467C119.208 34.3167 117.177 34.4031 115.164 34.2034C112.742 33.963 111.188 37.949 108.316 36.8442C107.892 36.6809 107.513 36.3869 107.069 36.3007C105.952 36.0811 105.052 37.1787 104.047 37.7328C102.518 38.5756 100.644 38.1385 99.0056 37.5577C97.0505 36.8645 94.6672 35.8688 92.6937 37.0651C91.9567 37.5119 91.3675 38.2077 90.5867 38.5677C88.9477 39.3217 87.0883 38.3959 85.3033 38.2182C80.8996 37.7798 78.2497 42.2486 76.8185 45.97C76.6015 46.5345 76.4067 47.1284 76.4353 47.734C76.464 48.3397 76.7612 48.9701 77.2956 49.2204C78.0874 49.5908 79.0077 49.0021 79.5245 48.2782C80.0413 47.5544 80.3561 46.6691 80.9882 46.051C81.6204 45.433 82.7831 45.235 83.2823 45.972C83.528 46.3346 83.5384 46.8096 83.5391 47.2525C83.5391 48.0949 83.5408 48.9368 83.5443 49.7783C83.5443 50.2415 83.5443 50.7204 83.3618 51.1438C83.0587 51.85 82.3366 52.2401 81.6673 52.5765L77.295 54.7718C76.8036 55.0187 76.3056 55.2689 75.8879 55.6348C73.9842 57.3015 75.2635 59.6077 73.7946 61.2123C73.2015 61.8598 72.2181 62.0545 71.7319 62.7914C71.3721 63.3363 71.3741 64.0452 71.3891 64.7051C71.434 66.5311 71.8903 67.5562 72.5485 67.9933Z" fill="#91EDAB"/>
<path d="M123.361 81.9955C122.771 83.1023 122.852 84.5488 121.519 85.1596C120.632 85.566 119.499 85.3805 118.774 86.0514C117.949 86.8165 118.165 88.1741 118.324 89.3096C118.353 89.5135 118.376 89.729 118.296 89.9172C118.083 90.4157 117.322 90.4026 117.06 90.875C116.836 91.2807 117.114 91.7897 117.448 92.1059C118.467 93.0617 120.12 93.1865 121.264 92.3947C121.568 92.1836 121.897 91.902 122.251 91.9922C122.666 92.0974 122.805 92.6194 122.917 93.0454C123.157 93.9535 123.629 94.8264 124.376 95.3621C126.726 97.0471 130.032 94.9969 132.642 97.3737C132.963 97.6658 133.268 98.0133 133.359 98.4445C133.46 98.9117 133.309 99.4474 133.562 99.8472C133.879 100.348 134.658 100.28 135.084 99.876C135.51 99.4722 135.681 98.8633 135.859 98.2936C136.037 97.7239 136.271 97.1222 136.76 96.8034C137.584 96.2676 138.524 96.4728 138.98 95.3824C139.549 93.9914 137.851 92.8396 138.39 91.5728C138.631 91.007 139.016 90.3896 138.774 89.8238C138.651 89.537 138.391 89.3449 138.176 89.1221C137.171 88.0768 136.999 87.0968 135.659 86.4617C134.804 86.056 133.032 86.5813 132.681 85.1021C132.59 84.7167 132.721 84.2325 132.434 83.9699C132.272 83.8203 132.034 83.8105 131.817 83.8111C130.318 83.8164 128.534 83.8399 127.679 82.562C126.735 81.1495 126.624 80.1309 124.706 80.8326C124.124 81.0297 123.641 81.447 123.361 81.9955Z" fill="#91EDAB"/>
<path d="M78.6605 74.2248C78.3477 74.6743 78.1717 75.2159 77.842 75.6517C76.9146 76.8793 76.5118 75.7941 75.4639 76.2077C75.1021 76.3508 74.7815 76.6049 74.4042 76.6951C73.641 76.8767 72.883 76.3488 72.1003 76.3455C69.0842 76.3331 70.6666 81.3612 72.1277 82.3255C72.3982 82.5039 72.7384 82.5065 73.059 82.5032L76.0419 82.4725C76.3254 82.4725 76.6285 82.4725 76.8631 82.6398C77.58 83.1526 76.897 84.4201 77.3297 85.2067C77.6263 85.7464 78.3158 85.8464 78.9056 85.9574C80.1523 86.192 80.4247 87.5986 81.1866 88.4669C82.1642 89.5821 83.1033 90.0349 83.6566 91.6519C83.9825 92.6136 84.0985 93.6537 84.5312 94.5697C85.4221 96.4539 87.7318 97.4686 89.6563 96.8224C91.5808 96.1763 92.8777 93.9477 92.5336 91.8806C92.3329 90.6732 91.6623 89.6148 91.197 88.4884C90.2546 86.2103 90.892 83.4355 93.5014 83.0004C94.1603 82.8907 95.0004 82.8521 95.2428 82.2092C95.5967 81.2821 94.2301 80.1983 94.7971 79.3927C95.0011 79.1026 95.396 79.0007 95.5752 78.6917C95.8157 78.2794 95.542 77.745 95.2063 77.4111C94.8707 77.0773 94.4471 76.7878 94.3083 76.3272C93.5262 73.7335 90.9656 75.3544 89.2549 75.6961C87.7298 76.0012 86.8598 75.8033 85.5909 75.0428C83.6266 73.8648 80.6489 71.3632 78.6605 74.2248Z" fill="#91EDAB"/>
<path d="M85.1587 33.6598C85.3842 33.2234 85.9349 33.1215 86.4113 33.0882C88.0554 32.9722 89.7076 33.0821 91.322 33.4148C89.986 34.5039 88.4955 35.6492 86.7971 35.5898C86.0268 35.563 85.2278 35.2873 84.507 35.5708C84.4245 35.306 84.4034 35.0258 84.4453 34.7516C84.4872 34.4774 84.591 34.2164 84.7488 33.9884L85.1587 33.6598Z" fill="#91EDAB"/>
<path d="M66.1812 53.6885C67.8561 55.0606 73.7646 53.2312 71.0078 51.4541C70.5627 51.168 70.0302 51.0798 69.5088 50.9968C68.8128 50.8864 68.0985 50.776 67.4083 50.9243C66.7182 51.0726 66.0469 51.5358 65.8397 52.2342C65.6415 52.9065 65.8077 53.3789 66.1812 53.6885Z" fill="#91EDAB"/>
<path d="M139.153 41.5939C140.189 42.5354 141.64 42.7699 143.005 42.96C143.686 43.0567 144.578 43.0306 144.814 42.3603C145.062 41.6534 144.261 41.0007 143.54 40.919C142.819 40.8373 142.054 41.0346 141.386 40.7413C140.793 40.48 140.327 39.8534 139.683 39.8593C138.934 39.8658 138.482 40.9994 139.005 41.5534L139.153 41.5939Z" fill="#91EDAB"/>
<path d="M101.913 73.8799C101.664 73.8802 101.425 73.7851 101.244 73.614L99.8104 72.2602C99.7092 72.1743 99.6266 72.0686 99.5674 71.9496C99.5083 71.8306 99.4739 71.7008 99.4664 71.5681C99.4589 71.4354 99.4784 71.3025 99.5238 71.1776C99.5691 71.0526 99.6393 70.9383 99.7301 70.8414C99.821 70.7445 99.9305 70.6672 100.052 70.6141C100.174 70.561 100.305 70.5333 100.437 70.5326C100.57 70.5319 100.701 70.5583 100.823 70.6101C100.946 70.6619 101.056 70.7381 101.148 70.834L102.582 72.1877C102.724 72.3223 102.822 72.4965 102.864 72.6878C102.907 72.8791 102.891 73.0787 102.819 73.2608C102.747 73.4429 102.622 73.5993 102.461 73.7096C102.299 73.82 102.108 73.8793 101.913 73.8799Z" fill="#7CA7E5"/>
<path d="M116.186 87.3366C115.937 87.3368 115.698 87.2419 115.516 87.0714L111.586 83.365C111.411 83.184 111.312 82.9424 111.311 82.6904C111.309 82.4385 111.404 82.1955 111.576 82.0119C111.748 81.8284 111.984 81.7183 112.235 81.7047C112.486 81.6911 112.733 81.7749 112.924 81.9388L116.854 85.6451C116.996 85.7798 117.094 85.9539 117.137 86.1451C117.179 86.3362 117.163 86.5357 117.091 86.7177C117.019 86.8997 116.894 87.0559 116.733 87.1662C116.572 87.2766 116.381 87.3359 116.186 87.3366ZM108.323 79.9239C108.075 79.9238 107.836 79.829 107.655 79.6586L103.723 75.9522C103.622 75.8663 103.54 75.7606 103.481 75.6416C103.421 75.5226 103.387 75.3928 103.379 75.2601C103.372 75.1274 103.391 74.9945 103.437 74.8696C103.482 74.7446 103.552 74.6303 103.643 74.5334C103.734 74.4365 103.844 74.3592 103.965 74.3061C104.087 74.253 104.218 74.2253 104.35 74.2246C104.483 74.2239 104.614 74.2503 104.737 74.3021C104.859 74.3539 104.969 74.4301 105.061 74.526L108.992 78.2324C109.134 78.367 109.232 78.5412 109.274 78.7323C109.316 78.9235 109.3 79.1229 109.229 79.3049C109.157 79.4869 109.032 79.6432 108.871 79.7535C108.709 79.8638 108.519 79.9232 108.323 79.9239Z" fill="#7CA7E5"/>
<path d="M120.137 93.491C119.985 93.4908 119.835 93.4548 119.699 93.3861C119.562 93.3174 119.444 93.2177 119.354 93.0951C119.263 92.9725 119.202 92.8303 119.176 92.6799C119.149 92.5295 119.159 92.375 119.202 92.2288L119.597 90.9182L118.603 89.9806C118.429 89.7994 118.332 89.5583 118.331 89.3071C118.329 89.0559 118.424 88.8138 118.596 88.6308C118.767 88.4478 119.003 88.3378 119.253 88.3236C119.503 88.3094 119.749 88.392 119.94 88.5544L121.374 89.9081C121.506 90.033 121.601 90.1924 121.648 90.3684C121.695 90.5444 121.692 90.73 121.64 90.9045L121.07 92.7952C121.009 92.996 120.886 93.1719 120.718 93.2972C120.55 93.4224 120.346 93.4904 120.137 93.491Z" fill="#7CA7E5"/>
<path d="M117.489 102.272C117.337 102.272 117.186 102.236 117.05 102.167C116.914 102.098 116.796 101.999 116.705 101.876C116.614 101.753 116.553 101.611 116.527 101.46C116.501 101.31 116.51 101.155 116.554 101.009L118.177 95.6254C118.209 95.4965 118.267 95.3754 118.347 95.2695C118.427 95.1636 118.528 95.0751 118.643 95.0095C118.758 94.9438 118.885 94.9023 119.017 94.8875C119.149 94.8726 119.282 94.8848 119.409 94.9233C119.536 94.9617 119.654 95.0256 119.755 95.1111C119.856 95.1966 119.94 95.3018 119.999 95.4205C120.059 95.5392 120.094 95.6687 120.102 95.8013C120.11 95.9339 120.091 96.0668 120.046 96.1919L118.423 101.576C118.362 101.777 118.239 101.953 118.071 102.078C117.902 102.204 117.699 102.271 117.489 102.272Z" fill="#7CA7E5"/>
<path d="M69.2618 64.3693C69.0025 64.3693 68.7538 64.266 68.5705 64.0823C68.3872 63.8985 68.2842 63.6492 68.2842 63.3893V61.4136C68.2842 61.1537 68.3872 60.9044 68.5705 60.7206C68.7538 60.5368 69.0025 60.4336 69.2618 60.4336C69.521 60.4336 69.7697 60.5368 69.953 60.7206C70.1363 60.9044 70.2393 61.1537 70.2393 61.4136V63.3893C70.2393 63.6492 70.1363 63.8985 69.953 64.0823C69.7697 64.266 69.521 64.3693 69.2618 64.3693Z" fill="#7CA7E5"/>
<path d="M69.2618 58.8374C69.0025 58.8374 68.7538 58.7341 68.5705 58.5503C68.3872 58.3666 68.2842 58.1173 68.2842 57.8574V52.2197C68.2842 51.9598 68.3872 51.7106 68.5705 51.5268C68.7538 51.343 69.0025 51.2397 69.2618 51.2397C69.521 51.2397 69.7697 51.343 69.953 51.5268C70.1363 51.7106 70.2393 51.9598 70.2393 52.2197V57.8574C70.2393 58.1173 70.1363 58.3666 69.953 58.5503C69.7697 58.7341 69.521 58.8374 69.2618 58.8374ZM69.2618 47.5628C69.0025 47.5628 68.7538 47.4595 68.5705 47.2757C68.3872 47.0919 68.2842 46.8427 68.2842 46.5828V45.4068C68.2842 45.1468 68.3872 44.8976 68.5705 44.7138C68.7538 44.53 69.0025 44.4268 69.2618 44.4268C69.521 44.4268 69.7697 44.53 69.953 44.7138C70.1363 44.8976 70.2393 45.1468 70.2393 45.4068V46.5828C70.2393 46.8427 70.1363 47.0919 69.953 47.2757C69.7697 47.4595 69.521 47.5628 69.2618 47.5628Z" fill="#7CA7E5"/>
<path d="M69.2618 44.6143C69.0025 44.6143 68.7538 44.511 68.5705 44.3272C68.3872 44.1435 68.2842 43.8942 68.2842 43.6343V41.6586C68.2842 41.3987 68.3872 41.1494 68.5705 40.9656C68.7538 40.7818 69.0025 40.6786 69.2618 40.6786H71.2325C71.4918 40.6786 71.7405 40.7818 71.9238 40.9656C72.1071 41.1494 72.2101 41.3987 72.2101 41.6586C72.2101 41.9185 72.1071 42.1678 71.9238 42.3516C71.7405 42.5353 71.4918 42.6386 71.2325 42.6386H70.2393V43.6343C70.2393 43.8942 70.1363 44.1435 69.953 44.3272C69.7697 44.511 69.521 44.6143 69.2618 44.6143Z" fill="#7CA7E5"/>
<path d="M75.1993 42.6309C74.94 42.6309 74.6913 42.5276 74.508 42.3438C74.3247 42.16 74.2217 41.9108 74.2217 41.6509C74.2217 41.3909 74.3247 41.1417 74.508 40.9579C74.6913 40.7741 74.94 40.6709 75.1993 40.6709L81.4896 40.6643C81.7489 40.6643 81.9976 40.7676 82.1809 40.9513C82.3642 41.1351 82.4672 41.3844 82.4672 41.6443C82.4672 41.9042 82.3642 42.1535 82.1809 42.3373C81.9976 42.5211 81.7489 42.6243 81.4896 42.6243L75.1986 42.6315L75.1993 42.6309ZM87.7807 42.6178C87.5214 42.6178 87.2728 42.5145 87.0894 42.3308C86.9061 42.147 86.8031 41.8977 86.8031 41.6378C86.8031 41.3779 86.9061 41.1286 87.0894 40.9448C87.2728 40.761 87.5214 40.6578 87.7807 40.6578L94.0717 40.6512C94.331 40.6512 94.5796 40.7545 94.763 40.9383C94.9463 41.1221 95.0493 41.3713 95.0493 41.6313C95.0493 41.8912 94.9463 42.1404 94.763 42.3242C94.5796 42.508 94.331 42.6113 94.0717 42.6113L87.7807 42.6178ZM100.363 42.6047C100.103 42.6047 99.8548 42.5015 99.6715 42.3177C99.4882 42.1339 99.3852 41.8846 99.3852 41.6247C99.3852 41.3648 99.4882 41.1155 99.6715 40.9318C99.8548 40.748 100.103 40.6447 100.363 40.6447L106.653 40.6382C106.912 40.6382 107.161 40.7414 107.344 40.9252C107.528 41.109 107.631 41.3583 107.631 41.6182C107.631 41.8781 107.528 42.1274 107.344 42.3112C107.161 42.4949 106.912 42.5982 106.653 42.5982L100.362 42.6047H100.363Z" fill="#7CA7E5"/>
<path d="M114.882 42.589C114.623 42.589 114.374 42.4858 114.191 42.302C114.008 42.1182 113.905 41.8689 113.905 41.609C113.905 41.3491 114.008 41.0999 114.191 40.9161C114.374 40.7323 114.623 40.629 114.882 40.629H116.852C117.112 40.629 117.36 40.7323 117.544 40.9161C117.727 41.0999 117.83 41.3491 117.83 41.609C117.83 41.8689 117.727 42.1182 117.544 42.302C117.36 42.4858 117.112 42.589 116.852 42.589H114.882H114.882Z" fill="#7CA7E5"/>
<path d="M30.0937 70.5433H28.1197C27.8604 70.5433 27.6117 70.44 27.4284 70.2562C27.2451 70.0724 27.1421 69.8232 27.1421 69.5633C27.1421 69.3033 27.2451 69.0541 27.4284 68.8703C27.6117 68.6865 27.8604 68.5833 28.1197 68.5833H30.0937C30.353 68.5833 30.6016 68.6865 30.785 68.8703C30.9683 69.0541 31.0713 69.3033 31.0713 69.5633C31.0713 69.8232 30.9683 70.0724 30.785 70.2562C30.6016 70.44 30.353 70.5433 30.0937 70.5433Z" fill="#7CA7E5"/>
<path d="M45.6107 70.5433H44.4741C44.2149 70.5433 43.9662 70.44 43.7829 70.2562C43.5995 70.0724 43.4965 69.8232 43.4965 69.5633C43.4965 69.3033 43.5995 69.0541 43.7829 68.8703C43.9662 68.6865 44.2149 68.5833 44.4741 68.5833H45.6107C45.87 68.5833 46.1186 68.6865 46.302 68.8703C46.4853 69.0541 46.5883 69.3033 46.5883 69.5633C46.5883 69.8232 46.4853 70.0724 46.302 70.2562C46.1186 70.44 45.87 70.5433 45.6107 70.5433ZM39.0069 70.5433H33.5396C33.2803 70.5433 33.0317 70.44 32.8483 70.2562C32.665 70.0724 32.562 69.8232 32.562 69.5633C32.562 69.3033 32.665 69.0541 32.8483 68.8703C33.0317 68.6865 33.2803 68.5833 33.5396 68.5833H39.0069C39.2661 68.5833 39.5148 68.6865 39.6981 68.8703C39.8814 69.0541 39.9844 69.3033 39.9844 69.5633C39.9844 69.8232 39.8814 70.0724 39.6981 70.2562C39.5148 70.44 39.2661 70.5433 39.0069 70.5433Z" fill="#7CA7E5"/>
<path d="M50.6503 71.9891C50.5159 71.9894 50.3829 71.962 50.2595 71.9085C50.1362 71.855 50.0251 71.7765 49.9334 71.6781L48.8796 70.5439H47.333C47.0738 70.5439 46.8251 70.4406 46.6418 70.2568C46.4585 70.0731 46.3555 69.8238 46.3555 69.5639C46.3555 69.304 46.4585 69.0547 46.6418 68.8709C46.8251 68.6871 47.0738 68.5839 47.333 68.5839H49.3038C49.4382 68.5835 49.5713 68.6109 49.6946 68.6645C49.818 68.718 49.929 68.7964 50.0207 68.8949L51.3646 70.34C51.4937 70.4797 51.5795 70.654 51.6115 70.8417C51.6434 71.0294 51.6201 71.2224 51.5444 71.397C51.4687 71.5717 51.3439 71.7204 51.1852 71.8251C51.0265 71.9298 50.8409 71.9858 50.6509 71.9864L50.6503 71.9891Z" fill="#7CA7E5"/>
<path d="M80.9929 104.623C80.8626 104.623 80.7336 104.597 80.6135 104.546C80.4934 104.496 80.3846 104.421 80.2936 104.328C79.9983 104.024 79.707 103.758 79.4183 103.501C78.8852 103.021 78.3814 102.566 77.9715 101.958C77.5876 101.447 77.2064 101.001 76.8036 100.529C76.6941 100.401 76.5853 100.274 76.4778 100.145C76.3869 100.048 76.3166 99.9341 76.2712 99.8092C76.2258 99.6844 76.2061 99.5515 76.2136 99.4188C76.221 99.2861 76.2552 99.1563 76.3143 99.0372C76.3733 98.9182 76.4559 98.8125 76.5569 98.7264C76.658 98.6404 76.7755 98.5759 76.9022 98.5368C77.029 98.4978 77.1623 98.4849 77.2941 98.4992C77.426 98.5134 77.5536 98.5543 77.6691 98.6195C77.7847 98.6847 77.8858 98.7728 77.9663 98.8784C78.0732 99.0052 78.1807 99.1299 78.2869 99.2554C78.6982 99.7362 79.1231 100.235 79.55 100.804C79.561 100.818 79.5715 100.833 79.5812 100.848C79.8576 101.263 80.2597 101.626 80.725 102.045C81.0196 102.311 81.3539 102.612 81.6935 102.96C81.8275 103.098 81.9179 103.273 81.9535 103.462C81.989 103.651 81.9681 103.847 81.8934 104.024C81.8186 104.202 81.6933 104.353 81.5332 104.46C81.373 104.566 81.1851 104.623 80.9929 104.623ZM73.1801 96.2317C73.0483 96.2319 72.9178 96.2053 72.7966 96.1534C72.6754 96.1015 72.5659 96.0255 72.4749 95.9299C71.2171 94.6134 69.9893 93.2676 68.8018 91.9655L68.4675 91.5989C68.3079 91.4051 68.2286 91.1573 68.2461 90.9065C68.2636 90.6558 68.3766 90.4214 68.5616 90.2518C68.7466 90.0822 68.9895 89.9903 69.2402 89.9952C69.4909 90 69.7301 90.1012 69.9084 90.2779L70.2428 90.6451C71.423 91.9387 72.6431 93.2761 73.8846 94.5755C74.0164 94.7142 74.1049 94.8886 74.1389 95.0771C74.173 95.2656 74.1512 95.4599 74.0762 95.6362C74.0013 95.8124 73.8764 95.9627 73.7172 96.0686C73.5579 96.1744 73.3712 96.2311 73.1801 96.2317ZM65.177 87.6208C65.0466 87.621 64.9175 87.595 64.7974 87.5443C64.6773 87.4936 64.5686 87.4192 64.4777 87.3255C63.6304 86.4507 62.8308 85.6634 62.0429 84.9166C62.0266 84.9016 62.0109 84.8853 61.9959 84.8689C61.4446 84.2696 60.8997 83.6773 60.3614 83.0919C60.2639 82.9996 60.1864 82.8882 60.1336 82.7647C60.0809 82.6411 60.0541 82.5079 60.0549 82.3735C60.0556 82.2391 60.084 82.1063 60.1381 81.9834C60.1923 81.8604 60.2711 81.7499 60.3697 81.6588C60.4682 81.5677 60.5844 81.4978 60.7111 81.4536C60.8377 81.4095 60.972 81.3919 61.1057 81.4019C61.2394 81.412 61.3696 81.4496 61.4882 81.5122C61.6069 81.5749 61.7113 81.6614 61.7952 81.7663C62.3261 82.3447 62.8629 82.9283 63.4056 83.5172C64.2053 84.2751 65.0127 85.0741 65.873 85.9587C66.0065 86.0968 66.0965 86.2711 66.1319 86.46C66.1672 86.649 66.1464 86.8442 66.0719 87.0213C65.9975 87.1985 65.8727 87.3498 65.7131 87.4564C65.5535 87.563 65.3661 87.6201 65.1744 87.6208H65.177ZM57.1146 79.0686C56.9787 79.0686 56.8443 79.0402 56.7199 78.9852C56.5956 78.9302 56.4841 78.8498 56.3925 78.7492C55.0414 77.2628 53.7517 75.8333 52.4496 74.3797C52.3549 74.2857 52.2803 74.1733 52.2305 74.0494C52.1807 73.9255 52.1567 73.7927 52.16 73.6591C52.1632 73.5256 52.1937 73.3941 52.2495 73.2728C52.3053 73.1515 52.3852 73.0429 52.4844 72.9537C52.5836 72.8645 52.6999 72.7965 52.8262 72.754C52.9525 72.7115 53.0862 72.6954 53.219 72.7066C53.3518 72.7177 53.4809 72.756 53.5984 72.819C53.7159 72.882 53.8193 72.9685 53.9022 73.073C55.2011 74.5234 56.4883 75.9477 57.836 77.432C57.9629 77.5724 58.0464 77.7467 58.0766 77.9337C58.1067 78.1207 58.0821 78.3125 58.0058 78.4858C57.9294 78.6591 57.8046 78.8065 57.6465 78.9102C57.4883 79.0138 57.3035 79.0693 57.1146 79.0699V79.0686Z" fill="#7CA7E5"/>
<path d="M149.543 108.239C149.394 108.239 149.247 108.206 149.114 108.14C148.999 108.119 148.676 108.075 147.849 108.031C147.716 108.031 147.585 108.004 147.463 107.951C147.341 107.899 147.231 107.822 147.14 107.726C147.049 107.629 146.978 107.515 146.932 107.391C146.886 107.266 146.866 107.133 146.873 107C146.879 106.868 146.913 106.738 146.972 106.618C147.03 106.499 147.112 106.393 147.213 106.306C147.314 106.22 147.431 106.155 147.558 106.115C147.684 106.076 147.818 106.062 147.95 106.076C149.602 106.162 149.939 106.266 150.242 106.578C150.376 106.716 150.466 106.89 150.501 107.079C150.536 107.268 150.515 107.463 150.441 107.64C150.366 107.817 150.241 107.969 150.082 108.075C149.922 108.182 149.735 108.239 149.543 108.239ZM100.909 108.169C100.649 108.169 100.401 108.066 100.217 107.882C100.034 107.698 99.9311 107.449 99.9311 107.189C99.9311 106.929 100.034 106.68 100.217 106.496C100.401 106.312 100.649 106.209 100.909 106.209C102.752 106.202 104.724 106.191 106.78 106.176H106.787C107.046 106.175 107.295 106.278 107.479 106.461C107.663 106.644 107.767 106.893 107.768 107.153C107.769 107.413 107.667 107.662 107.484 107.847C107.301 108.031 107.053 108.135 106.794 108.136C104.736 108.151 102.761 108.162 100.915 108.169H100.909ZM95.0354 108.169H95.0295C92.2271 108.153 90.2909 108.113 89.11 108.046C88.8612 108.019 88.6324 107.897 88.4707 107.705C88.309 107.513 88.2267 107.267 88.2408 107.017C88.2549 106.766 88.3644 106.531 88.5465 106.359C88.7287 106.186 88.9698 106.091 89.2201 106.092C90.3678 106.157 92.2721 106.196 95.0406 106.211C95.2999 106.212 95.5482 106.316 95.7311 106.5C95.9139 106.685 96.0163 106.934 96.0156 107.194C96.0149 107.454 95.9112 107.703 95.7274 107.886C95.5436 108.07 95.2946 108.172 95.0354 108.171V108.169ZM112.658 108.089C112.399 108.09 112.149 107.988 111.965 107.805C111.781 107.622 111.677 107.373 111.676 107.113C111.675 106.853 111.777 106.604 111.959 106.419C112.142 106.235 112.39 106.13 112.649 106.129L118.523 106.075H118.532C118.792 106.074 119.041 106.176 119.225 106.359C119.409 106.542 119.513 106.79 119.515 107.05C119.516 107.31 119.414 107.56 119.231 107.745C119.049 107.929 118.801 108.034 118.542 108.035L112.667 108.089H112.658ZM124.406 107.981C124.147 107.982 123.898 107.88 123.714 107.697C123.53 107.514 123.426 107.265 123.425 107.006C123.423 106.746 123.525 106.496 123.708 106.311C123.89 106.127 124.139 106.022 124.398 106.021C126.402 106.004 128.373 105.988 130.274 105.975H130.281C130.54 105.974 130.789 106.076 130.973 106.26C131.157 106.443 131.261 106.692 131.262 106.952C131.263 107.212 131.16 107.461 130.978 107.646C130.795 107.83 130.547 107.934 130.287 107.935C128.387 107.948 126.418 107.964 124.415 107.981H124.406ZM142.03 107.912H142.024C140.903 107.905 139.683 107.904 138.383 107.902C137.665 107.902 136.923 107.902 136.159 107.902C136.03 107.902 135.903 107.877 135.785 107.828C135.666 107.779 135.558 107.707 135.467 107.616C135.283 107.433 135.18 107.184 135.18 106.924C135.179 106.664 135.282 106.415 135.465 106.23C135.648 106.046 135.896 105.943 136.156 105.942C136.98 105.942 137.785 105.942 138.551 105.942C139.793 105.942 140.963 105.942 142.039 105.952C142.298 105.953 142.546 106.057 142.729 106.241C142.912 106.426 143.014 106.675 143.013 106.935C143.012 107.195 142.909 107.444 142.725 107.627C142.541 107.81 142.292 107.913 142.033 107.912H142.03Z" fill="#7CA7E5"/>
<path d="M29.105 71.5742C30.4997 71.5742 31.6304 70.4407 31.6304 69.0425C31.6304 67.6443 30.4997 66.5109 29.105 66.5109C27.7103 66.5109 26.5796 67.6443 26.5796 69.0425C26.5796 70.4407 27.7103 71.5742 29.105 71.5742Z" fill="white"/>
<path d="M69.5064 66.635C70.9011 66.635 72.0318 65.5015 72.0318 64.1033C72.0318 62.7051 70.9011 61.5717 69.5064 61.5717C68.1116 61.5717 66.981 62.7051 66.981 64.1033C66.981 65.5015 68.1116 66.635 69.5064 66.635Z" fill="white"/>
<path d="M69.5064 44.9025C70.9011 44.9025 72.0318 43.769 72.0318 42.3708C72.0318 40.9726 70.9011 39.8391 69.5064 39.8391C68.1116 39.8391 66.981 40.9726 66.981 42.3708C66.981 43.769 68.1116 44.9025 69.5064 44.9025Z" fill="white"/>
<path d="M100.546 74.0438C101.941 74.0438 103.072 72.9103 103.072 71.5121C103.072 70.1139 101.941 68.9805 100.546 68.9805C99.1517 68.9805 98.021 70.1139 98.021 71.5121C98.021 72.9103 99.1517 74.0438 100.546 74.0438Z" fill="white"/>
<path d="M84.7803 110.1C86.175 110.1 87.3057 108.967 87.3057 107.568C87.3057 106.17 86.175 105.037 84.7803 105.037C83.3855 105.037 82.2549 106.17 82.2549 107.568C82.2549 108.967 83.3855 110.1 84.7803 110.1Z" fill="white"/>
<path d="M99.7853 72.3595C99.7082 72.3596 99.6314 72.3504 99.5565 72.332L93.4812 70.8686C93.2411 70.7972 93.0374 70.6363 92.9122 70.4188C92.787 70.2014 92.7498 69.944 92.8083 69.6999C92.8668 69.4558 93.0166 69.2435 93.2267 69.1068C93.4368 68.9701 93.6912 68.9195 93.9374 68.9654L100.013 70.4289C100.243 70.4867 100.445 70.6268 100.58 70.823C100.715 71.0191 100.774 71.2578 100.746 71.4945C100.718 71.7311 100.605 71.9494 100.428 72.1086C100.252 72.2679 100.023 72.357 99.7853 72.3595ZM87.6353 69.4325C87.558 69.4323 87.481 69.4231 87.4059 69.4051L81.3306 67.9416C81.2001 67.9173 81.076 67.8667 80.9657 67.7927C80.8554 67.7188 80.7613 67.6231 80.6891 67.5116C80.6169 67.4 80.5681 67.2749 80.5456 67.1438C80.5232 67.0127 80.5276 66.8784 80.5586 66.7491C80.5896 66.6198 80.6466 66.4982 80.726 66.3916C80.8053 66.2851 80.9055 66.1958 81.0204 66.1293C81.1353 66.0629 81.2625 66.0205 81.3943 66.0049C81.526 65.9893 81.6596 66.0007 81.7868 66.0384L87.8621 67.5019C88.0926 67.5598 88.2942 67.6998 88.4292 67.8959C88.5642 68.092 88.6233 68.3306 88.5955 68.5672C88.5677 68.8038 88.4549 69.0221 88.2782 69.1814C88.1015 69.3407 87.8729 69.4299 87.6353 69.4325ZM75.484 66.5049C75.4069 66.505 75.3301 66.4958 75.2553 66.4775L69.1799 65.014C68.9398 64.9427 68.7361 64.7817 68.6109 64.5643C68.4857 64.3468 68.4485 64.0895 68.507 63.8454C68.5656 63.6013 68.7153 63.389 68.9254 63.2523C69.1355 63.1156 69.3899 63.065 69.6361 63.1109L75.7115 64.5743C75.942 64.6322 76.1437 64.7723 76.2787 64.9684C76.4136 65.1646 76.4727 65.4033 76.4448 65.6399C76.417 65.8766 76.304 66.0949 76.1272 66.2541C75.9503 66.4133 75.7217 66.5025 75.484 66.5049Z" fill="white"/>
<path d="M35.144 50.4804C38.8011 46.8143 38.8011 40.8703 35.144 37.2041C31.4869 33.538 25.5576 33.538 21.9005 37.2041C18.2435 40.8703 18.2435 46.8143 21.9005 50.4804C25.5576 54.1466 31.4869 54.1466 35.144 50.4804Z" fill="#4548FF"/>
<path d="M37.8698 43.339H19.1577C19.1577 43.339 18.4121 48.5493 26.7698 62.8215C26.9512 63.1244 27.2076 63.3753 27.5142 63.5496C27.8208 63.724 28.1671 63.816 28.5196 63.8168C28.8721 63.8175 29.2187 63.7269 29.526 63.5538C29.8333 63.3806 30.0908 63.1309 30.2734 62.8287C38.631 48.5552 37.8698 43.339 37.8698 43.339Z" fill="#156CE4"/>
<path opacity="0.8" d="M28.518 64.1216V64.1739C28.1162 64.1709 27.722 64.0636 27.3739 63.8622C27.0259 63.6609 26.7359 63.3726 26.5322 63.0253C21.6443 54.6829 19.8567 49.4079 19.216 46.4561C19.036 45.7946 18.9282 45.1155 18.8947 44.4307C18.838 43.7323 18.881 43.4383 18.8862 43.407L18.911 43.2574C19.2884 38.2143 23.473 34.2897 28.5193 34.2897C33.6301 34.2897 37.8538 38.2698 38.1399 43.3527C38.1556 43.5247 38.1606 43.6976 38.1549 43.8702V43.9048C38.1556 44.8235 38.0255 45.7376 37.7685 46.6194C37.1057 49.5686 35.3043 54.7913 30.5025 62.9933C30.3004 63.3402 30.0104 63.6273 29.6618 63.8255C29.3133 64.0236 28.9187 64.1258 28.518 64.1216ZM19.4135 43.7611C19.4135 43.9022 19.4135 44.1034 19.4402 44.4059C19.4718 45.0531 19.5741 45.6948 19.7452 46.3195V46.33C20.3767 49.2419 22.1481 54.451 27.0008 62.7372C27.1566 63.0008 27.3781 63.2193 27.6437 63.3709C27.9093 63.5226 28.2097 63.6023 28.5154 63.6022V63.874V63.6016C28.8208 63.5935 29.1195 63.5097 29.3846 63.3574C29.6498 63.2052 29.8731 62.9894 30.0345 62.7294C34.8058 54.5797 36.5869 49.4013 37.2406 46.4914L37.2451 46.4744C37.4889 45.6427 37.558 44.7757 37.558 43.9048L37.5032 43.8663C37.507 43.7131 37.521 43.5603 37.5449 43.4089L37.5703 43.3933C37.3044 38.5952 33.3342 34.8346 28.5063 34.8346C23.6783 34.8346 19.7081 38.6455 19.4363 43.4854L19.4285 43.7624L19.4135 43.7611Z" fill="white"/>
<path d="M32.3759 47.6453C34.4876 45.5284 34.4876 42.0962 32.3759 39.9792C30.2642 37.8623 26.8405 37.8623 24.7288 39.9792C22.6171 42.0962 22.6171 45.5284 24.7288 47.6453C26.8405 49.7622 30.2642 49.7622 32.3759 47.6453Z" fill="white"/>
<path d="M28.5526 49.5353C27.4235 49.5352 26.3198 49.1994 25.381 48.5705C24.4423 47.9415 23.7106 47.0476 23.2786 46.0018C22.8466 44.956 22.7337 43.8053 22.954 42.6951C23.1744 41.585 23.7182 40.5653 24.5166 39.7649C25.3151 38.9646 26.3323 38.4196 27.4397 38.1988C28.5472 37.978 29.695 38.0914 30.7382 38.5246C31.7813 38.9578 32.6729 39.6913 33.3002 40.6325C33.9275 41.5737 34.2623 42.6802 34.2623 43.8121C34.2606 45.3296 33.6585 46.7844 32.5881 47.8573C31.5176 48.9303 30.0663 49.5337 28.5526 49.5353ZM28.5526 38.6945C27.543 38.6946 26.5561 38.9949 25.7167 39.5573C24.8773 40.1197 24.2231 40.919 23.8368 41.8541C23.4505 42.7893 23.3495 43.8182 23.5466 44.8109C23.7436 45.8035 24.2298 46.7154 24.9438 47.431C25.6578 48.1466 26.5674 48.634 27.5576 48.8314C28.5478 49.0288 29.5742 48.9274 30.507 48.54C31.4398 48.1527 32.237 47.4968 32.7979 46.6552C33.3588 45.8136 33.6582 44.8242 33.6582 43.8121C33.6566 42.4552 33.1182 41.1543 32.1611 40.1949C31.2039 39.2355 29.9062 38.6959 28.5526 38.6945Z" fill="#4548FF"/>
<path d="M90.2963 88.8744C93.9534 85.2082 93.9534 79.2642 90.2963 75.598C86.6393 71.9319 80.71 71.9319 77.0529 75.598C73.3958 79.2642 73.3958 85.2082 77.0529 88.8744C80.71 92.5405 86.6393 92.5405 90.2963 88.8744Z" fill="#4548FF"/>
<path d="M93.0216 81.7329H74.3101C74.3101 81.7329 73.5645 86.9439 81.9221 101.216C82.1036 101.519 82.3601 101.77 82.6667 101.944C82.9733 102.118 83.3196 102.21 83.6721 102.211C84.0246 102.212 84.3713 102.121 84.6785 101.948C84.9858 101.775 85.2432 101.525 85.4258 101.223C93.7821 86.9504 93.0216 81.7329 93.0216 81.7329Z" fill="#156CE4"/>
<path opacity="0.8" d="M83.67 102.516V102.569H83.6733C83.2713 102.566 82.877 102.458 82.529 102.257C82.1809 102.055 81.8909 101.767 81.6875 101.419C76.7996 93.0768 75.0119 87.8018 74.3706 84.8507C74.1908 84.1892 74.0833 83.5101 74.05 82.8254C73.9933 82.1276 74.0363 81.8336 74.0415 81.8022L74.0663 81.652C74.4436 76.6095 78.6283 72.6849 83.6746 72.6849C88.7847 72.6849 93.0091 76.6651 93.2946 81.748C93.3103 81.92 93.3155 82.0928 93.3102 82.2655V82.3001C93.3105 83.2188 93.1804 84.1328 92.9237 85.0147C92.2603 87.9639 90.4596 93.1866 85.6571 101.388C85.455 101.735 85.1646 102.023 84.8155 102.221C84.4664 102.419 84.0711 102.521 83.67 102.516ZM74.5655 82.1557C74.5655 82.2962 74.5655 82.4974 74.5922 82.7999C74.6233 83.4468 74.7254 84.0883 74.8966 84.7128V84.724C75.5281 87.6352 77.3001 92.8443 82.1528 101.131C82.3087 101.395 82.5303 101.613 82.7959 101.765C83.0614 101.916 83.3618 101.996 83.6674 101.996V102.267V101.995C83.9729 101.987 84.2715 101.903 84.5367 101.751C84.8018 101.599 85.0251 101.383 85.1866 101.123C89.9578 92.9736 91.7389 87.7946 92.3926 84.8847L92.3972 84.8683C92.6403 84.036 92.7093 83.1697 92.7093 82.2988L92.6552 82.2602C92.6594 82.1071 92.6731 81.9543 92.6963 81.8029L92.7224 81.7872C92.4565 76.9898 88.4862 73.2285 83.6583 73.2285C78.8303 73.2285 74.8601 77.0401 74.5877 81.88L74.5798 82.157L74.5655 82.1557Z" fill="white"/>
<path d="M85.65 87.8076C88.5169 86.9394 90.1389 83.9057 89.2729 81.0317C88.4068 78.1576 85.3807 76.5316 82.5138 77.3998C79.6468 78.268 78.0248 81.3017 78.8909 84.1757C79.7569 87.0498 82.7831 88.6758 85.65 87.8076Z" fill="white"/>
<path d="M84.5007 90C83.2151 90.0002 81.9583 89.5898 80.8893 88.8207C79.8203 88.0516 78.9871 86.9584 78.495 85.6793C78.0029 84.4003 77.8741 82.9928 78.1248 81.6349C78.3755 80.2769 78.9945 79.0296 79.9035 78.0505C80.8126 77.0715 81.9707 76.4047 83.2316 76.1346C84.4925 75.8644 85.7995 76.003 86.9873 76.5328C88.175 77.0626 89.1902 77.9598 89.9045 79.1109C90.6188 80.2621 91 81.6155 91 83C90.998 84.8557 90.3127 86.6349 89.0943 87.9471C87.8759 89.2594 86.2239 89.9977 84.5007 90ZM84.5007 76.7415C83.3511 76.7413 82.2273 77.1083 81.2714 77.796C80.3154 78.4838 79.5703 79.4613 79.1303 80.6051C78.6903 81.7489 78.5752 83.0075 78.7994 84.2217C79.0237 85.436 79.5772 86.5514 80.3901 87.4268C81.203 88.3022 82.2387 88.8984 83.3663 89.1399C84.4938 89.3814 85.6625 89.2574 86.7246 88.7835C87.7867 88.3097 88.6944 87.5073 89.333 86.4778C89.9716 85.4483 90.3124 84.238 90.3122 83C90.3107 81.3406 89.6979 79.7496 88.6084 78.5761C87.5189 77.4027 86.0416 76.7426 84.5007 76.7407V76.7415Z" fill="#4548FF"/>
<path d="M117.066 28.3064C122.238 28.3064 126.43 24.1034 126.43 18.9187C126.43 13.7339 122.238 9.53088 117.066 9.53088C111.894 9.53088 107.701 13.7339 107.701 18.9187C107.701 24.1034 111.894 28.3064 117.066 28.3064Z" fill="#4548FF"/>
<path d="M126.413 18.4155H107.701C107.701 18.4155 106.956 23.6265 115.314 37.898C115.495 38.2011 115.751 38.4521 116.058 38.6266C116.364 38.8011 116.711 38.8932 117.063 38.894C117.416 38.8947 117.763 38.804 118.07 38.6308C118.377 38.4575 118.634 38.2076 118.817 37.9052C127.174 23.6318 126.413 18.4155 126.413 18.4155Z" fill="#156CE4"/>
<path opacity="0.8" d="M117.061 39.1982V39.2511C116.66 39.248 116.266 39.1405 115.918 38.9391C115.57 38.7377 115.28 38.4492 115.076 38.1019C110.188 29.7594 108.401 24.4844 107.759 21.5326C107.579 20.8712 107.472 20.1921 107.438 19.5073C107.382 18.8089 107.425 18.5149 107.43 18.4842L107.455 18.3339C107.832 13.2908 112.017 9.36621 117.063 9.36621C122.174 9.36621 126.398 13.3463 126.683 18.4293C126.699 18.6013 126.704 18.7741 126.699 18.9467V18.9814C126.699 19.9 126.569 20.8141 126.313 21.696C125.649 24.6451 123.848 29.8679 119.046 38.0698C118.844 38.4169 118.554 38.7041 118.205 38.9023C117.857 39.1005 117.462 39.2026 117.061 39.1982ZM107.957 18.8383C107.957 18.9787 107.957 19.18 107.984 19.4825C108.015 20.1296 108.118 20.7713 108.289 21.3961L108.292 21.4072C108.923 24.3184 110.695 29.5275 115.547 37.8137C115.703 38.0775 115.925 38.296 116.191 38.4476C116.456 38.5993 116.757 38.679 117.063 38.6788V38.9506V38.6781C117.368 38.67 117.667 38.5861 117.932 38.4339C118.197 38.2817 118.42 38.0659 118.582 37.8059C123.353 29.6562 125.134 24.4779 125.787 21.5679L125.792 21.5509C126.036 20.7192 126.105 19.8522 126.105 18.9814L126.05 18.9435C126.054 18.7903 126.068 18.6375 126.092 18.4861L126.118 18.4704C125.852 13.6723 121.878 9.91174 117.053 9.91174C112.238 9.91174 108.255 13.7227 107.983 18.5626L107.975 18.8402L107.957 18.8383Z" fill="#4548FF"/>
<path d="M118.66 24.0917C121.518 23.2244 123.134 20.1984 122.269 17.333C121.404 14.4676 118.385 12.8478 115.527 13.7151C112.669 14.5824 111.053 17.6084 111.918 20.4738C112.783 23.3392 115.802 24.959 118.66 24.0917Z" fill="#F7F7F9"/>
<path d="M117.098 24.6124C115.969 24.6125 114.865 24.277 113.926 23.6481C112.987 23.0192 112.255 22.1253 111.823 21.0794C111.39 20.0335 111.277 18.8826 111.497 17.7723C111.718 16.6619 112.261 15.642 113.06 14.8414C113.858 14.0408 114.876 13.4956 115.983 13.2747C117.091 13.0538 118.239 13.1671 119.282 13.6003C120.326 14.0335 121.217 14.7672 121.845 15.7085C122.472 16.6498 122.807 17.7564 122.807 18.8885C122.805 20.406 122.203 21.8608 121.133 22.9338C120.063 24.0068 118.612 24.6105 117.098 24.6124ZM117.098 13.771C116.088 13.7708 115.101 14.0709 114.261 14.6333C113.422 15.1956 112.767 15.995 112.381 16.9302C111.994 17.8655 111.893 18.8947 112.09 19.8876C112.287 20.8805 112.773 21.7925 113.487 22.5083C114.201 23.2242 115.111 23.7116 116.101 23.9091C117.092 24.1066 118.119 24.0052 119.052 23.6177C119.984 23.2302 120.782 22.5741 121.343 21.7323C121.904 20.8905 122.203 19.9009 122.203 18.8885C122.201 17.5318 121.663 16.231 120.706 15.2716C119.749 14.3122 118.451 13.7725 117.098 13.771Z" fill="#4548FF"/>
<path d="M143.831 144.477C145.83 144.65 149.3 144.931 152.035 145.052C153.68 145.124 154.627 144.963 155.171 144.744C155.171 144.806 155.171 144.864 155.167 144.918C155.159 145.058 155.1 145.19 155.001 145.289C154.901 145.388 154.769 145.447 154.629 145.453C151.051 145.658 147.465 145.662 143.886 145.464C143.817 145.461 143.751 145.439 143.692 145.402C143.634 145.365 143.586 145.314 143.553 145.253C143.521 145.192 143.504 145.123 143.505 145.054C143.507 144.985 143.526 144.917 143.56 144.857C143.641 144.724 143.732 144.597 143.831 144.477Z" fill="#7D97F4"/>
<path d="M152.036 145.052C149.298 144.931 145.831 144.65 143.831 144.477C145.797 142.059 152.036 140.429 152.036 140.429H153.795C155.007 142.181 155.183 143.848 155.169 144.741C154.627 144.963 153.68 145.124 152.036 145.052Z" fill="#156CE4"/>
<path d="M154.094 137.545L153.93 140.817C153.921 140.989 153.853 141.154 153.737 141.282C153.621 141.41 153.464 141.494 153.293 141.519C152.85 141.586 152.397 141.548 151.97 141.409C151.819 141.36 151.685 141.271 151.581 141.151C151.476 141.031 151.406 140.886 151.377 140.73L150.807 137.545H154.094Z" fill="url(#paint0_linear_1393_61642)"/>
<path d="M174.545 148.25C175.412 148.093 175.804 147.509 175.969 146.885V146.902C176.034 147.225 175.996 147.559 175.86 147.859C175.723 148.158 175.496 148.406 175.21 148.567C174.493 148.959 173.711 149.024 173.108 148.993C172.788 148.978 172.477 148.885 172.202 148.721C171.927 148.556 171.696 148.327 171.531 148.052L171.526 148.043C172.183 148.462 173.1 148.511 174.545 148.25Z" fill="#7D97F4"/>
<path d="M170.458 138.554H171.911C174.127 138.495 175.514 144.543 175.969 146.885C175.804 147.509 175.412 148.093 174.545 148.25C173.1 148.511 172.183 148.462 171.529 148.043C170.334 146.004 169.741 143.018 169.456 141.276C169.131 139.294 170.458 138.554 170.458 138.554Z" fill="#156CE4"/>
<path d="M171.724 135.517L172.53 138.734C172.578 138.927 172.559 139.129 172.477 139.309C172.394 139.489 172.254 139.635 172.077 139.724C171.626 139.956 170.99 140.201 170.406 140.13C170.272 140.112 170.145 140.057 170.04 139.971C169.936 139.885 169.857 139.772 169.813 139.643L168.628 136.258L171.724 135.517Z" fill="url(#paint1_linear_1393_61642)"/>
<path d="M143.339 93.144C143.339 93.144 150.55 138.33 150.431 138.578C150.431 138.578 152.423 139.486 154.594 138.694C154.594 138.694 153.942 114.539 152.414 105.277C152.414 105.277 164.72 126.867 168.628 137.625C168.628 137.625 170.667 137.381 172.354 136.268C172.354 136.268 159.103 97.407 155.568 92.2333L143.339 93.144Z" fill="#B7BCD6"/>
<path d="M152.126 105.042C152.166 105.042 152.205 105.031 152.239 105.009C152.286 104.979 152.32 104.931 152.332 104.876C152.344 104.821 152.334 104.763 152.304 104.715L149.609 100.403C149.594 100.379 149.574 100.357 149.55 100.341C149.526 100.324 149.499 100.313 149.47 100.307L147.487 99.9068C147.432 99.8969 147.376 99.909 147.33 99.9404C147.283 99.9719 147.252 100.02 147.241 100.075C147.23 100.13 147.24 100.187 147.271 100.233C147.301 100.28 147.349 100.313 147.403 100.326L149.296 100.708L151.942 104.945C151.962 104.975 151.989 105 152.022 105.017C152.054 105.034 152.09 105.043 152.126 105.042Z" fill="url(#paint2_linear_1393_61642)"/>
<path d="M110.249 48.8976C110.249 48.8976 115.115 49.9717 118.076 51.3437C118.661 51.616 119.131 52.0891 119.399 52.6778C120.284 54.6215 122.932 59.4953 128.067 61.8245C127.327 62.8084 126.137 64.8553 125.618 68.2958C122.533 65.9941 119.87 62.1505 118.592 55.8471C118.592 55.8471 117.619 56.3776 116.404 55.7864C115.763 55.4741 115.022 55.0311 114.466 54.6822C113.909 54.3406 113.506 53.7973 113.338 53.1652C113.127 52.3328 113.252 51.6004 113.252 50.8132L110.75 50.037C110.75 50.037 109.998 49.7508 110.249 48.8976Z" fill="url(#paint3_linear_1393_61642)"/>
<path d="M125.617 68.2925C126.139 64.852 127.327 62.8045 128.066 61.8212C131.257 63.2657 135.407 63.7276 140.691 61.8918C141.179 61.7234 141.687 61.6229 142.202 61.5932C145.016 61.4279 154.286 61.126 161.957 63.6669C162.753 63.9298 163.484 64.3579 164.104 64.9234C164.724 65.4889 165.218 66.1789 165.553 66.9486C167.628 71.7225 170.988 82.5947 161.661 88.084C161.061 86.5856 160.307 85.1542 159.41 83.8131C160.912 81.2736 161.357 77.8024 158.693 73.2872C156.75 78.5485 155.838 86.2233 155.647 89.6206C155.585 90.739 155.78 91.8567 156.218 92.8873L156.266 93.0003C156.288 93.0525 156.298 93.1089 156.296 93.1654C156.294 93.222 156.279 93.2773 156.253 93.3277C156.228 93.378 156.191 93.422 156.146 93.4567C156.102 93.4913 156.05 93.5157 155.995 93.5282C150.744 94.7108 145.283 94.3893 143.652 94.2541C143.51 94.2425 143.376 94.1865 143.268 94.0939C143.161 94.0013 143.085 93.8769 143.052 93.7386C140.499 82.954 140.493 75.5974 141.118 70.9463C138.728 71.484 131.425 72.6254 125.617 68.2925Z" fill="#156CE4"/>
<path d="M141.106 71.2383C141.158 71.2383 141.208 71.2195 141.247 71.1853C141.285 71.1512 141.311 71.1041 141.317 71.0528C141.917 66.5121 143.138 64.5305 143.15 64.5109C143.178 64.4632 143.186 64.4064 143.173 64.3526C143.16 64.2987 143.127 64.2521 143.08 64.2224C143.034 64.1928 142.977 64.1824 142.923 64.1936C142.869 64.2048 142.821 64.2366 142.79 64.2823C142.738 64.3646 141.509 66.3488 140.895 70.9966C140.891 71.0244 140.893 71.0527 140.9 71.0798C140.907 71.1069 140.92 71.1324 140.937 71.1546C140.954 71.1769 140.975 71.1956 140.999 71.2096C141.024 71.2237 141.05 71.2328 141.078 71.2364C141.087 71.2377 141.097 71.2383 141.106 71.2383Z" fill="url(#paint4_linear_1393_61642)"/>
<path d="M154.064 55.3108C154.064 55.3108 154.595 60.9412 155.063 62.6066C155.097 62.7293 155.09 62.8601 155.041 62.9779C154.993 63.0958 154.906 63.194 154.795 63.2567C154.002 63.714 152.098 64.4529 149.494 63.1737C149.288 63.0719 149.116 62.9122 148.999 62.7142C148.883 62.5161 148.826 62.2882 148.837 62.0584L149.066 56.6175L154.064 55.3108Z" fill="url(#paint5_linear_1393_61642)"/>
<path d="M148.953 48.1084C148.953 48.1084 147.254 52.0206 147.14 54.074C147.026 56.1274 146.585 57.4602 148.953 57.8731C151.321 58.286 153.32 57.1042 154.397 55.0586C154.397 55.0586 156.092 51.9069 155.711 50.6159C155.331 49.3249 148.953 48.1084 148.953 48.1084Z" fill="url(#paint6_linear_1393_61642)"/>
<path d="M153.588 53.5879L153.453 53.5285C153.412 53.5105 153.376 53.4844 153.346 53.4518C153.316 53.4192 153.292 53.3808 153.278 53.3389C153.263 53.297 153.257 53.2525 153.26 53.2082C153.262 53.1638 153.274 53.1205 153.295 53.0809C153.628 52.4335 154.279 50.9511 153.439 50.6054C152.354 50.1599 148.061 49.2818 147.134 47.7549C146.244 46.2869 147.033 44.3916 148.218 43.8526C148.256 43.8346 148.299 43.8319 148.339 43.8449C148.379 43.8579 148.412 43.8857 148.432 43.9225L148.531 44.11C148.545 44.1385 148.569 44.1619 148.597 44.1771C148.625 44.1923 148.657 44.1986 148.689 44.1953C148.721 44.192 148.752 44.1792 148.776 44.1585C148.801 44.1379 148.819 44.1103 148.828 44.0793C148.836 44.0494 148.853 44.0226 148.876 44.0021C148.9 43.9817 148.928 43.9685 148.959 43.9641C148.99 43.9597 149.021 43.9644 149.049 43.9775C149.077 43.9907 149.101 44.0117 149.117 44.0381C149.402 44.4955 150.171 45.2357 152.227 45.6159C155.149 46.1569 157.08 47.342 157.129 49.3661C157.129 49.3948 157.138 49.4227 157.153 49.4471C157.168 49.4714 157.19 49.4913 157.215 49.5046C157.24 49.5179 157.269 49.5242 157.297 49.5228C157.326 49.5214 157.354 49.5124 157.378 49.4967C157.593 49.3661 157.939 49.3007 158.4 49.6927C159.202 50.3689 158.875 52.1238 157.115 53.567C157.095 53.5825 157.078 53.6026 157.067 53.6257C157.056 53.6488 157.051 53.6742 157.052 53.6997C157.053 53.7253 157.059 53.7503 157.072 53.7726C157.084 53.795 157.102 53.8141 157.123 53.8284C157.441 54.0361 157.917 54.5313 156.685 55.1912C155.411 55.8746 154.46 55.8184 154.094 55.7577C154.072 55.7541 154.051 55.7461 154.032 55.7342C154.014 55.7222 153.998 55.7065 153.986 55.6881C153.974 55.6698 153.965 55.649 153.961 55.6273C153.957 55.6055 153.958 55.5832 153.963 55.5617L154.354 53.7826C154.359 53.7591 154.359 53.7347 154.354 53.7112C154.348 53.6877 154.338 53.6657 154.323 53.6469C154.307 53.6281 154.288 53.613 154.267 53.6025C154.245 53.5921 154.221 53.5866 154.197 53.5866L153.588 53.5879Z" fill="#B7BCD6"/>
<path d="M153.514 53.9635C153.514 53.9635 154.163 51.4639 155.28 52.1649C156.398 52.8659 154.7 54.9651 153.802 55.0585L153.514 53.9635Z" fill="url(#paint7_linear_1393_61642)"/>
<path d="M117.294 55.2637C117.334 55.2637 117.373 55.2523 117.407 55.2308C117.441 55.2092 117.469 55.1784 117.486 55.142C117.503 55.1056 117.51 55.0649 117.505 55.0249C117.5 54.9848 117.484 54.9469 117.459 54.9155C117.275 54.6888 115.642 52.6876 115.013 52.3309C114.784 52.2002 114.648 52.0696 114.618 51.9441C114.606 51.8757 114.616 51.805 114.647 51.7429L116.566 52.129L117.653 53.0639C117.696 53.1008 117.752 53.119 117.808 53.1145C117.865 53.11 117.918 53.0831 117.954 53.0398C117.991 52.9964 118.009 52.9402 118.005 52.8835C118 52.8268 117.973 52.7742 117.93 52.7373L116.801 51.7658C116.773 51.7417 116.74 51.7253 116.704 51.7181L114.58 51.2914C114.539 51.2834 114.496 51.2877 114.457 51.3037C114.418 51.3197 114.385 51.3468 114.361 51.3816C114.206 51.6135 114.154 51.8285 114.204 52.0395C114.262 52.2891 114.459 52.5053 114.803 52.7C115.277 52.9686 116.642 54.583 117.129 55.1827C117.148 55.2078 117.173 55.228 117.202 55.2421C117.23 55.2561 117.262 55.2635 117.294 55.2637Z" fill="#F8A570"/>
<path d="M153.594 90.7894L146.084 90.8828L148.713 88.4002C149.031 88.0989 149.44 87.913 149.876 87.872C150.312 87.8311 150.749 87.9374 151.117 88.1741C151.622 88.4983 152.073 88.9007 152.452 89.3665C152.452 89.3665 157.137 87.6508 159.408 83.8131C160.304 85.1542 161.059 86.5856 161.659 88.084C159.626 89.2815 156.986 90.2236 153.594 90.7894Z" fill="url(#paint8_linear_1393_61642)"/>
<path d="M152.788 91.7604H152.744L133.682 91.7395C133.565 91.7492 133.448 91.7346 133.337 91.6965C133.226 91.6584 133.124 91.5977 133.038 91.5181C132.952 91.4386 132.883 91.3419 132.836 91.2343C132.788 91.1268 132.764 91.0105 132.764 90.8931C132.764 90.7756 132.788 90.6594 132.836 90.5518C132.883 90.4442 132.952 90.3476 133.038 90.268C133.124 90.1885 133.226 90.1277 133.337 90.0896C133.448 90.0515 133.565 90.0369 133.682 90.0466L152.744 90.0676C152.955 90.081 153.154 90.1733 153.301 90.3262C153.447 90.4792 153.532 90.6817 153.537 90.8939C153.542 91.1061 153.468 91.3126 153.329 91.4727C153.19 91.6328 152.997 91.735 152.786 91.7591L152.788 91.7604Z" fill="#B7BCD6"/>
<path d="M116.545 74.5933H132.421C132.992 74.5918 133.553 74.7526 134.037 75.0571C134.522 75.3617 134.91 75.7975 135.158 76.3142L142.497 91.7505H122.768C122.4 91.7516 122.041 91.6423 121.736 91.4366C121.431 91.2309 121.195 90.9384 121.058 90.5967L115.366 76.3129C115.291 76.1212 115.264 75.9139 115.287 75.7093C115.311 75.5046 115.384 75.3089 115.5 75.1391C115.617 74.9694 115.773 74.8308 115.955 74.7357C116.137 74.6405 116.34 74.5916 116.545 74.5933Z" fill="#B7BCD6"/>
<path d="M127.166 84.8131C127.822 84.5966 128.071 83.5626 127.723 82.5037C127.375 81.4448 126.561 80.7618 125.906 80.9783C125.25 81.1948 125.001 82.2288 125.35 83.2877C125.698 84.3467 126.511 85.0296 127.166 84.8131Z" fill="white"/>
<defs>
<linearGradient id="paint0_linear_1393_61642" x1="154.094" y1="139.548" x2="150.807" y2="139.548" gradientUnits="userSpaceOnUse">
<stop stop-color="#FEBBBA"/>
<stop offset="1" stop-color="#FF928E"/>
</linearGradient>
<linearGradient id="paint1_linear_1393_61642" x1="-11643" y1="14383.8" x2="-11406.2" y2="14383.8" gradientUnits="userSpaceOnUse">
<stop stop-color="#FEBBBA"/>
<stop offset="1" stop-color="#FF928E"/>
</linearGradient>
<linearGradient id="paint2_linear_1393_61642" x1="182.564" y1="58.9449" x2="157.337" y2="92.2799" gradientUnits="userSpaceOnUse">
<stop stop-color="#4F52FF"/>
<stop offset="1" stop-color="#4042E2"/>
</linearGradient>
<linearGradient id="paint3_linear_1393_61642" x1="-38807.5" y1="35179.4" x2="-43522.4" y2="40830.2" gradientUnits="userSpaceOnUse">
<stop stop-color="#FEBBBA"/>
<stop offset="1" stop-color="#FF928E"/>
</linearGradient>
<linearGradient id="paint4_linear_1393_61642" x1="140.893" y1="67.711" x2="143.183" y2="67.711" gradientUnits="userSpaceOnUse">
<stop stop-color="#E1473D"/>
<stop offset="1" stop-color="#E9605A"/>
</linearGradient>
<linearGradient id="paint5_linear_1393_61642" x1="-16784.3" y1="17310.6" x2="-16486.1" y2="16169.7" gradientUnits="userSpaceOnUse">
<stop stop-color="#FEBBBA"/>
<stop offset="1" stop-color="#FF928E"/>
</linearGradient>
<linearGradient id="paint6_linear_1393_61642" x1="-22905.6" y1="17380" x2="-24318.4" y2="18338.8" gradientUnits="userSpaceOnUse">
<stop stop-color="#FEBBBA"/>
<stop offset="1" stop-color="#FF928E"/>
</linearGradient>
<linearGradient id="paint7_linear_1393_61642" x1="-5519.88" y1="5290.76" x2="-5909.94" y2="5501.88" gradientUnits="userSpaceOnUse">
<stop stop-color="#FEBBBA"/>
<stop offset="1" stop-color="#FF928E"/>
</linearGradient>
<linearGradient id="paint8_linear_1393_61642" x1="-39886" y1="14995.2" x2="-40329" y2="16458.9" gradientUnits="userSpaceOnUse">
<stop stop-color="#FEBBBA"/>
<stop offset="1" stop-color="#FF928E"/>
</linearGradient>
</defs>
</svg>
