<svg width="36" height="36" viewBox="0 0 36 36" fill="none" xmlns="http://www.w3.org/2000/svg">
<path d="M26.6291 27.3709C31.8045 22.6052 32.1366 14.5463 27.3709 9.37093C22.6052 4.19552 14.5463 3.86338 9.37092 8.6291C4.1955 13.3948 3.86337 21.4537 8.62908 26.6291C13.3948 31.8045 21.4537 32.1366 26.6291 27.3709Z" fill="#24B1FF" fill-opacity="0.116368"/>
<path d="M29.4045 3.16162H10.6934V17.3214H29.4045V3.16162Z" fill="white" stroke="#2A5082" stroke-miterlimit="10"/>
<path d="M22.8303 3.16162H17.2676V6.19586H22.8303V3.16162Z" fill="#A3D4FF" stroke="#2A5082" stroke-miterlimit="10"/>
<path d="M30.7244 13.3516C29.5006 13.6398 28.4336 14.363 27.6042 15.9813L24.8785 17.5237C24.6999 17.2938 24.4691 17.1097 24.2053 16.9866C23.9416 16.8635 23.6523 16.8049 23.3614 16.8157H19.4068C18.8302 16.8157 17.6317 15.2986 16.7164 15.2986H13.4445C12.5089 15.2986 11.3104 16.1127 10.6378 16.7398C9.59606 17.7765 6.95627 20.2798 6.66296 20.5124C8.31156 21.9435 11.7504 25.2205 12.5089 25.888C13.5203 24.8766 13.9401 23.8956 14.7846 23.8956H24.0289C24.7976 23.8956 29.005 20.0572 29.5411 19.4555C30.0771 18.8537 32.813 15.3188 33.4502 13.8219C33.0507 13.2757 32.0089 13.0583 30.7244 13.3516Z" fill="white"/>
<path d="M17.7733 20.3556H23.3361C23.5798 20.3741 23.8246 20.342 24.0553 20.2614C24.2861 20.1808 24.4976 20.0534 24.6768 19.8873C24.8561 19.7211 24.999 19.5197 25.0968 19.2958C25.1945 19.0718 25.245 18.83 25.245 18.5857C25.245 18.3413 25.1945 18.0995 25.0968 17.8755C24.999 17.6516 24.8561 17.4502 24.6768 17.284C24.4976 17.1179 24.2861 16.9905 24.0553 16.9099C23.8246 16.8293 23.5798 16.7972 23.3361 16.8157H19.3815C18.805 16.8157 17.6064 15.2986 16.6911 15.2986H13.4445C12.5089 15.2986 11.3104 16.1128 10.6378 16.7398C9.59606 17.7765 6.95627 20.2798 6.66296 20.5124C8.31156 21.9435 11.7504 25.2205 12.5089 25.888C13.5203 24.8766 13.9401 23.8956 14.7846 23.8956H24.0289C24.7976 23.8956 29.005 20.0573 29.5411 19.4555C30.0771 18.8537 32.813 15.3188 33.4502 13.8219C33.0507 13.2808 32.0089 13.0583 30.7244 13.3516C29.44 13.6449 28.4336 14.363 27.6042 15.9813L24.8532 17.3214" stroke="#2A5082" stroke-miterlimit="10"/>
<path d="M7.05297 18.4033L3.62073 21.8368L11.2458 29.4592L14.6781 26.0258L7.05297 18.4033Z" fill="#A3D4FF" stroke="#2A5082" stroke-miterlimit="10"/>
<path d="M6.44556 21.3569L7.77051 22.6869" stroke="#2A5082" stroke-miterlimit="10"/>
<path d="M12.2104 13.2758H13.2219" stroke="#2A5082" stroke-miterlimit="10"/>
<path d="M14.2333 13.2758H15.2447" stroke="#2A5082" stroke-miterlimit="10"/>
<path d="M16.2562 13.2758H17.2676" stroke="#2A5082" stroke-miterlimit="10"/>
</svg>
