<svg width="29" height="31" viewBox="0 0 29 31" fill="none" xmlns="http://www.w3.org/2000/svg">
<path d="M14.5 30.4834C22.5081 30.4834 29 23.9915 29 15.9834C29 7.97527 22.5081 1.4834 14.5 1.4834C6.49187 1.4834 0 7.97527 0 15.9834C0 23.9915 6.49187 30.4834 14.5 30.4834Z" fill="#24B1FF" fill-opacity="0.116368"/>
<path d="M17.69 13.1801C17.6829 13.0489 17.6326 12.9239 17.5469 12.8244C17.4612 12.7249 17.345 12.6565 17.2164 12.63C17.0878 12.6035 16.954 12.6204 16.8359 12.6779C16.7179 12.7354 16.6222 12.8304 16.5639 12.9481C16.2787 13.5281 15.5972 14.1709 14.9979 14.1709C14.2294 14.1709 13.2917 13.9196 13.2917 12.8079C13.2786 12.495 13.3651 12.186 13.5388 11.9254C13.7125 11.6648 13.9645 11.4661 14.2584 11.3579C14.7757 11.1033 15.2107 10.7079 15.5133 10.2171C15.816 9.72633 15.9741 9.16013 15.9694 8.58356V7.88756C15.97 7.80867 15.955 7.73044 15.9251 7.65744C15.8952 7.58443 15.851 7.51811 15.7953 7.46232C15.7395 7.40654 15.6732 7.36243 15.6001 7.33254C15.5271 7.30265 15.4489 7.28758 15.37 7.28823H13.6687C13.5898 7.28758 13.5116 7.30265 13.4386 7.33254C13.3656 7.36243 13.2993 7.40654 13.2435 7.46232C13.1877 7.51811 13.1436 7.58443 13.1137 7.65744C13.0838 7.73044 13.0687 7.80867 13.0694 7.88756V8.10022C13.0628 8.43927 12.9707 8.77117 12.8017 9.06518C12.6327 9.35919 12.3923 9.60583 12.1027 9.78223C11.602 10.1002 11.1952 10.546 10.9242 11.0736C10.6531 11.6012 10.5277 12.1915 10.5609 12.7837C10.5609 14.6591 12.412 16.2202 14.2632 16.2202C16.1144 16.2202 17.5595 14.6011 17.69 13.3541C17.6852 13.2912 17.69 13.2332 17.69 13.1801Z" fill="#A3D4FF" stroke="#2A5082" stroke-miterlimit="10"/>
<path d="M17.6368 16.2153L19.8167 18.4" stroke="#2A5082" stroke-miterlimit="10" stroke-linecap="round"/>
<path d="M8.21667 18.4L9.66667 16.95L12.6247 13.992C12.8697 13.7463 13.1626 13.5535 13.4852 13.4255C13.8077 13.2974 14.1531 13.2369 14.5 13.2477" stroke="#2A5082" stroke-miterlimit="10" stroke-linecap="round"/>
<path d="M9.66663 1V4.86667L11.6096 7.28333H18.0525L19.8166 4.86667V1H9.66663Z" fill="#E9EAEB" stroke="#2A5082" stroke-miterlimit="10"/>
<path d="M23.2 19.85H5.31665V30.4833H23.2V19.85Z" fill="white" stroke="#2A5082" stroke-miterlimit="10"/>
<path d="M9.4782 27.2836L8.21669 26.0221L6.9552 27.2836" stroke="#2A5082" stroke-width="2" stroke-miterlimit="10"/>
<path d="M8.21667 26.1333V29.0333" stroke="#2A5082" stroke-width="2" stroke-miterlimit="10"/>
<path d="M12.8615 27.2836L11.6 26.0221L10.3385 27.2836" stroke="#2A5082" stroke-width="2" stroke-miterlimit="10"/>
<path d="M11.6001 26.1333V29.0333" stroke="#2A5082" stroke-width="2" stroke-miterlimit="10"/>
<path d="M12.5666 2.44995L11.1166 3.89995" stroke="#BCC0C4" stroke-width="2" stroke-miterlimit="10"/>
<path d="M14.9834 2.44995L12.0834 5.34995" stroke="#BCC0C4" stroke-width="2" stroke-miterlimit="10"/>
<path d="M17.3999 2.44995L14.0166 5.83328" stroke="#BCC0C4" stroke-width="2" stroke-miterlimit="10"/>
<path d="M18.3667 3.90002L16.4333 5.83336" stroke="#BCC0C4" stroke-width="2" stroke-miterlimit="10"/>
<path d="M16.4334 19.85H12.0834V22.2666H16.4334V19.85Z" fill="#A3D4FF" stroke="#2A5082" stroke-miterlimit="10"/>
</svg>
