<svg width="29" height="32" viewBox="0 0 29 32" fill="none" xmlns="http://www.w3.org/2000/svg">
<path d="M14.5 31.0783C22.5081 31.0783 29 24.4382 29 16.2471C29 8.05614 22.5081 1.41602 14.5 1.41602C6.49187 1.41602 0 8.05614 0 16.2471C0 24.4382 6.49187 31.0783 14.5 31.0783Z" fill="#EB5E13" fill-opacity="0.15"/>
<path d="M17.69 13.3797C17.6829 13.2456 17.6325 13.1176 17.5468 13.0159C17.4611 12.9141 17.3449 12.8442 17.2163 12.8171C17.0877 12.79 16.9539 12.8072 16.8359 12.8661C16.7178 12.9249 16.6222 13.0221 16.5638 13.1424C16.2786 13.7356 15.5971 14.3931 14.9978 14.3931C14.2293 14.3931 13.2916 14.1361 13.2916 12.999C13.2785 12.6789 13.365 12.3629 13.5387 12.0964C13.7125 11.8298 13.9644 11.6266 14.2583 11.5159C14.7756 11.2554 15.2106 10.851 15.5133 10.349C15.8159 9.84707 15.974 9.26794 15.9693 8.6782V7.96631C15.97 7.88562 15.9549 7.80561 15.925 7.73093C15.8951 7.65626 15.851 7.58842 15.7952 7.53136C15.7394 7.47431 15.6731 7.42919 15.6001 7.39861C15.5271 7.36804 15.4489 7.35263 15.37 7.35329H13.6686C13.5898 7.35263 13.5115 7.36804 13.4385 7.39861C13.3655 7.42919 13.2992 7.47431 13.2434 7.53136C13.1876 7.58842 13.1435 7.65626 13.1136 7.73093C13.0837 7.80561 13.0687 7.88562 13.0693 7.96631V8.18383C13.0627 8.53062 12.9706 8.8701 12.8017 9.17082C12.6327 9.47155 12.3923 9.72382 12.1026 9.90425C11.602 10.2295 11.1951 10.6854 10.9241 11.2251C10.6531 11.7647 10.5277 12.3686 10.5608 12.9743C10.5608 14.8924 12.412 16.4893 14.2631 16.4893C16.1143 16.4893 17.5595 14.8331 17.69 13.5576C17.6851 13.4934 17.69 13.4341 17.69 13.3797Z" fill="#F45617" stroke="#1E1E1E" stroke-miterlimit="10"/>
<path d="M17.6368 16.4844L19.8167 18.7189" stroke="#1E1E1E" stroke-miterlimit="10" stroke-linecap="round"/>
<path d="M8.21667 18.719L9.66667 17.2359L12.6247 14.2103C12.8697 13.959 13.1626 13.7618 13.4852 13.6308C13.8077 13.4999 14.1531 13.438 14.5 13.449" stroke="#1E1E1E" stroke-miterlimit="10" stroke-linecap="round"/>
<path d="M9.66669 0.921631V4.8766L11.6097 7.34845H18.0525L19.8167 4.8766V0.921631H9.66669Z" fill="#E9EAEB" stroke="#1E1E1E" stroke-miterlimit="10"/>
<path d="M23.2 20.2021H5.31671V31.0783H23.2V20.2021Z" fill="white" stroke="#1E1E1E" stroke-miterlimit="10"/>
<path d="M9.47814 27.8054L8.21663 26.5151L6.95514 27.8054" stroke="#1E1E1E" stroke-width="2" stroke-miterlimit="10"/>
<path d="M8.21667 26.6289V29.5951" stroke="#1E1E1E" stroke-width="2" stroke-miterlimit="10"/>
<path d="M12.8615 27.8054L11.6 26.5151L10.3385 27.8054" stroke="#1E1E1E" stroke-width="2" stroke-miterlimit="10"/>
<path d="M11.6 26.6289V29.5951" stroke="#1E1E1E" stroke-width="2" stroke-miterlimit="10"/>
<path d="M12.5666 2.40479L11.1166 3.8879" stroke="#BCC0C4" stroke-width="2" stroke-miterlimit="10"/>
<path d="M14.9833 2.40479L12.0833 5.37101" stroke="#BCC0C4" stroke-width="2" stroke-miterlimit="10"/>
<path d="M17.4 2.40479L14.0167 5.86538" stroke="#BCC0C4" stroke-width="2" stroke-miterlimit="10"/>
<path d="M18.3667 3.88794L16.4333 5.86542" stroke="#BCC0C4" stroke-width="2" stroke-miterlimit="10"/>
<path d="M16.4333 20.2021H12.0833V22.674H16.4333V20.2021Z" fill="#F45617" stroke="#1E1E1E" stroke-miterlimit="10"/>
</svg>
