<svg width="39" height="30" viewBox="0 0 39 30" fill="none" xmlns="http://www.w3.org/2000/svg">
<path d="M25.375 27.1875C32.8826 27.1875 38.9688 21.1014 38.9688 13.5938C38.9688 6.08613 32.8826 0 25.375 0C17.8674 0 11.7812 6.08613 11.7812 13.5938C11.7812 21.1014 17.8674 27.1875 25.375 27.1875Z" fill="#24B1FF" fill-opacity="0.116368"/>
<path d="M32.4639 24.2875C32.4639 23.6854 32.71 21.4077 31.2125 21.0411C31.0815 20.795 30.5213 19.5803 30.0448 18.5435C29.8273 18.073 29.4792 17.6749 29.042 17.3965C28.6048 17.118 28.0969 16.9709 27.5786 16.9727H23.5625V26.9213H32.2544C32.2544 26.9213 32.9875 26.4239 32.9875 25.8741C32.9875 25.3243 33.1184 24.4603 32.4639 24.2875Z" fill="#A3D4FF"/>
<path d="M23.5625 26.9056H32.2544C32.2544 26.9056 32.9875 26.4081 32.9875 25.8584C32.9875 25.3086 33.1184 24.4603 32.4639 24.2875C32.4639 23.6854 32.71 21.4077 31.2125 21.0411C31.0815 20.795 30.5213 19.5803 30.0448 18.5435C29.8273 18.073 29.4792 17.6749 29.042 17.3965C28.6048 17.118 28.0969 16.9709 27.5786 16.9727H23.5625" stroke="#2A5082" stroke-miterlimit="10"/>
<path d="M28.7985 21.0987L27.945 19.2713C27.9142 19.2056 27.8654 19.1501 27.8042 19.1111C27.743 19.0722 27.672 19.0515 27.5995 19.0514H25.6569V21.6694H28.4477C28.5144 21.6682 28.5797 21.6501 28.6376 21.617C28.6955 21.5839 28.7442 21.5368 28.7791 21.48C28.814 21.4231 28.8341 21.3584 28.8375 21.2918C28.8409 21.2252 28.8275 21.1588 28.7985 21.0987Z" fill="white" stroke="#2A5082" stroke-miterlimit="10"/>
<path d="M6.80701 12.2444V16.4333V22.193V26.9055H23.5626V12.2444H6.80701Z" fill="white"/>
<path d="M6.80701 16.4333V12.2444H23.5626V26.9055H6.80701V22.193" stroke="#2A5082" stroke-miterlimit="10"/>
<path d="M6.80701 21.1458V18.0042" stroke="#2A5082" stroke-miterlimit="10"/>
<path d="M13.6138 26.9056C13.6138 27.3198 13.491 27.7248 13.2608 28.0692C13.0307 28.4136 12.7036 28.6821 12.3209 28.8406C11.9382 28.9991 11.517 29.0406 11.1108 28.9598C10.7045 28.879 10.3313 28.6795 10.0384 28.3866C9.74546 28.0937 9.54599 27.7205 9.46517 27.3142C9.38436 26.9079 9.42583 26.4868 9.58435 26.1041C9.74287 25.7214 10.0113 25.3943 10.3558 25.1641C10.7002 24.934 11.1051 24.8112 11.5194 24.8112C12.0748 24.8112 12.6076 25.0318 13.0004 25.4246C13.3931 25.8174 13.6138 26.3501 13.6138 26.9056Z" fill="#E9EAEB" stroke="#2A5082" stroke-miterlimit="10"/>
<path d="M29.3223 26.9056C29.3223 27.3198 29.1995 27.7248 28.9693 28.0692C28.7392 28.4136 28.4121 28.6821 28.0294 28.8406C27.6467 28.9991 27.2255 29.0406 26.8193 28.9598C26.413 28.879 26.0398 28.6795 25.7469 28.3866C25.454 28.0937 25.2545 27.7205 25.1737 27.3142C25.0929 26.9079 25.1343 26.4868 25.2928 26.1041C25.4514 25.7214 25.7198 25.3943 26.0642 25.1641C26.4087 24.934 26.8136 24.8112 27.2279 24.8112C27.7833 24.8112 28.3161 25.0318 28.7089 25.4246C29.1016 25.8174 29.3223 26.3501 29.3223 26.9056Z" fill="#E9EAEB" stroke="#2A5082" stroke-miterlimit="10"/>
<path d="M12.043 20.6222H2.09436" stroke="#2A5082" stroke-miterlimit="10"/>
<path d="M17.8027 16.4333H4.7124" stroke="#2A5082" stroke-miterlimit="10"/>
<path d="M1.04806 20.6222H0" stroke="#2A5082" stroke-miterlimit="10"/>
<path d="M3.6661 16.4333H2.61804" stroke="#2A5082" stroke-miterlimit="10"/>
</svg>
