<svg width="28" height="30" viewBox="0 0 28 30" fill="none" xmlns="http://www.w3.org/2000/svg">
<path d="M27.8013 14.6443C27.8013 21.52 22.4411 26.0762 15.8626 26.0762C9.28408 26.0762 3.92383 21.52 3.92383 14.6443C3.92383 7.76852 9.28408 2.19873 15.8626 2.19873C22.4411 2.19873 27.8013 7.77339 27.8013 14.6443Z" fill="#24B1FF" fill-opacity="0.116368"/>
<path d="M10.7461 28.5127L25.365 28.5127V19.7414H10.7461L10.7461 28.5127Z" fill="white" stroke="#2A5082" stroke-miterlimit="10"/>
<path d="M15.619 22.1779H20.0046V19.7414H15.619V22.1779Z" fill="#A3D4FF" stroke="#2A5082" stroke-miterlimit="10"/>
<path d="M23.9028 26.5635H22.9282" stroke="#2A5082" stroke-miterlimit="10"/>
<path d="M21.9536 26.5635H20.979" stroke="#2A5082" stroke-miterlimit="10"/>
<path d="M20.0044 26.5635H19.0298" stroke="#2A5082" stroke-miterlimit="10"/>
<path d="M13.9669 12.7682C13.1385 11.6474 11.8862 9.02087 9.2158 9.02087H4.70344C2.95405 9.02087 1 10.8872 1 13.236V17.7435C1 18.8545 2.27184 20.1068 3.43648 20.3943V29H10.2586V28.3909L10.7459 29V14.3811L13.889 17.7045C14.028 17.8535 14.1963 17.9723 14.3832 18.0536C14.5701 18.1348 14.7718 18.1768 14.9756 18.1768C15.1795 18.1768 15.3811 18.1348 15.5681 18.0536C15.755 17.9723 15.9232 17.8535 16.0623 17.7045L16.7055 17.0125C16.7055 17.0125 14.7856 13.8938 13.9669 12.7682Z" fill="#A3D4FF"/>
<path d="M7.33491 7.42743C8.59214 7.42743 9.77139 6.64775 9.77139 5.12252V3.2708C9.77139 1.74556 8.59214 1 7.33491 1C6.07769 1 4.89844 1.74556 4.89844 3.2708V5.12252C4.89844 6.64775 6.07769 7.42743 7.33491 7.42743Z" fill="white" stroke="#2A5082" stroke-miterlimit="10"/>
<path d="M10.7459 29V14.3811L13.889 17.7045C14.028 17.8535 14.1963 17.9723 14.3832 18.0536C14.5701 18.1348 14.7718 18.1768 14.9756 18.1768C15.1795 18.1768 15.3811 18.1348 15.5681 18.0536C15.755 17.9723 15.9232 17.8535 16.0623 17.7045L16.7055 17.0125C16.7055 17.0125 14.7856 13.9036 13.9669 12.7877C13.1483 11.6718 11.8862 9.02087 9.2158 9.02087H4.70344C2.95405 9.02087 1 10.8872 1 13.236V17.7435C1 19.0007 2.64219 20.4528 3.92377 20.4528" stroke="#2A5082" stroke-miterlimit="10"/>
<path d="M3.92383 12.9193V29.0001" stroke="#2A5082" stroke-miterlimit="10"/>
<path d="M7.33496 19.7413V28.9999" stroke="#2A5082" stroke-miterlimit="10"/>
</svg>
