<svg width="39" height="31" viewBox="0 0 39 31" fill="none" xmlns="http://www.w3.org/2000/svg">
<path d="M25.375 27.9773C32.8826 27.9773 38.9688 21.7522 38.9688 14.0731C38.9688 6.39406 32.8826 0.168945 25.375 0.168945C17.8674 0.168945 11.7812 6.39406 11.7812 14.0731C11.7812 21.7522 17.8674 27.9773 25.375 27.9773Z" fill="#F45617" fill-opacity="0.2"/>
<path d="M32.4639 25.0112C32.4639 24.3953 32.71 22.0656 31.2125 21.6907C31.0815 21.439 30.5213 20.1964 30.0448 19.136C29.8273 18.6548 29.4792 18.2476 29.042 17.9628C28.6048 17.678 28.0969 17.5275 27.5786 17.5293H23.5625V27.7051H32.2544C32.2544 27.7051 32.9875 27.1963 32.9875 26.634C32.9875 26.0716 33.1184 25.1879 32.4639 25.0112Z" fill="#F45617"/>
<path d="M23.5625 27.689H32.2544C32.2544 27.689 32.9875 27.1803 32.9875 26.6179C32.9875 26.0556 33.1184 25.1879 32.4639 25.0112C32.4639 24.3953 32.71 22.0656 31.2125 21.6907C31.0815 21.439 30.5213 20.1964 30.0448 19.136C29.8273 18.6548 29.4792 18.2476 29.042 17.9628C28.6048 17.678 28.0969 17.5275 27.5786 17.5293H23.5625" stroke="#1E1E1E" stroke-miterlimit="10"/>
<path d="M28.7986 21.7496L27.9452 19.8805C27.9144 19.8133 27.8655 19.7565 27.8043 19.7166C27.7431 19.6768 27.6721 19.6556 27.5996 19.6555H25.657V22.3334H28.4478C28.5145 22.3321 28.5798 22.3136 28.6377 22.2798C28.6956 22.2459 28.7443 22.1977 28.7792 22.1396C28.8142 22.0814 28.8342 22.0152 28.8376 21.9471C28.841 21.879 28.8276 21.811 28.7986 21.7496Z" fill="white" stroke="#1E1E1E" stroke-miterlimit="10"/>
<path d="M6.80705 12.6931V16.9777V22.8689V27.689H23.5626V12.6931H6.80705Z" fill="white"/>
<path d="M6.80705 16.9777V12.6931H23.5626V27.689H6.80705V22.8689" stroke="#1E1E1E" stroke-miterlimit="10"/>
<path d="M6.80705 21.7976V18.5842" stroke="#1E1E1E" stroke-miterlimit="10"/>
<path d="M13.6137 27.6889C13.6137 28.1126 13.4908 28.5268 13.2607 28.8791C13.0306 29.2314 12.7035 29.506 12.3208 29.6681C11.938 29.8302 11.5169 29.8727 11.1106 29.79C10.7044 29.7074 10.3312 29.5033 10.0382 29.2037C9.74533 28.9041 9.54587 28.5224 9.46505 28.1068C9.38424 27.6913 9.4257 27.2605 9.58423 26.8691C9.74275 26.4776 10.0112 26.1431 10.3556 25.9077C10.7001 25.6723 11.105 25.5466 11.5192 25.5466C12.0747 25.5466 12.6075 25.7723 13.0002 26.1741C13.393 26.5758 13.6137 27.1207 13.6137 27.6889Z" fill="#E9EAEB" stroke="#1E1E1E" stroke-miterlimit="10"/>
<path d="M29.3223 27.6889C29.3223 28.1126 29.1994 28.5268 28.9693 28.8791C28.7392 29.2314 28.4121 29.506 28.0293 29.6681C27.6466 29.8302 27.2255 29.8727 26.8192 29.79C26.4129 29.7074 26.0397 29.5033 25.7468 29.2037C25.4539 28.9041 25.2545 28.5224 25.1736 28.1068C25.0928 27.6913 25.1343 27.2605 25.2928 26.8691C25.4513 26.4776 25.7198 26.1431 26.0642 25.9077C26.4086 25.6723 26.8136 25.5466 27.2278 25.5466C27.7833 25.5466 28.316 25.7723 28.7088 26.1741C29.1016 26.5758 29.3223 27.1207 29.3223 27.6889Z" fill="#E9EAEB" stroke="#1E1E1E" stroke-miterlimit="10"/>
<path d="M12.0431 21.262H2.09448" stroke="#1E1E1E" stroke-miterlimit="10"/>
<path d="M17.8027 16.9775H4.71246" stroke="#1E1E1E" stroke-miterlimit="10"/>
<path d="M1.04806 21.2622H0" stroke="#1E1E1E" stroke-miterlimit="10"/>
<path d="M3.66613 16.9775H2.61807" stroke="#1E1E1E" stroke-miterlimit="10"/>
</svg>
