<svg width="161" height="145" viewBox="0 0 161 145" fill="none" xmlns="http://www.w3.org/2000/svg">
<path d="M82.4531 0.316092L77.2145 1.67174L12.6732 18.3737L7.43452 19.7293C4.89174 20.3904 2.7141 22.0366 1.37938 24.3069C0.0446472 26.5771 -0.338177 29.2859 0.31489 31.839L23.0309 120.233C23.6896 122.785 25.3302 124.97 27.5925 126.31C29.8549 127.649 32.5543 128.033 35.0985 127.378L35.1121 127.374L110.104 107.968L110.117 107.965C112.66 107.304 114.838 105.657 116.172 103.387C117.507 101.117 117.89 98.408 117.237 95.8549L94.5208 7.46057C93.8621 4.90892 92.2215 2.7237 89.9592 1.38431C87.6968 0.0449205 84.9974 -0.339246 82.4531 0.316092Z" fill="#F2F2F2"/>
<path d="M83.1656 3.08755L76.9607 4.69322L14.3516 20.8951L8.14687 22.5008C6.33609 22.9715 4.78534 24.1439 3.83484 25.7606C2.88434 27.3772 2.61172 29.3063 3.07679 31.1244L25.7928 119.519C26.2619 121.336 27.4301 122.892 29.0412 123.846C30.6523 124.8 32.5746 125.073 34.3864 124.606L34.4 124.603L109.392 105.197L109.405 105.193C111.216 104.722 112.767 103.55 113.717 101.933C114.668 100.317 114.94 98.3878 114.475 96.5696L91.7591 8.1753C91.29 6.35823 90.1218 4.80209 88.5107 3.84828C86.8997 2.89447 84.9774 2.62089 83.1656 3.08755V3.08755Z" fill="white"/>
<path d="M78.4802 31.7119L40.5438 41.5291C40.1201 41.6387 39.6703 41.575 39.2934 41.3518C38.9166 41.1287 38.6435 40.7645 38.5342 40.3393C38.4249 39.9141 38.4885 39.4628 38.7108 39.0846C38.9332 38.7064 39.2961 38.4324 39.7198 38.3227L77.6562 28.5056C78.0798 28.3964 78.5292 28.4604 78.9058 28.6835C79.2823 28.9067 79.5552 29.2708 79.6644 29.6957C79.7736 30.1206 79.7102 30.5717 79.4882 30.9498C79.2661 31.3278 78.9036 31.602 78.4802 31.7119V31.7119Z" fill="#F2F2F2"/>
<path d="M86.4609 35.4172L41.9344 46.9398C41.5107 47.0494 41.0609 46.9856 40.6841 46.7625C40.3072 46.5394 40.0341 46.1752 39.9248 45.75C39.8156 45.3248 39.8791 44.8735 40.1014 44.4953C40.3238 44.1171 40.6867 43.8431 41.1104 43.7334L85.637 32.2109C86.0607 32.1013 86.5104 32.165 86.8873 32.3881C87.2642 32.6112 87.5373 32.9755 87.6466 33.4006C87.7558 33.8258 87.6923 34.2772 87.4699 34.6553C87.2476 35.0335 86.8846 35.3076 86.4609 35.4172V35.4172Z" fill="#F2F2F2"/>
<path d="M84.7116 55.9598L46.7752 65.777C46.5654 65.8313 46.347 65.8436 46.1325 65.8131C45.918 65.7827 45.7115 65.7102 45.5249 65.5998C45.3383 65.4893 45.1752 65.343 45.0449 65.1693C44.9147 64.9955 44.8197 64.7978 44.7656 64.5872C44.7115 64.3767 44.6993 64.1575 44.7296 63.9423C44.7599 63.727 44.8322 63.5198 44.9423 63.3325C45.0523 63.1453 45.1981 62.9816 45.3712 62.8509C45.5444 62.7201 45.7415 62.6249 45.9513 62.5706L83.8877 52.7535C84.0975 52.6992 84.3159 52.6869 84.5304 52.7173C84.7449 52.7477 84.9514 52.8202 85.138 52.9307C85.3246 53.0412 85.4877 53.1875 85.618 53.3612C85.7483 53.5349 85.8432 53.7327 85.8973 53.9432C85.9514 54.1538 85.9636 54.3729 85.9333 54.5882C85.903 54.8035 85.8307 55.0107 85.7207 55.1979C85.6106 55.3852 85.4648 55.5489 85.2917 55.6796C85.1185 55.8103 84.9214 55.9056 84.7116 55.9598V55.9598Z" fill="#F2F2F2"/>
<path d="M92.6924 59.6652L48.1659 71.1877C47.9561 71.242 47.7377 71.2543 47.5231 71.2239C47.3086 71.1934 47.1021 71.1209 46.9155 71.0105C46.7289 70.9 46.5658 70.7537 46.4355 70.58C46.3053 70.4062 46.2104 70.2085 46.1563 69.9979C46.1022 69.7874 46.0899 69.5682 46.1202 69.353C46.1505 69.1377 46.2228 68.9305 46.3329 68.7432C46.443 68.556 46.5887 68.3923 46.7619 68.2616C46.935 68.1309 47.1321 68.0356 47.3419 67.9813L91.8684 56.4588C92.2921 56.3492 92.7419 56.4129 93.1188 56.636C93.4956 56.8592 93.7687 57.2234 93.878 57.6486C93.9873 58.0738 93.9237 58.5251 93.7014 58.9033C93.4791 59.2815 93.1161 59.5555 92.6924 59.6652Z" fill="#F2F2F2"/>
<path d="M90.943 80.2079L53.0066 90.025C52.583 90.1343 52.1335 90.0704 51.7568 89.8472C51.3802 89.6241 51.1073 89.26 50.9981 88.835C50.8889 88.41 50.9523 87.9589 51.1744 87.5808C51.3965 87.2027 51.7591 86.9286 52.1826 86.8187L90.119 77.0016C90.5427 76.8919 90.9925 76.9557 91.3693 77.1788C91.7462 77.4019 92.0193 77.7661 92.1286 78.1913C92.2379 78.6165 92.1743 79.0678 91.952 79.446C91.7296 79.8242 91.3667 80.0982 90.943 80.2079Z" fill="#F2F2F2"/>
<path d="M98.9238 83.9132L54.3973 95.4357C54.1874 95.4902 53.9689 95.5027 53.7542 95.4724C53.5395 95.4422 53.3329 95.3697 53.1461 95.2593C52.9594 95.1488 52.7961 95.0025 52.6657 94.8287C52.5354 94.6549 52.4404 94.457 52.3863 94.2463C52.3321 94.0357 52.3199 93.8164 52.3502 93.601C52.3806 93.3856 52.453 93.1783 52.5632 92.991C52.6735 92.8037 52.8194 92.64 52.9927 92.5093C53.166 92.3787 53.3633 92.2835 53.5733 92.2294L98.0998 80.7069C98.5235 80.5972 98.9733 80.661 99.3502 80.8841C99.727 81.1072 100 81.4714 100.109 81.8966C100.219 82.3218 100.155 82.7731 99.9328 83.1513C99.7105 83.5295 99.3475 83.8036 98.9238 83.9132V83.9132Z" fill="#F2F2F2"/>
<path d="M34.0678 51.5951L20.6425 55.0693C20.4394 55.1216 20.2238 55.091 20.0432 54.984C19.8625 54.8771 19.7315 54.7026 19.6789 54.4988L16.5971 42.5068C16.545 42.3029 16.5756 42.0866 16.6821 41.9053C16.7887 41.724 16.9626 41.5926 17.1656 41.5398L30.591 38.0656C30.7941 38.0133 31.0097 38.0439 31.1903 38.1509C31.371 38.2578 31.502 38.4323 31.5546 38.6361L34.6364 50.6282C34.6885 50.832 34.6579 51.0483 34.5514 51.2296C34.4448 51.4109 34.2709 51.5423 34.0678 51.5951V51.5951Z" fill="#E6E6E6"/>
<path d="M40.2988 75.843L26.8735 79.3172C26.6703 79.3696 26.4548 79.3389 26.2741 79.2319C26.0935 79.125 25.9625 78.9505 25.9099 78.7467L22.8281 66.7547C22.7759 66.5508 22.8065 66.3345 22.9131 66.1532C23.0197 65.972 23.1936 65.8405 23.3966 65.7877L36.8219 62.3135C37.0251 62.2612 37.2406 62.2919 37.4213 62.3988C37.6019 62.5058 37.7329 62.6803 37.7855 62.884L40.8673 74.8761C40.9194 75.0799 40.8889 75.2962 40.7823 75.4775C40.6757 75.6588 40.5018 75.7902 40.2988 75.843V75.843Z" fill="#E6E6E6"/>
<path d="M46.5303 100.091L33.1049 103.565C32.9018 103.617 32.6862 103.587 32.5056 103.48C32.3249 103.373 32.1939 103.198 32.1413 102.995L29.0595 91.0026C29.0074 90.7987 29.038 90.5824 29.1445 90.4012C29.2511 90.2199 29.425 90.0884 29.628 90.0357L43.0534 86.5615C43.2565 86.5091 43.4721 86.5398 43.6527 86.6467C43.8334 86.7537 43.9644 86.9282 44.017 87.1319L47.0988 99.124C47.1509 99.3279 47.1203 99.5442 47.0138 99.7255C46.9072 99.9067 46.7333 100.038 46.5303 100.091V100.091Z" fill="#E6E6E6"/>
<path d="M134.775 22.723H57.3021C54.6753 22.726 52.157 23.7744 50.2996 25.6383C48.4423 27.5021 47.3975 30.0292 47.3945 32.6651V123.951C47.3975 126.587 48.4423 129.114 50.2996 130.978C52.157 132.842 54.6753 133.89 57.3021 133.893H134.775C137.402 133.89 139.92 132.842 141.777 130.978C143.635 129.114 144.68 126.587 144.682 123.951V32.6651C144.68 30.0292 143.635 27.5021 141.777 25.6383C139.92 23.7744 137.402 22.726 134.775 22.723V22.723Z" fill="#E6E6E6"/>
<path d="M134.775 25.5851H57.302C55.4314 25.5872 53.6381 26.3338 52.3154 27.6611C50.9927 28.9884 50.2487 30.788 50.2466 32.665V123.951C50.2487 125.828 50.9927 127.628 52.3154 128.955C53.6381 130.283 55.4314 131.029 57.302 131.031H134.775C136.646 131.029 138.439 130.283 139.762 128.955C141.084 127.628 141.828 125.828 141.83 123.951V32.665C141.828 30.788 141.084 28.9884 139.762 27.6611C138.439 26.3338 136.646 25.5872 134.775 25.5851V25.5851Z" fill="white"/>
<path d="M142.914 145C152.902 145 161 136.874 161 126.851C161 116.828 152.902 108.702 142.914 108.702C132.925 108.702 124.828 116.828 124.828 126.851C124.828 136.874 132.925 145 142.914 145Z" fill="#156CE4"/>
<path d="M151.564 124.484H145.273V118.171C145.273 117.543 145.024 116.941 144.582 116.497C144.14 116.053 143.54 115.804 142.914 115.804C142.288 115.804 141.688 116.053 141.246 116.497C140.804 116.941 140.555 117.543 140.555 118.171V124.484H134.264C133.639 124.484 133.039 124.733 132.596 125.177C132.154 125.621 131.905 126.223 131.905 126.851C131.905 127.479 132.154 128.081 132.596 128.525C133.039 128.969 133.639 129.218 134.264 129.218H140.555V135.531C140.555 136.159 140.804 136.761 141.246 137.205C141.688 137.649 142.288 137.898 142.914 137.898C143.54 137.898 144.14 137.649 144.582 137.205C145.024 136.761 145.273 136.159 145.273 135.531V129.218H151.564C152.189 129.218 152.789 128.969 153.232 128.525C153.674 128.081 153.923 127.479 153.923 126.851C153.923 126.223 153.674 125.621 153.232 125.177C152.789 124.733 152.189 124.484 151.564 124.484V124.484Z" fill="white"/>
<path d="M123.115 75.7467H83.9378C83.721 75.7469 83.5063 75.7043 83.3059 75.6212C83.1055 75.5381 82.9234 75.4162 82.77 75.2624C82.6166 75.1086 82.4949 74.926 82.4119 74.725C82.3289 74.5241 82.2861 74.3086 82.2861 74.091C82.2861 73.8735 82.3289 73.658 82.4119 73.457C82.4949 73.256 82.6166 73.0735 82.77 72.9197C82.9234 72.7659 83.1055 72.644 83.3059 72.5609C83.5063 72.4778 83.721 72.4352 83.9378 72.4354H123.115C123.553 72.4359 123.972 72.6106 124.281 72.921C124.59 73.2314 124.763 73.6523 124.763 74.091C124.763 74.5298 124.59 74.9507 124.281 75.2611C123.972 75.5715 123.553 75.7462 123.115 75.7467V75.7467Z" fill="#E6E6E6"/>
<path d="M129.921 81.3343H83.9378C83.721 81.3345 83.5063 81.2919 83.3059 81.2088C83.1055 81.1257 82.9234 81.0038 82.77 80.85C82.6166 80.6963 82.4949 80.5137 82.4119 80.3127C82.3289 80.1117 82.2861 79.8963 82.2861 79.6787C82.2861 79.4611 82.3289 79.2457 82.4119 79.0447C82.4949 78.8437 82.6166 78.6611 82.77 78.5073C82.9234 78.3536 83.1055 78.2317 83.3059 78.1486C83.5063 78.0655 83.721 78.0228 83.9378 78.0231H129.921C130.359 78.0231 130.778 78.1975 131.088 78.508C131.397 78.8185 131.571 79.2396 131.571 79.6787C131.571 80.1178 131.397 80.5389 131.088 80.8494C130.778 81.1599 130.359 81.3343 129.921 81.3343Z" fill="#E6E6E6"/>
<path d="M123.115 100.788H83.9378C83.721 100.788 83.5063 100.746 83.3059 100.662C83.1055 100.579 82.9234 100.457 82.77 100.304C82.6166 100.15 82.4949 99.9673 82.4119 99.7663C82.3289 99.5653 82.2861 99.3499 82.2861 99.1323C82.2861 98.9147 82.3289 98.6993 82.4119 98.4983C82.4949 98.2973 82.6166 98.1147 82.77 97.961C82.9234 97.8072 83.1055 97.6853 83.3059 97.6022C83.5063 97.5191 83.721 97.4764 83.9378 97.4767H123.115C123.553 97.4767 123.973 97.6511 124.282 97.9616C124.591 98.2721 124.765 98.6932 124.765 99.1323C124.765 99.5714 124.591 99.9925 124.282 100.303C123.973 100.613 123.553 100.788 123.115 100.788V100.788Z" fill="#E6E6E6"/>
<path d="M129.921 106.376H83.9378C83.721 106.376 83.5063 106.333 83.3059 106.25C83.1055 106.167 82.9234 106.045 82.77 105.891C82.6166 105.738 82.4949 105.555 82.4119 105.354C82.3289 105.153 82.2861 104.938 82.2861 104.72C82.2861 104.502 82.3289 104.287 82.4119 104.086C82.4949 103.885 82.6166 103.702 82.77 103.549C82.9234 103.395 83.1055 103.273 83.3059 103.19C83.5063 103.107 83.721 103.064 83.9378 103.064H129.921C130.138 103.064 130.353 103.107 130.553 103.19C130.753 103.273 130.936 103.395 131.089 103.549C131.242 103.702 131.364 103.885 131.447 104.086C131.53 104.287 131.573 104.502 131.573 104.72C131.573 104.938 131.53 105.153 131.447 105.354C131.364 105.555 131.242 105.738 131.089 105.891C130.936 106.045 130.753 106.167 130.553 106.25C130.353 106.333 130.138 106.376 129.921 106.376Z" fill="#E6E6E6"/>
<path d="M75.162 83.8709H61.2975C61.0877 83.8707 60.8866 83.787 60.7383 83.6382C60.59 83.4893 60.5066 83.2875 60.5063 83.0771V70.6927C60.5066 70.4822 60.59 70.2804 60.7383 70.1316C60.8866 69.9827 61.0877 69.899 61.2975 69.8988H75.162C75.3718 69.899 75.5729 69.9827 75.7212 70.1316C75.8695 70.2804 75.9529 70.4822 75.9531 70.6927V83.0771C75.9529 83.2875 75.8695 83.4893 75.7212 83.6382C75.5729 83.787 75.3718 83.8707 75.162 83.8709V83.8709Z" fill="#E6E6E6"/>
<path d="M75.162 108.912H61.2975C61.0877 108.912 60.8866 108.828 60.7383 108.679C60.59 108.531 60.5066 108.329 60.5063 108.118V95.7339C60.5066 95.5235 60.59 95.3217 60.7383 95.1728C60.8866 95.024 61.0877 94.9403 61.2975 94.9401H75.162C75.3718 94.9403 75.5729 95.024 75.7212 95.1728C75.8695 95.3217 75.9529 95.5235 75.9531 95.7339V108.118C75.9529 108.329 75.8695 108.531 75.7212 108.679C75.5729 108.828 75.3718 108.912 75.162 108.912V108.912Z" fill="#E6E6E6"/>
<path d="M123.159 47.8708H94.2749C93.8373 47.8708 93.4176 47.6964 93.1082 47.3859C92.7988 47.0754 92.625 46.6543 92.625 46.2152C92.625 45.7761 92.7988 45.355 93.1082 45.0445C93.4176 44.734 93.8373 44.5596 94.2749 44.5596H123.159C123.596 44.5596 124.016 44.734 124.326 45.0445C124.635 45.355 124.809 45.7761 124.809 46.2152C124.809 46.6543 124.635 47.0754 124.326 47.3859C124.016 47.6964 123.596 47.8708 123.159 47.8708Z" fill="#156CE4"/>
<path d="M129.965 53.4585H94.2749C94.0582 53.4585 93.8437 53.4156 93.6435 53.3324C93.4433 53.2492 93.2614 53.1273 93.1082 52.9735C92.955 52.8198 92.8335 52.6373 92.7506 52.4364C92.6677 52.2355 92.625 52.0203 92.625 51.8028C92.625 51.5854 92.6677 51.3701 92.7506 51.1693C92.8335 50.9684 92.955 50.7859 93.1082 50.6321C93.2614 50.4784 93.4433 50.3564 93.6435 50.2732C93.8437 50.19 94.0582 50.1472 94.2749 50.1472H129.965C130.402 50.1472 130.822 50.3216 131.131 50.6321C131.441 50.9426 131.614 51.3637 131.614 51.8028C131.614 52.2419 131.441 52.663 131.131 52.9735C130.822 53.284 130.402 53.4585 129.965 53.4585V53.4585Z" fill="#156CE4"/>
<path d="M87.8825 60.2301H61.254C61.0443 60.2298 60.8432 60.1461 60.6949 59.9973C60.5465 59.8485 60.4631 59.6467 60.4629 59.4362V38.5817C60.4631 38.3712 60.5465 38.1694 60.6949 38.0206C60.8432 37.8718 61.0443 37.7881 61.254 37.7878H87.8825C88.0923 37.7881 88.2934 37.8718 88.4417 38.0206C88.59 38.1694 88.6734 38.3712 88.6737 38.5817V59.4362C88.6734 59.6467 88.59 59.8485 88.4417 59.9973C88.2934 60.1461 88.0923 60.2298 87.8825 60.2301V60.2301Z" fill="#49DDAA"/>
</svg>
