<svg width="68" height="74" viewBox="0 0 68 74" fill="none" xmlns="http://www.w3.org/2000/svg">
<path d="M0.61618 21.9902C0.400783 22.0505 0.21821 22.1934 0.108513 22.3876C-0.00118413 22.5818 -0.0290492 22.8114 0.0310315 23.0261L14.1401 73.202C14.2007 73.4165 14.3442 73.5983 14.5392 73.7075C14.7343 73.8168 14.9648 73.8445 15.1804 73.7847L67.1935 59.2819C67.4089 59.2215 67.5914 59.0786 67.7011 58.8844C67.8108 58.6902 67.8387 58.4606 67.7786 58.246L53.6696 8.07001C53.609 7.85552 53.4654 7.67371 53.2704 7.56448C53.0754 7.45524 52.8448 7.42749 52.6293 7.48732L0.61618 21.9902Z" fill="#E6E6E6"/>
<path d="M15.8343 71.4154L65.3995 57.5951L51.9759 9.85669L2.41064 23.677L15.8343 71.4154Z" fill="white"/>
<path d="M8.96367 30.0514C8.63297 30.1436 8.49663 30.6906 8.65975 31.2707C8.82287 31.8508 9.22464 32.2477 9.55534 32.1555L32.1613 25.8523C32.492 25.7601 32.6283 25.2131 32.4652 24.633C32.3021 24.0529 31.9003 23.656 31.5696 23.7482L8.96367 30.0514Z" fill="#E6E6E6"/>
<path d="M10.7845 36.5258C10.4538 36.618 10.3174 37.165 10.4806 37.7451C10.6437 38.3252 11.0454 38.7221 11.3761 38.6299L33.9821 32.3267C34.3128 32.2345 34.4491 31.6875 34.286 31.1074C34.1229 30.5273 33.7211 30.1303 33.3904 30.2225L10.7845 36.5258Z" fill="#E6E6E6"/>
<path d="M12.5838 42.9254C12.2531 43.0176 12.1168 43.5646 12.2799 44.1447C12.443 44.7248 12.8448 45.1218 13.1755 45.0296L35.7814 38.7263C36.1121 38.6341 36.2485 38.0871 36.0853 37.507C35.9222 36.9269 35.5204 36.53 35.1898 36.6222L12.5838 42.9254Z" fill="#E6E6E6"/>
<path d="M14.4041 49.3997C14.0734 49.4919 13.9371 50.0389 14.1002 50.619C14.2633 51.199 14.6651 51.596 14.9958 51.5038L37.6017 45.2006C37.9324 45.1084 38.0688 44.5614 37.9056 43.9813C37.7425 43.4012 37.3408 43.0042 37.0101 43.0964L14.4041 49.3997Z" fill="#E6E6E6"/>
<path d="M43.0418 20.6241C42.9029 20.6627 42.773 20.7281 42.6595 20.8167C42.546 20.9053 42.4512 21.0152 42.3805 21.1403C42.3097 21.2654 42.2644 21.4032 42.2471 21.5458C42.2299 21.6883 42.241 21.8328 42.2799 21.9711C42.3188 22.1094 42.3846 22.2386 42.4737 22.3515C42.5628 22.4644 42.6734 22.5587 42.7991 22.6291C42.9248 22.6994 43.0632 22.7443 43.2064 22.7613C43.3495 22.7784 43.4947 22.7671 43.6335 22.7282L47.8595 21.5499C48.1397 21.4718 48.3773 21.286 48.5199 21.0334C48.6626 20.7809 48.6987 20.4823 48.6202 20.2032C48.5418 19.9242 48.3552 19.6876 48.1016 19.5456C47.848 19.4035 47.5481 19.3676 47.2679 19.4457L43.0418 20.6241Z" fill="#E6E6E6"/>
<path d="M44.8274 26.9729C44.6885 27.0114 44.5587 27.0768 44.4452 27.1654C44.3317 27.254 44.2369 27.364 44.1661 27.4891C44.0953 27.6142 44.05 27.752 44.0328 27.8945C44.0155 28.0371 44.0267 28.1816 44.0655 28.3199C44.1044 28.4581 44.1703 28.5874 44.2594 28.7003C44.3485 28.8132 44.459 28.9075 44.5847 28.9778C44.7104 29.0481 44.8488 29.0931 44.992 29.1101C45.1352 29.1271 45.2803 29.1159 45.4191 29.077L49.6452 27.8986C49.9254 27.8205 50.1629 27.6347 50.3056 27.3822C50.4483 27.1296 50.4843 26.831 50.4059 26.552C50.3274 26.2729 50.1408 26.0364 49.8872 25.8943C49.6336 25.7523 49.3337 25.7164 49.0535 25.7945L44.8274 26.9729Z" fill="#E6E6E6"/>
<path d="M46.6124 33.3216C46.4736 33.3603 46.3439 33.4258 46.2306 33.5144C46.1172 33.603 46.0226 33.713 45.9519 33.8381C45.8813 33.9631 45.8361 34.1008 45.8189 34.2432C45.8017 34.3857 45.8128 34.5301 45.8517 34.6683C45.8905 34.8064 45.9563 34.9356 46.0453 35.0485C46.1343 35.1613 46.2447 35.2556 46.3703 35.3259C46.4959 35.3963 46.6341 35.4413 46.7772 35.4584C46.9202 35.4755 47.0653 35.4644 47.204 35.4258L51.4301 34.2474C51.7103 34.1693 51.9479 33.9835 52.0905 33.7309C52.2332 33.4784 52.2692 33.1798 52.1908 32.9007C52.1123 32.6217 51.9258 32.3851 51.6721 32.2431C51.4185 32.101 51.1186 32.0651 50.8384 32.1433L46.6124 33.3216Z" fill="#E6E6E6"/>
<path d="M48.3978 39.6704C48.1179 39.7488 47.8807 39.9346 47.7383 40.1871C47.5958 40.4395 47.5599 40.7379 47.6383 41.0167C47.7167 41.2955 47.903 41.532 48.1564 41.6741C48.4097 41.8162 48.7094 41.8523 48.9894 41.7745L53.2155 40.5962C53.4954 40.5178 53.7326 40.332 53.875 40.0795C54.0174 39.8271 54.0534 39.5287 53.975 39.2499C53.8966 38.971 53.7102 38.7346 53.4569 38.5925C53.2036 38.4504 52.9039 38.4143 52.6238 38.492L48.3978 39.6704Z" fill="#E6E6E6"/>
<path d="M50.1032 50.675C49.9262 50.7241 49.7607 50.8075 49.6161 50.9204C49.4715 51.0332 49.3507 51.1734 49.2605 51.3328C49.1703 51.4922 49.1126 51.6677 49.0906 51.8494C49.0686 52.031 49.0828 52.2152 49.1323 52.3914C49.1819 52.5675 49.2658 52.7322 49.3793 52.8761C49.4928 53.02 49.6337 53.1401 49.7939 53.2297C49.9541 53.3193 50.1304 53.3766 50.3128 53.3983C50.4953 53.42 50.6802 53.4057 50.8571 53.3561L56.242 51.8546C56.599 51.7551 56.9017 51.5184 57.0835 51.1966C57.2653 50.8748 57.3112 50.4943 57.2113 50.1387C57.1113 49.7832 56.8736 49.4817 56.5504 49.3007C56.2272 49.1197 55.8451 49.074 55.4881 49.1735L50.1032 50.675Z" fill="#536DFE"/>
<path d="M55.6455 45.2603L15.7979 56.371L15.897 56.7237L55.7447 45.613L55.6455 45.2603Z" fill="#E6E6E6"/>
</svg>
