<svg width="28" height="29" viewBox="0 0 28 29" fill="none" xmlns="http://www.w3.org/2000/svg">
<path d="M18.258 25.8521C22.4586 21.9841 22.7281 15.4433 18.8601 11.2427C14.9921 7.04221 8.45129 6.77264 4.25076 10.6406C0.0502231 14.5087 -0.219343 21.0495 3.64866 25.25C7.51666 29.4506 14.0575 29.7201 18.258 25.8521Z" fill="#24B1FF" fill-opacity="0.116368"/>
<path d="M23.594 0.965942H22.1253V5.37198H23.594V0.965942Z" fill="#2A5082"/>
<path d="M11.8445 0.965942H10.3758V5.37198H11.8445V0.965942Z" fill="#2A5082"/>
<path d="M18.3067 21.5274H26.5313V9.77798H7.43847V10.6592C6.851 10.9529 6.41039 11.2467 5.96979 11.6873V2.43457H8.90715V6.84061H13.3132V2.43457H20.6566V6.84061H25.0626V2.43457H28V22.9961H17.2786C17.7192 22.5555 18.013 22.1149 18.3067 21.5274Z" fill="#2A5082"/>
<path d="M11.1102 15.9198C8.31968 15.9198 10.9099 13.1293 10.9099 15.9198C10.9099 18.7103 8.31968 15.9198 11.1102 15.9198C10.9099 15.9198 11.1102 18.7103 11.1102 15.9198ZM11.1102 11.2467C14.7819 11.2467 17.7192 14.1841 17.7192 17.8558C17.7192 21.5275 14.7819 24.4648 11.1102 24.4648C7.43847 24.4648 4.50111 21.5275 4.50111 17.8558C4.50111 14.1841 7.43847 11.2467 11.1102 11.2467Z" fill="#A3D4FF"/>
<path d="M7.43844 18.5901H11.8445V14.1841H10.3758V17.1214H7.43844V18.5901Z" fill="#2A5082"/>
</svg>
