<svg width="9" height="7" viewBox="0 0 9 7" fill="none" xmlns="http://www.w3.org/2000/svg">
<path d="M3.41568 2.06253L3.41565 2.06255L2.10576 3.08104L8.15626 3.08104C8.26987 3.08104 8.386 3.11574 8.47793 3.18724C8.57103 3.25965 8.63751 3.37018 8.63751 3.49979C8.63751 3.62939 8.57103 3.73993 8.47793 3.81234C8.38599 3.88384 8.26987 3.91854 8.15626 3.91854L2.10576 3.91854L3.41565 4.93702L3.41568 4.93704C3.46179 4.9729 3.50181 5.01816 3.53046 5.07196C3.55928 5.12607 3.57537 5.18669 3.57537 5.24979C3.57537 5.31289 3.55928 5.3735 3.53046 5.42762C3.50181 5.48141 3.46179 5.52667 3.41568 5.56253L3.29289 5.40466L3.41568 5.56253C3.36961 5.59836 3.31739 5.62494 3.26286 5.64251L3.20153 5.45214L3.26286 5.64251C3.20828 5.66009 3.15093 5.66881 3.09376 5.66881C3.0366 5.66881 2.97925 5.66009 2.92467 5.64251C2.87014 5.62494 2.81791 5.59836 2.77185 5.56253L2.89464 5.40466L2.77185 5.56253L0.522044 3.81268L3.41568 2.06253ZM3.41568 2.06253C3.46179 2.02667 3.50181 1.98141 3.53046 1.92762C3.55928 1.8735 3.57537 1.81289 3.57537 1.74979C3.57537 1.68669 3.55928 1.62607 3.53046 1.57196C3.50181 1.51816 3.46179 1.4729 3.41568 1.43704C3.36961 1.40122 3.31739 1.37464 3.26286 1.35707C3.20828 1.33949 3.15093 1.33076 3.09376 1.33076C3.0366 1.33076 2.97925 1.33949 2.92467 1.35707C2.87014 1.37464 2.81792 1.40122 2.77185 1.43704L2.89464 1.59491M3.41568 2.06253L2.89464 1.59491M2.89464 1.59491L2.77185 1.43704L0.522045 3.18689M2.89464 1.59491L0.522045 3.18689M0.522045 3.18689C0.522019 3.18691 0.521994 3.18693 0.521968 3.18695M0.522045 3.18689L0.521968 3.18695M0.521968 3.18695C0.475812 3.22278 0.435731 3.26801 0.407031 3.32181C0.378145 3.37595 0.362012 3.43662 0.362012 3.49979C0.362012 3.56295 0.378145 3.62363 0.407031 3.67777C0.435707 3.73152 0.475745 3.77672 0.521851 3.81253L0.521968 3.18695Z" fill="#156CE4" stroke="#156CE4" stroke-width="0.4"/>
</svg>
