<svg width="6" height="6" viewBox="0 0 6 6" fill="none" xmlns="http://www.w3.org/2000/svg">
<path d="M1.97266 1.10567C1.97266 1.16325 2.01934 1.20999 2.07685 1.20999L4.68166 1.20999V3.81792C4.68166 3.8755 4.72834 3.92224 4.78585 3.92224C4.84337 3.92224 4.89005 3.8755 4.89005 3.81792V1.10568C4.89005 1.0481 4.84337 1.00136 4.78585 1.00136L2.07685 1.00136C2.01934 1.00136 1.97266 1.04809 1.97266 1.10567Z" fill="#156CE4" stroke="#156CE4"/>
<path d="M4.7055 1.03294L1.03161 4.71119C0.989465 4.75339 0.989465 4.82198 1.03161 4.86417C1.07375 4.90636 1.14226 4.90636 1.1844 4.86417L4.8583 1.18591C4.87926 1.1647 4.88985 1.13701 4.88985 1.10931C4.88985 1.08162 4.87927 1.05393 4.8583 1.03293C4.81616 0.990751 4.74765 0.990751 4.7055 1.03294Z" fill="#156CE4" stroke="#156CE4"/>
</svg>
