<svg width="6" height="6" viewBox="0 0 6 6" fill="none" xmlns="http://www.w3.org/2000/svg">
<path d="M4.05962 4.70487C4.05575 4.6496 4.0077 4.60788 3.95237 4.61175L1.44629 4.78678L1.27104 2.28369C1.26717 2.22842 1.21912 2.1867 1.16379 2.19056C1.10845 2.19443 1.06668 2.24242 1.07055 2.29769L1.2528 4.9009C1.25667 4.95617 1.30472 4.99789 1.36006 4.99402L3.96639 4.81199C4.02172 4.80813 4.06349 4.76014 4.05962 4.70487Z" fill="#109CF1" stroke="#156CE4"/>
<path d="M1.43498 4.95828L4.72248 1.18103C4.76019 1.1377 4.75558 1.07187 4.7122 1.0342C4.66882 0.996541 4.6029 1.00114 4.56519 1.04447L1.2777 4.82173C1.25896 4.8435 1.25063 4.87078 1.25249 4.89737C1.25435 4.92395 1.2664 4.94982 1.28798 4.96856C1.33136 5.00621 1.39727 5.00161 1.43498 4.95828Z" fill="#109CF1" stroke="#156CE4"/>
</svg>
