<svg width="16" height="16" viewBox="0 0 16 16" fill="none" xmlns="http://www.w3.org/2000/svg">
<path d="M5.46886 3.53093C5.32797 3.39003 5.24881 3.19893 5.24881 2.99968C5.24881 2.80042 5.32797 2.60932 5.46886 2.46843C5.60976 2.32753 5.80085 2.24837 6.00011 2.24837C6.19937 2.24837 6.39047 2.32753 6.53136 2.46843L11.5314 7.46843C11.6013 7.5381 11.6568 7.6209 11.6946 7.71206C11.7325 7.80323 11.752 7.90097 11.752 7.99968C11.752 8.09839 11.7325 8.19613 11.6946 8.28729C11.6568 8.37845 11.6013 8.46125 11.5314 8.53093L6.53136 13.5309C6.39047 13.6718 6.19937 13.751 6.00011 13.751C5.80085 13.751 5.60976 13.6718 5.46886 13.5309C5.32797 13.39 5.24881 13.1989 5.24881 12.9997C5.24881 12.8004 5.32797 12.6093 5.46886 12.4684L9.93699 8.0003L5.46886 3.53093Z" fill="black"/>
</svg>
