<svg width="16" height="16" viewBox="0 0 16 16" fill="none" xmlns="http://www.w3.org/2000/svg">
<path d="M10.5311 12.4691C10.672 12.61 10.7512 12.8011 10.7512 13.0003C10.7512 13.1996 10.672 13.3907 10.5311 13.5316C10.3902 13.6725 10.1991 13.7516 9.99989 13.7516C9.80063 13.7516 9.60953 13.6725 9.46864 13.5316L4.46864 8.53157C4.39872 8.4619 4.34324 8.3791 4.30539 8.28794C4.26753 8.19677 4.24805 8.09903 4.24805 8.00032C4.24805 7.90161 4.26753 7.80387 4.30539 7.71271C4.34324 7.62155 4.39872 7.53875 4.46864 7.46907L9.46864 2.46907C9.60953 2.32818 9.80063 2.24902 9.99989 2.24902C10.1991 2.24902 10.3902 2.32818 10.5311 2.46907C10.672 2.60997 10.7512 2.80107 10.7512 3.00032C10.7512 3.19958 10.672 3.39068 10.5311 3.53157L6.06301 7.9997L10.5311 12.4691Z" fill="black"/>
</svg>
