<svg width="359" height="202" viewBox="0 0 359 202" fill="none" xmlns="http://www.w3.org/2000/svg">
<rect width="359" height="202" rx="4" fill="white"/>
<mask id="path-2-inside-1_11588_120330" fill="white">
<path d="M0 4C0 1.79086 1.79086 0 4 0H355C357.209 0 359 1.79086 359 4V166H0V4Z"/>
</mask>
<path d="M-1.5 4C-1.5 0.962434 0.962434 -1.5 4 -1.5H355C358.038 -1.5 360.5 0.962434 360.5 4H357.5C357.5 2.61929 356.381 1.5 355 1.5H4C2.61929 1.5 1.5 2.61929 1.5 4H-1.5ZM359 166H0H359ZM-1.5 166V4C-1.5 0.962434 0.962434 -1.5 4 -1.5V1.5C2.61929 1.5 1.5 2.61929 1.5 4V166H-1.5ZM355 -1.5C358.038 -1.5 360.5 0.962434 360.5 4V166H357.5V4C357.5 2.61929 356.381 1.5 355 1.5V-1.5Z" fill="#EEEEEE" mask="url(#path-2-inside-1_11588_120330)"/>
<rect x="16" y="12" width="58" height="18" rx="4" fill="#EEEEEE"/>
<rect x="179.5" y="12" width="74.25" height="18" rx="4" fill="#EEEEEE"/>
<rect x="268.75" y="12" width="74.25" height="18" rx="4" fill="#EEEEEE"/>
<rect x="16" y="46" width="36" height="36" rx="18" fill="#EEEEEE"/>
<rect x="60" y="61.5" width="283" height="5" fill="#EEEEEE"/>
<rect x="16" y="90" width="143" height="18" rx="4" fill="#EEEEEE"/>
<rect x="200" y="90" width="143" height="18" rx="4" fill="#EEEEEE"/>
<rect x="16" y="116" width="159.5" height="18" rx="4" fill="#EEEEEE"/>
<rect x="183.5" y="116" width="159.5" height="18" rx="4" fill="#EEEEEE"/>
<rect x="16" y="140" width="143" height="18" rx="4" fill="#EEEEEE"/>
<rect x="200" y="140" width="143" height="18" rx="4" fill="#EEEEEE"/>
<mask id="path-15-inside-2_11588_120330" fill="white">
<path d="M0 166H359V198C359 200.209 357.209 202 355 202H4C1.79087 202 0 200.209 0 198V166Z"/>
</mask>
<path d="M0 166H359V198C359 200.209 357.209 202 355 202H4C1.79087 202 0 200.209 0 198V166Z" fill="white"/>
<path d="M0 166V165H-1V166H0ZM359 166H360V165H359V166ZM0 167H359V165H0V167ZM358 166V198H360V166H358ZM355 201H4V203H355V201ZM1 198V166H-1V198H1ZM4 201C2.34315 201 1 199.657 1 198H-1C-1 200.761 1.23858 203 4 203V201ZM358 198C358 199.657 356.657 201 355 201V203C357.761 203 360 200.761 360 198H358Z" fill="#EEEEEE" mask="url(#path-15-inside-2_11588_120330)"/>
<rect x="12" y="175" width="260" height="18" rx="4" fill="#EEEEEE"/>
<rect x="327" y="174" width="20" height="20" rx="4" fill="#EEEEEE"/>
</svg>
