<svg width="721" height="202" viewBox="0 0 721 202" fill="none" xmlns="http://www.w3.org/2000/svg">
<rect width="721" height="202" rx="4" fill="white"/>
<mask id="path-2-inside-1_11588_115328" fill="white">
<path d="M0 4C0 1.79086 1.79086 0 4 0H717C719.209 0 721 1.79086 721 4V166H0V4Z"/>
</mask>
<path d="M-1.5 4C-1.5 0.962434 0.962434 -1.5 4 -1.5H717C720.038 -1.5 722.5 0.962434 722.5 4H719.5C719.5 2.61929 718.381 1.5 717 1.5H4C2.61929 1.5 1.5 2.61929 1.5 4H-1.5ZM721 166H0H721ZM-1.5 166V4C-1.5 0.962434 0.962434 -1.5 4 -1.5V1.5C2.61929 1.5 1.5 2.61929 1.5 4V166H-1.5ZM717 -1.5C720.038 -1.5 722.5 0.962434 722.5 4V166H719.5V4C719.5 2.61929 718.381 1.5 717 1.5V-1.5Z" fill="#EEEEEE" mask="url(#path-2-inside-1_11588_115328)"/>
<rect x="16" y="12" width="58" height="18" rx="4" fill="#EEEEEE"/>
<rect x="360.5" y="12" width="143" height="18" rx="4" fill="#EEEEEE"/>
<rect x="518.5" y="12" width="186.5" height="18" rx="4" fill="#EEEEEE"/>
<rect x="16" y="46" width="36" height="36" rx="18" fill="#EEEEEE"/>
<rect x="60" y="61.5" width="369" height="5" fill="#EEEEEE"/>
<rect x="16" y="90" width="143" height="18" rx="4" fill="#EEEEEE"/>
<rect x="286" y="90" width="143" height="18" rx="4" fill="#EEEEEE"/>
<rect x="16" y="116" width="206.5" height="18" rx="4" fill="#EEEEEE"/>
<rect x="222.5" y="116" width="206.5" height="18" rx="4" fill="#EEEEEE"/>
<rect x="16" y="140" width="143" height="18" rx="4" fill="#EEEEEE"/>
<rect x="286" y="140" width="143" height="18" rx="4" fill="#EEEEEE"/>
<mask id="path-15-inside-2_11588_115328" fill="white">
<path d="M445 38H705V158H445V38Z"/>
</mask>
<path d="M446 158V38H444V158H446Z" fill="#EEEEEE" mask="url(#path-15-inside-2_11588_115328)"/>
<rect x="461" y="63" width="100" height="18" rx="4" fill="#EEEEEE"/>
<rect x="461" y="89" width="244" height="18" rx="4" fill="#EEEEEE"/>
<rect x="461" y="115" width="143" height="18" rx="4" fill="#EEEEEE"/>
<mask id="path-21-inside-3_11588_115328" fill="white">
<path d="M0 166H721V198C721 200.209 719.209 202 717 202H3.99998C1.79084 202 0 200.209 0 198V166Z"/>
</mask>
<path d="M0 166H721V198C721 200.209 719.209 202 717 202H3.99998C1.79084 202 0 200.209 0 198V166Z" fill="white"/>
<path d="M0 166V165H-1V166H0ZM721 166H722V165H721V166ZM0 167H721V165H0V167ZM720 166V198H722V166H720ZM717 201H3.99998V203H717V201ZM1 198V166H-1V198H1ZM3.99998 201C2.34313 201 1 199.657 1 198H-1C-1 200.761 1.23855 203 3.99998 203V201ZM720 198C720 199.657 718.657 201 717 201V203C719.761 203 722 200.761 722 198H720Z" fill="#EEEEEE" mask="url(#path-21-inside-3_11588_115328)"/>
<rect x="12" y="175" width="360" height="18" rx="4" fill="#EEEEEE"/>
<rect x="689" y="174" width="20" height="20" rx="4" fill="#EEEEEE"/>
</svg>
