<svg width="1113" height="202" viewBox="0 0 1113 202" fill="none" xmlns="http://www.w3.org/2000/svg">
<rect width="1113" height="202" rx="4" fill="white"/>
<mask id="path-2-inside-1_11588_114207" fill="white">
<path d="M0 4C0 1.79086 1.79086 0 4 0H1109C1111.21 0 1113 1.79086 1113 4V166H0V4Z"/>
</mask>
<path d="M-1.5 4C-1.5 0.962434 0.962434 -1.5 4 -1.5H1109C1112.04 -1.5 1114.5 0.962434 1114.5 4H1111.5C1111.5 2.61929 1110.38 1.5 1109 1.5H4C2.61929 1.5 1.5 2.61929 1.5 4H-1.5ZM1113 166H0H1113ZM-1.5 166V4C-1.5 0.962434 0.962434 -1.5 4 -1.5V1.5C2.61929 1.5 1.5 2.61929 1.5 4V166H-1.5ZM1109 -1.5C1112.04 -1.5 1114.5 0.962434 1114.5 4V166H1111.5V4C1111.5 2.61929 1110.38 1.5 1109 1.5V-1.5Z" fill="#EEEEEE" mask="url(#path-2-inside-1_11588_114207)"/>
<rect x="16" y="12" width="58" height="18" rx="4" fill="#EEEEEE"/>
<rect x="683" y="12" width="143" height="18" rx="4" fill="#EEEEEE"/>
<rect x="841" y="12" width="256" height="18" rx="4" fill="#EEEEEE"/>
<rect x="16" y="46" width="36" height="36" rx="18" fill="#EEEEEE"/>
<rect x="60" y="61.5" width="761" height="5" fill="#EEEEEE"/>
<rect x="16" y="90" width="143" height="18" rx="4" fill="#EEEEEE"/>
<rect x="678" y="90" width="143" height="18" rx="4" fill="#EEEEEE"/>
<rect x="16" y="116" width="260" height="18" rx="4" fill="#EEEEEE"/>
<rect x="561" y="116" width="260" height="18" rx="4" fill="#EEEEEE"/>
<rect x="16" y="140" width="143" height="18" rx="4" fill="#EEEEEE"/>
<rect x="678" y="140" width="143" height="18" rx="4" fill="#EEEEEE"/>
<mask id="path-15-inside-2_11588_114207" fill="white">
<path d="M837 38H1097V158H837V38Z"/>
</mask>
<path d="M838 158V38H836V158H838Z" fill="#EEEEEE" mask="url(#path-15-inside-2_11588_114207)"/>
<rect x="853" y="63" width="100" height="18" rx="4" fill="#EEEEEE"/>
<rect x="853" y="89" width="244" height="18" rx="4" fill="#EEEEEE"/>
<rect x="853" y="115" width="143" height="18" rx="4" fill="#EEEEEE"/>
<mask id="path-21-inside-3_11588_114207" fill="white">
<path d="M0 166H1113V198C1113 200.209 1111.21 202 1109 202H3.99997C1.79083 202 0 200.209 0 198V166Z"/>
</mask>
<path d="M0 166H1113V198C1113 200.209 1111.21 202 1109 202H3.99997C1.79083 202 0 200.209 0 198V166Z" fill="white"/>
<path d="M0 166V165H-1V166H0ZM1113 166H1114V165H1113V166ZM0 167H1113V165H0V167ZM1112 166V198H1114V166H1112ZM1109 201H3.99997V203H1109V201ZM1 198V166H-1V198H1ZM3.99997 201C2.34312 201 1 199.657 1 198H-1C-1 200.761 1.23853 203 3.99997 203V201ZM1112 198C1112 199.657 1110.66 201 1109 201V203C1111.76 203 1114 200.761 1114 198H1112Z" fill="#EEEEEE" mask="url(#path-21-inside-3_11588_114207)"/>
<rect x="12" y="175" width="360" height="18" rx="4" fill="#EEEEEE"/>
<rect x="1081" y="174" width="20" height="20" rx="4" fill="#EEEEEE"/>
</svg>
