<svg width="80" height="80" viewBox="0 0 80 80" fill="none" xmlns="http://www.w3.org/2000/svg">
<g clip-path="url(#clip0_7632_102132)">
<path d="M80 40C80 52.6752 74.1044 63.9735 64.9053 71.3018C58.0726 76.7469 49.4159 80 40 80C30.5841 80 21.9274 76.7469 15.0947 71.3018C5.89558 63.9735 0 52.6752 0 40C0 17.9088 17.9088 0 40 0C62.0912 0 80 17.9088 80 40Z" fill="#DDDDDD"/>
<path d="M55.5515 32.4885C55.5515 42.5628 48.5887 45.9292 39.9984 45.9292C31.4081 45.9292 24.4453 42.5628 24.4453 32.4885C24.4453 22.4142 31.4081 14.2478 39.9984 14.2478C48.5887 14.2478 55.5515 22.4142 55.5515 32.4885Z" fill="#929292"/>
<path d="M64.9044 71.3017C58.0716 76.7468 49.415 79.9999 39.9991 79.9999C30.5831 79.9999 21.9265 76.7468 15.0938 71.3017C15.0938 58.23 28.2548 52.8318 39.9991 52.8318C51.7433 52.8318 64.9044 59.6459 64.9044 71.3017Z" fill="#929292"/>
</g>
<defs>
<clipPath id="clip0_7632_102132">
<rect width="80" height="80" fill="white"/>
</clipPath>
</defs>
</svg>
