<svg width="17" height="11" viewBox="0 0 17 11" fill="none" xmlns="http://www.w3.org/2000/svg">
<rect width="17" height="11" rx="2" fill="#109CF1" fill-opacity="0.332195"/>
<path d="M11.8459 3.4798C11.7472 3.37268 11.6134 3.3125 11.4739 3.3125C11.3343 3.3125 11.2005 3.37268 11.1018 3.4798L8.49682 6.30825L5.89185 3.4798C5.7926 3.37571 5.65967 3.31812 5.52168 3.31942C5.3837 3.32072 5.25171 3.38082 5.15414 3.48676C5.05656 3.5927 5.00122 3.73602 5.00002 3.88584C4.99882 4.03566 5.05186 4.18 5.14773 4.28777L8.12476 7.5202C8.22345 7.62732 8.35728 7.6875 8.49682 7.6875C8.63637 7.6875 8.7702 7.62732 8.86889 7.5202L11.8459 4.28777C11.9446 4.18061 12 4.0353 12 3.88378C12 3.73227 11.9446 3.58695 11.8459 3.4798Z" fill="white"/>
</svg>
