<svg width="17" height="11" viewBox="0 0 17 11" fill="none" xmlns="http://www.w3.org/2000/svg">
<rect width="17" height="11" rx="2" fill="#109CF1" fill-opacity="0.332195"/>
<path d="M5.15408 7.5202C5.25277 7.62732 5.3866 7.6875 5.52614 7.6875C5.66569 7.6875 5.79952 7.62732 5.89821 7.5202L8.50318 4.69175L11.1081 7.5202C11.2074 7.62429 11.3403 7.68188 11.4783 7.68058C11.6163 7.67928 11.7483 7.61918 11.8459 7.51324C11.9434 7.4073 11.9988 7.26398 12 7.11416C12.0012 6.96434 11.9481 6.82 11.8523 6.71223L8.87524 3.4798C8.77655 3.37268 8.64272 3.3125 8.50318 3.3125C8.36363 3.3125 8.2298 3.37268 8.13111 3.4798L5.15408 6.71223C5.05542 6.81939 5 6.9647 5 7.11622C5 7.26773 5.05542 7.41305 5.15408 7.5202V7.5202Z" fill="white"/>
</svg>
