<svg width="332" height="337" viewBox="0 0 332 337" fill="none" xmlns="http://www.w3.org/2000/svg">
<path d="M132.125 20.4844V24H116.562V21L123.922 13.1094C124.661 12.2865 125.245 11.5625 125.672 10.9375C126.099 10.3021 126.406 9.73438 126.594 9.23438C126.792 8.72396 126.891 8.23958 126.891 7.78125C126.891 7.09375 126.776 6.50521 126.547 6.01562C126.318 5.51562 125.979 5.13021 125.531 4.85938C125.094 4.58854 124.552 4.45312 123.906 4.45312C123.219 4.45312 122.625 4.61979 122.125 4.95312C121.635 5.28646 121.26 5.75 121 6.34375C120.75 6.9375 120.625 7.60938 120.625 8.35938H116.109C116.109 7.00521 116.432 5.76562 117.078 4.64062C117.724 3.50521 118.635 2.60417 119.812 1.9375C120.99 1.26042 122.385 0.921875 124 0.921875C125.594 0.921875 126.938 1.18229 128.031 1.70312C129.135 2.21354 129.969 2.95312 130.531 3.92188C131.104 4.88021 131.391 6.02604 131.391 7.35938C131.391 8.10938 131.271 8.84375 131.031 9.5625C130.792 10.2708 130.448 10.9792 130 11.6875C129.562 12.3854 129.031 13.0938 128.406 13.8125C127.781 14.5312 127.089 15.276 126.328 16.0469L122.375 20.4844H132.125ZM153.236 1.01562H153.892V4.60938H153.626C152.439 4.60938 151.381 4.78646 150.454 5.14062C149.527 5.49479 148.741 6 148.095 6.65625C147.46 7.30208 146.97 8.08333 146.626 9C146.293 9.91667 146.126 10.9427 146.126 12.0781V15.8594C146.126 16.6719 146.204 17.3906 146.361 18.0156C146.527 18.6302 146.762 19.1458 147.064 19.5625C147.376 19.9688 147.741 20.276 148.157 20.4844C148.574 20.6823 149.043 20.7812 149.564 20.7812C150.053 20.7812 150.496 20.6771 150.892 20.4688C151.298 20.2604 151.642 19.9688 151.923 19.5938C152.215 19.2083 152.434 18.7604 152.579 18.25C152.736 17.7292 152.814 17.1615 152.814 16.5469C152.814 15.9323 152.736 15.3646 152.579 14.8438C152.434 14.3229 152.215 13.875 151.923 13.5C151.631 13.1146 151.277 12.8177 150.861 12.6094C150.444 12.401 149.975 12.2969 149.454 12.2969C148.746 12.2969 148.121 12.4635 147.579 12.7969C147.048 13.1198 146.631 13.5365 146.329 14.0469C146.027 14.5573 145.866 15.0938 145.845 15.6562L144.486 14.7812C144.517 13.9792 144.684 13.2188 144.986 12.5C145.298 11.7812 145.725 11.1458 146.267 10.5938C146.819 10.0312 147.48 9.59375 148.251 9.28125C149.022 8.95833 149.892 8.79688 150.861 8.79688C151.923 8.79688 152.855 9 153.657 9.40625C154.47 9.8125 155.147 10.3698 155.689 11.0781C156.23 11.7865 156.637 12.6042 156.907 13.5312C157.178 14.4583 157.314 15.4479 157.314 16.5C157.314 17.6042 157.131 18.6302 156.767 19.5781C156.413 20.526 155.897 21.3542 155.22 22.0625C154.553 22.7708 153.751 23.3229 152.814 23.7188C151.876 24.1146 150.824 24.3125 149.657 24.3125C148.449 24.3125 147.35 24.0938 146.361 23.6562C145.381 23.2083 144.538 22.5833 143.829 21.7812C143.121 20.9792 142.574 20.026 142.189 18.9219C141.814 17.8177 141.626 16.6094 141.626 15.2969V13.5469C141.626 11.7135 141.892 10.0365 142.423 8.51562C142.965 6.98438 143.741 5.66146 144.751 4.54688C145.762 3.42188 146.98 2.55208 148.407 1.9375C149.835 1.32292 151.444 1.01562 153.236 1.01562ZM163.596 13.6406L160.002 12.7812L161.299 1.25H174.08V4.89062H165.002L164.439 9.9375C164.741 9.76042 165.2 9.57292 165.814 9.375C166.429 9.16667 167.116 9.0625 167.877 9.0625C168.981 9.0625 169.96 9.23438 170.814 9.57812C171.669 9.92188 172.393 10.4219 172.986 11.0781C173.59 11.7344 174.049 12.5365 174.361 13.4844C174.674 14.4323 174.83 15.5052 174.83 16.7031C174.83 17.7135 174.674 18.6771 174.361 19.5938C174.049 20.5 173.575 21.3125 172.939 22.0312C172.304 22.7396 171.507 23.2969 170.549 23.7031C169.59 24.1094 168.455 24.3125 167.143 24.3125C166.163 24.3125 165.215 24.1667 164.299 23.875C163.393 23.5833 162.575 23.151 161.846 22.5781C161.127 22.0052 160.549 21.3125 160.111 20.5C159.684 19.6771 159.46 18.7396 159.439 17.6875H163.908C163.971 18.3333 164.137 18.8906 164.408 19.3594C164.689 19.8177 165.059 20.1719 165.518 20.4219C165.976 20.6719 166.512 20.7969 167.127 20.7969C167.7 20.7969 168.189 20.6875 168.596 20.4688C169.002 20.25 169.33 19.9479 169.58 19.5625C169.83 19.1667 170.012 18.7083 170.127 18.1875C170.252 17.6562 170.314 17.0833 170.314 16.4688C170.314 15.8542 170.241 15.2969 170.096 14.7969C169.95 14.2969 169.726 13.8646 169.424 13.5C169.122 13.1354 168.736 12.8542 168.268 12.6562C167.809 12.4583 167.273 12.3594 166.658 12.3594C165.825 12.3594 165.179 12.4896 164.721 12.75C164.273 13.0104 163.898 13.3073 163.596 13.6406ZM180.284 20.5781H180.581C181.831 20.5781 182.904 20.4271 183.799 20.125C184.706 19.8125 185.45 19.3646 186.034 18.7812C186.617 18.1979 187.049 17.4844 187.331 16.6406C187.612 15.7865 187.752 14.8177 187.752 13.7344V9.42188C187.752 8.59896 187.669 7.875 187.502 7.25C187.346 6.625 187.117 6.10938 186.815 5.70312C186.523 5.28646 186.18 4.97396 185.784 4.76562C185.398 4.55729 184.971 4.45312 184.502 4.45312C184.002 4.45312 183.56 4.57812 183.174 4.82812C182.789 5.06771 182.461 5.39583 182.19 5.8125C181.93 6.22917 181.726 6.70833 181.581 7.25C181.445 7.78125 181.377 8.33854 181.377 8.92188C181.377 9.50521 181.445 10.0625 181.581 10.5938C181.716 11.1146 181.919 11.5781 182.19 11.9844C182.461 12.3802 182.799 12.6979 183.206 12.9375C183.612 13.1667 184.091 13.2812 184.643 13.2812C185.174 13.2812 185.648 13.1823 186.065 12.9844C186.492 12.776 186.851 12.5052 187.143 12.1719C187.445 11.8385 187.674 11.4688 187.831 11.0625C187.997 10.6562 188.081 10.2448 188.081 9.82812L189.565 10.6406C189.565 11.3698 189.409 12.0885 189.096 12.7969C188.784 13.5052 188.346 14.151 187.784 14.7344C187.232 15.3073 186.591 15.7656 185.862 16.1094C185.133 16.4531 184.351 16.625 183.518 16.625C182.456 16.625 181.513 16.4323 180.69 16.0469C179.867 15.651 179.169 15.1094 178.596 14.4219C178.034 13.724 177.607 12.9115 177.315 11.9844C177.023 11.0573 176.877 10.0521 176.877 8.96875C176.877 7.86458 177.055 6.82812 177.409 5.85938C177.773 4.89062 178.289 4.03646 178.956 3.29688C179.633 2.55729 180.44 1.97917 181.377 1.5625C182.325 1.13542 183.377 0.921875 184.534 0.921875C185.69 0.921875 186.742 1.14583 187.69 1.59375C188.638 2.04167 189.45 2.67708 190.127 3.5C190.805 4.3125 191.325 5.28646 191.69 6.42188C192.065 7.55729 192.252 8.81771 192.252 10.2031V11.7656C192.252 13.2448 192.091 14.6198 191.768 15.8906C191.456 17.1615 190.982 18.3125 190.346 19.3438C189.721 20.3646 188.94 21.2396 188.002 21.9688C187.075 22.6979 185.997 23.2552 184.768 23.6406C183.539 24.026 182.164 24.2188 180.643 24.2188H180.284V20.5781Z" fill="black"/>
<path d="M215.354 13.8538L209.354 19.8538C209.308 19.9002 209.253 19.9371 209.192 19.9623C209.131 19.9874 209.066 20.0004 209 20.0004C208.935 20.0004 208.87 19.9874 208.809 19.9623C208.748 19.9371 208.693 19.9002 208.647 19.8538L202.647 13.8538C202.577 13.7838 202.529 13.6947 202.51 13.5977C202.49 13.5006 202.5 13.4 202.538 13.3086C202.576 13.2172 202.64 13.1391 202.722 13.0841C202.805 13.0292 202.901 12.9999 203 13H205.5V8C205.5 7.73478 205.606 7.48043 205.793 7.29289C205.981 7.10536 206.235 7 206.5 7H211.5C211.766 7 212.02 7.10536 212.208 7.29289C212.395 7.48043 212.5 7.73478 212.5 8V13H215C215.099 12.9999 215.196 13.0292 215.278 13.0841C215.361 13.1391 215.425 13.2172 215.463 13.3086C215.501 13.4 215.51 13.5006 215.491 13.5977C215.472 13.6947 215.424 13.7838 215.354 13.8538Z" fill="#EA0000"/>
<path d="M71.6038 48V37.9785H78.8499V39.1611H72.93V42.2305H78.4739V43.4062H72.93V46.8174H79.0823V48H71.6038ZM85.2144 47.1045C84.7587 47.4919 84.3189 47.7653 83.8951 47.9248C83.4758 48.0843 83.0247 48.1641 82.5416 48.1641C81.7441 48.1641 81.1311 47.9704 80.7027 47.583C80.2743 47.1911 80.0601 46.6921 80.0601 46.0859C80.0601 45.7305 80.1399 45.4069 80.2994 45.1152C80.4635 44.819 80.6754 44.582 80.9351 44.4043C81.1995 44.2266 81.4957 44.0921 81.8238 44.001C82.0654 43.9372 82.4299 43.8757 82.9176 43.8164C83.9111 43.6979 84.6425 43.5566 85.1119 43.3926C85.1165 43.224 85.1187 43.1169 85.1187 43.0713C85.1187 42.57 85.0025 42.2168 84.7701 42.0117C84.4557 41.7337 83.9885 41.5947 83.3687 41.5947C82.79 41.5947 82.3616 41.6973 82.0836 41.9023C81.8101 42.1029 81.6073 42.4606 81.4752 42.9756L80.2721 42.8115C80.3814 42.2965 80.5615 41.8818 80.8121 41.5674C81.0628 41.2484 81.4251 41.0046 81.899 40.8359C82.373 40.6628 82.9221 40.5762 83.5465 40.5762C84.1663 40.5762 84.6698 40.6491 85.0572 40.7949C85.4446 40.9408 85.7294 41.1253 85.9117 41.3486C86.094 41.5674 86.2216 41.8454 86.2945 42.1826C86.3355 42.3923 86.356 42.7705 86.356 43.3174V44.958C86.356 46.1019 86.3811 46.8265 86.4312 47.1318C86.4859 47.4326 86.5907 47.722 86.7457 48H85.4605C85.3329 47.7448 85.2509 47.4463 85.2144 47.1045ZM85.1119 44.3564C84.6653 44.5387 83.9954 44.6937 83.1021 44.8213C82.5963 44.8942 82.2385 44.9762 82.0289 45.0674C81.8193 45.1585 81.6575 45.293 81.5435 45.4707C81.4296 45.6439 81.3726 45.8376 81.3726 46.0518C81.3726 46.3799 81.4957 46.6533 81.7418 46.8721C81.9924 47.0908 82.357 47.2002 82.8355 47.2002C83.3095 47.2002 83.731 47.0977 84.1002 46.8926C84.4693 46.6829 84.7405 46.3981 84.9137 46.0381C85.0458 45.7601 85.1119 45.3499 85.1119 44.8076V44.3564ZM87.9764 48V40.7402H89.0839V41.8408C89.3664 41.3258 89.6262 40.9863 89.8632 40.8223C90.1047 40.6582 90.369 40.5762 90.6561 40.5762C91.0708 40.5762 91.4924 40.7083 91.9208 40.9727L91.4969 42.1143C91.1962 41.9365 90.8954 41.8477 90.5946 41.8477C90.3257 41.8477 90.0842 41.9297 89.87 42.0938C89.6558 42.2533 89.5031 42.4766 89.412 42.7637C89.2753 43.2012 89.2069 43.6797 89.2069 44.1992V48H87.9764ZM92.3722 48V40.7402H93.4796V41.7725C94.0128 40.9749 94.783 40.5762 95.7902 40.5762C96.2277 40.5762 96.6287 40.6559 96.9933 40.8154C97.3625 40.9704 97.6382 41.1755 97.8205 41.4307C98.0028 41.6859 98.1304 41.9889 98.2033 42.3398C98.2488 42.5677 98.2716 42.9665 98.2716 43.5361V48H97.0412V43.584C97.0412 43.0827 96.9933 42.709 96.8976 42.4629C96.8019 42.2122 96.631 42.014 96.3849 41.8682C96.1434 41.7178 95.8585 41.6426 95.5304 41.6426C95.0063 41.6426 94.5529 41.8089 94.1701 42.1416C93.7918 42.4743 93.6027 43.1055 93.6027 44.0352V48H92.3722ZM99.892 39.3936V37.9785H101.122V39.3936H99.892ZM99.892 48V40.7402H101.122V48H99.892ZM102.722 48V40.7402H103.83V41.7725C104.363 40.9749 105.133 40.5762 106.14 40.5762C106.578 40.5762 106.979 40.6559 107.343 40.8154C107.713 40.9704 107.988 41.1755 108.171 41.4307C108.353 41.6859 108.481 41.9889 108.553 42.3398C108.599 42.5677 108.622 42.9665 108.622 43.5361V48H107.391V43.584C107.391 43.0827 107.343 42.709 107.248 42.4629C107.152 42.2122 106.981 42.014 106.735 41.8682C106.494 41.7178 106.209 41.6426 105.881 41.6426C105.356 41.6426 104.903 41.8089 104.52 42.1416C104.142 42.4743 103.953 43.1055 103.953 44.0352V48H102.722ZM110.01 48.6016L111.206 48.7793C111.256 49.1484 111.395 49.4173 111.623 49.5859C111.928 49.8138 112.345 49.9277 112.874 49.9277C113.444 49.9277 113.883 49.8138 114.193 49.5859C114.503 49.3581 114.713 49.0391 114.822 48.6289C114.886 48.3783 114.916 47.8519 114.911 47.0498C114.373 47.6833 113.703 48 112.901 48C111.903 48 111.131 47.64 110.584 46.9199C110.037 46.1999 109.764 45.3363 109.764 44.3291C109.764 43.6364 109.889 42.9984 110.14 42.415C110.39 41.8271 110.753 41.3737 111.227 41.0547C111.705 40.7357 112.266 40.5762 112.908 40.5762C113.765 40.5762 114.471 40.9225 115.027 41.6152V40.7402H116.162V47.0156C116.162 48.1458 116.046 48.9456 115.813 49.415C115.586 49.889 115.221 50.2627 114.72 50.5361C114.223 50.8096 113.61 50.9463 112.881 50.9463C112.015 50.9463 111.315 50.7503 110.782 50.3584C110.249 49.971 109.992 49.3854 110.01 48.6016ZM111.028 44.2402C111.028 45.1927 111.217 45.8877 111.596 46.3252C111.974 46.7627 112.448 46.9814 113.018 46.9814C113.583 46.9814 114.057 46.765 114.439 46.332C114.822 45.8945 115.014 45.2109 115.014 44.2812C115.014 43.3926 114.815 42.7227 114.419 42.2715C114.027 41.8203 113.553 41.5947 112.997 41.5947C112.45 41.5947 111.985 41.818 111.603 42.2646C111.22 42.7067 111.028 43.3652 111.028 44.2402ZM117.256 45.833L118.473 45.6416C118.541 46.1292 118.73 46.5029 119.04 46.7627C119.355 47.0225 119.792 47.1523 120.353 47.1523C120.918 47.1523 121.337 47.0384 121.611 46.8105C121.884 46.5781 122.021 46.307 122.021 45.9971C122.021 45.7191 121.9 45.5003 121.658 45.3408C121.49 45.2314 121.071 45.0924 120.401 44.9238C119.498 44.696 118.872 44.5 118.521 44.3359C118.174 44.1673 117.91 43.9372 117.728 43.6455C117.55 43.3493 117.461 43.0234 117.461 42.668C117.461 42.3444 117.534 42.0459 117.68 41.7725C117.83 41.4945 118.033 41.2643 118.288 41.082C118.48 40.9408 118.74 40.8223 119.068 40.7266C119.4 40.6263 119.756 40.5762 120.134 40.5762C120.704 40.5762 121.203 40.6582 121.631 40.8223C122.064 40.9863 122.383 41.2096 122.588 41.4922C122.793 41.7702 122.935 42.1439 123.012 42.6133L121.809 42.7773C121.754 42.4036 121.595 42.112 121.33 41.9023C121.071 41.6927 120.701 41.5879 120.223 41.5879C119.658 41.5879 119.254 41.6813 119.013 41.8682C118.771 42.055 118.651 42.2738 118.651 42.5244C118.651 42.6839 118.701 42.8275 118.801 42.9551C118.901 43.0872 119.059 43.1966 119.273 43.2832C119.396 43.3288 119.758 43.4336 120.36 43.5977C121.23 43.8301 121.836 44.0215 122.178 44.1719C122.524 44.3177 122.796 44.5319 122.991 44.8145C123.187 45.097 123.285 45.4479 123.285 45.8672C123.285 46.2773 123.165 46.6647 122.923 47.0293C122.686 47.3893 122.342 47.6696 121.891 47.8701C121.44 48.0661 120.929 48.1641 120.36 48.1641C119.416 48.1641 118.696 47.9681 118.199 47.5762C117.707 47.1842 117.393 46.6032 117.256 45.833ZM132.822 45.3408L134.032 45.498C133.9 46.332 133.56 46.986 133.014 47.46C132.471 47.9294 131.804 48.1641 131.011 48.1641C130.017 48.1641 129.217 47.8405 128.611 47.1934C128.01 46.5417 127.709 45.6097 127.709 44.3975C127.709 43.6136 127.839 42.9277 128.098 42.3398C128.358 41.752 128.752 41.3122 129.281 41.0205C129.814 40.7243 130.393 40.5762 131.017 40.5762C131.806 40.5762 132.451 40.7767 132.952 41.1777C133.453 41.5742 133.775 42.1393 133.916 42.873L132.72 43.0576C132.606 42.57 132.403 42.2031 132.111 41.957C131.824 41.7109 131.475 41.5879 131.065 41.5879C130.445 41.5879 129.942 41.8112 129.555 42.2578C129.167 42.6999 128.973 43.4017 128.973 44.3633C128.973 45.3385 129.16 46.0472 129.534 46.4893C129.908 46.9313 130.395 47.1523 130.997 47.1523C131.48 47.1523 131.883 47.0042 132.207 46.708C132.53 46.4118 132.736 45.9561 132.822 45.3408ZM134.805 48V37.9785H136.035V41.5742C136.609 40.9089 137.334 40.5762 138.209 40.5762C138.747 40.5762 139.214 40.6833 139.61 40.8975C140.007 41.1071 140.289 41.3988 140.458 41.7725C140.631 42.1462 140.718 42.6885 140.718 43.3994V48H139.487V43.3994C139.487 42.7842 139.353 42.3376 139.084 42.0596C138.82 41.777 138.444 41.6357 137.956 41.6357C137.592 41.6357 137.248 41.7314 136.924 41.9229C136.605 42.1097 136.377 42.3649 136.24 42.6885C136.104 43.012 136.035 43.4587 136.035 44.0283V48H134.805ZM147.055 47.1045C146.599 47.4919 146.16 47.7653 145.736 47.9248C145.316 48.0843 144.865 48.1641 144.382 48.1641C143.585 48.1641 142.972 47.9704 142.543 47.583C142.115 47.1911 141.901 46.6921 141.901 46.0859C141.901 45.7305 141.981 45.4069 142.14 45.1152C142.304 44.819 142.516 44.582 142.776 44.4043C143.04 44.2266 143.336 44.0921 143.664 44.001C143.906 43.9372 144.271 43.8757 144.758 43.8164C145.752 43.6979 146.483 43.5566 146.953 43.3926C146.957 43.224 146.959 43.1169 146.959 43.0713C146.959 42.57 146.843 42.2168 146.611 42.0117C146.296 41.7337 145.829 41.5947 145.209 41.5947C144.631 41.5947 144.202 41.6973 143.924 41.9023C143.651 42.1029 143.448 42.4606 143.316 42.9756L142.113 42.8115C142.222 42.2965 142.402 41.8818 142.653 41.5674C142.903 41.2484 143.266 41.0046 143.74 40.8359C144.214 40.6628 144.763 40.5762 145.387 40.5762C146.007 40.5762 146.51 40.6491 146.898 40.7949C147.285 40.9408 147.57 41.1253 147.752 41.3486C147.935 41.5674 148.062 41.8454 148.135 42.1826C148.176 42.3923 148.197 42.7705 148.197 43.3174V44.958C148.197 46.1019 148.222 46.8265 148.272 47.1318C148.327 47.4326 148.431 47.722 148.586 48H147.301C147.174 47.7448 147.092 47.4463 147.055 47.1045ZM146.953 44.3564C146.506 44.5387 145.836 44.6937 144.943 44.8213C144.437 44.8942 144.079 44.9762 143.87 45.0674C143.66 45.1585 143.498 45.293 143.384 45.4707C143.27 45.6439 143.213 45.8376 143.213 46.0518C143.213 46.3799 143.336 46.6533 143.582 46.8721C143.833 47.0908 144.198 47.2002 144.676 47.2002C145.15 47.2002 145.572 47.0977 145.941 46.8926C146.31 46.6829 146.581 46.3981 146.754 46.0381C146.886 45.7601 146.953 45.3499 146.953 44.8076V44.3564ZM149.831 48V40.7402H150.938V41.7725C151.471 40.9749 152.242 40.5762 153.249 40.5762C153.686 40.5762 154.087 40.6559 154.452 40.8154C154.821 40.9704 155.097 41.1755 155.279 41.4307C155.461 41.6859 155.589 41.9889 155.662 42.3398C155.707 42.5677 155.73 42.9665 155.73 43.5361V48H154.5V43.584C154.5 43.0827 154.452 42.709 154.356 42.4629C154.26 42.2122 154.09 42.014 153.843 41.8682C153.602 41.7178 153.317 41.6426 152.989 41.6426C152.465 41.6426 152.011 41.8089 151.629 42.1416C151.25 42.4743 151.061 43.1055 151.061 44.0352V48H149.831ZM157.118 48.6016L158.314 48.7793C158.365 49.1484 158.504 49.4173 158.731 49.5859C159.037 49.8138 159.454 49.9277 159.982 49.9277C160.552 49.9277 160.992 49.8138 161.302 49.5859C161.612 49.3581 161.821 49.0391 161.931 48.6289C161.994 48.3783 162.024 47.8519 162.019 47.0498C161.482 47.6833 160.812 48 160.01 48C159.012 48 158.239 47.64 157.692 46.9199C157.145 46.1999 156.872 45.3363 156.872 44.3291C156.872 43.6364 156.997 42.9984 157.248 42.415C157.499 41.8271 157.861 41.3737 158.335 41.0547C158.813 40.7357 159.374 40.5762 160.017 40.5762C160.873 40.5762 161.58 40.9225 162.136 41.6152V40.7402H163.27V47.0156C163.27 48.1458 163.154 48.9456 162.922 49.415C162.694 49.889 162.329 50.2627 161.828 50.5361C161.331 50.8096 160.718 50.9463 159.989 50.9463C159.123 50.9463 158.424 50.7503 157.891 50.3584C157.357 49.971 157.1 49.3854 157.118 48.6016ZM158.137 44.2402C158.137 45.1927 158.326 45.8877 158.704 46.3252C159.082 46.7627 159.556 46.9814 160.126 46.9814C160.691 46.9814 161.165 46.765 161.548 46.332C161.931 45.8945 162.122 45.2109 162.122 44.2812C162.122 43.3926 161.924 42.7227 161.527 42.2715C161.135 41.8203 160.661 41.5947 160.105 41.5947C159.559 41.5947 159.094 41.818 158.711 42.2646C158.328 42.7067 158.137 43.3652 158.137 44.2402ZM169.826 45.6621L171.098 45.8193C170.897 46.5622 170.526 47.1387 169.984 47.5488C169.441 47.959 168.749 48.1641 167.906 48.1641C166.844 48.1641 166.001 47.8382 165.376 47.1865C164.756 46.5303 164.447 45.612 164.447 44.4316C164.447 43.2103 164.761 42.2624 165.39 41.5879C166.019 40.9134 166.835 40.5762 167.837 40.5762C168.808 40.5762 169.601 40.9066 170.216 41.5674C170.831 42.2282 171.139 43.1579 171.139 44.3564C171.139 44.4294 171.137 44.5387 171.132 44.6846H165.718C165.764 45.4821 165.989 46.0928 166.395 46.5166C166.8 46.9404 167.306 47.1523 167.912 47.1523C168.364 47.1523 168.749 47.0339 169.068 46.7969C169.387 46.5599 169.64 46.1816 169.826 45.6621ZM165.786 43.6729H169.84C169.785 43.0622 169.63 42.6042 169.375 42.2988C168.983 41.8249 168.475 41.5879 167.851 41.5879C167.286 41.5879 166.809 41.777 166.422 42.1553C166.039 42.5335 165.827 43.0394 165.786 43.6729ZM175.993 39.3936V37.9785H177.223V39.3936H175.993ZM175.993 48V40.7402H177.223V48H175.993ZM178.823 48V40.7402H179.931V41.7725C180.464 40.9749 181.234 40.5762 182.241 40.5762C182.679 40.5762 183.08 40.6559 183.444 40.8154C183.814 40.9704 184.089 41.1755 184.272 41.4307C184.454 41.6859 184.581 41.9889 184.654 42.3398C184.7 42.5677 184.723 42.9665 184.723 43.5361V48H183.492V43.584C183.492 43.0827 183.444 42.709 183.349 42.4629C183.253 42.2122 183.082 42.014 182.836 41.8682C182.594 41.7178 182.31 41.6426 181.982 41.6426C181.457 41.6426 181.004 41.8089 180.621 42.1416C180.243 42.4743 180.054 43.1055 180.054 44.0352V48H178.823ZM192.639 46.8994L192.817 47.9863C192.471 48.0592 192.161 48.0957 191.887 48.0957C191.441 48.0957 191.094 48.0251 190.848 47.8838C190.602 47.7425 190.429 47.5579 190.329 47.3301C190.228 47.0977 190.178 46.6123 190.178 45.874V41.6973H189.276V40.7402H190.178V38.9424L191.402 38.2041V40.7402H192.639V41.6973H191.402V45.9424C191.402 46.2933 191.422 46.5189 191.464 46.6191C191.509 46.7194 191.58 46.7992 191.675 46.8584C191.776 46.9176 191.917 46.9473 192.099 46.9473C192.236 46.9473 192.416 46.9313 192.639 46.8994ZM193.569 48V37.9785H194.8V41.5742C195.374 40.9089 196.099 40.5762 196.974 40.5762C197.511 40.5762 197.978 40.6833 198.375 40.8975C198.771 41.1071 199.054 41.3988 199.223 41.7725C199.396 42.1462 199.482 42.6885 199.482 43.3994V48H198.252V43.3994C198.252 42.7842 198.117 42.3376 197.849 42.0596C197.584 41.777 197.208 41.6357 196.721 41.6357C196.356 41.6357 196.012 41.7314 195.688 41.9229C195.369 42.1097 195.142 42.3649 195.005 42.6885C194.868 43.012 194.8 43.4587 194.8 44.0283V48H193.569ZM206.052 45.6621L207.323 45.8193C207.123 46.5622 206.751 47.1387 206.209 47.5488C205.667 47.959 204.974 48.1641 204.131 48.1641C203.069 48.1641 202.226 47.8382 201.602 47.1865C200.982 46.5303 200.672 45.612 200.672 44.4316C200.672 43.2103 200.987 42.2624 201.615 41.5879C202.244 40.9134 203.06 40.5762 204.063 40.5762C205.033 40.5762 205.826 40.9066 206.442 41.5674C207.057 42.2282 207.364 43.1579 207.364 44.3564C207.364 44.4294 207.362 44.5387 207.358 44.6846H201.944C201.989 45.4821 202.215 46.0928 202.62 46.5166C203.026 46.9404 203.532 47.1523 204.138 47.1523C204.589 47.1523 204.974 47.0339 205.293 46.7969C205.612 46.5599 205.865 46.1816 206.052 45.6621ZM202.012 43.6729H206.066C206.011 43.0622 205.856 42.6042 205.601 42.2988C205.209 41.8249 204.701 41.5879 204.076 41.5879C203.511 41.5879 203.035 41.777 202.648 42.1553C202.265 42.5335 202.053 43.0394 202.012 43.6729ZM212.184 48V37.9785H213.415V48H212.184ZM219.786 47.1045C219.33 47.4919 218.891 47.7653 218.467 47.9248C218.048 48.0843 217.596 48.1641 217.113 48.1641C216.316 48.1641 215.703 47.9704 215.274 47.583C214.846 47.1911 214.632 46.6921 214.632 46.0859C214.632 45.7305 214.712 45.4069 214.871 45.1152C215.035 44.819 215.247 44.582 215.507 44.4043C215.771 44.2266 216.067 44.0921 216.396 44.001C216.637 43.9372 217.002 43.8757 217.489 43.8164C218.483 43.6979 219.214 43.5566 219.684 43.3926C219.688 43.224 219.69 43.1169 219.69 43.0713C219.69 42.57 219.574 42.2168 219.342 42.0117C219.027 41.7337 218.56 41.5947 217.94 41.5947C217.362 41.5947 216.933 41.6973 216.655 41.9023C216.382 42.1029 216.179 42.4606 216.047 42.9756L214.844 42.8115C214.953 42.2965 215.133 41.8818 215.384 41.5674C215.634 41.2484 215.997 41.0046 216.471 40.8359C216.945 40.6628 217.494 40.5762 218.118 40.5762C218.738 40.5762 219.242 40.6491 219.629 40.7949C220.016 40.9408 220.301 41.1253 220.483 41.3486C220.666 41.5674 220.793 41.8454 220.866 42.1826C220.907 42.3923 220.928 42.7705 220.928 43.3174V44.958C220.928 46.1019 220.953 46.8265 221.003 47.1318C221.058 47.4326 221.162 47.722 221.317 48H220.032C219.905 47.7448 219.823 47.4463 219.786 47.1045ZM219.684 44.3564C219.237 44.5387 218.567 44.6937 217.674 44.8213C217.168 44.8942 216.81 44.9762 216.601 45.0674C216.391 45.1585 216.229 45.293 216.115 45.4707C216.001 45.6439 215.944 45.8376 215.944 46.0518C215.944 46.3799 216.067 46.6533 216.314 46.8721C216.564 47.0908 216.929 47.2002 217.407 47.2002C217.881 47.2002 218.303 47.0977 218.672 46.8926C219.041 46.6829 219.312 46.3981 219.485 46.0381C219.618 45.7601 219.684 45.3499 219.684 44.8076V44.3564ZM222.07 45.833L223.286 45.6416C223.355 46.1292 223.544 46.5029 223.854 46.7627C224.168 47.0225 224.606 47.1523 225.166 47.1523C225.731 47.1523 226.151 47.0384 226.424 46.8105C226.698 46.5781 226.834 46.307 226.834 45.9971C226.834 45.7191 226.714 45.5003 226.472 45.3408C226.303 45.2314 225.884 45.0924 225.214 44.9238C224.312 44.696 223.685 44.5 223.334 44.3359C222.988 44.1673 222.724 43.9372 222.541 43.6455C222.364 43.3493 222.275 43.0234 222.275 42.668C222.275 42.3444 222.348 42.0459 222.493 41.7725C222.644 41.4945 222.847 41.2643 223.102 41.082C223.293 40.9408 223.553 40.8223 223.881 40.7266C224.214 40.6263 224.569 40.5762 224.948 40.5762C225.517 40.5762 226.016 40.6582 226.445 40.8223C226.878 40.9863 227.197 41.2096 227.402 41.4922C227.607 41.7702 227.748 42.1439 227.826 42.6133L226.622 42.7773C226.568 42.4036 226.408 42.112 226.144 41.9023C225.884 41.6927 225.515 41.5879 225.036 41.5879C224.471 41.5879 224.068 41.6813 223.826 41.8682C223.585 42.055 223.464 42.2738 223.464 42.5244C223.464 42.6839 223.514 42.8275 223.615 42.9551C223.715 43.0872 223.872 43.1966 224.086 43.2832C224.209 43.3288 224.572 43.4336 225.173 43.5977C226.044 43.8301 226.65 44.0215 226.992 44.1719C227.338 44.3177 227.609 44.5319 227.805 44.8145C228.001 45.097 228.099 45.4479 228.099 45.8672C228.099 46.2773 227.978 46.6647 227.737 47.0293C227.5 47.3893 227.156 47.6696 226.704 47.8701C226.253 48.0661 225.743 48.1641 225.173 48.1641C224.23 48.1641 223.51 47.9681 223.013 47.5762C222.521 47.1842 222.206 46.6032 222.07 45.833ZM231.968 46.8994L232.146 47.9863C231.8 48.0592 231.49 48.0957 231.216 48.0957C230.77 48.0957 230.423 48.0251 230.177 47.8838C229.931 47.7425 229.758 47.5579 229.658 47.3301C229.558 47.0977 229.507 46.6123 229.507 45.874V41.6973H228.605V40.7402H229.507V38.9424L230.731 38.2041V40.7402H231.968V41.6973H230.731V45.9424C230.731 46.2933 230.752 46.5189 230.793 46.6191C230.838 46.7194 230.909 46.7992 231.004 46.8584C231.105 46.9176 231.246 46.9473 231.428 46.9473C231.565 46.9473 231.745 46.9313 231.968 46.8994ZM236.46 50.7959L236.323 49.6406C236.592 49.7135 236.827 49.75 237.027 49.75C237.301 49.75 237.52 49.7044 237.684 49.6133C237.848 49.5221 237.982 49.3945 238.087 49.2305C238.165 49.1074 238.29 48.8021 238.463 48.3145C238.486 48.2461 238.522 48.1458 238.572 48.0137L235.818 40.7402H237.144L238.654 44.9443C238.85 45.4775 239.026 46.0381 239.181 46.626C239.322 46.0609 239.491 45.5094 239.687 44.9717L241.238 40.7402H242.469L239.707 48.123C239.411 48.9206 239.181 49.4697 239.017 49.7705C238.798 50.1761 238.547 50.4723 238.265 50.6592C237.982 50.8506 237.645 50.9463 237.253 50.9463C237.016 50.9463 236.752 50.8962 236.46 50.7959ZM248.205 45.6621L249.476 45.8193C249.275 46.5622 248.904 47.1387 248.362 47.5488C247.819 47.959 247.127 48.1641 246.284 48.1641C245.222 48.1641 244.379 47.8382 243.754 47.1865C243.135 46.5303 242.825 45.612 242.825 44.4316C242.825 43.2103 243.139 42.2624 243.768 41.5879C244.397 40.9134 245.213 40.5762 246.215 40.5762C247.186 40.5762 247.979 40.9066 248.594 41.5674C249.209 42.2282 249.517 43.1579 249.517 44.3564C249.517 44.4294 249.515 44.5387 249.51 44.6846H244.096C244.142 45.4821 244.367 46.0928 244.773 46.5166C245.178 46.9404 245.684 47.1523 246.29 47.1523C246.742 47.1523 247.127 47.0339 247.446 46.7969C247.765 46.5599 248.018 46.1816 248.205 45.6621ZM244.164 43.6729H248.218C248.164 43.0622 248.009 42.6042 247.753 42.2988C247.361 41.8249 246.853 41.5879 246.229 41.5879C245.664 41.5879 245.188 41.777 244.8 42.1553C244.417 42.5335 244.206 43.0394 244.164 43.6729ZM255.485 47.1045C255.029 47.4919 254.59 47.7653 254.166 47.9248C253.746 48.0843 253.295 48.1641 252.812 48.1641C252.015 48.1641 251.402 47.9704 250.973 47.583C250.545 47.1911 250.331 46.6921 250.331 46.0859C250.331 45.7305 250.411 45.4069 250.57 45.1152C250.734 44.819 250.946 44.582 251.206 44.4043C251.47 44.2266 251.766 44.0921 252.094 44.001C252.336 43.9372 252.701 43.8757 253.188 43.8164C254.182 43.6979 254.913 43.5566 255.383 43.3926C255.387 43.224 255.389 43.1169 255.389 43.0713C255.389 42.57 255.273 42.2168 255.041 42.0117C254.726 41.7337 254.259 41.5947 253.639 41.5947C253.061 41.5947 252.632 41.6973 252.354 41.9023C252.081 42.1029 251.878 42.4606 251.746 42.9756L250.543 42.8115C250.652 42.2965 250.832 41.8818 251.083 41.5674C251.333 41.2484 251.696 41.0046 252.17 40.8359C252.644 40.6628 253.193 40.5762 253.817 40.5762C254.437 40.5762 254.94 40.6491 255.328 40.7949C255.715 40.9408 256 41.1253 256.182 41.3486C256.365 41.5674 256.492 41.8454 256.565 42.1826C256.606 42.3923 256.627 42.7705 256.627 43.3174V44.958C256.627 46.1019 256.652 46.8265 256.702 47.1318C256.757 47.4326 256.861 47.722 257.016 48H255.731C255.604 47.7448 255.522 47.4463 255.485 47.1045ZM255.383 44.3564C254.936 44.5387 254.266 44.6937 253.373 44.8213C252.867 44.8942 252.509 44.9762 252.3 45.0674C252.09 45.1585 251.928 45.293 251.814 45.4707C251.7 45.6439 251.643 45.8376 251.643 46.0518C251.643 46.3799 251.766 46.6533 252.012 46.8721C252.263 47.0908 252.628 47.2002 253.106 47.2002C253.58 47.2002 254.002 47.0977 254.371 46.8926C254.74 46.6829 255.011 46.3981 255.184 46.0381C255.316 45.7601 255.383 45.3499 255.383 44.8076V44.3564ZM258.247 48V40.7402H259.354V41.8408C259.637 41.3258 259.897 40.9863 260.134 40.8223C260.375 40.6582 260.64 40.5762 260.927 40.5762C261.341 40.5762 261.763 40.7083 262.191 40.9727L261.768 42.1143C261.467 41.9365 261.166 41.8477 260.865 41.8477C260.596 41.8477 260.355 41.9297 260.141 42.0938C259.926 42.2533 259.774 42.4766 259.683 42.7637C259.546 43.2012 259.478 43.6797 259.478 44.1992V48H258.247Z" fill="#757575"/>
<line x1="15.3398" y1="164.25" x2="331.048" y2="164.25" stroke="#EEEEEE" stroke-width="1.5" stroke-dasharray="4 4"/>
<path d="M16.291 76.3613H332" stroke="#EEEEEE" stroke-width="1.5" stroke-dasharray="4 4"/>
<path d="M15.3398 254H331.048" stroke="#EEEEEE" stroke-width="1.5" stroke-dasharray="4 4"/>
<path d="M5.2081 72.7273V80H4.32741V73.6506H4.2848L2.50923 74.8295V73.9347L4.32741 72.7273H5.2081ZM7.29972 80V79.3608L9.70028 76.733C9.98201 76.4252 10.214 76.1577 10.3963 75.9304C10.5786 75.7008 10.7135 75.4853 10.8011 75.2841C10.8911 75.0805 10.9361 74.8674 10.9361 74.6449C10.9361 74.3892 10.8745 74.1679 10.7514 73.9808C10.6307 73.7938 10.465 73.6494 10.2543 73.5476C10.0436 73.4458 9.80682 73.3949 9.54403 73.3949C9.26468 73.3949 9.02083 73.4529 8.8125 73.5689C8.60653 73.6825 8.44673 73.8423 8.3331 74.0483C8.22183 74.2543 8.16619 74.4957 8.16619 74.7727H7.32812C7.32812 74.3466 7.42637 73.9725 7.62287 73.6506C7.81937 73.3286 8.08688 73.0777 8.42543 72.8977C8.76634 72.7178 9.14867 72.6278 9.57244 72.6278C9.99858 72.6278 10.3762 72.7178 10.7053 72.8977C11.0343 73.0777 11.2924 73.3203 11.4794 73.6257C11.6664 73.9311 11.7599 74.2708 11.7599 74.6449C11.7599 74.9124 11.7114 75.174 11.6143 75.4297C11.5196 75.683 11.3539 75.9659 11.1172 76.2784C10.8828 76.5885 10.5573 76.9673 10.1406 77.4148L8.5071 79.1619V79.2188H11.8878V80H7.29972ZM15.7266 80.0994C15.1915 80.0994 14.7358 79.9538 14.3594 79.6626C13.983 79.3691 13.6953 78.9441 13.4964 78.3878C13.2976 77.8291 13.1982 77.1544 13.1982 76.3636C13.1982 75.5777 13.2976 74.9065 13.4964 74.3501C13.6977 73.7914 13.9865 73.3653 14.3629 73.0717C14.7417 72.7758 15.1963 72.6278 15.7266 72.6278C16.2569 72.6278 16.7102 72.7758 17.0866 73.0717C17.4654 73.3653 17.7543 73.7914 17.9531 74.3501C18.1544 74.9065 18.255 75.5777 18.255 76.3636C18.255 77.1544 18.1555 77.8291 17.9567 78.3878C17.7578 78.9441 17.4702 79.3691 17.0938 79.6626C16.7173 79.9538 16.2616 80.0994 15.7266 80.0994ZM15.7266 79.3182C16.2569 79.3182 16.6688 79.0625 16.9624 78.5511C17.2559 78.0398 17.4027 77.3106 17.4027 76.3636C17.4027 75.7339 17.3352 75.1977 17.2003 74.755C17.0677 74.3123 16.8759 73.9749 16.625 73.7429C16.3764 73.5109 16.0769 73.3949 15.7266 73.3949C15.201 73.3949 14.7902 73.6541 14.4943 74.1726C14.1984 74.6887 14.0504 75.419 14.0504 76.3636C14.0504 76.9934 14.1167 77.5284 14.2493 77.9688C14.3819 78.4091 14.5724 78.7441 14.821 78.9737C15.072 79.2034 15.3738 79.3182 15.7266 79.3182ZM21.9766 80.0994C21.4415 80.0994 20.9858 79.9538 20.6094 79.6626C20.233 79.3691 19.9453 78.9441 19.7464 78.3878C19.5476 77.8291 19.4482 77.1544 19.4482 76.3636C19.4482 75.5777 19.5476 74.9065 19.7464 74.3501C19.9477 73.7914 20.2365 73.3653 20.6129 73.0717C20.9917 72.7758 21.4463 72.6278 21.9766 72.6278C22.5069 72.6278 22.9602 72.7758 23.3366 73.0717C23.7154 73.3653 24.0043 73.7914 24.2031 74.3501C24.4044 74.9065 24.505 75.5777 24.505 76.3636C24.505 77.1544 24.4055 77.8291 24.2067 78.3878C24.0078 78.9441 23.7202 79.3691 23.3438 79.6626C22.9673 79.9538 22.5116 80.0994 21.9766 80.0994ZM21.9766 79.3182C22.5069 79.3182 22.9188 79.0625 23.2124 78.5511C23.5059 78.0398 23.6527 77.3106 23.6527 76.3636C23.6527 75.7339 23.5852 75.1977 23.4503 74.755C23.3177 74.3123 23.1259 73.9749 22.875 73.7429C22.6264 73.5109 22.3269 73.3949 21.9766 73.3949C21.451 73.3949 21.0402 73.6541 20.7443 74.1726C20.4484 74.6887 20.3004 75.419 20.3004 76.3636C20.3004 76.9934 20.3667 77.5284 20.4993 77.9688C20.6319 78.4091 20.8224 78.7441 21.071 78.9737C21.322 79.2034 21.6238 79.3182 21.9766 79.3182Z" fill="black"/>
<path d="M7.25133 168.599C6.76364 168.599 6.33277 168.513 5.95872 168.34C5.58703 168.165 5.29702 167.925 5.08869 167.619C4.88036 167.312 4.77737 166.961 4.77974 166.568C4.77737 166.26 4.83774 165.976 4.96085 165.716C5.08395 165.453 5.25204 165.234 5.46511 165.059C5.68055 164.881 5.92084 164.769 6.18599 164.722V164.679C5.83798 164.589 5.56099 164.394 5.35502 164.093C5.14906 163.79 5.04726 163.446 5.04963 163.06C5.04726 162.69 5.14077 162.36 5.33017 162.069C5.51956 161.778 5.77998 161.548 6.11142 161.38C6.44522 161.212 6.8252 161.128 7.25133 161.128C7.67273 161.128 8.04915 161.212 8.38059 161.38C8.71203 161.548 8.97245 161.778 9.16184 162.069C9.3536 162.36 9.45067 162.69 9.45304 163.06C9.45067 163.446 9.34532 163.79 9.13699 164.093C8.93102 164.394 8.65758 164.589 8.31667 164.679V164.722C8.57946 164.769 8.8162 164.881 9.0269 165.059C9.2376 165.234 9.40569 165.453 9.53116 165.716C9.65663 165.976 9.72056 166.26 9.72292 166.568C9.72056 166.961 9.61402 167.312 9.40332 167.619C9.19499 167.925 8.90498 168.165 8.53329 168.34C8.16397 168.513 7.73665 168.599 7.25133 168.599ZM7.25133 167.818C7.5804 167.818 7.86449 167.765 8.1036 167.658C8.34271 167.552 8.52737 167.402 8.65758 167.207C8.78779 167.013 8.85408 166.786 8.85645 166.526C8.85408 166.251 8.78306 166.008 8.64338 165.798C8.5037 165.587 8.31312 165.421 8.07164 165.3C7.83253 165.18 7.5591 165.119 7.25133 165.119C6.9412 165.119 6.66421 165.18 6.42037 165.3C6.17889 165.421 5.98831 165.587 5.84863 165.798C5.71132 166.008 5.64385 166.251 5.64622 166.526C5.64385 166.786 5.70659 167.013 5.83443 167.207C5.96464 167.402 6.15048 167.552 6.39196 167.658C6.63343 167.765 6.91989 167.818 7.25133 167.818ZM7.25133 164.366C7.51175 164.366 7.74257 164.314 7.9438 164.21C8.1474 164.106 8.3072 163.96 8.42321 163.773C8.53921 163.586 8.5984 163.367 8.60076 163.116C8.5984 162.87 8.54039 162.656 8.42676 162.474C8.31312 162.289 8.15569 162.147 7.95446 162.048C7.75323 161.946 7.51885 161.895 7.25133 161.895C6.97908 161.895 6.74115 161.946 6.53755 162.048C6.33395 162.147 6.17652 162.289 6.06525 162.474C5.95398 162.656 5.89953 162.87 5.9019 163.116C5.89953 163.367 5.95517 163.586 6.0688 163.773C6.18481 163.96 6.34461 164.106 6.54821 164.21C6.75181 164.314 6.98618 164.366 7.25133 164.366ZM13.4561 168.599C12.921 168.599 12.4653 168.454 12.0889 168.163C11.7124 167.869 11.4248 167.444 11.2259 166.888C11.0271 166.329 10.9276 165.654 10.9276 164.864C10.9276 164.078 11.0271 163.406 11.2259 162.85C11.4272 162.291 11.716 161.865 12.0924 161.572C12.4712 161.276 12.9258 161.128 13.4561 161.128C13.9864 161.128 14.4397 161.276 14.8161 161.572C15.1949 161.865 15.4838 162.291 15.6826 162.85C15.8838 163.406 15.9845 164.078 15.9845 164.864C15.9845 165.654 15.885 166.329 15.6862 166.888C15.4873 167.444 15.1997 167.869 14.8232 168.163C14.4468 168.454 13.9911 168.599 13.4561 168.599ZM13.4561 167.818C13.9864 167.818 14.3983 167.562 14.6919 167.051C14.9854 166.54 15.1322 165.811 15.1322 164.864C15.1322 164.234 15.0647 163.698 14.9298 163.255C14.7972 162.812 14.6054 162.475 14.3545 162.243C14.1059 162.011 13.8064 161.895 13.4561 161.895C12.9305 161.895 12.5197 162.154 12.2238 162.673C11.9279 163.189 11.7799 163.919 11.7799 164.864C11.7799 165.493 11.8462 166.028 11.9788 166.469C12.1114 166.909 12.3019 167.244 12.5505 167.474C12.8015 167.703 13.1033 167.818 13.4561 167.818ZM19.7061 168.599C19.171 168.599 18.7153 168.454 18.3389 168.163C17.9624 167.869 17.6748 167.444 17.4759 166.888C17.2771 166.329 17.1776 165.654 17.1776 164.864C17.1776 164.078 17.2771 163.406 17.4759 162.85C17.6772 162.291 17.966 161.865 18.3424 161.572C18.7212 161.276 19.1758 161.128 19.7061 161.128C20.2364 161.128 20.6897 161.276 21.0661 161.572C21.4449 161.865 21.7338 162.291 21.9326 162.85C22.1338 163.406 22.2345 164.078 22.2345 164.864C22.2345 165.654 22.135 166.329 21.9362 166.888C21.7373 167.444 21.4497 167.869 21.0732 168.163C20.6968 168.454 20.2411 168.599 19.7061 168.599ZM19.7061 167.818C20.2364 167.818 20.6483 167.562 20.9419 167.051C21.2354 166.54 21.3822 165.811 21.3822 164.864C21.3822 164.234 21.3147 163.698 21.1798 163.255C21.0472 162.812 20.8554 162.475 20.6045 162.243C20.3559 162.011 20.0564 161.895 19.7061 161.895C19.1805 161.895 18.7697 162.154 18.4738 162.673C18.1779 163.189 18.0299 163.919 18.0299 164.864C18.0299 165.493 18.0962 166.028 18.2288 166.469C18.3614 166.909 18.5519 167.244 18.8005 167.474C19.0515 167.703 19.3533 167.818 19.7061 167.818Z" fill="black"/>
<path d="M7.27663 257.099C6.80788 257.099 6.39003 257.019 6.02308 256.858C5.6585 256.697 5.36849 256.473 5.15305 256.187C4.93999 255.898 4.82398 255.563 4.80504 255.182H5.69993C5.71887 255.416 5.79936 255.619 5.94141 255.789C6.08345 255.957 6.26929 256.087 6.49893 256.18C6.72857 256.272 6.98307 256.318 7.26243 256.318C7.57493 256.318 7.85192 256.264 8.09339 256.155C8.33487 256.046 8.52427 255.894 8.66158 255.7C8.79889 255.506 8.86754 255.281 8.86754 255.026C8.86754 254.758 8.80125 254.522 8.66868 254.319C8.5361 254.113 8.34197 253.952 8.08629 253.836C7.83061 253.72 7.51811 253.662 7.14879 253.662H6.56641V252.881H7.14879C7.43762 252.881 7.69093 252.829 7.90874 252.724C8.12891 252.62 8.30054 252.473 8.42365 252.284C8.54912 252.095 8.61186 251.872 8.61186 251.616C8.61186 251.37 8.55741 251.156 8.44851 250.974C8.33961 250.791 8.18572 250.649 7.98686 250.548C7.79036 250.446 7.55836 250.395 7.29084 250.395C7.03989 250.395 6.80315 250.441 6.58061 250.533C6.36044 250.623 6.18052 250.755 6.04084 250.928C5.90116 251.098 5.8254 251.304 5.81357 251.545H4.96129C4.9755 251.164 5.09032 250.83 5.30575 250.544C5.52119 250.255 5.80291 250.03 6.15092 249.869C6.5013 249.708 6.88601 249.628 7.30504 249.628C7.75485 249.628 8.14074 249.719 8.46271 249.901C8.78468 250.081 9.03208 250.319 9.2049 250.615C9.37772 250.911 9.46413 251.231 9.46413 251.574C9.46413 251.983 9.35642 252.333 9.14098 252.621C8.92791 252.91 8.6379 253.11 8.27095 253.222V253.278C8.73023 253.354 9.0889 253.549 9.34695 253.864C9.605 254.177 9.73402 254.564 9.73402 255.026C9.73402 255.421 9.6263 255.776 9.41087 256.091C9.1978 256.403 8.90661 256.65 8.53729 256.83C8.16797 257.009 7.74775 257.099 7.27663 257.099ZM13.5586 257.099C13.0236 257.099 12.5678 256.954 12.1914 256.663C11.815 256.369 11.5273 255.944 11.3285 255.388C11.1296 254.829 11.0302 254.154 11.0302 253.364C11.0302 252.578 11.1296 251.906 11.3285 251.35C11.5297 250.791 11.8185 250.365 12.195 250.072C12.5737 249.776 13.0283 249.628 13.5586 249.628C14.0889 249.628 14.5423 249.776 14.9187 250.072C15.2975 250.365 15.5863 250.791 15.7852 251.35C15.9864 251.906 16.087 252.578 16.087 253.364C16.087 254.154 15.9876 254.829 15.7887 255.388C15.5898 255.944 15.3022 256.369 14.9258 256.663C14.5494 256.954 14.0936 257.099 13.5586 257.099ZM13.5586 256.318C14.0889 256.318 14.5008 256.062 14.7944 255.551C15.0879 255.04 15.2347 254.311 15.2347 253.364C15.2347 252.734 15.1673 252.198 15.0323 251.755C14.8997 251.312 14.708 250.975 14.457 250.743C14.2085 250.511 13.909 250.395 13.5586 250.395C13.033 250.395 12.6223 250.654 12.3263 251.173C12.0304 251.689 11.8825 252.419 11.8825 253.364C11.8825 253.993 11.9487 254.528 12.0813 254.969C12.2139 255.409 12.4045 255.744 12.6531 255.974C12.904 256.203 13.2058 256.318 13.5586 256.318ZM19.8086 257.099C19.2736 257.099 18.8178 256.954 18.4414 256.663C18.065 256.369 17.7773 255.944 17.5785 255.388C17.3796 254.829 17.2802 254.154 17.2802 253.364C17.2802 252.578 17.3796 251.906 17.5785 251.35C17.7797 250.791 18.0685 250.365 18.445 250.072C18.8237 249.776 19.2783 249.628 19.8086 249.628C20.3389 249.628 20.7923 249.776 21.1687 250.072C21.5475 250.365 21.8363 250.791 22.0352 251.35C22.2364 251.906 22.337 252.578 22.337 253.364C22.337 254.154 22.2376 254.829 22.0387 255.388C21.8398 255.944 21.5522 256.369 21.1758 256.663C20.7994 256.954 20.3436 257.099 19.8086 257.099ZM19.8086 256.318C20.3389 256.318 20.7508 256.062 21.0444 255.551C21.3379 255.04 21.4847 254.311 21.4847 253.364C21.4847 252.734 21.4173 252.198 21.2823 251.755C21.1497 251.312 20.958 250.975 20.707 250.743C20.4585 250.511 20.159 250.395 19.8086 250.395C19.283 250.395 18.8723 250.654 18.5763 251.173C18.2804 251.689 18.1325 252.419 18.1325 253.364C18.1325 253.993 18.1987 254.528 18.3313 254.969C18.4639 255.409 18.6545 255.744 18.9031 255.974C19.154 256.203 19.4558 256.318 19.8086 256.318Z" fill="black"/>
<path d="M43 148C43 145.791 44.7909 144 47 144H51C53.2091 144 55 145.791 55 148V255H43V148Z" fill="#F54617"/>
<path d="M57 203C57 200.791 58.7909 199 61 199H65C67.2091 199 69 200.791 69 203V255H57V203Z" fill="#757575"/>
<path d="M48.1307 274V266.727H52.4915V267.509H49.0114V269.966H52.1648V270.747H49.0114V274H48.1307ZM55.7727 274.114C55.2472 274.114 54.7938 273.998 54.4126 273.766C54.0339 273.531 53.7415 273.205 53.5355 272.786C53.3319 272.364 53.2301 271.874 53.2301 271.315C53.2301 270.757 53.3319 270.264 53.5355 269.838C53.7415 269.41 54.0279 269.076 54.3949 268.837C54.7642 268.595 55.1951 268.474 55.6875 268.474C55.9716 268.474 56.2521 268.522 56.5291 268.616C56.8061 268.711 57.0582 268.865 57.2855 269.078C57.5128 269.289 57.6939 269.568 57.8288 269.916C57.9638 270.264 58.0312 270.693 58.0312 271.202V271.557H53.8267V270.832H57.179C57.179 270.525 57.1174 270.25 56.9943 270.009C56.8736 269.767 56.7008 269.576 56.4759 269.437C56.2533 269.297 55.9905 269.227 55.6875 269.227C55.3537 269.227 55.0649 269.31 54.821 269.476C54.5795 269.639 54.3937 269.852 54.2635 270.115C54.1333 270.378 54.0682 270.66 54.0682 270.96V271.443C54.0682 271.855 54.1392 272.204 54.2812 272.491C54.4257 272.775 54.6257 272.991 54.8814 273.141C55.1371 273.287 55.4342 273.361 55.7727 273.361C55.9929 273.361 56.1918 273.33 56.3693 273.268C56.5492 273.205 56.7043 273.11 56.8345 272.984C56.9647 272.857 57.0653 272.698 57.1364 272.509L57.946 272.736C57.8608 273.01 57.7176 273.252 57.5163 273.46C57.3151 273.666 57.0665 273.827 56.7706 273.943C56.4747 274.057 56.142 274.114 55.7727 274.114ZM59.4197 274V266.727H60.2578V269.412H60.3288C60.3904 269.317 60.4756 269.196 60.5845 269.05C60.6958 268.901 60.8544 268.768 61.0604 268.652C61.2687 268.534 61.5504 268.474 61.9055 268.474C62.3648 268.474 62.7696 268.589 63.12 268.819C63.4704 269.049 63.7438 269.374 63.9403 269.795C64.1368 270.217 64.2351 270.714 64.2351 271.287C64.2351 271.865 64.1368 272.365 63.9403 272.789C63.7438 273.21 63.4716 273.537 63.1236 273.769C62.7756 273.999 62.3743 274.114 61.9197 274.114C61.5694 274.114 61.2888 274.056 61.0781 273.94C60.8674 273.821 60.7053 273.687 60.5916 273.538C60.478 273.387 60.3904 273.261 60.3288 273.162H60.2294V274H59.4197ZM60.2436 271.273C60.2436 271.685 60.304 272.048 60.4247 272.363C60.5455 272.675 60.7218 272.92 60.9538 273.098C61.1858 273.273 61.4699 273.361 61.8061 273.361C62.1565 273.361 62.4489 273.268 62.6832 273.084C62.92 272.897 63.0975 272.646 63.2159 272.331C63.3366 272.014 63.397 271.661 63.397 271.273C63.397 270.889 63.3378 270.544 63.2195 270.236C63.1035 269.926 62.9271 269.681 62.6903 269.501C62.456 269.318 62.1612 269.227 61.8061 269.227C61.4652 269.227 61.1787 269.314 60.9467 269.487C60.7147 269.657 60.5395 269.896 60.4212 270.204C60.3028 270.509 60.2436 270.866 60.2436 271.273Z" fill="black"/>
<path d="M85 182C85 179.791 86.7909 178 89 178H93C95.2091 178 97 179.791 97 182V255H85V182Z" fill="#F54617"/>
<path d="M99 163C99 160.791 100.791 159 103 159H107C109.209 159 111 160.791 111 163V255H99V163Z" fill="#757575"/>
<path d="M89.7547 266.727H90.8058L93.2774 272.764H93.3627L95.8343 266.727H96.8854V274H96.0615V268.474H95.9905L93.7178 274H92.9223L90.6496 268.474H90.5786V274H89.7547V266.727ZM100.143 274.128C99.797 274.128 99.4833 274.063 99.2016 273.933C98.9199 273.8 98.6962 273.609 98.5305 273.361C98.3647 273.11 98.2819 272.807 98.2819 272.452C98.2819 272.139 98.3434 271.886 98.4665 271.692C98.5896 271.495 98.7542 271.341 98.9601 271.23C99.1661 271.119 99.3934 271.036 99.642 270.982C99.8929 270.925 100.145 270.88 100.398 270.847C100.73 270.804 100.998 270.772 101.204 270.751C101.413 270.727 101.564 270.688 101.659 270.634C101.756 270.579 101.805 270.484 101.805 270.349V270.321C101.805 269.971 101.709 269.698 101.517 269.504C101.328 269.31 101.04 269.213 100.654 269.213C100.254 269.213 99.9403 269.301 99.713 269.476C99.4857 269.651 99.3259 269.838 99.2336 270.037L98.4381 269.753C98.5802 269.421 98.7696 269.163 99.0063 268.979C99.2454 268.792 99.5058 268.661 99.7876 268.588C100.072 268.512 100.351 268.474 100.626 268.474C100.801 268.474 101.002 268.496 101.229 268.538C101.459 268.579 101.68 268.663 101.893 268.79C102.109 268.918 102.288 269.111 102.43 269.369C102.572 269.627 102.643 269.973 102.643 270.406V274H101.805V273.261H101.762C101.705 273.38 101.61 273.506 101.478 273.641C101.345 273.776 101.169 273.891 100.949 273.986C100.729 274.08 100.46 274.128 100.143 274.128ZM100.271 273.375C100.602 273.375 100.881 273.31 101.109 273.18C101.338 273.049 101.511 272.881 101.627 272.675C101.745 272.469 101.805 272.253 101.805 272.026V271.259C101.769 271.301 101.691 271.34 101.57 271.376C101.452 271.409 101.315 271.438 101.158 271.464C101.004 271.488 100.854 271.509 100.707 271.528C100.563 271.545 100.446 271.559 100.356 271.571C100.138 271.599 99.9343 271.646 99.7449 271.71C99.5579 271.771 99.4064 271.865 99.2904 271.99C99.1768 272.113 99.1199 272.281 99.1199 272.494C99.1199 272.786 99.2277 273.006 99.4431 273.155C99.6609 273.302 99.9367 273.375 100.271 273.375ZM104.172 274V268.545H104.982V269.369H105.039C105.138 269.099 105.318 268.88 105.579 268.712C105.839 268.544 106.133 268.46 106.459 268.46C106.521 268.46 106.598 268.461 106.69 268.464C106.782 268.466 106.852 268.47 106.9 268.474V269.327C106.871 269.32 106.806 269.309 106.704 269.295C106.605 269.278 106.499 269.27 106.388 269.27C106.123 269.27 105.886 269.326 105.678 269.437C105.472 269.546 105.309 269.697 105.188 269.891C105.07 270.083 105.01 270.302 105.01 270.548V274H104.172Z" fill="black"/>
<path d="M127 150C127 147.791 128.791 146 131 146H135C137.209 146 139 147.791 139 150V255H127V150Z" fill="#F54617"/>
<path d="M141 118C141 115.791 142.791 114 145 114H149C151.209 114 153 115.791 153 118V255H141V118Z" fill="#757575"/>
<path d="M132.893 274H131.97L134.64 266.727H135.549L138.22 274H137.296L135.123 267.878H135.066L132.893 274ZM133.234 271.159H136.955V271.94H133.234V271.159ZM139.239 276.045V268.545H140.048V269.412H140.148C140.209 269.317 140.295 269.196 140.403 269.05C140.515 268.901 140.673 268.768 140.879 268.652C141.088 268.534 141.369 268.474 141.725 268.474C142.184 268.474 142.589 268.589 142.939 268.819C143.289 269.049 143.563 269.374 143.759 269.795C143.956 270.217 144.054 270.714 144.054 271.287C144.054 271.865 143.956 272.365 143.759 272.789C143.563 273.21 143.291 273.537 142.943 273.769C142.595 273.999 142.193 274.114 141.739 274.114C141.388 274.114 141.108 274.056 140.897 273.94C140.686 273.821 140.524 273.687 140.411 273.538C140.297 273.387 140.209 273.261 140.148 273.162H140.077V276.045H139.239ZM140.063 271.273C140.063 271.685 140.123 272.048 140.244 272.363C140.364 272.675 140.541 272.92 140.773 273.098C141.005 273.273 141.289 273.361 141.625 273.361C141.975 273.361 142.268 273.268 142.502 273.084C142.739 272.897 142.917 272.646 143.035 272.331C143.156 272.014 143.216 271.661 143.216 271.273C143.216 270.889 143.157 270.544 143.038 270.236C142.922 269.926 142.746 269.681 142.509 269.501C142.275 269.318 141.98 269.227 141.625 269.227C141.284 269.227 140.998 269.314 140.766 269.487C140.534 269.657 140.359 269.896 140.24 270.204C140.122 270.509 140.063 270.866 140.063 271.273ZM145.332 274V268.545H146.142V269.369H146.199C146.298 269.099 146.478 268.88 146.739 268.712C146.999 268.544 147.293 268.46 147.619 268.46C147.681 268.46 147.758 268.461 147.85 268.464C147.943 268.466 148.012 268.47 148.06 268.474V269.327C148.031 269.32 147.966 269.309 147.864 269.295C147.765 269.278 147.66 269.27 147.548 269.27C147.283 269.27 147.046 269.326 146.838 269.437C146.632 269.546 146.469 269.697 146.348 269.891C146.23 270.083 146.171 270.302 146.171 270.548V274H145.332Z" fill="black"/>
<path d="M169 161C169 158.791 170.791 157 173 157H177C179.209 157 181 158.791 181 161V255H169V161Z" fill="#F54617"/>
<path d="M183 185C183 182.791 184.791 181 187 181H191C193.209 181 195 182.791 195 185V255H183V185Z" fill="#757575"/>
<path d="M174.429 266.727H175.48L177.951 272.764H178.036L180.508 266.727H181.559V274H180.735V268.474H180.664L178.392 274H177.596L175.323 268.474H175.252V274H174.429V266.727ZM184.816 274.128C184.471 274.128 184.157 274.063 183.875 273.933C183.594 273.8 183.37 273.609 183.204 273.361C183.039 273.11 182.956 272.807 182.956 272.452C182.956 272.139 183.017 271.886 183.14 271.692C183.263 271.495 183.428 271.341 183.634 271.23C183.84 271.119 184.067 271.036 184.316 270.982C184.567 270.925 184.819 270.88 185.072 270.847C185.404 270.804 185.672 270.772 185.878 270.751C186.087 270.727 186.238 270.688 186.333 270.634C186.43 270.579 186.478 270.484 186.478 270.349V270.321C186.478 269.971 186.383 269.698 186.191 269.504C186.001 269.31 185.714 269.213 185.328 269.213C184.928 269.213 184.614 269.301 184.387 269.476C184.16 269.651 184 269.838 183.907 270.037L183.112 269.753C183.254 269.421 183.443 269.163 183.68 268.979C183.919 268.792 184.18 268.661 184.461 268.588C184.745 268.512 185.025 268.474 185.299 268.474C185.475 268.474 185.676 268.496 185.903 268.538C186.133 268.579 186.354 268.663 186.567 268.79C186.783 268.918 186.961 269.111 187.103 269.369C187.245 269.627 187.316 269.973 187.316 270.406V274H186.478V273.261H186.436C186.379 273.38 186.284 273.506 186.152 273.641C186.019 273.776 185.843 273.891 185.623 273.986C185.402 274.08 185.134 274.128 184.816 274.128ZM184.944 273.375C185.276 273.375 185.555 273.31 185.782 273.18C186.012 273.049 186.185 272.881 186.301 272.675C186.419 272.469 186.478 272.253 186.478 272.026V271.259C186.443 271.301 186.365 271.34 186.244 271.376C186.126 271.409 185.988 271.438 185.832 271.464C185.678 271.488 185.528 271.509 185.381 271.528C185.237 271.545 185.12 271.559 185.03 271.571C184.812 271.599 184.608 271.646 184.419 271.71C184.232 271.771 184.08 271.865 183.964 271.99C183.851 272.113 183.794 272.281 183.794 272.494C183.794 272.786 183.901 273.006 184.117 273.155C184.335 273.302 184.611 273.375 184.944 273.375ZM188.846 274V268.545H189.684V274H188.846ZM189.272 267.636C189.109 267.636 188.968 267.581 188.85 267.469C188.734 267.358 188.676 267.224 188.676 267.068C188.676 266.912 188.734 266.778 188.85 266.667C188.968 266.556 189.109 266.5 189.272 266.5C189.436 266.5 189.575 266.556 189.691 266.667C189.81 266.778 189.869 266.912 189.869 267.068C189.869 267.224 189.81 267.358 189.691 267.469C189.575 267.581 189.436 267.636 189.272 267.636Z" fill="black"/>
<path d="M211 173C211 170.791 212.791 169 215 169H219C221.209 169 223 170.791 223 173V255H211V173Z" fill="#F54617"/>
<path d="M225 118C225 115.791 226.791 114 229 114H233C235.209 114 237 115.791 237 118V255H225V118Z" fill="#757575"/>
<path d="M219.12 266.727H220.001V271.926C220.001 272.39 219.915 272.784 219.745 273.109C219.574 273.433 219.334 273.679 219.024 273.847C218.714 274.015 218.348 274.099 217.927 274.099C217.529 274.099 217.175 274.027 216.865 273.883C216.555 273.736 216.311 273.528 216.133 273.258C215.956 272.988 215.867 272.667 215.867 272.295H216.733C216.733 272.501 216.784 272.681 216.886 272.835C216.99 272.987 217.132 273.105 217.312 273.19C217.492 273.276 217.697 273.318 217.927 273.318C218.18 273.318 218.395 273.265 218.573 273.158C218.751 273.052 218.885 272.896 218.978 272.69C219.073 272.481 219.12 272.227 219.12 271.926V266.727ZM225.089 271.77V268.545H225.927V274H225.089V273.077H225.032C224.905 273.354 224.706 273.589 224.436 273.783C224.166 273.975 223.825 274.071 223.413 274.071C223.072 274.071 222.769 273.996 222.504 273.847C222.239 273.696 222.031 273.469 221.879 273.165C221.728 272.86 221.652 272.475 221.652 272.011V268.545H222.49V271.955C222.49 272.352 222.601 272.67 222.824 272.906C223.049 273.143 223.335 273.261 223.683 273.261C223.891 273.261 224.103 273.208 224.319 273.102C224.537 272.995 224.719 272.832 224.866 272.612C225.015 272.391 225.089 272.111 225.089 271.77ZM228.3 270.719V274H227.462V268.545H228.272V269.398H228.343C228.471 269.121 228.665 268.898 228.925 268.73C229.186 268.56 229.522 268.474 229.934 268.474C230.303 268.474 230.626 268.55 230.903 268.702C231.18 268.851 231.396 269.078 231.55 269.384C231.704 269.687 231.781 270.07 231.781 270.534V274H230.942V270.591C230.942 270.162 230.831 269.829 230.609 269.589C230.386 269.348 230.081 269.227 229.692 269.227C229.425 269.227 229.186 269.285 228.975 269.401C228.767 269.517 228.602 269.687 228.482 269.909C228.361 270.132 228.3 270.402 228.3 270.719Z" fill="black"/>
<path d="M253 79C253 76.7909 254.791 75 257 75H261C263.209 75 265 76.7909 265 79V255H253V79Z" fill="#F54617"/>
<path d="M267 96C267 93.7909 268.791 92 271 92H275C277.209 92 279 93.7909 279 96V255H267V96Z" fill="#757575"/>
<path d="M262.858 266.727H263.739V271.926C263.739 272.39 263.654 272.784 263.483 273.109C263.313 273.433 263.072 273.679 262.762 273.847C262.452 274.015 262.086 274.099 261.665 274.099C261.267 274.099 260.913 274.027 260.603 273.883C260.293 273.736 260.049 273.528 259.872 273.258C259.694 272.988 259.605 272.667 259.605 272.295H260.472C260.472 272.501 260.523 272.681 260.624 272.835C260.729 272.987 260.871 273.105 261.051 273.19C261.231 273.276 261.435 273.318 261.665 273.318C261.918 273.318 262.134 273.265 262.311 273.158C262.489 273.052 262.624 272.896 262.716 272.69C262.811 272.481 262.858 272.227 262.858 271.926V266.727ZM268.828 271.77V268.545H269.666V274H268.828V273.077H268.771C268.643 273.354 268.444 273.589 268.174 273.783C267.904 273.975 267.563 274.071 267.151 274.071C266.811 274.071 266.508 273.996 266.242 273.847C265.977 273.696 265.769 273.469 265.617 273.165C265.466 272.86 265.39 272.475 265.39 272.011V268.545H266.228V271.955C266.228 272.352 266.339 272.67 266.562 272.906C266.787 273.143 267.073 273.261 267.421 273.261C267.63 273.261 267.842 273.208 268.057 273.102C268.275 272.995 268.457 272.832 268.604 272.612C268.753 272.391 268.828 272.111 268.828 271.77ZM272.039 266.727V274H271.201V266.727H272.039Z" fill="black"/>
<path d="M295 144C295 141.791 296.791 140 299 140H303C305.209 140 307 141.791 307 144V255H295V144Z" fill="#F54617"/>
<path d="M309 149C309 146.791 310.791 145 313 145H317C319.209 145 321 146.791 321 149V255H309V149Z" fill="#757575"/>
<path d="M299.848 274H298.925L301.595 266.727H302.504L305.175 274H304.251L302.078 267.878H302.021L299.848 274ZM300.189 271.159H303.91V271.94H300.189V271.159ZM309.631 271.77V268.545H310.469V274H309.631V273.077H309.574C309.447 273.354 309.248 273.589 308.978 273.783C308.708 273.975 308.367 274.071 307.955 274.071C307.614 274.071 307.311 273.996 307.046 273.847C306.781 273.696 306.573 273.469 306.421 273.165C306.27 272.86 306.194 272.475 306.194 272.011V268.545H307.032V271.955C307.032 272.352 307.143 272.67 307.366 272.906C307.591 273.143 307.877 273.261 308.225 273.261C308.433 273.261 308.645 273.208 308.861 273.102C309.079 272.995 309.261 272.832 309.408 272.612C309.557 272.391 309.631 272.111 309.631 271.77ZM314.206 276.159C313.801 276.159 313.453 276.107 313.162 276.003C312.871 275.901 312.628 275.766 312.434 275.598C312.242 275.432 312.09 275.255 311.976 275.065L312.644 274.597C312.719 274.696 312.815 274.81 312.931 274.938C313.047 275.068 313.206 275.18 313.407 275.275C313.611 275.372 313.877 275.42 314.206 275.42C314.646 275.42 315.01 275.314 315.296 275.101C315.583 274.888 315.726 274.554 315.726 274.099V272.991H315.655C315.593 273.091 315.506 273.214 315.392 273.361C315.281 273.505 315.12 273.634 314.909 273.748C314.701 273.859 314.419 273.915 314.064 273.915C313.624 273.915 313.228 273.811 312.878 273.602C312.53 273.394 312.254 273.091 312.051 272.693C311.849 272.295 311.749 271.812 311.749 271.244C311.749 270.686 311.847 270.199 312.043 269.785C312.24 269.368 312.513 269.046 312.864 268.819C313.214 268.589 313.619 268.474 314.078 268.474C314.433 268.474 314.715 268.534 314.923 268.652C315.134 268.768 315.295 268.901 315.406 269.05C315.52 269.196 315.608 269.317 315.669 269.412H315.754V268.545H316.564V274.156C316.564 274.625 316.457 275.006 316.244 275.3C316.034 275.596 315.75 275.812 315.392 275.95C315.037 276.089 314.642 276.159 314.206 276.159ZM314.178 273.162C314.514 273.162 314.798 273.085 315.03 272.931C315.262 272.777 315.438 272.556 315.559 272.267C315.68 271.978 315.74 271.633 315.74 271.23C315.74 270.837 315.681 270.49 315.563 270.19C315.444 269.889 315.269 269.653 315.037 269.483C314.805 269.312 314.519 269.227 314.178 269.227C313.823 269.227 313.527 269.317 313.29 269.497C313.055 269.677 312.879 269.919 312.761 270.222C312.645 270.525 312.587 270.861 312.587 271.23C312.587 271.609 312.646 271.944 312.764 272.235C312.885 272.524 313.063 272.751 313.297 272.917C313.534 273.08 313.827 273.162 314.178 273.162Z" fill="black"/>
<circle cx="49" cy="305" r="7" fill="#F54617"/>
<path d="M66.3516 307.471V309H60.5801C60.6426 308.422 60.8301 307.875 61.1426 307.359C61.4551 306.84 62.0723 306.152 62.9941 305.297C63.7363 304.605 64.1914 304.137 64.3594 303.891C64.5859 303.551 64.6992 303.215 64.6992 302.883C64.6992 302.516 64.5996 302.234 64.4004 302.039C64.2051 301.84 63.9336 301.74 63.5859 301.74C63.2422 301.74 62.9688 301.844 62.7656 302.051C62.5625 302.258 62.4453 302.602 62.4141 303.082L60.7734 302.918C60.8711 302.012 61.1777 301.361 61.6934 300.967C62.209 300.572 62.8535 300.375 63.627 300.375C64.4746 300.375 65.1406 300.604 65.625 301.061C66.1094 301.518 66.3516 302.086 66.3516 302.766C66.3516 303.152 66.2812 303.521 66.1406 303.873C66.0039 304.221 65.7852 304.586 65.4844 304.969C65.2852 305.223 64.9258 305.588 64.4062 306.064C63.8867 306.541 63.5566 306.857 63.416 307.014C63.2793 307.17 63.168 307.322 63.082 307.471H66.3516ZM70.2539 300.375C71.0859 300.375 71.7363 300.672 72.2051 301.266C72.7637 301.969 73.043 303.135 73.043 304.764C73.043 306.389 72.7617 307.557 72.1992 308.268C71.7344 308.854 71.0859 309.146 70.2539 309.146C69.418 309.146 68.7441 308.826 68.2324 308.186C67.7207 307.541 67.4648 306.395 67.4648 304.746C67.4648 303.129 67.7461 301.965 68.3086 301.254C68.7734 300.668 69.4219 300.375 70.2539 300.375ZM70.2539 301.74C70.0547 301.74 69.877 301.805 69.7207 301.934C69.5645 302.059 69.4434 302.285 69.3574 302.613C69.2441 303.039 69.1875 303.756 69.1875 304.764C69.1875 305.771 69.2383 306.465 69.3398 306.844C69.4414 307.219 69.5684 307.469 69.7207 307.594C69.877 307.719 70.0547 307.781 70.2539 307.781C70.4531 307.781 70.6309 307.719 70.7871 307.594C70.9434 307.465 71.0645 307.236 71.1504 306.908C71.2637 306.486 71.3203 305.771 71.3203 304.764C71.3203 303.756 71.2695 303.064 71.168 302.689C71.0664 302.311 70.9375 302.059 70.7812 301.934C70.6289 301.805 70.4531 301.74 70.2539 301.74ZM79.7109 307.471V309H73.9395C74.002 308.422 74.1895 307.875 74.502 307.359C74.8145 306.84 75.4316 306.152 76.3535 305.297C77.0957 304.605 77.5508 304.137 77.7188 303.891C77.9453 303.551 78.0586 303.215 78.0586 302.883C78.0586 302.516 77.959 302.234 77.7598 302.039C77.5645 301.84 77.293 301.74 76.9453 301.74C76.6016 301.74 76.3281 301.844 76.125 302.051C75.9219 302.258 75.8047 302.602 75.7734 303.082L74.1328 302.918C74.2305 302.012 74.5371 301.361 75.0527 300.967C75.5684 300.572 76.2129 300.375 76.9863 300.375C77.834 300.375 78.5 300.604 78.9844 301.061C79.4688 301.518 79.7109 302.086 79.7109 302.766C79.7109 303.152 79.6406 303.521 79.5 303.873C79.3633 304.221 79.1445 304.586 78.8438 304.969C78.6445 305.223 78.2852 305.588 77.7656 306.064C77.2461 306.541 76.916 306.857 76.7754 307.014C76.6387 307.17 76.5273 307.322 76.4414 307.471H79.7109ZM84.0586 309V307.271H80.543V305.83L84.2695 300.375H85.6523V305.824H86.7188V307.271H85.6523V309H84.0586ZM84.0586 305.824V302.889L82.084 305.824H84.0586Z" fill="black"/>
<circle cx="106" cy="305" r="7" fill="#585352"/>
<path d="M123.352 307.471V309H117.58C117.643 308.422 117.83 307.875 118.143 307.359C118.455 306.84 119.072 306.152 119.994 305.297C120.736 304.605 121.191 304.137 121.359 303.891C121.586 303.551 121.699 303.215 121.699 302.883C121.699 302.516 121.6 302.234 121.4 302.039C121.205 301.84 120.934 301.74 120.586 301.74C120.242 301.74 119.969 301.844 119.766 302.051C119.562 302.258 119.445 302.602 119.414 303.082L117.773 302.918C117.871 302.012 118.178 301.361 118.693 300.967C119.209 300.572 119.854 300.375 120.627 300.375C121.475 300.375 122.141 300.604 122.625 301.061C123.109 301.518 123.352 302.086 123.352 302.766C123.352 303.152 123.281 303.521 123.141 303.873C123.004 304.221 122.785 304.586 122.484 304.969C122.285 305.223 121.926 305.588 121.406 306.064C120.887 306.541 120.557 306.857 120.416 307.014C120.279 307.17 120.168 307.322 120.082 307.471H123.352ZM127.254 300.375C128.086 300.375 128.736 300.672 129.205 301.266C129.764 301.969 130.043 303.135 130.043 304.764C130.043 306.389 129.762 307.557 129.199 308.268C128.734 308.854 128.086 309.146 127.254 309.146C126.418 309.146 125.744 308.826 125.232 308.186C124.721 307.541 124.465 306.395 124.465 304.746C124.465 303.129 124.746 301.965 125.309 301.254C125.773 300.668 126.422 300.375 127.254 300.375ZM127.254 301.74C127.055 301.74 126.877 301.805 126.721 301.934C126.564 302.059 126.443 302.285 126.357 302.613C126.244 303.039 126.188 303.756 126.188 304.764C126.188 305.771 126.238 306.465 126.34 306.844C126.441 307.219 126.568 307.469 126.721 307.594C126.877 307.719 127.055 307.781 127.254 307.781C127.453 307.781 127.631 307.719 127.787 307.594C127.943 307.465 128.064 307.236 128.15 306.908C128.264 306.486 128.32 305.771 128.32 304.764C128.32 303.756 128.27 303.064 128.168 302.689C128.066 302.311 127.938 302.059 127.781 301.934C127.629 301.805 127.453 301.74 127.254 301.74ZM136.711 307.471V309H130.939C131.002 308.422 131.189 307.875 131.502 307.359C131.814 306.84 132.432 306.152 133.354 305.297C134.096 304.605 134.551 304.137 134.719 303.891C134.945 303.551 135.059 303.215 135.059 302.883C135.059 302.516 134.959 302.234 134.76 302.039C134.564 301.84 134.293 301.74 133.945 301.74C133.602 301.74 133.328 301.844 133.125 302.051C132.922 302.258 132.805 302.602 132.773 303.082L131.133 302.918C131.23 302.012 131.537 301.361 132.053 300.967C132.568 300.572 133.213 300.375 133.986 300.375C134.834 300.375 135.5 300.604 135.984 301.061C136.469 301.518 136.711 302.086 136.711 302.766C136.711 303.152 136.641 303.521 136.5 303.873C136.363 304.221 136.145 304.586 135.844 304.969C135.645 305.223 135.285 305.588 134.766 306.064C134.246 306.541 133.916 306.857 133.775 307.014C133.639 307.17 133.527 307.322 133.441 307.471H136.711ZM137.771 306.721L139.365 306.527C139.416 306.934 139.553 307.244 139.775 307.459C139.998 307.674 140.268 307.781 140.584 307.781C140.924 307.781 141.209 307.652 141.439 307.395C141.674 307.137 141.791 306.789 141.791 306.352C141.791 305.938 141.68 305.609 141.457 305.367C141.234 305.125 140.963 305.004 140.643 305.004C140.432 305.004 140.18 305.045 139.887 305.127L140.068 303.785C140.514 303.797 140.854 303.701 141.088 303.498C141.322 303.291 141.439 303.018 141.439 302.678C141.439 302.389 141.354 302.158 141.182 301.986C141.01 301.814 140.781 301.729 140.496 301.729C140.215 301.729 139.975 301.826 139.775 302.021C139.576 302.217 139.455 302.502 139.412 302.877L137.895 302.619C138 302.1 138.158 301.686 138.369 301.377C138.584 301.064 138.881 300.82 139.26 300.645C139.643 300.465 140.07 300.375 140.543 300.375C141.352 300.375 142 300.633 142.488 301.148C142.891 301.57 143.092 302.047 143.092 302.578C143.092 303.332 142.68 303.934 141.855 304.383C142.348 304.488 142.74 304.725 143.033 305.092C143.33 305.459 143.479 305.902 143.479 306.422C143.479 307.176 143.203 307.818 142.652 308.35C142.102 308.881 141.416 309.146 140.596 309.146C139.818 309.146 139.174 308.924 138.662 308.479C138.15 308.029 137.854 307.443 137.771 306.721Z" fill="black"/>
</svg>
