<svg width="386" height="158" viewBox="0 0 386 158" fill="none" xmlns="http://www.w3.org/2000/svg">
<path d="M6.59668 6.04688H8.30566V12.6982C8.30566 13.4548 8.1416 14.0882 7.81348 14.5986C7.48535 15.109 7.03874 15.4941 6.47363 15.7539C5.91309 16.0091 5.28646 16.1367 4.59375 16.1367C3.87826 16.1367 3.24023 16.0091 2.67969 15.7539C2.11914 15.4941 1.67708 15.109 1.35352 14.5986C1.03451 14.0882 0.875 13.4548 0.875 12.6982V6.04688H2.58398V12.6982C2.58398 13.1768 2.66602 13.571 2.83008 13.8809C2.99414 14.1862 3.22656 14.4118 3.52734 14.5576C3.82812 14.7035 4.18359 14.7764 4.59375 14.7764C5.00391 14.7764 5.3571 14.7035 5.65332 14.5576C5.9541 14.4118 6.18652 14.1862 6.35059 13.8809C6.51465 13.571 6.59668 13.1768 6.59668 12.6982V6.04688ZM15.1282 13.4365C15.1282 13.2314 15.0963 13.0492 15.0325 12.8896C14.9733 12.7301 14.8662 12.5843 14.7112 12.4521C14.5563 12.32 14.3375 12.1924 14.055 12.0693C13.777 11.9417 13.4215 11.8118 12.9886 11.6797C12.5146 11.5339 12.0771 11.3721 11.6761 11.1943C11.2796 11.012 10.9332 10.8024 10.637 10.5654C10.3408 10.3239 10.1106 10.0482 9.94656 9.73828C9.7825 9.42383 9.70047 9.06152 9.70047 8.65137C9.70047 8.24577 9.78478 7.87663 9.9534 7.54395C10.1266 7.21126 10.3704 6.92415 10.6848 6.68262C11.0039 6.43652 11.3798 6.2474 11.8128 6.11523C12.2457 5.97852 12.7242 5.91016 13.2483 5.91016C13.9866 5.91016 14.6223 6.04688 15.1555 6.32031C15.6933 6.59375 16.1057 6.96061 16.3929 7.4209C16.6845 7.88118 16.8304 8.38932 16.8304 8.94531H15.1282C15.1282 8.61719 15.0576 8.3278 14.9163 8.07715C14.7796 7.82194 14.5699 7.62142 14.2874 7.47559C14.0094 7.32975 13.6562 7.25684 13.2278 7.25684C12.8222 7.25684 12.485 7.31836 12.2161 7.44141C11.9472 7.56445 11.7467 7.73079 11.6145 7.94043C11.4824 8.15007 11.4163 8.38704 11.4163 8.65137C11.4163 8.83822 11.4596 9.00911 11.5462 9.16406C11.6328 9.31445 11.7649 9.45573 11.9427 9.58789C12.1204 9.71549 12.3437 9.83626 12.6126 9.9502C12.8815 10.0641 13.1982 10.1735 13.5628 10.2783C14.1142 10.4424 14.595 10.6247 15.0052 10.8252C15.4153 11.0212 15.7571 11.2445 16.0305 11.4951C16.304 11.7458 16.5091 12.0306 16.6458 12.3496C16.7825 12.6641 16.8509 13.0218 16.8509 13.4229C16.8509 13.8421 16.7665 14.2204 16.5979 14.5576C16.4293 14.8903 16.1878 15.1751 15.8733 15.4121C15.5634 15.6445 15.1897 15.8245 14.7522 15.9521C14.3193 16.0752 13.8362 16.1367 13.303 16.1367C12.8245 16.1367 12.3528 16.0729 11.888 15.9453C11.4277 15.8177 11.0084 15.624 10.6302 15.3643C10.2519 15.0999 9.95112 14.7718 9.72781 14.3799C9.50451 13.9834 9.39285 13.5208 9.39285 12.9922H11.1087C11.1087 13.3158 11.1634 13.5915 11.2727 13.8193C11.3867 14.0472 11.5439 14.234 11.7444 14.3799C11.9449 14.5212 12.1774 14.626 12.4417 14.6943C12.7106 14.7627 12.9977 14.7969 13.303 14.7969C13.704 14.7969 14.039 14.7399 14.3079 14.626C14.5813 14.512 14.7864 14.3525 14.9231 14.1475C15.0598 13.9424 15.1282 13.7054 15.1282 13.4365ZM21.9644 7.37305L18.9908 16H17.1929L20.939 6.04688H22.0875L21.9644 7.37305ZM24.4527 16L21.4722 7.37305L21.3423 6.04688H22.4976L26.2574 16H24.4527ZM24.3091 12.3086V13.6689H18.8951V12.3086H24.3091Z" fill="black"/>
<path d="M158.608 12.4521V13.7646H151.431L151.376 12.7734L155.669 6.04688H156.988L155.56 8.49414L153.092 12.4521H158.608ZM157.364 6.04688V16H155.717V6.04688H157.364ZM164.406 5.98535H164.611V7.33203H164.494C163.907 7.33203 163.398 7.42318 162.97 7.60547C162.546 7.78776 162.198 8.03841 161.924 8.35742C161.651 8.67643 161.446 9.05013 161.309 9.47852C161.177 9.90234 161.111 10.3535 161.111 10.832V12.3975C161.111 12.7939 161.154 13.1449 161.241 13.4502C161.327 13.751 161.448 14.0039 161.603 14.209C161.762 14.4095 161.945 14.5622 162.15 14.667C162.355 14.7718 162.576 14.8242 162.813 14.8242C163.059 14.8242 163.282 14.7741 163.483 14.6738C163.683 14.569 163.854 14.4255 163.995 14.2432C164.137 14.0609 164.244 13.8444 164.317 13.5938C164.39 13.3431 164.426 13.0697 164.426 12.7734C164.426 12.4909 164.39 12.2266 164.317 11.9805C164.248 11.7298 164.146 11.5111 164.009 11.3242C163.872 11.1328 163.701 10.9847 163.496 10.8799C163.296 10.7705 163.063 10.7158 162.799 10.7158C162.471 10.7158 162.172 10.7933 161.904 10.9482C161.639 11.1032 161.425 11.306 161.261 11.5566C161.102 11.8027 161.015 12.0648 161.001 12.3428L160.372 12.1377C160.409 11.7139 160.502 11.3333 160.653 10.9961C160.808 10.6589 161.01 10.3717 161.261 10.1348C161.512 9.89779 161.801 9.71777 162.129 9.59473C162.462 9.46712 162.826 9.40332 163.223 9.40332C163.706 9.40332 164.125 9.49447 164.481 9.67676C164.836 9.85905 165.13 10.1074 165.363 10.4219C165.6 10.7318 165.775 11.0872 165.889 11.4883C166.007 11.8848 166.067 12.2995 166.067 12.7324C166.067 13.2109 165.994 13.6576 165.848 14.0723C165.702 14.4824 165.488 14.8424 165.205 15.1523C164.927 15.4622 164.588 15.7038 164.187 15.877C163.79 16.0501 163.339 16.1367 162.833 16.1367C162.3 16.1367 161.824 16.0342 161.405 15.8291C160.99 15.624 160.637 15.3415 160.345 14.9814C160.058 14.6214 159.839 14.2067 159.689 13.7373C159.538 13.2679 159.463 12.7712 159.463 12.2471V11.5635C159.463 10.807 159.559 10.0938 159.75 9.42383C159.942 8.74935 160.236 8.15462 160.632 7.63965C161.033 7.12467 161.546 6.72135 162.17 6.42969C162.795 6.13346 163.54 5.98535 164.406 5.98535ZM167.038 8.4873V7.96094C167.038 7.58268 167.12 7.23861 167.284 6.92871C167.448 6.61882 167.687 6.37044 168.002 6.18359C168.316 5.99674 168.694 5.90332 169.136 5.90332C169.592 5.90332 169.975 5.99674 170.285 6.18359C170.599 6.37044 170.838 6.61882 171.002 6.92871C171.167 7.23861 171.249 7.58268 171.249 7.96094V8.4873C171.249 8.85645 171.167 9.19596 171.002 9.50586C170.843 9.81576 170.606 10.0641 170.292 10.251C169.982 10.4378 169.601 10.5312 169.15 10.5312C168.703 10.5312 168.321 10.4378 168.002 10.251C167.687 10.0641 167.448 9.81576 167.284 9.50586C167.12 9.19596 167.038 8.85645 167.038 8.4873ZM168.179 7.96094V8.4873C168.179 8.6696 168.213 8.84277 168.282 9.00684C168.355 9.1709 168.464 9.30306 168.61 9.40332C168.756 9.50358 168.936 9.55371 169.15 9.55371C169.369 9.55371 169.546 9.50358 169.683 9.40332C169.824 9.30306 169.929 9.1709 169.998 9.00684C170.066 8.84277 170.1 8.6696 170.1 8.4873V7.96094C170.1 7.77409 170.064 7.59863 169.991 7.43457C169.922 7.26595 169.818 7.13151 169.676 7.03125C169.535 6.93099 169.355 6.88086 169.136 6.88086C168.927 6.88086 168.749 6.93099 168.603 7.03125C168.462 7.13151 168.355 7.26595 168.282 7.43457C168.213 7.59863 168.179 7.77409 168.179 7.96094ZM171.836 14.0928V13.5596C171.836 13.1859 171.919 12.8441 172.083 12.5342C172.251 12.2243 172.493 11.9759 172.807 11.7891C173.122 11.6022 173.5 11.5088 173.942 11.5088C174.398 11.5088 174.78 11.6022 175.09 11.7891C175.405 11.9759 175.642 12.2243 175.801 12.5342C175.965 12.8441 176.047 13.1859 176.047 13.5596V14.0928C176.047 14.4665 175.965 14.8083 175.801 15.1182C175.642 15.4281 175.407 15.6764 175.097 15.8633C174.787 16.0501 174.409 16.1436 173.962 16.1436C173.511 16.1436 173.126 16.0501 172.807 15.8633C172.493 15.6764 172.251 15.4281 172.083 15.1182C171.919 14.8083 171.836 14.4665 171.836 14.0928ZM172.985 13.5596V14.0928C172.985 14.2751 173.021 14.4482 173.094 14.6123C173.172 14.7764 173.283 14.9108 173.429 15.0156C173.575 15.1159 173.751 15.166 173.956 15.166C174.188 15.166 174.375 15.1159 174.516 15.0156C174.657 14.9108 174.758 14.7786 174.817 14.6191C174.881 14.4551 174.913 14.2796 174.913 14.0928V13.5596C174.913 13.3727 174.876 13.1973 174.803 13.0332C174.735 12.8691 174.628 12.737 174.482 12.6367C174.341 12.5365 174.161 12.4863 173.942 12.4863C173.728 12.4863 173.55 12.5365 173.409 12.6367C173.267 12.737 173.16 12.8691 173.087 13.0332C173.019 13.1973 172.985 13.3727 172.985 13.5596ZM174.352 7.46875L169.492 15.248L168.651 14.7627L173.511 6.9834L174.352 7.46875Z" fill="#BDBDBD"/>
<rect y="30" width="177" height="12" rx="6" fill="#F5F5F5"/>
<rect y="30" width="80.7443" height="12" rx="6" fill="#F54617"/>
<path d="M6.24805 71.4365C6.24805 71.2314 6.21615 71.0492 6.15234 70.8896C6.0931 70.7301 5.986 70.5843 5.83105 70.4521C5.67611 70.32 5.45736 70.1924 5.1748 70.0693C4.89681 69.9417 4.54134 69.8118 4.1084 69.6797C3.63444 69.5339 3.19694 69.3721 2.7959 69.1943C2.39941 69.012 2.05306 68.8024 1.75684 68.5654C1.46061 68.3239 1.23047 68.0482 1.06641 67.7383C0.902344 67.4238 0.820312 67.0615 0.820312 66.6514C0.820312 66.2458 0.904622 65.8766 1.07324 65.5439C1.24642 65.2113 1.49023 64.9242 1.80469 64.6826C2.1237 64.4365 2.49967 64.2474 2.93262 64.1152C3.36556 63.9785 3.84408 63.9102 4.36816 63.9102C5.10645 63.9102 5.74219 64.0469 6.27539 64.3203C6.81315 64.5938 7.22559 64.9606 7.5127 65.4209C7.80436 65.8812 7.9502 66.3893 7.9502 66.9453H6.24805C6.24805 66.6172 6.17741 66.3278 6.03613 66.0771C5.89941 65.8219 5.68978 65.6214 5.40723 65.4756C5.12923 65.3298 4.77604 65.2568 4.34766 65.2568C3.94206 65.2568 3.60482 65.3184 3.33594 65.4414C3.06706 65.5645 2.86654 65.7308 2.73438 65.9404C2.60221 66.1501 2.53613 66.387 2.53613 66.6514C2.53613 66.8382 2.57943 67.0091 2.66602 67.1641C2.7526 67.3145 2.88477 67.4557 3.0625 67.5879C3.24023 67.7155 3.46354 67.8363 3.73242 67.9502C4.0013 68.0641 4.31803 68.1735 4.68262 68.2783C5.23405 68.4424 5.71484 68.6247 6.125 68.8252C6.53516 69.0212 6.87695 69.2445 7.15039 69.4951C7.42383 69.7458 7.62891 70.0306 7.76562 70.3496C7.90234 70.6641 7.9707 71.0218 7.9707 71.4229C7.9707 71.8421 7.88639 72.2204 7.71777 72.5576C7.54915 72.8903 7.30762 73.1751 6.99316 73.4121C6.68327 73.6445 6.30957 73.8245 5.87207 73.9521C5.43913 74.0752 4.95605 74.1367 4.42285 74.1367C3.94434 74.1367 3.47266 74.0729 3.00781 73.9453C2.54753 73.8177 2.12826 73.624 1.75 73.3643C1.37174 73.0999 1.07096 72.7718 0.847656 72.3799C0.624349 71.9834 0.512695 71.5208 0.512695 70.9922H2.22852C2.22852 71.3158 2.2832 71.5915 2.39258 71.8193C2.50651 72.0472 2.66374 72.234 2.86426 72.3799C3.06478 72.5212 3.2972 72.626 3.56152 72.6943C3.8304 72.7627 4.11751 72.7969 4.42285 72.7969C4.82389 72.7969 5.15885 72.7399 5.42773 72.626C5.70117 72.512 5.90625 72.3525 6.04297 72.1475C6.17969 71.9424 6.24805 71.7054 6.24805 71.4365ZM10.6985 68.0254V76.8438H9.05105V66.6035H10.5686L10.6985 68.0254ZM15.5179 70.2334V70.377C15.5179 70.9147 15.454 71.4137 15.3264 71.874C15.2034 72.3298 15.0188 72.7285 14.7727 73.0703C14.5312 73.4076 14.2327 73.6696 13.8772 73.8564C13.5218 74.0433 13.1116 74.1367 12.6468 74.1367C12.1865 74.1367 11.7832 74.0524 11.4368 73.8838C11.095 73.7106 10.8056 73.4668 10.5686 73.1523C10.3317 72.8379 10.1402 72.4688 9.99441 72.0449C9.85314 71.6165 9.75288 71.1471 9.69363 70.6367V70.083C9.75288 69.5407 9.85314 69.0485 9.99441 68.6064C10.1402 68.1644 10.3317 67.7839 10.5686 67.4648C10.8056 67.1458 11.095 66.8997 11.4368 66.7266C11.7786 66.5534 12.1774 66.4668 12.6331 66.4668C13.0979 66.4668 13.5104 66.5579 13.8704 66.7402C14.2304 66.918 14.5335 67.1732 14.7796 67.5059C15.0257 67.834 15.2102 68.2305 15.3333 68.6953C15.4563 69.1556 15.5179 69.6683 15.5179 70.2334ZM13.8704 70.377V70.2334C13.8704 69.8916 13.8385 69.5749 13.7747 69.2832C13.7109 68.987 13.6106 68.7272 13.4739 68.5039C13.3372 68.2806 13.1617 68.1074 12.9475 67.9844C12.7379 67.8568 12.485 67.793 12.1888 67.793C11.8971 67.793 11.6464 67.8431 11.4368 67.9434C11.2272 68.0391 11.0517 68.1735 10.9104 68.3467C10.7692 68.5199 10.6598 68.7227 10.5823 68.9551C10.5048 69.1829 10.4501 69.4313 10.4182 69.7002V71.0264C10.4729 71.3545 10.5664 71.6553 10.6985 71.9287C10.8307 72.2021 11.0175 72.4209 11.2591 72.585C11.5052 72.7445 11.8196 72.8242 12.2024 72.8242C12.4986 72.8242 12.7516 72.7604 12.9612 72.6328C13.1708 72.5052 13.3417 72.3298 13.4739 72.1064C13.6106 71.8786 13.7109 71.6165 13.7747 71.3203C13.8385 71.0241 13.8704 70.7096 13.8704 70.377ZM20.8091 72.5166V68.9893C20.8091 68.7249 20.7613 68.4971 20.6656 68.3057C20.5699 68.1143 20.424 67.9661 20.2281 67.8613C20.0367 67.7565 19.7951 67.7041 19.5035 67.7041C19.2346 67.7041 19.0022 67.7497 18.8062 67.8408C18.6102 67.932 18.4576 68.055 18.3482 68.21C18.2388 68.3649 18.1841 68.5404 18.1841 68.7363H16.5435C16.5435 68.4447 16.6142 68.1621 16.7554 67.8887C16.8967 67.6152 17.1018 67.3714 17.3707 67.1572C17.6395 66.943 17.9608 66.7744 18.3345 66.6514C18.7082 66.5283 19.1275 66.4668 19.5923 66.4668C20.1483 66.4668 20.6405 66.5602 21.0689 66.7471C21.5018 66.9339 21.8414 67.2165 22.0875 67.5947C22.3381 67.9684 22.4634 68.4378 22.4634 69.0029V72.291C22.4634 72.6283 22.4862 72.9313 22.5318 73.2002C22.5819 73.4645 22.6526 73.6947 22.7437 73.8906V74H21.0552C20.9778 73.8223 20.9162 73.5967 20.8707 73.3232C20.8296 73.0452 20.8091 72.7764 20.8091 72.5166ZM21.0484 69.502L21.0621 70.5205H19.8795C19.5741 70.5205 19.3052 70.5501 19.0728 70.6094C18.8404 70.6641 18.6467 70.7461 18.4918 70.8555C18.3368 70.9648 18.2206 71.097 18.1431 71.252C18.0657 71.4069 18.0269 71.5824 18.0269 71.7783C18.0269 71.9743 18.0725 72.1543 18.1636 72.3184C18.2548 72.4779 18.3869 72.6032 18.5601 72.6943C18.7379 72.7855 18.952 72.8311 19.2027 72.8311C19.5399 72.8311 19.8339 72.7627 20.0845 72.626C20.3397 72.4847 20.5403 72.3138 20.6861 72.1133C20.8319 71.9082 20.9094 71.7145 20.9185 71.5322L21.4517 72.2637C21.397 72.4505 21.3036 72.651 21.1714 72.8652C21.0393 73.0794 20.8661 73.2845 20.6519 73.4805C20.4423 73.6719 20.1893 73.8291 19.8931 73.9521C19.6015 74.0752 19.2642 74.1367 18.8814 74.1367C18.3983 74.1367 17.9677 74.041 17.5894 73.8496C17.2112 73.6536 16.9149 73.3916 16.7007 73.0635C16.4865 72.7308 16.3795 72.3548 16.3795 71.9355C16.3795 71.5436 16.4524 71.1973 16.5982 70.8965C16.7486 70.5911 16.9673 70.3359 17.2545 70.1309C17.5461 69.9258 17.9016 69.7708 18.3209 69.666C18.7401 69.5566 19.2186 69.502 19.7564 69.502H21.0484ZM25.6698 66.6035V74H24.0155V66.6035H25.6698ZM23.9061 64.6621C23.9061 64.4115 23.9881 64.2041 24.1522 64.04C24.3208 63.8714 24.5532 63.7871 24.8495 63.7871C25.1411 63.7871 25.3713 63.8714 25.5399 64.04C25.7085 64.2041 25.7928 64.4115 25.7928 64.6621C25.7928 64.9082 25.7085 65.1133 25.5399 65.2773C25.3713 65.4414 25.1411 65.5234 24.8495 65.5234C24.5532 65.5234 24.3208 65.4414 24.1522 65.2773C23.9881 65.1133 23.9061 64.9082 23.9061 64.6621ZM28.8282 68.1826V74H27.1808V66.6035H28.7325L28.8282 68.1826ZM28.5343 70.0283L28.0011 70.0215C28.0057 69.4974 28.0786 69.0166 28.2198 68.5791C28.3657 68.1416 28.5662 67.7656 28.8214 67.4512C29.0812 67.1367 29.3911 66.8952 29.7511 66.7266C30.1111 66.5534 30.5122 66.4668 30.9542 66.4668C31.3097 66.4668 31.631 66.5169 31.9181 66.6172C32.2098 66.7129 32.4581 66.8701 32.6632 67.0889C32.8728 67.3076 33.0323 67.5924 33.1417 67.9434C33.2511 68.2897 33.3058 68.7158 33.3058 69.2217V74H31.6515V69.2148C31.6515 68.8594 31.5991 68.5791 31.4943 68.374C31.394 68.1644 31.2459 68.0163 31.0499 67.9297C30.8585 67.8385 30.6193 67.793 30.3321 67.793C30.0496 67.793 29.7967 67.8522 29.5734 67.9707C29.3501 68.0892 29.1609 68.251 29.006 68.4561C28.8556 68.6611 28.7394 68.8981 28.6573 69.167C28.5753 69.4359 28.5343 69.723 28.5343 70.0283Z" fill="black"/>
<path d="M156.25 64.0127V74H154.603V65.9678L152.162 66.7949V65.4346L156.052 64.0127H156.25ZM166.039 64.0469V64.9492L162.061 74H160.324L164.296 65.3594H159.142V64.0469H166.039ZM167.038 66.4873V65.9609C167.038 65.5827 167.12 65.2386 167.284 64.9287C167.448 64.6188 167.687 64.3704 168.002 64.1836C168.316 63.9967 168.694 63.9033 169.136 63.9033C169.592 63.9033 169.975 63.9967 170.285 64.1836C170.599 64.3704 170.838 64.6188 171.002 64.9287C171.167 65.2386 171.249 65.5827 171.249 65.9609V66.4873C171.249 66.8564 171.167 67.196 171.002 67.5059C170.843 67.8158 170.606 68.0641 170.292 68.251C169.982 68.4378 169.601 68.5312 169.15 68.5312C168.703 68.5312 168.321 68.4378 168.002 68.251C167.687 68.0641 167.448 67.8158 167.284 67.5059C167.12 67.196 167.038 66.8564 167.038 66.4873ZM168.179 65.9609V66.4873C168.179 66.6696 168.213 66.8428 168.282 67.0068C168.355 67.1709 168.464 67.3031 168.61 67.4033C168.756 67.5036 168.936 67.5537 169.15 67.5537C169.369 67.5537 169.546 67.5036 169.683 67.4033C169.824 67.3031 169.929 67.1709 169.998 67.0068C170.066 66.8428 170.1 66.6696 170.1 66.4873V65.9609C170.1 65.7741 170.064 65.5986 169.991 65.4346C169.922 65.266 169.818 65.1315 169.676 65.0312C169.535 64.931 169.355 64.8809 169.136 64.8809C168.927 64.8809 168.749 64.931 168.603 65.0312C168.462 65.1315 168.355 65.266 168.282 65.4346C168.213 65.5986 168.179 65.7741 168.179 65.9609ZM171.836 72.0928V71.5596C171.836 71.1859 171.919 70.8441 172.083 70.5342C172.251 70.2243 172.493 69.9759 172.807 69.7891C173.122 69.6022 173.5 69.5088 173.942 69.5088C174.398 69.5088 174.78 69.6022 175.09 69.7891C175.405 69.9759 175.642 70.2243 175.801 70.5342C175.965 70.8441 176.047 71.1859 176.047 71.5596V72.0928C176.047 72.4665 175.965 72.8083 175.801 73.1182C175.642 73.4281 175.407 73.6764 175.097 73.8633C174.787 74.0501 174.409 74.1436 173.962 74.1436C173.511 74.1436 173.126 74.0501 172.807 73.8633C172.493 73.6764 172.251 73.4281 172.083 73.1182C171.919 72.8083 171.836 72.4665 171.836 72.0928ZM172.985 71.5596V72.0928C172.985 72.2751 173.021 72.4482 173.094 72.6123C173.172 72.7764 173.283 72.9108 173.429 73.0156C173.575 73.1159 173.751 73.166 173.956 73.166C174.188 73.166 174.375 73.1159 174.516 73.0156C174.657 72.9108 174.758 72.7786 174.817 72.6191C174.881 72.4551 174.913 72.2796 174.913 72.0928V71.5596C174.913 71.3727 174.876 71.1973 174.803 71.0332C174.735 70.8691 174.628 70.737 174.482 70.6367C174.341 70.5365 174.161 70.4863 173.942 70.4863C173.728 70.4863 173.55 70.5365 173.409 70.6367C173.267 70.737 173.16 70.8691 173.087 71.0332C173.019 71.1973 172.985 71.3727 172.985 71.5596ZM174.352 65.4688L169.492 73.248L168.651 72.7627L173.511 64.9834L174.352 65.4688Z" fill="#BDBDBD"/>
<rect y="88" width="177" height="12" rx="6" fill="#F5F5F5"/>
<rect y="88" width="18.88" height="12" rx="6" fill="#F54617"/>
<path d="M6.59668 122.047H8.30566V128.698C8.30566 129.455 8.1416 130.088 7.81348 130.599C7.48535 131.109 7.03874 131.494 6.47363 131.754C5.91309 132.009 5.28646 132.137 4.59375 132.137C3.87826 132.137 3.24023 132.009 2.67969 131.754C2.11914 131.494 1.67708 131.109 1.35352 130.599C1.03451 130.088 0.875 129.455 0.875 128.698V122.047H2.58398V128.698C2.58398 129.177 2.66602 129.571 2.83008 129.881C2.99414 130.186 3.22656 130.412 3.52734 130.558C3.82812 130.703 4.18359 130.776 4.59375 130.776C5.00391 130.776 5.3571 130.703 5.65332 130.558C5.9541 130.412 6.18652 130.186 6.35059 129.881C6.51465 129.571 6.59668 129.177 6.59668 128.698V122.047ZM11.3616 126.183V132H9.71414V124.604H11.2659L11.3616 126.183ZM11.0677 128.028L10.5345 128.021C10.539 127.497 10.6119 127.017 10.7532 126.579C10.899 126.142 11.0996 125.766 11.3548 125.451C11.6145 125.137 11.9244 124.895 12.2845 124.727C12.6445 124.553 13.0455 124.467 13.4876 124.467C13.843 124.467 14.1643 124.517 14.4514 124.617C14.7431 124.713 14.9915 124.87 15.1966 125.089C15.4062 125.308 15.5657 125.592 15.6751 125.943C15.7845 126.29 15.8391 126.716 15.8391 127.222V132H14.1848V127.215C14.1848 126.859 14.1324 126.579 14.0276 126.374C13.9274 126.164 13.7792 126.016 13.5833 125.93C13.3919 125.839 13.1526 125.793 12.8655 125.793C12.583 125.793 12.33 125.852 12.1067 125.971C11.8834 126.089 11.6943 126.251 11.5393 126.456C11.3889 126.661 11.2727 126.898 11.1907 127.167C11.1087 127.436 11.0677 127.723 11.0677 128.028ZM19.0045 124.604V132H17.3502V124.604H19.0045ZM17.2408 122.662C17.2408 122.411 17.3228 122.204 17.4869 122.04C17.6555 121.871 17.8879 121.787 18.1841 121.787C18.4758 121.787 18.706 121.871 18.8746 122.04C19.0432 122.204 19.1275 122.411 19.1275 122.662C19.1275 122.908 19.0432 123.113 18.8746 123.277C18.706 123.441 18.4758 123.523 18.1841 123.523C17.8879 123.523 17.6555 123.441 17.4869 123.277C17.3228 123.113 17.2408 122.908 17.2408 122.662ZM23.9198 124.604V125.807H19.7498V124.604H23.9198ZM20.953 122.792H22.6004V129.956C22.6004 130.184 22.6323 130.359 22.6961 130.482C22.7645 130.601 22.8579 130.681 22.9764 130.722C23.0949 130.763 23.2339 130.783 23.3934 130.783C23.5073 130.783 23.6167 130.776 23.7215 130.763C23.8263 130.749 23.9107 130.735 23.9745 130.722L23.9813 131.979C23.8446 132.021 23.6851 132.057 23.5028 132.089C23.325 132.121 23.12 132.137 22.8875 132.137C22.5093 132.137 22.1743 132.071 21.8827 131.938C21.591 131.802 21.3631 131.581 21.1991 131.275C21.035 130.97 20.953 130.564 20.953 130.059V122.792ZM28.172 132.137C27.6251 132.137 27.1307 132.048 26.6886 131.87C26.2511 131.688 25.8774 131.435 25.5675 131.111C25.2622 130.788 25.0275 130.407 24.8634 129.97C24.6993 129.532 24.6173 129.061 24.6173 128.555V128.281C24.6173 127.702 24.7016 127.178 24.8702 126.709C25.0389 126.24 25.2736 125.839 25.5743 125.506C25.8751 125.169 26.2306 124.911 26.6407 124.733C27.0509 124.556 27.4952 124.467 27.9737 124.467C28.5024 124.467 28.965 124.556 29.3614 124.733C29.7579 124.911 30.0861 125.162 30.3458 125.485C30.6101 125.804 30.8061 126.185 30.9337 126.627C31.0659 127.069 31.132 127.557 31.132 128.09V128.794H25.4171V127.611H29.505V127.481C29.4959 127.185 29.4366 126.907 29.3273 126.647C29.2224 126.388 29.0607 126.178 28.8419 126.019C28.6232 125.859 28.3315 125.779 27.9669 125.779C27.6935 125.779 27.4497 125.839 27.2355 125.957C27.0258 126.071 26.8504 126.237 26.7091 126.456C26.5678 126.675 26.4584 126.939 26.381 127.249C26.3081 127.554 26.2716 127.898 26.2716 128.281V128.555C26.2716 128.878 26.3149 129.179 26.4015 129.457C26.4926 129.73 26.6248 129.97 26.798 130.175C26.9711 130.38 27.1808 130.542 27.4269 130.66C27.673 130.774 27.9532 130.831 28.2677 130.831C28.6642 130.831 29.0174 130.751 29.3273 130.592C29.6372 130.432 29.906 130.207 30.1339 129.915L31.0021 130.756C30.8426 130.988 30.6352 131.212 30.38 131.426C30.1248 131.635 29.8126 131.806 29.4435 131.938C29.0789 132.071 28.6551 132.137 28.172 132.137ZM36.6488 130.469V121.5H38.3031V132H36.8061L36.6488 130.469ZM31.8363 128.384V128.24C31.8363 127.68 31.9024 127.169 32.0346 126.709C32.1667 126.244 32.3581 125.845 32.6088 125.513C32.8594 125.175 33.1648 124.918 33.5248 124.74C33.8848 124.558 34.2904 124.467 34.7416 124.467C35.1882 124.467 35.5801 124.553 35.9174 124.727C36.2546 124.9 36.5417 125.148 36.7787 125.472C37.0157 125.791 37.2048 126.174 37.3461 126.62C37.4874 127.062 37.5876 127.554 37.6469 128.097V128.555C37.5876 129.083 37.4874 129.566 37.3461 130.004C37.2048 130.441 37.0157 130.82 36.7787 131.139C36.5417 131.458 36.2523 131.704 35.9105 131.877C35.5733 132.05 35.1791 132.137 34.7279 132.137C34.2813 132.137 33.878 132.043 33.518 131.856C33.1625 131.67 32.8594 131.408 32.6088 131.07C32.3581 130.733 32.1667 130.337 32.0346 129.881C31.9024 129.421 31.8363 128.922 31.8363 128.384ZM33.4838 128.24V128.384C33.4838 128.721 33.5134 129.035 33.5727 129.327C33.6365 129.619 33.7344 129.876 33.8666 130.1C33.9988 130.318 34.1697 130.492 34.3793 130.619C34.5935 130.742 34.8487 130.804 35.1449 130.804C35.5186 130.804 35.8262 130.722 36.0678 130.558C36.3093 130.394 36.4984 130.173 36.6352 129.895C36.7764 129.612 36.8721 129.298 36.9223 128.951V127.714C36.8949 127.445 36.838 127.194 36.7514 126.962C36.6693 126.729 36.5577 126.527 36.4164 126.354C36.2751 126.176 36.0997 126.039 35.89 125.943C35.685 125.843 35.4411 125.793 35.1586 125.793C34.8578 125.793 34.6026 125.857 34.393 125.984C34.1833 126.112 34.0102 126.287 33.8734 126.511C33.7413 126.734 33.6433 126.994 33.5795 127.29C33.5157 127.586 33.4838 127.903 33.4838 128.24ZM44.6132 121.5V132H42.9589V121.5H44.6132ZM49.207 124.604L45.9873 128.172L44.2236 129.977L43.7929 128.582L45.1259 126.935L47.2177 124.604H49.207ZM47.5732 132L45.1738 128.527L46.2129 127.372L49.4804 132H47.5732ZM51.7366 124.604V132H50.0823V124.604H51.7366ZM49.9729 122.662C49.9729 122.411 50.0549 122.204 50.219 122.04C50.3876 121.871 50.62 121.787 50.9162 121.787C51.2079 121.787 51.4381 121.871 51.6067 122.04C51.7753 122.204 51.8596 122.411 51.8596 122.662C51.8596 122.908 51.7753 123.113 51.6067 123.277C51.4381 123.441 51.2079 123.523 50.9162 123.523C50.62 123.523 50.3876 123.441 50.219 123.277C50.0549 123.113 49.9729 122.908 49.9729 122.662ZM54.895 126.183V132H53.2476V124.604H54.7993L54.895 126.183ZM54.6011 128.028L54.0679 128.021C54.0724 127.497 54.1454 127.017 54.2866 126.579C54.4325 126.142 54.633 125.766 54.8882 125.451C55.148 125.137 55.4579 124.895 55.8179 124.727C56.1779 124.553 56.579 124.467 57.021 124.467C57.3765 124.467 57.6978 124.517 57.9849 124.617C58.2765 124.713 58.5249 124.87 58.73 125.089C58.9396 125.308 59.0991 125.592 59.2085 125.943C59.3179 126.29 59.3726 126.716 59.3726 127.222V132H57.7183V127.215C57.7183 126.859 57.6659 126.579 57.5611 126.374C57.4608 126.164 57.3127 126.016 57.1167 125.93C56.9253 125.839 56.6861 125.793 56.3989 125.793C56.1164 125.793 55.8635 125.852 55.6402 125.971C55.4168 126.089 55.2277 126.251 55.0728 126.456C54.9224 126.661 54.8062 126.898 54.7241 127.167C54.6421 127.436 54.6011 127.723 54.6011 128.028ZM65.5115 124.604H67.0086V131.795C67.0086 132.46 66.8673 133.025 66.5848 133.49C66.3022 133.955 65.908 134.308 65.4021 134.55C64.8963 134.796 64.3107 134.919 63.6453 134.919C63.3628 134.919 63.0483 134.878 62.702 134.796C62.3602 134.714 62.0275 134.582 61.7039 134.399C61.3849 134.222 61.1183 133.987 60.9041 133.695L61.6766 132.725C61.9409 133.039 62.2326 133.269 62.5516 133.415C62.8706 133.561 63.2055 133.634 63.5564 133.634C63.9347 133.634 64.256 133.563 64.5203 133.422C64.7892 133.285 64.9966 133.082 65.1424 132.813C65.2882 132.545 65.3611 132.216 65.3611 131.829V126.278L65.5115 124.604ZM60.4871 128.384V128.24C60.4871 127.68 60.5555 127.169 60.6922 126.709C60.8289 126.244 61.0249 125.845 61.2801 125.513C61.5353 125.175 61.8452 124.918 62.2098 124.74C62.5743 124.558 62.9868 124.467 63.4471 124.467C63.9256 124.467 64.3335 124.553 64.6707 124.727C65.0125 124.9 65.2973 125.148 65.5252 125.472C65.7531 125.791 65.9308 126.174 66.0584 126.62C66.1906 127.062 66.2885 127.554 66.3523 128.097V128.555C66.2931 129.083 66.1928 129.566 66.0516 130.004C65.9103 130.441 65.7234 130.82 65.491 131.139C65.2586 131.458 64.9715 131.704 64.6297 131.877C64.2924 132.05 63.8937 132.137 63.4334 132.137C62.9822 132.137 62.5743 132.043 62.2098 131.856C61.8497 131.67 61.5398 131.408 61.2801 131.07C61.0249 130.733 60.8289 130.337 60.6922 129.881C60.5555 129.421 60.4871 128.922 60.4871 128.384ZM62.1346 128.24V128.384C62.1346 128.721 62.1665 129.035 62.2303 129.327C62.2986 129.619 62.4012 129.876 62.5379 130.1C62.6792 130.318 62.8569 130.492 63.0711 130.619C63.2898 130.742 63.5473 130.804 63.8436 130.804C64.2309 130.804 64.5477 130.722 64.7938 130.558C65.0444 130.394 65.2358 130.173 65.368 129.895C65.5047 129.612 65.6004 129.298 65.6551 128.951V127.714C65.6277 127.445 65.5708 127.194 65.4842 126.962C65.4021 126.729 65.2905 126.527 65.1492 126.354C65.0079 126.176 64.8302 126.039 64.616 125.943C64.4018 125.843 64.1489 125.793 63.8572 125.793C63.561 125.793 63.3035 125.857 63.0848 125.984C62.866 126.112 62.686 126.287 62.5447 126.511C62.408 126.734 62.3055 126.994 62.2371 127.29C62.1688 127.586 62.1346 127.903 62.1346 128.24ZM72.9493 130.469V121.5H74.6036V132H73.1065L72.9493 130.469ZM68.1368 128.384V128.24C68.1368 127.68 68.2029 127.169 68.335 126.709C68.4672 126.244 68.6586 125.845 68.9093 125.513C69.1599 125.175 69.4652 124.918 69.8253 124.74C70.1853 124.558 70.5909 124.467 71.0421 124.467C71.4887 124.467 71.8806 124.553 72.2178 124.727C72.5551 124.9 72.8422 125.148 73.0792 125.472C73.3162 125.791 73.5053 126.174 73.6466 126.62C73.7878 127.062 73.8881 127.554 73.9473 128.097V128.555C73.8881 129.083 73.7878 129.566 73.6466 130.004C73.5053 130.441 73.3162 130.82 73.0792 131.139C72.8422 131.458 72.5528 131.704 72.211 131.877C71.8738 132.05 71.4796 132.137 71.0284 132.137C70.5818 132.137 70.1785 132.043 69.8184 131.856C69.463 131.67 69.1599 131.408 68.9093 131.07C68.6586 130.733 68.4672 130.337 68.335 129.881C68.2029 129.421 68.1368 128.922 68.1368 128.384ZM69.7843 128.24V128.384C69.7843 128.721 69.8139 129.035 69.8731 129.327C69.9369 129.619 70.0349 129.876 70.1671 130.1C70.2992 130.318 70.4701 130.492 70.6798 130.619C70.894 130.742 71.1492 130.804 71.4454 130.804C71.8191 130.804 72.1267 130.722 72.3682 130.558C72.6098 130.394 72.7989 130.173 72.9356 129.895C73.0769 129.612 73.1726 129.298 73.2227 128.951V127.714C73.1954 127.445 73.1384 127.194 73.0518 126.962C72.9698 126.729 72.8581 126.527 72.7169 126.354C72.5756 126.176 72.4001 126.039 72.1905 125.943C71.9854 125.843 71.7416 125.793 71.4591 125.793C71.1583 125.793 70.9031 125.857 70.6934 125.984C70.4838 126.112 70.3106 126.287 70.1739 126.511C70.0417 126.734 69.9438 126.994 69.88 127.29C69.8162 127.586 69.7843 127.903 69.7843 128.24ZM75.7318 128.384V128.227C75.7318 127.693 75.8093 127.199 75.9642 126.743C76.1192 126.283 76.3425 125.884 76.6341 125.547C76.9304 125.205 77.2904 124.941 77.7142 124.754C78.1426 124.562 78.6257 124.467 79.1634 124.467C79.7058 124.467 80.1888 124.562 80.6127 124.754C81.041 124.941 81.4033 125.205 81.6996 125.547C81.9958 125.884 82.2214 126.283 82.3763 126.743C82.5313 127.199 82.6087 127.693 82.6087 128.227V128.384C82.6087 128.917 82.5313 129.411 82.3763 129.867C82.2214 130.323 81.9958 130.722 81.6996 131.063C81.4033 131.401 81.0433 131.665 80.6195 131.856C80.1957 132.043 79.7149 132.137 79.1771 132.137C78.6348 132.137 78.1494 132.043 77.7211 131.856C77.2972 131.665 76.9372 131.401 76.641 131.063C76.3448 130.722 76.1192 130.323 75.9642 129.867C75.8093 129.411 75.7318 128.917 75.7318 128.384ZM77.3793 128.227V128.384C77.3793 128.716 77.4134 129.031 77.4818 129.327C77.5502 129.623 77.6573 129.883 77.8031 130.106C77.9489 130.33 78.1358 130.505 78.3636 130.633C78.5915 130.76 78.8627 130.824 79.1771 130.824C79.4824 130.824 79.7468 130.76 79.9701 130.633C80.1979 130.505 80.3848 130.33 80.5306 130.106C80.6765 129.883 80.7836 129.623 80.8519 129.327C80.9248 129.031 80.9613 128.716 80.9613 128.384V128.227C80.9613 127.898 80.9248 127.589 80.8519 127.297C80.7836 127.001 80.6742 126.739 80.5238 126.511C80.378 126.283 80.1911 126.105 79.9632 125.978C79.7399 125.845 79.4733 125.779 79.1634 125.779C78.8535 125.779 78.5847 125.845 78.3568 125.978C78.1335 126.105 77.9489 126.283 77.8031 126.511C77.6573 126.739 77.5502 127.001 77.4818 127.297C77.4134 127.589 77.3793 127.898 77.3793 128.227ZM85.3571 126.107V132H83.7096V124.604H85.2614L85.3571 126.107ZM85.0905 128.028L84.5299 128.021C84.5299 127.511 84.5937 127.039 84.7213 126.606C84.8489 126.174 85.0358 125.798 85.2819 125.479C85.528 125.155 85.8333 124.907 86.1979 124.733C86.567 124.556 86.9931 124.467 87.4762 124.467C87.8135 124.467 88.1211 124.517 88.3991 124.617C88.6816 124.713 88.9254 124.866 89.1305 125.075C89.3401 125.285 89.4996 125.554 89.609 125.882C89.723 126.21 89.7799 126.606 89.7799 127.071V132H88.1325V127.215C88.1325 126.855 88.0778 126.572 87.9684 126.367C87.8636 126.162 87.7109 126.016 87.5104 125.93C87.3144 125.839 87.0797 125.793 86.8063 125.793C86.4964 125.793 86.2321 125.852 86.0133 125.971C85.7991 126.089 85.6237 126.251 85.487 126.456C85.3502 126.661 85.25 126.898 85.1862 127.167C85.1224 127.436 85.0905 127.723 85.0905 128.028ZM89.6774 127.591L88.9049 127.762C88.9049 127.315 88.9664 126.894 89.0895 126.497C89.2171 126.096 89.4017 125.745 89.6432 125.444C89.8893 125.139 90.1924 124.9 90.5524 124.727C90.9124 124.553 91.3248 124.467 91.7897 124.467C92.1679 124.467 92.5052 124.519 92.8014 124.624C93.1022 124.724 93.3574 124.884 93.567 125.103C93.7767 125.321 93.9362 125.606 94.0455 125.957C94.1549 126.303 94.2096 126.723 94.2096 127.215V132H92.5553V127.208C92.5553 126.834 92.5006 126.545 92.3913 126.34C92.2864 126.135 92.136 125.993 91.9401 125.916C91.7441 125.834 91.5094 125.793 91.236 125.793C90.9808 125.793 90.7552 125.841 90.5592 125.937C90.3678 126.028 90.206 126.158 90.0739 126.326C89.9417 126.49 89.8414 126.679 89.7731 126.894C89.7093 127.108 89.6774 127.34 89.6774 127.591Z" fill="black"/>
<path d="M164.729 121.985H164.934V123.332H164.817C164.229 123.332 163.721 123.423 163.293 123.605C162.869 123.788 162.521 124.038 162.247 124.357C161.974 124.676 161.769 125.05 161.632 125.479C161.5 125.902 161.434 126.354 161.434 126.832V128.397C161.434 128.794 161.477 129.145 161.563 129.45C161.65 129.751 161.771 130.004 161.926 130.209C162.085 130.41 162.268 130.562 162.473 130.667C162.678 130.772 162.899 130.824 163.136 130.824C163.382 130.824 163.605 130.774 163.806 130.674C164.006 130.569 164.177 130.425 164.318 130.243C164.46 130.061 164.567 129.844 164.64 129.594C164.713 129.343 164.749 129.07 164.749 128.773C164.749 128.491 164.713 128.227 164.64 127.98C164.571 127.73 164.469 127.511 164.332 127.324C164.195 127.133 164.024 126.985 163.819 126.88C163.619 126.771 163.386 126.716 163.122 126.716C162.794 126.716 162.495 126.793 162.227 126.948C161.962 127.103 161.748 127.306 161.584 127.557C161.424 127.803 161.338 128.065 161.324 128.343L160.695 128.138C160.732 127.714 160.825 127.333 160.976 126.996C161.131 126.659 161.333 126.372 161.584 126.135C161.835 125.898 162.124 125.718 162.452 125.595C162.785 125.467 163.149 125.403 163.546 125.403C164.029 125.403 164.448 125.494 164.804 125.677C165.159 125.859 165.453 126.107 165.686 126.422C165.923 126.732 166.098 127.087 166.212 127.488C166.33 127.885 166.39 128.299 166.39 128.732C166.39 129.211 166.317 129.658 166.171 130.072C166.025 130.482 165.811 130.842 165.528 131.152C165.25 131.462 164.911 131.704 164.51 131.877C164.113 132.05 163.662 132.137 163.156 132.137C162.623 132.137 162.147 132.034 161.728 131.829C161.313 131.624 160.96 131.341 160.668 130.981C160.381 130.621 160.162 130.207 160.012 129.737C159.861 129.268 159.786 128.771 159.786 128.247V127.563C159.786 126.807 159.882 126.094 160.073 125.424C160.265 124.749 160.559 124.155 160.955 123.64C161.356 123.125 161.869 122.721 162.493 122.43C163.118 122.133 163.863 121.985 164.729 121.985ZM167.361 124.487V123.961C167.361 123.583 167.443 123.239 167.607 122.929C167.771 122.619 168.01 122.37 168.324 122.184C168.639 121.997 169.017 121.903 169.459 121.903C169.915 121.903 170.298 121.997 170.608 122.184C170.922 122.37 171.161 122.619 171.325 122.929C171.49 123.239 171.572 123.583 171.572 123.961V124.487C171.572 124.856 171.49 125.196 171.325 125.506C171.166 125.816 170.929 126.064 170.615 126.251C170.305 126.438 169.924 126.531 169.473 126.531C169.026 126.531 168.644 126.438 168.324 126.251C168.01 126.064 167.771 125.816 167.607 125.506C167.443 125.196 167.361 124.856 167.361 124.487ZM168.502 123.961V124.487C168.502 124.67 168.536 124.843 168.605 125.007C168.678 125.171 168.787 125.303 168.933 125.403C169.079 125.504 169.259 125.554 169.473 125.554C169.692 125.554 169.869 125.504 170.006 125.403C170.147 125.303 170.252 125.171 170.321 125.007C170.389 124.843 170.423 124.67 170.423 124.487V123.961C170.423 123.774 170.387 123.599 170.314 123.435C170.245 123.266 170.141 123.132 169.999 123.031C169.858 122.931 169.678 122.881 169.459 122.881C169.25 122.881 169.072 122.931 168.926 123.031C168.785 123.132 168.678 123.266 168.605 123.435C168.536 123.599 168.502 123.774 168.502 123.961ZM172.159 130.093V129.56C172.159 129.186 172.241 128.844 172.406 128.534C172.574 128.224 172.816 127.976 173.13 127.789C173.445 127.602 173.823 127.509 174.265 127.509C174.721 127.509 175.103 127.602 175.413 127.789C175.728 127.976 175.965 128.224 176.124 128.534C176.288 128.844 176.37 129.186 176.37 129.56V130.093C176.37 130.466 176.288 130.808 176.124 131.118C175.965 131.428 175.73 131.676 175.42 131.863C175.11 132.05 174.732 132.144 174.285 132.144C173.834 132.144 173.449 132.05 173.13 131.863C172.816 131.676 172.574 131.428 172.406 131.118C172.241 130.808 172.159 130.466 172.159 130.093ZM173.308 129.56V130.093C173.308 130.275 173.344 130.448 173.417 130.612C173.495 130.776 173.606 130.911 173.752 131.016C173.898 131.116 174.074 131.166 174.279 131.166C174.511 131.166 174.698 131.116 174.839 131.016C174.98 130.911 175.081 130.779 175.14 130.619C175.204 130.455 175.236 130.28 175.236 130.093V129.56C175.236 129.373 175.199 129.197 175.126 129.033C175.058 128.869 174.951 128.737 174.805 128.637C174.664 128.536 174.484 128.486 174.265 128.486C174.051 128.486 173.873 128.536 173.732 128.637C173.59 128.737 173.483 128.869 173.41 129.033C173.342 129.197 173.308 129.373 173.308 129.56ZM174.675 123.469L169.815 131.248L168.974 130.763L173.834 122.983L174.675 123.469Z" fill="#BDBDBD"/>
<rect y="146" width="177" height="12" rx="6" fill="#F5F5F5"/>
<rect y="146" width="7.86667" height="12" rx="3.93333" fill="#F54617"/>
<path d="M215.891 12.7598H217.6C217.545 13.4115 217.363 13.9925 217.053 14.5029C216.743 15.0088 216.308 15.4076 215.747 15.6992C215.187 15.9909 214.505 16.1367 213.703 16.1367C213.088 16.1367 212.534 16.0273 212.042 15.8086C211.55 15.5853 211.128 15.2708 210.777 14.8652C210.426 14.4551 210.158 13.9606 209.971 13.3818C209.788 12.8031 209.697 12.1559 209.697 11.4404V10.6133C209.697 9.89779 209.791 9.25065 209.978 8.67188C210.169 8.0931 210.442 7.59863 210.798 7.18848C211.153 6.77376 211.579 6.45703 212.076 6.23828C212.577 6.01953 213.14 5.91016 213.765 5.91016C214.558 5.91016 215.228 6.05599 215.774 6.34766C216.321 6.63932 216.745 7.04264 217.046 7.55762C217.351 8.07259 217.538 8.66276 217.606 9.32812H215.897C215.852 8.89974 215.752 8.53288 215.597 8.22754C215.446 7.9222 215.223 7.68978 214.927 7.53027C214.631 7.36621 214.243 7.28418 213.765 7.28418C213.373 7.28418 213.031 7.3571 212.739 7.50293C212.448 7.64876 212.204 7.86296 212.008 8.14551C211.812 8.42806 211.664 8.77669 211.563 9.19141C211.468 9.60156 211.42 10.071 211.42 10.5996V11.4404C211.42 11.9417 211.463 12.3975 211.55 12.8076C211.641 13.2132 211.778 13.5618 211.96 13.8535C212.147 14.1452 212.384 14.3708 212.671 14.5303C212.958 14.6898 213.302 14.7695 213.703 14.7695C214.191 14.7695 214.585 14.6921 214.886 14.5371C215.191 14.3822 215.421 14.1566 215.576 13.8604C215.736 13.5596 215.84 13.1927 215.891 12.7598ZM222.884 14.5166V10.9893C222.884 10.7249 222.836 10.4971 222.741 10.3057C222.645 10.1143 222.499 9.96615 222.303 9.86133C222.112 9.75651 221.87 9.7041 221.578 9.7041C221.31 9.7041 221.077 9.74967 220.881 9.84082C220.685 9.93197 220.533 10.055 220.423 10.21C220.314 10.3649 220.259 10.5404 220.259 10.7363H218.618C218.618 10.4447 218.689 10.1621 218.83 9.88867C218.972 9.61523 219.177 9.37142 219.446 9.15723C219.714 8.94303 220.036 8.77441 220.409 8.65137C220.783 8.52832 221.202 8.4668 221.667 8.4668C222.223 8.4668 222.715 8.56022 223.144 8.74707C223.577 8.93392 223.916 9.21647 224.162 9.59473C224.413 9.96842 224.538 10.4378 224.538 11.0029V14.291C224.538 14.6283 224.561 14.9313 224.607 15.2002C224.657 15.4645 224.727 15.6947 224.819 15.8906V16H223.13C223.053 15.8223 222.991 15.5967 222.946 15.3232C222.905 15.0452 222.884 14.7764 222.884 14.5166ZM223.123 11.502L223.137 12.5205H221.954C221.649 12.5205 221.38 12.5501 221.148 12.6094C220.915 12.6641 220.722 12.7461 220.567 12.8555C220.412 12.9648 220.296 13.097 220.218 13.252C220.141 13.4069 220.102 13.5824 220.102 13.7783C220.102 13.9743 220.147 14.1543 220.239 14.3184C220.33 14.4779 220.462 14.6032 220.635 14.6943C220.813 14.7855 221.027 14.8311 221.278 14.8311C221.615 14.8311 221.909 14.7627 222.159 14.626C222.415 14.4847 222.615 14.3138 222.761 14.1133C222.907 13.9082 222.984 13.7145 222.993 13.5322L223.527 14.2637C223.472 14.4505 223.379 14.651 223.246 14.8652C223.114 15.0794 222.941 15.2845 222.727 15.4805C222.517 15.6719 222.264 15.8291 221.968 15.9521C221.676 16.0752 221.339 16.1367 220.956 16.1367C220.473 16.1367 220.043 16.041 219.664 15.8496C219.286 15.6536 218.99 15.3916 218.776 15.0635C218.561 14.7308 218.454 14.3548 218.454 13.9355C218.454 13.5436 218.527 13.1973 218.673 12.8965C218.824 12.5911 219.042 12.3359 219.329 12.1309C219.621 11.9258 219.977 11.7708 220.396 11.666C220.815 11.5566 221.294 11.502 221.831 11.502H223.123ZM227.615 10.1826V16H225.967V8.60352H227.519L227.615 10.1826ZM227.321 12.0283L226.788 12.0215C226.792 11.4974 226.865 11.0166 227.006 10.5791C227.152 10.1416 227.353 9.76562 227.608 9.45117C227.868 9.13672 228.178 8.89518 228.538 8.72656C228.898 8.55339 229.299 8.4668 229.741 8.4668C230.096 8.4668 230.418 8.51693 230.705 8.61719C230.996 8.71289 231.245 8.87012 231.45 9.08887C231.659 9.30762 231.819 9.59245 231.928 9.94336C232.038 10.2897 232.092 10.7158 232.092 11.2217V16H230.438V11.2148C230.438 10.8594 230.386 10.5791 230.281 10.374C230.181 10.1644 230.032 10.0163 229.836 9.92969C229.645 9.83854 229.406 9.79297 229.119 9.79297C228.836 9.79297 228.583 9.85221 228.36 9.9707C228.137 10.0892 227.947 10.251 227.793 10.4561C227.642 10.6611 227.526 10.8981 227.444 11.167C227.362 11.4359 227.321 11.723 227.321 12.0283ZM237.664 14.5166V10.9893C237.664 10.7249 237.616 10.4971 237.52 10.3057C237.425 10.1143 237.279 9.96615 237.083 9.86133C236.891 9.75651 236.65 9.7041 236.358 9.7041C236.089 9.7041 235.857 9.74967 235.661 9.84082C235.465 9.93197 235.312 10.055 235.203 10.21C235.094 10.3649 235.039 10.5404 235.039 10.7363H233.398C233.398 10.4447 233.469 10.1621 233.61 9.88867C233.751 9.61523 233.957 9.37142 234.225 9.15723C234.494 8.94303 234.816 8.77441 235.189 8.65137C235.563 8.52832 235.982 8.4668 236.447 8.4668C237.003 8.4668 237.495 8.56022 237.924 8.74707C238.357 8.93392 238.696 9.21647 238.942 9.59473C239.193 9.96842 239.318 10.4378 239.318 11.0029V14.291C239.318 14.6283 239.341 14.9313 239.387 15.2002C239.437 15.4645 239.507 15.6947 239.598 15.8906V16H237.91C237.833 15.8223 237.771 15.5967 237.725 15.3232C237.684 15.0452 237.664 14.7764 237.664 14.5166ZM237.903 11.502L237.917 12.5205H236.734C236.429 12.5205 236.16 12.5501 235.928 12.6094C235.695 12.6641 235.501 12.7461 235.347 12.8555C235.192 12.9648 235.075 13.097 234.998 13.252C234.92 13.4069 234.882 13.5824 234.882 13.7783C234.882 13.9743 234.927 14.1543 235.018 14.3184C235.11 14.4779 235.242 14.6032 235.415 14.6943C235.593 14.7855 235.807 14.8311 236.057 14.8311C236.395 14.8311 236.689 14.7627 236.939 14.626C237.195 14.4847 237.395 14.3138 237.541 14.1133C237.687 13.9082 237.764 13.7145 237.773 13.5322L238.306 14.2637C238.252 14.4505 238.158 14.651 238.026 14.8652C237.894 15.0794 237.721 15.2845 237.507 15.4805C237.297 15.6719 237.044 15.8291 236.748 15.9521C236.456 16.0752 236.119 16.1367 235.736 16.1367C235.253 16.1367 234.822 16.041 234.444 15.8496C234.066 15.6536 233.77 15.3916 233.556 15.0635C233.341 14.7308 233.234 14.3548 233.234 13.9355C233.234 13.5436 233.307 13.1973 233.453 12.8965C233.603 12.5911 233.822 12.3359 234.109 12.1309C234.401 11.9258 234.756 11.7708 235.176 11.666C235.595 11.5566 236.073 11.502 236.611 11.502H237.903ZM245.273 14.4688V5.5H246.927V16H245.43L245.273 14.4688ZM240.46 12.3838V12.2402C240.46 11.6797 240.526 11.1693 240.658 10.709C240.79 10.2441 240.982 9.84538 241.233 9.5127C241.483 9.17546 241.789 8.91797 242.149 8.74023C242.509 8.55794 242.914 8.4668 243.365 8.4668C243.812 8.4668 244.204 8.55339 244.541 8.72656C244.878 8.89974 245.165 9.14811 245.402 9.47168C245.639 9.79069 245.829 10.1735 245.97 10.6201C246.111 11.0622 246.211 11.5544 246.271 12.0967V12.5547C246.211 13.0833 246.111 13.5664 245.97 14.0039C245.829 14.4414 245.639 14.8197 245.402 15.1387C245.165 15.4577 244.876 15.7038 244.534 15.877C244.197 16.0501 243.803 16.1367 243.352 16.1367C242.905 16.1367 242.502 16.0433 242.142 15.8564C241.786 15.6696 241.483 15.4076 241.233 15.0703C240.982 14.7331 240.79 14.3366 240.658 13.8809C240.526 13.4206 240.46 12.9215 240.46 12.3838ZM242.108 12.2402V12.3838C242.108 12.721 242.137 13.0355 242.196 13.3271C242.26 13.6188 242.358 13.8763 242.49 14.0996C242.623 14.3184 242.793 14.4915 243.003 14.6191C243.217 14.7422 243.472 14.8037 243.769 14.8037C244.142 14.8037 244.45 14.7217 244.692 14.5576C244.933 14.3936 245.122 14.1725 245.259 13.8945C245.4 13.612 245.496 13.2975 245.546 12.9512V11.7139C245.519 11.445 245.462 11.1943 245.375 10.9619C245.293 10.7295 245.181 10.5267 245.04 10.3535C244.899 10.1758 244.723 10.0391 244.514 9.94336C244.309 9.8431 244.065 9.79297 243.782 9.79297C243.482 9.79297 243.226 9.85677 243.017 9.98438C242.807 10.112 242.634 10.2874 242.497 10.5107C242.365 10.734 242.267 10.9938 242.203 11.29C242.139 11.5863 242.108 11.903 242.108 12.2402ZM252.539 14.5166V10.9893C252.539 10.7249 252.492 10.4971 252.396 10.3057C252.3 10.1143 252.154 9.96615 251.958 9.86133C251.767 9.75651 251.525 9.7041 251.234 9.7041C250.965 9.7041 250.732 9.74967 250.537 9.84082C250.341 9.93197 250.188 10.055 250.079 10.21C249.969 10.3649 249.914 10.5404 249.914 10.7363H248.274C248.274 10.4447 248.344 10.1621 248.486 9.88867C248.627 9.61523 248.832 9.37142 249.101 9.15723C249.37 8.94303 249.691 8.77441 250.065 8.65137C250.439 8.52832 250.858 8.4668 251.323 8.4668C251.879 8.4668 252.371 8.56022 252.799 8.74707C253.232 8.93392 253.572 9.21647 253.818 9.59473C254.068 9.96842 254.194 10.4378 254.194 11.0029V14.291C254.194 14.6283 254.217 14.9313 254.262 15.2002C254.312 15.4645 254.383 15.6947 254.474 15.8906V16H252.786C252.708 15.8223 252.647 15.5967 252.601 15.3232C252.56 15.0452 252.539 14.7764 252.539 14.5166ZM252.779 11.502L252.792 12.5205H251.61C251.304 12.5205 251.036 12.5501 250.803 12.6094C250.571 12.6641 250.377 12.7461 250.222 12.8555C250.067 12.9648 249.951 13.097 249.873 13.252C249.796 13.4069 249.757 13.5824 249.757 13.7783C249.757 13.9743 249.803 14.1543 249.894 14.3184C249.985 14.4779 250.117 14.6032 250.29 14.6943C250.468 14.7855 250.682 14.8311 250.933 14.8311C251.27 14.8311 251.564 14.7627 251.815 14.626C252.07 14.4847 252.271 14.3138 252.416 14.1133C252.562 13.9082 252.64 13.7145 252.649 13.5322L253.182 14.2637C253.127 14.4505 253.034 14.651 252.902 14.8652C252.77 15.0794 252.596 15.2845 252.382 15.4805C252.173 15.6719 251.92 15.8291 251.623 15.9521C251.332 16.0752 250.995 16.1367 250.612 16.1367C250.129 16.1367 249.698 16.041 249.32 15.8496C248.941 15.6536 248.645 15.3916 248.431 15.0635C248.217 14.7308 248.11 14.3548 248.11 13.9355C248.11 13.5436 248.183 13.1973 248.329 12.8965C248.479 12.5911 248.698 12.3359 248.985 12.1309C249.276 11.9258 249.632 11.7708 250.051 11.666C250.47 11.5566 250.949 11.502 251.487 11.502H252.779Z" fill="black"/>
<path d="M365.25 6.0127V16H363.603V7.96777L361.162 8.79492V7.43457L365.052 6.0127H365.25ZM374.916 10.1895V11.8164C374.916 12.5957 374.839 13.2611 374.684 13.8125C374.533 14.3594 374.315 14.8037 374.028 15.1455C373.741 15.4873 373.396 15.738 372.995 15.8975C372.599 16.057 372.155 16.1367 371.662 16.1367C371.27 16.1367 370.906 16.0866 370.569 15.9863C370.236 15.8861 369.935 15.7288 369.666 15.5146C369.397 15.3005 369.167 15.0247 368.976 14.6875C368.789 14.3457 368.643 13.9378 368.538 13.4639C368.438 12.9899 368.388 12.4408 368.388 11.8164V10.1895C368.388 9.4056 368.465 8.74479 368.62 8.20703C368.775 7.66471 368.996 7.22493 369.283 6.8877C369.571 6.5459 369.912 6.29753 370.309 6.14258C370.71 5.98763 371.157 5.91016 371.649 5.91016C372.045 5.91016 372.41 5.96029 372.742 6.06055C373.08 6.15625 373.38 6.30892 373.645 6.51855C373.914 6.72819 374.142 7.00163 374.328 7.33887C374.52 7.67155 374.666 8.07487 374.766 8.54883C374.866 9.01823 374.916 9.5651 374.916 10.1895ZM373.269 12.0488V9.94336C373.269 9.54688 373.246 9.19824 373.2 8.89746C373.155 8.59212 373.087 8.33464 372.995 8.125C372.909 7.91081 372.799 7.73763 372.667 7.60547C372.535 7.46875 372.385 7.37077 372.216 7.31152C372.047 7.24772 371.858 7.21582 371.649 7.21582C371.394 7.21582 371.166 7.26595 370.965 7.36621C370.765 7.46191 370.596 7.61686 370.459 7.83105C370.323 8.04525 370.218 8.3278 370.145 8.67871C370.076 9.02507 370.042 9.44661 370.042 9.94336V12.0488C370.042 12.4499 370.065 12.8031 370.111 13.1084C370.156 13.4137 370.225 13.6758 370.316 13.8945C370.407 14.1087 370.516 14.2865 370.644 14.4277C370.776 14.5645 370.926 14.6647 371.095 14.7285C371.268 14.7923 371.457 14.8242 371.662 14.8242C371.922 14.8242 372.152 14.7741 372.353 14.6738C372.553 14.5736 372.722 14.4141 372.859 14.1953C372.995 13.972 373.098 13.6826 373.166 13.3271C373.235 12.9717 373.269 12.5456 373.269 12.0488ZM376.038 8.4873V7.96094C376.038 7.58268 376.12 7.23861 376.284 6.92871C376.448 6.61882 376.687 6.37044 377.002 6.18359C377.316 5.99674 377.694 5.90332 378.136 5.90332C378.592 5.90332 378.975 5.99674 379.285 6.18359C379.599 6.37044 379.838 6.61882 380.002 6.92871C380.167 7.23861 380.249 7.58268 380.249 7.96094V8.4873C380.249 8.85645 380.167 9.19596 380.002 9.50586C379.843 9.81576 379.606 10.0641 379.292 10.251C378.982 10.4378 378.601 10.5312 378.15 10.5312C377.703 10.5312 377.321 10.4378 377.002 10.251C376.687 10.0641 376.448 9.81576 376.284 9.50586C376.12 9.19596 376.038 8.85645 376.038 8.4873ZM377.179 7.96094V8.4873C377.179 8.6696 377.213 8.84277 377.282 9.00684C377.355 9.1709 377.464 9.30306 377.61 9.40332C377.756 9.50358 377.936 9.55371 378.15 9.55371C378.369 9.55371 378.546 9.50358 378.683 9.40332C378.824 9.30306 378.929 9.1709 378.998 9.00684C379.066 8.84277 379.1 8.6696 379.1 8.4873V7.96094C379.1 7.77409 379.064 7.59863 378.991 7.43457C378.922 7.26595 378.818 7.13151 378.676 7.03125C378.535 6.93099 378.355 6.88086 378.136 6.88086C377.927 6.88086 377.749 6.93099 377.603 7.03125C377.462 7.13151 377.355 7.26595 377.282 7.43457C377.213 7.59863 377.179 7.77409 377.179 7.96094ZM380.836 14.0928V13.5596C380.836 13.1859 380.919 12.8441 381.083 12.5342C381.251 12.2243 381.493 11.9759 381.807 11.7891C382.122 11.6022 382.5 11.5088 382.942 11.5088C383.398 11.5088 383.78 11.6022 384.09 11.7891C384.405 11.9759 384.642 12.2243 384.801 12.5342C384.965 12.8441 385.047 13.1859 385.047 13.5596V14.0928C385.047 14.4665 384.965 14.8083 384.801 15.1182C384.642 15.4281 384.407 15.6764 384.097 15.8633C383.787 16.0501 383.409 16.1436 382.962 16.1436C382.511 16.1436 382.126 16.0501 381.807 15.8633C381.493 15.6764 381.251 15.4281 381.083 15.1182C380.919 14.8083 380.836 14.4665 380.836 14.0928ZM381.985 13.5596V14.0928C381.985 14.2751 382.021 14.4482 382.094 14.6123C382.172 14.7764 382.283 14.9108 382.429 15.0156C382.575 15.1159 382.751 15.166 382.956 15.166C383.188 15.166 383.375 15.1159 383.516 15.0156C383.657 14.9108 383.758 14.7786 383.817 14.6191C383.881 14.4551 383.913 14.2796 383.913 14.0928V13.5596C383.913 13.3727 383.876 13.1973 383.803 13.0332C383.735 12.8691 383.628 12.737 383.482 12.6367C383.341 12.5365 383.161 12.4863 382.942 12.4863C382.728 12.4863 382.55 12.5365 382.409 12.6367C382.267 12.737 382.16 12.8691 382.087 13.0332C382.019 13.1973 381.985 13.3727 381.985 13.5596ZM383.352 7.46875L378.492 15.248L377.651 14.7627L382.511 6.9834L383.352 7.46875Z" fill="#BDBDBD"/>
<rect x="209.211" y="30" width="176.788" height="12" rx="6" fill="#F5F5F5"/>
<rect x="209" y="30" width="16.1489" height="12" rx="6" fill="#F54617"/>
<path d="M211.728 64.0469V74H210.012V64.0469H211.728ZM215.788 68.4014V69.7617H211.29V68.4014H215.788ZM216.355 64.0469V65.4141H211.29V64.0469H216.355ZM218.755 68.0117V74H217.108V66.6035H218.68L218.755 68.0117ZM221.018 66.5557L221.004 68.0869C220.904 68.0687 220.795 68.055 220.676 68.0459C220.562 68.0368 220.448 68.0322 220.334 68.0322C220.052 68.0322 219.803 68.0732 219.589 68.1553C219.375 68.2327 219.195 68.3467 219.049 68.4971C218.908 68.6429 218.798 68.8206 218.721 69.0303C218.644 69.2399 218.598 69.4746 218.584 69.7344L218.208 69.7617C218.208 69.2969 218.254 68.8662 218.345 68.4697C218.436 68.0732 218.573 67.7246 218.755 67.4238C218.942 67.123 219.174 66.8883 219.452 66.7197C219.735 66.5511 220.061 66.4668 220.43 66.4668C220.53 66.4668 220.637 66.4759 220.751 66.4941C220.87 66.5124 220.959 66.5329 221.018 66.5557ZM225.694 72.5166V68.9893C225.694 68.7249 225.646 68.4971 225.55 68.3057C225.455 68.1143 225.309 67.9661 225.113 67.8613C224.921 67.7565 224.68 67.7041 224.388 67.7041C224.119 67.7041 223.887 67.7497 223.691 67.8408C223.495 67.932 223.342 68.055 223.233 68.21C223.124 68.3649 223.069 68.5404 223.069 68.7363H221.428C221.428 68.4447 221.499 68.1621 221.64 67.8887C221.781 67.6152 221.987 67.3714 222.255 67.1572C222.524 66.943 222.846 66.7744 223.219 66.6514C223.593 66.5283 224.012 66.4668 224.477 66.4668C225.033 66.4668 225.525 66.5602 225.954 66.7471C226.387 66.9339 226.726 67.2165 226.972 67.5947C227.223 67.9684 227.348 68.4378 227.348 69.0029V72.291C227.348 72.6283 227.371 72.9313 227.417 73.2002C227.467 73.4645 227.537 73.6947 227.628 73.8906V74H225.94C225.863 73.8223 225.801 73.5967 225.755 73.3232C225.714 73.0452 225.694 72.7764 225.694 72.5166ZM225.933 69.502L225.947 70.5205H224.764C224.459 70.5205 224.19 70.5501 223.958 70.6094C223.725 70.6641 223.531 70.7461 223.377 70.8555C223.222 70.9648 223.105 71.097 223.028 71.252C222.95 71.4069 222.912 71.5824 222.912 71.7783C222.912 71.9743 222.957 72.1543 223.048 72.3184C223.14 72.4779 223.272 72.6032 223.445 72.6943C223.623 72.7855 223.837 72.8311 224.087 72.8311C224.425 72.8311 224.719 72.7627 224.969 72.626C225.225 72.4847 225.425 72.3138 225.571 72.1133C225.717 71.9082 225.794 71.7145 225.803 71.5322L226.336 72.2637C226.282 72.4505 226.188 72.651 226.056 72.8652C225.924 73.0794 225.751 73.2845 225.537 73.4805C225.327 73.6719 225.074 73.8291 224.778 73.9521C224.486 74.0752 224.149 74.1367 223.766 74.1367C223.283 74.1367 222.852 74.041 222.474 73.8496C222.096 73.6536 221.8 73.3916 221.586 73.0635C221.371 72.7308 221.264 72.3548 221.264 71.9355C221.264 71.5436 221.337 71.1973 221.483 70.8965C221.633 70.5911 221.852 70.3359 222.139 70.1309C222.431 69.9258 222.786 69.7708 223.206 69.666C223.625 69.5566 224.103 69.502 224.641 69.502H225.933ZM230.425 68.1826V74H228.777V66.6035H230.329L230.425 68.1826ZM230.131 70.0283L229.597 70.0215C229.602 69.4974 229.675 69.0166 229.816 68.5791C229.962 68.1416 230.163 67.7656 230.418 67.4512C230.678 67.1367 230.987 66.8952 231.347 66.7266C231.708 66.5534 232.109 66.4668 232.551 66.4668C232.906 66.4668 233.227 66.5169 233.514 66.6172C233.806 66.7129 234.055 66.8701 234.26 67.0889C234.469 67.3076 234.629 67.5924 234.738 67.9434C234.847 68.2897 234.902 68.7158 234.902 69.2217V74H233.248V69.2148C233.248 68.8594 233.195 68.5791 233.091 68.374C232.99 68.1644 232.842 68.0163 232.646 67.9297C232.455 67.8385 232.216 67.793 231.929 67.793C231.646 67.793 231.393 67.8522 231.17 67.9707C230.946 68.0892 230.757 68.251 230.602 68.4561C230.452 68.6611 230.336 68.8981 230.254 69.167C230.172 69.4359 230.131 69.723 230.131 70.0283ZM239.325 72.8242C239.594 72.8242 239.836 72.7718 240.05 72.667C240.269 72.5576 240.444 72.4072 240.576 72.2158C240.713 72.0244 240.788 71.8034 240.802 71.5527H242.354C242.345 72.0312 242.203 72.4665 241.93 72.8584C241.656 73.2503 241.294 73.5625 240.843 73.7949C240.392 74.0228 239.893 74.1367 239.346 74.1367C238.781 74.1367 238.289 74.041 237.869 73.8496C237.45 73.6536 237.101 73.3848 236.823 73.043C236.545 72.7012 236.336 72.307 236.194 71.8604C236.058 71.4137 235.989 70.9352 235.989 70.4248V70.1855C235.989 69.6751 236.058 69.1966 236.194 68.75C236.336 68.2988 236.545 67.9023 236.823 67.5605C237.101 67.2188 237.45 66.9521 237.869 66.7607C238.289 66.5648 238.778 66.4668 239.339 66.4668C239.931 66.4668 240.451 66.5853 240.898 66.8223C241.344 67.0547 241.695 67.3805 241.95 67.7998C242.21 68.2145 242.345 68.6976 242.354 69.249H240.802C240.788 68.9756 240.72 68.7295 240.597 68.5107C240.478 68.2874 240.31 68.1097 240.091 67.9775C239.877 67.8454 239.619 67.7793 239.318 67.7793C238.986 67.7793 238.71 67.8477 238.491 67.9844C238.273 68.1165 238.102 68.2988 237.979 68.5312C237.856 68.7591 237.767 69.0166 237.712 69.3037C237.662 69.5863 237.637 69.8802 237.637 70.1855V70.4248C237.637 70.7301 237.662 71.0264 237.712 71.3135C237.762 71.6006 237.849 71.8581 237.972 72.0859C238.099 72.3092 238.273 72.4893 238.491 72.626C238.71 72.7581 238.988 72.8242 239.325 72.8242ZM246.599 74.1367C246.052 74.1367 245.558 74.0479 245.116 73.8701C244.678 73.6878 244.304 73.4349 243.995 73.1113C243.689 72.7878 243.454 72.4072 243.29 71.9697C243.126 71.5322 243.044 71.0605 243.044 70.5547V70.2812C243.044 69.7025 243.129 69.1784 243.297 68.709C243.466 68.2396 243.701 67.8385 244.001 67.5059C244.302 67.1686 244.658 66.9111 245.068 66.7334C245.478 66.5557 245.922 66.4668 246.401 66.4668C246.929 66.4668 247.392 66.5557 247.788 66.7334C248.185 66.9111 248.513 67.1618 248.773 67.4854C249.037 67.8044 249.233 68.1849 249.361 68.627C249.493 69.069 249.559 69.5566 249.559 70.0898V70.7939H243.844V69.6113H247.932V69.4814C247.923 69.1852 247.864 68.9072 247.754 68.6475C247.649 68.3877 247.488 68.1781 247.269 68.0186C247.05 67.859 246.759 67.7793 246.394 67.7793C246.121 67.7793 245.877 67.8385 245.662 67.957C245.453 68.071 245.277 68.2373 245.136 68.4561C244.995 68.6748 244.885 68.9391 244.808 69.249C244.735 69.5544 244.699 69.8984 244.699 70.2812V70.5547C244.699 70.8783 244.742 71.179 244.829 71.457C244.92 71.7305 245.052 71.9697 245.225 72.1748C245.398 72.3799 245.608 72.5417 245.854 72.6602C246.1 72.7741 246.38 72.8311 246.695 72.8311C247.091 72.8311 247.444 72.7513 247.754 72.5918C248.064 72.4323 248.333 72.2067 248.561 71.915L249.429 72.7559C249.27 72.9883 249.062 73.2116 248.807 73.4258C248.552 73.6354 248.24 73.8063 247.871 73.9385C247.506 74.0706 247.082 74.1367 246.599 74.1367Z" fill="black"/>
<path d="M367.424 72.6875V74H360.752V72.8721L363.992 69.3379C364.348 68.9368 364.628 68.5905 364.833 68.2988C365.038 68.0072 365.182 67.7451 365.264 67.5127C365.35 67.2757 365.394 67.0456 365.394 66.8223C365.394 66.5078 365.334 66.2321 365.216 65.9951C365.102 65.7536 364.933 65.5645 364.71 65.4277C364.487 65.2865 364.215 65.2158 363.896 65.2158C363.527 65.2158 363.217 65.2956 362.967 65.4551C362.716 65.6146 362.527 65.8356 362.399 66.1182C362.272 66.3962 362.208 66.7152 362.208 67.0752H360.561C360.561 66.4964 360.693 65.9678 360.957 65.4893C361.221 65.0062 361.604 64.6234 362.105 64.3408C362.607 64.0537 363.211 63.9102 363.917 63.9102C364.582 63.9102 365.147 64.0218 365.612 64.2451C366.077 64.4684 366.43 64.7852 366.672 65.1953C366.918 65.6055 367.041 66.0908 367.041 66.6514C367.041 66.9613 366.991 67.2689 366.891 67.5742C366.79 67.8796 366.647 68.1849 366.46 68.4902C366.278 68.791 366.061 69.0941 365.811 69.3994C365.56 69.7002 365.284 70.0055 364.983 70.3154L362.83 72.6875H367.424ZM370.158 69.3721L368.846 69.0508L369.386 64.0469H374.752V65.4414H370.753L370.48 67.8818C370.635 67.7907 370.849 67.7018 371.122 67.6152C371.396 67.5241 371.708 67.4785 372.059 67.4785C372.528 67.4785 372.948 67.556 373.317 67.7109C373.69 67.8613 374.007 68.0824 374.267 68.374C374.527 68.6611 374.725 69.012 374.862 69.4268C374.998 69.8369 375.067 70.2995 375.067 70.8145C375.067 71.2747 374.998 71.7054 374.862 72.1064C374.729 72.5075 374.529 72.8607 374.26 73.166C373.991 73.4714 373.652 73.7106 373.241 73.8838C372.836 74.0524 372.355 74.1367 371.799 74.1367C371.384 74.1367 370.986 74.0775 370.603 73.959C370.225 73.8359 369.885 73.6559 369.584 73.4189C369.283 73.1774 369.042 72.8812 368.86 72.5303C368.677 72.1748 368.573 71.7669 368.545 71.3066H370.158C370.199 71.6302 370.288 71.9059 370.425 72.1338C370.566 72.3571 370.753 72.528 370.986 72.6465C371.218 72.765 371.487 72.8242 371.792 72.8242C372.07 72.8242 372.31 72.7764 372.51 72.6807C372.711 72.5804 372.877 72.4391 373.009 72.2568C373.146 72.07 373.246 71.8512 373.31 71.6006C373.378 71.3499 373.412 71.0719 373.412 70.7666C373.412 70.4749 373.374 70.2083 373.296 69.9668C373.223 69.7253 373.112 69.5156 372.961 69.3379C372.815 69.1602 372.631 69.0234 372.407 68.9277C372.184 68.8275 371.927 68.7773 371.635 68.7773C371.243 68.7773 370.942 68.8343 370.733 68.9482C370.528 69.0622 370.336 69.2035 370.158 69.3721ZM376.038 66.4873V65.9609C376.038 65.5827 376.12 65.2386 376.284 64.9287C376.448 64.6188 376.687 64.3704 377.002 64.1836C377.316 63.9967 377.694 63.9033 378.136 63.9033C378.592 63.9033 378.975 63.9967 379.285 64.1836C379.599 64.3704 379.838 64.6188 380.002 64.9287C380.167 65.2386 380.249 65.5827 380.249 65.9609V66.4873C380.249 66.8564 380.167 67.196 380.002 67.5059C379.843 67.8158 379.606 68.0641 379.292 68.251C378.982 68.4378 378.601 68.5312 378.15 68.5312C377.703 68.5312 377.321 68.4378 377.002 68.251C376.687 68.0641 376.448 67.8158 376.284 67.5059C376.12 67.196 376.038 66.8564 376.038 66.4873ZM377.179 65.9609V66.4873C377.179 66.6696 377.213 66.8428 377.282 67.0068C377.355 67.1709 377.464 67.3031 377.61 67.4033C377.756 67.5036 377.936 67.5537 378.15 67.5537C378.369 67.5537 378.546 67.5036 378.683 67.4033C378.824 67.3031 378.929 67.1709 378.998 67.0068C379.066 66.8428 379.1 66.6696 379.1 66.4873V65.9609C379.1 65.7741 379.064 65.5986 378.991 65.4346C378.922 65.266 378.818 65.1315 378.676 65.0312C378.535 64.931 378.355 64.8809 378.136 64.8809C377.927 64.8809 377.749 64.931 377.603 65.0312C377.462 65.1315 377.355 65.266 377.282 65.4346C377.213 65.5986 377.179 65.7741 377.179 65.9609ZM380.836 72.0928V71.5596C380.836 71.1859 380.919 70.8441 381.083 70.5342C381.251 70.2243 381.493 69.9759 381.807 69.7891C382.122 69.6022 382.5 69.5088 382.942 69.5088C383.398 69.5088 383.78 69.6022 384.09 69.7891C384.405 69.9759 384.642 70.2243 384.801 70.5342C384.965 70.8441 385.047 71.1859 385.047 71.5596V72.0928C385.047 72.4665 384.965 72.8083 384.801 73.1182C384.642 73.4281 384.407 73.6764 384.097 73.8633C383.787 74.0501 383.409 74.1436 382.962 74.1436C382.511 74.1436 382.126 74.0501 381.807 73.8633C381.493 73.6764 381.251 73.4281 381.083 73.1182C380.919 72.8083 380.836 72.4665 380.836 72.0928ZM381.985 71.5596V72.0928C381.985 72.2751 382.021 72.4482 382.094 72.6123C382.172 72.7764 382.283 72.9108 382.429 73.0156C382.575 73.1159 382.751 73.166 382.956 73.166C383.188 73.166 383.375 73.1159 383.516 73.0156C383.657 72.9108 383.758 72.7786 383.817 72.6191C383.881 72.4551 383.913 72.2796 383.913 72.0928V71.5596C383.913 71.3727 383.876 71.1973 383.803 71.0332C383.735 70.8691 383.628 70.737 383.482 70.6367C383.341 70.5365 383.161 70.4863 382.942 70.4863C382.728 70.4863 382.55 70.5365 382.409 70.6367C382.267 70.737 382.16 70.8691 382.087 71.0332C382.019 71.1973 381.985 71.3727 381.985 71.5596ZM383.352 65.4688L378.492 73.248L377.651 72.7627L382.511 64.9834L383.352 65.4688Z" fill="#BDBDBD"/>
<rect x="209.211" y="88" width="176.788" height="12" rx="6" fill="#F5F5F5"/>
<rect x="209" y="88" width="25.0734" height="12" rx="6" fill="#F54617"/>
<path d="M217.948 126.75V127.297C217.948 128.049 217.85 128.723 217.654 129.32C217.458 129.917 217.178 130.425 216.813 130.845C216.453 131.264 216.021 131.585 215.515 131.809C215.009 132.027 214.448 132.137 213.833 132.137C213.222 132.137 212.664 132.027 212.158 131.809C211.657 131.585 211.222 131.264 210.853 130.845C210.483 130.425 210.196 129.917 209.991 129.32C209.791 128.723 209.69 128.049 209.69 127.297V126.75C209.69 125.998 209.791 125.326 209.991 124.733C210.192 124.136 210.474 123.628 210.839 123.209C211.208 122.785 211.643 122.464 212.145 122.245C212.65 122.022 213.209 121.91 213.819 121.91C214.435 121.91 214.995 122.022 215.501 122.245C216.007 122.464 216.442 122.785 216.807 123.209C217.171 123.628 217.451 124.136 217.647 124.733C217.848 125.326 217.948 125.998 217.948 126.75ZM216.232 127.297V126.736C216.232 126.18 216.178 125.69 216.068 125.267C215.964 124.838 215.806 124.48 215.597 124.193C215.392 123.902 215.139 123.683 214.838 123.537C214.537 123.387 214.198 123.312 213.819 123.312C213.441 123.312 213.104 123.387 212.808 123.537C212.511 123.683 212.258 123.902 212.049 124.193C211.844 124.48 211.687 124.838 211.577 125.267C211.468 125.69 211.413 126.18 211.413 126.736V127.297C211.413 127.853 211.468 128.345 211.577 128.773C211.687 129.202 211.846 129.564 212.056 129.86C212.27 130.152 212.525 130.373 212.821 130.523C213.118 130.669 213.455 130.742 213.833 130.742C214.216 130.742 214.555 130.669 214.852 130.523C215.148 130.373 215.398 130.152 215.604 129.86C215.809 129.564 215.964 129.202 216.068 128.773C216.178 128.345 216.232 127.853 216.232 127.297ZM222.611 124.604V125.807H218.441V124.604H222.611ZM219.644 122.792H221.291V129.956C221.291 130.184 221.323 130.359 221.387 130.482C221.455 130.601 221.549 130.681 221.667 130.722C221.786 130.763 221.925 130.783 222.084 130.783C222.198 130.783 222.308 130.776 222.412 130.763C222.517 130.749 222.602 130.735 222.665 130.722L222.672 131.979C222.535 132.021 222.376 132.057 222.194 132.089C222.016 132.121 221.811 132.137 221.578 132.137C221.2 132.137 220.865 132.071 220.574 131.938C220.282 131.802 220.054 131.581 219.89 131.275C219.726 130.97 219.644 130.564 219.644 130.059V122.792ZM225.229 121.5V132H223.588V121.5H225.229ZM224.942 128.028L224.409 128.021C224.413 127.511 224.484 127.039 224.621 126.606C224.762 126.174 224.958 125.798 225.209 125.479C225.464 125.155 225.769 124.907 226.125 124.733C226.48 124.556 226.874 124.467 227.307 124.467C227.672 124.467 228 124.517 228.292 124.617C228.588 124.717 228.843 124.879 229.057 125.103C229.271 125.321 229.433 125.608 229.543 125.964C229.656 126.315 229.713 126.743 229.713 127.249V132H228.059V127.235C228.059 126.88 228.007 126.597 227.902 126.388C227.802 126.178 227.654 126.028 227.458 125.937C227.262 125.841 227.022 125.793 226.74 125.793C226.444 125.793 226.182 125.852 225.954 125.971C225.73 126.089 225.544 126.251 225.393 126.456C225.243 126.661 225.129 126.898 225.051 127.167C224.978 127.436 224.942 127.723 224.942 128.028ZM234.362 132.137C233.815 132.137 233.321 132.048 232.879 131.87C232.441 131.688 232.068 131.435 231.758 131.111C231.452 130.788 231.218 130.407 231.054 129.97C230.889 129.532 230.807 129.061 230.807 128.555V128.281C230.807 127.702 230.892 127.178 231.06 126.709C231.229 126.24 231.464 125.839 231.764 125.506C232.065 125.169 232.421 124.911 232.831 124.733C233.241 124.556 233.685 124.467 234.164 124.467C234.693 124.467 235.155 124.556 235.552 124.733C235.948 124.911 236.276 125.162 236.536 125.485C236.8 125.804 236.996 126.185 237.124 126.627C237.256 127.069 237.322 127.557 237.322 128.09V128.794H231.607V127.611H235.695V127.481C235.686 127.185 235.627 126.907 235.517 126.647C235.413 126.388 235.251 126.178 235.032 126.019C234.813 125.859 234.522 125.779 234.157 125.779C233.884 125.779 233.64 125.839 233.426 125.957C233.216 126.071 233.041 126.237 232.899 126.456C232.758 126.675 232.649 126.939 232.571 127.249C232.498 127.554 232.462 127.898 232.462 128.281V128.555C232.462 128.878 232.505 129.179 232.592 129.457C232.683 129.73 232.815 129.97 232.988 130.175C233.161 130.38 233.371 130.542 233.617 130.66C233.863 130.774 234.143 130.831 234.458 130.831C234.854 130.831 235.208 130.751 235.517 130.592C235.827 130.432 236.096 130.207 236.324 129.915L237.192 130.756C237.033 130.988 236.825 131.212 236.57 131.426C236.315 131.635 236.003 131.806 235.634 131.938C235.269 132.071 234.845 132.137 234.362 132.137ZM239.982 126.012V132H238.334V124.604H239.906L239.982 126.012ZM242.244 124.556L242.231 126.087C242.13 126.069 242.021 126.055 241.902 126.046C241.789 126.037 241.675 126.032 241.561 126.032C241.278 126.032 241.03 126.073 240.816 126.155C240.601 126.233 240.421 126.347 240.276 126.497C240.134 126.643 240.025 126.821 239.947 127.03C239.87 127.24 239.824 127.475 239.811 127.734L239.435 127.762C239.435 127.297 239.48 126.866 239.571 126.47C239.663 126.073 239.799 125.725 239.982 125.424C240.168 125.123 240.401 124.888 240.679 124.72C240.961 124.551 241.287 124.467 241.656 124.467C241.757 124.467 241.864 124.476 241.978 124.494C242.096 124.512 242.185 124.533 242.244 124.556Z" fill="black"/>
<path d="M373.729 121.985H373.934V123.332H373.817C373.229 123.332 372.721 123.423 372.293 123.605C371.869 123.788 371.521 124.038 371.247 124.357C370.974 124.676 370.769 125.05 370.632 125.479C370.5 125.902 370.434 126.354 370.434 126.832V128.397C370.434 128.794 370.477 129.145 370.563 129.45C370.65 129.751 370.771 130.004 370.926 130.209C371.085 130.41 371.268 130.562 371.473 130.667C371.678 130.772 371.899 130.824 372.136 130.824C372.382 130.824 372.605 130.774 372.806 130.674C373.006 130.569 373.177 130.425 373.318 130.243C373.46 130.061 373.567 129.844 373.64 129.594C373.713 129.343 373.749 129.07 373.749 128.773C373.749 128.491 373.713 128.227 373.64 127.98C373.571 127.73 373.469 127.511 373.332 127.324C373.195 127.133 373.024 126.985 372.819 126.88C372.619 126.771 372.386 126.716 372.122 126.716C371.794 126.716 371.495 126.793 371.227 126.948C370.962 127.103 370.748 127.306 370.584 127.557C370.424 127.803 370.338 128.065 370.324 128.343L369.695 128.138C369.732 127.714 369.825 127.333 369.976 126.996C370.131 126.659 370.333 126.372 370.584 126.135C370.835 125.898 371.124 125.718 371.452 125.595C371.785 125.467 372.149 125.403 372.546 125.403C373.029 125.403 373.448 125.494 373.804 125.677C374.159 125.859 374.453 126.107 374.686 126.422C374.923 126.732 375.098 127.087 375.212 127.488C375.33 127.885 375.39 128.299 375.39 128.732C375.39 129.211 375.317 129.658 375.171 130.072C375.025 130.482 374.811 130.842 374.528 131.152C374.25 131.462 373.911 131.704 373.51 131.877C373.113 132.05 372.662 132.137 372.156 132.137C371.623 132.137 371.147 132.034 370.728 131.829C370.313 131.624 369.96 131.341 369.668 130.981C369.381 130.621 369.162 130.207 369.012 129.737C368.861 129.268 368.786 128.771 368.786 128.247V127.563C368.786 126.807 368.882 126.094 369.073 125.424C369.265 124.749 369.559 124.155 369.955 123.64C370.356 123.125 370.869 122.721 371.493 122.43C372.118 122.133 372.863 121.985 373.729 121.985ZM376.361 124.487V123.961C376.361 123.583 376.443 123.239 376.607 122.929C376.771 122.619 377.01 122.37 377.324 122.184C377.639 121.997 378.017 121.903 378.459 121.903C378.915 121.903 379.298 121.997 379.608 122.184C379.922 122.37 380.161 122.619 380.325 122.929C380.49 123.239 380.572 123.583 380.572 123.961V124.487C380.572 124.856 380.49 125.196 380.325 125.506C380.166 125.816 379.929 126.064 379.615 126.251C379.305 126.438 378.924 126.531 378.473 126.531C378.026 126.531 377.644 126.438 377.324 126.251C377.01 126.064 376.771 125.816 376.607 125.506C376.443 125.196 376.361 124.856 376.361 124.487ZM377.502 123.961V124.487C377.502 124.67 377.536 124.843 377.605 125.007C377.678 125.171 377.787 125.303 377.933 125.403C378.079 125.504 378.259 125.554 378.473 125.554C378.692 125.554 378.869 125.504 379.006 125.403C379.147 125.303 379.252 125.171 379.321 125.007C379.389 124.843 379.423 124.67 379.423 124.487V123.961C379.423 123.774 379.387 123.599 379.314 123.435C379.245 123.266 379.141 123.132 378.999 123.031C378.858 122.931 378.678 122.881 378.459 122.881C378.25 122.881 378.072 122.931 377.926 123.031C377.785 123.132 377.678 123.266 377.605 123.435C377.536 123.599 377.502 123.774 377.502 123.961ZM381.159 130.093V129.56C381.159 129.186 381.241 128.844 381.406 128.534C381.574 128.224 381.816 127.976 382.13 127.789C382.445 127.602 382.823 127.509 383.265 127.509C383.721 127.509 384.103 127.602 384.413 127.789C384.728 127.976 384.965 128.224 385.124 128.534C385.288 128.844 385.37 129.186 385.37 129.56V130.093C385.37 130.466 385.288 130.808 385.124 131.118C384.965 131.428 384.73 131.676 384.42 131.863C384.11 132.05 383.732 132.144 383.285 132.144C382.834 132.144 382.449 132.05 382.13 131.863C381.816 131.676 381.574 131.428 381.406 131.118C381.241 130.808 381.159 130.466 381.159 130.093ZM382.308 129.56V130.093C382.308 130.275 382.344 130.448 382.417 130.612C382.495 130.776 382.606 130.911 382.752 131.016C382.898 131.116 383.074 131.166 383.279 131.166C383.511 131.166 383.698 131.116 383.839 131.016C383.98 130.911 384.081 130.779 384.14 130.619C384.204 130.455 384.236 130.28 384.236 130.093V129.56C384.236 129.373 384.199 129.197 384.126 129.033C384.058 128.869 383.951 128.737 383.805 128.637C383.664 128.536 383.484 128.486 383.265 128.486C383.051 128.486 382.873 128.536 382.732 128.637C382.59 128.737 382.483 128.869 382.41 129.033C382.342 129.197 382.308 129.373 382.308 129.56ZM383.675 123.469L378.815 131.248L377.974 130.763L382.834 122.983L383.675 123.469Z" fill="#BDBDBD"/>
<rect x="209" y="146" width="177" height="12" rx="6" fill="#F5F5F5"/>
<rect x="209" y="146" width="7.86667" height="12" rx="3.93333" fill="#F54617"/>
</svg>
