<svg width="374" height="188" viewBox="0 0 374 188" fill="none" xmlns="http://www.w3.org/2000/svg">
<path d="M165.214 45.1138C157.174 36.1983 147.06 29.403 135.768 25.33C124.475 21.2569 112.352 20.0318 100.472 21.7631C88.5927 23.4944 77.3236 28.1288 67.6631 35.2556C58.0025 42.3824 50.2486 51.7817 45.0883 62.6209C39.928 73.4602 37.5205 85.4048 38.0791 97.3967C38.6377 109.389 42.1451 121.058 48.2907 131.37C54.4362 141.683 63.0303 150.321 73.3115 156.519C83.5928 162.717 95.2439 166.283 107.233 166.903L109.694 119.267C105.539 119.052 101.501 117.816 97.938 115.668C94.3747 113.52 91.3962 110.526 89.2662 106.952C87.1363 103.378 85.9207 99.3334 85.7271 95.1772C85.5335 91.0211 86.3679 86.8813 88.1564 83.1247C89.9448 79.368 92.6321 76.1104 95.9803 73.6404C99.3285 71.1704 103.234 69.5642 107.351 68.9642C111.468 68.3642 115.67 68.7888 119.584 70.2004C123.498 71.612 127.003 73.9671 129.789 77.057L165.214 45.1138Z" fill="#F54617"/>
<path d="M169.149 49.8669C175.621 58.3947 180.139 68.2418 182.381 78.7103C184.623 89.1787 184.535 100.012 182.124 110.443L135.65 99.6988C136.486 96.0837 136.516 92.329 135.739 88.7009C134.962 85.0728 133.396 81.66 131.153 78.7044L169.149 49.8669Z" fill="#1E1E1E"/>
<path d="M181.002 114.704C177.31 127.189 170.345 138.459 160.831 147.347L128.27 112.489C131.568 109.409 133.982 105.503 135.261 101.176L181.002 114.704Z" fill="#585352"/>
<path d="M157.287 150.449C144.787 160.699 129.238 166.51 113.08 166.97L111.721 119.29C117.321 119.13 122.71 117.116 127.042 113.564L157.287 150.449Z" fill="#BDBDBD"/>
<circle cx="231" cy="31" r="7" fill="#F54617"/>
<path d="M248.082 36V25.9785H249.408V36H248.082ZM251.315 36V28.7402H252.423V29.7725C252.956 28.9749 253.726 28.5762 254.733 28.5762C255.171 28.5762 255.572 28.6559 255.936 28.8154C256.305 28.9704 256.581 29.1755 256.763 29.4307C256.946 29.6859 257.073 29.9889 257.146 30.3398C257.192 30.5677 257.215 30.9665 257.215 31.5361V36H255.984V31.584C255.984 31.0827 255.936 30.709 255.841 30.4629C255.745 30.2122 255.574 30.014 255.328 29.8682C255.086 29.7178 254.802 29.6426 254.473 29.6426C253.949 29.6426 253.496 29.8089 253.113 30.1416C252.735 30.4743 252.546 31.1055 252.546 32.0352V36H251.315ZM265.131 34.8994L265.309 35.9863C264.963 36.0592 264.653 36.0957 264.379 36.0957C263.933 36.0957 263.586 36.0251 263.34 35.8838C263.094 35.7425 262.921 35.5579 262.821 35.3301C262.72 35.0977 262.67 34.6123 262.67 33.874V29.6973H261.768V28.7402H262.67V26.9424L263.894 26.2041V28.7402H265.131V29.6973H263.894V33.9424C263.894 34.2933 263.914 34.5189 263.955 34.6191C264.001 34.7194 264.072 34.7992 264.167 34.8584C264.268 34.9176 264.409 34.9473 264.591 34.9473C264.728 34.9473 264.908 34.9313 265.131 34.8994ZM266.047 36V28.7402H267.155V29.8408C267.437 29.3258 267.697 28.9863 267.934 28.8223C268.176 28.6582 268.44 28.5762 268.727 28.5762C269.142 28.5762 269.563 28.7083 269.992 28.9727L269.568 30.1143C269.267 29.9365 268.966 29.8477 268.666 29.8477C268.397 29.8477 268.155 29.9297 267.941 30.0938C267.727 30.2533 267.574 30.4766 267.483 30.7637C267.346 31.2012 267.278 31.6797 267.278 32.1992V36H266.047ZM275.181 35.1045C274.725 35.4919 274.285 35.7653 273.861 35.9248C273.442 36.0843 272.991 36.1641 272.508 36.1641C271.71 36.1641 271.097 35.9704 270.669 35.583C270.24 35.1911 270.026 34.6921 270.026 34.0859C270.026 33.7305 270.106 33.4069 270.266 33.1152C270.43 32.819 270.641 32.582 270.901 32.4043C271.166 32.2266 271.462 32.0921 271.79 32.001C272.031 31.9372 272.396 31.8757 272.884 31.8164C273.877 31.6979 274.609 31.5566 275.078 31.3926C275.083 31.224 275.085 31.1169 275.085 31.0713C275.085 30.57 274.969 30.2168 274.736 30.0117C274.422 29.7337 273.955 29.5947 273.335 29.5947C272.756 29.5947 272.328 29.6973 272.05 29.9023C271.776 30.1029 271.573 30.4606 271.441 30.9756L270.238 30.8115C270.348 30.2965 270.528 29.8818 270.778 29.5674C271.029 29.2484 271.391 29.0046 271.865 28.8359C272.339 28.6628 272.888 28.5762 273.513 28.5762C274.132 28.5762 274.636 28.6491 275.023 28.7949C275.411 28.9408 275.696 29.1253 275.878 29.3486C276.06 29.5674 276.188 29.8454 276.261 30.1826C276.302 30.3923 276.322 30.7705 276.322 31.3174V32.958C276.322 34.1019 276.347 34.8265 276.397 35.1318C276.452 35.4326 276.557 35.722 276.712 36H275.427C275.299 35.7448 275.217 35.4463 275.181 35.1045ZM275.078 32.3564C274.631 32.5387 273.961 32.6937 273.068 32.8213C272.562 32.8942 272.205 32.9762 271.995 33.0674C271.785 33.1585 271.624 33.293 271.51 33.4707C271.396 33.6439 271.339 33.8376 271.339 34.0518C271.339 34.3799 271.462 34.6533 271.708 34.8721C271.959 35.0908 272.323 35.2002 272.802 35.2002C273.276 35.2002 273.697 35.0977 274.066 34.8926C274.435 34.6829 274.707 34.3981 274.88 34.0381C275.012 33.7601 275.078 33.3499 275.078 32.8076V32.3564ZM277.956 36V28.7402H279.064V29.7725C279.597 28.9749 280.367 28.5762 281.374 28.5762C281.812 28.5762 282.213 28.6559 282.577 28.8154C282.946 28.9704 283.222 29.1755 283.404 29.4307C283.587 29.6859 283.714 29.9889 283.787 30.3398C283.833 30.5677 283.856 30.9665 283.856 31.5361V36H282.625V31.584C282.625 31.0827 282.577 30.709 282.482 30.4629C282.386 30.2122 282.215 30.014 281.969 29.8682C281.727 29.7178 281.443 29.6426 281.114 29.6426C280.59 29.6426 280.137 29.8089 279.754 30.1416C279.376 30.4743 279.187 31.1055 279.187 32.0352V36H277.956ZM284.977 33.833L286.194 33.6416C286.262 34.1292 286.451 34.5029 286.761 34.7627C287.076 35.0225 287.513 35.1523 288.074 35.1523C288.639 35.1523 289.058 35.0384 289.331 34.8105C289.605 34.5781 289.742 34.307 289.742 33.9971C289.742 33.7191 289.621 33.5003 289.379 33.3408C289.211 33.2314 288.791 33.0924 288.122 32.9238C287.219 32.696 286.593 32.5 286.242 32.3359C285.895 32.1673 285.631 31.9372 285.449 31.6455C285.271 31.3493 285.182 31.0234 285.182 30.668C285.182 30.3444 285.255 30.0459 285.401 29.7725C285.551 29.4945 285.754 29.2643 286.009 29.082C286.201 28.9408 286.46 28.8223 286.789 28.7266C287.121 28.6263 287.477 28.5762 287.855 28.5762C288.425 28.5762 288.924 28.6582 289.352 28.8223C289.785 28.9863 290.104 29.2096 290.309 29.4922C290.514 29.7702 290.655 30.1439 290.733 30.6133L289.53 30.7773C289.475 30.4036 289.316 30.112 289.051 29.9023C288.791 29.6927 288.422 29.5879 287.944 29.5879C287.379 29.5879 286.975 29.6813 286.734 29.8682C286.492 30.055 286.372 30.2738 286.372 30.5244C286.372 30.6839 286.422 30.8275 286.522 30.9551C286.622 31.0872 286.779 31.1966 286.994 31.2832C287.117 31.3288 287.479 31.4336 288.081 31.5977C288.951 31.8301 289.557 32.0215 289.899 32.1719C290.245 32.3177 290.516 32.5319 290.712 32.8145C290.908 33.097 291.006 33.4479 291.006 33.8672C291.006 34.2773 290.886 34.6647 290.644 35.0293C290.407 35.3893 290.063 35.6696 289.612 35.8701C289.161 36.0661 288.65 36.1641 288.081 36.1641C287.137 36.1641 286.417 35.9681 285.92 35.5762C285.428 35.1842 285.114 34.6032 284.977 33.833ZM292.196 27.3936V25.9785H293.426V27.3936H292.196ZM292.196 36V28.7402H293.426V36H292.196ZM297.713 34.8994L297.891 35.9863C297.544 36.0592 297.234 36.0957 296.961 36.0957C296.514 36.0957 296.168 36.0251 295.922 35.8838C295.676 35.7425 295.503 35.5579 295.402 35.3301C295.302 35.0977 295.252 34.6123 295.252 33.874V29.6973H294.35V28.7402H295.252V26.9424L296.476 26.2041V28.7402H297.713V29.6973H296.476V33.9424C296.476 34.2933 296.496 34.5189 296.537 34.6191C296.583 34.7194 296.653 34.7992 296.749 34.8584C296.849 34.9176 296.991 34.9473 297.173 34.9473C297.31 34.9473 297.49 34.9313 297.713 34.8994Z" fill="black"/>
<path d="M312.574 25.2993V36H310.809V27.394L308.194 28.2803V26.8228L312.362 25.2993H312.574ZM321.612 25.27H321.832V26.7129H321.708C321.078 26.7129 320.533 26.8105 320.074 27.0059C319.62 27.2012 319.247 27.4697 318.954 27.8115C318.661 28.1533 318.441 28.5537 318.294 29.0127C318.153 29.4668 318.082 29.9502 318.082 30.4629V32.1401C318.082 32.5649 318.128 32.9409 318.221 33.2681C318.314 33.5903 318.443 33.8613 318.609 34.0811C318.78 34.2959 318.976 34.4595 319.195 34.5718C319.415 34.6841 319.652 34.7402 319.906 34.7402C320.169 34.7402 320.409 34.6865 320.624 34.5791C320.838 34.4668 321.021 34.313 321.173 34.1177C321.324 33.9224 321.439 33.6904 321.517 33.4219C321.595 33.1533 321.634 32.8604 321.634 32.543C321.634 32.2402 321.595 31.957 321.517 31.6934C321.444 31.4248 321.334 31.1904 321.188 30.9902C321.041 30.7852 320.858 30.6265 320.638 30.5142C320.423 30.397 320.174 30.3384 319.891 30.3384C319.54 30.3384 319.22 30.4214 318.932 30.5874C318.648 30.7534 318.419 30.9707 318.243 31.2393C318.072 31.5029 317.979 31.7837 317.965 32.0815L317.291 31.8618C317.33 31.4077 317.43 31 317.591 30.6387C317.757 30.2773 317.975 29.9697 318.243 29.7158C318.512 29.4619 318.822 29.269 319.173 29.1372C319.53 29.0005 319.92 28.9321 320.345 28.9321C320.863 28.9321 321.312 29.0298 321.693 29.2251C322.074 29.4204 322.389 29.6865 322.638 30.0234C322.892 30.3555 323.08 30.7363 323.202 31.166C323.329 31.5908 323.392 32.0352 323.392 32.499C323.392 33.0117 323.314 33.4902 323.158 33.9346C323.001 34.374 322.772 34.7598 322.469 35.0918C322.171 35.4238 321.808 35.6826 321.378 35.8682C320.953 36.0537 320.47 36.1465 319.928 36.1465C319.356 36.1465 318.846 36.0366 318.397 35.8169C317.953 35.5972 317.574 35.2944 317.262 34.9087C316.954 34.5229 316.72 34.0786 316.559 33.5757C316.397 33.0728 316.317 32.5405 316.317 31.979V31.2466C316.317 30.436 316.419 29.6719 316.625 28.9541C316.83 28.2314 317.145 27.5942 317.569 27.0425C317.999 26.4907 318.548 26.0586 319.217 25.7461C319.886 25.4287 320.685 25.27 321.612 25.27Z" fill="black"/>
<rect x="216.75" y="58.75" width="118.5" height="28.5" rx="3.25" stroke="#F54617" stroke-width="1.5"/>
<circle cx="231" cy="73" r="7" fill="#1E1E1E"/>
<path d="M247.34 78V67.9785H251.12C251.786 67.9785 252.294 68.0104 252.645 68.0742C253.137 68.1562 253.549 68.3135 253.882 68.5459C254.215 68.7738 254.481 69.0951 254.682 69.5098C254.887 69.9245 254.99 70.3802 254.99 70.877C254.99 71.7292 254.718 72.4515 254.176 73.0439C253.634 73.6318 252.654 73.9258 251.237 73.9258H248.666V78H247.34ZM248.666 72.7432H251.257C252.114 72.7432 252.722 72.5837 253.082 72.2646C253.442 71.9456 253.622 71.4967 253.622 70.918C253.622 70.4987 253.515 70.141 253.301 69.8447C253.091 69.5439 252.813 69.3457 252.467 69.25C252.244 69.1908 251.831 69.1611 251.23 69.1611H248.666V72.7432ZM261.211 75.6621L262.482 75.8193C262.282 76.5622 261.91 77.1387 261.368 77.5488C260.825 77.959 260.133 78.1641 259.29 78.1641C258.228 78.1641 257.385 77.8382 256.76 77.1865C256.141 76.5303 255.831 75.612 255.831 74.4316C255.831 73.2103 256.145 72.2624 256.774 71.5879C257.403 70.9134 258.219 70.5762 259.221 70.5762C260.192 70.5762 260.985 70.9066 261.6 71.5674C262.215 72.2282 262.523 73.1579 262.523 74.3564C262.523 74.4294 262.521 74.5387 262.516 74.6846H257.102C257.148 75.4821 257.373 76.0928 257.779 76.5166C258.185 76.9404 258.69 77.1523 259.296 77.1523C259.748 77.1523 260.133 77.0339 260.452 76.7969C260.771 76.5599 261.024 76.1816 261.211 75.6621ZM257.171 73.6729H261.224C261.17 73.0622 261.015 72.6042 260.759 72.2988C260.367 71.8249 259.859 71.5879 259.235 71.5879C258.67 71.5879 258.194 71.777 257.806 72.1553C257.423 72.5335 257.212 73.0394 257.171 73.6729ZM263.754 78V70.7402H264.861V71.7725C265.394 70.9749 266.165 70.5762 267.172 70.5762C267.609 70.5762 268.01 70.6559 268.375 70.8154C268.744 70.9704 269.02 71.1755 269.202 71.4307C269.384 71.6859 269.512 71.9889 269.585 72.3398C269.63 72.5677 269.653 72.9665 269.653 73.5361V78H268.423V73.584C268.423 73.0827 268.375 72.709 268.279 72.4629C268.183 72.2122 268.013 72.014 267.766 71.8682C267.525 71.7178 267.24 71.6426 266.912 71.6426C266.388 71.6426 265.934 71.8089 265.552 72.1416C265.173 72.4743 264.984 73.1055 264.984 74.0352V78H263.754ZM275.977 78V77.084C275.516 77.804 274.84 78.1641 273.946 78.1641C273.368 78.1641 272.834 78.0046 272.347 77.6855C271.864 77.3665 271.488 76.9222 271.219 76.3525C270.955 75.7783 270.822 75.1198 270.822 74.377C270.822 73.6523 270.943 72.9961 271.185 72.4082C271.426 71.8158 271.789 71.3623 272.272 71.0479C272.755 70.7334 273.295 70.5762 273.892 70.5762C274.329 70.5762 274.719 70.6696 275.061 70.8564C275.403 71.0387 275.68 71.278 275.895 71.5742V67.9785H277.118V78H275.977ZM272.087 74.377C272.087 75.3066 272.283 76.0016 272.675 76.4619C273.067 76.9222 273.529 77.1523 274.063 77.1523C274.6 77.1523 275.056 76.9336 275.43 76.4961C275.808 76.054 275.997 75.3818 275.997 74.4795C275.997 73.486 275.806 72.7568 275.423 72.292C275.04 71.8271 274.569 71.5947 274.008 71.5947C273.461 71.5947 273.003 71.818 272.634 72.2646C272.269 72.7113 272.087 73.4154 272.087 74.377ZM278.787 69.3936V67.9785H280.017V69.3936H278.787ZM278.787 78V70.7402H280.017V78H278.787ZM281.617 78V70.7402H282.724V71.7725C283.258 70.9749 284.028 70.5762 285.035 70.5762C285.472 70.5762 285.873 70.6559 286.238 70.8154C286.607 70.9704 286.883 71.1755 287.065 71.4307C287.247 71.6859 287.375 71.9889 287.448 72.3398C287.494 72.5677 287.516 72.9665 287.516 73.5361V78H286.286V73.584C286.286 73.0827 286.238 72.709 286.142 72.4629C286.047 72.2122 285.876 72.014 285.63 71.8682C285.388 71.7178 285.103 71.6426 284.775 71.6426C284.251 71.6426 283.798 71.8089 283.415 72.1416C283.037 72.4743 282.847 73.1055 282.847 74.0352V78H281.617ZM288.904 78.6016L290.101 78.7793C290.151 79.1484 290.29 79.4173 290.518 79.5859C290.823 79.8138 291.24 79.9277 291.769 79.9277C292.338 79.9277 292.778 79.8138 293.088 79.5859C293.398 79.3581 293.607 79.0391 293.717 78.6289C293.781 78.3783 293.81 77.8519 293.806 77.0498C293.268 77.6833 292.598 78 291.796 78C290.798 78 290.025 77.64 289.479 76.9199C288.932 76.1999 288.658 75.3363 288.658 74.3291C288.658 73.6364 288.784 72.9984 289.034 72.415C289.285 71.8271 289.647 71.3737 290.121 71.0547C290.6 70.7357 291.16 70.5762 291.803 70.5762C292.66 70.5762 293.366 70.9225 293.922 71.6152V70.7402H295.057V77.0156C295.057 78.1458 294.94 78.9456 294.708 79.415C294.48 79.889 294.116 80.2627 293.614 80.5361C293.118 80.8096 292.505 80.9463 291.775 80.9463C290.91 80.9463 290.21 80.7503 289.677 80.3584C289.144 79.971 288.886 79.3854 288.904 78.6016ZM289.923 74.2402C289.923 75.1927 290.112 75.8877 290.49 76.3252C290.868 76.7627 291.342 76.9814 291.912 76.9814C292.477 76.9814 292.951 76.765 293.334 76.332C293.717 75.8945 293.908 75.2109 293.908 74.2812C293.908 73.3926 293.71 72.7227 293.313 72.2715C292.922 71.8203 292.448 71.5947 291.892 71.5947C291.345 71.5947 290.88 71.818 290.497 72.2646C290.114 72.7067 289.923 73.3652 289.923 74.2402Z" fill="#F54617"/>
<path d="M312.253 75.0923C312.253 75.7563 312.099 76.3154 311.792 76.7695C311.484 77.2236 311.064 77.5679 310.532 77.8022C310.004 78.0317 309.409 78.1465 308.745 78.1465C308.081 78.1465 307.482 78.0317 306.95 77.8022C306.418 77.5679 305.998 77.2236 305.69 76.7695C305.383 76.3154 305.229 75.7563 305.229 75.0923C305.229 74.6528 305.314 74.2549 305.485 73.8984C305.656 73.5371 305.898 73.2271 306.21 72.9683C306.528 72.7046 306.899 72.502 307.324 72.3604C307.753 72.2188 308.222 72.1479 308.73 72.1479C309.404 72.1479 310.007 72.2725 310.539 72.5215C311.071 72.7705 311.489 73.1147 311.792 73.5542C312.099 73.9937 312.253 74.5063 312.253 75.0923ZM310.48 75.0044C310.48 74.6479 310.407 74.3354 310.261 74.0669C310.114 73.7983 309.909 73.5908 309.646 73.4443C309.382 73.2979 309.077 73.2246 308.73 73.2246C308.378 73.2246 308.073 73.2979 307.814 73.4443C307.556 73.5908 307.353 73.7983 307.207 74.0669C307.065 74.3354 306.994 74.6479 306.994 75.0044C306.994 75.3657 307.065 75.6782 307.207 75.9419C307.348 76.2007 307.551 76.3984 307.814 76.5352C308.078 76.6719 308.388 76.7402 308.745 76.7402C309.101 76.7402 309.409 76.6719 309.667 76.5352C309.926 76.3984 310.126 76.2007 310.268 75.9419C310.41 75.6782 310.48 75.3657 310.48 75.0044ZM312.011 70.1411C312.011 70.6733 311.87 71.147 311.586 71.562C311.308 71.9771 310.922 72.3042 310.429 72.5435C309.936 72.7778 309.375 72.895 308.745 72.895C308.11 72.895 307.543 72.7778 307.045 72.5435C306.552 72.3042 306.164 71.9771 305.881 71.562C305.603 71.147 305.463 70.6733 305.463 70.1411C305.463 69.5063 305.603 68.9717 305.881 68.5371C306.164 68.0977 306.552 67.7632 307.045 67.5337C307.539 67.3042 308.103 67.1895 308.737 67.1895C309.372 67.1895 309.936 67.3042 310.429 67.5337C310.922 67.7632 311.308 68.0977 311.586 68.5371C311.87 68.9717 312.011 69.5063 312.011 70.1411ZM310.246 70.1997C310.246 69.8823 310.183 69.604 310.056 69.3647C309.934 69.1206 309.76 68.9302 309.536 68.7935C309.311 68.6567 309.045 68.5884 308.737 68.5884C308.43 68.5884 308.164 68.6543 307.939 68.7861C307.714 68.918 307.541 69.1035 307.419 69.3428C307.297 69.582 307.236 69.8677 307.236 70.1997C307.236 70.5269 307.297 70.8125 307.419 71.0566C307.541 71.2959 307.714 71.4839 307.939 71.6206C308.168 71.7573 308.437 71.8257 308.745 71.8257C309.052 71.8257 309.318 71.7573 309.543 71.6206C309.768 71.4839 309.941 71.2959 310.063 71.0566C310.185 70.8125 310.246 70.5269 310.246 70.1997Z" fill="black"/>
<circle cx="231" cy="115" r="7" fill="#585352"/>
<path d="M247.654 120V109.979H248.98V120H247.654ZM250.887 120V112.74H251.995V113.772C252.528 112.975 253.298 112.576 254.305 112.576C254.743 112.576 255.144 112.656 255.509 112.815C255.878 112.97 256.153 113.175 256.336 113.431C256.518 113.686 256.646 113.989 256.719 114.34C256.764 114.568 256.787 114.966 256.787 115.536V120H255.556V115.584C255.556 115.083 255.509 114.709 255.413 114.463C255.317 114.212 255.146 114.014 254.9 113.868C254.659 113.718 254.374 113.643 254.046 113.643C253.522 113.643 253.068 113.809 252.685 114.142C252.307 114.474 252.118 115.105 252.118 116.035V120H250.887ZM262.174 120V109.979H265.954C266.62 109.979 267.128 110.01 267.479 110.074C267.971 110.156 268.383 110.313 268.716 110.546C269.049 110.774 269.315 111.095 269.516 111.51C269.721 111.924 269.824 112.38 269.824 112.877C269.824 113.729 269.552 114.451 269.01 115.044C268.468 115.632 267.488 115.926 266.071 115.926H263.5V120H262.174ZM263.5 114.743H266.091C266.948 114.743 267.556 114.584 267.916 114.265C268.276 113.946 268.456 113.497 268.456 112.918C268.456 112.499 268.349 112.141 268.135 111.845C267.925 111.544 267.647 111.346 267.301 111.25C267.078 111.191 266.665 111.161 266.064 111.161H263.5V114.743ZM271.061 120V112.74H272.169V113.841C272.451 113.326 272.711 112.986 272.948 112.822C273.189 112.658 273.454 112.576 273.741 112.576C274.156 112.576 274.577 112.708 275.005 112.973L274.582 114.114C274.281 113.937 273.98 113.848 273.679 113.848C273.41 113.848 273.169 113.93 272.955 114.094C272.74 114.253 272.588 114.477 272.497 114.764C272.36 115.201 272.292 115.68 272.292 116.199V120H271.061ZM274.999 116.37C274.999 115.026 275.373 114.03 276.12 113.383C276.744 112.845 277.505 112.576 278.403 112.576C279.401 112.576 280.217 112.904 280.85 113.561C281.484 114.212 281.801 115.115 281.801 116.268C281.801 117.202 281.659 117.938 281.377 118.476C281.099 119.009 280.691 119.424 280.153 119.72C279.62 120.016 279.037 120.164 278.403 120.164C277.387 120.164 276.564 119.838 275.935 119.187C275.311 118.535 274.999 117.596 274.999 116.37ZM276.264 116.37C276.264 117.3 276.466 117.997 276.872 118.462C277.278 118.922 277.788 119.152 278.403 119.152C279.014 119.152 279.522 118.92 279.928 118.455C280.333 117.99 280.536 117.282 280.536 116.329C280.536 115.431 280.331 114.752 279.921 114.292C279.515 113.827 279.009 113.595 278.403 113.595C277.788 113.595 277.278 113.825 276.872 114.285C276.466 114.745 276.264 115.44 276.264 116.37ZM287.707 117.341L288.917 117.498C288.785 118.332 288.445 118.986 287.899 119.46C287.356 119.929 286.689 120.164 285.896 120.164C284.902 120.164 284.102 119.84 283.496 119.193C282.895 118.542 282.594 117.61 282.594 116.397C282.594 115.614 282.724 114.928 282.984 114.34C283.243 113.752 283.638 113.312 284.166 113.021C284.699 112.724 285.278 112.576 285.903 112.576C286.691 112.576 287.336 112.777 287.837 113.178C288.338 113.574 288.66 114.139 288.801 114.873L287.605 115.058C287.491 114.57 287.288 114.203 286.996 113.957C286.709 113.711 286.361 113.588 285.95 113.588C285.331 113.588 284.827 113.811 284.44 114.258C284.052 114.7 283.859 115.402 283.859 116.363C283.859 117.339 284.045 118.047 284.419 118.489C284.793 118.931 285.28 119.152 285.882 119.152C286.365 119.152 286.768 119.004 287.092 118.708C287.416 118.412 287.621 117.956 287.707 117.341ZM294.66 117.662L295.931 117.819C295.731 118.562 295.359 119.139 294.817 119.549C294.275 119.959 293.582 120.164 292.739 120.164C291.677 120.164 290.834 119.838 290.209 119.187C289.59 118.53 289.28 117.612 289.28 116.432C289.28 115.21 289.594 114.262 290.223 113.588C290.852 112.913 291.668 112.576 292.67 112.576C293.641 112.576 294.434 112.907 295.049 113.567C295.664 114.228 295.972 115.158 295.972 116.356C295.972 116.429 295.97 116.539 295.965 116.685H290.551C290.597 117.482 290.822 118.093 291.228 118.517C291.634 118.94 292.139 119.152 292.746 119.152C293.197 119.152 293.582 119.034 293.901 118.797C294.22 118.56 294.473 118.182 294.66 117.662ZM290.62 115.673H294.673C294.619 115.062 294.464 114.604 294.208 114.299C293.817 113.825 293.308 113.588 292.684 113.588C292.119 113.588 291.643 113.777 291.255 114.155C290.873 114.534 290.661 115.039 290.62 115.673ZM296.711 117.833L297.927 117.642C297.996 118.129 298.185 118.503 298.495 118.763C298.809 119.022 299.247 119.152 299.807 119.152C300.372 119.152 300.792 119.038 301.065 118.811C301.339 118.578 301.475 118.307 301.475 117.997C301.475 117.719 301.355 117.5 301.113 117.341C300.944 117.231 300.525 117.092 299.855 116.924C298.953 116.696 298.326 116.5 297.975 116.336C297.629 116.167 297.365 115.937 297.182 115.646C297.005 115.349 296.916 115.023 296.916 114.668C296.916 114.344 296.989 114.046 297.134 113.772C297.285 113.494 297.488 113.264 297.743 113.082C297.934 112.941 298.194 112.822 298.522 112.727C298.855 112.626 299.21 112.576 299.589 112.576C300.158 112.576 300.657 112.658 301.086 112.822C301.519 112.986 301.838 113.21 302.043 113.492C302.248 113.77 302.389 114.144 302.467 114.613L301.263 114.777C301.209 114.404 301.049 114.112 300.785 113.902C300.525 113.693 300.156 113.588 299.677 113.588C299.112 113.588 298.709 113.681 298.467 113.868C298.226 114.055 298.105 114.274 298.105 114.524C298.105 114.684 298.155 114.827 298.256 114.955C298.356 115.087 298.513 115.197 298.727 115.283C298.85 115.329 299.213 115.434 299.814 115.598C300.685 115.83 301.291 116.021 301.633 116.172C301.979 116.318 302.25 116.532 302.446 116.814C302.642 117.097 302.74 117.448 302.74 117.867C302.74 118.277 302.619 118.665 302.378 119.029C302.141 119.389 301.797 119.67 301.345 119.87C300.894 120.066 300.384 120.164 299.814 120.164C298.871 120.164 298.151 119.968 297.654 119.576C297.162 119.184 296.847 118.603 296.711 117.833ZM303.431 117.833L304.647 117.642C304.716 118.129 304.905 118.503 305.215 118.763C305.529 119.022 305.967 119.152 306.527 119.152C307.092 119.152 307.512 119.038 307.785 118.811C308.059 118.578 308.195 118.307 308.195 117.997C308.195 117.719 308.075 117.5 307.833 117.341C307.664 117.231 307.245 117.092 306.575 116.924C305.673 116.696 305.046 116.5 304.695 116.336C304.349 116.167 304.085 115.937 303.902 115.646C303.725 115.349 303.636 115.023 303.636 114.668C303.636 114.344 303.709 114.046 303.854 113.772C304.005 113.494 304.208 113.264 304.463 113.082C304.654 112.941 304.914 112.822 305.242 112.727C305.575 112.626 305.93 112.576 306.309 112.576C306.878 112.576 307.377 112.658 307.806 112.822C308.239 112.986 308.558 113.21 308.763 113.492C308.968 113.77 309.109 114.144 309.187 114.613L307.983 114.777C307.929 114.404 307.769 114.112 307.505 113.902C307.245 113.693 306.876 113.588 306.397 113.588C305.832 113.588 305.429 113.681 305.188 113.868C304.946 114.055 304.825 114.274 304.825 114.524C304.825 114.684 304.875 114.827 304.976 114.955C305.076 115.087 305.233 115.197 305.447 115.283C305.57 115.329 305.933 115.434 306.534 115.598C307.405 115.83 308.011 116.021 308.353 116.172C308.699 116.318 308.97 116.532 309.166 116.814C309.362 117.097 309.46 117.448 309.46 117.867C309.46 118.277 309.339 118.665 309.098 119.029C308.861 119.389 308.517 119.67 308.065 119.87C307.614 120.066 307.104 120.164 306.534 120.164C305.591 120.164 304.871 119.968 304.374 119.576C303.882 119.184 303.567 118.603 303.431 117.833Z" fill="black"/>
<path d="M321.353 113.87H322.408C322.818 113.87 323.157 113.799 323.426 113.657C323.699 113.516 323.902 113.32 324.034 113.071C324.166 112.822 324.231 112.537 324.231 112.214C324.231 111.877 324.17 111.589 324.048 111.35C323.931 111.106 323.75 110.918 323.506 110.786C323.267 110.654 322.962 110.588 322.591 110.588C322.278 110.588 321.995 110.652 321.741 110.779C321.492 110.901 321.294 111.077 321.148 111.306C321.001 111.531 320.928 111.799 320.928 112.112H319.156C319.156 111.545 319.305 111.042 319.603 110.603C319.9 110.164 320.306 109.819 320.818 109.57C321.336 109.316 321.917 109.189 322.562 109.189C323.25 109.189 323.851 109.304 324.363 109.534C324.881 109.758 325.284 110.095 325.572 110.544C325.86 110.994 326.004 111.55 326.004 112.214C326.004 112.517 325.933 112.825 325.792 113.137C325.65 113.45 325.44 113.735 325.162 113.994C324.883 114.248 324.537 114.456 324.122 114.617C323.707 114.773 323.226 114.851 322.679 114.851H321.353V113.87ZM321.353 115.247V114.28H322.679C323.304 114.28 323.836 114.353 324.275 114.5C324.72 114.646 325.081 114.849 325.359 115.107C325.638 115.361 325.84 115.652 325.967 115.979C326.099 116.306 326.165 116.653 326.165 117.019C326.165 117.517 326.075 117.961 325.894 118.352C325.718 118.738 325.467 119.065 325.14 119.333C324.812 119.602 324.429 119.805 323.99 119.941C323.555 120.078 323.082 120.146 322.569 120.146C322.11 120.146 321.67 120.083 321.25 119.956C320.831 119.829 320.455 119.641 320.123 119.392C319.791 119.138 319.527 118.823 319.332 118.447C319.141 118.066 319.046 117.627 319.046 117.129H320.811C320.811 117.446 320.884 117.727 321.031 117.971C321.182 118.21 321.392 118.398 321.661 118.535C321.934 118.672 322.247 118.74 322.598 118.74C322.969 118.74 323.289 118.674 323.558 118.542C323.826 118.411 324.031 118.215 324.173 117.957C324.319 117.698 324.393 117.385 324.393 117.019C324.393 116.604 324.312 116.267 324.151 116.008C323.99 115.75 323.76 115.559 323.462 115.437C323.165 115.31 322.813 115.247 322.408 115.247H321.353Z" fill="black"/>
<circle cx="231" cy="157" r="7" fill="#BDBDBD"/>
<path d="M247.415 162V151.979H250.867C251.646 151.979 252.241 152.026 252.651 152.122C253.225 152.254 253.715 152.493 254.121 152.84C254.649 153.286 255.043 153.858 255.303 154.556C255.568 155.248 255.7 156.041 255.7 156.935C255.7 157.696 255.611 158.37 255.433 158.958C255.255 159.546 255.027 160.034 254.749 160.421C254.471 160.804 254.166 161.107 253.833 161.33C253.505 161.549 253.107 161.715 252.637 161.829C252.172 161.943 251.637 162 251.031 162H247.415ZM248.741 160.817H250.88C251.541 160.817 252.058 160.756 252.432 160.633C252.81 160.51 253.111 160.337 253.334 160.113C253.649 159.799 253.893 159.377 254.066 158.849C254.244 158.315 254.333 157.671 254.333 156.914C254.333 155.866 254.159 155.062 253.813 154.501C253.471 153.936 253.054 153.558 252.562 153.366C252.207 153.229 251.635 153.161 250.846 153.161H248.741V160.817ZM262.064 159.662L263.336 159.819C263.135 160.562 262.764 161.139 262.221 161.549C261.679 161.959 260.986 162.164 260.143 162.164C259.081 162.164 258.238 161.838 257.614 161.187C256.994 160.53 256.684 159.612 256.684 158.432C256.684 157.21 256.999 156.262 257.628 155.588C258.257 154.913 259.072 154.576 260.075 154.576C261.046 154.576 261.839 154.907 262.454 155.567C263.069 156.228 263.377 157.158 263.377 158.356C263.377 158.429 263.374 158.539 263.37 158.685H257.956C258.001 159.482 258.227 160.093 258.633 160.517C259.038 160.94 259.544 161.152 260.15 161.152C260.601 161.152 260.986 161.034 261.305 160.797C261.624 160.56 261.877 160.182 262.064 159.662ZM258.024 157.673H262.078C262.023 157.062 261.868 156.604 261.613 156.299C261.221 155.825 260.713 155.588 260.089 155.588C259.524 155.588 259.047 155.777 258.66 156.155C258.277 156.534 258.065 157.039 258.024 157.673ZM264.58 162V151.979H265.811V162H264.58ZM267.451 153.394V151.979H268.682V153.394H267.451ZM267.451 162V154.74H268.682V162H267.451ZM272.298 162L269.537 154.74H270.836L272.394 159.088C272.563 159.557 272.718 160.045 272.859 160.551C272.968 160.168 273.121 159.708 273.317 159.17L274.93 154.74H276.195L273.447 162H272.298ZM281.972 159.662L283.243 159.819C283.043 160.562 282.671 161.139 282.129 161.549C281.586 161.959 280.894 162.164 280.051 162.164C278.989 162.164 278.146 161.838 277.521 161.187C276.902 160.53 276.592 159.612 276.592 158.432C276.592 157.21 276.906 156.262 277.535 155.588C278.164 154.913 278.98 154.576 279.982 154.576C280.953 154.576 281.746 154.907 282.361 155.567C282.976 156.228 283.284 157.158 283.284 158.356C283.284 158.429 283.282 158.539 283.277 158.685H277.863C277.909 159.482 278.134 160.093 278.54 160.517C278.946 160.94 279.451 161.152 280.058 161.152C280.509 161.152 280.894 161.034 281.213 160.797C281.532 160.56 281.785 160.182 281.972 159.662ZM277.932 157.673H281.985C281.931 157.062 281.776 156.604 281.52 156.299C281.128 155.825 280.62 155.588 279.996 155.588C279.431 155.588 278.955 155.777 278.567 156.155C278.184 156.534 277.973 157.039 277.932 157.673ZM284.501 162V154.74H285.609V155.841C285.891 155.326 286.151 154.986 286.388 154.822C286.629 154.658 286.894 154.576 287.181 154.576C287.596 154.576 288.017 154.708 288.445 154.973L288.022 156.114C287.721 155.937 287.42 155.848 287.119 155.848C286.85 155.848 286.609 155.93 286.395 156.094C286.18 156.253 286.028 156.477 285.937 156.764C285.8 157.201 285.732 157.68 285.732 158.199V162H284.501ZM293.867 159.662L295.138 159.819C294.938 160.562 294.566 161.139 294.024 161.549C293.482 161.959 292.789 162.164 291.946 162.164C290.884 162.164 290.041 161.838 289.416 161.187C288.797 160.53 288.487 159.612 288.487 158.432C288.487 157.21 288.801 156.262 289.43 155.588C290.059 154.913 290.875 154.576 291.877 154.576C292.848 154.576 293.641 154.907 294.256 155.567C294.872 156.228 295.179 157.158 295.179 158.356C295.179 158.429 295.177 158.539 295.172 158.685H289.758C289.804 159.482 290.029 160.093 290.435 160.517C290.841 160.94 291.346 161.152 291.953 161.152C292.404 161.152 292.789 161.034 293.108 160.797C293.427 160.56 293.68 160.182 293.867 159.662ZM289.827 157.673H293.88C293.826 157.062 293.671 156.604 293.415 156.299C293.024 155.825 292.515 155.588 291.891 155.588C291.326 155.588 290.85 155.777 290.462 156.155C290.08 156.534 289.868 157.039 289.827 157.673ZM301.12 162V161.084C300.66 161.804 299.983 162.164 299.09 162.164C298.511 162.164 297.978 162.005 297.49 161.686C297.007 161.367 296.631 160.922 296.362 160.353C296.098 159.778 295.966 159.12 295.966 158.377C295.966 157.652 296.086 156.996 296.328 156.408C296.569 155.816 296.932 155.362 297.415 155.048C297.898 154.733 298.438 154.576 299.035 154.576C299.472 154.576 299.862 154.67 300.204 154.856C300.546 155.039 300.824 155.278 301.038 155.574V151.979H302.261V162H301.12ZM297.23 158.377C297.23 159.307 297.426 160.002 297.818 160.462C298.21 160.922 298.673 161.152 299.206 161.152C299.744 161.152 300.199 160.934 300.573 160.496C300.951 160.054 301.14 159.382 301.14 158.479C301.14 157.486 300.949 156.757 300.566 156.292C300.183 155.827 299.712 155.595 299.151 155.595C298.604 155.595 298.146 155.818 297.777 156.265C297.412 156.711 297.23 157.415 297.23 158.377Z" fill="black"/>
<path d="M314.133 157.042L312.727 156.697L313.306 151.336H319.055V152.83H314.771L314.478 155.445C314.644 155.347 314.873 155.252 315.166 155.159C315.459 155.062 315.793 155.013 316.169 155.013C316.672 155.013 317.122 155.096 317.517 155.262C317.917 155.423 318.257 155.66 318.535 155.972C318.813 156.28 319.026 156.656 319.172 157.1C319.319 157.54 319.392 158.035 319.392 158.587C319.392 159.08 319.319 159.542 319.172 159.971C319.031 160.401 318.816 160.779 318.528 161.106C318.24 161.434 317.876 161.69 317.437 161.875C317.002 162.056 316.487 162.146 315.891 162.146C315.447 162.146 315.02 162.083 314.609 161.956C314.204 161.824 313.84 161.631 313.518 161.377C313.196 161.119 312.937 160.801 312.742 160.425C312.546 160.044 312.434 159.607 312.405 159.114H314.133C314.177 159.461 314.272 159.756 314.419 160C314.57 160.24 314.771 160.423 315.02 160.55C315.269 160.677 315.557 160.74 315.884 160.74C316.182 160.74 316.438 160.689 316.653 160.586C316.868 160.479 317.046 160.328 317.188 160.132C317.334 159.932 317.441 159.698 317.51 159.429C317.583 159.161 317.62 158.863 317.62 158.536C317.62 158.223 317.578 157.938 317.495 157.679C317.417 157.42 317.297 157.195 317.136 157.005C316.98 156.814 316.782 156.668 316.543 156.565C316.304 156.458 316.028 156.404 315.715 156.404C315.295 156.404 314.973 156.465 314.749 156.587C314.529 156.709 314.324 156.861 314.133 157.042Z" fill="black"/>
</svg>
