<svg xmlns="http://www.w3.org/2000/svg" width="12" height="16"><path d="M3.585 1.233c0-.404.347-.7.79-.7h3.25c.443 0 .79.296.79.7V2H9v-.767C9 .535 8.391 0 7.624 0H4.376C3.609 0 3 .535 3 1.233V2h.585v-.767zM2.276 16h7.448c.719 0 1.276-.624 1.276-1.4V5H1v9.6c0 .776.557 1.4 1.276 1.4zm5.732-9.515c0-.172.14-.311.315-.311.174 0 .315.14.315.31v7.347a.313.313 0 0 1-.315.311.313.313 0 0 1-.315-.31V6.484zm-2.323 0c0-.172.141-.311.315-.311.174 0 .315.14.315.31v7.347a.313.313 0 0 1-.315.311.313.313 0 0 1-.315-.31V6.484zm-2.323 0c0-.172.141-.311.315-.311.174 0 .315.14.315.31v7.347c0 .172-.14.311-.315.311a.313.313 0 0 1-.315-.31V6.484zM.773 4h10.454c.427 0 .773-.448.773-1s-.346-1-.773-1H.773C.346 2 0 2.448 0 3s.346 1 .773 1z" fill="#B7BCD6"/></svg>