<svg xmlns="http://www.w3.org/2000/svg" width="19" height="22"><g fill="#109CF1"><path d="M3 5v4l6.035-2.012.465-.155.465.155L16 9V5zm14.384 15.482c-.259.158-.401.246-.76.246-.357 0-.5-.088-.76-.246-.33-.204-.785-.482-1.615-.482s-1.283.278-1.615.482c-.259.158-.402.246-.76.246-.357 0-.5-.088-.76-.246-.33-.204-.785-.482-1.615-.482-.829 0-1.283.278-1.615.482-.259.158-.401.246-.76.246-.357 0-.5-.088-.759-.246C6.033 20.278 5.58 20 4.75 20s-1.284.278-1.616.482c-.259.158-.401.246-.76.246-.357 0-.5-.088-.759-.246C1.284 20.278.83 20 0 20v1.272c.358 0 .5.088.76.246.331.204.785.482 1.615.482s1.284-.278 1.615-.482c.26-.158.402-.246.76-.246s.5.088.76.246c.331.204.785.482 1.615.482s1.283-.278 1.615-.482c.259-.158.402-.246.76-.246s.5.088.76.246c.33.204.785.482 1.615.482s1.283-.278 1.615-.482c.259-.158.402-.246.76-.246s.5.088.76.246c.331.204.785.482 1.615.482s1.284-.278 1.615-.482c.26-.158.402-.246.76-.246V20c-.83 0-1.284.278-1.616.482zM10.671 1.054V0H9.283v1.054H6V3h8V1.054z"/><path d="M1 10.832l2.954 7.627a3.67 3.67 0 0 1 1.254-.21c1.139 0 1.84.456 2.245.751A3.644 3.644 0 0 1 9 18.311V8l-8 2.832zM10 8v10.311c.738.135 1.232.46 1.546.689.404-.295 1.106-.751 2.244-.751.484 0 .888.083 1.225.2L18 10.833 10 8z"/></g></svg>