<svg xmlns="http://www.w3.org/2000/svg" width="16" height="16"><g fill="none"><path fill="#FFF" d="M15.04.96A3.153 3.153 0 0 0 12.727 0H3.273C2.37 0 1.6.32.96.96.32 1.6 0 2.371 0 3.273v9.454c0 .902.32 1.672.96 2.313.64.64 1.411.96 2.313.96h9.454c.902 0 1.672-.32 2.313-.96.64-.64.96-1.411.96-2.313V3.273c0-.902-.32-1.673-.96-2.313z"/><path fill="#109CF1" d="M3.127 8.4A.419.419 0 0 1 3 8.12c0-.08.042-.2.127-.28l.592-.56c.17-.16.423-.16.593 0l.042.04L6.68 9.68c.084.08.211.08.296 0l5.67-5.56h.041c.17-.16.424-.16.593 0l.592.56c.17.16.17.4 0 .56l-6.77 6.64a.391.391 0 0 1-.295.12.393.393 0 0 1-.296-.12l-3.3-3.36-.085-.12z"/></g></svg>