<svg xmlns="http://www.w3.org/2000/svg" width="24" height="24"><g fill="none"><path fill="#BFC5D2" d="M22.56 1.44C21.6.48 20.443 0 19.09 0H4.91C3.557 0 2.401.48 1.44 1.44.48 2.4 0 3.557 0 4.91v14.18c0 1.353.48 2.51 1.44 3.47.96.96 2.117 1.44 3.47 1.44h14.182c1.352 0 2.508-.48 3.469-1.44.96-.96 1.44-2.117 1.44-3.47V4.91c0-1.353-.48-2.51-1.44-3.47z"/><path fill="#fff" d="M4.69 12.6c-.127-.12-.19-.3-.19-.42s.063-.3.19-.42l.889-.84a.638.638 0 0 1 .888 0l.064.06 3.49 3.54c.127.12.317.12.444 0l8.504-8.34h.064a.638.638 0 0 1 .888 0l.889.84a.56.56 0 0 1 0 .84l-10.154 9.96c-.127.12-.254.18-.444.18s-.318-.06-.445-.18l-4.95-5.04-.127-.18z"/></g></svg>