<svg xmlns="http://www.w3.org/2000/svg" width="27" height="19"><path fill="#49DDAA" d="M.947 12.66V1.156C.947.518 1.465 0 2.103 0h11.482c.638 0 1.156.518 1.156 1.157V12.66a.386.386 0 0 1-.386.386H1.333a.386.386 0 0 1-.386-.386zm9.272 3.94c0 1.325-1.073 2.4-2.397 2.4a2.399 2.399 0 0 1-2.397-2.4 2.398 2.398 0 1 1 4.794 0zm-1.199 0a1.199 1.199 0 1 0-2.397 0 1.2 1.2 0 1 0 2.397 0zm-3.263-2.4H.385a.385.385 0 0 0-.385.385v1.17c0 .214.172.386.385.386h4.306a3.17 3.17 0 0 1 1.066-1.942zm17.005 2.4a2.399 2.399 0 1 1-4.795 0 2.398 2.398 0 0 1 4.795 0zm-1.199 0a1.199 1.199 0 1 0-2.397 0 1.2 1.2 0 1 0 2.397 0zM27 14.585v1.17a.385.385 0 0 1-.385.386h-3.12a3.17 3.17 0 0 0-3.13-2.713 3.17 3.17 0 0 0-3.131 2.713h-6.281a3.174 3.174 0 0 0-1.066-1.942h5.955V3.165a.77.77 0 0 1 .77-.771h3.638c1.024 0 1.981.51 2.555 1.359l2.344 3.477a3.09 3.09 0 0 1 .528 1.727V14.2h.938c.213 0 .385.173.385.386zM23.092 7.32l-1.876-2.667a.385.385 0 0 0-.315-.164h-2.924a.386.386 0 0 0-.386.386V7.54c0 .213.173.386.386.386h4.8a.386.386 0 0 0 .315-.608z"/></svg>