<svg xmlns="http://www.w3.org/2000/svg" width="20" height="19"><path fill="#F99E04" d="M19.594 14.424L12.521 1.432A2.91 2.91 0 0 0 10 0a2.912 2.912 0 0 0-2.523 1.432l-.011.02-7.05 12.952a2.889 2.889 0 0 0-.028 2.94 2.904 2.904 0 0 0 2.55 1.48h14.084c1.068 0 2.06-.553 2.588-1.48a2.877 2.877 0 0 0-.016-2.92zM8.826 5.95c0-.647.525-1.17 1.173-1.17s1.173.523 1.173 1.17v4.681c0 .647-.525 1.17-1.173 1.17s-1.173-.523-1.173-1.17V5.95zM10 16.483a1.76 1.76 0 0 1-1.76-1.756 1.76 1.76 0 0 1 3.52 0A1.76 1.76 0 0 1 10 16.483z"/></svg>