<svg xmlns="http://www.w3.org/2000/svg" width="10" height="14"><path fill="#BFC5D2" fill-rule="evenodd" d="M9.764 3.484c-.052-.186-.157-.385-.234-.56C8.6.772 6.57 0 4.932 0 2.74 0 .322 1.419 0 4.343v.597c0 .025.009.25.022.361.18 1.394 1.32 2.875 2.172 4.269.916 1.493 1.867 2.962 2.809 4.43.58-.958 1.16-1.929 1.727-2.862.154-.274.334-.548.489-.81.103-.173.3-.347.39-.51C8.525 8.202 10 6.572 10 4.966v-.66c0-.173-.224-.783-.236-.82zm-4.791 3c-.645 0-1.351-.311-1.7-1.17-.051-.137-.047-.41-.047-.436v-.386c0-1.095.964-1.592 1.802-1.592 1.033 0 1.831.796 1.831 1.792 0 .995-.854 1.792-1.886 1.792z"/></svg>