<svg xmlns="http://www.w3.org/2000/svg" width="13" height="13"><g fill="#BFC5D2"><path d="M10 3a.99.99 0 0 0 1-.984V.986A.992.992 0 0 0 10 0c-.553 0-1 .44-1 .986v1.03A.99.99 0 0 0 10 3z"/><path d="M12.986 2.022h-1.841v.44c0 .726-.624 1.317-1.393 1.317-.77 0-1.392-.591-1.392-1.317v-.44H4.644v.44c0 .726-.625 1.317-1.393 1.317-.769 0-1.393-.59-1.393-1.317v-.44L0 2v11h12.072l.928-.003-.014-10.975zm-.915 10.102H.93V5.097h11.143v7.027z"/><path d="M3 3a.99.99 0 0 0 1-.984V.986A.992.992 0 0 0 3 0c-.553 0-1 .44-1 .986v1.03A.99.99 0 0 0 3 3zm2 3h2v1H5z"/><path d="M6 6h2v1H6zm2 0h2v1H8zM5 7h2v1H5z"/><path d="M6 7h2v1H6zm2 0h2v1H8zM5 9h2v1H5zM3 7h2v1H3zm0 2h2v1H3z"/><path d="M6 9h2v1H6zm2 0h2v1H8z"/></g></svg>