<svg xmlns="http://www.w3.org/2000/svg" width="46" height="50"><g fill="none" fill-rule="evenodd"><path fill="#013177" d="M1.286 48.806h7.428V10.193H1.286v38.613zM9.356 50H.644C.288 50 0 49.733 0 49.403V9.597C0 9.267.288 9 .644 9h8.712c.356 0 .644.267.644.597v39.806c0 .33-.288.597-.644.597z"/><path fill="#013177" d="M9.357 17a.631.631 0 0 1-.45-.187L.192 8.117c-.254-.252-.257-.665-.008-.922s.656-.26.91-.007l8.713 8.696a.659.659 0 0 1 .007.922.633.633 0 0 1-.458.194m.001 9a.632.632 0 0 1-.45-.188L.192 17.117c-.254-.253-.257-.667-.008-.923s.656-.259.91-.006l8.713 8.695a.659.659 0 0 1 .007.922.634.634 0 0 1-.458.195m.001 8a.637.637 0 0 1-.45-.188L.192 25.116c-.254-.252-.257-.664-.008-.921s.656-.26.91-.008l8.713 8.697a.657.657 0 0 1 .007.921.634.634 0 0 1-.458.195m.001 8a.631.631 0 0 1-.45-.187L.192 33.117c-.254-.253-.257-.666-.008-.923s.656-.259.91-.006l8.713 8.696a.659.659 0 0 1 .007.922.633.633 0 0 1-.458.194m.001 8a.632.632 0 0 1-.45-.188L.192 41.117a.658.658 0 0 1-.008-.922.638.638 0 0 1 .91-.008l8.713 8.696a.659.659 0 0 1 .007.922.634.634 0 0 1-.458.195"/><path fill="#013177" d="M.643 17a.639.639 0 0 1-.458-.194.657.657 0 0 1 .008-.922l8.713-8.697a.637.637 0 0 1 .91.008.66.66 0 0 1-.008.922l-8.713 8.696A.638.638 0 0 1 .643 17m0 9a.64.64 0 0 1-.458-.195.657.657 0 0 1 .008-.922l8.713-8.695a.638.638 0 0 1 .91.006.66.66 0 0 1-.008.923l-8.713 8.695A.639.639 0 0 1 .643 26m0 8a.636.636 0 0 1-.458-.195.656.656 0 0 1 .008-.921l8.713-8.697a.637.637 0 0 1 .91.008.66.66 0 0 1-.008.922l-8.713 8.695A.643.643 0 0 1 .643 34m0 8a.639.639 0 0 1-.458-.194.657.657 0 0 1 .008-.922l8.713-8.696a.638.638 0 0 1 .91.006.66.66 0 0 1-.008.923l-8.713 8.696A.638.638 0 0 1 .643 42m0 8a.64.64 0 0 1-.458-.195.657.657 0 0 1 .008-.922l8.713-8.696a.637.637 0 0 1 .91.008.66.66 0 0 1-.008.922l-8.713 8.695A.639.639 0 0 1 .643 50"/><path fill="#013177" d="M9.356 17H.644C.288 17 0 16.776 0 16.5s.288-.5.644-.5h8.712c.356 0 .644.224.644.5s-.288.5-.644.5m0 8H.644C.288 25 0 24.776 0 24.5s.288-.5.644-.5h8.712c.356 0 .644.224.644.5s-.288.5-.644.5m0 9H.644C.288 34 0 33.776 0 33.5s.288-.5.644-.5h8.712c.356 0 .644.224.644.5s-.288.5-.644.5m0 7H.644C.288 41 0 40.776 0 40.5s.288-.5.644-.5h8.712c.356 0 .644.224.644.5s-.288.5-.644.5m8.861-33.252h16.564V6.253H18.217v1.495zM35.39 9H17.608A.618.618 0 0 1 17 8.374V5.626c0-.345.273-.626.608-.626H35.39c.336 0 .61.28.61.626v2.748a.619.619 0 0 1-.61.626z"/><path fill="#FFF" d="M37 7c0 .552-.672 1-1.5 1-.829 0-1.5-.448-1.5-1s.671-1 1.5-1c.828 0 1.5.448 1.5 1"/><path fill="#013177" d="M36 6.258a.743.743 0 1 0 0 1.486.743.743 0 0 0 0-1.486zM36 9c-1.103 0-2-.897-2-2 0-1.102.897-2 2-2 1.102 0 2 .898 2 2 0 1.103-.898 2-2 2z"/><path fill="#013177" d="M35.5 18c-.276 0-.5-.282-.5-.63V8.63c0-.348.224-.63.5-.63s.5.282.5.63v8.74c0 .348-.224.63-.5.63"/><path fill="#013177" d="M37.449 21h-.898C35.696 21 35 20.325 35 19.493c0-.295.246-.533.55-.533.304 0 .55.238.55.533 0 .242.203.438.451.438h.898c.249 0 .45-.196.45-.438v-.816a.444.444 0 0 0-.45-.438h-1.232a.542.542 0 0 1-.55-.534v-2.17c0-.296.246-.535.55-.535.304 0 .55.239.55.535v1.635h.682c.854 0 1.551.676 1.551 1.507v.816c0 .832-.697 1.507-1.551 1.507"/><path fill="#013177" d="M41.389 26a.61.61 0 0 1-.419-.166l-4.632-4.358-4.292 4.343a.609.609 0 0 1-.866 0 .619.619 0 0 1-.002-.871l4.713-4.766a.606.606 0 0 1 .85-.016l5.065 4.766c.247.232.26.623.03.872a.611.611 0 0 1-.447.196"/><path fill="#51DB92" d="M17.611 3.557L9.221.045A.582.582 0 0 0 9 0H.61C.273 0 0 .295 0 .658v8.684c0 .364.273.658.61.658h16.78c.338 0 .61-.294.61-.658v-5.17a.659.659 0 0 0-.389-.615"/><path fill="#109CF1" d="M45.384 24H28.617a.626.626 0 0 0-.617.635v10.731c0 .351.276.634.617.634h16.767c.34 0 .616-.283.616-.634V24.635a.626.626 0 0 0-.616-.635"/><path fill="#B7BCD6" d="M28 30v5.396c0 .333.292.604.65.604h16.7c.359 0 .65-.271.65-.604V30H28"/></g></svg>