<svg xmlns="http://www.w3.org/2000/svg" width="47" height="33"><g fill="none" fill-rule="evenodd"><path fill="#109CF1" d="M4.526 1h11.078c.218 0 .413.136.491.342l6.87 18.312a.532.532 0 0 1 .035.189v7.626a.529.529 0 0 1-.526.531H4.526A.53.53 0 0 1 4 27.47V1.53c0-.293.235-.53.526-.53"/><path fill="#013177" d="M5.5 22c3.033 0 5.5 2.467 5.5 5.5 0 3.032-2.467 5.5-5.5 5.5S0 30.532 0 27.5C0 24.467 2.467 22 5.5 22"/><path fill="#51DB92" d="M24.537 0h2.813c.297 0 .537.24.537.536v23.577h18.576c.297 0 .537.24.537.536v1.385c0 .28-.217.514-.497.535L27.391 28l-.04.001h-2.814a.536.536 0 0 1-.537-.536V.536c0-.297.24-.536.537-.536"/><path fill="#013177" d="M20.5 22c3.033 0 5.5 2.467 5.5 5.5 0 3.032-2.467 5.5-5.5 5.5S15 30.532 15 27.5c0-3.033 2.467-5.5 5.5-5.5"/><path fill="#074EA3" d="M6 25c1.103 0 2 .898 2 2 0 1.102-.897 2-2 2s-2-.898-2-2c0-1.102.897-2 2-2m15 0c1.103 0 2 .898 2 2 0 1.102-.897 2-2 2-1.102 0-2-.898-2-2 0-1.102.898-2 2-2"/><path fill="#013177" d="M9.545 1h5.803c.225 0 .427.133.508.336l7.109 17.959c.063.16.04.34-.062.48a.549.549 0 0 1-.447.225H9.545A.533.533 0 0 1 9 19.48V1.52c0-.288.244-.52.545-.52m22.413 5h11.084a.95.95 0 0 1 .958.943v16.115a.95.95 0 0 1-.958.942H31.958a.95.95 0 0 1-.958-.942V6.943A.95.95 0 0 1 31.958 6"/><path fill="#109CF1" d="M36.945 25h1.11C41.338 25 44 22.314 44 19H31c0 3.314 2.661 6 5.945 6M31 12h13c0-3.314-2.662-6-5.944-6h-1.112C33.661 6 31 8.686 31 12"/></g></svg>