<svg xmlns="http://www.w3.org/2000/svg" width="56" height="38"><g fill="none" fill-rule="evenodd"><path fill="#51DB92" d="M52.74 18.304l-.143-.163a17.644 17.644 0 0 0-13.222-5.965.646.646 0 0 0-.646.637l-.163 12.873H3.614a.645.645 0 0 0-.645.645v5.249c0 .357.289.646.645.646h50.77a.646.646 0 0 0 .646-.646v-7.224c0-2.231-.813-4.38-2.29-6.052"/><path fill="#B7BCD6" d="M31.645 0H5.062A5.068 5.068 0 0 0 0 5.062v16.896a5.068 5.068 0 0 0 5.062 5.062h26.583a5.068 5.068 0 0 0 5.062-5.062V5.062A5.068 5.068 0 0 0 31.645 0" opacity=".539"/><path fill="#013177" d="M49.91 32.441a3.96 3.96 0 0 1-7.917 0 3.958 3.958 0 1 1 7.917 0"/><path fill="#013177" d="M45.951 29.343c-1.708 0-3.098 1.39-3.098 3.098s1.39 3.098 3.098 3.098 3.098-1.39 3.098-3.098-1.39-3.098-3.098-3.098zm0 7.917a4.824 4.824 0 0 1-4.819-4.819c0-2.657 2.162-4.819 4.819-4.819s4.819 2.162 4.819 4.819a4.824 4.824 0 0 1-4.819 4.819z"/><path fill="#B7BCD6" d="M31.656.076H5.138C2.352.076.086 2.293.086 5.017v9.303h36.621V5.017c0-2.724-2.266-4.941-5.051-4.941" opacity=".539"/><path fill="#109CF1" d="M30.229 13.75l-8.262-7.089a.86.86 0 0 0-1.421.653v3.333H7.038a.86.86 0 0 0-.86.861v5.375a.86.86 0 0 0 .86.861h13.508v3.332a.86.86 0 0 0 1.401.67l8.263-6.673a.865.865 0 0 0 .32-.657.866.866 0 0 0-.301-.666m24.5 8.287a9.19 9.19 0 0 0-1.989-3.733l-.143-.163a17.6 17.6 0 0 0-8.472-5.312.647.647 0 0 0-.819.622v8.75c0 .357.289.646.645.646h10.153a.646.646 0 0 0 .625-.81"/><path fill="#013177" d="M10.842 27.622a4.825 4.825 0 0 0-4.819 4.819c0 2.658 2.162 4.819 4.819 4.819s4.819-2.161 4.819-4.819a4.825 4.825 0 0 0-4.819-4.819m35.109 0a4.825 4.825 0 0 0-4.819 4.819c0 2.658 2.162 4.819 4.819 4.819s4.819-2.161 4.819-4.819a4.825 4.825 0 0 0-4.819-4.819"/><path fill="#109CF1" d="M6.178 14.195v2.688a.86.86 0 0 0 .86.861h13.508v3.332a.86.86 0 0 0 1.401.67l8.263-6.673a.866.866 0 0 0 .32-.656c0-.076-.01-.15-.028-.222H6.178"/><path fill="#074EA3" d="M10.842 29.037a3.409 3.409 0 0 0-3.405 3.404 3.409 3.409 0 0 0 3.405 3.405 3.408 3.408 0 0 0 3.405-3.405 3.408 3.408 0 0 0-3.405-3.404m35.109 0a3.409 3.409 0 0 0-3.405 3.404 3.409 3.409 0 0 0 3.405 3.405 3.408 3.408 0 0 0 3.405-3.405 3.408 3.408 0 0 0-3.405-3.404"/></g></svg>