<svg xmlns="http://www.w3.org/2000/svg" width="79" height="33"><g fill="none" fill-rule="evenodd"><path fill="#51DB92" d="M11.5 8C8.468 8 6 10.403 6 13.356v2.864c0 .43.359.78.8.78h9.4c.441 0 .8-.35.8-.78v-2.864C17 10.403 14.534 8 11.5 8"/><path fill="#109CF1" d="M66.21 7h-9.422a.79.79 0 0 0-.788.79v14.419a.79.79 0 0 0 .788.791h9.422a.79.79 0 0 0 .79-.791V7.79a.79.79 0 0 0-.79-.79"/><path fill="#074EA3" d="M56 23h11v-8H56z"/><path fill="#109CF1" d="M54.212 7H44.79a.79.79 0 0 0-.79.79v14.419a.79.79 0 0 0 .79.791h9.422a.79.79 0 0 0 .788-.791V7.79a.79.79 0 0 0-.788-.79"/><path fill="#109CF1" d="M54.106 7h-9.211a.903.903 0 0 0-.895.91V14h11V7.91c0-.502-.4-.91-.894-.91M42.212 0H32.79a.782.782 0 0 0-.79.775v21.45c0 .428.353.775.79.775h9.422a.782.782 0 0 0 .788-.775V.775A.782.782 0 0 0 42.212 0"/><path fill="#51DB92" d="M16.523 11.44l-.21-.44H6.688l-.211.44A4.772 4.772 0 0 0 6 13.523V17h11v-3.478a4.76 4.76 0 0 0-.477-2.081"/><path fill="#109CF1" d="M22.223 15H3.777a.775.775 0 0 0-.777.774v6.452c0 .428.348.774.777.774h18.446a.775.775 0 0 0 .777-.774v-6.452a.775.775 0 0 0-.777-.774"/><path fill="#074EA3" d="M32 23h11v-8H32z"/><path fill="#51DB92" d="M78.968 21.585a.79.79 0 0 0-.752-.585H.785a.781.781 0 0 0-.67.391.838.838 0 0 0-.028.797l4.603 9.368a.783.783 0 0 0 .7.444c.12 0 .243-.03.357-.09a.82.82 0 0 0 .427-.726H63.62c0 .153.04.307.126.445a.766.766 0 0 0 1.086.238l13.812-9.366a.835.835 0 0 0 .324-.916"/><path fill="#B7BCD6" d="M1 25l3.503 7h59.988L75 25H1"/><path fill="#013177" d="M74 33l-3.782-2.772c-2.263-1.658-4.971-1.636-7.22.06-2.247 1.693-4.957 1.715-7.218.058l-.16-.118c-2.264-1.658-4.974-1.636-7.222.06-2.247 1.693-4.957 1.715-7.22.058l-.16-.118c-2.262-1.658-4.97-1.636-7.22.06-2.248 1.693-4.958 1.715-7.22.058l-.16-.118c-2.263-1.658-4.97-1.636-7.22.06-2.248 1.693-4.957 1.715-7.219.058l-.16-.118c-2.264-1.658-4.972-1.636-7.222.06L1 33h73"/><path fill="#109CF1" d="M42.106 0h-9.211A.903.903 0 0 0 32 .912V7h11V.912C43 .408 42.6 0 42.106 0"/></g></svg>