<svg xmlns="http://www.w3.org/2000/svg" width="24" height="24"><path d="M23.25 24h-4c-.414 0-.75-.42-.75-.938V21.5h-3v1.563c0 .517-.336.937-.75.937h-5.5c-.414 0-.75-.42-.75-.938V21.5h-3v1.563c0 .517-.336.937-.75.937h-4c-.414 0-.75-.42-.75-.938V19h24v4.063c0 .517-.336.937-.75.937zM16 0h-3v2a1 1 0 0 1-2 0V0H8a1 1 0 0 0-1 1v6a1 1 0 0 0 1 1h8a1 1 0 0 0 1-1V1a1 1 0 0 0-1-1zm-6 10H7v2a1 1 0 0 1-2 0v-2H2a1 1 0 0 0-1 1v6a1 1 0 0 0 1 1h8a1 1 0 0 0 1-1v-6a1 1 0 0 0-1-1zm12 0h-3v2a1 1 0 0 1-2 0v-2h-3a1 1 0 0 0-1 1v6a1 1 0 0 0 1 1h8a1 1 0 0 0 1-1v-6a1 1 0 0 0-1-1z" fill="#BFC5D2"/></svg>