<svg xmlns="http://www.w3.org/2000/svg" width="17" height="16"><g fill="#B7BCD6"><path d="M11.438 13H6.563c-.311 0-.563.224-.563.5s.252.5.563.5h4.874c.311 0 .563-.224.563-.5s-.252-.5-.562-.5zm0-2H6.563c-.311 0-.563.224-.563.5s.252.5.563.5h4.874c.311 0 .563-.224.563-.5s-.252-.5-.562-.5z"/><path d="M15.678 3.895h-1.803V.574A.57.57 0 0 0 13.308 0H3.692a.57.57 0 0 0-.567.574v3.32H1.322A1.335 1.335 0 0 0 0 5.235v5.773c0 .738.593 1.339 1.322 1.339h1.803v3.08a.57.57 0 0 0 .567.574h9.616a.57.57 0 0 0 .567-.574v-3.08h1.803c.729 0 1.322-.6 1.322-1.34V5.235c0-.738-.593-1.34-1.322-1.34zM4.258 1.148h8.483v2.747H4.26V1.148zm8.483 13.704H4.26v-4.694h8.482v4.694zm.567-7.588h-1.442a.57.57 0 0 1-.567-.573.57.57 0 0 1 .567-.574h1.442a.57.57 0 0 1 .567.574.57.57 0 0 1-.567.573z"/></g></svg>