<svg xmlns="http://www.w3.org/2000/svg" width="20" height="20"><g fill="#FFF"><path d="M15.833 11.382L13.54 10.05a.37.37 0 0 0-.488.109.327.327 0 0 0 .115.46l2.293 1.333a.37.37 0 0 0 .488-.109.326.326 0 0 0-.115-.46zM11.503 9a.505.505 0 0 0-.49.615.515.515 0 0 0 .489.385.5.5 0 0 0 .429-.237c.196-.318-.05-.763-.428-.763zm-3.557 1.152c-.1-.15-.332-.198-.491-.104l-2.29 1.345a.32.32 0 0 0-.111.457.377.377 0 0 0 .302.15.355.355 0 0 0 .19-.046l2.289-1.345a.32.32 0 0 0 .111-.457zM8.5 9a.502.502 0 0 0-.488.39c-.07.308.174.61.488.61a.502.502 0 0 0 .488-.39.504.504 0 0 0-.489-.61z"/><path d="M19.904 17.792a.389.389 0 0 0-.55-.038c-.417.362-.803.738-1.35.889-.607.167-1.184.035-1.734-.24l2.034-6.845a.392.392 0 0 0-.172-.446l-1.882-1.14v-3.33a.39.39 0 0 0-.39-.391h-.782V5.079a.39.39 0 0 0-.39-.391h-1.231V3.516a.39.39 0 0 0-.39-.39h-1.895V.39a.39.39 0 0 0-.39-.391H9.218a.39.39 0 0 0-.39.39v2.735H6.933a.39.39 0 0 0-.391.391v1.172h-1.23a.39.39 0 0 0-.391.39V6.25H4.14a.39.39 0 0 0-.391.39v3.33l-1.882 1.141a.39.39 0 0 0-.172.446l2.03 6.831c-.035-.117-.66-.193-.77-.208-1.138-.147-2.002.423-2.822 1.135a.392.392 0 0 0-.038.552.395.395 0 0 0 .55.038c.845-.734 1.797-1.293 2.913-.735 1.01.506 2.056.722 3.109.168.848-.446 1.667-.832 2.614-.381l.974.464a2.962 2.962 0 0 0 2.61-.025c.508-.255 1.025-.593 1.605-.633.57-.04 1.12.173 1.62.423a2.99 2.99 0 0 0 2.145.194c.653-.186 1.129-.602 1.63-1.038a.39.39 0 0 0 .038-.55zM15.47 7.032v2.466L11.4 7.032h4.07zM9.609.782h.782v2.343h-.782V.781zM7.324 3.906h5.352v.78H7.324v-.78zM4.531 7.032h4.07l-4.07 2.466V7.032zM9.61 18.248c0-.069-.556-.197-.63-.213a3.016 3.016 0 0 0-2.025.27c-.448.236-.879.51-1.39.577H5.56a2.249 2.249 0 0 1-.894-.07L2.53 11.624l7.078-4.29v10.914zM5.703 6.251v-.782h8.594v.782H5.703zm9.845 11.839c.004-.12-1.096-.12-1.17-.112-.677.072-1.264.42-1.862.72-.707.353-1.434.252-2.125-.078V7.335l7.078 4.29-1.921 6.465z"/></g></svg>