<svg xmlns="http://www.w3.org/2000/svg" width="17" height="18"><path fill="#109CF1" d="M16.851 4.104a.653.653 0 0 0-.515-.256H4.308l-.05-.474-.001-.015C4.02 1.479 2.477.062.664.062.297.062 0 .372 0 .756c0 .384.297.695.664.695 1.146 0 2.123.894 2.275 2.082l.79 7.586a2.093 2.093 0 0 0-1.172 1.899v.035c0 1.149.893 2.084 1.992 2.084h.27a2.14 2.14 0 0 0-.104.66c0 1.13.879 2.05 1.959 2.05s1.959-.92 1.959-2.05a2.14 2.14 0 0 0-.104-.66h2.864a2.14 2.14 0 0 0-.104.66c0 1.13.879 2.05 1.96 2.05 1.08 0 1.958-.92 1.958-2.05s-.879-2.05-1.959-2.05h-8.7c-.365 0-.663-.311-.663-.694v-.035c0-.383.298-.695.664-.695h8.478c1.178 0 2.26-.763 2.756-1.944a.709.709 0 0 0-.341-.915.653.653 0 0 0-.875.357c-.28.666-.899 1.113-1.54 1.113H5.045l-.593-5.697H15.52l-.325 1.63a.696.696 0 0 0 .515.822c.045.01.09.015.136.015a.674.674 0 0 0 .65-.553l.491-2.467a.723.723 0 0 0-.135-.58zm-3.603 11.033c.348 0 .63.296.63.66 0 .364-.282.66-.63.66-.348 0-.63-.296-.63-.66 0-.364.282-.66.63-.66zm-6.574 0c.348 0 .63.296.63.66 0 .364-.282.66-.63.66-.348 0-.631-.296-.631-.66 0-.364.283-.66.63-.66z"/></svg>