<svg xmlns="http://www.w3.org/2000/svg" width="49" height="23"><path fill="#B7BCD6" d="M4.947 16.9a3.052 3.052 0 0 0-3.046 3.05A3.052 3.052 0 0 0 4.947 23a3.051 3.051 0 0 0 0-6.1zm0 5.167c-1.165 0-2.115-.95-2.115-2.117s.949-2.117 2.115-2.117c1.167 0 2.116.95 2.116 2.117a2.118 2.118 0 0 1-2.116 2.117zM49 11.899V9.988L47.094 1.59c0-.582-.843-.582-1.165-.582H35.861c-.32 0-.581.061-.581.582v15.292c0 1.524.26 1.785.581 1.785h2.054a4.099 4.099 0 0 1 3.73-2.409c1.656 0 3.084.99 3.73 2.41h3.042a.584.584 0 0 0 .583-.584v-2.94h-.547V11.9H49zm-9.235-1.923h-2.201V9.53h2.201v.447zm-2.643-1.162v-6.25h8.408l.96 6.25h-9.368zm9.77 8.495H45.33c-.441-.841-1.402-1.443-1.402-1.443h2.962v1.443zM2.035 15.308h31.847v3.651H17.005a4.1 4.1 0 0 0-3.848-2.7 4.099 4.099 0 0 0-3.848 2.7H8.93a4.098 4.098 0 0 0-3.847-2.7 4.102 4.102 0 0 0-3.822 2.63A1.744 1.744 0 0 1 0 17.211v-.156c0-.395.136-.754.356-1.046v-1.426L.339 0h33.036l-.033 14.584H2.036v.724zM41.51 16.9a3.052 3.052 0 0 0-3.047 3.05 3.052 3.052 0 0 0 3.047 3.049 3.052 3.052 0 0 0 3.047-3.05 3.053 3.053 0 0 0-3.047-3.05zm0 5.166a2.118 2.118 0 0 1 0-4.234c1.167 0 2.116.95 2.116 2.117 0 1.168-.95 2.117-2.116 2.117zM13.02 16.9a3.052 3.052 0 0 0-3.047 3.05c0 1.68 1.367 3.05 3.047 3.05a3.052 3.052 0 0 0 3.047-3.05 3.052 3.052 0 0 0-3.047-3.05zm0 5.166c-1.166 0-2.115-.95-2.115-2.117s.949-2.117 2.115-2.117a2.12 2.12 0 0 1 2.116 2.117c0 1.168-.95 2.117-2.116 2.117z" opacity=".85"/></svg>