<svg xmlns="http://www.w3.org/2000/svg" width="49" height="23"><path fill="#B7BCD6" d="M4.949 16.901a3.052 3.052 0 0 0-3.047 3.049A3.053 3.053 0 0 0 4.95 23a3.052 3.052 0 0 0 3.047-3.05 3.052 3.052 0 0 0-3.047-3.049zm0 5.166a2.117 2.117 0 0 1 0-4.234 2.118 2.118 0 0 1 0 4.234zM48.999 11.9V9.988l-1.905-8.397c0-.581-.843-.581-1.165-.581H35.862c-.321 0-.582.06-.582.581v15.293c0 1.523.261 1.784.582 1.784h2.054a4.1 4.1 0 0 1 3.73-2.408c1.656 0 3.084.99 3.729 2.408h3.044c.32 0 .581-.261.581-.582v-2.94h-.547V11.9H49zm-9.233-1.923h-2.202v-.448h2.202v.448zm-2.643-1.162V2.563h8.407l.962 6.252h-9.369zm9.767 8.494h-1.56c-.44-.841-1.4-1.443-1.4-1.443h2.96v1.443zM2.037 14.583h31.306L33.376 0H.34l.016 14.583v1.427c-.22.292-.356.65-.356 1.046v.155c0 .798.533 1.47 1.262 1.679a4.101 4.101 0 0 1 3.822-2.63 4.1 4.1 0 0 1 3.848 2.7h.377c.572-1.574 2.08-2.7 3.847-2.7s3.277 1.126 3.85 2.7h16.877v-3.652H2.037v-.725zM28.628 1.01h2.403v12.494h-2.403V1.01zm-3.69 0h2.403v12.494h-2.403V1.01zm-3.737 0h2.403v12.494H21.2V1.01zm-3.691 0h2.403v12.494H17.51V1.01zm-3.538 0h2.403v12.494h-2.403V1.01zm-3.69 0h2.402v12.494h-2.402V1.01zm-3.739 0h2.403v12.494H6.543V1.01zm-3.69 0h2.402v12.494H2.853V1.01zM41.51 16.9a3.052 3.052 0 0 0-3.047 3.049 3.052 3.052 0 0 0 3.047 3.05 3.051 3.051 0 0 0 3.046-3.05A3.053 3.053 0 0 0 41.51 16.9zm0 5.166a2.117 2.117 0 0 1 0-4.234c1.166 0 2.115.95 2.115 2.117 0 1.168-.95 2.117-2.115 2.117zM13.022 16.9a3.052 3.052 0 0 0-3.047 3.049 3.051 3.051 0 0 0 3.047 3.05 3.051 3.051 0 0 0 3.046-3.05 3.052 3.052 0 0 0-3.046-3.049zm0 5.166a2.118 2.118 0 0 1-2.116-2.117 2.12 2.12 0 0 1 2.116-2.117 2.118 2.118 0 0 1 0 4.234z" opacity=".85"/></svg>