<svg width="68" height="20" viewBox="0 0 68 20" fill="none" xmlns="http://www.w3.org/2000/svg">
<path fill-rule="evenodd" clip-rule="evenodd" d="M2.12917 13.7V15.9903H2.41501L1.72959 16.6042V16.2127H1.13745V17.7375H1.72959V17.3163L2.86754 16.549H4.71076V15.9903H22.5629V14.6321H34.7728L39.963 13.7H2.12917Z" fill="#109CF1"/>
<path fill-rule="evenodd" clip-rule="evenodd" d="M38.8707 17.3951H39.3822V13.7H38.8707V17.3951Z" fill="#109CF1"/>
<path fill-rule="evenodd" clip-rule="evenodd" d="M28.9421 17.3951H29.4536V13.7H28.9421V17.3951Z" fill="#109CF1"/>
<path fill-rule="evenodd" clip-rule="evenodd" d="M27.9565 17.8497H40.4433V16.7891H27.9565V17.8497Z" fill="#109CF1"/>
<path fill-rule="evenodd" clip-rule="evenodd" d="M27.9565 15.96H40.4433V14.8994H27.9565V15.96Z" fill="#109CF1"/>
<path fill-rule="evenodd" clip-rule="evenodd" d="M0 13.9576H55.4465V12.4855H0V13.9576ZM0.510903 13.443H54.9344V13.0012H0.510903V13.443Z" fill="#109CF1"/>
<path fill-rule="evenodd" clip-rule="evenodd" d="M52.4263 13.0006H3.42627V1.17879H5.23008V0.811515C5.23008 0.364242 6.02588 0 7.00604 0C7.98487 0 8.782 0.364242 8.782 0.811515V1.17879H47.0705V0.811515C47.0705 0.364242 47.8663 0 48.8478 0C49.8267 0 50.6225 0.364242 50.6225 0.811515V1.17879H52.4263V13.0006ZM3.91477 12.4855H51.9148V1.69394H50.0639V0.811515C50.0639 0.647879 49.7643 0.515152 49.398 0.515152C49.0289 0.515152 48.7293 0.647879 48.7293 0.811515V1.69394H7.10024V0.811515C7.10024 0.647879 6.80062 0.515152 6.43427 0.515152C6.06656 0.515152 5.7683 0.647879 5.7683 0.811515V1.69394H3.91477V12.4855Z" fill="#109CF1"/>
<path fill-rule="evenodd" clip-rule="evenodd" d="M50.4903 11.6351H50.8315V2.54419H50.4903V11.6351Z" fill="#109CF1"/>
<path fill-rule="evenodd" clip-rule="evenodd" d="M48.4124 11.6351H48.753V2.54419H48.4124V11.6351Z" fill="#109CF1"/>
<path fill-rule="evenodd" clip-rule="evenodd" d="M46.3351 11.6351H46.6757V2.54419H46.3351V11.6351Z" fill="#109CF1"/>
<path fill-rule="evenodd" clip-rule="evenodd" d="M44.2566 11.6351H44.5972V2.54419H44.2566V11.6351Z" fill="#109CF1"/>
<path fill-rule="evenodd" clip-rule="evenodd" d="M42.1793 11.6351H42.5199V2.54419H42.1793V11.6351Z" fill="#109CF1"/>
<path fill-rule="evenodd" clip-rule="evenodd" d="M40.1008 11.6351H40.4414V2.54419H40.1008V11.6351Z" fill="#109CF1"/>
<path fill-rule="evenodd" clip-rule="evenodd" d="M38.0228 11.6351H38.3634V2.54419H38.0228V11.6351Z" fill="#109CF1"/>
<path fill-rule="evenodd" clip-rule="evenodd" d="M35.9449 11.6351H36.2855V2.54419H35.9449V11.6351Z" fill="#109CF1"/>
<path fill-rule="evenodd" clip-rule="evenodd" d="M33.867 11.6351H34.2076V2.54419H33.867V11.6351Z" fill="#109CF1"/>
<path fill-rule="evenodd" clip-rule="evenodd" d="M31.7892 11.6351H32.1298V2.54419H31.7892V11.6351Z" fill="#109CF1"/>
<path fill-rule="evenodd" clip-rule="evenodd" d="M52.0203 13.0006H3.02026V1.17879H4.82407V0.811515C4.82407 0.364242 5.61987 0 6.60003 0C7.57887 0 8.37466 0.364242 8.37466 0.811515V1.17879H46.6659V0.811515C46.6659 0.364242 47.4617 0 48.4405 0C49.4207 0 50.2165 0.364242 50.2165 0.811515V1.17879H52.0203V13.0006ZM3.53177 12.4855H52.5318V1.69394H50.6423V0.811515C50.6423 0.647879 50.3365 0.515152 49.9611 0.515152C49.5871 0.515152 49.2812 0.647879 49.2812 0.811515V1.69394H6.78231V0.811515C6.78231 0.647879 6.47644 0.515152 6.10245 0.515152C5.72706 0.515152 5.4212 0.647879 5.4212 0.811515V1.69394H3.53177V12.4855Z" fill="#109CF1"/>
<path fill-rule="evenodd" clip-rule="evenodd" d="M23.3169 11.6351H23.6575V2.54419H23.3169V11.6351Z" fill="#109CF1"/>
<path fill-rule="evenodd" clip-rule="evenodd" d="M25.3169 11.6351H25.6575V2.54419H25.3169V11.6351Z" fill="#109CF1"/>
<path fill-rule="evenodd" clip-rule="evenodd" d="M21.239 11.6351H21.5796V2.54419H21.239V11.6351Z" fill="#109CF1"/>
<path fill-rule="evenodd" clip-rule="evenodd" d="M29.3169 11.6351H29.6575V2.54419H29.3169V11.6351Z" fill="#109CF1"/>
<path fill-rule="evenodd" clip-rule="evenodd" d="M27.239 11.6351H27.5796V2.54419H27.239V11.6351Z" fill="#109CF1"/>
<path fill-rule="evenodd" clip-rule="evenodd" d="M19.161 11.6351H19.5022V2.54419H19.161V11.6351Z" fill="#109CF1"/>
<path fill-rule="evenodd" clip-rule="evenodd" d="M17.0825 11.6351H17.4231V2.54419H17.0825V11.6351Z" fill="#109CF1"/>
<path fill-rule="evenodd" clip-rule="evenodd" d="M15.0046 11.6351H15.3452V2.54419H15.0046V11.6351Z" fill="#109CF1"/>
<path fill-rule="evenodd" clip-rule="evenodd" d="M12.9267 11.6351H13.2673V2.54419H12.9267V11.6351Z" fill="#109CF1"/>
<path fill-rule="evenodd" clip-rule="evenodd" d="M10.8486 11.6351H11.1892V2.54419H10.8486V11.6351Z" fill="#109CF1"/>
<path fill-rule="evenodd" clip-rule="evenodd" d="M8.77072 11.6351H9.11132V2.54419H8.77072V11.6351Z" fill="#109CF1"/>
<path fill-rule="evenodd" clip-rule="evenodd" d="M6.69284 11.6351H7.03344V2.54419H6.69284V11.6351Z" fill="#109CF1"/>
<path fill-rule="evenodd" clip-rule="evenodd" d="M4.61563 11.6351H4.95684V2.54419H4.61563V11.6351Z" fill="#109CF1"/>
<path fill-rule="evenodd" clip-rule="evenodd" d="M10.6984 17.263H10.3523C10.2916 17.8999 10.0099 18.4727 9.58448 18.9005V18.9018C9.10306 19.3866 8.4369 19.6872 7.70154 19.6872C6.96618 19.6872 6.30062 19.3866 5.8186 18.9018C5.39315 18.4733 5.11152 17.9005 5.05135 17.263H4.44897V17.0054C4.44897 16.0636 4.73963 15.2109 5.33779 14.6084L5.33839 14.6078V14.6072C5.56526 14.3793 5.83425 14.1884 6.14597 14.0436H9.25832C9.57064 14.1884 9.83963 14.3793 10.0659 14.6072V14.6084C10.3415 14.886 10.5515 15.2175 10.6984 15.586V17.263ZM7.70154 15.6999C6.98604 15.6999 6.40593 16.2842 6.40593 17.0054C6.40593 17.726 6.98604 18.3102 7.70154 18.3102C8.41765 18.3102 8.99775 17.726 8.99775 17.0054C8.99775 16.2842 8.41765 15.6999 7.70154 15.6999Z" fill="#109CF1"/>
<path fill-rule="evenodd" clip-rule="evenodd" d="M7.70133 16.2921C7.31018 16.2921 6.99365 16.6115 6.99365 17.0054C6.99365 17.3994 7.31018 17.7182 7.70133 17.7182C8.09248 17.7182 8.40962 17.3994 8.40962 17.0054C8.40962 16.6115 8.09248 16.2921 7.70133 16.2921Z" fill="#109CF1"/>
<path fill-rule="evenodd" clip-rule="evenodd" d="M16.6926 17.263H16.3466C16.2858 17.8999 16.0036 18.4727 15.5787 18.9005V18.9018C15.0967 19.3866 14.4312 19.6872 13.6958 19.6872C12.9604 19.6872 12.2943 19.3866 11.8129 18.9018C11.3874 18.4733 11.1058 17.9005 11.045 17.263H10.4426V17.0054C10.4426 16.0636 10.7339 15.2109 11.3314 14.6084L11.332 14.6078L11.3326 14.6072C11.5589 14.3793 11.8279 14.1884 12.1402 14.0436H15.2526C15.5649 14.1884 15.8339 14.3793 16.0595 14.6072V14.6084C16.3358 14.886 16.5458 15.2175 16.6926 15.586V17.263ZM13.6958 15.6999C12.9803 15.6999 12.3996 16.2842 12.3996 17.0054C12.3996 17.726 12.9803 18.3102 13.6958 18.3102C14.4113 18.3102 14.992 17.726 14.992 17.0054C14.992 16.2842 14.4113 15.6999 13.6958 15.6999Z" fill="#109CF1"/>
<path fill-rule="evenodd" clip-rule="evenodd" d="M13.6956 16.2921C13.3044 16.2921 12.9873 16.6115 12.9873 17.0054C12.9873 17.3994 13.3044 17.7182 13.6956 17.7182C14.0867 17.7182 14.4039 17.3994 14.4039 17.0054C14.4039 16.6115 14.0867 16.2921 13.6956 16.2921Z" fill="#109CF1"/>
<path fill-rule="evenodd" clip-rule="evenodd" d="M16.6924 17.263H17.0384C17.0992 17.8999 17.3814 18.4727 17.8063 18.9005V18.9018C18.2883 19.3866 18.9544 19.6872 19.6892 19.6872C20.4246 19.6872 21.0907 19.3866 21.5721 18.9018C21.9976 18.4733 22.2798 17.9005 22.34 17.263H22.9424V17.0054C22.9424 16.0636 22.6511 15.2109 22.0536 14.6084L22.0529 14.6078L22.0523 14.6072C21.8261 14.3793 21.5571 14.1884 21.2448 14.0436H18.1324C17.8207 14.1884 17.5517 14.3793 17.3254 14.6072V14.6084C17.0498 14.886 16.8392 15.2175 16.6924 15.586V17.263ZM19.6892 15.6999C20.4053 15.6999 20.9854 16.2842 20.9854 17.0054C20.9854 17.726 20.4053 18.3102 19.6892 18.3102C18.9737 18.3102 18.3936 17.726 18.3936 17.0054C18.3936 16.2842 18.9737 15.6999 19.6892 15.6999Z" fill="#109CF1"/>
<path fill-rule="evenodd" clip-rule="evenodd" d="M19.6894 16.2921C20.0805 16.2921 20.3977 16.6115 20.3977 17.0054C20.3977 17.3994 20.0805 17.7182 19.6894 17.7182C19.2988 17.7182 18.9817 17.3994 18.9817 17.0054C18.9817 16.6115 19.2988 16.2921 19.6894 16.2921Z" fill="#109CF1"/>
<path fill-rule="evenodd" clip-rule="evenodd" d="M51.597 13.5284H47.7228C46.5319 13.5284 46.2424 13.9842 46.2418 13.9854L46.6673 14.2709C46.6679 14.2709 46.7991 14.0587 47.6337 14.0448V14.4387H50.6799V14.0436H51.597V13.5284Z" fill="#109CF1"/>
<path fill-rule="evenodd" clip-rule="evenodd" d="M43.0061 14.683H41.6997V16.4636H42.8485V16.0357C42.8485 15.5624 42.9057 15.0987 43.0061 14.683Z" fill="#109CF1"/>
<path fill-rule="evenodd" clip-rule="evenodd" d="M41.9421 17.0055C41.9421 16.0637 42.2334 15.2109 42.8316 14.6085V14.6079L42.8322 14.6073C43.3737 14.0625 44.1585 13.7291 45.1953 13.7291C46.2334 13.7291 47.0181 14.0625 47.5597 14.6073V14.6085C48.1572 15.2103 48.4479 16.0631 48.4479 17.0055V17.7982H47.739C47.5789 18.3182 47.2666 18.7703 46.855 19.1019C46.4001 19.4679 45.823 19.6873 45.1953 19.6873C44.4611 19.6873 43.795 19.3867 43.313 18.9012L43.3124 18.9019C42.8869 18.4734 42.6053 17.9006 42.5445 17.2631H41.9421V17.0055ZM45.1953 15.7C44.4798 15.7 43.8991 16.2843 43.8991 17.0055C43.8991 17.7261 44.4798 18.3103 45.1953 18.3103C45.9108 18.3103 46.4915 17.7261 46.4915 17.0055C46.4915 16.2843 45.9108 15.7 45.1953 15.7Z" fill="#109CF1"/>
<path fill-rule="evenodd" clip-rule="evenodd" d="M45.1953 17.7182C45.5853 17.7182 45.9036 17.3982 45.9036 17.0054C45.9036 16.6121 45.5853 16.2921 45.1953 16.2921C44.8054 16.2921 44.4871 16.6121 44.4871 17.0054C44.4871 17.3982 44.8054 17.7182 45.1953 17.7182Z" fill="#109CF1"/>
<path fill-rule="evenodd" clip-rule="evenodd" d="M66.1441 17.7976H63.3585V17.2831H66.0767L67.4427 16.914V15.0013L66.9914 13.6873H67.4427V11.2528C67.4427 10.3546 66.6448 7.76248 66.1164 6.04672C65.9726 5.57824 65.8444 5.16127 65.7487 4.83642C65.4804 3.91642 64.9177 3.57399 63.4325 3.42733L59.8947 3.1249L57.7795 2.72672C57.6146 3.60915 57.4792 5.19824 57.4112 5.99945C57.1892 8.60551 57.1892 11.0431 57.1892 13.0019V13.0152L58.282 13.8146L57.9811 14.231L56.6777 13.2776V13.0019C56.6771 11.0334 56.6771 8.58309 56.9009 5.95581C56.9767 5.06309 57.135 3.2043 57.3312 2.36793L57.3878 2.12854L59.9633 2.6146L63.4789 2.9146C64.9057 3.05521 65.8637 3.40127 66.2404 4.69096C66.3343 5.01339 66.4618 5.42854 66.6051 5.89399C67.1749 7.74309 67.9542 10.2764 67.9542 11.2528V14.2025H67.7093L67.9542 14.9582V17.3098L66.1441 17.7976Z" fill="#109CF1"/>
<path fill-rule="evenodd" clip-rule="evenodd" d="M58.9091 17.7981H46.8352L46.9977 17.4345C47.0199 17.386 47.0398 17.2454 47.0566 17.0666C47.0777 16.8424 47.0885 16.5624 47.0885 16.3181C47.0885 16.2527 46.8893 16.1333 46.6342 16.009C45.7779 15.5933 45.7171 14.9793 45.0269 15.4708V14.1812H58.0365C57.9408 14.3515 57.8614 14.5302 57.8006 14.7151V14.6963H45.5384V15.1163C45.8609 15.1684 46.4218 15.3351 46.8562 15.546C47.2745 15.7496 47.6 16.0145 47.6 16.3181C47.6 16.5636 47.5874 16.8599 47.5639 17.1133C47.5585 17.1721 47.5525 17.229 47.5453 17.283H58.684V17.5405H59.1648V17.7981H58.9091Z" fill="#109CF1"/>
<path fill-rule="evenodd" clip-rule="evenodd" d="M67.6251 10.5249C67.4108 9.24791 66.7802 7.33033 66.4221 6.12488H65.8143L66.6977 10.2915C66.6977 10.2915 67.1328 10.3412 67.6251 10.5249Z" fill="#109CF1"/>
<path fill-rule="evenodd" clip-rule="evenodd" d="M65.0375 17.7121H64.041V16.5909C64.041 15.0861 62.8254 13.8624 61.3318 13.8624H60.8781C59.6342 13.8624 58.6226 14.8818 58.6226 16.1339V17.7121H57.4901V15.5624C57.4901 13.8964 58.9969 12.3788 60.6512 12.3788H61.179C63.1624 12.3788 65.0375 14.1836 65.0375 16.0933V17.7121ZM64.3816 17.3685H64.6963V16.0933C64.6963 14.3921 62.9542 12.7218 61.179 12.7218H60.6512C59.2015 12.7218 57.8307 14.1024 57.8307 15.5624V17.3685H58.2814V16.1339C58.2814 14.6921 59.4465 13.5194 60.8781 13.5194H61.3318C63.0138 13.5194 64.3816 14.897 64.3816 16.5909V17.3685Z" fill="#109CF1"/>
<path fill-rule="evenodd" clip-rule="evenodd" d="M66.7026 16.7357H67.6986V14.9581H66.7026V16.7357Z" fill="#109CF1"/>
<path fill-rule="evenodd" clip-rule="evenodd" d="M64.8588 15.903H67.0414V15.56H64.8588V15.903Z" fill="#109CF1"/>
<path fill-rule="evenodd" clip-rule="evenodd" d="M61.738 11.8121H62.8483V11.469H61.738V11.8121Z" fill="#109CF1"/>
<path fill-rule="evenodd" clip-rule="evenodd" d="M64.8588 16.7357H67.0408V16.3921H64.8588V16.7357Z" fill="#109CF1"/>
<path fill-rule="evenodd" clip-rule="evenodd" d="M67.0486 13.1406H67.6991V11.4358H67.0486V13.1406Z" fill="#109CF1"/>
<path fill-rule="evenodd" clip-rule="evenodd" d="M58.5251 6.2055H66.3837V5.86247H58.5251V6.2055Z" fill="#109CF1"/>
<path fill-rule="evenodd" clip-rule="evenodd" d="M57.1849 13.2375V14.4388H57.9071C58.0298 14.1636 58.1941 13.9054 58.3897 13.6727H58.3891L57.1849 13.2375Z" fill="#109CF1"/>
<path fill-rule="evenodd" clip-rule="evenodd" d="M64.8509 6.57273H61.8276V8.95758C61.8276 9.21091 62.0058 9.42364 62.2543 9.46546L65.8071 10.0691L65.7229 9.54C65.6405 9.59879 65.5406 9.63333 65.4322 9.63333H65.292C65.014 9.63333 64.7871 9.40485 64.7871 9.12485V6.81939C64.7871 6.7303 64.8106 6.64546 64.8509 6.57273ZM65.4322 6.56909C65.5694 6.56909 65.6814 6.68182 65.6814 6.81939V9.12485C65.6814 9.26303 65.5694 9.37576 65.4322 9.37576H65.292C65.1554 9.37576 65.0429 9.26243 65.0429 9.12485V6.81939C65.0429 6.68182 65.1554 6.56909 65.292 6.56909H65.4322Z" fill="#109CF1"/>
<path fill-rule="evenodd" clip-rule="evenodd" d="M58.4517 17.5406V16.1339C58.4517 14.7903 59.5433 13.6909 60.878 13.6909H61.3317C62.9156 13.6909 64.2112 14.9958 64.2112 16.5909V17.5406H63.7508C63.6449 18.0661 63.3862 18.5358 63.0239 18.9006V18.9018C62.5425 19.3867 61.8763 19.6873 61.141 19.6873C60.4068 19.6873 59.7407 19.3867 59.2586 18.9012L59.258 18.9018C58.8958 18.5364 58.637 18.0667 58.5311 17.5406H58.4517ZM61.141 15.7C60.4255 15.7 59.8448 16.2843 59.8448 17.0055C59.8448 17.7261 60.4255 18.3103 61.141 18.3103C61.8565 18.3103 62.4372 17.7261 62.4372 17.0055C62.4372 16.2843 61.8565 15.7 61.141 15.7Z" fill="#109CF1"/>
<path fill-rule="evenodd" clip-rule="evenodd" d="M61.141 17.7182C61.531 17.7182 61.8493 17.3982 61.8493 17.0054C61.8493 16.6121 61.531 16.2921 61.141 16.2921C60.7511 16.2921 60.4327 16.6121 60.4327 17.0054C60.4327 17.3982 60.7511 17.7182 61.141 17.7182Z" fill="#109CF1"/>
<path fill-rule="evenodd" clip-rule="evenodd" d="M56.3256 15.1466H54.8988C54.8242 15.1466 54.761 15.1927 54.7376 15.2636L54.6052 15.6587C54.5871 15.7127 54.5949 15.7672 54.628 15.8139C54.6611 15.8599 54.7099 15.8854 54.7671 15.8854H56.1932C56.2679 15.8854 56.3311 15.8393 56.3551 15.7684L56.4869 15.3733C56.505 15.3193 56.4971 15.2648 56.464 15.2181C56.4309 15.1721 56.3822 15.1466 56.3256 15.1466Z" fill="#109CF1"/>
<path fill-rule="evenodd" clip-rule="evenodd" d="M55.9682 16.094H54.5414C54.4668 16.094 54.4036 16.1394 54.3801 16.211L54.2477 16.6055C54.2297 16.6601 54.2381 16.7146 54.2712 16.7607C54.3043 16.8073 54.353 16.8322 54.4096 16.8322H55.8358C55.9104 16.8322 55.9736 16.7867 55.9977 16.7152L56.1294 16.3207C56.1475 16.2661 56.1397 16.2116 56.1066 16.1655C56.0735 16.1188 56.0247 16.094 55.9682 16.094Z" fill="#109CF1"/>
</svg>
