<svg width="69" height="21" viewBox="0 0 69 21" fill="none" xmlns="http://www.w3.org/2000/svg">
<path fill-rule="evenodd" clip-rule="evenodd" d="M2.16175 14.8258V17.1352H2.45199L1.75603 17.755V17.3601H1.15479V18.8981H1.75603V18.4733L2.91148 17.6994H4.78305V17.1352H22.9097V15.7659H49.0555V14.8258H2.16175Z" fill="#109CF1"/>
<path fill-rule="evenodd" clip-rule="evenodd" d="M39.468 18.5526H39.988V14.5029H39.468V18.5526Z" fill="#109CF1"/>
<path fill-rule="evenodd" clip-rule="evenodd" d="M29.3866 18.5526H29.9066V14.5029H29.3866V18.5526Z" fill="#109CF1"/>
<path fill-rule="evenodd" clip-rule="evenodd" d="M28.3865 19.0111H41.0652V17.9414H28.3865V19.0111Z" fill="#109CF1"/>
<path fill-rule="evenodd" clip-rule="evenodd" d="M28.3865 17.1051H41.0652V16.0354H28.3865V17.1051Z" fill="#109CF1"/>
<path fill-rule="evenodd" clip-rule="evenodd" d="M0 15.2818H56.2143V0H0V15.2818ZM0.611003 14.6705H55.6033V0.61124H0.611003V14.6705Z" fill="#109CF1"/>
<path fill-rule="evenodd" clip-rule="evenodd" d="M52.3905 14.6528H48.4573C47.2475 14.6528 46.9536 15.1125 46.953 15.1137L47.3856 15.4016C47.3856 15.401 47.5188 15.1877 48.3663 15.173V15.571H51.4599V15.1724H52.3905V14.6528Z" fill="#109CF1"/>
<path fill-rule="evenodd" clip-rule="evenodd" d="M43.6681 15.8173H42.3416V17.6132H43.5074V17.1816C43.5074 16.7036 43.5654 16.2366 43.6681 15.8173Z" fill="#109CF1"/>
<path fill-rule="evenodd" clip-rule="evenodd" d="M42.5879 18.159C42.5879 17.2097 42.883 16.3497 43.4904 15.7421L43.491 15.7414V15.7408C44.0409 15.1913 44.8383 14.8551 45.8905 14.8551C46.9445 14.8551 47.7419 15.1913 48.2912 15.7408V15.7414C48.8979 16.349 49.1937 17.2091 49.1937 18.159V18.9592H48.4733C48.3114 19.4836 47.9942 19.9397 47.5763 20.274C47.1138 20.6432 46.5278 20.8645 45.8905 20.8645C45.145 20.8645 44.4686 20.5613 43.9792 20.0717H43.9786C43.5466 19.6401 43.2606 19.0625 43.1995 18.4194H42.5879V18.159ZM45.8905 16.8429C45.164 16.8429 44.575 17.4321 44.575 18.159C44.575 18.8864 45.164 19.4756 45.8905 19.4756C46.6176 19.4756 47.2066 18.8864 47.2066 18.159C47.2066 17.4321 46.6176 16.8429 45.8905 16.8429Z" fill="#109CF1"/>
<path fill-rule="evenodd" clip-rule="evenodd" d="M45.8911 18.8784C46.287 18.8784 46.6096 18.555 46.6096 18.1589C46.6096 17.7628 46.287 17.4401 45.8911 17.4401C45.4951 17.4401 45.1719 17.7628 45.1719 18.1589C45.1719 18.555 45.4951 18.8784 45.8911 18.8784Z" fill="#109CF1"/>
<path fill-rule="evenodd" clip-rule="evenodd" d="M67.1621 18.9592H64.333V18.4396H67.0936L68.4801 18.068V16.1382L68.0218 14.8129H68.4801V12.3581C68.4801 11.4516 67.6698 8.83533 67.1334 7.10482C66.9867 6.63353 66.8572 6.21297 66.7606 5.88656C66.4881 4.95804 65.9162 4.61328 64.4082 4.46535L60.816 4.16033L58.6682 3.75811C58.5008 4.64751 58.3639 6.25087 58.2943 7.05897C58.0688 9.69111 58.0688 12.1515 58.0694 14.1283V14.135L59.179 14.9413L58.8735 15.3619L57.5494 14.4003V14.1283C57.5494 12.1411 57.5494 9.66849 57.7767 7.01496C57.8537 6.11334 58.0144 4.23796 58.2136 3.39624L58.2704 3.15417L60.8862 3.64564L64.4552 3.9476C65.904 4.09003 66.8767 4.43845 67.2592 5.73985C67.3552 6.06444 67.4841 6.48254 67.6295 6.95078C68.2082 8.81699 69 11.3727 69 12.3581V15.3319H68.7514L69 16.0942V18.4665L67.1621 18.9592Z" fill="#109CF1"/>
<path fill-rule="evenodd" clip-rule="evenodd" d="M59.8151 18.9591H47.5561L47.7211 18.5923C47.7431 18.5434 47.7638 18.4016 47.7803 18.2213C47.8017 17.9951 47.8127 17.7127 47.8127 17.4658C47.8127 17.4004 47.6111 17.2799 47.352 17.1546C46.4819 16.7353 46.4202 16.1161 45.7194 16.6118V15.3104H58.9297C58.8326 15.4828 58.7513 15.6631 58.6896 15.8496V15.8306H46.2393V16.2536C46.5669 16.3068 47.1363 16.4749 47.5769 16.6876C48.0015 16.8924 48.3327 17.1601 48.3327 17.4658C48.3327 17.7139 48.3199 18.0129 48.2961 18.2684C48.2906 18.3277 48.2838 18.3851 48.2771 18.4389H59.5872V18.6993H60.0754V18.9591H59.8151Z" fill="#109CF1"/>
<path fill-rule="evenodd" clip-rule="evenodd" d="M68.6651 11.6234C68.4476 10.3354 67.8072 8.40136 67.4437 7.18555H66.8265L67.7241 11.388C67.7241 11.388 68.1659 11.4382 68.6651 11.6234Z" fill="#109CF1"/>
<path fill-rule="evenodd" clip-rule="evenodd" d="M66.0385 18.8725H65.0254V17.7416C65.0254 16.2244 63.7917 14.9897 62.2752 14.9897H61.8145C60.5515 14.9897 59.5243 16.0172 59.5243 17.2813V18.8725H58.375V16.7037C58.375 15.0233 59.9044 13.4933 61.5847 13.4933H62.12C64.1339 13.4933 66.0385 15.3143 66.0385 17.2398V18.8725ZM65.3723 18.5265H65.6919V17.2398C65.6919 15.5245 63.9224 13.8399 62.1199 13.8399H61.5846C60.1126 13.8399 58.7213 15.2317 58.7213 16.7037V18.5265H59.1778V17.2813C59.1778 15.8265 60.3607 14.6431 61.8143 14.6431H62.2751C63.9829 14.6431 65.3723 16.0337 65.3723 17.7416V18.5265Z" fill="#109CF1"/>
<path fill-rule="evenodd" clip-rule="evenodd" d="M67.7285 17.8876H68.7398V16.0947H67.7285V17.8876Z" fill="#109CF1"/>
<path fill-rule="evenodd" clip-rule="evenodd" d="M65.8563 17.0477H68.0725V16.7017H65.8563V17.0477Z" fill="#109CF1"/>
<path fill-rule="evenodd" clip-rule="evenodd" d="M62.6875 12.9216H63.8142V12.5756H62.6875V12.9216Z" fill="#109CF1"/>
<path fill-rule="evenodd" clip-rule="evenodd" d="M65.8563 17.8876H68.0719V17.541H65.8563V17.8876Z" fill="#109CF1"/>
<path fill-rule="evenodd" clip-rule="evenodd" d="M68.0797 14.2615H68.7402V12.542H68.0797V14.2615Z" fill="#109CF1"/>
<path fill-rule="evenodd" clip-rule="evenodd" d="M59.4253 7.2661H67.4041V6.92012H59.4253V7.2661Z" fill="#109CF1"/>
<path fill-rule="evenodd" clip-rule="evenodd" d="M58.0645 14.3588V15.5709H58.7983C58.9223 15.2934 59.0891 15.033 59.2877 14.7983L58.0645 14.3588Z" fill="#109CF1"/>
<path fill-rule="evenodd" clip-rule="evenodd" d="M65.849 7.63667H62.7786V10.0426C62.7786 10.2981 62.9594 10.5127 63.2118 10.5549L66.8193 11.1637L66.7337 10.6301C66.6506 10.6894 66.5486 10.7242 66.4386 10.7242H66.2962C66.0139 10.7242 65.7836 10.4938 65.7836 10.2113V7.88607C65.7836 7.7956 65.8074 7.71064 65.849 7.63667ZM66.4386 7.63293C66.5779 7.63293 66.6916 7.74724 66.6916 7.886V10.2113C66.6916 10.35 66.5779 10.4643 66.4386 10.4643H66.2962C66.1575 10.4643 66.0439 10.35 66.0439 10.2113V7.886C66.0439 7.74724 66.1575 7.63293 66.2962 7.63293H66.4386Z" fill="#109CF1"/>
<path fill-rule="evenodd" clip-rule="evenodd" d="M59.3507 18.6994V17.2807C59.3507 15.9255 60.4591 14.8167 61.8144 14.8167H62.2751C63.8833 14.8167 65.1988 16.1327 65.1988 17.7416V18.6994H64.7314C64.6239 19.2294 64.3617 19.7032 63.9933 20.0711V20.0717C63.5045 20.5614 62.8281 20.8646 62.0814 20.8646C61.3359 20.8646 60.6595 20.5614 60.1701 20.0717H60.1695C59.8016 19.7038 59.5389 19.23 59.4314 18.6994H59.3507ZM62.0814 16.843C61.3549 16.843 60.7659 17.4323 60.7659 18.1591C60.7659 18.8865 61.3549 19.4757 62.0814 19.4757C62.8085 19.4757 63.3976 18.8865 63.3976 18.1591C63.3976 17.4323 62.8085 16.843 62.0814 16.843Z" fill="#109CF1"/>
<path fill-rule="evenodd" clip-rule="evenodd" d="M62.082 18.8784C62.4779 18.8784 62.8005 18.555 62.8005 18.1589C62.8005 17.7628 62.4779 17.4401 62.082 17.4401C61.686 17.4401 61.3628 17.7628 61.3628 18.1589C61.3628 18.555 61.686 18.8784 62.082 18.8784Z" fill="#109CF1"/>
<path fill-rule="evenodd" clip-rule="evenodd" d="M57.1919 16.2848H55.7432C55.6674 16.2848 55.6032 16.3312 55.5794 16.4028L55.445 16.8013C55.4267 16.8557 55.4352 16.9107 55.4688 16.9578C55.5024 17.0043 55.5519 17.0299 55.6094 17.0299H57.0575C57.1333 17.0299 57.1974 16.9835 57.2219 16.912L57.3557 16.5134C57.374 16.459 57.3661 16.404 57.3325 16.3569C57.2988 16.3105 57.2494 16.2848 57.1919 16.2848Z" fill="#109CF1"/>
<path fill-rule="evenodd" clip-rule="evenodd" d="M56.829 17.2404H55.3803C55.3045 17.2404 55.2403 17.2862 55.2165 17.3583L55.0821 17.7563C55.0637 17.8113 55.0723 17.8663 55.1059 17.9128C55.1395 17.9592 55.189 17.9849 55.2464 17.9849H56.6952C56.7703 17.9849 56.8351 17.9384 56.8589 17.8669L56.9928 17.469C57.0111 17.414 57.0031 17.3589 56.9695 17.3125C56.9359 17.2654 56.8864 17.2404 56.829 17.2404Z" fill="#109CF1"/>
<path fill-rule="evenodd" clip-rule="evenodd" d="M10.8634 18.4194H10.5115C10.4504 19.0619 10.1638 19.6389 9.73243 20.0711V20.0717C9.243 20.5613 8.5666 20.8645 7.82054 20.8645C7.07386 20.8645 6.39746 20.5613 5.90803 20.0717C5.47664 19.6401 5.19007 19.0625 5.12897 18.4194H4.51733V18.159C4.51733 17.2097 4.81246 16.3497 5.41982 15.7421L5.42043 15.7415L5.42104 15.7408C5.65079 15.511 5.92391 15.3185 6.24104 15.1724H9.40065C9.71777 15.3185 9.9909 15.511 10.2206 15.7408V15.7415C10.5005 16.022 10.7143 16.3558 10.8634 16.728V18.4194ZM7.82053 16.843C7.09341 16.843 6.50439 17.4323 6.50439 18.1591C6.50439 18.8865 7.09341 19.4757 7.82053 19.4757C8.54704 19.4757 9.13607 18.8865 9.13607 18.1591C9.13607 17.4323 8.54704 16.843 7.82053 16.843Z" fill="#109CF1"/>
<path fill-rule="evenodd" clip-rule="evenodd" d="M7.82049 17.4401C7.42333 17.4401 7.10132 17.7622 7.10132 18.1595C7.10132 18.5562 7.42333 18.8784 7.82049 18.8784C8.21705 18.8784 8.53906 18.5562 8.53906 18.1595C8.53906 17.7622 8.21705 17.4401 7.82049 17.4401Z" fill="#109CF1"/>
<path fill-rule="evenodd" clip-rule="evenodd" d="M16.9493 18.4194H16.5979C16.5362 19.0619 16.2496 19.6389 15.8182 20.0711V20.0717C15.3294 20.5613 14.653 20.8645 13.9064 20.8645C13.1597 20.8645 12.4839 20.5613 11.9945 20.0717C11.5625 19.6401 11.2765 19.0625 11.2148 18.4194H10.6038V18.159C10.6038 17.2097 10.8989 16.3497 11.5062 15.7421L11.5069 15.7415V15.7408C11.7372 15.511 12.0103 15.3185 12.3269 15.1724H15.4871C15.8042 15.3185 16.0773 15.511 16.3071 15.7408V15.7415C16.5869 16.022 16.8002 16.3558 16.9493 16.728V18.4194ZM13.9065 16.843C13.18 16.843 12.5903 17.4323 12.5903 18.1591C12.5903 18.8865 13.18 19.4757 13.9065 19.4757C14.6336 19.4757 15.2226 18.8865 15.2226 18.1591C15.2226 17.4323 14.6336 16.843 13.9065 16.843Z" fill="#109CF1"/>
<path fill-rule="evenodd" clip-rule="evenodd" d="M13.9063 17.4401C13.5091 17.4401 13.1877 17.7622 13.1877 18.1595C13.1877 18.5562 13.5091 18.8784 13.9063 18.8784C14.3035 18.8784 14.6255 18.5562 14.6255 18.1595C14.6255 17.7622 14.3035 17.4401 13.9063 17.4401Z" fill="#109CF1"/>
<path fill-rule="evenodd" clip-rule="evenodd" d="M16.9492 18.4194H17.3012C17.3623 19.0619 17.6488 19.6389 18.0802 20.0711V20.0717C18.5697 20.5613 19.2461 20.8645 19.9927 20.8645C20.7394 20.8645 21.4152 20.5613 21.9046 20.0717C22.336 19.6401 22.6226 19.0625 22.6837 18.4194H23.2953V18.159C23.2953 17.2097 23.0002 16.3497 22.3928 15.7421L22.3922 15.7415L22.3916 15.7408C22.1619 15.511 21.8887 15.3185 21.5716 15.1724H18.412C18.0949 15.3185 17.8218 15.511 17.592 15.7408V15.7415C17.3122 16.022 17.0983 16.3558 16.9492 16.728V18.4194ZM19.9928 16.843C20.7193 16.843 21.3083 17.4323 21.3083 18.1591C21.3083 18.8865 20.7193 19.4757 19.9928 19.4757C19.2656 19.4757 18.6766 18.8865 18.6766 18.1591C18.6766 17.4323 19.2656 16.843 19.9928 16.843Z" fill="#109CF1"/>
<path fill-rule="evenodd" clip-rule="evenodd" d="M19.9929 17.4401C20.3894 17.4401 20.7114 17.7622 20.7114 18.1595C20.7114 18.5562 20.3894 18.8784 19.9929 18.8784C19.5957 18.8784 19.2737 18.5562 19.2737 18.1595C19.2737 17.7622 19.5957 17.4401 19.9929 17.4401Z" fill="#109CF1"/>
</svg>
