<svg width="70" height="17" viewBox="0 0 70 17" fill="none" xmlns="http://www.w3.org/2000/svg">
<path fill-rule="evenodd" clip-rule="evenodd" d="M51.34 10.3884H47.3168C46.0793 10.3884 45.7787 10.8619 45.7781 10.8632L46.2206 11.1604C46.2206 11.1597 46.3568 10.9394 47.2237 10.9249V11.7434H50.3881V10.9236H51.34V10.3884Z" fill="#109CF1"/>
<path fill-rule="evenodd" clip-rule="evenodd" d="M33.34 14.4055H33.8712V10.5667H33.34V14.4055Z" fill="#109CF1"/>
<path fill-rule="evenodd" clip-rule="evenodd" d="M23.0281 14.4055H23.5593V10.5667H23.0281V14.4055Z" fill="#109CF1"/>
<path fill-rule="evenodd" clip-rule="evenodd" d="M22.0044 14.8777H34.9731V13.7759H22.0044V14.8777Z" fill="#109CF1"/>
<path fill-rule="evenodd" clip-rule="evenodd" d="M22.0044 12.9146H34.9731V11.8127H22.0044V12.9146Z" fill="#109CF1"/>
<path fill-rule="evenodd" clip-rule="evenodd" d="M0 10.8341H57.5875V6.28442H0V10.8341ZM0.53125 10.2989H57.0563V6.81961H0.53125V10.2989Z" fill="#109CF1"/>
<path fill-rule="evenodd" clip-rule="evenodd" d="M53.565 9.60141H53.9187V7.51733H53.565V9.60141ZM45.2487 9.60141H45.6025V7.51733H45.2487V9.60141ZM36.9331 9.60141H37.2869V7.51733H36.9331V9.60141ZM28.6162 9.60141H28.97V7.51733H28.6162V9.60141ZM20.3006 9.60141H20.6544V7.51733H20.3006V9.60141ZM11.9844 9.60141H12.3381V7.51733H11.9844V9.60141ZM3.66748 9.60141H4.02123V7.51733H3.66748V9.60141Z" fill="#109CF1"/>
<path fill-rule="evenodd" clip-rule="evenodd" d="M67.7787 14.8241H65.6668L65.5906 14.7529C65.4681 14.6383 65.3493 14.5395 65.2325 14.4545L65.5462 14.0213C65.6531 14.1 65.7625 14.1888 65.8743 14.2889H67.7093L69.1281 13.9061V11.9183L68.6593 10.5533H69.1281V8.02471C69.1281 7.07964 68.5143 5.07427 68.0662 3.61101C67.92 3.1306 67.7875 2.69805 67.6931 2.35805C67.515 1.71834 66.4581 1.36575 64.7168 1.36575H60.8606V9.7159H60.3293V0.830566H64.7168C66.7762 0.830566 67.9493 1.29586 68.2043 2.21386C68.2981 2.55008 68.4287 2.97823 68.5743 3.45297C69.0575 5.03271 69.6587 6.99905 69.6587 8.02471V11.0885H69.405L69.6587 11.8736V14.3166L67.7787 14.8241Z" fill="#109CF1"/>
<path fill-rule="evenodd" clip-rule="evenodd" d="M69.3169 7.26789C69.0944 5.94126 68.4388 3.94911 68.0675 2.69678H67.4363L68.3538 7.02548C68.3538 7.02548 68.8057 7.07711 69.3169 7.26789Z" fill="#109CF1"/>
<path fill-rule="evenodd" clip-rule="evenodd" d="M59.7894 14.5565V13.0958C59.7894 11.6993 60.9232 10.5571 62.3094 10.5571H62.7807C64.4257 10.5571 65.7713 11.9127 65.7713 13.5699V14.5565H65.2932C65.1832 15.1024 64.9144 15.5904 64.5382 15.9694V15.9707C64.0382 16.4744 63.3463 16.7867 62.5826 16.7867C61.8201 16.7867 61.1282 16.4744 60.6276 15.9701L60.6269 15.9707C60.2501 15.591 59.9819 15.1031 59.8719 14.5565H59.7894ZM62.5826 12.6444C61.8394 12.6444 61.2363 13.2513 61.2363 14.0006C61.2363 14.7492 61.8394 15.3562 62.5826 15.3562C63.3257 15.3562 63.9288 14.7492 63.9288 14.0006C63.9288 13.2513 63.3257 12.6444 62.5826 12.6444Z" fill="#109CF1"/>
<path fill-rule="evenodd" clip-rule="evenodd" d="M66.63 14.7348H65.5944V13.57C65.5944 12.0073 64.3319 10.7354 62.78 10.7354H62.3088C61.0175 10.7354 59.9663 11.7945 59.9663 13.0959V14.7348H58.7913V12.5015C58.7913 10.7707 60.3556 9.19409 62.0738 9.19409H62.6213C64.6819 9.19409 66.63 11.0698 66.63 13.0531V14.7348ZM65.9488 14.3785H66.2756V13.0531C66.2756 11.2864 64.4656 9.55109 62.6213 9.55109H62.0738C60.5681 9.55109 59.145 10.9848 59.145 12.5015V14.3785H59.6125V13.0959C59.6125 11.598 60.8225 10.3791 62.3088 10.3791H62.78C64.5269 10.3791 65.9488 11.8108 65.9488 13.57V14.3785Z" fill="#109CF1"/>
<path fill-rule="evenodd" clip-rule="evenodd" d="M62.5825 13.2595C62.1763 13.2595 61.8469 13.5913 61.8469 14.0006C61.8469 14.4099 62.1763 14.7417 62.5825 14.7417C62.9888 14.7417 63.3182 14.4099 63.3182 14.0006C63.3182 13.5913 62.9888 13.2595 62.5825 13.2595Z" fill="#109CF1"/>
<path fill-rule="evenodd" clip-rule="evenodd" d="M63.9925 1.09826C62.5487 0.264634 61.6275 0.0379674 60.2637 0.000189633C59.9794 -0.00736592 59.7387 0.211745 59.7188 0.498227C59.5419 3.06523 59.3644 5.6316 59.1875 8.1986V11.9959C59.3413 11.0798 59.9 10.2524 60.665 9.78086L60.5956 9.716C60.5956 6.84363 60.5956 3.97063 60.5956 1.09826H63.9925Z" fill="#109CF1"/>
<path fill-rule="evenodd" clip-rule="evenodd" d="M68.3588 13.7205H69.3931V11.8738H68.3588V13.7205Z" fill="#109CF1"/>
<path fill-rule="evenodd" clip-rule="evenodd" d="M63.2025 8.6053H64.355V8.24893H63.2025V8.6053Z" fill="#109CF1"/>
<path fill-rule="evenodd" clip-rule="evenodd" d="M66.4437 13.7204H68.71V13.3634H66.4437V13.7204Z" fill="#109CF1"/>
<path fill-rule="evenodd" clip-rule="evenodd" d="M59.48 11.0962H38.8738V12.946H43.8457C44.0763 12.7572 44.3713 12.6445 44.6913 12.6445C45.0119 12.6445 45.3063 12.7572 45.5375 12.946H59.145V12.5015C59.145 12.0092 59.2663 11.5281 59.48 11.0962Z" fill="#109CF1"/>
<path fill-rule="evenodd" clip-rule="evenodd" d="M47.4444 14.2682C47.3812 14.9299 47.0887 15.5249 46.6475 15.9694V15.9707C46.1469 16.4744 45.455 16.7867 44.6912 16.7867C43.9287 16.7867 43.2369 16.4744 42.7362 15.9701L42.7356 15.9707C42.2944 15.5255 42.0012 14.9305 41.9387 14.2682H41.3131V14.0006C41.3131 13.0221 41.615 12.1363 42.2362 11.5104L42.2369 11.5098L42.2375 11.5091C42.4725 11.2724 42.7519 11.0747 43.0756 10.9236H46.3081C46.6325 11.0741 46.9119 11.2724 47.1469 11.5091V11.5104C47.7675 12.1356 48.07 13.0215 48.07 14.0006V14.2682H47.4444ZM44.6912 12.6444C43.9481 12.6444 43.345 13.2513 43.345 14.0006C43.345 14.7492 43.9481 15.3562 44.6912 15.3562C45.435 15.3562 46.0375 14.7492 46.0375 14.0006C46.0375 13.2513 45.435 12.6444 44.6912 12.6444Z" fill="#109CF1"/>
<path fill-rule="evenodd" clip-rule="evenodd" d="M44.6913 13.2595C44.2857 13.2595 43.9563 13.5913 43.9563 14.0006C43.9563 14.4099 44.2857 14.7417 44.6913 14.7417C45.0975 14.7417 45.4269 14.4099 45.4269 14.0006C45.4269 13.5913 45.0975 13.2595 44.6913 13.2595Z" fill="#109CF1"/>
<path fill-rule="evenodd" clip-rule="evenodd" d="M53.5712 12.2961H48.7468V13.8073C48.7468 14.1019 48.9856 14.3431 49.2781 14.3431H53.0393C53.3325 14.3431 53.5712 14.1019 53.5712 13.8073V13.534H53.9493C53.9481 13.551 53.9475 13.5686 53.9475 13.5856C53.9475 13.9798 54.2643 14.299 54.6556 14.299C54.9462 14.299 55.1968 14.1221 55.3056 13.869H56.1637C56.2725 14.1221 56.5225 14.299 56.8137 14.299C57.2043 14.299 57.5218 13.9798 57.5218 13.5856C57.5218 13.5686 57.5206 13.551 57.5193 13.534H57.7531V14.287H59.1506V12.3182H57.7531V12.6588H53.5712V12.2961Z" fill="#109CF1"/>
<path fill-rule="evenodd" clip-rule="evenodd" d="M38.4588 13.1771H37.8431V14.7613H38.4588V14.3237L39.6406 13.5272H41.5544V12.3511H39.2794V12.8655L39.2588 12.8667L38.4588 13.5839V13.1771Z" fill="#109CF1"/>
<path fill-rule="evenodd" clip-rule="evenodd" d="M68.7175 9.98624H69.3932V8.21509H68.7175V9.98624Z" fill="#109CF1"/>
<path fill-rule="evenodd" clip-rule="evenodd" d="M66.4357 3.16223H63.2957V5.63982C63.2957 5.903 63.4807 6.124 63.7388 6.16745L67.4288 6.79519L67.3413 6.24489C67.2557 6.30597 67.1519 6.34185 67.0394 6.34185H66.8938C66.605 6.34185 66.3694 6.10448 66.3694 5.8136V3.41911C66.3694 3.32593 66.3938 3.23778 66.4357 3.16223ZM67.0394 3.15845C67.1819 3.15845 67.2982 3.27556 67.2982 3.41911V5.8136C67.2982 5.95715 67.1813 6.07426 67.0394 6.07426H66.8938C66.7519 6.07426 66.635 5.95652 66.635 5.8136V3.41911C66.635 3.27556 66.7519 3.15845 66.8938 3.15845H67.0394Z" fill="#109CF1"/>
<path fill-rule="evenodd" clip-rule="evenodd" d="M2.21115 10.5654V12.9442H2.50803L1.79615 13.5826V13.1759H1.18115V14.7594H1.79615V14.3224L2.97803 13.5253H4.8924V12.9442H7.15303C7.38428 12.7559 7.67865 12.6432 7.99928 12.6432C8.31928 12.6432 8.61365 12.7559 8.8449 12.9442H13.378C13.6093 12.7559 13.9037 12.6432 14.2243 12.6432C14.5449 12.6432 14.8393 12.7559 15.0705 12.9442H19.6743V10.5654H2.21115Z" fill="#109CF1"/>
<path fill-rule="evenodd" clip-rule="evenodd" d="M11.1119 12.5248C11.2644 12.142 11.4825 11.7975 11.7694 11.5092V11.5085L11.77 11.5079C12.0056 11.2712 12.285 11.0728 12.6087 10.9224H15.8412C16.1656 11.0728 16.445 11.2712 16.68 11.5079V11.5092C17.3006 12.1344 17.6031 13.0203 17.6031 13.9987V14.267H16.9775C16.9144 14.9287 16.6219 15.5231 16.18 15.9682V15.9688C15.68 16.4732 14.9881 16.7855 14.2244 16.7855C13.4606 16.7855 12.7694 16.4732 12.2687 15.9688C11.8269 15.5243 11.5344 14.9293 11.4712 14.267H10.7519C10.6894 14.9287 10.3962 15.5231 9.95498 15.9682V15.9688C9.45436 16.4732 8.76248 16.7855 7.99936 16.7855C7.23561 16.7855 6.54373 16.4732 6.04311 15.9688C5.60186 15.5243 5.30873 14.9293 5.24623 14.267H4.62061V13.9987C4.62061 13.0209 4.92248 12.135 5.54373 11.5092L5.54436 11.5085L5.54498 11.5079C5.77998 11.2712 6.05936 11.0728 6.38373 10.9224H9.61561C9.93998 11.0728 10.2194 11.2712 10.4544 11.5079V11.5092C10.7406 11.7975 10.9594 12.1413 11.1119 12.5248ZM7.99936 12.6431C7.25561 12.6431 6.65311 13.2501 6.65311 13.9987C6.65311 14.748 7.25561 15.355 7.99936 15.355C8.74248 15.355 9.34498 14.748 9.34498 13.9987C9.34498 13.2501 8.74248 12.6431 7.99936 12.6431ZM14.2244 12.6431C13.4812 12.6431 12.8781 13.2501 12.8781 13.9987C12.8781 14.748 13.4812 15.355 14.2244 15.355C14.9681 15.355 15.5706 14.748 15.5706 13.9987C15.5706 13.2501 14.9681 12.6431 14.2244 12.6431Z" fill="#109CF1"/>
<path fill-rule="evenodd" clip-rule="evenodd" d="M14.2243 13.2583C13.8186 13.2583 13.4893 13.5901 13.4893 13.9994C13.4893 14.408 13.8186 14.7398 14.2243 14.7398C14.6305 14.7398 14.9599 14.408 14.9599 13.9994C14.9599 13.5901 14.6305 13.2583 14.2243 13.2583Z" fill="#109CF1"/>
<path fill-rule="evenodd" clip-rule="evenodd" d="M7.9993 13.2583C7.59305 13.2583 7.26367 13.5901 7.26367 13.9994C7.26367 14.408 7.59305 14.7398 7.9993 14.7398C8.40492 14.7398 8.7343 14.408 8.7343 13.9994C8.7343 13.5901 8.40492 13.2583 7.9993 13.2583Z" fill="#109CF1"/>
</svg>
