<svg width="69" height="19" viewBox="0 0 69 19" fill="none" xmlns="http://www.w3.org/2000/svg">
<path fill-rule="evenodd" clip-rule="evenodd" d="M2.16175 12.9709V15.2766H2.45199L1.75603 15.8954V15.5012H1.15479V17.0367H1.75603V16.6125L2.91148 15.8399H4.78305V15.2766H22.9097V13.9096H49.0555V12.9709H2.16175Z" fill="#109CF1"/>
<path fill-rule="evenodd" clip-rule="evenodd" d="M39.4679 16.6919H39.9879V12.6488H39.4679V16.6919Z" fill="#109CF1"/>
<path fill-rule="evenodd" clip-rule="evenodd" d="M29.3866 16.6919H29.9066V12.6488H29.3866V16.6919Z" fill="#109CF1"/>
<path fill-rule="evenodd" clip-rule="evenodd" d="M28.3865 17.1497H41.0652V16.0817H28.3865V17.1497Z" fill="#109CF1"/>
<path fill-rule="evenodd" clip-rule="evenodd" d="M28.3865 15.2467H41.0652V14.1787H28.3865V15.2467Z" fill="#109CF1"/>
<path fill-rule="evenodd" clip-rule="evenodd" d="M0 13.2304H56.2999V0H0V13.2304ZM0.519372 12.7116H55.7799V0.518131H0.519372V12.7116Z" fill="#109CF1"/>
<path fill-rule="evenodd" clip-rule="evenodd" d="M52.3905 12.7983H48.4573C47.2475 12.7983 46.9536 13.2573 46.953 13.2585L47.3856 13.5459C47.3856 13.5453 47.5188 13.3323 48.3663 13.3177V13.715H51.4599V13.3171H52.3905V12.7983Z" fill="#109CF1"/>
<path fill-rule="evenodd" clip-rule="evenodd" d="M43.6681 13.9609H42.3416V15.754H43.5074V15.3231C43.5074 14.8459 43.5654 14.3796 43.6681 13.9609Z" fill="#109CF1"/>
<path fill-rule="evenodd" clip-rule="evenodd" d="M42.5879 16.2988C42.5879 15.3511 42.883 14.4924 43.4904 13.8858L43.491 13.8852V13.8845C44.0409 13.3359 44.8383 13.0002 45.8905 13.0002C46.9445 13.0002 47.7419 13.3359 48.2912 13.8845V13.8852C48.8979 14.4918 49.1937 15.3505 49.1937 16.2988V17.0977H48.4733C48.3114 17.6213 47.9942 18.0766 47.5763 18.4104C47.1138 18.779 46.5278 19 45.8905 19C45.145 19 44.4686 18.6973 43.9792 18.2084H43.9786C43.5466 17.7776 43.2606 17.2008 43.1995 16.5588H42.5879V16.2988ZM45.8905 14.9849C45.164 14.9849 44.5749 15.5732 44.5749 16.2988C44.5749 17.0251 45.164 17.6134 45.8905 17.6134C46.6176 17.6134 47.2066 17.0251 47.2066 16.2988C47.2066 15.5732 46.6176 14.9849 45.8905 14.9849Z" fill="#109CF1"/>
<path fill-rule="evenodd" clip-rule="evenodd" d="M45.8911 17.0172C46.287 17.0172 46.6096 16.6943 46.6096 16.2989C46.6096 15.9034 46.287 15.5812 45.8911 15.5812C45.4951 15.5812 45.1719 15.9034 45.1719 16.2989C45.1719 16.6943 45.4951 17.0172 45.8911 17.0172Z" fill="#109CF1"/>
<path fill-rule="evenodd" clip-rule="evenodd" d="M67.1621 17.0978H64.333V16.579H67.0936L68.4801 16.208V14.2813L68.0218 12.9582H68.4801V10.5073C68.4801 9.60224 67.6698 6.99022 67.1334 5.26251C66.9867 4.79198 66.8572 4.3721 66.7606 4.04621C66.4881 3.11919 65.9162 2.77499 64.4082 2.6273L60.816 2.32277L58.6682 1.9212C58.5008 2.80916 58.3639 4.40994 58.2943 5.21674C58.0688 7.84462 58.0688 10.301 58.0694 12.2747V12.2814L59.179 13.0864L58.8735 13.5062L57.5494 12.5463V12.2747C57.5494 10.2906 57.5494 7.82204 57.7767 5.1728C57.8537 4.27263 58.0144 2.40027 58.2136 1.55991L58.2704 1.31824L60.8862 1.80891L64.4552 2.11039C65.904 2.25258 66.8767 2.60045 67.2592 3.89974C67.3552 4.2238 67.4841 4.64124 67.6295 5.10872C68.2081 6.97192 69 9.52352 69 10.5073V13.4763H68.7514L69 14.2374V16.6059L67.1621 17.0978Z" fill="#109CF1"/>
<path fill-rule="evenodd" clip-rule="evenodd" d="M59.8151 17.0977H47.5561L47.7211 16.7316C47.7431 16.6828 47.7638 16.5412 47.7803 16.3611C47.8017 16.1353 47.8127 15.8534 47.8127 15.6068C47.8127 15.5415 47.6111 15.4213 47.352 15.2962C46.4819 14.8775 46.4202 14.2593 45.7194 14.7543V13.455H58.9297C58.8326 13.6271 58.7513 13.8071 58.6896 13.9932V13.9743H46.2393V14.3966C46.5669 14.4497 47.1363 14.6175 47.5769 14.8299C48.0015 15.0344 48.3327 15.3017 48.3327 15.6068C48.3327 15.8546 48.3199 16.153 48.2961 16.4081C48.2906 16.4673 48.2838 16.5247 48.2771 16.5784H59.5872V16.8384H60.0754V17.0977H59.8151Z" fill="#109CF1"/>
<path fill-rule="evenodd" clip-rule="evenodd" d="M68.6651 9.77369C68.4476 8.48782 67.8072 6.55687 67.4437 5.34302H66.8265L67.7241 9.53873C67.7241 9.53873 68.1659 9.58877 68.6651 9.77369Z" fill="#109CF1"/>
<path fill-rule="evenodd" clip-rule="evenodd" d="M66.0384 17.0111H65.0253V15.8821C65.0253 14.3674 63.7916 13.1346 62.2751 13.1346H61.8143C60.5513 13.1346 59.5242 14.1605 59.5242 15.4226V17.0111H58.3749V14.8458C58.3749 13.1682 59.9043 11.6406 61.5846 11.6406H62.1198C64.1338 11.6406 66.0384 13.4587 66.0384 15.3811V17.0111ZM65.3723 16.6657H65.6919V15.3811C65.6919 13.6686 63.9224 11.9867 62.1199 11.9867H61.5846C60.1126 11.9867 58.7213 13.3763 58.7213 14.8458V16.6657H59.1778V15.4226C59.1778 13.9701 60.3607 12.7886 61.8143 12.7886H62.2751C63.9829 12.7886 65.3723 14.177 65.3723 15.8821V16.6657Z" fill="#109CF1"/>
<path fill-rule="evenodd" clip-rule="evenodd" d="M65.8563 15.1894H68.0725V14.844H65.8563V15.1894Z" fill="#109CF1"/>
<path fill-rule="evenodd" clip-rule="evenodd" d="M62.6875 11.07H63.8142V10.7246H62.6875V11.07Z" fill="#109CF1"/>
<path fill-rule="evenodd" clip-rule="evenodd" d="M65.8563 16.028H68.0719V15.6819H65.8563V16.028Z" fill="#109CF1"/>
<path fill-rule="evenodd" clip-rule="evenodd" d="M68.0798 12.4076H68.7403V10.6909H68.0798V12.4076Z" fill="#109CF1"/>
<path fill-rule="evenodd" clip-rule="evenodd" d="M59.4253 5.42365H67.4041V5.07823H59.4253V5.42365Z" fill="#109CF1"/>
<path fill-rule="evenodd" clip-rule="evenodd" d="M58.0645 12.5048V13.715H58.7983C58.9223 13.4379 59.0891 13.1779 59.2877 12.9436L58.0645 12.5048Z" fill="#109CF1"/>
<path fill-rule="evenodd" clip-rule="evenodd" d="M65.849 5.79354H62.7786V8.19563C62.7786 8.45073 62.9594 8.66494 63.2118 8.70705L66.8193 9.31489L66.7337 8.78211C66.6506 8.84131 66.5486 8.87609 66.4386 8.87609H66.2962C66.0139 8.87609 65.7836 8.64602 65.7836 8.36407V6.04254C65.7836 5.95222 65.8074 5.86739 65.849 5.79354ZM66.4386 5.78979C66.5779 5.78979 66.6916 5.90392 66.6916 6.04245V8.36398C66.6916 8.50251 66.5779 8.61663 66.4386 8.61663H66.2962C66.1575 8.61663 66.0439 8.50251 66.0439 8.36398V6.04245C66.0439 5.90392 66.1575 5.78979 66.2962 5.78979H66.4386Z" fill="#109CF1"/>
<path fill-rule="evenodd" clip-rule="evenodd" d="M59.3507 16.8383V15.4219C59.3507 14.0688 60.4591 12.9618 61.8144 12.9618H62.2751C63.8833 12.9618 65.1988 14.2757 65.1988 15.882V16.8383H64.7314C64.6239 17.3674 64.3617 17.8404 63.9933 18.2078V18.2084C63.5045 18.6973 62.8281 19 62.0814 19C61.3359 19 60.6595 18.6973 60.1701 18.2084H60.1695C59.8016 17.841 59.5389 17.3681 59.4314 16.8383H59.3507ZM62.0814 14.9849C61.3549 14.9849 60.7658 15.5732 60.7658 16.2988C60.7658 17.0251 61.3549 17.6134 62.0814 17.6134C62.8085 17.6134 63.3975 17.0251 63.3975 16.2988C63.3975 15.5732 62.8085 14.9849 62.0814 14.9849Z" fill="#109CF1"/>
<path fill-rule="evenodd" clip-rule="evenodd" d="M62.082 17.0172C62.4779 17.0172 62.8005 16.6943 62.8005 16.2989C62.8005 15.9034 62.4779 15.5812 62.082 15.5812C61.686 15.5812 61.3628 15.9034 61.3628 16.2989C61.3628 16.6943 61.686 17.0172 62.082 17.0172Z" fill="#109CF1"/>
<path fill-rule="evenodd" clip-rule="evenodd" d="M57.1919 14.4277H55.7432C55.6674 14.4277 55.6032 14.4741 55.5794 14.5455L55.445 14.9434C55.4267 14.9977 55.4352 15.0527 55.4688 15.0997C55.5024 15.146 55.5519 15.1717 55.6094 15.1717H57.0575C57.1333 15.1717 57.1974 15.1253 57.2219 15.0539L57.3557 14.656C57.374 14.6017 57.3661 14.5467 57.3324 14.4997C57.2988 14.4534 57.2493 14.4277 57.1919 14.4277Z" fill="#109CF1"/>
<path fill-rule="evenodd" clip-rule="evenodd" d="M56.829 15.3816H55.3803C55.3045 15.3816 55.2403 15.4274 55.2165 15.4994L55.0821 15.8967C55.0637 15.9516 55.0723 16.0065 55.1059 16.0529C55.1395 16.0993 55.189 16.1249 55.2464 16.1249H56.6952C56.7703 16.1249 56.8351 16.0785 56.8589 16.0071L56.9928 15.6098C57.0111 15.5549 57.0031 15.5 56.9695 15.4536C56.9359 15.4066 56.8864 15.3816 56.829 15.3816Z" fill="#109CF1"/>
<path fill-rule="evenodd" clip-rule="evenodd" d="M10.8634 16.5589H10.5115C10.4504 17.2003 10.1638 17.7764 9.73243 18.2078V18.2085C9.243 18.6973 8.5666 19 7.82054 19C7.07386 19 6.39746 18.6973 5.90803 18.2085C5.47664 17.7776 5.19007 17.2009 5.12897 16.5589H4.51733V16.2989C4.51733 15.3511 4.81246 14.4924 5.41982 13.8858L5.42043 13.8852L5.42104 13.8846C5.65079 13.6551 5.92391 13.4629 6.24104 13.317H9.40065C9.71777 13.4629 9.9909 13.6551 10.2206 13.8846V13.8852C10.5005 14.1653 10.7143 14.4985 10.8634 14.8702V16.5589ZM7.82053 14.9849C7.09341 14.9849 6.50439 15.5732 6.50439 16.2989C6.50439 17.0251 7.09341 17.6134 7.82053 17.6134C8.54704 17.6134 9.13607 17.0251 9.13607 16.2989C9.13607 15.5732 8.54704 14.9849 7.82053 14.9849Z" fill="#109CF1"/>
<path fill-rule="evenodd" clip-rule="evenodd" d="M7.8205 15.5812C7.42333 15.5812 7.10132 15.9028 7.10132 16.2995C7.10132 16.6956 7.42333 17.0172 7.8205 17.0172C8.21705 17.0172 8.53906 16.6956 8.53906 16.2995C8.53906 15.9028 8.21705 15.5812 7.8205 15.5812Z" fill="#109CF1"/>
<path fill-rule="evenodd" clip-rule="evenodd" d="M16.9493 16.5589H16.5979C16.5362 17.2003 16.2496 17.7764 15.8182 18.2078V18.2085C15.3294 18.6973 14.653 19 13.9063 19C13.1597 19 12.4839 18.6973 11.9945 18.2085C11.5625 17.7776 11.2765 17.2009 11.2148 16.5589H10.6038V16.2989C10.6038 15.3511 10.8989 14.4924 11.5062 13.8858L11.5069 13.8852V13.8846C11.7372 13.6551 12.0103 13.4629 12.3268 13.317H15.4871C15.8042 13.4629 16.0773 13.6551 16.3071 13.8846V13.8852C16.5869 14.1653 16.8002 14.4985 16.9493 14.8702V16.5589ZM13.9063 14.9849C13.1798 14.9849 12.5902 15.5732 12.5902 16.2989C12.5902 17.0251 13.1798 17.6134 13.9063 17.6134C14.6335 17.6134 15.2225 17.0251 15.2225 16.2989C15.2225 15.5732 14.6335 14.9849 13.9063 14.9849Z" fill="#109CF1"/>
<path fill-rule="evenodd" clip-rule="evenodd" d="M13.9063 15.5812C13.5091 15.5812 13.1877 15.9028 13.1877 16.2995C13.1877 16.6956 13.5091 17.0172 13.9063 17.0172C14.3035 17.0172 14.6255 16.6956 14.6255 16.2995C14.6255 15.9028 14.3035 15.5812 13.9063 15.5812Z" fill="#109CF1"/>
<path fill-rule="evenodd" clip-rule="evenodd" d="M16.9492 16.5589H17.3012C17.3623 17.2003 17.6488 17.7764 18.0802 18.2078V18.2085C18.5697 18.6973 19.2461 19 19.9927 19C20.7394 19 21.4152 18.6973 21.9046 18.2085C22.336 17.7776 22.6226 17.2009 22.6837 16.5589H23.2953V16.2989C23.2953 15.3511 23.0002 14.4924 22.3928 13.8858L22.3922 13.8852L22.3916 13.8846C22.1619 13.6551 21.8887 13.4629 21.5716 13.317H18.412C18.0949 13.4629 17.8218 13.6551 17.592 13.8846V13.8852C17.3122 14.1653 17.0983 14.4985 16.9492 14.8702V16.5589ZM19.9927 14.9849C20.7192 14.9849 21.3083 15.5732 21.3083 16.2989C21.3083 17.0251 20.7192 17.6134 19.9927 17.6134C19.2656 17.6134 18.6766 17.0251 18.6766 16.2989C18.6766 15.5732 19.2656 14.9849 19.9927 14.9849Z" fill="#109CF1"/>
<path fill-rule="evenodd" clip-rule="evenodd" d="M19.9929 15.5812C20.3894 15.5812 20.7114 15.9028 20.7114 16.2995C20.7114 16.6956 20.3894 17.0172 19.9929 17.0172C19.5957 17.0172 19.2737 16.6956 19.2737 16.2995C19.2737 15.9028 19.5957 15.5812 19.9929 15.5812Z" fill="#109CF1"/>
<path fill-rule="evenodd" clip-rule="evenodd" d="M31.3084 7.44413L32.6652 7.06363C32.8341 7.01722 33.0082 7.12145 33.0533 7.29845C33.0986 7.47555 32.9983 7.65772 32.8291 7.70489L32.0847 7.91396L32.7714 8.329C32.923 8.42079 32.975 8.62364 32.8874 8.78239C32.8286 8.88924 32.7221 8.94839 32.6126 8.94839C32.5589 8.94839 32.5044 8.93436 32.4544 8.90377L31.7639 8.48671L31.965 9.27215C32.0103 9.44959 31.9101 9.63117 31.7408 9.67888C31.7134 9.68665 31.6858 9.69033 31.6586 9.69033C31.5187 9.69033 31.3906 9.59229 31.3528 9.44391L30.9876 8.01718L30.4683 7.70337L29.9756 8.00114V8.63566L30.973 9.68003C31.0968 9.80974 31.0968 10.0198 30.973 10.1495C30.9111 10.2144 30.8301 10.2465 30.7488 10.2465C30.6675 10.2465 30.5865 10.2144 30.5246 10.1495L29.9756 9.5747V10.4089C29.9756 10.5926 29.8336 10.741 29.6585 10.741C29.4835 10.741 29.3415 10.5926 29.3415 10.4089V9.57885L28.7965 10.1495C28.7346 10.2144 28.6533 10.2465 28.5723 10.2465C28.491 10.2465 28.41 10.2144 28.3481 10.1495C28.2242 10.0198 28.2242 9.80971 28.3481 9.68003L29.3415 8.63981V7.99858L28.853 7.7034L28.3336 8.01721L27.9684 9.44394C27.9305 9.59232 27.8024 9.69036 27.6625 9.69036C27.6352 9.69036 27.6077 9.68669 27.5803 9.67891C27.4111 9.63121 27.3107 9.44962 27.356 9.27219L27.5569 8.48674L26.8667 8.90381C26.8167 8.93443 26.7622 8.94843 26.7085 8.94843C26.599 8.94843 26.4924 8.88927 26.4337 8.78242C26.346 8.62367 26.3981 8.42079 26.5497 8.32904L27.2363 7.91393L26.492 7.70487C26.3228 7.65771 26.2224 7.47555 26.2677 7.29841C26.3131 7.12145 26.488 7.01744 26.656 7.06361L28.0127 7.44469L28.5359 7.1282L28.5353 6.53481L28.0189 6.22432L26.656 6.60681C26.6285 6.61447 26.601 6.61825 26.5737 6.61825C26.4337 6.61825 26.3056 6.52036 26.2677 6.37208C26.2224 6.19488 26.3228 6.01277 26.492 5.96535L27.2391 5.75574L26.5504 5.34169C26.3986 5.25039 26.346 5.04758 26.4332 4.88852C26.5202 4.72928 26.7139 4.67431 26.866 4.76584L27.5561 5.18075L27.356 4.39831C27.3107 4.22116 27.4111 4.03901 27.5803 3.99159C27.7493 3.94512 27.9231 4.0493 27.9684 4.22633L28.3318 5.64694L28.852 5.95951L29.3415 5.66383V5.03071L28.3481 3.99053C28.2242 3.8608 28.2242 3.6507 28.3481 3.52099C28.472 3.39129 28.6726 3.39129 28.7965 3.52099L29.3415 4.09171V3.26133C29.3415 3.07797 29.4835 2.92932 29.6585 2.92932C29.8336 2.92932 29.9756 3.07799 29.9756 3.26133V4.09583L30.5246 3.52099C30.6485 3.39129 30.8491 3.39129 30.973 3.52099C31.0968 3.65072 31.0968 3.86082 30.973 3.99053L29.9756 5.03488V5.66142L30.4688 5.96002L30.9891 5.64715L31.3527 4.22632C31.398 4.04928 31.5727 3.94539 31.7408 3.99158C31.9101 4.039 32.0103 4.22114 31.965 4.39829L31.7649 5.18087L32.455 4.76584C32.6069 4.67432 32.8003 4.72942 32.8878 4.88844C32.975 5.04746 32.9225 5.25041 32.7707 5.34171L32.0819 5.75575L32.829 5.96537C32.9982 6.01279 33.0986 6.19489 33.0532 6.37209C33.0154 6.52037 32.8873 6.61826 32.7473 6.61826C32.7201 6.61826 32.6925 6.61449 32.6651 6.60683L31.3024 6.22447L30.7854 6.53536V7.12821L31.3084 7.44413ZM29.6605 7.42499L30.1512 7.12821V6.53472L29.6605 6.23771L29.1696 6.53428L29.1701 7.1282L29.6605 7.42499Z" fill="#109CF1"/>
</svg>
