<svg width="69" height="17" viewBox="0 0 69 17" fill="none" xmlns="http://www.w3.org/2000/svg">
<path fill-rule="evenodd" clip-rule="evenodd" d="M33.5041 14.2939H34.0237V10.5922H33.5041V14.2939Z" fill="#109CF1"/>
<path fill-rule="evenodd" clip-rule="evenodd" d="M26.8087 14.2939H27.3283V10.5922H26.8087V14.2939Z" fill="#109CF1"/>
<path fill-rule="evenodd" clip-rule="evenodd" d="M26.231 14.7493H34.652V13.6868H26.231V14.7493Z" fill="#109CF1"/>
<path fill-rule="evenodd" clip-rule="evenodd" d="M26.231 12.8562H34.652V11.7937H26.231V12.8562Z" fill="#109CF1"/>
<path fill-rule="evenodd" clip-rule="evenodd" d="M54.1015 10.8503H2.64398C1.1614 10.8503 0 8.71192 0 5.9816C0 3.25188 1.1614 1.11353 2.64398 1.11353H54.1015C55.5841 1.11353 56.7461 3.25188 56.7461 5.9816C56.7461 8.71192 55.5841 10.8503 54.1015 10.8503ZM2.64398 1.6296C1.49235 1.6296 0.519027 3.62285 0.519027 5.9816C0.519027 8.34095 1.49235 10.3342 2.64398 10.3342H54.1015C55.2531 10.3342 56.2264 8.34095 56.2264 5.9816C56.2264 3.62285 55.2531 1.6296 54.1015 1.6296H2.64398Z" fill="#109CF1"/>
<path fill-rule="evenodd" clip-rule="evenodd" d="M53.4989 3.09637H3.24614C3.0312 3.09637 2.85718 2.92334 2.85718 2.70902C2.85718 2.4953 3.0312 2.32227 3.24614 2.32227H53.4989C53.7138 2.32227 53.8885 2.4953 53.8885 2.70902C53.8885 2.92334 53.7138 3.09637 53.4989 3.09637Z" fill="#109CF1"/>
<path fill-rule="evenodd" clip-rule="evenodd" d="M52.2141 3.601H52.5603V2.70911H52.2141V3.601Z" fill="#109CF1"/>
<path fill-rule="evenodd" clip-rule="evenodd" d="M48.2114 3.601H48.5576V2.70911H48.2114V3.601Z" fill="#109CF1"/>
<path fill-rule="evenodd" clip-rule="evenodd" d="M44.2089 3.601H44.5551V2.70911H44.2089V3.601Z" fill="#109CF1"/>
<path fill-rule="evenodd" clip-rule="evenodd" d="M40.2069 3.601H40.5531V2.70911H40.2069V3.601Z" fill="#109CF1"/>
<path fill-rule="evenodd" clip-rule="evenodd" d="M36.2042 3.601H36.5504V2.70911H36.2042V3.601Z" fill="#109CF1"/>
<path fill-rule="evenodd" clip-rule="evenodd" d="M32.2017 3.601H32.5479V2.70911H32.2017V3.601Z" fill="#109CF1"/>
<path fill-rule="evenodd" clip-rule="evenodd" d="M28.1996 3.601H28.5458V2.70911H28.1996V3.601Z" fill="#109CF1"/>
<path fill-rule="evenodd" clip-rule="evenodd" d="M24.1976 3.601H24.5439V2.70911H24.1976V3.601Z" fill="#109CF1"/>
<path fill-rule="evenodd" clip-rule="evenodd" d="M20.1945 3.601H20.5407V2.70911H20.1945V3.601Z" fill="#109CF1"/>
<path fill-rule="evenodd" clip-rule="evenodd" d="M16.1925 3.601H16.5387V2.70911H16.1925V3.601Z" fill="#109CF1"/>
<path fill-rule="evenodd" clip-rule="evenodd" d="M12.1898 3.601H12.536V2.70911H12.1898V3.601Z" fill="#109CF1"/>
<path fill-rule="evenodd" clip-rule="evenodd" d="M8.18786 3.601H8.53408V2.70911H8.18786V3.601Z" fill="#109CF1"/>
<path fill-rule="evenodd" clip-rule="evenodd" d="M4.18518 3.601H4.5314V2.70911H4.18518V3.601Z" fill="#109CF1"/>
<path fill-rule="evenodd" clip-rule="evenodd" d="M2.38452 10.8503H35.7598V9.42651H2.38452V10.8503ZM2.90355 10.3342H35.2401V9.94258H2.90355V10.3342Z" fill="#109CF1"/>
<path fill-rule="evenodd" clip-rule="evenodd" d="M2.64404 1.37155H54.1009V0.257446H2.64404V1.37155Z" fill="#109CF1"/>
<path fill-rule="evenodd" clip-rule="evenodd" d="M2.38452 1.63018H54.3611V0H2.38452V1.63018ZM2.90355 1.1135H53.8414V0.515464H2.90355V1.1135Z" fill="#109CF1"/>
<path fill-rule="evenodd" clip-rule="evenodd" d="M66.7029 14.6977H64.6396L64.5651 14.6285C64.4454 14.5186 64.3288 14.4227 64.2152 14.3413L64.5218 13.9236C64.6262 13.9995 64.7324 14.0851 64.8417 14.1817H66.6345L68.0206 13.8125V11.8958L67.5627 10.5795H68.0206V8.14119C68.0206 7.22927 67.4216 5.29552 66.9838 3.88391C66.8403 3.42127 66.7115 3.00477 66.6192 2.67691C66.4452 2.06005 65.4127 1.72005 63.7109 1.72005H59.9446V9.77198H59.4249V1.20398H63.7109C65.7229 1.20398 66.8696 1.65266 67.1193 2.53727C67.2103 2.86209 67.3386 3.27434 67.4802 3.73212C67.9522 5.25544 68.5403 7.15155 68.5403 8.14119V11.0956H68.2917L68.5403 11.8527V14.2084L66.7029 14.6977Z" fill="#109CF1"/>
<path fill-rule="evenodd" clip-rule="evenodd" d="M68.2056 7.4114C67.9883 6.13215 67.3477 4.21115 66.985 3.00354H66.3677L67.2647 7.17765C67.2647 7.17765 67.7062 7.22743 68.2056 7.4114Z" fill="#109CF1"/>
<path fill-rule="evenodd" clip-rule="evenodd" d="M58.8973 14.4397V13.0311C58.8973 11.6845 60.005 10.5831 61.3594 10.5831H61.8198C63.4269 10.5831 64.7416 11.8903 64.7416 13.4883V14.4397H64.2744C64.167 14.9661 63.9044 15.4366 63.5368 15.8021V15.8033C63.0483 16.2891 62.3724 16.5902 61.6262 16.5902C60.8812 16.5902 60.2053 16.2891 59.7162 15.8027L59.7156 15.8033C59.3474 15.4372 59.0854 14.9667 58.9779 14.4397H58.8973ZM61.6262 12.5958C60.9002 12.5958 60.3109 13.1811 60.3109 13.9036C60.3109 14.6255 60.9002 15.2108 61.6262 15.2108C62.3522 15.2108 62.9415 14.6255 62.9415 13.9036C62.9415 13.1811 62.3522 12.5958 61.6262 12.5958Z" fill="#109CF1"/>
<path fill-rule="evenodd" clip-rule="evenodd" d="M65.5799 14.6115H64.5681V13.4883C64.5681 11.9814 63.3353 10.755 61.8197 10.755H61.3587C60.0971 10.755 59.0707 11.7762 59.0707 13.0311V14.6115H57.9215V12.458C57.9215 10.789 59.4499 9.26868 61.1291 9.26868H61.664C63.6772 9.26868 65.5799 11.0774 65.5799 12.9899V14.6115ZM64.9149 14.2679H65.2337V12.9899C65.2337 11.2862 63.4659 9.61293 61.664 9.61293H61.1291C59.6581 9.61293 58.2677 10.9954 58.2677 12.458V14.2679H58.7239V13.0311C58.7239 11.5867 59.9066 10.4113 61.3587 10.4113H61.8197C63.5264 10.4113 64.9149 11.792 64.9149 13.4883V14.2679Z" fill="#109CF1"/>
<path fill-rule="evenodd" clip-rule="evenodd" d="M61.6262 13.189C61.2293 13.189 60.9075 13.5089 60.9075 13.9036C60.9075 14.2982 61.2293 14.6182 61.6262 14.6182C62.0231 14.6182 62.3449 14.2982 62.3449 13.9036C62.3449 13.5089 62.0231 13.189 61.6262 13.189Z" fill="#109CF1"/>
<path fill-rule="evenodd" clip-rule="evenodd" d="M63.0038 1.46199C61.5932 0.658137 60.6932 0.439566 59.3608 0.403137C59.0824 0.395851 58.8479 0.607137 58.8284 0.883387C58.6555 3.35871 58.4821 5.83342 58.3093 8.30874V11.9704C58.4595 11.087 59.0054 10.2892 59.7528 9.83449L59.6851 9.77196C59.6851 7.00217 59.6851 4.23178 59.6851 1.46199H63.0038Z" fill="#109CF1"/>
<path fill-rule="evenodd" clip-rule="evenodd" d="M67.2695 13.6334H68.2801V11.8527H67.2695V13.6334Z" fill="#109CF1"/>
<path fill-rule="evenodd" clip-rule="evenodd" d="M65.3986 12.7991H67.6127V12.4555H65.3986V12.7991Z" fill="#109CF1"/>
<path fill-rule="evenodd" clip-rule="evenodd" d="M62.2319 8.70098H63.3579V8.35734H62.2319V8.70098Z" fill="#109CF1"/>
<path fill-rule="evenodd" clip-rule="evenodd" d="M65.3986 13.6334H67.6127V13.2892H65.3986V13.6334Z" fill="#109CF1"/>
<path fill-rule="evenodd" clip-rule="evenodd" d="M58.595 11.1028H38.4629V12.8866H43.3198C43.5457 12.7044 43.8339 12.5957 44.1465 12.5957C44.4598 12.5957 44.7474 12.7044 44.9733 12.8866H58.2677V12.4579C58.2677 11.9831 58.3862 11.5193 58.595 11.1028Z" fill="#109CF1"/>
<path fill-rule="evenodd" clip-rule="evenodd" d="M46.8364 14.1617C46.7747 14.7998 46.4889 15.3735 46.0572 15.8022V15.8034C45.5687 16.2891 44.8928 16.5902 44.1466 16.5902C43.4016 16.5902 42.7257 16.2891 42.2366 15.8028L42.236 15.8034C41.8043 15.3741 41.5185 14.8004 41.4574 14.1617H40.8462V13.9036C40.8462 12.9601 41.1411 12.1059 41.7481 11.5024L41.7487 11.5018V11.5012C41.9789 11.2729 42.2518 11.0822 42.5681 10.9365H45.7263C46.0432 11.0816 46.3161 11.2729 46.5457 11.5012V11.5024C47.1521 12.1053 47.4476 12.9595 47.4476 13.9036V14.1617H46.8364ZM44.1466 12.5958C43.4206 12.5958 42.8319 13.1811 42.8319 13.9036C42.8319 14.6255 43.4206 15.2108 44.1466 15.2108C44.8732 15.2108 45.4619 14.6255 45.4619 13.9036C45.4619 13.1811 44.8732 12.5958 44.1466 12.5958Z" fill="#109CF1"/>
<path fill-rule="evenodd" clip-rule="evenodd" d="M44.1466 13.189C43.7503 13.189 43.4285 13.5089 43.4285 13.9036C43.4285 14.2982 43.7503 14.6182 44.1466 14.6182C44.5435 14.6182 44.8653 14.2982 44.8653 13.9036C44.8653 13.5089 44.5435 13.189 44.1466 13.189Z" fill="#109CF1"/>
<path fill-rule="evenodd" clip-rule="evenodd" d="M52.8223 12.26H48.1089V13.7172C48.1089 14.0013 48.3421 14.2338 48.6279 14.2338H52.3026C52.589 14.2338 52.8223 14.0013 52.8223 13.7172V13.4537H53.1917C53.1905 13.47 53.1899 13.487 53.1899 13.5034C53.1899 13.8835 53.4994 14.1913 53.8817 14.1913C54.1656 14.1913 54.4105 14.0207 54.5167 13.7767H55.3551C55.4614 14.0207 55.7056 14.1913 55.9902 14.1913C56.3718 14.1913 56.682 13.8835 56.682 13.5034C56.682 13.487 56.6808 13.47 56.6795 13.4537H56.9079V14.1798H58.2733V12.2813H56.9079V12.6097H52.8223V12.26Z" fill="#109CF1"/>
<path fill-rule="evenodd" clip-rule="evenodd" d="M38.0575 13.1094H37.4561V14.637H38.0575V14.215L39.2122 13.447H41.0819V12.3129H38.8586V12.8089L38.8391 12.8101L38.0575 13.5017V13.1094Z" fill="#109CF1"/>
<path fill-rule="evenodd" clip-rule="evenodd" d="M67.62 10.0325H68.2801V8.32458H67.62V10.0325Z" fill="#109CF1"/>
<path fill-rule="evenodd" clip-rule="evenodd" d="M65.3906 3.45225H62.3229V5.84136C62.3229 6.09514 62.5036 6.30825 62.7558 6.35014L66.3609 6.95547L66.2754 6.42482C66.1918 6.48372 66.0904 6.51832 65.9805 6.51832H65.8382C65.5561 6.51832 65.3259 6.28943 65.3259 6.00893V3.69997C65.3259 3.61011 65.3497 3.52511 65.3906 3.45225ZM65.9805 3.44861C66.1197 3.44861 66.2333 3.56154 66.2333 3.69997V6.00893C66.2333 6.14736 66.1191 6.26029 65.9805 6.26029H65.8382C65.6996 6.26029 65.5854 6.14675 65.5854 6.00893V3.69997C65.5854 3.56154 65.699 3.44861 65.8382 3.44861H65.9805Z" fill="#109CF1"/>
<path fill-rule="evenodd" clip-rule="evenodd" d="M2.64461 10.5922V12.8866H2.93465L2.23916 13.5016V13.1094H1.6377V14.6369H2.23916V14.215L3.39384 13.4469H5.26355V12.8866H7.47216C7.69809 12.7044 7.9857 12.5957 8.29894 12.5957C8.61219 12.5957 8.89979 12.1883 9.12572 12.3699C9.77481 12.3699 10.5796 12.7682 11.3398 12.7682C12.141 12.7682 12.9024 12.3699 13.7713 12.3699C14.7367 12.3699 15.7265 12.3699 16.7023 12.3699C16.963 12.3699 17.1639 13.8726 17.4222 13.8726C18.0102 13.8726 18.6483 12.3699 19.2095 12.3699C20.2653 12.3699 21.2575 12.3699 22.1289 12.3699V10.5922H2.64461Z" fill="#109CF1"/>
<path fill-rule="evenodd" clip-rule="evenodd" d="M11.3397 14.1617H10.9886C10.9269 14.7998 10.6405 15.3735 10.2094 15.8022V15.8034C9.72033 16.2891 9.04499 16.5902 8.29881 16.5902C7.55263 16.5902 6.87668 16.2891 6.38818 15.8034C5.95648 15.3741 5.67009 14.8004 5.60903 14.1617H4.9978V13.9036C4.9978 12.9601 5.29334 12.1059 5.89969 11.5024L5.9003 11.5018L5.90091 11.5012C6.1305 11.2729 6.40345 11.0822 6.72036 10.9365H9.87848C10.1948 11.0816 10.4677 11.2729 10.6973 11.5012V11.5024C10.977 11.7805 11.1907 12.1126 11.3397 12.4817V14.1617ZM8.29881 12.5958C7.57217 12.5958 6.98354 13.1811 6.98354 13.9036C6.98354 14.6255 7.57217 15.2108 8.29881 15.2108C9.02484 15.2108 9.61409 14.6255 9.61409 13.9036C9.61409 13.1811 9.02484 12.5958 8.29881 12.5958Z" fill="#109CF1"/>
<path fill-rule="evenodd" clip-rule="evenodd" d="M8.29902 13.189C7.90212 13.189 7.58032 13.5089 7.58032 13.9036C7.58032 14.2982 7.90212 14.6182 8.29902 14.6182C8.69592 14.6182 9.01711 14.2982 9.01711 13.9036C9.01711 13.5089 8.69592 13.189 8.29902 13.189Z" fill="#109CF1"/>
<path fill-rule="evenodd" clip-rule="evenodd" d="M17.4222 14.1617H17.0705C17.0094 14.7998 16.7231 15.3735 16.292 15.8022V15.8034C15.8029 16.2891 15.1269 16.5902 14.3807 16.5902C13.6345 16.5902 12.9592 16.2891 12.4701 15.8034C12.039 15.3741 11.7526 14.8004 11.6916 14.1617H11.0803V13.9036C11.0803 12.9601 11.3753 12.1059 11.9822 11.5024L11.9828 11.5018L11.9834 11.5012C12.213 11.2729 12.486 11.0822 12.8029 10.9365H15.9604C16.2773 11.0816 16.5503 11.2729 16.7798 11.5012V11.5024C17.0595 11.7805 17.2732 12.1126 17.4222 12.4817V14.1617ZM14.3807 12.5958C13.6547 12.5958 13.0661 13.1811 13.0661 13.9036C13.0661 14.6255 13.6547 15.2108 14.3807 15.2108C15.1074 15.2108 15.696 14.6255 15.696 13.9036C15.696 13.1811 15.1074 12.5958 14.3807 12.5958Z" fill="#109CF1"/>
<path fill-rule="evenodd" clip-rule="evenodd" d="M14.3807 13.189C13.9844 13.189 13.6626 13.5089 13.6626 13.9036C13.6626 14.2982 13.9844 14.6182 14.3807 14.6182C14.7776 14.6182 15.0994 14.2982 15.0994 13.9036C15.0994 13.5089 14.7776 13.189 14.3807 13.189Z" fill="#109CF1"/>
<path fill-rule="evenodd" clip-rule="evenodd" d="M17.4221 14.1617H17.7732C17.8349 14.7998 18.1213 15.3735 18.5524 15.8022V15.8034C19.0409 16.2891 19.7168 16.5902 20.463 16.5902C21.2092 16.5902 21.8851 16.2891 22.3736 15.8034C22.8053 15.3741 23.0911 14.8004 23.1528 14.1617H23.764V13.9036C23.764 12.9601 23.4685 12.1059 22.8615 11.5024V11.5018L22.8609 11.5012C22.6313 11.2729 22.3584 11.0822 22.0415 10.9365H18.8833C18.5664 11.0816 18.2935 11.2729 18.0639 11.5012V11.5024C17.7842 11.7805 17.5711 12.1126 17.4221 12.4817V14.1617ZM20.463 12.5958C21.189 12.5958 21.7783 13.1811 21.7783 13.9036C21.7783 14.6255 21.189 15.2108 20.463 15.2108C19.7364 15.2108 19.1477 14.6255 19.1477 13.9036C19.1477 13.1811 19.7364 12.5958 20.463 12.5958Z" fill="#109CF1"/>
<path fill-rule="evenodd" clip-rule="evenodd" d="M20.4631 13.189C20.86 13.189 21.1818 13.5089 21.1818 13.9036C21.1818 14.2982 20.86 14.6182 20.4631 14.6182C20.0662 14.6182 19.7444 14.2982 19.7444 13.9036C19.7444 13.5089 20.0662 13.189 20.4631 13.189Z" fill="#109CF1"/>
</svg>
