<?xml version="1.0" encoding="utf-8"?><svg xmlns="http://www.w3.org/2000/svg" xmlns:xlink="http://www.w3.org/1999/xlink"><symbol viewBox="0 0 17 17" id="art" xmlns="http://www.w3.org/2000/svg"><path d="M16.393 0H4.25a.607.607 0 00-.607.607v3.036H.607A.607.607 0 000 4.25v12.143c0 .335.272.607.607.607H12.75a.607.607 0 00.607-.607v-3.036h3.036A.607.607 0 0017 12.75V.607A.607.607 0 0016.393 0zm-4.25 15.786H1.214V4.857h10.929v10.929zm3.643-3.643h-2.429V4.25a.606.606 0 00-.607-.607H4.857V1.214h10.929v10.929z"/></symbol><symbol viewBox="0 0 12 16" id="bin" xmlns="http://www.w3.org/2000/svg"><path d="M3.585 1.233c0-.404.347-.7.79-.7h3.25c.443 0 .79.296.79.7V2H9v-.767C9 .535 8.391 0 7.624 0H4.376C3.609 0 3 .535 3 1.233V2h.585v-.767zM2.276 16h7.448c.719 0 1.276-.624 1.276-1.4V5H1v9.6c0 .776.557 1.4 1.276 1.4zm5.732-9.515c0-.172.14-.311.315-.311.174 0 .315.14.315.31v7.347a.313.313 0 01-.315.311.313.313 0 01-.315-.31V6.484zm-2.323 0c0-.172.141-.311.315-.311.174 0 .315.14.315.31v7.347a.313.313 0 01-.315.311.313.313 0 01-.315-.31V6.484zm-2.323 0c0-.172.141-.311.315-.311.174 0 .315.14.315.31v7.347c0 .172-.14.311-.315.311a.313.313 0 01-.315-.31V6.484zM.773 4h10.454c.427 0 .773-.448.773-1s-.346-1-.773-1H.773C.346 2 0 2.448 0 3s.346 1 .773 1z"/></symbol><symbol viewBox="0 0 19 22" id="boat" xmlns="http://www.w3.org/2000/svg"><path d="M3 5v4l6.035-2.012.465-.155.465.155L16 9V5zm14.384 15.482c-.259.158-.401.246-.76.246-.357 0-.5-.088-.76-.246-.33-.204-.785-.482-1.615-.482s-1.283.278-1.615.482c-.259.158-.402.246-.76.246-.357 0-.5-.088-.76-.246-.33-.204-.785-.482-1.615-.482-.829 0-1.283.278-1.615.482-.259.158-.401.246-.76.246-.357 0-.5-.088-.759-.246C6.033 20.278 5.58 20 4.75 20s-1.284.278-1.616.482c-.259.158-.401.246-.76.246-.357 0-.5-.088-.759-.246C1.284 20.278.83 20 0 20v1.272c.358 0 .5.088.76.246.331.204.785.482 1.615.482s1.284-.278 1.615-.482c.26-.158.402-.246.76-.246s.5.088.76.246c.331.204.785.482 1.615.482s1.283-.278 1.615-.482c.259-.158.402-.246.76-.246s.5.088.76.246c.33.204.785.482 1.615.482s1.283-.278 1.615-.482c.259-.158.402-.246.76-.246s.5.088.76.246c.331.204.785.482 1.615.482s1.284-.278 1.615-.482c.26-.158.402-.246.76-.246V20c-.83 0-1.284.278-1.616.482zM10.671 1.054V0H9.283v1.054H6V3h8V1.054z"/><path d="M1 10.832l2.954 7.627a3.67 3.67 0 011.254-.21c1.139 0 1.84.456 2.245.751A3.644 3.644 0 019 18.311V8l-8 2.832zM10 8v10.311c.738.135 1.232.46 1.546.689.404-.295 1.106-.751 2.244-.751.484 0 .888.083 1.225.2L18 10.833 10 8z"/></symbol><symbol viewBox="0 0 16 17" id="calendar" xmlns="http://www.w3.org/2000/svg"><circle cx="12.5" cy="6.8" r="1"/><path d="M13.5 1.308h-.813V.654c0-.361-.28-.654-.624-.654a.64.64 0 00-.626.654v.654H8.595V.654C8.595.293 8.315 0 7.97 0s-.625.293-.625.654v.654H4.53V.654C4.53.293 4.25 0 3.905 0S3.28.293 3.28.654v.654H2.5C1.121 1.308 0 2.48 0 3.923v10.2c0 1.442 1.121 2.615 2.5 2.615h4.781a.64.64 0 00.625-.653c0-.362-.28-.654-.625-.654H2.5c-.69 0-1.25-.587-1.25-1.308v-10.2c0-.721.56-1.308 1.25-1.308h.781v.654c0 .361.28.654.625.654s.625-.293.625-.654v-.654h2.813v.654c0 .361.28.654.625.654s.625-.293.625-.654v-.654h2.844v.654c0 .361.28.654.624.654a.64.64 0 00.626-.654v-.654h.812c.69 0 1.25.587 1.25 1.308V7.65c0 .361.28.654.625.654S16 8.01 16 7.65V3.923c0-1.442-1.121-2.615-2.5-2.615z"/><path d="M12 8.37c-2.206 0-4 1.876-4 4.184 0 2.307 1.794 4.184 4 4.184s4-1.877 4-4.184c0-2.308-1.794-4.185-4-4.185zm0 6.985c-1.476 0-2.678-1.257-2.678-2.801 0-1.545 1.202-2.801 2.678-2.801s2.678 1.256 2.678 2.8c0 1.545-1.202 2.802-2.678 2.802z"/><path d="M13.42 12.05h-.26v-.814c0-.428-.26-.774-.58-.774-.32 0-.58.346-.58.774v1.59c0 .427.26.774.58.774h.84c.32 0 .58-.347.58-.775 0-.428-.26-.775-.58-.775z"/><circle cx="9.5" cy="6.8" r="1"/><circle cx="6.5" cy="9.938" r="1"/><circle cx="3.5" cy="6.8" r="1"/><circle cx="3.5" cy="9.938" r="1"/><circle cx="3.5" cy="12.031" r="1"/><circle cx="6.5" cy="12.031" r="1"/><circle cx="6.5" cy="6.8" r="1"/></symbol><symbol viewBox="0 0 25 24" id="calendar-1" xmlns="http://www.w3.org/2000/svg"><path d="M25 2.6c0-.331-.266-.6-.595-.6h-2.65a2.583 2.583 0 00-2.509-2 2.585 2.585 0 00-2.51 2h-.933a2.584 2.584 0 00-2.51-2 2.584 2.584 0 00-2.509 2h-.933A2.585 2.585 0 007.34 0a2.583 2.583 0 00-2.508 2H3.77a.6.6 0 00-.579.458l-3.174 13.2a.597.597 0 00.578.742h2.58v2.2c0 .331.266.6.595.6h10.536c.313 2.822 2.742 4.918 5.557 4.795 2.815-.124 5.054-2.424 5.122-5.264L25 2.6zM24 15a5.185 5.185 0 00-.712-.806v-3.81c0-.331-.24-.599-.535-.599-.295 0-.534.268-.534.599v3.068A4.357 4.357 0 0021 13.044L23.173 3H24v12zM4.67 3h.59c.276 1.255 1.308 2.141 2.496 2.143.327 0 .592-.288.592-.643 0-.355-.265-.643-.592-.643-.533 0-1.019-.334-1.248-.857h4.672c.276 1.255 1.308 2.141 2.496 2.143.327 0 .592-.288.592-.643 0-.355-.265-.643-.592-.643-.534 0-1.02-.334-1.248-.857H17.1c.276 1.255 1.308 2.141 2.496 2.143.327 0 .592-.288.592-.643 0-.355-.265-.643-.592-.643-.534 0-1.02-.334-1.248-.857H22l-.67 3H4l.67-3zM19.5 1c.641 0 1.225.39 1.5 1h-3c.275-.61.859-1 1.5-1zm-6 0c.641 0 1.225.39 1.5 1h-3c.275-.61.859-1 1.5-1zm-6 0c.641 0 1.225.39 1.5 1H6c.275-.61.859-1 1.5-1zM3.89 7H21l-1.42 6.013A5.218 5.218 0 0015.864 15H2l1.89-8zM5 16h10a8.357 8.357 0 00-.416 2H5v-2zm15.577 7v-.536a.577.577 0 00-1.154 0V23A4.05 4.05 0 0116 19.577h.536a.577.577 0 000-1.154H16A4.05 4.05 0 0119.423 15v.535a.577.577 0 101.154 0V15A4.05 4.05 0 0124 18.423h-.536a.577.577 0 000 1.154H24A4.05 4.05 0 0120.577 23z"/><path d="M12.643 9h1.714c.355 0 .643-.224.643-.5s-.288-.5-.643-.5h-1.714c-.355 0-.643.224-.643.5s.288.5.643.5zm-4 0h1.714c.355 0 .643-.224.643-.5s-.288-.5-.643-.5H8.643C8.288 8 8 8.224 8 8.5s.288.5.643.5zm-4 0h1.714C6.712 9 7 8.776 7 8.5S6.712 8 6.357 8H4.643C4.288 8 4 8.224 4 8.5s.288.5.643.5zm12 0h1.714c.355 0 .643-.224.643-.5s-.288-.5-.643-.5h-1.714c-.355 0-.643.224-.643.5s.288.5.643.5zm-5 2h1.714c.355 0 .643-.224.643-.5s-.288-.5-.643-.5h-1.714c-.23 0-.442.095-.557.25a.405.405 0 000 .5c.115.155.327.25.557.25zm-4 0h1.714c.355 0 .643-.224.643-.5s-.288-.5-.643-.5H7.643c-.23 0-.442.095-.557.25a.405.405 0 000 .5c.115.155.327.25.557.25zm-4 0h1.714c.355 0 .643-.224.643-.5s-.288-.5-.643-.5H3.643c-.23 0-.442.095-.557.25a.405.405 0 000 .5c.115.155.327.25.557.25zm12 0h1.714c.355 0 .643-.224.643-.5s-.288-.5-.643-.5h-1.714c-.23 0-.442.095-.557.25a.405.405 0 000 .5c.115.155.327.25.557.25zm-4 3h1.714c.355 0 .643-.224.643-.5s-.288-.5-.643-.5h-1.714c-.355 0-.643.224-.643.5s.288.5.643.5zm-4 0h1.714c.355 0 .643-.224.643-.5s-.288-.5-.643-.5H7.643c-.355 0-.643.224-.643.5s.288.5.643.5zM6 13.5c0-.276-.288-.5-.643-.5H3.643c-.355 0-.643.224-.643.5s.288.5.643.5h1.714c.355 0 .643-.224.643-.5zm15.07 2.687l-1.177 1.387-1.103-.65c-.27-.159-.598-.03-.732.288-.135.317-.026.704.244.863l1.455.857c.21.124.463.075.63-.12l1.454-1.715a.73.73 0 000-.909.49.49 0 00-.771 0z"/></symbol><symbol viewBox="0 0 13 13" id="calendar_2" xmlns="http://www.w3.org/2000/svg"><path d="M10 3a.99.99 0 001-.984V.986A.992.992 0 0010 0c-.553 0-1 .44-1 .986v1.03A.99.99 0 0010 3z"/><path d="M12.986 2.022h-1.841v.44c0 .726-.624 1.317-1.393 1.317-.77 0-1.392-.591-1.392-1.317v-.44H4.644v.44c0 .726-.625 1.317-1.393 1.317-.769 0-1.393-.59-1.393-1.317v-.44L0 2v11h12.072l.928-.003-.014-10.975zm-.915 10.102H.93V5.097h11.143v7.027z"/><path d="M3 3a.99.99 0 001-.984V.986A.992.992 0 003 0c-.553 0-1 .44-1 .986v1.03A.99.99 0 003 3zm2 3h2v1H5z"/><path d="M6 6h2v1H6zm2 0h2v1H8zM5 7h2v1H5z"/><path d="M6 7h2v1H6zm2 0h2v1H8zM5 9h2v1H5zM3 7h2v1H3zm0 2h2v1H3z"/><path d="M6 9h2v1H6zm2 0h2v1H8z"/></symbol><symbol viewBox="0 0 10 10" id="call" xmlns="http://www.w3.org/2000/svg"><path d="M9.776 7.91L8.23 6.362c-.307-.308-.817-.298-1.135.02l-.778.78-.153-.085C5.673 6.804 5 6.43 4.293 5.72c-.71-.71-1.083-1.386-1.356-1.879l-.084-.15.522-.523.257-.257c.319-.32.328-.83.02-1.138L2.109.225C1.802-.083 1.292-.074.973.246L.538.685.55.697a2.567 2.567 0 00-.52 1.276C-.173 3.667.6 5.216 2.696 7.317c2.898 2.904 5.233 2.685 5.334 2.674a2.583 2.583 0 001.273-.52l.01.009.441-.433c.318-.32.328-.83.02-1.138z"/></symbol><symbol viewBox="0 0 18 18" id="cancel" xmlns="http://www.w3.org/2000/svg"><path d="M15.368 2.633c-3.51-3.51-9.222-3.51-12.731 0C.937 4.334 0 6.595 0 9s.936 4.666 2.637 6.367A8.97 8.97 0 009.002 18c2.305 0 4.61-.877 6.366-2.633 3.51-3.51 3.51-9.223 0-12.734zm-.986 11.748c-2.966 2.967-7.793 2.967-10.76 0A7.563 7.563 0 011.395 9c0-2.033.791-3.944 2.227-5.382 2.967-2.967 7.794-2.966 10.76 0 2.966 2.967 2.966 7.795 0 10.762z"/><path d="M12.157 11.104L10.053 9l2.104-2.104a.745.745 0 00-1.051-1.053L9 7.949 6.894 5.843a.744.744 0 10-1.051 1.053L7.947 9l-2.104 2.104a.746.746 0 00.526 1.271c.19 0 .38-.073.525-.217L9 10.052l2.106 2.106a.745.745 0 001.051-1.054z"/></symbol><symbol viewBox="0 0 11 8" id="check" xmlns="http://www.w3.org/2000/svg"><path d="M.127 4.4A.419.419 0 010 4.12c0-.08.042-.2.127-.28l.592-.56c.17-.16.423-.16.593 0l.042.04L3.68 5.68c.084.08.211.08.296 0L9.647.12h.041c.17-.16.424-.16.593 0l.592.56c.17.16.17.4 0 .56l-6.77 6.64a.391.391 0 01-.295.12.393.393 0 01-.296-.12l-3.3-3.36-.085-.12z"/></symbol><symbol viewBox="0 0 14 14" id="create" xmlns="http://www.w3.org/2000/svg"><path d="M0 11.084V14h2.916l8.601-8.601-2.916-2.916L0 11.083zm13.773-7.94a.776.776 0 000-1.097l-1.82-1.82a.776.776 0 00-1.097 0L9.433 1.651l2.916 2.916 1.424-1.423z"/></symbol><symbol viewBox="0 0 18 13" id="delivery-truck" xmlns="http://www.w3.org/2000/svg"><path d="M.632 8.662V.792C.632.355.977 0 1.402 0h7.655c.425 0 .77.355.77.792v7.87a.261.261 0 01-.257.264H.888a.26.26 0 01-.256-.264zm6.18 2.696c0 .907-.715 1.642-1.597 1.642-.883 0-1.599-.735-1.599-1.642 0-.907.716-1.643 1.599-1.643.882 0 1.598.736 1.598 1.643zm-.798 0a.81.81 0 00-.8-.821.81.81 0 00-.799.82c0 .454.358.822.8.822.44 0 .799-.368.799-.821zM3.838 9.715H.257A.261.261 0 000 9.979v.801a.26.26 0 00.257.264h2.87c.075-.528.335-.995.711-1.329zm11.337 1.643c0 .907-.716 1.642-1.599 1.642-.882 0-1.598-.735-1.598-1.642 0-.907.716-1.643 1.598-1.643.883 0 1.599.736 1.599 1.643zm-.8 0a.81.81 0 00-.799-.821.81.81 0 00-.799.82c0 .454.358.822.8.822.44 0 .799-.368.799-.821zM18 9.979v.801a.26.26 0 01-.257.264h-2.08c-.148-1.048-1.026-1.857-2.086-1.857-1.061 0-1.94.809-2.088 1.857H7.302a2.192 2.192 0 00-.71-1.329h3.97v-7.55c0-.29.23-.527.513-.527H13.5c.683 0 1.321.348 1.703.93l1.563 2.38c.23.348.352.76.352 1.18v3.587h.625c.142 0 .257.119.257.264zm-2.606-4.971l-1.25-1.825a.255.255 0 00-.21-.112h-1.95a.26.26 0 00-.256.264V5.16a.26.26 0 00.256.264h3.2c.208 0 .33-.241.21-.416z"/></symbol><symbol viewBox="0 0 10 13" id="doc" xmlns="http://www.w3.org/2000/svg"><path d="M1.154 13h7.692A1.15 1.15 0 0010 11.857V3.81H7.308a1.15 1.15 0 01-1.154-1.143V0h-5A1.15 1.15 0 000 1.143v10.714C0 12.487.518 13 1.154 13z"/><path d="M5 4.333c0 .4-.32.723-.714.723a.72.72 0 01-.715-.723c0-.399.32-.722.715-.722.394 0 .714.323.714.722zm-.33 5.778c-.182 0-.33-.121-.33-.27v-2.8h-.439c-.182 0-.33-.12-.33-.27 0-.15.148-.271.33-.271h.77c.181 0 .329.121.329.27v3.07c0 .15-.148.271-.33.271z"/><path d="M5.446 10.111H3.84c-.148 0-.268-.162-.268-.361 0-.2.12-.361.268-.361h1.607c.148 0 .268.162.268.361 0 .2-.12.361-.268.361zm2.082-7.222H10L7.143 0v2.5c0 .214.173.389.385.389z"/></symbol><symbol viewBox="0 0 14 14" id="edit-2" xmlns="http://www.w3.org/2000/svg"><path d="M6.939 1.228h-.63C6.118.522 5.511 0 4.788 0c-.722 0-1.33.522-1.518 1.228h-.63c-.236 0-.43.209-.43.46v.922c0 .59.452 1.074 1.002 1.074h3.152c.55 0 1.003-.485 1.003-1.074v-.921c0-.252-.194-.46-.43-.46z"/><path d="M8.01 2.233h-.141v.714c0 .868-.691 1.571-1.546 1.571h-3.09a1.559 1.559 0 01-1.547-1.571v-.714h-.14c-.41 0-.986-.076-1.262.189-.3.286-.284.93-.284 1.382v7.143c0 .455-.02 1.094.284 1.38.276.26.856.19 1.262.19h4.148l.124-.702c.056-.32.202-.606.427-.84l.45-.457H2.107a.429.429 0 010-.857h5.34c.028 0 .05 0 .078.011h.006l2.023-2.057v-3.81c0-.416.111-1.102-.147-1.383-.282-.307-.952-.19-1.398-.19zM7.447 8.66H2.108a.429.429 0 010-.857h5.34a.428.428 0 01-.001.857zm0-1.857H2.108a.429.429 0 010-.857h5.34a.428.428 0 01-.001.857zM7.084 14a.452.452 0 01-.445-.527l.32-1.796a.45.45 0 01.125-.24L11.56 7c.55-.546 1.09-.398 1.385-.105l.746.74a1.04 1.04 0 010 1.479l-4.476 4.439a.452.452 0 01-.241.124l-1.812.317a.419.419 0 01-.078.007z"/></symbol><symbol viewBox="0 0 488.85 488.85" id="eye" xmlns="http://www.w3.org/2000/svg"><path d="M244.425 98.725c-93.4 0-178.1 51.1-240.6 134.1-5.1 6.8-5.1 16.3 0 23.1 62.5 83.1 147.2 134.2 240.6 134.2s178.1-51.1 240.6-134.1c5.1-6.8 5.1-16.3 0-23.1-62.5-83.1-147.2-134.2-240.6-134.2zm6.7 248.3c-62 3.9-113.2-47.2-109.3-109.3 3.2-51.2 44.7-92.7 95.9-95.9 62-3.9 113.2 47.2 109.3 109.3-3.3 51.1-44.8 92.6-95.9 95.9zm-3.1-47.4c-33.4 2.1-61-25.4-58.8-58.8 1.7-27.6 24.1-49.9 51.7-51.7 33.4-2.1 61 25.4 58.8 58.8-1.8 27.7-24.2 50-51.7 51.7z"/></symbol><symbol viewBox="0 0 16 17" id="graph" xmlns="http://www.w3.org/2000/svg"><path d="M2.313 16.738C1.036 16.738 0 15.653 0 14.32V8.108c0-1.334 1.037-2.42 2.313-2.42 1.275 0 2.312 1.086 2.312 2.42v6.211c0 1.334-1.037 2.42-2.313 2.42zm0-9.742c-.586 0-1.063.499-1.063 1.112v6.211c0 .613.477 1.112 1.063 1.112.585 0 1.062-.499 1.062-1.112V8.108c0-.613-.477-1.112-1.063-1.112zM8 16.738c-1.275 0-2.313-1.085-2.313-2.419v-2.68c0-1.335 1.038-2.42 2.313-2.42 1.275 0 2.313 1.085 2.313 2.42v2.68c0 1.334-1.038 2.42-2.313 2.42zm0-6.211c-.586 0-1.063.499-1.063 1.111v2.681c0 .613.477 1.112 1.063 1.112s1.063-.499 1.063-1.112v-2.68c0-.613-.477-1.112-1.063-1.112zm5.688 6.211c-1.276 0-2.313-1.085-2.313-2.419V8.6c0-1.335 1.037-2.42 2.313-2.42C14.963 6.18 16 7.265 16 8.6v5.72c0 1.334-1.037 2.42-2.313 2.42zm0-9.251c-.586 0-1.063.498-1.063 1.111v5.721c0 .613.477 1.112 1.063 1.112.585 0 1.062-.499 1.062-1.112V8.6c0-.614-.477-1.112-1.063-1.112zm-3.475-.26l3.458-3.801c.238-.262.229-.676-.021-.925s-.646-.238-.884.023L9.302 6.331l-.012.014a.912.912 0 01-1.264.125L4.058 2.699l-.032-.03a2.111 2.111 0 00-2.82.094l-.022.021-.998 1.034a.675.675 0 00-.005.925.607.607 0 00.884.005l.986-1.022a.905.905 0 011.184-.043l3.969 3.772a2.121 2.121 0 003.009-.228zM16 3.727V1.962C16 .88 15.159 0 14.125 0h-1.688c-.345 0-.624.293-.624.654 0 .361.28.654.624.654h1.688c.345 0 .625.293.625.654v1.765c0 .361.28.654.625.654S16 4.088 16 3.727z"/></symbol><symbol viewBox="0 0 18 14" id="increase" xmlns="http://www.w3.org/2000/svg"><path d="M17.473 12.927h-.532V.537A.532.532 0 0016.414 0h-2.119c-.29 0-.527.24-.527.536v12.391h-1.063V2.691a.532.532 0 00-.528-.536H10.06a.532.532 0 00-.527.536v10.236H8.468V4.845a.532.532 0 00-.527-.536H5.823a.532.532 0 00-.528.536v8.082H4.232V7a.532.532 0 00-.527-.536H1.586c-.29 0-.527.24-.527.536v5.927H.527c-.29 0-.527.24-.527.537 0 .296.236.536.527.536h16.946c.29 0 .527-.24.527-.536a.532.532 0 00-.527-.537z"/></symbol><symbol viewBox="0 0 15 10" id="interface-3" xmlns="http://www.w3.org/2000/svg"><path d="M7.5 7.049L0 1v9h15V1z"/><path d="M15 0H0l7.5 6z"/></symbol><symbol viewBox="0 0 15 18" id="leader" xmlns="http://www.w3.org/2000/svg"><circle cx="7.5" cy="4.5" r="4.5"/><path d="M6 14.318L7.5 16 9 14.318 7.5 11z"/><path d="M12.049 9a5.957 5.957 0 01-3.446 2.005l1.255 3.19a.666.666 0 01-.093.651l-1.733 2.23a.671.671 0 01-1.064.001l-1.733-2.23a.664.664 0 01-.093-.652l1.255-3.19A5.957 5.957 0 012.951 9 3.402 3.402 0 000 12.364v4.968A.672.672 0 00.673 18h13.654c.372 0 .673-.3.673-.669v-4.967A3.401 3.401 0 0012.049 9z"/></symbol><symbol viewBox="0 0 17 14" id="list" xmlns="http://www.w3.org/2000/svg"><path d="M0 0h4v4H0zm5 0h12v4H5zM0 5h4v4H0zm5 0h12v4H5zm-5 5h4v4H0zm5 0h12v4H5z"/></symbol><symbol viewBox="0 0 13 17" id="manager" xmlns="http://www.w3.org/2000/svg"><path d="M6.5 7C8.43 7 10 5.43 10 3.5S8.43 0 6.5 0 3 1.57 3 3.5 4.57 7 6.5 7zm4.477 1.31l-.005-.002c-.434-.107-1.765-.295-1.765-.295a.295.295 0 00-.364.183l-2.003 5.54a.36.36 0 01-.68 0l-2-5.54A.3.3 0 003.88 8c-.029 0-1.396.193-1.852.308C.785 8.62 0 9.853 0 11.139v4.61C0 16.44.555 17 1.24 17h10.52c.685 0 1.24-.56 1.24-1.25v-4.626c0-1.28-.816-2.417-2.023-2.814z"/><path d="M6.937 9.06A.28.28 0 006.755 9h-.51a.28.28 0 00-.182.06c-.072.06-.082.148-.031.217l.272.32-.127.842.251.522c.024.052.12.052.144 0l.251-.522-.127-.841.272-.321c.051-.069.04-.157-.03-.218z"/></symbol><symbol viewBox="0 0 18 18" id="manufacturing" xmlns="http://www.w3.org/2000/svg"><circle cx="8.5" cy="12.5" r="1"/><circle cx="8.5" cy="13.5" r="1"/><circle cx="8.5" cy="14.5" r="1"/><circle cx="8.5" cy="15.5" r="1"/><path d="M16 12.333a.334.334 0 00-.333-.333h-1.334a.334.334 0 00-.333.333v1.334c0 .184.15.333.333.333h1.334c.184 0 .333-.15.333-.333v-1.334zm-.667 1h-.666v-.666h.666v.666zm.334.667h-1.334a.334.334 0 00-.333.333v1.334c0 .184.15.333.333.333h1.334c.184 0 .333-.15.333-.333v-1.334a.334.334 0 00-.333-.333zm-.334 1.333h-.666v-.666h.666v.666zm-1.333-3a.334.334 0 00-.333-.333h-1.334a.334.334 0 00-.333.333v1.334c0 .184.15.333.333.333h1.334c.184 0 .333-.15.333-.333v-1.334zm-.667 1h-.666v-.666h.666v.666zm.334.667h-1.334a.334.334 0 00-.333.333v1.334c0 .184.15.333.333.333h1.334c.184 0 .333-.15.333-.333v-1.334a.334.334 0 00-.333-.333zm-.334 1.333h-.666v-.666h.666v.666zm-2.333-3a.334.334 0 00-.333-.333H9.333a.334.334 0 00-.333.333v1.334c0 .184.15.333.333.333h1.334c.184 0 .333-.15.333-.333v-1.334zm-.667 1h-.666v-.666h.666v.666zm.334.667H9.333a.334.334 0 00-.333.333v1.334c0 .184.15.333.333.333h1.334c.184 0 .333-.15.333-.333v-1.334a.334.334 0 00-.333-.333zm-.334 1.333h-.666v-.666h.666v.666z"/><circle cx="17.5" cy="14.5" r="1"/><path d="M17.86 10.336l-1.32-.99-.65-6.918a.354.354 0 00-.35-.319h-.352v-.351c0-.97-.79-1.758-1.758-1.758-.574 0-1.108.283-1.434.741a1.41 1.41 0 00-1.549.677 1.403 1.403 0 00-1.007.256 1.76 1.76 0 00-2.69 1.49 1.76 1.76 0 002.258 1.684c.235.463.718.777 1.258.777a1.41 1.41 0 001.287-.84c.257.09.535.137.822.137.44 0 .854-.112 1.198-.309 0 .006.002.011.003.017-.04.348-.376 3.95-.405 4.3l-.937-.703a.352.352 0 00-.368-.034.353.353 0 00-.194.315v1.406l-2.25-1.687a.353.353 0 00-.563.281v1.406l-.703-.527V6.89c0-.582-.473-1.055-1.054-1.055H4.078c-.581 0-1.055.473-1.055 1.055v.597c-.8.164-1.406.874-1.406 1.723v3.867H.352a.352.352 0 00-.352.352v4.218c0 .195.157.352.352.352h17.296a.351.351 0 00.352-.352v-1.933a.352.352 0 10-.703 0v1.582H6.75V9.21L9 10.898a.351.351 0 00.562-.281V9.211l2.25 1.687c.107.08.25.093.369.034a.353.353 0 00.194-.315V9.211l2.25 1.687a.351.351 0 00.562-.281V9.211l2.11 1.582v1.758a.35.35 0 10.703 0v-1.934a.352.352 0 00-.14-.281zM2.32 9.21a1.056 1.056 0 012.11.001v3.867H2.32V9.211zm2.11 8.086H2.32v-2.11h2.11v2.11zm1.617 0h-.914v-2.461a.353.353 0 00-.352-.352H1.97a.353.353 0 00-.352.352v2.46H.703V13.78h5.344v3.516zm1.406-8.438l-.844-.632a.351.351 0 00-.562.28v4.571h-.914V9.211c0-.849-.605-1.56-1.406-1.723v-.597c0-.194.157-.352.351-.352h3.024c.193 0 .351.158.351.352v1.968zm8.03-3.234h-1.295l.066-.703h1.163l.066.703zm-.264-2.813l.132 1.407h-1.03l.132-1.407h.766zm-1.543.747c-.216.396-.732.66-1.301.66-.254 0-.496-.051-.71-.147a1.41 1.41 0 00-1.4-1.26.35.35 0 00-.35.352.35.35 0 00.35.352c.415 0 .733.359.702.744v.005a.705.705 0 01-.701.657.707.707 0 01-.704-.703.352.352 0 00-.697-.062 1.056 1.056 0 11-.357-2.048c.266 0 .52.1.715.28a.351.351 0 00.506-.031.704.704 0 01.796-.199.352.352 0 00.468-.235.705.705 0 011.382.185.351.351 0 10.703 0c0-.4-.167-.772-.452-1.033a1.056 1.056 0 011.858.682v.351h-.351a.351.351 0 00-.35.319l-.107 1.13zm1.37 4.668a.35.35 0 00-.562.281v1.406l-.653-.49.291-3.096h1.428l.23 2.448-.733-.55z"/></symbol><symbol viewBox="0 0 14 14" id="miscellaneous" xmlns="http://www.w3.org/2000/svg"><g opacity=".8"><path d="M13.584 4.954a1.15 1.15 0 00-1.662.15l-.255.315L13.475 7l.244-.313c.419-.52.366-1.295-.135-1.733zM8.853 9.333l-.122.14c-.106.123-.183.27-.222.425l-.333 1.343a.34.34 0 00.119.345c.1.082.243.105.372.052l1.315-.55c.152-.063.289-.161.395-.283l.123-.14-1.647-1.332zm2.391-3.5L9.333 8.769l1.589 1.731 1.911-2.936zm-1.086-4.125L8.664.268A1.144 1.144 0 008.167 0v2.333H10.5a1.216 1.216 0 00-.342-.625z"/><path d="M6.94 10.065c.072-.307.216-.597.415-.84l3.145-3.78V3.282H7.673a.407.407 0 01-.404-.41V0H1.212C.543 0 0 .552 0 1.23v11.54C0 13.448.543 14 1.212 14h8.076c.669 0 1.212-.552 1.212-1.23v-.97l-.052.063c-.199.24-.455.433-.74.56l-1.484.653a1.194 1.194 0 01-1.26-.186 1.238 1.238 0 01-.4-1.23l.376-1.595zM2.02 2.461h4.038c.223 0 .404.183.404.41 0 .227-.181.41-.404.41H2.019a.407.407 0 01-.404-.41c0-.227.181-.41.404-.41zm0 2.488h6.46c.224 0 .405.184.405.41 0 .227-.181.41-.404.41H2.019a.407.407 0 01-.404-.41c0-.226.181-.41.404-.41zm3.23 5.742H2.02a.407.407 0 01-.405-.41c0-.226.181-.41.404-.41H5.25c.223 0 .404.184.404.41 0 .227-.18.41-.404.41zm-3.23-2.46a.408.408 0 01-.405-.41c0-.227.181-.41.404-.41h4.846c.224 0 .404.183.404.41 0 .226-.18.41-.404.41H2.02z"/></g></symbol><symbol viewBox="0 0 15 15" id="outside" xmlns="http://www.w3.org/2000/svg"><path d="M11.84 15H2.09A2.091 2.091 0 010 12.91V3.16c0-1.15.937-2.088 2.09-2.088h5.57a.697.697 0 01.001 1.393H2.089a.697.697 0 00-.696.697v9.75c0 .384.313.696.696.696h9.75a.697.697 0 00.697-.696V7.339a.696.696 0 111.393 0v5.572A2.092 2.092 0 0111.839 15z"/><path d="M14.34 0h-3.955a.66.66 0 00-.466 1.125l1.511 1.512-4.808 4.809a.658.658 0 10.932.932l4.809-4.808 1.512 1.512a.656.656 0 00.718.143.66.66 0 00.407-.61V.66a.66.66 0 00-.66-.66z"/></symbol><symbol viewBox="0 0 23 23" id="sand-clock" xmlns="http://www.w3.org/2000/svg"><path d="M13.656 0H.72a.72.72 0 00-.001 1.438h.719v2.649c0 1.728.672 3.352 1.894 4.574l1.402 1.402-1.402 1.401a6.43 6.43 0 00-1.894 4.574v2.65h-.72a.719.719 0 00.001 1.437h7.69a.72.72 0 00.72-.719.72.72 0 00-.72-.718H2.875v-2.65a5 5 0 011.473-3.558l1.91-1.909a.725.725 0 000-1.018l-1.91-1.908a5 5 0 01-1.473-3.558v-2.65H11.5v2.645a5.076 5.076 0 01-1.47 3.561L8.117 9.555a.72.72 0 000 1.016l1.135 1.136a.72.72 0 001.017 0 .72.72 0 000-1.016l-.629-.629 1.405-1.404a6.515 6.515 0 001.892-4.575V1.436h.718a.719.719 0 100-1.437z"/><path d="M9.344 2.875H5.03a.719.719 0 00-.718.719v.493c0 .959.373 1.861 1.052 2.541L6.68 7.944a.72.72 0 001.016-.002L9.01 6.627a3.564 3.564 0 001.053-2.54v-.493a.72.72 0 00-.72-.719zM5.087 17.204h3.572a.594.594 0 00.595-.593v-.407c0-.792-.31-1.537-.872-2.098L7.293 13.02a.597.597 0 00-.841.001l-1.089 1.086a2.942 2.942 0 00-.87 2.097v.407c0 .328.266.593.594.593zm11.444-7.141a6.476 6.476 0 00-6.468 6.468A6.476 6.476 0 0016.531 23 6.476 6.476 0 0023 16.531a6.476 6.476 0 00-6.469-6.468zm0 11.5a5.037 5.037 0 01-5.031-5.032 5.037 5.037 0 015.031-5.031 5.037 5.037 0 015.032 5.031 5.037 5.037 0 01-5.032 5.032z"/><path d="M19.196 18.18l-1.946-1.946v-2.578a.72.72 0 10-1.437.001v2.874c0 .191.076.374.21.51l2.156 2.155a.718.718 0 001.017-1.016z"/></symbol><symbol viewBox="0 0 11 16" id="success" xmlns="http://www.w3.org/2000/svg"><path d="M13.5 2.5L9.48 8l4.02 5.5h-16v-11z"/></symbol><symbol viewBox="0 0 11 11" id="supermarket" xmlns="http://www.w3.org/2000/svg"><path d="M10.195.941H2c-.025 0-.047.009-.07.015L1.728.334A.496.496 0 001.25 0h-1C.112 0 0 .105 0 .235v.47c0 .13.112.236.25.236h.63l1.562 4.831-.584.64c-.23.254-.334.603-.228.921A.988.988 0 002.587 8H9.75c.138 0 .25-.105.25-.235v-.47c0-.13-.112-.236-.25-.236H2.587l.793-.87c.02-.022.034-.047.05-.071h4.844c.387 0 .74-.211.905-.541l1.745-3.489c.05-.1.076-.212.076-.322v-.067c0-.419-.36-.758-.805-.758z"/><circle cx="3" cy="10" r="1"/><circle cx="9" cy="10" r="1"/></symbol><symbol viewBox="0 0 12 14" id="train" xmlns="http://www.w3.org/2000/svg"><path d="M6 0C3 0 0 .368 0 2.947v7c0 1.422 1.177 2.58 2.625 2.58L1.5 13.631V14h1.672l1.5-1.474H7.5L9 14h1.5v-.368l-1.125-1.106c1.447 0 2.625-1.157 2.625-2.579v-7C12 .368 9.315 0 6 0zM2.625 11.053A1.114 1.114 0 011.5 9.947c0-.611.502-1.105 1.125-1.105s1.125.494 1.125 1.105c0 .612-.503 1.106-1.125 1.106zM5.25 5.895H1.5V2.947h3.75v2.948zm4.125 5.158A1.114 1.114 0 018.25 9.947c0-.611.502-1.105 1.125-1.105s1.125.494 1.125 1.105c0 .612-.503 1.106-1.125 1.106zM10.5 5.895H6.75V2.947h3.75v2.948z"/></symbol><symbol viewBox="0 0 48 30" id="truck-3" xmlns="http://www.w3.org/2000/svg"><path d="M44.64 12.718l-1.243-4.913a.744.744 0 00.595-.726v-.792c0-1.72-1.416-3.119-3.157-3.119h-5.662V1.535C35.173.688 34.477 0 33.62 0H4.76c-.857 0-1.553.688-1.553 1.535V15c0 .41.336.743.751.743s.752-.333.752-.743V1.535a.05.05 0 01.05-.05h28.86a.05.05 0 01.05.05V15c0 .41.337.743.752.743s.751-.333.751-.743v-.841h8.87c1.091 0 2.017.708 2.336 1.683h-2.337a.747.747 0 00-.752.742v1.585c0 1.283 1.056 2.326 2.355 2.326h.852v3.268h-1.965a4.765 4.765 0 00-4.499-3.169 4.763 4.763 0 00-4.498 3.169h-.362v-5.595a.746.746 0 00-.751-.742.746.746 0 00-.752.742v5.594H18.077a4.765 4.765 0 00-4.499-3.168 4.764 4.764 0 00-4.498 3.168H4.76a.05.05 0 01-.05-.05V22.08h3.257c.415 0 .751-.332.751-.742s-.336-.743-.751-.743H.752a.747.747 0 00-.752.743c0 .41.336.742.752.742h2.455v1.634c0 .846.696 1.535 1.553 1.535h4.06l-.002.049c0 2.593 2.136 4.703 4.76 4.703 2.625 0 4.76-2.11 4.76-4.703l-.001-.05h16.938l-.002.05c0 2.593 2.136 4.703 4.76 4.703 2.625 0 4.76-2.11 4.76-4.703l-.001-.05h2.456a.747.747 0 00.752-.742v-7.92c0-1.956-1.46-3.581-3.36-3.867zm-9.467-8.064h5.662c.912 0 1.654.732 1.654 1.633v.05h-7.316V4.654zm0 8.02V7.821h6.679l1.227 4.851h-7.906zm-21.595 15.84c-1.795 0-3.256-1.443-3.256-3.218 0-1.774 1.46-3.218 3.256-3.218 1.796 0 3.257 1.444 3.257 3.218 0 1.775-1.46 3.218-3.257 3.218zm26.455 0c-1.795 0-3.256-1.443-3.256-3.218 0-1.774 1.46-3.218 3.256-3.218 1.796 0 3.257 1.444 3.257 3.218 0 1.775-1.46 3.218-3.257 3.218zm6.464-9.505h-.852a.848.848 0 01-.852-.842v-.841h1.704v1.683z"/><path d="M12.889 23.824c-.735 0-1.333.593-1.333 1.323s.598 1.324 1.333 1.324 1.333-.594 1.333-1.324a1.33 1.33 0 00-1.333-1.323zm26.667 0c-.736 0-1.334.593-1.334 1.323s.598 1.324 1.334 1.324a1.33 1.33 0 001.333-1.324 1.33 1.33 0 00-1.333-1.323zm-8.291-3.53H20.29c-.405 0-.734.395-.734.882 0 .488.329.883.734.883h10.975c.406 0 .735-.395.735-.883 0-.487-.329-.882-.735-.882zm-19.541-2.647H2.499c-.398 0-.721.395-.721.882 0 .488.322.883.72.883h9.226c.398 0 .72-.395.72-.883 0-.487-.322-.882-.72-.882zM26.451 7.282a.717.717 0 00-1.039 0l-6.535 6.764-3.4-3.519a.718.718 0 00-1.04 0 .78.78 0 000 1.076l3.92 4.057a.723.723 0 001.04 0l7.054-7.303a.779.779 0 000-1.075z"/></symbol><symbol viewBox="0 0 22 15" id="truck-4" xmlns="http://www.w3.org/2000/svg"><path d="M21.943 9.117L20.83 7.425a2.664 2.664 0 00-2.236-1.195h-2.88V4.583a1.83 1.83 0 00-1.834-1.822H8.488A3.42 3.42 0 005.128 0C3.241 0 1.705 1.526 1.705 3.4c0 1.18.608 2.22 1.528 2.83H.349a.348.348 0 10.001.694h3.49v.694H2.444a.348.348 0 00-.349.347c0 .192.157.347.35.347H3.84v.693H.35a.348.348 0 10.001.695H3.84v1.536a1.74 1.74 0 00-1.047 1.59v.343c0 .192.156.347.349.347H6.24a1.931 1.931 0 003.759 0h6.718a1.931 1.931 0 003.758 0h1.177a.348.348 0 00.349-.347V9.307a.35.35 0 00-.057-.19zM2.403 3.401A2.72 2.72 0 015.128.694a2.719 2.719 0 012.725 2.707 2.718 2.718 0 01-2.725 2.706 2.718 2.718 0 01-2.724-2.706zM4.54 9.7h.698a.35.35 0 00.35-.348.35.35 0 00-.35-.347H4.54v-.693h2.444c.193 0 .35-.155.35-.347a.348.348 0 00-.35-.347H4.54v-.694h4.54a.348.348 0 00.349-.347.348.348 0 00-.35-.347H7.023a3.392 3.392 0 001.525-2.776h5.332c.626 0 1.136.507 1.136 1.13v6.503H4.54V9.7zm10.476 3.122H10.03a1.904 1.904 0 00-.497-1.041h5.483v1.04zM4.544 11.78h2.16c-.262.282-.44.642-.495 1.04H3.492a1.05 1.05 0 011.052-1.04zm3.575 2.525c-.68 0-1.232-.549-1.232-1.224a1.23 1.23 0 011.232-1.224c.68 0 1.232.55 1.232 1.224a1.23 1.23 0 01-1.232 1.224zm10.476 0a1.23 1.23 0 01-1.232-1.224 1.23 1.23 0 011.232-1.224c.68 0 1.232.55 1.232 1.224 0 .675-.552 1.224-1.232 1.224zm2.707-1.484h-.796a1.928 1.928 0 00-1.91-1.658c-.976 0-1.783.723-1.911 1.658h-.97V6.924h2.88c.67 0 1.288.329 1.65.88l1.057 1.606v3.412z"/><path d="M19.298 13.27a.577.577 0 01-.579.576.578.578 0 11.001-1.154c.319 0 .578.259.578.577zm-10.421 0a.578.578 0 110-.001zM5.404 3.51V1.905a.366.366 0 10-.73 0V3.39L3.93 4.417A.367.367 0 004.224 5a.363.363 0 00.295-.15l.815-1.124a.371.371 0 00.07-.216zm13.033 3.798h-.702c-.202 0-.367.153-.367.342v2.393c0 .189.165.342.367.342h2.469a.64.64 0 00.551-.297.551.551 0 00.002-.592L19.901 8.1c-.3-.488-.86-.791-1.464-.791zM18.102 9.7V7.99h.335a.97.97 0 01.827.448l.773 1.262h-1.935z"/></symbol><symbol viewBox="0 0 26 24" id="upload" xmlns="http://www.w3.org/2000/svg"><path d="M20.998 6.586c-.879-4.433-5.162-7.31-9.568-6.427a8.16 8.16 0 00-6.387 6.422C1.919 6.943-.322 9.784.038 12.927.369 15.82 2.804 18.002 5.698 18h4.068c.45 0 .814-.366.814-.818a.817.817 0 00-.814-.819H5.7c-2.247-.013-4.057-1.856-4.044-4.116.014-2.26 1.845-4.08 4.092-4.067a.815.815 0 00.808-.729c.413-3.591 3.642-6.166 7.213-5.75 3.001.349 5.37 2.73 5.716 5.75a.866.866 0 00.857.729c2.246 0 4.067 1.832 4.067 4.092s-1.82 4.091-4.067 4.091h-4.067a.816.816 0 00-.814.819c0 .452.364.818.814.818h4.067c3.145-.02 5.678-2.6 5.659-5.764-.018-2.881-2.16-5.3-5.002-5.65z"/><path d="M15.691 14.9a.722.722 0 001.077.02.872.872 0 00.018-1.164l-.018-.02-3.229-3.494a.722.722 0 00-1.077-.002l-.001.002-3.229 3.493a.873.873 0 00-.018 1.165.72.72 0 001.076.02l.019-.02 1.93-2.089v10.365c0 .455.34.824.761.824.42 0 .761-.369.761-.824V12.811l1.93 2.089z"/></symbol><symbol viewBox="0 0 16 19" id="user-1" xmlns="http://www.w3.org/2000/svg"><g stroke-width=".2"><path d="M14.823.605A2.019 2.019 0 0013.383 0H2.046a2.02 2.02 0 00-1.44.605A2.013 2.013 0 000 2.043v11.3c0 .562.23 1.063.605 1.438.376.354.877.584 1.441.584h2.818l.815 1 .02.021.94 1.147c.188.23.46.375.773.438.271.062.584.02.876-.084.105-.041.188-.083.272-.146.062-.041.125-.104.188-.166l.041-.042.94-1.147.02-.02.815-1.001h2.819c.563 0 1.064-.23 1.44-.605.376-.375.606-.876.606-1.438V2.043c0-.563-.23-1.063-.606-1.438zm-.46 12.737c0 .271-.104.5-.291.688a.997.997 0 01-.69.292h-3.09a.519.519 0 00-.438.23l-.94 1.125-.02.021-.96 1.168c-.021 0-.021.02-.042.02a.407.407 0 01-.272.021.483.483 0 01-.146-.062l-.94-1.147-.02-.02-.94-1.147c0-.021-.02-.021-.02-.042a.547.547 0 00-.439-.23H2.046a.946.946 0 01-.689-.291.994.994 0 01-.292-.688V2.043h.02c0-.271.105-.5.293-.688a.994.994 0 01.689-.292h11.316c.271 0 .5.104.689.292a.994.994 0 01.292.688v11.3z"/><path d="M9.526 3.315a2.54 2.54 0 00-1.812-.744c-.701 0-1.344.294-1.811.763-.468.47-.76 1.115-.76 1.819s.292 1.349.76 1.818c.467.45 1.11.743 1.811.743a2.56 2.56 0 001.812-.762c.468-.47.76-1.115.76-1.819s-.292-1.35-.76-1.818zm-.701 2.952c-.293.294-.682.47-1.11.47-.43 0-.819-.176-1.111-.47a1.57 1.57 0 01-.468-1.114c.02-.45.195-.841.468-1.115a1.56 1.56 0 011.11-.47c.429 0 .818.177 1.11.47.293.293.468.684.468 1.115 0 .43-.175.82-.467 1.114zm2.42 3.53C10.327 9.307 9.082 9 7.715 9s-2.632.308-3.53.797c-1 .543-1.612 1.304-1.612 2.155v.434c-.02.254.224.471.51.471h9.244c.285 0 .53-.2.53-.47v-.435c0-.87-.612-1.63-1.612-2.155zm-7.652 2.137c.02-.507.449-.978 1.102-1.34.755-.417 1.816-.67 3-.67 1.183 0 2.244.253 3 .67.673.362 1.08.833 1.101 1.34H3.593z"/></g></symbol><symbol viewBox="0 0 15 17" id="user-4" xmlns="http://www.w3.org/2000/svg"><path d="M7.5 0C5.019 0 3 2.019 3 4.5S5.019 9 7.5 9 12 6.981 12 4.5 9.981 0 7.5 0zm5.599 11.922A6.442 6.442 0 008.5 10h-2a6.442 6.442 0 00-4.599 1.922A6.463 6.463 0 000 16.505c0 .273.224.495.5.495h14c.276 0 .5-.222.5-.495 0-1.723-.675-3.35-1.901-4.583z"/></symbol><symbol viewBox="0 0 21 21" id="wall-clock" xmlns="http://www.w3.org/2000/svg"><path d="M10.5 0C4.71 0 0 4.71 0 10.5S4.71 21 10.5 21 21 16.29 21 10.5 16.29 0 10.5 0zm0 19.687c-5.066 0-9.187-4.12-9.187-9.187 0-5.066 4.12-9.187 9.187-9.187 5.066 0 9.187 4.12 9.187 9.187 0 5.066-4.12 9.187-9.187 9.187z"/><path d="M11.298 4H10v6.857L14.083 15l.917-.931-3.702-3.758z"/></symbol></svg>