<?xml version="1.0" encoding="utf-8"?><svg xmlns="http://www.w3.org/2000/svg" xmlns:xlink="http://www.w3.org/1999/xlink"><symbol viewBox="0 0 19 22" id="boat" xmlns="http://www.w3.org/2000/svg"><path d="M3 5v4l6.035-2.012.465-.155.465.155L16 9V5zm14.384 15.482c-.259.158-.401.246-.76.246-.357 0-.5-.088-.76-.246-.33-.204-.785-.482-1.615-.482s-1.283.278-1.615.482c-.259.158-.402.246-.76.246-.357 0-.5-.088-.76-.246-.33-.204-.785-.482-1.615-.482-.829 0-1.283.278-1.615.482-.259.158-.401.246-.76.246-.357 0-.5-.088-.759-.246C6.033 20.278 5.58 20 4.75 20s-1.284.278-1.616.482c-.259.158-.401.246-.76.246-.357 0-.5-.088-.759-.246C1.284 20.278.83 20 0 20v1.272c.358 0 .5.088.76.246.331.204.785.482 1.615.482s1.284-.278 1.615-.482c.26-.158.402-.246.76-.246s.5.088.76.246c.331.204.785.482 1.615.482s1.283-.278 1.615-.482c.259-.158.402-.246.76-.246s.5.088.76.246c.33.204.785.482 1.615.482s1.283-.278 1.615-.482c.259-.158.402-.246.76-.246s.5.088.76.246c.331.204.785.482 1.615.482s1.284-.278 1.615-.482c.26-.158.402-.246.76-.246V20c-.83 0-1.284.278-1.616.482zM10.671 1.054V0H9.283v1.054H6V3h8V1.054z"/><path d="M1 10.832l2.954 7.627a3.67 3.67 0 011.254-.21c1.139 0 1.84.456 2.245.751A3.644 3.644 0 019 18.311V8l-8 2.832zM10 8v10.311c.738.135 1.232.46 1.546.689.404-.295 1.106-.751 2.244-.751.484 0 .888.083 1.225.2L18 10.833 10 8z"/></symbol><symbol viewBox="0 0 16 17" id="calendar" xmlns="http://www.w3.org/2000/svg"><circle cx="12.5" cy="6.8" r="1"/><path d="M13.5 1.308h-.813V.654c0-.361-.28-.654-.624-.654a.64.64 0 00-.626.654v.654H8.595V.654C8.595.293 8.315 0 7.97 0s-.625.293-.625.654v.654H4.53V.654C4.53.293 4.25 0 3.905 0S3.28.293 3.28.654v.654H2.5C1.121 1.308 0 2.48 0 3.923v10.2c0 1.442 1.121 2.615 2.5 2.615h4.781a.64.64 0 00.625-.653c0-.362-.28-.654-.625-.654H2.5c-.69 0-1.25-.587-1.25-1.308v-10.2c0-.721.56-1.308 1.25-1.308h.781v.654c0 .361.28.654.625.654s.625-.293.625-.654v-.654h2.813v.654c0 .361.28.654.625.654s.625-.293.625-.654v-.654h2.844v.654c0 .361.28.654.624.654a.64.64 0 00.626-.654v-.654h.812c.69 0 1.25.587 1.25 1.308V7.65c0 .361.28.654.625.654S16 8.01 16 7.65V3.923c0-1.442-1.121-2.615-2.5-2.615z"/><path d="M12 8.37c-2.206 0-4 1.876-4 4.184 0 2.307 1.794 4.184 4 4.184s4-1.877 4-4.184c0-2.308-1.794-4.185-4-4.185zm0 6.985c-1.476 0-2.678-1.257-2.678-2.801 0-1.545 1.202-2.801 2.678-2.801s2.678 1.256 2.678 2.8c0 1.545-1.202 2.802-2.678 2.802z"/><path d="M13.42 12.05h-.26v-.814c0-.428-.26-.774-.58-.774-.32 0-.58.346-.58.774v1.59c0 .427.26.774.58.774h.84c.32 0 .58-.347.58-.775 0-.428-.26-.775-.58-.775z"/><circle cx="9.5" cy="6.8" r="1"/><circle cx="6.5" cy="9.938" r="1"/><circle cx="3.5" cy="6.8" r="1"/><circle cx="3.5" cy="9.938" r="1"/><circle cx="3.5" cy="12.031" r="1"/><circle cx="6.5" cy="12.031" r="1"/><circle cx="6.5" cy="6.8" r="1"/></symbol><symbol viewBox="0 0 13 13" id="calendar_2" xmlns="http://www.w3.org/2000/svg"><path d="M10 3a.99.99 0 001-.984V.986A.992.992 0 0010 0c-.553 0-1 .44-1 .986v1.03A.99.99 0 0010 3z"/><path d="M12.986 2.022h-1.841v.44c0 .726-.624 1.317-1.393 1.317-.77 0-1.392-.591-1.392-1.317v-.44H4.644v.44c0 .726-.625 1.317-1.393 1.317-.769 0-1.393-.59-1.393-1.317v-.44L0 2v11h12.072l.928-.003-.014-10.975zm-.915 10.102H.93V5.097h11.143v7.027z"/><path d="M3 3a.99.99 0 001-.984V.986A.992.992 0 003 0c-.553 0-1 .44-1 .986v1.03A.99.99 0 003 3zm2 3h2v1H5z"/><path d="M6 6h2v1H6zm2 0h2v1H8zM5 7h2v1H5z"/><path d="M6 7h2v1H6zm2 0h2v1H8zM5 9h2v1H5zM3 7h2v1H3zm0 2h2v1H3z"/><path d="M6 9h2v1H6zm2 0h2v1H8z"/></symbol><symbol viewBox="0 0 18 13" id="delivery-truck" xmlns="http://www.w3.org/2000/svg"><path d="M.632 8.662V.792C.632.355.977 0 1.402 0h7.655c.425 0 .77.355.77.792v7.87a.261.261 0 01-.257.264H.888a.26.26 0 01-.256-.264zm6.18 2.696c0 .907-.715 1.642-1.597 1.642-.883 0-1.599-.735-1.599-1.642 0-.907.716-1.643 1.599-1.643.882 0 1.598.736 1.598 1.643zm-.798 0a.81.81 0 00-.8-.821.81.81 0 00-.799.82c0 .454.358.822.8.822.44 0 .799-.368.799-.821zM3.838 9.715H.257A.261.261 0 000 9.979v.801a.26.26 0 00.257.264h2.87c.075-.528.335-.995.711-1.329zm11.337 1.643c0 .907-.716 1.642-1.599 1.642-.882 0-1.598-.735-1.598-1.642 0-.907.716-1.643 1.598-1.643.883 0 1.599.736 1.599 1.643zm-.8 0a.81.81 0 00-.799-.821.81.81 0 00-.799.82c0 .454.358.822.8.822.44 0 .799-.368.799-.821zM18 9.979v.801a.26.26 0 01-.257.264h-2.08c-.148-1.048-1.026-1.857-2.086-1.857-1.061 0-1.94.809-2.088 1.857H7.302a2.192 2.192 0 00-.71-1.329h3.97v-7.55c0-.29.23-.527.513-.527H13.5c.683 0 1.321.348 1.703.93l1.563 2.38c.23.348.352.76.352 1.18v3.587h.625c.142 0 .257.119.257.264zm-2.606-4.971l-1.25-1.825a.255.255 0 00-.21-.112h-1.95a.26.26 0 00-.256.264V5.16a.26.26 0 00.256.264h3.2c.208 0 .33-.241.21-.416z"/></symbol><symbol viewBox="0 0 16 17" id="graph" xmlns="http://www.w3.org/2000/svg"><path d="M2.313 16.738C1.036 16.738 0 15.653 0 14.32V8.108c0-1.334 1.037-2.42 2.313-2.42 1.275 0 2.312 1.086 2.312 2.42v6.211c0 1.334-1.037 2.42-2.313 2.42zm0-9.742c-.586 0-1.063.499-1.063 1.112v6.211c0 .613.477 1.112 1.063 1.112.585 0 1.062-.499 1.062-1.112V8.108c0-.613-.477-1.112-1.063-1.112zM8 16.738c-1.275 0-2.313-1.085-2.313-2.419v-2.68c0-1.335 1.038-2.42 2.313-2.42 1.275 0 2.313 1.085 2.313 2.42v2.68c0 1.334-1.038 2.42-2.313 2.42zm0-6.211c-.586 0-1.063.499-1.063 1.111v2.681c0 .613.477 1.112 1.063 1.112s1.063-.499 1.063-1.112v-2.68c0-.613-.477-1.112-1.063-1.112zm5.688 6.211c-1.276 0-2.313-1.085-2.313-2.419V8.6c0-1.335 1.037-2.42 2.313-2.42C14.963 6.18 16 7.265 16 8.6v5.72c0 1.334-1.037 2.42-2.313 2.42zm0-9.251c-.586 0-1.063.498-1.063 1.111v5.721c0 .613.477 1.112 1.063 1.112.585 0 1.062-.499 1.062-1.112V8.6c0-.614-.477-1.112-1.063-1.112zm-3.475-.26l3.458-3.801c.238-.262.229-.676-.021-.925s-.646-.238-.884.023L9.302 6.331l-.012.014a.912.912 0 01-1.264.125L4.058 2.699l-.032-.03a2.111 2.111 0 00-2.82.094l-.022.021-.998 1.034a.675.675 0 00-.005.925.607.607 0 00.884.005l.986-1.022a.905.905 0 011.184-.043l3.969 3.772a2.121 2.121 0 003.009-.228zM16 3.727V1.962C16 .88 15.159 0 14.125 0h-1.688c-.345 0-.624.293-.624.654 0 .361.28.654.624.654h1.688c.345 0 .625.293.625.654v1.765c0 .361.28.654.625.654S16 4.088 16 3.727z"/></symbol><symbol viewBox="0 0 15 18" id="leader" xmlns="http://www.w3.org/2000/svg"><circle cx="7.5" cy="4.5" r="4.5"/><path d="M6 14.318L7.5 16 9 14.318 7.5 11z"/><path d="M12.049 9a5.957 5.957 0 01-3.446 2.005l1.255 3.19a.666.666 0 01-.093.651l-1.733 2.23a.671.671 0 01-1.064.001l-1.733-2.23a.664.664 0 01-.093-.652l1.255-3.19A5.957 5.957 0 012.951 9 3.402 3.402 0 000 12.364v4.968A.672.672 0 00.673 18h13.654c.372 0 .673-.3.673-.669v-4.967A3.401 3.401 0 0012.049 9z"/></symbol><symbol viewBox="0 0 13 17" id="manager" xmlns="http://www.w3.org/2000/svg"><path d="M6.5 7C8.43 7 10 5.43 10 3.5S8.43 0 6.5 0 3 1.57 3 3.5 4.57 7 6.5 7zm4.477 1.31l-.005-.002c-.434-.107-1.765-.295-1.765-.295a.295.295 0 00-.364.183l-2.003 5.54a.36.36 0 01-.68 0l-2-5.54A.3.3 0 003.88 8c-.029 0-1.396.193-1.852.308C.785 8.62 0 9.853 0 11.139v4.61C0 16.44.555 17 1.24 17h10.52c.685 0 1.24-.56 1.24-1.25v-4.626c0-1.28-.816-2.417-2.023-2.814z"/><path d="M6.937 9.06A.28.28 0 006.755 9h-.51a.28.28 0 00-.182.06c-.072.06-.082.148-.031.217l.272.32-.127.842.251.522c.024.052.12.052.144 0l.251-.522-.127-.841.272-.321c.051-.069.04-.157-.03-.218z"/></symbol><symbol viewBox="0 0 11 11" id="supermarket" xmlns="http://www.w3.org/2000/svg"><path d="M10.195.941H2c-.025 0-.047.009-.07.015L1.728.334A.496.496 0 001.25 0h-1C.112 0 0 .105 0 .235v.47c0 .13.112.236.25.236h.63l1.562 4.831-.584.64c-.23.254-.334.603-.228.921A.988.988 0 002.587 8H9.75c.138 0 .25-.105.25-.235v-.47c0-.13-.112-.236-.25-.236H2.587l.793-.87c.02-.022.034-.047.05-.071h4.844c.387 0 .74-.211.905-.541l1.745-3.489c.05-.1.076-.212.076-.322v-.067c0-.419-.36-.758-.805-.758z"/><circle cx="3" cy="10" r="1"/><circle cx="9" cy="10" r="1"/></symbol><symbol viewBox="0 0 12 14" id="train" xmlns="http://www.w3.org/2000/svg"><path d="M6 0C3 0 0 .368 0 2.947v7c0 1.422 1.177 2.58 2.625 2.58L1.5 13.631V14h1.672l1.5-1.474H7.5L9 14h1.5v-.368l-1.125-1.106c1.447 0 2.625-1.157 2.625-2.579v-7C12 .368 9.315 0 6 0zM2.625 11.053A1.114 1.114 0 011.5 9.947c0-.611.502-1.105 1.125-1.105s1.125.494 1.125 1.105c0 .612-.503 1.106-1.125 1.106zM5.25 5.895H1.5V2.947h3.75v2.948zm4.125 5.158A1.114 1.114 0 018.25 9.947c0-.611.502-1.105 1.125-1.105s1.125.494 1.125 1.105c0 .612-.503 1.106-1.125 1.106zM10.5 5.895H6.75V2.947h3.75v2.948z"/></symbol><symbol viewBox="0 0 16 19" id="user-1" xmlns="http://www.w3.org/2000/svg"><g stroke-width=".2"><path d="M14.823.605A2.019 2.019 0 0013.383 0H2.046a2.02 2.02 0 00-1.44.605A2.013 2.013 0 000 2.043v11.3c0 .562.23 1.063.605 1.438.376.354.877.584 1.441.584h2.818l.815 1 .02.021.94 1.147c.188.23.46.375.773.438.271.062.584.02.876-.084.105-.041.188-.083.272-.146.062-.041.125-.104.188-.166l.041-.042.94-1.147.02-.02.815-1.001h2.819c.563 0 1.064-.23 1.44-.605.376-.375.606-.876.606-1.438V2.043c0-.563-.23-1.063-.606-1.438zm-.46 12.737c0 .271-.104.5-.291.688a.997.997 0 01-.69.292h-3.09a.519.519 0 00-.438.23l-.94 1.125-.02.021-.96 1.168c-.021 0-.021.02-.042.02a.407.407 0 01-.272.021.483.483 0 01-.146-.062l-.94-1.147-.02-.02-.94-1.147c0-.021-.02-.021-.02-.042a.547.547 0 00-.439-.23H2.046a.946.946 0 01-.689-.291.994.994 0 01-.292-.688V2.043h.02c0-.271.105-.5.293-.688a.994.994 0 01.689-.292h11.316c.271 0 .5.104.689.292a.994.994 0 01.292.688v11.3z"/><path d="M9.526 3.315a2.54 2.54 0 00-1.812-.744c-.701 0-1.344.294-1.811.763-.468.47-.76 1.115-.76 1.819s.292 1.349.76 1.818c.467.45 1.11.743 1.811.743a2.56 2.56 0 001.812-.762c.468-.47.76-1.115.76-1.819s-.292-1.35-.76-1.818zm-.701 2.952c-.293.294-.682.47-1.11.47-.43 0-.819-.176-1.111-.47a1.57 1.57 0 01-.468-1.114c.02-.45.195-.841.468-1.115a1.56 1.56 0 011.11-.47c.429 0 .818.177 1.11.47.293.293.468.684.468 1.115 0 .43-.175.82-.467 1.114zm2.42 3.53C10.327 9.307 9.082 9 7.715 9s-2.632.308-3.53.797c-1 .543-1.612 1.304-1.612 2.155v.434c-.02.254.224.471.51.471h9.244c.285 0 .53-.2.53-.47v-.435c0-.87-.612-1.63-1.612-2.155zm-7.652 2.137c.02-.507.449-.978 1.102-1.34.755-.417 1.816-.67 3-.67 1.183 0 2.244.253 3 .67.673.362 1.08.833 1.101 1.34H3.593z"/></g></symbol><symbol viewBox="0 0 21 21" id="wall-clock" xmlns="http://www.w3.org/2000/svg"><path d="M10.5 0C4.71 0 0 4.71 0 10.5S4.71 21 10.5 21 21 16.29 21 10.5 16.29 0 10.5 0zm0 19.687c-5.066 0-9.187-4.12-9.187-9.187 0-5.066 4.12-9.187 9.187-9.187 5.066 0 9.187 4.12 9.187 9.187 0 5.066-4.12 9.187-9.187 9.187z"/><path d="M11.298 4H10v6.857L14.083 15l.917-.931-3.702-3.758z"/></symbol></svg>