<svg width="22" height="6" viewBox="0 0 22 6" fill="none" xmlns="http://www.w3.org/2000/svg">
<path d="M10.6006 0C10.0072 0 9.42722 0.175947 8.93388 0.505591C8.44053 0.835236 8.05601 1.30377 7.82895 1.85195C7.60189 2.40013 7.54248 3.00333 7.65823 3.58527C7.77399 4.16721 8.05971 4.70176 8.47927 5.12132C8.89882 5.54088 9.43337 5.8266 10.0153 5.94236C10.5973 6.05811 11.2005 5.9987 11.7486 5.77164C12.2968 5.54458 12.7654 5.16006 13.095 4.66671C13.4246 4.17336 13.6006 3.59334 13.6006 3C13.6006 2.20435 13.2845 1.44129 12.7219 0.87868C12.1593 0.31607 11.3962 0 10.6006 0ZM10.6006 4.5C10.3039 4.5 10.0139 4.41203 9.76723 4.2472C9.52056 4.08238 9.3283 3.84811 9.21477 3.57403C9.10124 3.29994 9.07153 2.99834 9.12941 2.70736C9.18729 2.41639 9.33015 2.14912 9.53993 1.93934C9.74971 1.72956 10.017 1.5867 10.308 1.52882C10.5989 1.47094 10.9005 1.50065 11.1746 1.61418C11.4487 1.72771 11.683 1.91997 11.8478 2.16664C12.0126 2.41332 12.1006 2.70333 12.1006 3C12.1006 3.39782 11.9426 3.77936 11.6612 4.06066C11.3799 4.34196 10.9984 4.5 10.6006 4.5ZM3.10059 0C2.50724 0 1.92722 0.175947 1.43388 0.505591C0.940529 0.835236 0.556012 1.30377 0.328949 1.85195C0.101886 2.40013 0.0424758 3.00333 0.158231 3.58527C0.273987 4.16721 0.559709 4.70176 0.979267 5.12132C1.39882 5.54088 1.93337 5.8266 2.51532 5.94236C3.09726 6.05811 3.70046 5.9987 4.24864 5.77164C4.79682 5.54458 5.26535 5.16006 5.595 4.66671C5.92464 4.17336 6.10059 3.59334 6.10059 3C6.10059 2.20435 5.78452 1.44129 5.22191 0.87868C4.6593 0.31607 3.89624 0 3.10059 0ZM3.10059 4.5C2.80392 4.5 2.51391 4.41203 2.26723 4.2472C2.02056 4.08238 1.8283 3.84811 1.71477 3.57403C1.60124 3.29994 1.57153 2.99834 1.62941 2.70736C1.68729 2.41639 1.83015 2.14912 2.03993 1.93934C2.24971 1.72956 2.51698 1.5867 2.80795 1.52882C3.09892 1.47094 3.40052 1.50065 3.67461 1.61418C3.9487 1.72771 4.18297 1.91997 4.34779 2.16664C4.51261 2.41332 4.60059 2.70333 4.60059 3C4.60059 3.39782 4.44255 3.77936 4.16125 4.06066C3.87994 4.34196 3.49841 4.5 3.10059 4.5ZM18.1006 0C17.5072 0 16.9272 0.175947 16.4339 0.505591C15.9405 0.835236 15.556 1.30377 15.3289 1.85195C15.1019 2.40013 15.0425 3.00333 15.1582 3.58527C15.274 4.16721 15.5597 4.70176 15.9793 5.12132C16.3988 5.54088 16.9334 5.8266 17.5153 5.94236C18.0973 6.05811 18.7005 5.9987 19.2486 5.77164C19.7968 5.54458 20.2654 5.16006 20.595 4.66671C20.9246 4.17336 21.1006 3.59334 21.1006 3C21.1006 2.20435 20.7845 1.44129 20.2219 0.87868C19.6593 0.31607 18.8962 0 18.1006 0ZM18.1006 4.5C17.8039 4.5 17.5139 4.41203 17.2672 4.2472C17.0206 4.08238 16.8283 3.84811 16.7148 3.57403C16.6012 3.29994 16.5715 2.99834 16.6294 2.70736C16.6873 2.41639 16.8301 2.14912 17.0399 1.93934C17.2497 1.72956 17.517 1.5867 17.808 1.52882C18.0989 1.47094 18.4005 1.50065 18.6746 1.61418C18.9487 1.72771 19.183 1.91997 19.3478 2.16664C19.5126 2.41332 19.6006 2.70333 19.6006 3C19.6006 3.39782 19.4426 3.77936 19.1612 4.06066C18.8799 4.34196 18.4984 4.5 18.1006 4.5Z" fill="#757575"/>
</svg>
