<svg width="108" height="108" viewBox="0 0 108 108" fill="none" xmlns="http://www.w3.org/2000/svg">
<g clip-path="url(#clip0_2238_42354)">
<path fill-rule="evenodd" clip-rule="evenodd" d="M46.8496 55.874C45.8787 55.874 45.0918 56.6609 45.0918 57.6318V64.3115C45.0918 65.2797 45.8814 66.0698 46.8496 66.0698H61.2641C62.2323 66.0698 63.0219 65.2801 63.0219 64.3115V57.6318C63.0219 56.6609 62.235 55.874 61.2641 55.874H55.9733V57.6094C55.9733 58.5799 55.1864 59.3672 54.2155 59.3672C53.2446 59.3672 52.4577 58.5799 52.4577 57.6094V55.874H46.8496Z" fill="#BDBDBD"/>
<path fill-rule="evenodd" clip-rule="evenodd" d="M50.719 69.585H47.0263V71.3428C47.0263 72.3137 46.2394 73.1006 45.2684 73.1006C44.2975 73.1006 43.5106 72.3137 43.5106 71.3428V69.585H39.8179C38.8497 69.585 38.0601 70.3746 38.0601 71.3428V82.2416C38.0601 83.2126 38.847 83.9995 39.8179 83.9995H50.719C51.6872 83.9995 52.4768 83.2098 52.4768 82.2416V71.3428C52.4768 70.3746 51.6872 69.585 50.719 69.585Z" fill="#BDBDBD"/>
<path fill-rule="evenodd" clip-rule="evenodd" d="M68.6127 69.585H64.9392V71.3428C64.9392 72.3137 64.1523 73.1006 63.1814 73.1006C62.2104 73.1006 61.4235 72.3137 61.4235 71.3428V69.585H57.75C56.7818 69.585 55.9922 70.3746 55.9922 71.3428V82.2416C55.9922 83.2098 56.7818 83.9995 57.75 83.9995H68.6127C69.5836 83.9995 70.3705 83.2126 70.3705 82.2416V71.3428C70.3705 70.3746 69.5809 69.585 68.6127 69.585Z" fill="#BDBDBD"/>
<path fill-rule="evenodd" clip-rule="evenodd" d="M83.1356 37.719L69.1084 28.1156C69.0681 28.0882 68.5728 27.8689 68.5728 27.8684L54.4513 24.0599C54.134 23.9752 53.8136 23.983 53.5193 24.0667L39.4229 27.8684C39.1982 27.9284 38.9954 28.0296 38.82 28.1619L24.7658 37.7836C24.2371 38.1448 23.9679 38.744 24.0036 39.34L24.0041 82.242C24.0041 83.2088 24.7882 83.9929 25.755 83.9929V83.9998H32.7863C33.7572 83.9998 34.5445 83.2129 34.5445 82.242V50.2485H73.4516V82.242C73.4516 83.2129 74.239 83.9998 75.2094 83.9998H82.2411C83.2121 83.9998 83.9989 83.2129 83.9989 82.242V39.2329C83.9994 38.5883 83.6524 38.0253 83.1356 37.719ZM66.0688 40.9907H41.9269C40.9564 40.9907 40.1691 40.2033 40.1691 39.2329C40.1691 38.262 40.9564 37.4746 41.9269 37.4746H66.0688C67.0397 37.4746 67.8266 38.262 67.8266 39.2329C67.8271 40.2033 67.0397 40.9907 66.0688 40.9907Z" fill="#BDBDBD"/>
</g>
<defs>
<clipPath id="clip0_2238_42354">
<rect width="60" height="60" fill="white" transform="translate(24 24)"/>
</clipPath>
</defs>
</svg>
