<svg width="114" height="39" viewBox="0 0 114 39" fill="none" xmlns="http://www.w3.org/2000/svg">
<path fill-rule="evenodd" clip-rule="evenodd" d="M0 8V17.6008L8.00867 12.8004L0 8Z" fill="#49DDAA"/>
<path fill-rule="evenodd" clip-rule="evenodd" d="M8.09521 24.6245V34.329L-2.28882e-05 29.4768L8.09521 24.6245Z" fill="#49DDAA"/>
<path fill-rule="evenodd" clip-rule="evenodd" d="M8.90479 24.6763V34.3808L17 29.5285L8.90479 24.6763Z" fill="#24B1FF"/>
<path fill-rule="evenodd" clip-rule="evenodd" d="M17 8V17.7045L8.90476 12.8523L17 8Z" fill="#24B1FF"/>
<path fill-rule="evenodd" clip-rule="evenodd" d="M8.09521 13.5586V23.2631L-2.28882e-05 18.4109L8.09521 13.5586Z" fill="#24B1FF"/>
<path d="M31.8496 31L34.457 13.8125H36.8887L39.7305 31H37.8262L37.3379 27.7188H34.2227L33.7734 31H31.8496ZM34.4473 26.0781H37.084L35.7266 16.9961H35.6973L34.4473 26.0781ZM44.8184 31.2051C43.985 31.2051 43.321 31.0033 42.8262 30.5996C42.3314 30.1895 41.9766 29.5905 41.7617 28.8027C41.5469 28.015 41.4395 27.0579 41.4395 25.9316V18.7734C41.4395 18.0182 41.4883 17.3281 41.5859 16.7031C41.6836 16.0716 41.8561 15.528 42.1035 15.0723C42.3574 14.61 42.709 14.2552 43.1582 14.0078C43.6074 13.7539 44.1836 13.627 44.8867 13.627C45.5573 13.627 46.1042 13.7474 46.5273 13.9883C46.9505 14.2227 47.2793 14.5612 47.5137 15.0039C47.748 15.4401 47.9076 15.9609 47.9922 16.5664C48.0833 17.1654 48.1289 17.8294 48.1289 18.5586V20.4629H46.1465V18.5488C46.1465 17.4811 46.0684 16.6836 45.9121 16.1562C45.7624 15.6224 45.4206 15.3555 44.8867 15.3555C44.3203 15.3555 43.9395 15.6289 43.7441 16.1758C43.5553 16.7161 43.4609 17.5039 43.4609 18.5391V25.9805C43.4609 26.8138 43.4967 27.4909 43.5684 28.0117C43.64 28.526 43.7734 28.9004 43.9688 29.1348C44.1706 29.3691 44.457 29.4863 44.8281 29.4863C45.3685 29.4863 45.7233 29.2129 45.8926 28.666C46.0618 28.1191 46.1465 27.2207 46.1465 25.9707V24.0664H48.1484V25.9512C48.1484 27.097 48.0475 28.0605 47.8457 28.8418C47.6504 29.623 47.3118 30.2122 46.8301 30.6094C46.3483 31.0065 45.6777 31.2051 44.8184 31.2051ZM49.6816 31L52.2891 13.8125H54.7207L57.5625 31H55.6582L55.1699 27.7188H52.0547L51.6055 31H49.6816ZM52.2793 26.0781H54.916L53.5586 16.9961H53.5293L52.2793 26.0781ZM59.4668 31V13.8125H63.0703C63.9818 13.8125 64.6556 13.9753 65.0918 14.3008C65.528 14.6198 65.8112 15.1048 65.9414 15.7559C66.0781 16.4004 66.1465 17.2142 66.1465 18.1973C66.1465 19.2585 66.0391 20.1016 65.8242 20.7266C65.6094 21.3516 65.1927 21.7552 64.5742 21.9375C64.8867 21.9896 65.1439 22.123 65.3457 22.3379C65.554 22.5527 65.7168 22.888 65.834 23.3438C65.9512 23.7995 66.0326 24.4115 66.0781 25.1797C66.1302 25.9414 66.1562 26.9017 66.1562 28.0605C66.1562 28.1712 66.1562 28.3307 66.1562 28.5391C66.1562 28.7474 66.1595 28.9753 66.166 29.2227C66.1725 29.4701 66.179 29.7142 66.1855 29.9551C66.1986 30.196 66.2148 30.4108 66.2344 30.5996C66.2539 30.7819 66.2799 30.9154 66.3125 31H64.3008C64.2747 30.9414 64.252 30.8112 64.2324 30.6094C64.2129 30.4076 64.1966 30.1406 64.1836 29.8086C64.1706 29.4766 64.1608 29.0827 64.1543 28.627C64.1478 28.1647 64.1445 27.6504 64.1445 27.084C64.1445 26.5111 64.1445 25.8861 64.1445 25.209C64.1445 24.5579 64.1152 24.0632 64.0566 23.7246C64.0046 23.3796 63.8743 23.1419 63.666 23.0117C63.4642 22.875 63.1387 22.7936 62.6895 22.7676L61.4883 22.6992V31H59.4668ZM61.4883 21.2148H62.7773C63.1484 21.2148 63.4316 21.1432 63.627 21C63.8288 20.8503 63.9655 20.5573 64.0371 20.1211C64.1087 19.6784 64.1445 19.0176 64.1445 18.1387V18.0215C64.1445 17.2923 64.1087 16.7422 64.0371 16.3711C63.972 15.9935 63.8418 15.7396 63.6465 15.6094C63.4512 15.4792 63.1549 15.4141 62.7578 15.4141H61.4883V21.2148ZM71.5469 31.166C70.5508 31.166 69.7858 30.7559 69.252 29.9355C68.7181 29.1152 68.4512 27.7643 68.4512 25.8828V18.6758C68.4512 17.9206 68.5033 17.237 68.6074 16.625C68.7181 16.0065 68.9036 15.4727 69.1641 15.0234C69.4245 14.5742 69.7793 14.2292 70.2285 13.9883C70.6842 13.7474 71.2572 13.627 71.9473 13.627C72.6634 13.627 73.2331 13.7507 73.6562 13.998C74.0859 14.2389 74.4115 14.584 74.6328 15.0332C74.8542 15.4824 75.0007 16.0195 75.0723 16.6445C75.1439 17.2695 75.1797 17.9596 75.1797 18.7148V20.043H73.2266V17.8066C73.2266 16.9733 73.1419 16.3581 72.9727 15.9609C72.8099 15.5573 72.4681 15.3555 71.9473 15.3555C71.3939 15.3555 71.0098 15.5931 70.7949 16.0684C70.5801 16.5436 70.4727 17.3835 70.4727 18.5879V25.8145C70.4727 27.1296 70.5605 28.0703 70.7363 28.6367C70.9186 29.2031 71.3027 29.4863 71.8887 29.4863C72.4486 29.4863 72.8262 29.2031 73.0215 28.6367C73.2233 28.0638 73.3242 27.11 73.3242 25.7754V23.5391H71.9277V21.9766H75.1797V31H74.1152L73.8418 29.6719C73.6595 30.1536 73.3698 30.5247 72.9727 30.7852C72.582 31.0391 72.1068 31.166 71.5469 31.166ZM81.0488 31.1953C80.1895 31.1953 79.5091 31.0065 79.0078 30.6289C78.513 30.2513 78.1582 29.6816 77.9434 28.9199C77.735 28.1582 77.6309 27.2044 77.6309 26.0586V18.4805C77.6309 17.4909 77.7285 16.6315 77.9238 15.9023C78.1191 15.1732 78.4674 14.6068 78.9688 14.2031C79.4701 13.7995 80.1797 13.5977 81.0977 13.5977C81.7878 13.5977 82.3509 13.7148 82.7871 13.9492C83.2233 14.1771 83.5586 14.5059 83.793 14.9355C84.0339 15.3587 84.1999 15.8698 84.291 16.4688C84.3822 17.0677 84.4277 17.7383 84.4277 18.4805V26.0586C84.4277 27.2044 84.3236 28.1582 84.1152 28.9199C83.9134 29.6816 83.5651 30.2513 83.0703 30.6289C82.582 31.0065 81.9082 31.1953 81.0488 31.1953ZM81.0488 29.457C81.4199 29.457 81.7031 29.3529 81.8984 29.1445C82.0938 28.9297 82.2272 28.5749 82.2988 28.0801C82.3704 27.5853 82.4062 26.918 82.4062 26.0781V18.3633C82.4062 17.3346 82.3249 16.5729 82.1621 16.0781C81.9993 15.5833 81.6445 15.3359 81.0977 15.3359C80.5312 15.3359 80.1471 15.5833 79.9453 16.0781C79.75 16.5664 79.6523 17.3249 79.6523 18.3535V26.0781C79.6523 26.9245 79.6882 27.5951 79.7598 28.0898C79.8314 28.5781 79.9681 28.9297 80.1699 29.1445C80.3717 29.3529 80.6647 29.457 81.0488 29.457Z" fill="white"/>
</svg>
