<svg width="108" height="108" viewBox="0 0 108 108" fill="none" xmlns="http://www.w3.org/2000/svg">
<rect width="108" height="108" fill="#B1B1B1" fill-opacity="0.1"/>
<path d="M63.0579 57.9463H62.3174V56.7801C62.3174 56.4873 62.0411 56.25 61.7003 56.25C61.3595 56.25 61.0832 56.4873 61.0832 56.7801V57.9463H60.2603V63H63.0579C63.3987 63 63.675 62.7627 63.675 62.4699V58.4764C63.675 58.1837 63.3987 57.9463 63.0579 57.9463Z" fill="#696969"/>
<path d="M47.7397 57.9463H46.9169V56.7801C46.9169 56.4873 46.6405 56.25 46.2997 56.25C45.9589 56.25 45.6826 56.4873 45.6826 56.7801V57.9463H44.9421C44.6013 57.9463 44.325 58.1837 44.325 58.4764V62.4699C44.325 62.7627 44.6013 63 44.9421 63H47.7397V57.9463Z" fill="#696969"/>
<path fill-rule="evenodd" clip-rule="evenodd" d="M51.4568 63H48.8779V45.5273C48.8779 45.2361 49.1185 45 49.4152 45H58.5847C58.8815 45 59.122 45.2361 59.122 45.5273V63H56.5431V60.1875C56.5431 59.8963 56.3025 59.6602 56.0058 59.6602H51.9941C51.6974 59.6602 51.4568 59.8963 51.4568 60.1875V63ZM51.9941 57.3398H52.5672C52.8639 57.3398 53.1045 57.1037 53.1045 56.8125C53.1045 56.5213 52.8639 56.2852 52.5672 56.2852H51.9941C51.6974 56.2852 51.4568 56.5213 51.4568 56.8125C51.4568 57.1037 51.6974 57.3398 51.9941 57.3398ZM52.5672 55.0898H51.9941C51.6974 55.0898 51.4568 54.8537 51.4568 54.5625C51.4568 54.2713 51.6974 54.0352 51.9941 54.0352H52.5672C52.8639 54.0352 53.1045 54.2713 53.1045 54.5625C53.1045 54.8537 52.8639 55.0898 52.5672 55.0898ZM51.9941 52.8398H52.5672C52.8639 52.8398 53.1045 52.6037 53.1045 52.3125C53.1045 52.0213 52.8639 51.7852 52.5672 51.7852H51.9941C51.6974 51.7852 51.4568 52.0213 51.4568 52.3125C51.4568 52.6037 51.6974 52.8398 51.9941 52.8398ZM52.5672 50.5898H51.9941C51.6974 50.5898 51.4568 50.3537 51.4568 50.0625C51.4568 49.7713 51.6974 49.5352 51.9941 49.5352H52.5672C52.8639 49.5352 53.1045 49.7713 53.1045 50.0625C53.1045 50.3537 52.8639 50.5898 52.5672 50.5898ZM55.4326 57.3398H56.0057C56.3025 57.3398 56.543 57.1037 56.543 56.8125C56.543 56.5213 56.3025 56.2852 56.0057 56.2852H55.4326C55.1359 56.2852 54.8954 56.5213 54.8954 56.8125C54.8954 57.1037 55.1359 57.3398 55.4326 57.3398ZM56.0057 55.0898H55.4326C55.1359 55.0898 54.8954 54.8537 54.8954 54.5625C54.8954 54.2713 55.1359 54.0352 55.4326 54.0352H56.0057C56.3025 54.0352 56.543 54.2713 56.543 54.5625C56.543 54.8537 56.3025 55.0898 56.0057 55.0898ZM55.4326 52.8398H56.0057C56.3025 52.8398 56.543 52.6037 56.543 52.3125C56.543 52.0213 56.3025 51.7852 56.0057 51.7852H55.4326C55.1359 51.7852 54.8954 52.0213 54.8954 52.3125C54.8954 52.6037 55.1359 52.8398 55.4326 52.8398ZM56.0057 50.5898H55.4326C55.1359 50.5898 54.8954 50.3537 54.8954 50.0625C54.8954 49.7713 55.1359 49.5352 55.4326 49.5352H56.0057C56.3025 49.5352 56.543 49.7713 56.543 50.0625C56.543 50.3537 56.3025 50.5898 56.0057 50.5898ZM56.2925 47.2852H51.7077C51.411 47.2852 51.1704 47.5213 51.1704 47.8125C51.1704 48.1037 51.411 48.3398 51.7077 48.3398H56.2925C56.5892 48.3398 56.8297 48.1037 56.8297 47.8125C56.8297 47.5213 56.5892 47.2852 56.2925 47.2852Z" fill="#696969"/>
<path d="M52.2926 63H55.7074V60.75H52.2926V63Z" fill="#696969"/>
</svg>
