<svg width="72" height="18" viewBox="0 0 72 18" fill="none" xmlns="http://www.w3.org/2000/svg">
<path d="M22.6504 12.4631V5.53894H24.4997L26.8412 10.6752L29.1493 5.53907H30.9191V12.4631H29.3952V8.49975L27.6359 12.4631H26.0115L24.2311 8.52028V12.4631H22.6504ZM33.4058 12.4631H31.6128L34.6934 5.53894H36.9018L40.004 12.4631H38.2337L37.6233 11.0782L33.9974 11.089L33.4058 12.4631ZM37.052 9.78286L35.7919 6.92293L34.5602 9.78286H37.052ZM40.732 12.4631V5.53894H47.3675V6.92306H42.3346V8.30905H46.6496V9.68291H42.3346V11.0792H47.3675V12.4631H40.732Z" fill="black"/>
<path d="M48.6543 12.4629V5.53869H54.3348C54.3348 5.53869 54.7007 5.49748 55.0872 5.87229C55.4335 6.20754 55.3761 6.69963 55.3761 6.69963V9.02623C55.3761 9.02623 55.4444 9.45354 55.0353 9.81912C54.6404 10.1716 54.066 10.0951 54.066 10.0951L55.388 12.4629H53.6516L52.3399 10.0951H50.2795V12.4629H48.6543ZM50.2797 8.71067H53.7637V6.92313H50.2797V8.71067ZM58.298 12.4629H57.7479C57.7479 12.4629 57.265 12.4537 56.9908 12.1654C56.6735 11.8302 56.6844 11.4465 56.6844 11.4465V10.5419H58.298V11.0791H61.7263V9.68216H57.7919C57.7919 9.68216 57.3069 9.73116 57.0081 9.42504C56.6759 9.0861 56.7119 8.67745 56.7119 8.67745V6.60019C56.7119 6.60019 56.7049 6.251 56.9408 5.94078C57.28 5.49461 57.8034 5.5391 57.8034 5.5391L62.2983 5.54238C62.2983 5.54238 62.665 5.51655 63.0239 5.86327C63.4173 6.24157 63.3264 6.64468 63.3264 6.64468V7.4712H61.7247V6.92354H58.2964V8.30879H62.2174C62.2174 8.30879 62.6775 8.27516 63.0012 8.64383C63.3264 9.0127 63.3264 9.42524 63.3264 9.42524V11.3799C63.3264 11.3799 63.379 11.7635 63.071 12.1119C62.7215 12.5088 62.2514 12.4633 62.2514 12.4633H58.2966" fill="black"/>
<path d="M64.8633 12.4609V5.53467H66.5087V8.30464L69.6451 5.53467H71.8765L68.1355 8.75176L72.0102 12.4609H69.7027L66.5087 9.30935V12.4609H64.8633Z" fill="black"/>
<path d="M14.395 1.00722C15.5088 1.00256 16.2264 1.90492 16.2299 2.83406L16.2332 15.1661C16.2279 16.165 15.4352 16.9968 14.3866 16.9999H2.83536C1.75994 16.9979 1 16.1163 1 15.1592L1.00053 2.83406C0.999733 1.80483 1.87103 0.994695 2.84017 1.00003L14.3954 1.00722" fill="#4DC7E4"/>
<path d="M14.395 1.00719C15.5088 1.00261 16.2264 1.90488 16.2298 2.83412L16.2332 15.1662C16.2279 16.1651 15.435 16.9969 14.3866 17H2.83521C1.75981 16.998 1 16.1164 1 15.1592L1.0004 2.83412C0.999601 1.80489 1.87089 0.994752 2.8401 1.00003L14.3955 1.00719H14.395Z" stroke="white" stroke-width="1.59024"/>
<path d="M9.72666 6.79283L14.0061 4.77969C14.0234 4.77076 14.0329 4.79688 14.0457 4.80101L11.0865 8.4892L15.4096 10.5722C15.4315 10.585 15.4532 10.6024 15.4235 10.6239L10.6762 10.6285L11.7619 15.331L11.7314 15.3577L8.62665 11.575H8.58708L5.51416 15.3628C5.49678 15.3761 5.48796 15.3761 5.47045 15.363L6.54092 10.6437L1.8028 10.6312C1.78516 10.6179 1.78516 10.605 1.78516 10.5918L6.09297 8.52438L6.12291 8.49413L3.15386 4.8114C3.14517 4.78982 3.16254 4.78075 3.17591 4.76343L7.45966 6.77671L8.58107 2.19629H8.61141L9.72532 6.7927" fill="white"/>
</svg>
