<svg width="108" height="108" viewBox="0 0 108 108" fill="none" xmlns="http://www.w3.org/2000/svg">
<g clip-path="url(#clip0_2318_47958)">
<path d="M49.9125 54.5094V44.634H41.673V39.957H38.1574V44.634H29.918V54.5094L39.9152 50.1617L49.9125 54.5094Z" fill="#BDBDBD"/>
<path d="M41.6729 66.5371C44.0125 66.2847 46.3894 66.4103 48.6877 66.9168C49.5104 67.1125 50.3119 67.2625 51.1006 67.3703L52.3885 59.4203L41.6729 54.7598V66.5371Z" fill="#BDBDBD"/>
<path d="M30.9083 67.3961C33.2896 67.9183 35.8043 67.7711 38.1575 67.1746V54.7598L27.4419 59.4203L28.6548 66.9062L30.9083 67.3961Z" fill="#BDBDBD"/>
<path d="M67.8504 70.3369C65.9355 69.9186 63.9316 69.8178 61.9734 70.0346C57.2047 71.0109 52.6642 71.4637 47.8676 70.3346C45.2789 69.7709 42.5273 69.7885 39.9246 70.3861C34.9154 71.6066 30.445 70.8955 25.5668 69.8318L24 69.492V83.9998H84V69.0889C82.5187 69.9373 80.4844 70.2561 80.4844 70.2561C76.2032 71.296 72.1304 71.371 67.8504 70.3369Z" fill="#BDBDBD"/>
<path d="M48.0361 24V37.6266H51.5518V27.5156H69.4709V51.4617H61.9732V44.4527H58.4576V66.9094L58.8115 66.8871L61.9732 66.6891V62.0086H80.4842V66.6809C81.417 66.416 82.9346 65.952 83.9998 65.4621V24H48.0361ZM72.9865 32.9016L78.301 39.5332L72.9865 46.732V32.9016ZM80.4842 58.493H61.9732V54.9773H80.4842V58.493ZM80.4842 51.4617H73.8643L80.4842 42.4945V51.4617ZM80.4842 36.6352L73.1764 27.5156H80.4842V36.6352Z" fill="#BDBDBD"/>
</g>
<defs>
<clipPath id="clip0_2318_47958">
<rect width="60" height="60" fill="white" transform="translate(24 24)"/>
</clipPath>
</defs>
</svg>
