<svg width="52" height="34" viewBox="0 0 52 34" fill="none" xmlns="http://www.w3.org/2000/svg">
<path d="M51.8168 5.21769V0H43.7671V0.795231H8.23328V0H0.183594V5.21769H1.23037V28.7906H0.183594V34.0002H8.23328V33.0589H43.7671V34.0002H51.8168V28.7825H50.6321V5.21769H51.8168ZM24.2596 24.6765H21.7522V28.4904H16.356V24.6765H5.65283V19.9132L11.7794 6.26447H21.7522V19.9132H24.2596V24.6765ZM43.4669 26.7944C41.5518 28.1658 39.2311 28.8474 36.4964 28.8474C33.7375 28.8474 31.4816 28.2713 29.737 27.1271C27.9923 25.983 26.9699 24.4331 26.6615 22.4856L33.3155 21.0655C33.5103 22.7696 34.5652 23.6135 36.4964 23.6135C37.4459 23.6135 38.2005 23.4431 38.7604 23.0942C39.3203 22.7452 39.5962 22.3395 39.5962 21.8607C39.5962 21.3576 39.2879 20.9681 38.6793 20.6922C38.0707 20.4082 37.2998 20.2297 36.3991 20.1486C35.4902 20.0674 34.5084 19.897 33.4453 19.6455C32.3823 19.3939 31.4005 19.0855 30.4916 18.7285C29.5909 18.3633 28.82 17.7223 28.2114 16.8053C27.6028 15.8803 27.2945 14.7199 27.2945 13.3242C27.2945 11.3199 28.179 9.63203 29.9561 8.28501C31.7251 6.92987 33.9079 6.25636 36.5046 6.25636C39.1499 6.25636 41.3409 6.82438 43.0774 7.96854C44.8058 9.1127 45.8282 10.6626 46.1285 12.6182L39.4745 14.0383C39.2798 12.3342 38.2898 11.4822 36.5046 11.4822C35.8067 11.4822 35.2224 11.6282 34.7437 11.9285C34.2649 12.2206 34.0296 12.5857 34.0296 13.0321C34.0296 13.5676 34.338 13.9815 34.9465 14.2898C35.5633 14.5982 36.326 14.801 37.2268 14.8903C38.1356 14.9877 39.1175 15.1662 40.1805 15.4096C41.2435 15.6612 42.2172 15.9777 43.1342 16.3509C44.0349 16.7242 44.8058 17.3815 45.4144 18.2984C46.023 19.2235 46.3313 20.3758 46.3313 21.7715C46.3313 23.7596 45.3738 25.4312 43.4669 26.7944ZM16.3641 19.9051V7.87117L10.9273 19.9051H16.3641Z" fill="#F54617"/>
</svg>
