<svg xmlns="http://www.w3.org/2000/svg" width="71" height="18" viewBox="0 0 71 18">
    <g fill="none" fill-rule="evenodd">
        <g fill="#B7BCD6">
            <path d="M34.948 15.469L35.473 15.469 35.473 11.357 34.948 11.357zM24.762 15.469L25.286 15.469 25.286 11.357 24.762 11.357z" transform="translate(-927.000000, -1119.000000) translate(303.000000, 332.000000) translate(0.000000, 105.000000) translate(33.000000, 359.000000) translate(30.000000, 1.000000) translate(0.000000, 271.000000) translate(524.000000, 28.000000) translate(37.000000, 23.000000)"/>
            <path d="M23.75 15.934L36.561 15.934 36.561 14.848 23.75 14.848zM23.75 13.999L36.561 13.999 36.561 12.913 23.75 12.913zM2.976 11.684L58.638 11.684 58.638 10.738 2.976 10.738z" transform="translate(-927.000000, -1119.000000) translate(303.000000, 332.000000) translate(0.000000, 105.000000) translate(33.000000, 359.000000) translate(30.000000, 1.000000) translate(0.000000, 271.000000) translate(524.000000, 28.000000) translate(37.000000, 23.000000)"/>
            <path d="M2.714 11.948H58.9v-1.474H2.714v1.474zm.525-.527h55.137v-.42H3.239v.42z" transform="translate(-927.000000, -1119.000000) translate(303.000000, 332.000000) translate(0.000000, 105.000000) translate(33.000000, 359.000000) translate(30.000000, 1.000000) translate(0.000000, 271.000000) translate(524.000000, 28.000000) translate(37.000000, 23.000000)"/>
            <path d="M55.027 11.002H2.834l1.85-9.78h51.042V0h2.429l-.03 3.12-3.098 6.004v1.878zm-51.558-.528h51.034l.029-1.535 3.098-6.004V.528h-1.38V1.75H5.12l-1.65 8.724z" transform="translate(-927.000000, -1119.000000) translate(303.000000, 332.000000) translate(0.000000, 105.000000) translate(33.000000, 359.000000) translate(30.000000, 1.000000) translate(0.000000, 271.000000) translate(524.000000, 28.000000) translate(37.000000, 23.000000)"/>
            <path d="M3.469 9.236h51.296v-.351H3.47v.35zm1.146-6.062h53.277v-.351H4.615v.351z" transform="translate(-927.000000, -1119.000000) translate(303.000000, 332.000000) translate(0.000000, 105.000000) translate(33.000000, 359.000000) translate(30.000000, 1.000000) translate(0.000000, 271.000000) translate(524.000000, 28.000000) translate(37.000000, 23.000000)"/>
            <path d="M51.57 3h.35V1.485h-.35v1.513zm-6.145 0h.349V1.485h-.35v1.513zm-6.147 0h.35V1.485h-.35v1.513zM33.13 3h.35V1.485h-.35v1.513zm-6.146 0h.35V1.485h-.35v1.513zm-6.147 0h.35V1.485h-.35v1.513zM14.69 3h.349V1.485h-.35v1.513zM8.543 3h.35V1.485h-.35v1.513zM3.239 13.642H0V7.111l4.379-2.375-1.144 6.051.004 2.855zm-2.715-.527h2.19v-2.377l.943-5.01L.524 7.425v5.689zM52.729 11.629h-3.974c-1.223 0-1.52.466-1.52.468l.437.293c0-.001.134-.218.99-.233v.807h3.127v-.808h.94v-.527M68.968 16h-2.086l-.076-.069c-.12-.113-.238-.21-.354-.294l.31-.427c.106.078.214.165.324.264H68.9l1.401-.378v-1.96l-.463-1.345h.463V9.299c0-.932-.606-2.909-1.048-4.351-.145-.474-.276-.9-.369-1.236-.176-.63-1.22-.978-2.94-.978h-3.81v8.232h-.524v-8.76h4.334c2.034 0 3.193.46 3.445 1.364.093.331.222.754.365 1.222.478 1.557 1.072 3.495 1.072 4.507v3.02h-.251l.25.774V15.5l-1.856.5" transform="translate(-927.000000, -1119.000000) translate(303.000000, 332.000000) translate(0.000000, 105.000000) translate(33.000000, 359.000000) translate(30.000000, 1.000000) translate(0.000000, 271.000000) translate(524.000000, 28.000000) translate(37.000000, 23.000000)"/>
            <path d="M70.487 8.552c-.22-1.307-.867-3.271-1.234-4.506h-.624l.907 4.268s.446.05.95.238M61.075 15.738v-1.441c0-1.376 1.12-2.502 2.49-2.502h.465c1.625 0 2.954 1.336 2.954 2.97v.973h-.472c-.108.538-.374 1.019-.746 1.392v.002c-.494.496-1.177.804-1.931.804s-1.437-.308-1.932-.805c-.373-.374-.637-.855-.746-1.393h-.082zm2.76-1.885c-.735 0-1.33.598-1.33 1.336 0 .739.595 1.337 1.33 1.337.734 0 1.33-.598 1.33-1.337 0-.738-.596-1.336-1.33-1.336z" transform="translate(-927.000000, -1119.000000) translate(303.000000, 332.000000) translate(0.000000, 105.000000) translate(33.000000, 359.000000) translate(30.000000, 1.000000) translate(0.000000, 271.000000) translate(524.000000, 28.000000) translate(37.000000, 23.000000)"/>
            <path d="M67.833 15.913H66.81v-1.148c0-1.54-1.247-2.794-2.78-2.794h-.465c-1.276 0-2.314 1.044-2.314 2.326v1.616h-1.162v-2.201c0-1.707 1.546-3.26 3.244-3.26h.54c2.035 0 3.96 1.848 3.96 3.803v1.658zm-.673-.352h.323v-1.306c0-1.742-1.788-3.453-3.61-3.453h-.54c-1.488 0-2.894 1.414-2.894 2.91v1.85h.462v-1.265c0-1.476 1.195-2.678 2.664-2.678h.465c1.725 0 3.13 1.411 3.13 3.146v.796z" transform="translate(-927.000000, -1119.000000) translate(303.000000, 332.000000) translate(0.000000, 105.000000) translate(33.000000, 359.000000) translate(30.000000, 1.000000) translate(0.000000, 271.000000) translate(524.000000, 28.000000) translate(37.000000, 23.000000)"/>
            <path d="M63.835 14.459c-.402 0-.727.327-.727.73 0 .404.325.731.727.731.4 0 .726-.327.726-.73 0-.404-.325-.731-.726-.731M65.227 2.47c-1.426-.821-2.336-1.045-3.683-1.082-.28-.008-.519.208-.538.49L60.48 9.47v3.743c.152-.903.704-1.72 1.46-2.183l-.07-.064V2.47h3.356M69.54 14.913L70.562 14.913 70.562 13.093 69.54 13.093z" transform="translate(-927.000000, -1119.000000) translate(303.000000, 332.000000) translate(0.000000, 105.000000) translate(33.000000, 359.000000) translate(30.000000, 1.000000) translate(0.000000, 271.000000) translate(524.000000, 28.000000) translate(37.000000, 23.000000)"/>
            <path d="M67.649 14.06L69.888 14.06 69.888 13.709 67.649 13.709zM64.447 9.871L65.585 9.871 65.585 9.52 64.447 9.52zM67.649 14.913L69.887 14.913 69.887 14.561 67.649 14.561zM60.77 12.326H40.414v1.824h4.912c.228-.186.519-.297.835-.297.317 0 .608.11.836.297H60.44v-.438c0-.486.12-.96.33-1.386" transform="translate(-927.000000, -1119.000000) translate(303.000000, 332.000000) translate(0.000000, 105.000000) translate(33.000000, 359.000000) translate(30.000000, 1.000000) translate(0.000000, 271.000000) translate(524.000000, 28.000000) translate(37.000000, 23.000000)"/>
            <path d="M48.88 15.453c-.062.653-.35 1.24-.786 1.677v.002c-.495.496-1.178.804-1.933.804-.753 0-1.437-.308-1.931-.805-.437-.438-.726-1.025-.788-1.678h-.618v-.264c0-.964.298-1.837.912-2.454l.001-.002c.232-.233.508-.428.828-.577h3.193c.32.149.597.344.829.577v.002c.613.616.912 1.49.912 2.454v.264h-.618zm-2.719-1.6c-.734 0-1.33.598-1.33 1.336 0 .739.596 1.337 1.33 1.337.735 0 1.33-.598 1.33-1.337 0-.738-.595-1.336-1.33-1.336z" transform="translate(-927.000000, -1119.000000) translate(303.000000, 332.000000) translate(0.000000, 105.000000) translate(33.000000, 359.000000) translate(30.000000, 1.000000) translate(0.000000, 271.000000) translate(524.000000, 28.000000) translate(37.000000, 23.000000)"/>
            <path d="M46.161 14.459c-.4 0-.726.327-.726.73 0 .404.325.731.726.731.401 0 .727-.327.727-.73 0-.404-.326-.731-.727-.731M54.933 13.51h-4.766v1.489c0 .29.236.528.525.528h3.716c.29 0 .525-.238.525-.528v-.27h.374c-.002.017-.002.035-.002.051 0 .389.313.704.7.704.286 0 .534-.175.641-.424h.848c.107.25.354.424.642.424.387 0 .7-.315.7-.704l-.002-.05h.23v.742h1.38V13.53h-1.38v.335h-4.131v-.357M40.004 14.378L39.396 14.378 39.396 15.939 40.004 15.939 40.004 15.508 41.172 14.722 43.062 14.722 43.062 13.563 40.815 13.563 40.815 14.07 40.795 14.072 40.004 14.779 40.004 14.378M69.895 11.232L70.562 11.232 70.562 9.486 69.895 9.486zM41.919 12.814L45.99 12.814 45.99 12.156 41.919 12.156zM67.64 4.505H64.54v2.442c0 .26.183.478.438.52l3.645.62-.087-.543c-.084.06-.187.095-.298.095h-.144c-.285 0-.518-.234-.518-.52v-2.36c0-.093.024-.18.066-.254zm.597-.004c.14 0 .256.116.256.257v2.36c0 .142-.115.258-.256.258h-.144c-.14 0-.255-.116-.255-.257v-2.36c0-.142.115-.258.255-.258h.144zM4.198 11.684v2.346h.294l-.703.629v-.401H3.18v1.562h.608v-.432l1.167-.786h1.89v-.572H9.08c.228-.186.52-.297.836-.297.316 0 .607.11.835.297h4.478c.229-.186.52-.297.836-.297.317 0 .608.11.836.297h4.548v-2.346H4.199" transform="translate(-927.000000, -1119.000000) translate(303.000000, 332.000000) translate(0.000000, 105.000000) translate(33.000000, 359.000000) translate(30.000000, 1.000000) translate(0.000000, 271.000000) translate(524.000000, 28.000000) translate(37.000000, 23.000000)"/>
            <path d="M12.99 13.616c.151-.377.367-.716.65-1.001v-.001c.233-.234.51-.43.83-.578h3.192c.32.149.597.344.829.578.613.617.912 1.49.912 2.456v.264h-.618c-.063.652-.352 1.238-.788 1.677-.494.497-1.177.805-1.932.805-.754 0-1.437-.308-1.932-.804-.436-.439-.725-1.026-.787-1.678h-.711c-.062.652-.351 1.238-.787 1.677-.495.497-1.178.805-1.932.805-.755 0-1.438-.308-1.933-.804-.435-.439-.725-1.026-.787-1.678h-.618v-.264c0-.965.3-1.838.912-2.455l.001-.001c.233-.234.509-.43.829-.578h3.193c.32.149.596.344.828.578.283.285.499.625.65 1.002zm-3.074.117c-.735 0-1.33.598-1.33 1.337 0 .738.595 1.336 1.33 1.336.734 0 1.33-.598 1.33-1.336 0-.739-.596-1.337-1.33-1.337zm6.15 0c-.735 0-1.33.598-1.33 1.337 0 .738.595 1.336 1.33 1.336.734 0 1.329-.598 1.329-1.336 0-.739-.595-1.337-1.33-1.337z" transform="translate(-927.000000, -1119.000000) translate(303.000000, 332.000000) translate(0.000000, 105.000000) translate(33.000000, 359.000000) translate(30.000000, 1.000000) translate(0.000000, 271.000000) translate(524.000000, 28.000000) translate(37.000000, 23.000000)"/>
            <path d="M16.065 14.34c-.4 0-.726.326-.726.73 0 .403.325.73.726.73.401 0 .727-.327.727-.73 0-.404-.326-.73-.727-.73M9.916 14.34c-.401 0-.727.326-.727.73 0 .403.326.73.727.73.4 0 .726-.327.726-.73 0-.404-.325-.73-.726-.73" transform="translate(-927.000000, -1119.000000) translate(303.000000, 332.000000) translate(0.000000, 105.000000) translate(33.000000, 359.000000) translate(30.000000, 1.000000) translate(0.000000, 271.000000) translate(524.000000, 28.000000) translate(37.000000, 23.000000)"/>
        </g>
    </g>
</svg>
