<svg xmlns="http://www.w3.org/2000/svg" width="70" height="17" viewBox="0 0 70 17">
    <g fill="none" fill-rule="evenodd">
        <g fill="#B7BCD6">
            <path d="M51.34 10.388h-4.023c-1.238 0-1.538.474-1.539.475l.443.297s.136-.22 1.003-.235v.818h3.164v-.82h.952v-.535M33.34 14.405L33.871 14.405 33.871 10.567 33.34 10.567zM23.028 14.405L23.559 14.405 23.559 10.567 23.028 10.567z" transform="translate(-403.000000, -1118.000000) translate(303.000000, 332.000000) translate(0.000000, 105.000000) translate(33.000000, 359.000000) translate(30.000000, 1.000000) translate(0.000000, 271.000000) translate(0.000000, 27.000000) translate(37.000000, 23.000000)"/>
            <path d="M22.004 14.878L34.973 14.878 34.973 13.776 22.004 13.776zM22.004 12.915L34.973 12.915 34.973 11.813 22.004 11.813zM0 10.834h57.587v-4.55H0v4.55zm.531-.535h56.525v-3.48H.531v3.48z" transform="translate(-403.000000, -1118.000000) translate(303.000000, 332.000000) translate(0.000000, 105.000000) translate(33.000000, 359.000000) translate(30.000000, 1.000000) translate(0.000000, 271.000000) translate(0.000000, 27.000000) translate(37.000000, 23.000000)"/>
            <path d="M53.565 9.601h.354V7.517h-.354v2.084zm-8.316 0h.353V7.517h-.353v2.084zm-8.316 0h.354V7.517h-.354v2.084zm-8.317 0h.354V7.517h-.354v2.084zm-8.315 0h.353V7.517h-.353v2.084zm-8.317 0h.354V7.517h-.354v2.084zm-8.316 0h.353V7.517h-.353v2.084zM67.779 14.824h-2.112l-.076-.071c-.123-.115-.242-.213-.358-.298l.313-.434c.107.08.216.168.328.268h1.835l1.42-.383v-1.988l-.47-1.365h.47V8.025c0-.945-.615-2.95-1.063-4.414-.146-.48-.279-.913-.373-1.253-.178-.64-1.235-.992-2.976-.992H60.86v8.35h-.532V.831h4.388c2.06 0 3.232.465 3.487 1.383.094.336.225.764.37 1.24.484 1.579 1.085 3.545 1.085 4.57v3.065h-.254l.254.785v2.443l-1.88.507" transform="translate(-403.000000, -1118.000000) translate(303.000000, 332.000000) translate(0.000000, 105.000000) translate(33.000000, 359.000000) translate(30.000000, 1.000000) translate(0.000000, 271.000000) translate(0.000000, 27.000000) translate(37.000000, 23.000000)"/>
            <path d="M69.317 7.268c-.223-1.327-.878-3.319-1.25-4.571h-.63l.917 4.329s.452.051.963.242M59.79 14.557v-1.461c0-1.397 1.133-2.539 2.52-2.539h.47c1.646 0 2.991 1.356 2.991 3.013v.987h-.478c-.11.545-.379 1.033-.755 1.412v.002c-.5.503-1.192.816-1.955.816-.763 0-1.455-.313-1.956-.817-.377-.379-.645-.867-.755-1.413h-.083zm2.793-1.913c-.744 0-1.347.607-1.347 1.357 0 .748.603 1.355 1.347 1.355.743 0 1.346-.607 1.346-1.355 0-.75-.603-1.357-1.346-1.357z" transform="translate(-403.000000, -1118.000000) translate(303.000000, 332.000000) translate(0.000000, 105.000000) translate(33.000000, 359.000000) translate(30.000000, 1.000000) translate(0.000000, 271.000000) translate(0.000000, 27.000000) translate(37.000000, 23.000000)"/>
            <path d="M66.63 14.735h-1.036V13.57c0-1.563-1.262-2.835-2.814-2.835h-.471c-1.291 0-2.343 1.06-2.343 2.36v1.64h-1.175V12.5c0-1.73 1.565-3.307 3.283-3.307h.547c2.06 0 4.009 1.876 4.009 3.859v1.682zm-.681-.357h.327v-1.325c0-1.767-1.81-3.502-3.655-3.502h-.547c-1.506 0-2.929 1.434-2.929 2.95v1.877h.467v-1.282c0-1.498 1.21-2.717 2.697-2.717h.471c1.747 0 3.169 1.432 3.169 3.191v.808z" transform="translate(-403.000000, -1118.000000) translate(303.000000, 332.000000) translate(0.000000, 105.000000) translate(33.000000, 359.000000) translate(30.000000, 1.000000) translate(0.000000, 271.000000) translate(0.000000, 27.000000) translate(37.000000, 23.000000)"/>
            <path d="M62.583 13.26c-.407 0-.736.331-.736.74 0 .41.33.742.736.742.406 0 .735-.332.735-.741 0-.41-.33-.741-.735-.741M63.992 1.098C62.55.265 61.629.038 60.264 0c-.285-.007-.525.212-.545.498l-.532 7.7v3.798c.154-.916.713-1.744 1.478-2.215l-.07-.065V1.098h3.398M68.359 13.72L69.393 13.72 69.393 11.874 68.359 11.874zM63.203 8.605L64.355 8.605 64.355 8.249 63.203 8.249z" transform="translate(-403.000000, -1118.000000) translate(303.000000, 332.000000) translate(0.000000, 105.000000) translate(33.000000, 359.000000) translate(30.000000, 1.000000) translate(0.000000, 271.000000) translate(0.000000, 27.000000) translate(37.000000, 23.000000)"/>
            <path d="M66.444 13.72L68.71 13.72 68.71 13.363 66.444 13.363zM59.48 11.096H38.874v1.85h4.972c.23-.189.525-.302.845-.302.32 0 .615.113.846.302h13.608v-.445c0-.492.121-.973.335-1.405" transform="translate(-403.000000, -1118.000000) translate(303.000000, 332.000000) translate(0.000000, 105.000000) translate(33.000000, 359.000000) translate(30.000000, 1.000000) translate(0.000000, 271.000000) translate(0.000000, 27.000000) translate(37.000000, 23.000000)"/>
            <path d="M47.444 14.268c-.063.662-.355 1.257-.797 1.701v.002c-.5.503-1.192.816-1.956.816-.762 0-1.454-.313-1.955-.817-.442-.444-.735-1.04-.797-1.702h-.626v-.267c0-.979.302-1.865.923-2.49v-.001h.002c.234-.238.514-.435.838-.586h3.232c.325.15.604.348.839.585v.001c.62.626.923 1.512.923 2.49v.268h-.626zm-2.753-1.624c-.743 0-1.346.607-1.346 1.357 0 .748.603 1.355 1.346 1.355.744 0 1.346-.607 1.346-1.355 0-.75-.602-1.357-1.346-1.357z" transform="translate(-403.000000, -1118.000000) translate(303.000000, 332.000000) translate(0.000000, 105.000000) translate(33.000000, 359.000000) translate(30.000000, 1.000000) translate(0.000000, 271.000000) translate(0.000000, 27.000000) translate(37.000000, 23.000000)"/>
            <path d="M44.691 13.26c-.405 0-.735.331-.735.74 0 .41.33.742.735.742.406 0 .736-.332.736-.741 0-.41-.33-.741-.736-.741M53.571 12.296h-4.824v1.511c0 .295.239.536.531.536h3.761c.294 0 .532-.241.532-.536v-.273h.378l-.002.052c0 .394.317.713.709.713.29 0 .54-.177.65-.43h.858c.108.253.358.43.65.43.39 0 .708-.32.708-.713 0-.017-.001-.035-.003-.052h.234v.753h1.398v-1.969h-1.398v.34h-4.182v-.362M38.459 13.177L37.843 13.177 37.843 14.761 38.459 14.761 38.459 14.324 39.641 13.527 41.554 13.527 41.554 12.351 39.279 12.351 39.279 12.865 39.259 12.867 38.459 13.584 38.459 13.177M68.718 9.986L69.393 9.986 69.393 8.215 68.718 8.215zM66.436 3.162h-3.14V5.64c0 .263.185.484.443.527l3.69.628-.088-.55c-.085.06-.19.097-.302.097h-.145c-.289 0-.525-.238-.525-.528V3.419c0-.093.025-.181.067-.257zm.603-.004c.143 0 .26.118.26.261v2.395c0 .143-.118.26-.26.26h-.145c-.142 0-.259-.118-.259-.26V3.419c0-.143.117-.26.259-.26h.145zM2.211 10.565v2.38h.297l-.712.638v-.407h-.615v1.583h.615v-.437l1.182-.797h1.914v-.58h2.261c.231-.19.526-.302.846-.302.32 0 .615.113.846.301h4.533c.231-.188.526-.3.846-.3.321 0 .615.112.847.3h4.603v-2.379H2.211" transform="translate(-403.000000, -1118.000000) translate(303.000000, 332.000000) translate(0.000000, 105.000000) translate(33.000000, 359.000000) translate(30.000000, 1.000000) translate(0.000000, 271.000000) translate(0.000000, 27.000000) translate(37.000000, 23.000000)"/>
            <path d="M11.112 12.525c.152-.383.37-.727.657-1.016l.001-.001c.236-.237.515-.435.839-.586h3.232c.325.15.604.35.839.586v.001c.62.625.923 1.511.923 2.49v.268h-.626c-.063.662-.355 1.256-.797 1.701-.5.505-1.192.817-1.956.817-.763 0-1.455-.312-1.955-.816-.442-.445-.735-1.04-.798-1.702h-.72c-.062.662-.355 1.256-.796 1.701-.5.505-1.193.817-1.956.817-.763 0-1.455-.312-1.956-.816-.441-.445-.734-1.04-.797-1.702h-.625v-.268c0-.978.301-1.864.923-2.49l.001-.001c.235-.237.514-.435.839-.586h3.232c.324.15.603.35.838.586v.001c.287.289.505.632.658 1.016zm-3.113.118c-.743 0-1.346.607-1.346 1.356 0 .749.603 1.356 1.346 1.356.744 0 1.346-.607 1.346-1.356 0-.749-.603-1.356-1.346-1.356zm6.225 0c-.743 0-1.346.607-1.346 1.356 0 .749.603 1.356 1.346 1.356.744 0 1.347-.607 1.347-1.356 0-.749-.603-1.356-1.347-1.356z" transform="translate(-403.000000, -1118.000000) translate(303.000000, 332.000000) translate(0.000000, 105.000000) translate(33.000000, 359.000000) translate(30.000000, 1.000000) translate(0.000000, 271.000000) translate(0.000000, 27.000000) translate(37.000000, 23.000000)"/>
            <path d="M14.224 13.258c-.405 0-.735.332-.735.741s.33.74.735.74c.407 0 .736-.331.736-.74s-.33-.74-.736-.74M8 13.258c-.407 0-.736.332-.736.741s.33.74.735.74c.406 0 .735-.331.735-.74s-.329-.74-.735-.74" transform="translate(-403.000000, -1118.000000) translate(303.000000, 332.000000) translate(0.000000, 105.000000) translate(33.000000, 359.000000) translate(30.000000, 1.000000) translate(0.000000, 271.000000) translate(0.000000, 27.000000) translate(37.000000, 23.000000)"/>
        
        </g>
    </g>
</svg>
