<svg xmlns="http://www.w3.org/2000/svg" width="68" height="20" viewBox="0 0 68 20">
    <g fill="none" fill-rule="evenodd">
        <g fill="#B7BCD6">
            <path d="M2.129 13.7L2.129 15.99 2.415 15.99 1.729 16.604 1.729 16.213 1.137 16.213 1.137 17.738 1.729 17.738 1.729 17.316 2.867 16.549 4.711 16.549 4.711 15.99 22.563 15.99 22.563 14.632 34.773 14.632 39.963 13.7 2.129 13.7" transform="translate(-1102.000000, -1119.000000) translate(303.000000, 332.000000) translate(0.000000, 105.000000) translate(33.000000, 359.000000) translate(30.000000, 1.000000) translate(0.000000, 271.000000) translate(698.000000, 28.000000) translate(38.000000, 23.000000)"/>
            <path d="M38.871 17.395L39.382 17.395 39.382 13.7 38.871 13.7zM28.942 17.395L29.454 17.395 29.454 13.7 28.942 13.7z" transform="translate(-1102.000000, -1119.000000) translate(303.000000, 332.000000) translate(0.000000, 105.000000) translate(33.000000, 359.000000) translate(30.000000, 1.000000) translate(0.000000, 271.000000) translate(698.000000, 28.000000) translate(38.000000, 23.000000)"/>
            <path d="M27.956 17.85L40.443 17.85 40.443 16.789 27.956 16.789zM27.956 15.96L40.443 15.96 40.443 14.899 27.956 14.899zM0 13.958h55.446v-1.473H0v1.473zm.51-.515h54.424v-.442H.511v.442z" transform="translate(-1102.000000, -1119.000000) translate(303.000000, 332.000000) translate(0.000000, 105.000000) translate(33.000000, 359.000000) translate(30.000000, 1.000000) translate(0.000000, 271.000000) translate(698.000000, 28.000000) translate(38.000000, 23.000000)"/>
            <path d="M52.426 13H30.194V1.18h.819V.812c0-.448.36-.812.806-.812.444 0 .805.364.805.812v.367h17.372V.812c0-.448.361-.812.807-.812.444 0 .805.364.805.812v.367h.818V13zm-21.72-.515h21.209V1.694h-.818V.812c0-.164-.133-.297-.294-.297-.163 0-.296.133-.296.297v.882H32.113V.812c0-.164-.133-.297-.294-.297-.163 0-.295.133-.295.297v.882h-.819v10.791z" transform="translate(-1102.000000, -1119.000000) translate(303.000000, 332.000000) translate(0.000000, 105.000000) translate(33.000000, 359.000000) translate(30.000000, 1.000000) translate(0.000000, 271.000000) translate(698.000000, 28.000000) translate(38.000000, 23.000000)"/>
            <path d="M50.49 11.635L50.832 11.635 50.832 2.544 50.49 2.544zM48.412 11.635L48.753 11.635 48.753 2.544 48.412 2.544zM46.335 11.635L46.676 11.635 46.676 2.544 46.335 2.544zM44.257 11.635L44.597 11.635 44.597 2.544 44.257 2.544zM42.179 11.635L42.52 11.635 42.52 2.544 42.179 2.544zM40.101 11.635L40.441 11.635 40.441 2.544 40.101 2.544zM38.023 11.635L38.363 11.635 38.363 2.544 38.023 2.544zM35.945 11.635L36.286 11.635 36.286 2.544 35.945 2.544zM33.867 11.635L34.208 11.635 34.208 2.544 33.867 2.544zM31.789 11.635L32.13 11.635 32.13 2.544 31.789 2.544zM25.252 13H3.02V1.18h.819V.812c0-.448.36-.812.805-.812.445 0 .806.364.806.812v.367h17.373V.812c0-.448.36-.812.805-.812.445 0 .806.364.806.812v.367h.818V13zm-21.72-.515H24.74V1.694h-.818V.812c0-.164-.133-.297-.295-.297-.162 0-.294.133-.294.297v.882H4.939V.812c0-.164-.133-.297-.295-.297-.162 0-.294.133-.294.297v.882h-.818v10.791z" transform="translate(-1102.000000, -1119.000000) translate(303.000000, 332.000000) translate(0.000000, 105.000000) translate(33.000000, 359.000000) translate(30.000000, 1.000000) translate(0.000000, 271.000000) translate(698.000000, 28.000000) translate(38.000000, 23.000000)"/>
            <path d="M23.317 11.635L23.657 11.635 23.657 2.544 23.317 2.544zM21.239 11.635L21.579 11.635 21.579 2.544 21.239 2.544zM19.161 11.635L19.502 11.635 19.502 2.544 19.161 2.544zM17.082 11.635L17.423 11.635 17.423 2.544 17.082 2.544zM15.005 11.635L15.345 11.635 15.345 2.544 15.005 2.544zM12.927 11.635L13.267 11.635 13.267 2.544 12.927 2.544zM10.849 11.635L11.189 11.635 11.189 2.544 10.849 2.544zM8.771 11.635L9.111 11.635 9.111 2.544 8.771 2.544zM6.693 11.635L7.033 11.635 7.033 2.544 6.693 2.544zM4.616 11.635L4.957 11.635 4.957 2.544 4.616 2.544zM10.698 17.263h-.346c-.06.637-.342 1.21-.768 1.638-.481.486-1.147.786-1.883.786-.735 0-1.4-.3-1.882-.785-.426-.429-.708-1.001-.768-1.639H4.45v-.258c0-.941.29-1.794.889-2.397.227-.229.496-.42.808-.564h3.112c.313.144.582.335.808.563v.001c.275.278.485.61.632.978v1.677zM7.701 15.7c-.715 0-1.295.584-1.295 1.305s.58 1.305 1.295 1.305c.717 0 1.297-.584 1.297-1.305 0-.72-.58-1.305-1.297-1.305z" transform="translate(-1102.000000, -1119.000000) translate(303.000000, 332.000000) translate(0.000000, 105.000000) translate(33.000000, 359.000000) translate(30.000000, 1.000000) translate(0.000000, 271.000000) translate(698.000000, 28.000000) translate(38.000000, 23.000000)"/>
            <path d="M7.701 16.292c-.39 0-.707.32-.707.713 0 .394.316.713.707.713.392 0 .709-.319.709-.713 0-.393-.317-.713-.709-.713M16.692 17.263h-.346c-.06.637-.343 1.21-.767 1.638-.482.486-1.148.786-1.883.786-.736 0-1.402-.3-1.883-.785-.426-.429-.707-1.001-.768-1.639h-.602v-.258c0-.941.29-1.794.888-2.397h.002c.226-.229.495-.42.807-.564h3.112c.313.144.582.335.807.563v.001c.277.278.487.61.633.978v1.677zM13.696 15.7c-.716 0-1.297.584-1.297 1.305s.581 1.305 1.297 1.305c.715 0 1.296-.584 1.296-1.305 0-.72-.58-1.305-1.296-1.305z" transform="translate(-1102.000000, -1119.000000) translate(303.000000, 332.000000) translate(0.000000, 105.000000) translate(33.000000, 359.000000) translate(30.000000, 1.000000) translate(0.000000, 271.000000) translate(698.000000, 28.000000) translate(38.000000, 23.000000)"/>
            <path d="M13.696 16.292c-.391 0-.709.32-.709.713 0 .394.318.713.709.713.39 0 .708-.319.708-.713 0-.393-.317-.713-.708-.713M16.692 17.263h.347c.06.637.343 1.21.767 1.638.482.486 1.149.786 1.883.786.736 0 1.402-.3 1.883-.785.426-.429.708-1.001.768-1.639h.602v-.258c0-.941-.29-1.794-.888-2.397h-.002c-.226-.229-.495-.42-.807-.564h-3.112c-.312.144-.581.335-.807.563v.001c-.276.278-.487.61-.634.978v1.677zM19.69 15.7c.716 0 1.297.584 1.297 1.305s-.58 1.305-1.297 1.305c-.715 0-1.295-.584-1.295-1.305 0-.72.58-1.305 1.295-1.305z" transform="translate(-1102.000000, -1119.000000) translate(303.000000, 332.000000) translate(0.000000, 105.000000) translate(33.000000, 359.000000) translate(30.000000, 1.000000) translate(0.000000, 271.000000) translate(698.000000, 28.000000) translate(38.000000, 23.000000)"/>
            <path d="M19.69 16.292c.39 0 .708.32.708.713 0 .394-.318.713-.709.713-.39 0-.707-.319-.707-.713 0-.393.317-.713.707-.713M51.597 13.528h-3.874c-1.191 0-1.48.456-1.481.457l.425.286s.132-.212.967-.226v.394h3.046v-.395h.917v-.516M43.006 14.683H41.7v1.78h1.148v-.427c0-.474.058-.937.158-1.353" transform="translate(-1102.000000, -1119.000000) translate(303.000000, 332.000000) translate(0.000000, 105.000000) translate(33.000000, 359.000000) translate(30.000000, 1.000000) translate(0.000000, 271.000000) translate(698.000000, 28.000000) translate(38.000000, 23.000000)"/>
            <path d="M41.942 17.005c0-.941.291-1.794.89-2.397.542-.546 1.326-.879 2.363-.879 1.038 0 1.823.333 2.365.878v.001c.597.602.888 1.455.888 2.397v.793h-.709c-.16.52-.472.972-.884 1.304-.455.366-1.032.585-1.66.585-.734 0-1.4-.3-1.882-.786-.426-.428-.708-1-.768-1.638h-.603v-.258zm3.253-1.305c-.715 0-1.296.584-1.296 1.305s.58 1.305 1.296 1.305c.716 0 1.297-.584 1.297-1.305 0-.72-.581-1.305-1.297-1.305z" transform="translate(-1102.000000, -1119.000000) translate(303.000000, 332.000000) translate(0.000000, 105.000000) translate(33.000000, 359.000000) translate(30.000000, 1.000000) translate(0.000000, 271.000000) translate(698.000000, 28.000000) translate(38.000000, 23.000000)"/>
            <path d="M45.195 17.718c.39 0 .709-.32.709-.713 0-.393-.319-.713-.709-.713-.39 0-.708.32-.708.713 0 .393.318.713.708.713M66.144 17.798H63.36v-.515h2.718l1.366-.37v-1.912l-.452-1.314h.452v-2.434c0-.898-.798-3.49-1.327-5.206-.143-.469-.272-.886-.367-1.21-.269-.92-.831-1.263-2.316-1.41l-3.538-.302-2.115-.398c-.165.882-.3 2.471-.369 3.272-.222 2.606-.222 5.044-.222 7.003v.013l1.093.8-.3.416-1.304-.953v-.276c0-1.969 0-4.419.223-7.046.076-.893.234-2.752.43-3.588l.057-.24 2.575.487 3.516.3c1.427.14 2.385.486 2.761 1.776.094.322.222.737.365 1.203.57 1.849 1.35 4.382 1.35 5.359v2.95h-.246l.245.755v2.352l-1.81.488" transform="translate(-1102.000000, -1119.000000) translate(303.000000, 332.000000) translate(0.000000, 105.000000) translate(33.000000, 359.000000) translate(30.000000, 1.000000) translate(0.000000, 271.000000) translate(698.000000, 28.000000) translate(38.000000, 23.000000)"/>
            <path d="M58.91 17.798H46.834l.163-.363c.022-.049.042-.19.059-.368.02-.225.031-.505.031-.749 0-.065-.199-.185-.454-.309-.856-.416-.917-1.03-1.607-.538v-1.29h13.01c-.096.17-.176.35-.236.534v-.019H45.538v.42c.323.052.884.22 1.318.43.418.204.744.469.744.772 0 .246-.013.542-.036.795l-.019.17h11.139v.258h.48v.257h-.255M67.625 10.525c-.214-1.277-.845-3.195-1.203-4.4h-.608l.884 4.167s.435.05.927.233" transform="translate(-1102.000000, -1119.000000) translate(303.000000, 332.000000) translate(0.000000, 105.000000) translate(33.000000, 359.000000) translate(30.000000, 1.000000) translate(0.000000, 271.000000) translate(698.000000, 28.000000) translate(38.000000, 23.000000)"/>
            <path d="M65.037 17.712h-.996v-1.121c0-1.505-1.216-2.729-2.71-2.729h-.453c-1.244 0-2.255 1.02-2.255 2.272v1.578H57.49v-2.15c0-1.666 1.507-3.183 3.161-3.183h.528c1.983 0 3.858 1.805 3.858 3.714v1.62zm-.655-.344h.314v-1.275c0-1.7-1.742-3.371-3.517-3.371h-.528c-1.45 0-2.82 1.38-2.82 2.84v1.806h.45v-1.234c0-1.442 1.165-2.615 2.597-2.615h.454c1.682 0 3.05 1.378 3.05 3.072v.777zM66.703 16.736L67.699 16.736 67.699 14.958 66.703 14.958z" transform="translate(-1102.000000, -1119.000000) translate(303.000000, 332.000000) translate(0.000000, 105.000000) translate(33.000000, 359.000000) translate(30.000000, 1.000000) translate(0.000000, 271.000000) translate(698.000000, 28.000000) translate(38.000000, 23.000000)"/>
            <path d="M64.859 15.903L67.041 15.903 67.041 15.56 64.859 15.56zM61.738 11.812L62.848 11.812 62.848 11.469 61.738 11.469zM64.859 16.736L67.041 16.736 67.041 16.392 64.859 16.392zM67.049 13.141L67.699 13.141 67.699 11.436 67.049 11.436zM58.525 6.205L66.384 6.205 66.384 5.862 58.525 5.862zM57.185 13.238v1.2h.722c.123-.274.287-.533.483-.765l-1.205-.435M64.85 6.573h-3.022v2.385c0 .253.178.466.426.507l3.553.604-.084-.529c-.083.059-.182.093-.29.093h-.141c-.278 0-.505-.228-.505-.508V6.819c0-.089.024-.174.064-.246zm.582-.004c.137 0 .25.113.25.25v2.306c0 .138-.113.25-.25.25h-.14c-.137 0-.25-.113-.25-.25V6.819c0-.137.113-.25.25-.25h.14zM58.452 17.54v-1.406c0-1.344 1.091-2.443 2.426-2.443h.454c1.584 0 2.88 1.305 2.88 2.9v.95h-.461c-.106.525-.365.995-.727 1.36-.481.486-1.148.786-1.883.786-.734 0-1.4-.3-1.882-.786-.363-.365-.622-.834-.728-1.36h-.08zm2.689-1.84c-.715 0-1.296.584-1.296 1.305s.58 1.305 1.296 1.305c.716 0 1.296-.584 1.296-1.305 0-.72-.58-1.305-1.296-1.305z" transform="translate(-1102.000000, -1119.000000) translate(303.000000, 332.000000) translate(0.000000, 105.000000) translate(33.000000, 359.000000) translate(30.000000, 1.000000) translate(0.000000, 271.000000) translate(698.000000, 28.000000) translate(38.000000, 23.000000)"/>
            <path d="M61.141 17.718c.39 0 .708-.32.708-.713 0-.393-.318-.713-.708-.713-.39 0-.708.32-.708.713 0 .393.318.713.708.713M56.326 15.147h-1.427c-.075 0-.138.046-.161.117l-.133.395c-.018.054-.01.108.023.155.033.046.082.071.14.071h1.425c.075 0 .138-.046.162-.117l.132-.395c.018-.054.01-.108-.023-.155-.033-.046-.082-.071-.138-.071M55.968 16.094h-1.427c-.074 0-.137.045-.16.117l-.133.394c-.018.055-.01.11.023.156s.082.071.139.071h1.426c.074 0 .138-.045.162-.117l.131-.394c.019-.055.01-.11-.022-.156-.033-.046-.082-.071-.139-.071" transform="translate(-1102.000000, -1119.000000) translate(303.000000, 332.000000) translate(0.000000, 105.000000) translate(33.000000, 359.000000) translate(30.000000, 1.000000) translate(0.000000, 271.000000) translate(698.000000, 28.000000) translate(38.000000, 23.000000)"/>

        </g>
    </g>
</svg>
