<svg xmlns="http://www.w3.org/2000/svg" width="71" height="20" viewBox="0 0 71 20">
    <g fill="none" fill-rule="evenodd">
        <g fill="#156CE4">
            <path d="M2.223 13.284L2.223 15.645 2.521 15.645 1.806 16.279 1.806 15.875 1.188 15.875 1.188 17.448 1.806 17.448 1.806 17.013 2.994 16.222 4.918 16.222 4.918 15.645 23.558 15.645 23.558 14.245 50.444 14.245 50.444 13.284 2.223 13.284" transform="translate(-577.000000, -1119.000000) translate(303.000000, 332.000000) translate(0.000000, 105.000000) translate(33.000000, 359.000000) translate(30.000000, 1.000000) translate(0.000000, 271.000000) translate(174.000000, 27.000000) translate(37.000000, 24.000000)"/>
            <path d="M40.585 17.094L41.12 17.094 41.12 12.954 40.585 12.954zM30.218 17.094L30.753 17.094 30.753 12.954 30.218 12.954z" transform="translate(-577.000000, -1119.000000) translate(303.000000, 332.000000) translate(0.000000, 105.000000) translate(33.000000, 359.000000) translate(30.000000, 1.000000) translate(0.000000, 271.000000) translate(174.000000, 27.000000) translate(37.000000, 24.000000)"/>
            <path d="M29.19 17.563L42.227 17.563 42.227 16.469 29.19 16.469zM29.19 15.614L42.227 15.614 42.227 14.521 29.19 14.521zM0 13.55h57.893V0H0v13.55zm.534-.532H57.36V.531H.534v12.487z" transform="translate(-577.000000, -1119.000000) translate(303.000000, 332.000000) translate(0.000000, 105.000000) translate(33.000000, 359.000000) translate(30.000000, 1.000000) translate(0.000000, 271.000000) translate(174.000000, 27.000000) translate(37.000000, 24.000000)"/>
            <path d="M53.873 13.107H49.83c-1.244 0-1.546.47-1.547.471l.445.295c0-.001.137-.22 1.008-.234v.407h3.181v-.408h.957v-.531M44.904 14.297H43.54v1.837h1.199v-.441c0-.49.06-.967.165-1.396" transform="translate(-577.000000, -1119.000000) translate(303.000000, 332.000000) translate(0.000000, 105.000000) translate(33.000000, 359.000000) translate(30.000000, 1.000000) translate(0.000000, 271.000000) translate(174.000000, 27.000000) translate(37.000000, 24.000000)"/>
            <path d="M43.793 16.692c0-.97.304-1.85.928-2.471v-.001c.566-.563 1.386-.906 2.468-.906 1.084 0 1.904.344 2.469.905v.001c.624.621.928 1.5.928 2.472v.818h-.74c-.167.536-.493 1.002-.923 1.344-.476.378-1.078.604-1.734.604-.766 0-1.462-.31-1.965-.81-.445-.442-.739-1.032-.802-1.69h-.629v-.266zm3.396-1.346c-.747 0-1.353.603-1.353 1.346 0 .744.606 1.346 1.353 1.346.748 0 1.354-.602 1.354-1.346 0-.743-.606-1.346-1.354-1.346z" transform="translate(-577.000000, -1119.000000) translate(303.000000, 332.000000) translate(0.000000, 105.000000) translate(33.000000, 359.000000) translate(30.000000, 1.000000) translate(0.000000, 271.000000) translate(174.000000, 27.000000) translate(37.000000, 24.000000)"/>
            <path d="M47.19 17.427c.407 0 .739-.33.739-.735 0-.405-.332-.735-.74-.735-.406 0-.739.33-.739.735 0 .405.333.735.74.735M69.063 17.51h-2.91v-.531h2.84l1.425-.38v-1.973l-.471-1.355h.471v-2.51c0-.927-.833-3.602-1.385-5.372-.15-.482-.284-.912-.383-1.245-.28-.95-.868-1.302-2.419-1.453l-3.694-.312-2.208-.411c-.173.909-.313 2.548-.385 3.375-.232 2.69-.232 5.206-.231 7.228v.007l1.14.824-.313.43-1.362-.983v-.278c0-2.032 0-4.56.234-7.273.08-.922.244-2.84.45-3.7l.058-.248 2.69.502 3.67.31c1.49.145 2.49.501 2.883 1.832.098.332.231.76.38 1.238.596 1.908 1.41 4.521 1.41 5.529v3.04h-.256l.256.78v2.425l-1.89.504" transform="translate(-577.000000, -1119.000000) translate(303.000000, 332.000000) translate(0.000000, 105.000000) translate(33.000000, 359.000000) translate(30.000000, 1.000000) translate(0.000000, 271.000000) translate(174.000000, 27.000000) translate(37.000000, 24.000000)"/>
            <path d="M61.508 17.51H48.902l.17-.375c.022-.05.044-.195.06-.38.023-.23.034-.52.034-.772 0-.067-.207-.19-.474-.318-.895-.429-.958-1.062-1.679-.555v-1.33h13.585c-.1.176-.184.36-.247.55v-.019H47.548v.433c.337.054.922.226 1.375.444.437.209.778.483.778.795 0 .254-.014.56-.038.82l-.02.175h11.63v.266h.503v.266h-.268M70.609 10.01c-.224-1.317-.883-3.295-1.256-4.538h-.635l.923 4.297s.454.051.968.24" transform="translate(-577.000000, -1119.000000) translate(303.000000, 332.000000) translate(0.000000, 105.000000) translate(33.000000, 359.000000) translate(30.000000, 1.000000) translate(0.000000, 271.000000) translate(174.000000, 27.000000) translate(37.000000, 24.000000)"/>
            <path d="M67.907 17.421h-1.041v-1.156c0-1.551-1.269-2.814-2.828-2.814h-.474c-1.299 0-2.355 1.05-2.355 2.343v1.627h-1.182v-2.217c0-1.718 1.573-3.283 3.3-3.283h.551c2.07 0 4.03 1.862 4.03 3.83v1.67zm-.684-.354h.328v-1.315c0-1.754-1.82-3.476-3.673-3.476h-.55c-1.514 0-2.945 1.423-2.945 2.928v1.863h.47v-1.273c0-1.487 1.216-2.697 2.71-2.697h.475c1.756 0 3.185 1.422 3.185 3.168v.802z" transform="translate(-577.000000, -1119.000000) translate(303.000000, 332.000000) translate(0.000000, 105.000000) translate(33.000000, 359.000000) translate(30.000000, 1.000000) translate(0.000000, 271.000000) translate(174.000000, 27.000000) translate(37.000000, 24.000000)"/>
            <path d="M67.72 15.556L69.999 15.556 69.999 15.202 67.72 15.202zM64.462 11.337L65.62 11.337 65.62 10.983 64.462 10.983zM67.72 16.414L69.998 16.414 69.998 16.06 67.72 16.06zM70.007 12.707L70.686 12.707 70.686 10.949 70.007 10.949zM61.107 5.554L69.312 5.554 69.312 5.201 61.107 5.201zM59.708 12.806v1.24h.754c.128-.284.3-.55.504-.79l-1.258-.45M67.713 5.933h-3.158v2.46c0 .261.186.48.446.524l3.71.622-.089-.545c-.085.06-.19.096-.303.096h-.146c-.29 0-.528-.236-.528-.524V6.188c0-.092.025-.18.068-.255zm.606-.004c.143 0 .26.117.26.26v2.377c0 .141-.117.258-.26.258h-.146c-.143 0-.26-.117-.26-.258V6.188c0-.142.117-.259.26-.259h.146zM61.03 17.244v-1.45c0-1.386 1.14-2.52 2.534-2.52h.474c1.653 0 3.006 1.346 3.006 2.991v.98h-.48c-.111.541-.38 1.026-.76 1.402-.502.501-1.198.811-1.966.811-.766 0-1.462-.31-1.965-.81-.379-.377-.649-.861-.76-1.404h-.083zm2.808-1.898c-.747 0-1.352.603-1.352 1.346 0 .744.605 1.346 1.352 1.346.748 0 1.354-.602 1.354-1.346 0-.743-.606-1.346-1.354-1.346z" transform="translate(-577.000000, -1119.000000) translate(303.000000, 332.000000) translate(0.000000, 105.000000) translate(33.000000, 359.000000) translate(30.000000, 1.000000) translate(0.000000, 271.000000) translate(174.000000, 27.000000) translate(37.000000, 24.000000)"/>
            <path d="M63.84 17.427c.406 0 .738-.33.738-.735 0-.405-.332-.735-.739-.735s-.74.33-.74.735c0 .405.333.735.74.735M58.81 14.776h-1.49c-.077 0-.143.047-.168.12l-.138.408c-.019.055-.01.112.025.16.034.047.085.073.144.073h1.49c.077 0 .143-.047.168-.12l.138-.408c.019-.055.01-.111-.024-.16-.034-.047-.085-.073-.144-.073M58.437 15.752h-1.49c-.077 0-.143.047-.168.121l-.138.407c-.019.056-.01.112.025.16.034.047.085.074.144.074h1.49c.077 0 .144-.048.168-.12l.138-.408c.019-.056.01-.112-.024-.16-.035-.048-.086-.074-.145-.074M11.17 16.958h-.361c-.063.657-.358 1.247-.801 1.689-.503.501-1.199.811-1.966.811-.768 0-1.464-.31-1.967-.81-.443-.442-.738-1.032-.8-1.69h-.63v-.266c0-.97.304-1.85.928-2.471v-.001h.001c.237-.236.518-.433.844-.582h3.249c.326.15.607.346.843.581v.001c.288.287.508.628.66 1.009v1.73zm-3.128-1.612c-.748 0-1.354.603-1.354 1.346 0 .744.606 1.346 1.354 1.346.747 0 1.353-.602 1.353-1.346 0-.743-.606-1.346-1.353-1.346z" transform="translate(-577.000000, -1119.000000) translate(303.000000, 332.000000) translate(0.000000, 105.000000) translate(33.000000, 359.000000) translate(30.000000, 1.000000) translate(0.000000, 271.000000) translate(174.000000, 27.000000) translate(37.000000, 24.000000)"/>
            <path d="M8.042 15.957c-.409 0-.74.33-.74.735 0 .406.331.735.74.735.408 0 .739-.329.739-.735 0-.406-.331-.735-.74-.735M17.429 16.958h-.361c-.064.657-.358 1.247-.802 1.689-.503.501-1.198.811-1.966.811s-1.463-.31-1.966-.81c-.444-.442-.738-1.032-.802-1.69h-.628v-.266c0-.97.303-1.85.928-2.471v-.001c.237-.236.518-.433.844-.582h3.25c.325.15.606.346.843.581v.001c.287.287.507.628.66 1.009v1.73zm-3.13-1.612c-.746 0-1.352.603-1.352 1.346 0 .744.606 1.346 1.353 1.346.748 0 1.353-.602 1.353-1.346 0-.743-.605-1.346-1.353-1.346z" transform="translate(-577.000000, -1119.000000) translate(303.000000, 332.000000) translate(0.000000, 105.000000) translate(33.000000, 359.000000) translate(30.000000, 1.000000) translate(0.000000, 271.000000) translate(174.000000, 27.000000) translate(37.000000, 24.000000)"/>
            <path d="M14.3 15.957c-.409 0-.739.33-.739.735 0 .406.33.735.739.735.408 0 .74-.329.74-.735 0-.406-.332-.735-.74-.735M17.429 16.958h.362c.063.657.357 1.247.8 1.689.504.501 1.2.811 1.968.811.767 0 1.462-.31 1.966-.81.443-.442.738-1.032.8-1.69h.63v-.266c0-.97-.304-1.85-.928-2.471l-.001-.001c-.237-.236-.518-.433-.844-.582h-3.249c-.326.15-.607.346-.843.581v.001c-.288.287-.508.628-.661 1.009v1.73zm3.13-1.612c.747 0 1.352.603 1.352 1.346 0 .744-.605 1.346-1.352 1.346-.748 0-1.354-.602-1.354-1.346 0-.743.606-1.346 1.354-1.346z" transform="translate(-577.000000, -1119.000000) translate(303.000000, 332.000000) translate(0.000000, 105.000000) translate(33.000000, 359.000000) translate(30.000000, 1.000000) translate(0.000000, 271.000000) translate(174.000000, 27.000000) translate(37.000000, 24.000000)"/>
            <path d="M20.559 15.957c.407 0 .738.33.738.735 0 .406-.33.735-.738.735-.409 0-.74-.329-.74-.735 0-.406.331-.735.74-.735" transform="translate(-577.000000, -1119.000000) translate(303.000000, 332.000000) translate(0.000000, 105.000000) translate(33.000000, 359.000000) translate(30.000000, 1.000000) translate(0.000000, 271.000000) translate(174.000000, 27.000000) translate(37.000000, 24.000000)"/>
        </g>
    </g>
</svg>
