<svg xmlns="http://www.w3.org/2000/svg" width="13" height="15" viewBox="0 0 13 15">
    <g fill="none" fill-rule="evenodd">
        <g fill="#FFF" fill-rule="nonzero">
            <path d="M2 3L2 6 6.178 4.491 6.5 4.375 6.822 4.491 11 6 11 3zM11.895 14.24c-.178.08-.275.124-.52.124s-.343-.044-.52-.123c-.227-.102-.538-.241-1.105-.241-.568 0-.879.14-1.106.24-.177.08-.274.124-.52.124-.244 0-.342-.044-.52-.123C7.379 14.139 7.068 14 6.5 14c-.568 0-.879.14-1.106.24-.177.08-.274.124-.52.124-.244 0-.342-.044-.519-.123C4.128 14.139 3.817 14 3.25 14c-.568 0-.878.14-1.105.24-.178.08-.275.124-.52.124s-.343-.044-.52-.123C.878 14.139.568 14 0 14v.636c.245 0 .343.044.52.123.227.102.537.241 1.105.241.567 0 .878-.14 1.105-.24.177-.08.275-.124.52-.124s.342.044.52.123c.227.102.537.241 1.105.241.567 0 .878-.14 1.105-.24.177-.08.275-.124.52-.124s.342.044.52.123c.226.102.537.241 1.105.241.567 0 .878-.14 1.105-.24.177-.08.275-.124.52-.124s.342.044.52.123c.226.102.537.241 1.105.241.567 0 .878-.14 1.105-.24.177-.08.275-.124.52-.124V14c-.568 0-.878.14-1.105.24zM7.503.703L7.503 0 6.462 0 6.462.703 4 .703 4 2 10 2 10 .703z" transform="translate(-723 -257) translate(304 241) translate(371) translate(48 16)"/>
            <path d="M1 7.06l1.846 5.546c.214-.089.473-.152.784-.152.712 0 1.15.332 1.403.546.196-.166.505-.403.967-.501V5L1 7.06zM7 5v7.499c.461.098.77.335.966.501.253-.214.691-.546 1.403-.546.302 0 .555.06.765.145L12 7.061 7 5z" transform="translate(-723 -257) translate(304 241) translate(371) translate(48 16)"/>
        </g>            
    </g>
</svg>
