<svg xmlns="http://www.w3.org/2000/svg" width="15" height="19" viewBox="0 0 15 19">
    <g fill="none" fill-rule="evenodd">
        <g fill="#B7BCD6" fill-rule="nonzero">
            <g>
                <g>
                    <g>
                        <g>
                            <g>
                                <g>
                                    <path d="M13.273 2.375h-2.416V.172l2.416 2.203zm-1.418 10.58c1.734 0 3.145 1.356 3.145 3.022C15 17.644 13.59 19 11.855 19c-1.734 0-3.144-1.356-3.144-3.023 0-1.666 1.41-3.022 3.144-3.022zm-.062 1.295c-.31 0-.562.242-.562.54v.683h-.611c-.31 0-.562.242-.562.54 0 .298.252.54.562.54h.611v.612c0 .298.252.54.562.54.31 0 .561-.242.561-.54v-.612h.737c.31 0 .561-.242.561-.54 0-.298-.251-.54-.561-.54h-.737v-.683c0-.298-.251-.54-.561-.54zm-3.784 3.505l-7.437-.032c-.31-.001-.572-.26-.572-.558V.54C0 .242.276 0 .586 0h9.148v2.915c0 .298.276.54.586.54h3.157v8.738c-.449-.205-1.05-.318-1.634-.318-2.354 0-4.262 1.84-4.262 4.102 0 .637.158 1.24.428 1.778zM2.383 5.505c0 .299.252.54.562.54h7.413c.31 0 .561-.241.561-.54 0-.297-.251-.54-.561-.54H2.945c-.31 0-.562.243-.562.54zm0 2.232c0 .298.252.54.562.54h7.413c.31 0 .561-.242.561-.54 0-.298-.251-.54-.561-.54H2.945c-.31 0-.562.242-.562.54zm.562 2.915h7.413c.31 0 .561-.242.561-.54 0-.298-.251-.54-.561-.54H2.945c-.31 0-.562.242-.562.54 0 .298.252.54.562.54z" transform="translate(-1283 -454) translate(305 97) translate(38 223) translate(0 114) translate(940 20)"/>
                                </g>
                            </g>
                        </g>
                    </g>
                </g>
            </g>
        </g>
    </g>
</svg>
