<svg xmlns="http://www.w3.org/2000/svg" width="15" height="15" viewBox="0 0 15 15">
    <g fill="none" fill-rule="evenodd">
        <g fill="#109CF1" fill-rule="nonzero">
            <g>
                <g>
                    <g>
                        <path d="M11.813 4.336C11.813 1.946 9.872 0 7.485 0 5.1 0 3.158 1.945 3.158 4.336c0 1.48.745 2.79 1.879 3.573-1.059.366-2.03.97-2.845 1.788C.78 11.113 0 12.997 0 15h1.17c0-3.49 2.833-6.328 6.315-6.328 2.387 0 4.328-1.945 4.328-4.336zM7.485 7.5c-1.74 0-3.158-1.42-3.158-3.164 0-1.745 1.417-3.164 3.158-3.164 1.742 0 3.158 1.42 3.158 3.164 0 1.745-1.416 3.164-3.158 3.164zM15 12.54h-2.456V15h-1.17v-2.46H8.918v-1.173h2.456v-2.46h1.17v2.46H15v1.172z" transform="translate(-670 -291) translate(339 237) translate(0 46) translate(331 8)"/>
                    </g>
                </g>
            </g>
        </g>
    </g>
</svg>
