<svg xmlns="http://www.w3.org/2000/svg" width="15" height="18" viewBox="0 0 15 18">
    <g fill="none" fill-rule="evenodd">
        <g fill="#FFF" fill-rule="nonzero">
            <g>
                <g>
                    <g>
                        <g>
                            <g>
                                <path d="M14.933 10.907l-1.442-1.8c-.057-.065-.137-.103-.222-.103-.085 0-.166.038-.222.103l-1.442 1.8c-.072.09-.088.215-.04.32.048.105.15.173.262.173h.458c-.427 1.809-1.973 3.204-3.92 3.528V7.199h2.596c.16 0 .289-.134.289-.3V5.7c0-.165-.13-.3-.289-.3H8.365v-.774c1.024-.43 1.611-1.556 1.4-2.683C9.555.814 8.605 0 7.5 0 6.396 0 5.446.814 5.235 1.942c-.211 1.127.376 2.252 1.4 2.683V5.4H4.039c-.16 0-.289.135-.289.3v1.2c0 .166.13.3.289.3h2.596v7.729c-1.947-.324-3.493-1.72-3.92-3.528h.458c.112 0 .214-.068.262-.173.048-.105.032-.23-.04-.32l-1.442-1.8c-.056-.065-.137-.103-.222-.103-.085 0-.165.038-.222.103l-1.442 1.8c-.072.09-.087.215-.04.32.048.105.15.173.262.173h.643c.421 2.79 2.76 4.983 5.703 5.346v.354c0 .08.03.156.083.213l.577.6c.114.116.296.116.41 0l.577-.6c.053-.057.083-.134.083-.213v-.354c2.942-.363 5.282-2.556 5.703-5.346h.643c.112 0 .214-.068.262-.173.047-.105.032-.23-.04-.32zM7.5 3.3c-.478 0-.865-.403-.865-.9s.387-.9.865-.9.865.403.865.9-.387.9-.865.9z" transform="translate(-339 -999) translate(303 91) translate(1 22) translate(24 540) translate(1 337) translate(10 9)"/>
                            </g>
                        </g>
                    </g>
                </g>
            </g>
        </g>
    </g>
</svg>
