<svg xmlns="http://www.w3.org/2000/svg" width="59" height="56" viewBox="0 0 59 56">
    <g fill="none">
        <path fill="#51DB92" d="M2 40L38 40 38 55 2 55z"/>
        <path fill="#BFC5D2" d="M2 40L8 40 8 55 2 55z"/>
        <path fill="#0E1FD7" d="M38 29H11.541c-.696 0-1.363.264-1.855.734L.221 38.777C-.25 39.228.083 40 .751 40H38V29z"/>
        <path fill="#109CF1" d="M6.534 38.777l9.587-9.043C16.619 29.264 17.295 29 18 29h-6.31c-.704 0-1.38.264-1.879.734L.224 38.777C-.255 39.228.084 40 .761 40h6.31c-.677 0-1.016-.772-.537-1.223z"/>
        <path fill="#0E1FD7" d="M54.113 2H47v6h7.113c.49 0 .887-.418.887-.934V2.934c0-.516-.397-.934-.887-.934z"/>
        <path fill="#109CF1" d="M51.274 7.066V2.934c0-.516.325-.934.726-.934h-4v6h4c-.4 0-.726-.418-.726-.934z"/>
        <path fill="#DDEAFB" d="M48 15c-.552 0-1-.382-1-.853V.853C47 .382 47.448 0 48 0s1 .382 1 .853v13.294c0 .471-.448.853-1 .853z"/>
        <path fill="#51DB92" d="M37 25L57 25 57 55 37 55z"/>
        <path fill="#BFC5D2" d="M37 25L42 25 42 55 37 55z"/>
        <path fill="#0E1FD7" d="M50.304 45h-5.607c-.385 0-.697.339-.697.757V55h7v-9.243c0-.418-.312-.757-.696-.757z"/>
        <path fill="#0E1FD7" d="M48 45h-3.336c-.367 0-.664.339-.664.757V55h3.336v-9.243c0-.418.297-.757.664-.757z"/>
        <path fill="#109CF1" d="M58.121 56H.88C.393 56 0 55.552 0 55s.393-1 .879-1H58.12c.486 0 .879.448.879 1s-.393 1-.879 1z"/>
        <path fill="#9DC6FB" d="M31.562 46h-3.124c-.242 0-.438.226-.438.505v2.99c0 .279.196.505.438.505h3.124c.242 0 .438-.226.438-.505v-2.99c0-.279-.196-.505-.438-.505zM52.461 38H42.54c-.298 0-.539.226-.539.505v2.99c0 .279.241.505.539.505h9.922c.298 0 .539-.226.539-.505v-2.99c0-.279-.241-.505-.539-.505z"/>
        <path fill="#80B4FB" d="M45.499 41.495v-2.99c0-.279.224-.505.501-.505h-3.499c-.277 0-.501.226-.501.505v2.99c0 .279.224.505.501.505H46c-.277 0-.501-.226-.501-.505z"/>
        <path fill="#9DC6FB" d="M52.461 30H42.54c-.298 0-.539.226-.539.505v2.99c0 .279.241.505.539.505h9.922c.298 0 .539-.226.539-.505v-2.99c0-.279-.241-.505-.539-.505z"/>
        <path fill="#80B4FB" d="M45.499 33.495v-2.99c0-.279.224-.505.501-.505h-3.499c-.277 0-.501.226-.501.505v2.99c0 .279.224.505.501.505H46c-.277 0-.501-.226-.501-.505z"/>
        <path fill="#9DC6FB" d="M21.562 46h-3.124c-.242 0-.438.226-.438.505v2.99c0 .279.196.505.438.505h3.124c.242 0 .438-.226.438-.505v-2.99c0-.279-.196-.505-.438-.505zM11.562 46H8.438c-.242 0-.438.226-.438.505v2.99c0 .279.196.505.438.505h3.124c.242 0 .438-.226.438-.505v-2.99c0-.279-.196-.505-.438-.505z"/>
        <g fill="#80B4FB">
            <path d="M21.453 3.414V.582c0-.264.227-.479.507-.479h-2.317c-.28 0-.507.215-.507.479v2.832c0 .265.227.479.507.479h2.317c-.28 0-.507-.214-.507-.479zM11.925 3.414V.582c0-.264.227-.479.507-.479h-2.318c-.28 0-.507.215-.507.479v2.832c0 .265.227.479.507.479h2.318c-.28 0-.507-.214-.507-.479zM2.396 3.414V.582c0-.264.227-.479.507-.479H.585c-.28 0-.507.215-.507.479v2.832c0 .265.227.479.507.479h2.318c-.28 0-.507-.214-.507-.479z" transform="translate(7 46)"/>
        </g>
        <path fill="#DDEAFB" d="M48.178 51h-.356c-.454 0-.822-.448-.822-1s.368-1 .822-1h.356c.454 0 .822.448.822 1s-.368 1-.822 1z"/>
        <path fill="#B7BCD6" d="M57.779 23.8L47.53 14.206c-.293-.275-.769-.275-1.062 0L36.22 23.8c-.473.442-.138 1.2.532 1.2h20.494c.67 0 1.005-.758.532-1.2z"/>
        <path fill="#109CF1" d="M42.043 23.8L50 16.41l-2.374-2.204c-.296-.275-.776-.275-1.071 0L36.223 23.8c-.477.442-.139 1.2.536 1.2h5.82c-.675 0-1.013-.757-.536-1.2z"/>
    </g>
</svg>
