<svg xmlns="http://www.w3.org/2000/svg" width="16" height="16" viewBox="0 0 16 16" fill="none">
<path d="M13.5326 6.53062L8.53255 11.5306C8.46287 11.6005 8.38008 11.656 8.28892 11.6939C8.19775 11.7317 8.10001 11.7512 8.0013 11.7512C7.90259 11.7512 7.80485 11.7317 7.71369 11.6939C7.62252 11.656 7.53973 11.6005 7.47005 11.5306L2.47005 6.53062C2.32915 6.38973 2.25 6.19863 2.25 5.99937C2.25 5.80012 2.32915 5.60902 2.47005 5.46812C2.61095 5.32723 2.80204 5.24807 3.0013 5.24807C3.20056 5.24807 3.39165 5.32723 3.53255 5.46812L8.00193 9.9375L12.4713 5.4675C12.6122 5.3266 12.8033 5.24745 13.0026 5.24745C13.2018 5.24745 13.3929 5.3266 13.5338 5.4675C13.6747 5.6084 13.7539 5.79949 13.7539 5.99875C13.7539 6.19801 13.6747 6.3891 13.5338 6.53L13.5326 6.53062Z" fill="#757575"/>
</svg>
