<svg xmlns="http://www.w3.org/2000/svg" width="29" height="29" viewBox="0 0 29 29">
    <g fill="none" fill-rule="evenodd">
        <g>
            <g>
                <g>
                    <g transform="translate(-77 -779) translate(62 195) translate(15 584)">
                        <circle cx="14.5" cy="14.5" r="14.5" fill="#FFF"/>
                        <g fill="#B7BCD6" fill-rule="nonzero">
                            <path d="M7.712 7.144l-6.034 5.59c-.384.355-1.007.355-1.39 0-.384-.356-.384-.933 0-1.288L5.628 6.5.287 1.554C-.096 1.2-.096.622.288.267c.384-.356 1.006-.356 1.39 0l6.034 5.59c.192.177.288.41.288.643 0 .233-.096.466-.288.644z" transform="matrix(-1 0 0 1 19 9)"/>
                        </g>
                    </g>
                </g>
            </g>
        </g>
    </g>
</svg>
