<svg xmlns="http://www.w3.org/2000/svg" width="12" height="12" viewBox="0 0 12 12">
    <g fill="none" fill-rule="evenodd">
        <g fill="#B7BCD6" fill-rule="nonzero">
            <g>
                <g>
                    <g>
                        <g>
                            <path d="M11.571 0H3c-.237 0-.429.192-.429.429V2.57H.43C.192 2.571 0 2.763 0 3v8.571c0 .237.192.429.429.429H9c.237 0 .429-.192.429-.429V9.43h2.142c.237 0 .429-.192.429-.429V.429C12 .192 11.808 0 11.571 0zm-3 11.143H.857V3.429h7.714v7.714zm2.572-2.572H9.429V3c0-.237-.192-.429-.429-.429H3.429V.857h7.714v7.714z" transform="translate(-1063.000000, -95.000000) translate(702.000000, 85.000000) translate(0.000000, 10.000000) translate(361.000000, 0.000000)"/>
                        </g>
                    </g>
                </g>
            </g>
        </g>
    </g>
</svg>
