<svg xmlns="http://www.w3.org/2000/svg" width="22" height="19" viewBox="0 0 22 19">
    <path fill="#B7BCD6" d="M20.678 7.945c-.09-.015-.181-.022-.273-.02H4.885l.338-.159c.331-.158.632-.372.89-.634l4.352-4.383c.573-.55.67-1.437.228-2.1-.513-.707-1.498-.86-2.2-.343-.056.042-.11.088-.16.137L.461 8.369C-.153 8.987-.154 9.99.46 10.61l.002.002 7.87 7.925c.616.618 1.612.617 2.226-.003.049-.049.094-.1.135-.155.442-.663.345-1.55-.228-2.1l-4.344-4.391c-.231-.233-.497-.428-.788-.579l-.472-.214H20.32c.804.03 1.51-.536 1.66-1.332.14-.864-.443-1.678-1.301-1.818z"/>
</svg>
