<svg xmlns="http://www.w3.org/2000/svg" xmlns:xlink="http://www.w3.org/1999/xlink" width="1127" height="273" viewBox="0 0 1127 273">
    <defs>
        <radialGradient id="bwna7oyhkc" cx="50%" cy="50%" r="50.011%" fx="50%" fy="50%" gradientTransform="matrix(.99977 0 0 1 0 0)">
            <stop offset="0%" stop-color="#FFF"/>
            <stop offset="8%" stop-color="#FBFBFB"/>
            <stop offset="16%" stop-color="#F0F0F0"/>
            <stop offset="24%" stop-color="#DCDCDC"/>
            <stop offset="32%" stop-color="#C1C1C1"/>
            <stop offset="39%" stop-color="#9E9E9E"/>
            <stop offset="47%" stop-color="#737373"/>
            <stop offset="55%" stop-color="#404040"/>
            <stop offset="62%" stop-color="#070707"/>
            <stop offset="63%"/>
        </radialGradient>
        <radialGradient id="jusnzrsn8d" cx="50%" cy="50%" r="50.011%" fx="50%" fy="50%" gradientTransform="matrix(.99977 0 0 1 0 0)">
            <stop offset="0%" stop-color="#FFF"/>
            <stop offset="8%" stop-color="#FBFBFB"/>
            <stop offset="16%" stop-color="#F0F0F0"/>
            <stop offset="24%" stop-color="#DCDCDC"/>
            <stop offset="32%" stop-color="#C1C1C1"/>
            <stop offset="39%" stop-color="#9E9E9E"/>
            <stop offset="47%" stop-color="#737373"/>
            <stop offset="55%" stop-color="#404040"/>
            <stop offset="62%" stop-color="#070707"/>
            <stop offset="63%"/>
        </radialGradient>
        <radialGradient id="os9tccgtoe" cx="50%" cy="49.825%" r="49.836%" fx="50%" fy="49.825%" gradientTransform="matrix(.99977 0 0 1 0 0)">
            <stop offset="0%" stop-color="#FFF"/>
            <stop offset="8%" stop-color="#FBFBFB"/>
            <stop offset="16%" stop-color="#F0F0F0"/>
            <stop offset="24%" stop-color="#DCDCDC"/>
            <stop offset="32%" stop-color="#C1C1C1"/>
            <stop offset="39%" stop-color="#9E9E9E"/>
            <stop offset="47%" stop-color="#737373"/>
            <stop offset="55%" stop-color="#404040"/>
            <stop offset="62%" stop-color="#070707"/>
            <stop offset="63%"/>
        </radialGradient>
        <radialGradient id="gdj8lgpk3f" cx="50.699%" cy="50%" r="50.011%" fx="50.699%" fy="50%" gradientTransform="matrix(.99977 0 0 1 0 0)">
            <stop offset="0%" stop-color="#FFF"/>
            <stop offset="8%" stop-color="#FBFBFB"/>
            <stop offset="16%" stop-color="#F0F0F0"/>
            <stop offset="24%" stop-color="#DCDCDC"/>
            <stop offset="32%" stop-color="#C1C1C1"/>
            <stop offset="39%" stop-color="#9E9E9E"/>
            <stop offset="47%" stop-color="#737373"/>
            <stop offset="55%" stop-color="#404040"/>
            <stop offset="62%" stop-color="#070707"/>
            <stop offset="63%"/>
        </radialGradient>
        <radialGradient id="amfnq7xrxg" cx="50%" cy="50.175%" r="50.011%" fx="50%" fy="50.175%" gradientTransform="matrix(.99977 0 0 1 0 0)">
            <stop offset="0%" stop-color="#FFF"/>
            <stop offset="8%" stop-color="#FBFBFB"/>
            <stop offset="16%" stop-color="#F0F0F0"/>
            <stop offset="24%" stop-color="#DCDCDC"/>
            <stop offset="32%" stop-color="#C1C1C1"/>
            <stop offset="39%" stop-color="#9E9E9E"/>
            <stop offset="47%" stop-color="#737373"/>
            <stop offset="55%" stop-color="#404040"/>
            <stop offset="62%" stop-color="#070707"/>
            <stop offset="63%"/>
        </radialGradient>
        <radialGradient id="lryuh6i78h" cx="50.175%" cy="49.825%" r="49.836%" fx="50.175%" fy="49.825%" gradientTransform="matrix(.99977 0 0 1 0 0)">
            <stop offset="0%" stop-color="#FFF"/>
            <stop offset="8%" stop-color="#FBFBFB"/>
            <stop offset="16%" stop-color="#F0F0F0"/>
            <stop offset="24%" stop-color="#DCDCDC"/>
            <stop offset="32%" stop-color="#C1C1C1"/>
            <stop offset="39%" stop-color="#9E9E9E"/>
            <stop offset="47%" stop-color="#737373"/>
            <stop offset="55%" stop-color="#404040"/>
            <stop offset="62%" stop-color="#070707"/>
            <stop offset="63%"/>
        </radialGradient>
        <radialGradient id="6srn5rasdi" cx="50%" cy="49.825%" r="49.836%" fx="50%" fy="49.825%" gradientTransform="matrix(.99977 0 0 1 0 0)">
            <stop offset="0%" stop-color="#FFF"/>
            <stop offset="8%" stop-color="#FBFBFB"/>
            <stop offset="16%" stop-color="#F0F0F0"/>
            <stop offset="24%" stop-color="#DCDCDC"/>
            <stop offset="32%" stop-color="#C1C1C1"/>
            <stop offset="39%" stop-color="#9E9E9E"/>
            <stop offset="47%" stop-color="#737373"/>
            <stop offset="55%" stop-color="#404040"/>
            <stop offset="62%" stop-color="#070707"/>
            <stop offset="63%"/>
        </radialGradient>
        <radialGradient id="ok1ifkjvnj" cx="50%" cy="50%" r="49.837%" fx="50%" fy="50%" gradientTransform="matrix(.99977 0 0 1 0 0)">
            <stop offset="0%" stop-color="#FFF"/>
            <stop offset="8%" stop-color="#FBFBFB"/>
            <stop offset="16%" stop-color="#F0F0F0"/>
            <stop offset="24%" stop-color="#DCDCDC"/>
            <stop offset="32%" stop-color="#C1C1C1"/>
            <stop offset="39%" stop-color="#9E9E9E"/>
            <stop offset="47%" stop-color="#737373"/>
            <stop offset="55%" stop-color="#404040"/>
            <stop offset="62%" stop-color="#070707"/>
            <stop offset="63%"/>
        </radialGradient>
        <radialGradient id="gj7z8i7v7k" cx="50.401%" cy="50.097%" r="50.025%" fx="50.401%" fy="50.097%" gradientTransform="matrix(.99924 0 0 1 0 0)">
            <stop offset="0%" stop-color="#FFF"/>
            <stop offset="8%" stop-color="#FBFBFB"/>
            <stop offset="16%" stop-color="#F0F0F0"/>
            <stop offset="24%" stop-color="#DCDCDC"/>
            <stop offset="32%" stop-color="#C1C1C1"/>
            <stop offset="39%" stop-color="#9E9E9E"/>
            <stop offset="47%" stop-color="#737373"/>
            <stop offset="55%" stop-color="#404040"/>
            <stop offset="62%" stop-color="#070707"/>
            <stop offset="63%"/>
        </radialGradient>
        <radialGradient id="9irrk2pokl" cx="50%" cy="50%" r="50.011%" fx="50%" fy="50%" gradientTransform="matrix(.99977 0 0 1 0 0)">
            <stop offset="0%" stop-color="#FFF"/>
            <stop offset="8%" stop-color="#FBFBFB"/>
            <stop offset="16%" stop-color="#F0F0F0"/>
            <stop offset="24%" stop-color="#DCDCDC"/>
            <stop offset="32%" stop-color="#C1C1C1"/>
            <stop offset="39%" stop-color="#9E9E9E"/>
            <stop offset="47%" stop-color="#737373"/>
            <stop offset="55%" stop-color="#404040"/>
            <stop offset="62%" stop-color="#070707"/>
            <stop offset="63%"/>
        </radialGradient>
        <radialGradient id="rcfv6bvrzm" cx="50.32%" cy="49.68%" r="49.69%" fx="50.32%" fy="49.68%" gradientTransform="matrix(.99977 0 0 1 0 0)">
            <stop offset="0%" stop-color="#FFF"/>
            <stop offset="8%" stop-color="#FBFBFB"/>
            <stop offset="16%" stop-color="#F0F0F0"/>
            <stop offset="24%" stop-color="#DCDCDC"/>
            <stop offset="32%" stop-color="#C1C1C1"/>
            <stop offset="39%" stop-color="#9E9E9E"/>
            <stop offset="47%" stop-color="#737373"/>
            <stop offset="55%" stop-color="#404040"/>
            <stop offset="62%" stop-color="#070707"/>
            <stop offset="63%"/>
        </radialGradient>
        <radialGradient id="j8v6e094yn" cx="48.717%" cy="50.001%" r="49.69%" fx="48.717%" fy="50.001%" gradientTransform="matrix(.99977 0 0 1 0 0)">
            <stop offset="0%" stop-color="#FFF"/>
            <stop offset="8%" stop-color="#FBFBFB"/>
            <stop offset="16%" stop-color="#F0F0F0"/>
            <stop offset="24%" stop-color="#DCDCDC"/>
            <stop offset="32%" stop-color="#C1C1C1"/>
            <stop offset="39%" stop-color="#9E9E9E"/>
            <stop offset="47%" stop-color="#737373"/>
            <stop offset="55%" stop-color="#404040"/>
            <stop offset="62%" stop-color="#070707"/>
            <stop offset="63%"/>
        </radialGradient>
        <radialGradient id="1pu68uhzvo" cx="50%" cy="49.679%" r="49.69%" fx="50%" fy="49.679%" gradientTransform="matrix(.99977 0 0 1 0 0)">
            <stop offset="0%" stop-color="#FFF"/>
            <stop offset="8%" stop-color="#FBFBFB"/>
            <stop offset="16%" stop-color="#F0F0F0"/>
            <stop offset="24%" stop-color="#DCDCDC"/>
            <stop offset="32%" stop-color="#C1C1C1"/>
            <stop offset="39%" stop-color="#9E9E9E"/>
            <stop offset="47%" stop-color="#737373"/>
            <stop offset="55%" stop-color="#404040"/>
            <stop offset="62%" stop-color="#070707"/>
            <stop offset="63%"/>
        </radialGradient>
        <radialGradient id="o77l3spekp" cx="50.321%" cy="50%" r="49.69%" fx="50.321%" fy="50%" gradientTransform="matrix(.99977 0 0 1 0 0)">
            <stop offset="0%" stop-color="#FFF"/>
            <stop offset="8%" stop-color="#FBFBFB"/>
            <stop offset="16%" stop-color="#F0F0F0"/>
            <stop offset="24%" stop-color="#DCDCDC"/>
            <stop offset="32%" stop-color="#C1C1C1"/>
            <stop offset="39%" stop-color="#9E9E9E"/>
            <stop offset="47%" stop-color="#737373"/>
            <stop offset="55%" stop-color="#404040"/>
            <stop offset="62%" stop-color="#070707"/>
            <stop offset="63%"/>
        </radialGradient>
        <radialGradient id="paw5w6z8fq" cx="50.16%" cy="54%" r="49.691%" fx="50.16%" fy="54%" gradientTransform="matrix(.99976 0 0 1 0 0)">
            <stop offset="0%" stop-color="#FFF"/>
            <stop offset="8%" stop-color="#FBFBFB"/>
            <stop offset="16%" stop-color="#F0F0F0"/>
            <stop offset="24%" stop-color="#DCDCDC"/>
            <stop offset="32%" stop-color="#C1C1C1"/>
            <stop offset="39%" stop-color="#9E9E9E"/>
            <stop offset="47%" stop-color="#737373"/>
            <stop offset="55%" stop-color="#404040"/>
            <stop offset="62%" stop-color="#070707"/>
            <stop offset="63%"/>
        </radialGradient>
        <radialGradient id="jio4mnz6sr" cx="49.675%" cy="50.323%" r="50.011%" fx="49.675%" fy="50.323%" gradientTransform="matrix(.99975 0 0 1 0 0)">
            <stop offset="0%" stop-color="#FFF"/>
            <stop offset="8%" stop-color="#FBFBFB"/>
            <stop offset="16%" stop-color="#F0F0F0"/>
            <stop offset="24%" stop-color="#DCDCDC"/>
            <stop offset="32%" stop-color="#C1C1C1"/>
            <stop offset="39%" stop-color="#9E9E9E"/>
            <stop offset="47%" stop-color="#737373"/>
            <stop offset="55%" stop-color="#404040"/>
            <stop offset="62%" stop-color="#070707"/>
            <stop offset="63%"/>
        </radialGradient>
        <radialGradient id="ss4kj0b5xs" cx="49.983%" cy="51.294%" r="50.011%" fx="49.983%" fy="51.294%" gradientTransform="matrix(.99978 0 0 1 0 0)">
            <stop offset="0%" stop-color="#FFF"/>
            <stop offset="8%" stop-color="#FBFBFB"/>
            <stop offset="16%" stop-color="#F0F0F0"/>
            <stop offset="24%" stop-color="#DCDCDC"/>
            <stop offset="32%" stop-color="#C1C1C1"/>
            <stop offset="39%" stop-color="#9E9E9E"/>
            <stop offset="47%" stop-color="#737373"/>
            <stop offset="55%" stop-color="#404040"/>
            <stop offset="62%" stop-color="#070707"/>
            <stop offset="63%"/>
        </radialGradient>
        <radialGradient id="uds7xsm3at" cx="49.279%" cy="49.931%" r="50.004%" fx="49.279%" fy="49.931%" gradientTransform="matrix(.9999 0 0 1 0 0)">
            <stop offset="0%" stop-color="#FFF"/>
            <stop offset="8%" stop-color="#FBFBFB"/>
            <stop offset="16%" stop-color="#F0F0F0"/>
            <stop offset="24%" stop-color="#DCDCDC"/>
            <stop offset="32%" stop-color="#C1C1C1"/>
            <stop offset="39%" stop-color="#9E9E9E"/>
            <stop offset="47%" stop-color="#737373"/>
            <stop offset="55%" stop-color="#404040"/>
            <stop offset="62%" stop-color="#070707"/>
            <stop offset="63%"/>
        </radialGradient>
        <radialGradient id="uwcxbtvxru" cx="50%" cy="49.356%" r="50.011%" fx="50%" fy="49.356%" gradientTransform="matrix(.99977 0 0 1 0 0)">
            <stop offset="0%" stop-color="#FFF"/>
            <stop offset="8%" stop-color="#FBFBFB"/>
            <stop offset="16%" stop-color="#F0F0F0"/>
            <stop offset="24%" stop-color="#DCDCDC"/>
            <stop offset="32%" stop-color="#C1C1C1"/>
            <stop offset="39%" stop-color="#9E9E9E"/>
            <stop offset="47%" stop-color="#737373"/>
            <stop offset="55%" stop-color="#404040"/>
            <stop offset="62%" stop-color="#070707"/>
            <stop offset="63%"/>
        </radialGradient>
        <radialGradient id="5wxyp4mn7v" cx="49.679%" cy="50%" r="49.691%" fx="49.679%" fy="50%" gradientTransform="matrix(.99977 0 0 1 0 0)">
            <stop offset="0%" stop-color="#FFF"/>
            <stop offset="8%" stop-color="#FBFBFB"/>
            <stop offset="16%" stop-color="#F0F0F0"/>
            <stop offset="24%" stop-color="#DCDCDC"/>
            <stop offset="32%" stop-color="#C1C1C1"/>
            <stop offset="39%" stop-color="#9E9E9E"/>
            <stop offset="47%" stop-color="#737373"/>
            <stop offset="55%" stop-color="#404040"/>
            <stop offset="62%" stop-color="#070707"/>
            <stop offset="63%"/>
        </radialGradient>
        <radialGradient id="nhrky4ttsw" cx="50%" cy="50%" r="50.011%" fx="50%" fy="50%" gradientTransform="matrix(.99977 0 0 1 0 0)">
            <stop offset="0%" stop-color="#FFF"/>
            <stop offset="8%" stop-color="#FBFBFB"/>
            <stop offset="16%" stop-color="#F0F0F0"/>
            <stop offset="24%" stop-color="#DCDCDC"/>
            <stop offset="32%" stop-color="#C1C1C1"/>
            <stop offset="39%" stop-color="#9E9E9E"/>
            <stop offset="47%" stop-color="#737373"/>
            <stop offset="55%" stop-color="#404040"/>
            <stop offset="62%" stop-color="#070707"/>
            <stop offset="63%"/>
        </radialGradient>
        <radialGradient id="xje2jzl8fx" cx="49.999%" cy="50.001%" r="50.011%" fx="49.999%" fy="50.001%" gradientTransform="matrix(.99977 0 0 1 0 0)">
            <stop offset="0%" stop-color="#FFF"/>
            <stop offset="8%" stop-color="#FBFBFB"/>
            <stop offset="16%" stop-color="#F0F0F0"/>
            <stop offset="24%" stop-color="#DCDCDC"/>
            <stop offset="32%" stop-color="#C1C1C1"/>
            <stop offset="39%" stop-color="#9E9E9E"/>
            <stop offset="47%" stop-color="#737373"/>
            <stop offset="55%" stop-color="#404040"/>
            <stop offset="62%" stop-color="#070707"/>
            <stop offset="63%"/>
        </radialGradient>
        <radialGradient id="ut40qfvgdy" cx="50.321%" cy="49.68%" r="49.69%" fx="50.321%" fy="49.68%" gradientTransform="matrix(.99977 0 0 1 0 0)">
            <stop offset="0%" stop-color="#FFF"/>
            <stop offset="8%" stop-color="#FBFBFB"/>
            <stop offset="16%" stop-color="#F0F0F0"/>
            <stop offset="24%" stop-color="#DCDCDC"/>
            <stop offset="32%" stop-color="#C1C1C1"/>
            <stop offset="39%" stop-color="#9E9E9E"/>
            <stop offset="47%" stop-color="#737373"/>
            <stop offset="55%" stop-color="#404040"/>
            <stop offset="62%" stop-color="#070707"/>
            <stop offset="63%"/>
        </radialGradient>
        <radialGradient id="2ndczhzq0z" cx="49.072%" cy="49.654%" r="50.004%" fx="49.072%" fy="49.654%" gradientTransform="matrix(.9999 0 0 1 0 0)">
            <stop offset="0%" stop-color="#FFF"/>
            <stop offset="8%" stop-color="#FBFBFB"/>
            <stop offset="16%" stop-color="#F0F0F0"/>
            <stop offset="24%" stop-color="#DCDCDC"/>
            <stop offset="32%" stop-color="#C1C1C1"/>
            <stop offset="39%" stop-color="#9E9E9E"/>
            <stop offset="47%" stop-color="#737373"/>
            <stop offset="55%" stop-color="#404040"/>
            <stop offset="62%" stop-color="#070707"/>
            <stop offset="63%"/>
        </radialGradient>
        <radialGradient id="43bs963vbA" cx="49.196%" cy="50%" r="50.011%" fx="49.196%" fy="50%" gradientTransform="matrix(.99977 0 0 1 0 0)">
            <stop offset="0%" stop-color="#FFF"/>
            <stop offset="8%" stop-color="#FBFBFB"/>
            <stop offset="16%" stop-color="#F0F0F0"/>
            <stop offset="24%" stop-color="#DCDCDC"/>
            <stop offset="32%" stop-color="#C1C1C1"/>
            <stop offset="39%" stop-color="#9E9E9E"/>
            <stop offset="47%" stop-color="#737373"/>
            <stop offset="55%" stop-color="#404040"/>
            <stop offset="62%" stop-color="#070707"/>
            <stop offset="63%"/>
        </radialGradient>
        <radialGradient id="f9g88433dB" cx="50%" cy="49.679%" r="49.689%" fx="50%" fy="49.679%" gradientTransform="matrix(.99978 0 0 1 0 0)">
            <stop offset="0%" stop-color="#FFF"/>
            <stop offset="8%" stop-color="#FBFBFB"/>
            <stop offset="16%" stop-color="#F0F0F0"/>
            <stop offset="24%" stop-color="#DCDCDC"/>
            <stop offset="32%" stop-color="#C1C1C1"/>
            <stop offset="39%" stop-color="#9E9E9E"/>
            <stop offset="47%" stop-color="#737373"/>
            <stop offset="55%" stop-color="#404040"/>
            <stop offset="62%" stop-color="#070707"/>
            <stop offset="63%"/>
        </radialGradient>
        <radialGradient id="29z73smh9C" cx="49.982%" cy="50.964%" r="49.688%" fx="49.982%" fy="50.964%" gradientTransform="matrix(.99965 0 0 1 0 0)">
            <stop offset="0%" stop-color="#FFF"/>
            <stop offset="8%" stop-color="#FBFBFB"/>
            <stop offset="16%" stop-color="#F0F0F0"/>
            <stop offset="24%" stop-color="#DCDCDC"/>
            <stop offset="32%" stop-color="#C1C1C1"/>
            <stop offset="39%" stop-color="#9E9E9E"/>
            <stop offset="47%" stop-color="#737373"/>
            <stop offset="55%" stop-color="#404040"/>
            <stop offset="62%" stop-color="#070707"/>
            <stop offset="63%"/>
        </radialGradient>
        <radialGradient id="wcwg38sucD" cx="49.999%" cy="51.613%" r="50.011%" fx="49.999%" fy="51.613%" gradientTransform="matrix(.99977 0 0 1 0 0)">
            <stop offset="0%" stop-color="#FFF"/>
            <stop offset="8%" stop-color="#FBFBFB"/>
            <stop offset="16%" stop-color="#F0F0F0"/>
            <stop offset="24%" stop-color="#DCDCDC"/>
            <stop offset="32%" stop-color="#C1C1C1"/>
            <stop offset="39%" stop-color="#9E9E9E"/>
            <stop offset="47%" stop-color="#737373"/>
            <stop offset="55%" stop-color="#404040"/>
            <stop offset="62%" stop-color="#070707"/>
            <stop offset="63%"/>
        </radialGradient>
        <path id="gbyuy6ax5a" d="M4 0h1119c2.21 0 4 1.79 4 4v269H0V4c0-2.21 1.79-4 4-4z"/>
        <path id="d0piuwsrmE" d="M4 0h1119c2.21 0 4 1.79 4 4v269H0V4c0-2.21 1.79-4 4-4z"/>
    </defs>
    <g fill="none" fill-rule="evenodd">
        <g>
            <g>
                <g>
                    <g transform="translate(-237 -194) translate(237 194)">
                        <mask id="4ba6pzg0lb" fill="#fff">
                            <use xlink:href="#gbyuy6ax5a"/>
                        </mask>
                        <use fill="#156CE4" xlink:href="#gbyuy6ax5a"/>
                        <g mask="url(#4ba6pzg0lb)">
                            <g>
                                <g style="mix-blend-mode:overlay" stroke-linecap="round" stroke-linejoin="round">
                                    <path stroke="#0C033E" stroke-dasharray="1" d="M114.518 342.831C509.596 86.327 685.68 742.841 1205.809.597" transform="translate(-116 -274)"/>
                                    <path stroke="#140B44" stroke-dasharray="1" stroke-width="1.06" d="M116.957 353.784c408.75-271.233 584.652 386.02 1093.95-333.837" transform="translate(-116 -274)"/>
                                    <path stroke="#1C134A" stroke-dasharray="1" stroke-width="1.13" d="M119.382 364.75C541.82 78.787 717.54 736.768 1216.018 39.244" transform="translate(-116 -274)"/>
                                    <path stroke="#241B51" stroke-dasharray="1" stroke-width="1.19" d="M121.821 375.652C557.943 74.972 733.456 733.679 1221.117 58.49" transform="translate(-116 -274)"/>
                                    <path stroke="#2B2457" stroke-dasharray="1" stroke-width="1.26" d="M124.247 386.67C574.055 71.312 749.386 730.695 1226.227 77.8" transform="translate(-116 -274)"/>
                                    <path stroke="#332C5D" stroke-dasharray="1" stroke-width="1.32" d="M126.673 397.623C590.166 67.497 765.316 727.658 1231.326 97.138" transform="translate(-116 -274)"/>
                                    <path stroke="#3B3463" stroke-dasharray="1" stroke-width="1.39" d="M129.111 408.589c477.18-344.856 652.173 316.032 1107.326-292.14" transform="translate(-116 -274)"/>
                                    <path stroke="#433C6A" stroke-dasharray="1" stroke-width="1.45" d="M131.537 419.542C622.402 59.97 797.175 721.597 1241.535 135.746" transform="translate(-116 -274)"/>
                                    <path stroke="#4B4470" stroke-dasharray="1" stroke-width="1.52" d="M133.976 430.508C638.59 56.206 813.118 718.612 1246.659 155.044" transform="translate(-116 -274)"/>
                                    <path stroke="#534C76" stroke-dasharray="1" stroke-width="1.58" d="M136.402 441.461C654.625 52.508 829.035 715.524 1251.744 174.342" transform="translate(-116 -274)"/>
                                    <path stroke="#5A547C" stroke-dasharray="1" stroke-width="1.65" d="M138.828 452.427C670.748 48.68 844.964 712.487 1256.842 193.64" transform="translate(-116 -274)"/>
                                    <path stroke="#625C82" stroke-dasharray="1" stroke-width="1.71" d="M141.253 463.38c545.607-418.464 719.628 246.07 1120.7-250.468" transform="translate(-116 -274)"/>
                                    <path stroke="#6A6589" stroke-dasharray="1" stroke-width="1.77" d="M143.68 474.347C702.971 41.152 876.81 706.413 1267.063 232.248" transform="translate(-116 -274)"/>
                                    <path stroke="#726D8F" stroke-dasharray="1" stroke-width="1.84" d="M146.118 485.3C719.096 37.389 892.74 703.325 1272.162 251.546" transform="translate(-116 -274)"/>
                                    <path stroke="#7A7595" stroke-dasharray="1" stroke-width="1.9" d="M148.544 496.266C735.207 33.626 908.709 700.34 1277.26 270.844" transform="translate(-116 -274)"/>
                                    <path stroke="#827D9B" stroke-dasharray="1" stroke-width="1.97" d="M150.97 507.22C751.318 29.861 924.6 697.302 1282.37 290.141" transform="translate(-116 -274)"/>
                                    <path stroke="#8985A2" stroke-dasharray="1" stroke-width="2.03" d="M153.434 518.185C767.443 26.098 940.53 694.266 1287.47 309.465" transform="translate(-116 -274)"/>
                                    <path stroke="#918DA8" stroke-dasharray="1" stroke-width="2.1" d="M155.834 529.138c627.72-506.803 800.574 162.104 1136.733-200.4" transform="translate(-116 -274)"/>
                                    <path stroke="#9995AE" stroke-dasharray="1" stroke-width="2.16" d="M158.26 540.105c641.406-521.534 814.13 148.1 1139.418-192.07" transform="translate(-116 -274)"/>
                                    <path stroke="#A19DB4" stroke-dasharray="1" stroke-width="2.23" d="M160.698 551.058c655.079-536.186 827.608 134.11 1142.065-183.712" transform="translate(-116 -274)"/>
                                    <path stroke="#A9A6BB" stroke-dasharray="1" stroke-width="2.29" d="M163.124 562.024c668.751-550.98 841.112 120.108 1144.828-175.38" transform="translate(-116 -274)"/>
                                    <path stroke="#B1AEC1" stroke-dasharray="1" stroke-width="2.35" d="M165.55 572.977C848.013 7.28 1020.166 679.095 1312.985 405.941" transform="translate(-116 -274)"/>
                                    <path stroke="#B8B6C7" stroke-dasharray="1" stroke-width="2.42" d="M167.989 583.943C864.124 3.517 1036.095 676.085 1318.096 425.24" transform="translate(-116 -274)"/>
                                    <path stroke="#C0BECD" stroke-dasharray="1" stroke-width="2.48" d="M170.415 594.896C880.248-.26 1052.025 673.022 1323.194 444.537" transform="translate(-116 -274)"/>
                                    <path stroke="#C8C6D3" stroke-dasharray="1" stroke-width="2.55" d="M172.892 605.862C896.36-4.023 1067.968 669.985 1328.292 463.9" transform="translate(-116 -274)"/>
                                    <path stroke="#D0CEDA" stroke-dasharray="1" stroke-width="2.61" d="M175.28 616.816c737.191-624.603 908.605 50.132 1158.123-133.67" transform="translate(-116 -274)"/>
                                    <path stroke="#D8D6E0" stroke-dasharray="1" stroke-width="2.68" d="M177.705 627.782c750.89-639.332 922.11 36.13 1160.796-125.339" transform="translate(-116 -274)"/>
                                    <path stroke="#E0DEE6" stroke-dasharray="1" stroke-width="2.74" d="M180.13 638.735C944.708-15.34 1115.732 660.888 1343.613 521.74" transform="translate(-116 -274)"/>
                                    <path stroke="#E7E7EC" stroke-dasharray="1" stroke-width="2.81" d="M182.556 649.701c778.262-668.778 949.105 8.15 1166.193-108.662" transform="translate(-116 -274)"/>
                                    <path stroke="#EFEFF3" stroke-dasharray="1" stroke-width="2.87" d="M184.995 660.654c791.935-683.495 962.596-5.84 1168.787-100.317" transform="translate(-116 -274)"/>
                                    <path stroke="#F7F7F9" stroke-dasharray="1" stroke-width="2.94" d="M187.421 671.62c805.633-698.198 976.1-19.843 1171.498-91.972" transform="translate(-116 -274)"/>
                                    <path stroke="#FFF" stroke-dasharray="1" stroke-width="3" d="M189.847 682.573c819.318-712.94 989.603-33.832 1174.183-83.628" transform="translate(-116 -274)"/>
                                    <path stroke="#FFF" d="M.649 417.31c394.053-198.558 435.862 938.285 1303.697-52.56" transform="translate(-116 -274)"/>
                                    <path stroke="#FEFEFF" stroke-width=".98" d="M1.66 433.311c406.832-230.003 459.006 911.487 1305.993-47.783" transform="translate(-116 -274)"/>
                                    <path stroke="#FDFDFE" stroke-width=".95" d="M2.633 449.3c419.661-261.448 482.2 884.74 1308.393-42.995" transform="translate(-116 -274)"/>
                                    <path stroke="#FCFDFE" stroke-width=".93" d="M3.632 465.301C436.083 172.395 509 1323.294 1314.438 427.082" transform="translate(-116 -274)"/>
                                    <path stroke="#FBFCFE" stroke-width=".9" d="M4.618 481.303c445.268-324.364 528.562 831.232 1313.154-33.444" transform="translate(-116 -274)"/>
                                    <path stroke="#FAFBFD" stroke-width=".88" d="M5.617 497.304c458.058-355.821 551.73 804.486 1315.527-28.667" transform="translate(-116 -274)"/>
                                    <path stroke="#F9FAFD" stroke-width=".85" d="M6.616 513.306c470.887-387.28 574.91 777.725 1317.966-23.905" transform="translate(-116 -274)"/>
                                    <path stroke="#F8F9FD" stroke-width=".83" d="M7.602 529.307c483.665-418.724 598.092 750.979 1320.288-19.129" transform="translate(-116 -274)"/>
                                    <path stroke="#F6F9FC" stroke-width=".81" d="M8.6 545.309c496.47-450.183 621.274 724.218 1322.702-14.354" transform="translate(-116 -274)"/>
                                    <path stroke="#F5F8FC" stroke-width=".78" d="M9.586 561.297c509.272-481.627 644.455 697.485 1325.05-9.564" transform="translate(-116 -274)"/>
                                    <path stroke="#F4F7FC" stroke-width=".76" d="M10.585 577.299c522.076-513.111 667.636 670.724 1327.423-4.79" transform="translate(-116 -274)"/>
                                    <path stroke="#F3F6FB" stroke-width=".73" d="M11.584 593.3c534.88-544.543 690.804 643.978 1329.797 0" transform="translate(-116 -274)"/>
                                    <path stroke="#F2F5FB" stroke-width=".71" d="M12.57 609.25c547.682-576.001 713.998 617.217 1332.236 4.762" transform="translate(-116 -274)"/>
                                    <path stroke="#F1F5FB" stroke-width=".69" d="M13.569 625.303c560.486-607.446 737.166 590.47 1334.596 9.539" transform="translate(-116 -274)"/>
                                    <path stroke="#F0F4FA" stroke-width=".66" d="M14.633 641.304C587.909 2.401 774.98 1205.015 1351.564 655.58" transform="translate(-116 -274)"/>
                                    <path stroke="#EFF3FA" stroke-width=".64" d="M15.554 657.267c586.092-670.361 783.515 536.964 1339.318 19.09" transform="translate(-116 -274)"/>
                                    <path stroke="#EEF2FA" stroke-width=".61" d="M16.552 673.294c598.884-701.806 806.697 510.23 1341.706 23.88" transform="translate(-116 -274)"/>
                                    <path stroke="#EDF1FA" stroke-width=".59" d="M17.551 689.296c611.687-733.264 829.89 483.47 1344.08 28.655" transform="translate(-116 -274)"/>
                                    <path stroke="#ECF0F9" stroke-width=".56" d="M18.524 705.284C643.027-59.425 871.596 1162.02 1365.03 738.728" transform="translate(-116 -274)"/>
                                    <path stroke="#EBF0F9" stroke-width=".54" d="M19.536 721.299c637.294-796.167 876.24 429.963 1348.84 38.193" transform="translate(-116 -274)"/>
                                    <path stroke="#EAEFF9" stroke-width=".52" d="M20.522 737.3c650.097-827.625 899.421 403.216 1351.227 42.97" transform="translate(-116 -274)"/>
                                    <path stroke="#E9EEF8" stroke-width=".49" d="M21.52 753.302c662.875-859.122 922.603 376.456 1353.601 47.745" transform="translate(-116 -274)"/>
                                    <path stroke="#E8EDF8" stroke-width=".47" d="M22.52 769.303c675.743-890.54 945.77 349.71 1355.974 52.52" transform="translate(-116 -274)"/>
                                    <path stroke="#E7ECF8" stroke-width=".44" d="M23.505 785.292C712.013-136.694 992.47 1108.254 1381.893 842.6" transform="translate(-116 -274)"/>
                                    <path stroke="#E5ECF7" stroke-width=".42" d="M24.504 801.32c701.298-953.444 992.133 296.214 1360.775 62.084" transform="translate(-116 -274)"/>
                                    <path stroke="#E4EBF7" stroke-width=".4" d="M25.503 817.295c714.102-984.889 1015.314 269.455 1363.11 66.86" transform="translate(-116 -274)"/>
                                    <path stroke="#E3EAF7" stroke-width=".37" d="M26.489 833.296c726.905-1016.346 1038.495 242.682 1365.496 71.637" transform="translate(-116 -274)"/>
                                    <path stroke="#E2E9F6" stroke-width=".35" d="M27.488 849.336c739.708-1047.803 1061.676 215.949 1367.87 76.413" transform="translate(-116 -274)"/>
                                    <path stroke="#E1E8F6" stroke-width=".32" d="M28.474 865.299C780.986-213.963 1113.37 1054.5 1398.757 946.487" transform="translate(-116 -274)"/>
                                    <path stroke="#E0E8F6" stroke-width=".3" d="M29.473 881.3c765.354-1110.72 1108.025 162.442 1372.63 85.964" transform="translate(-116 -274)"/>
                                    <path stroke="#DFE7F5" stroke-width=".27" d="M30.471 897.354C808.577-244.811 1161.64 1033.06 1405.515 988.107" transform="translate(-116 -274)"/>
                                    <path stroke="#DEE6F5" stroke-width=".25" d="M31.496 913.29c790.923-1173.609 1154.388 109.013 1377.392 95.516" transform="translate(-116 -274)"/>
                                    <path stroke="#688BD0" stroke-dasharray="1" stroke-width="1.52" d="M1302.84 688.413c-724.4 453.284-864.525-217.79-1167.567-143.338" transform="translate(-116 -274)"/>
                                    <path stroke="#6285CE" stroke-dasharray="1" stroke-width="1.45" d="M1304.346 676.63c-737.322 466.196-882.39-218.505-1170.37-153.306" transform="translate(-116 -274)"/>
                                    <path stroke="#5B80CC" stroke-dasharray="1" stroke-width="1.39" d="M1305.85 664.781c-750.28 479.148-900.2-219.14-1173.055-163.246" transform="translate(-116 -274)"/>
                                    <path stroke="#557BCA" stroke-dasharray="1" stroke-width="1.32" d="M1307.368 652.945C544.18 1145.072 389.318 433.143 131.563 479.823" transform="translate(-116 -274)"/>
                                    <path stroke="#4E76C8" stroke-dasharray="1" stroke-width="1.26" d="M1308.873 641.11C532.765 1146.188 372.987 420.645 130.33 458.06" transform="translate(-116 -274)"/>
                                    <path stroke="#4871C6" stroke-dasharray="1" stroke-width="1.19" d="M1310.378 629.274C521.336 1147.317 356.655 408.161 129.098 436.31" transform="translate(-116 -274)"/>
                                    <path stroke="#416CC4" stroke-dasharray="1" stroke-width="1.13" d="M1311.843 617.426c-801.922 531.02-971.52-221.763-1183.977-202.841" transform="translate(-116 -274)"/>
                                    <path stroke="#3B67C2" stroke-dasharray="1" stroke-width="1.06" d="M1313.4 605.59C498.492 1149.562 323.978 383.166 126.647 392.808" transform="translate(-116 -274)"/>
                                    <path stroke="#3462C0" stroke-dasharray="1" d="M1314.905 593.754C487.077 1150.691 307.647 370.681 125.415 371.057" transform="translate(-116 -274)"/>
                                </g>
                                <g opacity=".69" style="mix-blend-mode:screen" fill-rule="nonzero" transform="translate(-116 -274) translate(236 419)">
                                    <path fill="url(#bwna7oyhkc)" d="M545.043 49.421c0 4.1-3.323 7.422-7.423 7.422s-7.423-3.323-7.423-7.422c0-4.098 3.323-7.421 7.423-7.421 4.097.007 7.416 3.326 7.423 7.421z" style="mix-blend-mode:overlay"/>
                                    <path fill="url(#jusnzrsn8d)" d="M759.476 128.815c0 2.05-1.662 3.71-3.712 3.71-2.05 0-3.711-1.66-3.711-3.71s1.662-3.71 3.711-3.71c2.05 0 3.712 1.66 3.712 3.71z" style="mix-blend-mode:overlay"/>
                                    <path fill="url(#os9tccgtoe)" d="M402.339 11.47c.005 1.507-.899 2.869-2.29 3.45-1.392.58-2.996.264-4.064-.8-1.068-1.063-1.389-2.666-.813-4.06.576-1.392 1.935-2.301 3.442-2.301 2.052 0 3.718 1.66 3.725 3.71z" style="mix-blend-mode:overlay"/>
                                    <path fill="url(#gdj8lgpk3f)" d="M136.63 85.583c0 2.049-1.661 3.71-3.711 3.71s-3.712-1.661-3.712-3.71c0-2.05 1.662-3.711 3.712-3.711 2.047.007 3.705 1.664 3.712 3.71z" style="mix-blend-mode:overlay"/>
                                    <path fill="url(#jusnzrsn8d)" d="M254.418 42c0 2.05-1.662 3.71-3.712 3.71-2.05 0-3.712-1.66-3.712-3.71s1.662-3.711 3.712-3.711c.984 0 1.928.39 2.624 1.087.697.696 1.088 1.64 1.088 2.624zM298.737 81.872c0 2.05-1.662 3.71-3.712 3.71-2.05 0-3.711-1.66-3.711-3.71s1.661-3.711 3.711-3.711 3.712 1.661 3.712 3.71zM228.695 93.017c0 2.05-1.661 3.711-3.711 3.711s-3.712-1.661-3.712-3.71c0-2.05 1.662-3.712 3.712-3.712.984 0 1.928.391 2.624 1.087.696.696 1.087 1.64 1.087 2.624zM346.43 49.421c0 2.05-1.661 3.711-3.711 3.711s-3.712-1.661-3.712-3.71c0-2.05 1.662-3.711 3.712-3.711 2.047.007 3.704 1.664 3.711 3.71z" style="mix-blend-mode:overlay"/>
                                    <path fill="url(#amfnq7xrxg)" d="M390.737 89.306c-.007 2.048-1.672 3.703-3.72 3.698-2.049-.005-3.706-1.667-3.704-3.715.003-2.048 1.664-3.706 3.712-3.706.987 0 1.933.392 2.63 1.091.696.699 1.085 1.646 1.082 2.632z" style="mix-blend-mode:overlay"/>
                                    <path fill="url(#jusnzrsn8d)" d="M88.016 76.552c0 2.05-1.662 3.71-3.712 3.71-2.05 0-3.712-1.66-3.712-3.71s1.662-3.71 3.712-3.71c2.05 0 3.712 1.66 3.712 3.71zM205.75 32.956c0 2.05-1.661 3.711-3.711 3.711s-3.712-1.661-3.712-3.71c0-2.05 1.662-3.712 3.712-3.712 2.047.008 3.705 1.665 3.712 3.711z" style="mix-blend-mode:overlay"/>
                                    <path fill="url(#amfnq7xrxg)" d="M250.07 72.841c-.007 2.048-1.672 3.703-3.72 3.698-2.048-.005-3.706-1.667-3.703-3.715.002-2.048 1.663-3.707 3.711-3.707.987 0 1.933.393 2.63 1.092.696.699 1.085 1.646 1.082 2.632z" style="mix-blend-mode:overlay"/>
                                    <path fill="url(#lryuh6i78h)" d="M492.483 112.35c.005 1.508-.9 2.87-2.293 3.45-1.393.58-2.998.262-4.065-.804-1.067-1.067-1.385-2.672-.805-4.064.58-1.393 1.943-2.298 3.451-2.293.985 0 1.929.39 2.625 1.087.696.696 1.087 1.64 1.087 2.624z" style="mix-blend-mode:overlay"/>
                                    <path fill="url(#os9tccgtoe)" d="M610.218 68.767c.005 1.507-.899 2.87-2.29 3.45-1.392.58-2.996.265-4.064-.8-1.068-1.063-1.389-2.666-.813-4.059.576-1.393 1.935-2.302 3.442-2.302 2.052 0 3.718 1.66 3.725 3.711z" style="mix-blend-mode:overlay"/>
                                    <path fill="url(#jusnzrsn8d)" d="M654.524 108.639c0 2.05-1.661 3.71-3.711 3.71s-3.712-1.66-3.712-3.71 1.662-3.71 3.712-3.71c2.05 0 3.711 1.66 3.711 3.71zM803.458 98.337c0 2.05-1.662 3.71-3.712 3.71-2.05 0-3.711-1.66-3.711-3.71s1.661-3.711 3.711-3.711c.985 0 1.929.391 2.625 1.087s1.087 1.64 1.087 2.624z" style="mix-blend-mode:overlay"/>
                                    <path fill="url(#6srn5rasdi)" d="M557.113 63.798c.005 1.508-.9 2.87-2.294 3.45-1.393.58-2.998.262-4.065-.804-1.067-1.067-1.384-2.672-.805-4.064.58-1.393 1.943-2.298 3.452-2.293.984 0 1.928.39 2.625 1.087.696.696 1.087 1.64 1.087 2.624z" style="mix-blend-mode:overlay"/>
                                    <path fill="url(#ok1ifkjvnj)" d="M674.835 20.215c0 2.057-1.668 3.724-3.725 3.724-2.057 0-3.725-1.667-3.725-3.724 0-2.057 1.668-3.724 3.725-3.724 2.057 0 3.725 1.667 3.725 3.724z" style="mix-blend-mode:overlay"/>
                                    <ellipse fill="url(#jusnzrsn8d)" style="mix-blend-mode:overlay" cx="715.429" cy="60.087" rx="3.712" ry="3.711"/>
                                    <path fill="url(#gj7z8i7v7k)" d="M637.575 119.732c1.893.783 2.794 2.95 2.014 4.843-.78 1.894-2.947 2.797-4.842 2.02-1.894-.778-2.8-2.943-2.025-4.838.783-1.897 2.954-2.802 4.853-2.025z" style="mix-blend-mode:overlay"/>
                                    <path fill="url(#9irrk2pokl)" d="M350.363 61.76c0 2.23-1.807 4.036-4.036 4.036-2.23 0-4.036-1.807-4.036-4.035 0-2.229 1.807-4.036 4.036-4.036 1.071-.003 2.1.42 2.857 1.178.758.758 1.182 1.786 1.179 2.858z" style="mix-blend-mode:overlay"/>
                                    <path fill="url(#rcfv6bvrzm)" d="M466.8 104.863c.005.821-.486 1.564-1.244 1.88-.758.317-1.631.145-2.212-.436-.58-.58-.753-1.454-.437-2.211.317-.758 1.06-1.25 1.881-1.244 1.111 0 2.012.9 2.012 2.011z" style="mix-blend-mode:overlay"/>
                                    <path fill="url(#j8v6e094yn)" d="M385.805 72.257c0 1.118-.906 2.024-2.024 2.024-1.118 0-2.025-.906-2.025-2.024 0-1.118.907-2.024 2.025-2.024.538-.003 1.055.209 1.435.59.38.38.593.896.59 1.434z" style="mix-blend-mode:overlay"/>
                                    <path fill="url(#1pu68uhzvo)" d="M409.814 93.9c.005.82-.484 1.561-1.24 1.879-.757.317-1.63.147-2.211-.43-.582-.579-.758-1.45-.445-2.208.313-.758 1.052-1.253 1.872-1.253 1.113 0 2.017.899 2.024 2.011z" style="mix-blend-mode:overlay"/>
                                    <path fill="url(#o77l3spekp)" d="M426.75 111.986c0 .82-.494 1.56-1.253 1.872-.758.312-1.63.137-2.207-.445-.578-.582-.748-1.454-.43-2.21.317-.756 1.059-1.246 1.879-1.24.535 0 1.05.213 1.427.593s.588.895.584 1.43z" style="mix-blend-mode:overlay"/>
                                    <path fill="url(#rcfv6bvrzm)" d="M344.977 107.069c.005.821-.486 1.564-1.244 1.88-.758.317-1.631.145-2.212-.436-.58-.58-.753-1.454-.437-2.212.317-.757 1.06-1.248 1.881-1.243 1.111 0 2.012.9 2.012 2.011z" style="mix-blend-mode:overlay"/>
                                    <path fill="url(#paw5w6z8fq)" d="M356.904 69.558c-.085 1.052-.963 1.863-2.018 1.863-1.056 0-1.934-.81-2.019-1.863-.06-.759.31-1.488.96-1.887.65-.398 1.468-.398 2.117 0 .65.399 1.02 1.128.96 1.887z" style="mix-blend-mode:overlay"/>
                                    <path fill="url(#jio4mnz6sr)" d="M420.845 45.892c-.007 1.11-.91 2.003-2.02 1.998-1.109-.004-2.005-.906-2.003-2.015.003-1.109.903-2.007 2.012-2.007.537-.003 1.052.21 1.43.59.38.38.588.898.581 1.434z" style="mix-blend-mode:overlay"/>
                                    <path fill="url(#ss4kj0b5xs)" d="M444.893 67.534c-.028 1.107-.947 1.983-2.054 1.959-1.107-.024-1.987-.938-1.968-2.045.019-1.107.93-1.99 2.037-1.977.538.007 1.05.23 1.424.617.373.388.575.909.561 1.446z" style="mix-blend-mode:overlay"/>
                                    <path fill="url(#uds7xsm3at)" d="M400.613 99.933c.76.299 1.264 1.028 1.275 1.844.01.817-.473 1.559-1.225 1.878-.752.32-1.622.153-2.202-.422-.58-.574-.756-1.443-.444-2.197.42-1.014 1.575-1.505 2.596-1.103z" style="mix-blend-mode:overlay"/>
                                    <path fill="url(#uwcxbtvxru)" d="M277.142 18.762c.005 1.633-.975 3.108-2.483 3.737s-3.246.287-4.403-.866c-1.157-1.153-1.504-2.89-.88-4.4.623-1.509 2.096-2.494 3.73-2.494 2.224 0 4.029 1.8 4.036 4.023z" style="mix-blend-mode:overlay"/>
                                    <path fill="url(#5wxyp4mn7v)" d="M393.592 61.838c0 1.118-.907 2.025-2.025 2.025-1.118 0-2.024-.907-2.024-2.025 0-1.117.906-2.024 2.024-2.024.537 0 1.052.214 1.432.593.38.38.593.895.593 1.431z" style="mix-blend-mode:overlay"/>
                                    <path fill="url(#nhrky4ttsw)" d="M312.52 29.22c0 1.11-.901 2.01-2.012 2.01s-2.012-.9-2.012-2.01c0-1.111.9-2.012 2.012-2.012 1.11 0 2.011.9 2.011 2.011z" style="mix-blend-mode:overlay"/>
                                    <path fill="url(#xje2jzl8fx)" d="M336.58 50.875c0 1.11-.9 2.01-2.011 2.01-1.111 0-2.012-.9-2.012-2.01 0-1.111.9-2.011 2.012-2.011.534-.004 1.048.207 1.426.585.378.378.589.891.585 1.426z" style="mix-blend-mode:overlay"/>
                                    <path fill="url(#1pu68uhzvo)" d="M353.53 68.949c.005.82-.485 1.562-1.241 1.879-.757.317-1.63.147-2.211-.43-.582-.578-.757-1.45-.445-2.208.313-.758 1.052-1.252 1.872-1.252 1.113 0 2.017.898 2.024 2.01z" style="mix-blend-mode:overlay"/>
                                    <ellipse fill="url(#nhrky4ttsw)" style="mix-blend-mode:overlay" cx="269.744" cy="64.044" rx="2.012" ry="2.011"/>
                                    <path fill="url(#ut40qfvgdy)" d="M283.683 26.547c0 .82-.495 1.558-1.253 1.87-.758.313-1.63.138-2.208-.444-.578-.581-.748-1.454-.43-2.21.317-.756 1.059-1.246 1.879-1.24 1.113.007 2.012.91 2.012 2.024z" style="mix-blend-mode:overlay"/>
                                    <ellipse fill="url(#nhrky4ttsw)" style="mix-blend-mode:overlay" cx="345.6" cy="2.867" rx="2.012" ry="2.011"/>
                                    <path fill="url(#rcfv6bvrzm)" d="M371.672 24.51c.006.82-.486 1.563-1.243 1.88-.758.317-1.632.144-2.213-.436-.58-.58-.753-1.454-.436-2.212.317-.758 1.06-1.249 1.88-1.244.534 0 1.046.212 1.423.59.377.377.59.888.59 1.422z" style="mix-blend-mode:overlay"/>
                                    <path fill="url(#2ndczhzq0z)" d="M327.405 56.908c.76.301 1.262 1.032 1.27 1.85.008.816-.479 1.557-1.232 1.874-.754.316-1.624.145-2.202-.433-.578-.578-.749-1.448-.432-2.201.425-1.009 1.578-1.493 2.596-1.09z" style="mix-blend-mode:overlay"/>
                                    <path fill="url(#43bs963vbA)" d="M79.528 111.636c0 2.229-1.807 4.035-4.036 4.035-2.229 0-4.036-1.806-4.036-4.035 0-2.228 1.807-4.035 4.036-4.035 1.072-.004 2.1.42 2.858 1.178.758.757 1.182 1.786 1.178 2.857z" style="mix-blend-mode:overlay"/>
                                    <path fill="url(#f9g88433dB)" d="M114.854 122.133c.005.82-.485 1.562-1.24 1.88-.757.316-1.63.146-2.212-.431-.581-.578-.757-1.45-.444-2.208.312-.758 1.051-1.252 1.871-1.252.536-.004 1.051.207 1.431.584.38.378.594.891.594 1.427z" style="mix-blend-mode:overlay"/>
                                    <path fill="url(#29z73smh9C)" d="M86.017 119.434c-.021 1.113-.937 2-2.05 1.985-1.113-.014-2.006-.924-1.999-2.037.007-1.112.912-2.01 2.025-2.011.546-.007 1.07.209 1.453.599s.589.918.571 1.464z" style="mix-blend-mode:overlay"/>
                                    <ellipse fill="url(#nhrky4ttsw)" style="mix-blend-mode:overlay" cx="147.921" cy="95.768" rx="2.012" ry="2.011"/>
                                    <path fill="url(#wcwg38sucD)" d="M173.994 117.371c-.007 1.109-.911 2.003-2.02 1.998-1.11-.005-2.006-.906-2.003-2.015.002-1.11.902-2.007 2.011-2.007.536 0 1.05.214 1.427.594.378.38.588.894.585 1.43z" style="mix-blend-mode:overlay"/>
                                    <path fill="url(#os9tccgtoe)" d="M8.306 81.872c.005 1.507-.9 2.869-2.29 3.45-1.392.58-2.996.264-4.064-.8s-1.389-2.666-.813-4.06c.576-1.392 1.935-2.301 3.442-2.301 2.052 0 3.718 1.66 3.725 3.71z" style="mix-blend-mode:overlay"/>
                                </g>
                            </g>
                        </g>
                        <use fill="#156CE4" opacity=".758" xlink:href="#d0piuwsrmE"/>
                    </g>
                </g>
            </g>
        </g>
    </g>
</svg>
