<svg xmlns="http://www.w3.org/2000/svg" width="13" height="13" viewBox="0 0 13 13">
    <g fill="none" fill-rule="evenodd">
        <g fill="#156CE4" fill-rule="nonzero">
            <path d="M8.125 2.418L8.125 2.415 10.558 3.577 13 2.6 6.5 0 0 2.6 6.5 5.2 8.933 4.227 6.5 3.157 6.5 3.155zM0 3.12v7.527L6.24 13V5.473L0 3.12zm3.328 7.555l-1.664-.627v-.893l1.664.627v.893zM10.504 4.061L10.504 6.156 8.84 6.783 8.84 4.688 6.76 5.473 6.76 13 13 10.647 13 3.12z" transform="translate(-761.000000, -49.000000) translate(0.000000, 16.000000) translate(31.000000, 0.000000) translate(729.000000, 5.000000) translate(1.000000, 26.000000) translate(0.000000, 2.000000)"/>
        </g>
    </g>
</svg>
