<svg xmlns="http://www.w3.org/2000/svg" width="19" height="19" viewBox="0 0 19 19">
    <g fill="none" fill-rule="evenodd">
        <g fill="#109CF1" fill-rule="nonzero" stroke="#109CF1" stroke-width=".2">
            <g>
                <g>
                    <g>
                        <g>
                            <path d="M18.996 4.686c-.022-.205-.149-.385-.339-.474L9.751.056c-.16-.075-.343-.075-.502 0L.343 4.212c-.19.089-.317.27-.34.474L0 4.75v10.094c0 .243.148.46.373.551l8.906 3.563c.071.028.146.042.221.042.075 0 .15-.014.22-.042l8.907-3.563c.225-.09.373-.308.373-.551V4.75l-.004-.064zM9.5 1.249l7.412 3.46-2.854 1.14-7.552-3.203L9.5 1.249zM5.058 3.322l7.435 3.154L9.5 7.673 2.088 4.708l2.97-1.386zm-3.87 2.305l7.718 3.087v8.815l-7.719-3.087V5.627zm8.906 11.902V8.714l7.719-3.087v8.815l-7.72 3.087z" transform="translate(-942 -380) translate(305 97) translate(38 193) translate(599 89) translate(0 1)"/>
                        </g>
                    </g>
                </g>
            </g>
        </g>
    </g>
</svg>
