<svg xmlns="http://www.w3.org/2000/svg" width="30" height="32" viewBox="0 0 30 32">
    <g fill="none">
        <g fill="#156CE4">
            <path d="M4.444 0L.556 0 .492 2.171 4.508 2.171zM.492 2.171L0 19 5 19 4.508 2.171z" transform="translate(23)"/>
        </g>
        <g fill="#24B1FF">
            <path d="M4.539 1.097L4.508 0 .492 0 .461 1.097zM.061 14.9L0 17 5 17 4.858 12.114z" transform="translate(23 2)"/>
        </g>
        <path fill="#156CE4" d="M20 19.625L20 14 10 19.625 10 14 0 19.625 0 32 10 32 20 32 30 32 30 14z"/>
        <g fill="#49DDAA">
            <path d="M0 0L4.364 0 4.364 2 0 2zM9.818 0L14.182 0 14.182 2 9.818 2zM19.636 0L24 0 24 2 19.636 2z" transform="translate(3 22)"/>
        </g>
        <g fill="#87CED9">
            <path d="M0 0L4.5 0 4.5 4 0 4zM4.5 0L9 0 9 4 4.5 4z" transform="translate(10 28)"/>
        </g>
        <g fill="#109CF1">
            <path d="M4.5 3.714L4.5 4 9 4 9 0 8.156 0zM0 3.714L0 4 4.5 4 4.5 0 3.656 0z" transform="translate(10 28)"/>
        </g>
        <path fill="#49DDAA" d="M14 28L15 28 15 32 14 32z"/>
        <g fill="#49DDAA">
            <path d="M0 2L3.048 2 3.048 0 2.217 0zM9.976 2L13.024 2 13.024 0 12.193 0zM19.952 2L23 2 23 0 22.169 0z" transform="translate(4 22)"/>
        </g>
    </g>
</svg>
