<svg width="62" height="61" viewBox="0 0 62 61" fill="none" xmlns="http://www.w3.org/2000/svg">
<rect width="62" height="61" rx="4" fill="#24B1FF" fill-opacity="0.116368"/>
<path d="M48.6364 38.1836H47.1946V35.913C47.1946 35.343 46.6566 34.8809 45.993 34.8809C45.3295 34.8809 44.7915 35.343 44.7915 35.913V38.1836H43.1895V48.0232H48.6364C49.3 48.0232 49.8379 47.5611 49.8379 46.9911V39.2158C49.8379 38.6458 49.3 38.1836 48.6364 38.1836Z" fill="#109CF1" fill-opacity="0.332195"/>
<path d="M18.8111 38.1836H17.209V35.913C17.209 35.343 16.6711 34.8809 16.0075 34.8809C15.3439 34.8809 14.806 35.343 14.806 35.913V38.1836H13.3641C12.7006 38.1836 12.1626 38.6458 12.1626 39.2158V46.9911C12.1626 47.5611 12.7006 48.0232 13.3641 48.0232H18.8111V38.1836Z" fill="#109CF1" fill-opacity="0.332195"/>
<path fill-rule="evenodd" clip-rule="evenodd" d="M26.0481 48.0231H21.0269V14.0037C21.0269 13.4366 21.4952 12.9769 22.0729 12.9769H39.9262C40.5039 12.9769 40.9723 13.4366 40.9723 14.0037V48.0231H35.951V42.5472C35.951 41.9801 35.4827 41.5204 34.905 41.5204H27.0942C26.5164 41.5204 26.0481 41.9801 26.0481 42.5472V48.0231ZM27.0944 37.0027H28.2103C28.788 37.0027 29.2564 36.543 29.2564 35.9759C29.2564 35.4089 28.788 34.9492 28.2103 34.9492H27.0944C26.5167 34.9492 26.0484 35.4089 26.0484 35.9759C26.0484 36.543 26.5167 37.0027 27.0944 37.0027ZM28.2103 32.6219H27.0944C26.5167 32.6219 26.0484 32.1622 26.0484 31.5952C26.0484 31.0281 26.5167 30.5684 27.0944 30.5684H28.2103C28.788 30.5684 29.2564 31.0281 29.2564 31.5952C29.2564 32.1622 28.788 32.6219 28.2103 32.6219ZM27.0944 28.2411H28.2103C28.788 28.2411 29.2564 27.7814 29.2564 27.2144C29.2564 26.6474 28.788 26.1876 28.2103 26.1876H27.0944C26.5167 26.1876 26.0484 26.6474 26.0484 27.2144C26.0484 27.7814 26.5167 28.2411 27.0944 28.2411ZM28.2103 23.8604H27.0944C26.5167 23.8604 26.0484 23.4007 26.0484 22.8336C26.0484 22.2666 26.5167 21.8069 27.0944 21.8069H28.2103C28.788 21.8069 29.2564 22.2666 29.2564 22.8336C29.2564 23.4007 28.788 23.8604 28.2103 23.8604ZM33.7892 37.0027H34.905C35.4827 37.0027 35.9511 36.543 35.9511 35.9759C35.9511 35.4089 35.4827 34.9492 34.905 34.9492H33.7892C33.2115 34.9492 32.7431 35.4089 32.7431 35.9759C32.7431 36.543 33.2115 37.0027 33.7892 37.0027ZM34.905 32.6219H33.7892C33.2115 32.6219 32.7431 32.1622 32.7431 31.5952C32.7431 31.0281 33.2115 30.5684 33.7892 30.5684H34.905C35.4827 30.5684 35.9511 31.0281 35.9511 31.5952C35.9511 32.1622 35.4827 32.6219 34.905 32.6219ZM33.7892 28.2411H34.905C35.4827 28.2411 35.9511 27.7814 35.9511 27.2144C35.9511 26.6474 35.4827 26.1876 34.905 26.1876H33.7892C33.2115 26.1876 32.7431 26.6474 32.7431 27.2144C32.7431 27.7814 33.2115 28.2411 33.7892 28.2411ZM34.905 23.8604H33.7892C33.2115 23.8604 32.7431 23.4007 32.7431 22.8336C32.7431 22.2666 33.2115 21.8069 33.7892 21.8069H34.905C35.4827 21.8069 35.9511 22.2666 35.9511 22.8336C35.9511 23.4007 35.4827 23.8604 34.905 23.8604ZM35.463 17.4261H26.5364C25.9587 17.4261 25.4903 17.8858 25.4903 18.4528C25.4903 19.0199 25.9587 19.4796 26.5364 19.4796H35.463C36.0407 19.4796 36.5091 19.0199 36.5091 18.4528C36.5091 17.8858 36.0407 17.4261 35.463 17.4261Z" fill="#109CF1" fill-opacity="0.332195"/>
<path d="M27.6758 48.0231H34.3242V43.6423H27.6758V48.0231Z" fill="#109CF1" fill-opacity="0.332195"/>
</svg>
