<svg width="20" height="18" viewBox="0 0 20 18" fill="none" xmlns="http://www.w3.org/2000/svg">
<g id="building">
<path id="Path" d="M19.0579 12.9463H18.3174V11.7801C18.3174 11.4873 18.0411 11.25 17.7003 11.25C17.3595 11.25 17.0832 11.4873 17.0832 11.7801V12.9463H16.2603V18H19.0579C19.3987 18 19.675 17.7627 19.675 17.4699V13.4764C19.675 13.1837 19.3987 12.9463 19.0579 12.9463Z" fill="#696969"/>
<path id="Path_2" d="M3.73967 12.9463H2.91685V11.7801C2.91685 11.4873 2.64055 11.25 2.29974 11.25C1.95892 11.25 1.68262 11.4873 1.68262 11.7801V12.9463H0.942082C0.60127 12.9463 0.324966 13.1837 0.324966 13.4764V17.4699C0.324966 17.7627 0.60127 18 0.942082 18H3.73967V12.9463Z" fill="#696969"/>
<path id="Shape" fill-rule="evenodd" clip-rule="evenodd" d="M7.45684 18H4.8779V0.527344C4.8779 0.236109 5.11846 0 5.41518 0H14.5847C14.8815 0 15.122 0.236109 15.122 0.527344V18H12.5431V15.1875C12.5431 14.8963 12.3025 14.6602 12.0058 14.6602H7.99412C7.6974 14.6602 7.45684 14.8963 7.45684 15.1875V18ZM7.99412 12.3398H8.56722C8.86394 12.3398 9.1045 12.1037 9.1045 11.8125C9.1045 11.5213 8.86394 11.2852 8.56722 11.2852H7.99412C7.6974 11.2852 7.45685 11.5213 7.45685 11.8125C7.45685 12.1037 7.6974 12.3398 7.99412 12.3398ZM8.56722 10.0898H7.99412C7.6974 10.0898 7.45685 9.85373 7.45685 9.5625C7.45685 9.27127 7.6974 9.03516 7.99412 9.03516H8.56722C8.86394 9.03516 9.1045 9.27127 9.1045 9.5625C9.1045 9.85373 8.86394 10.0898 8.56722 10.0898ZM7.99412 7.83984H8.56722C8.86394 7.83984 9.1045 7.60373 9.1045 7.3125C9.1045 7.02127 8.86394 6.78516 8.56722 6.78516H7.99412C7.6974 6.78516 7.45685 7.02127 7.45685 7.3125C7.45685 7.60373 7.6974 7.83984 7.99412 7.83984ZM8.56722 5.58984H7.99412C7.6974 5.58984 7.45685 5.35373 7.45685 5.0625C7.45685 4.77127 7.6974 4.53516 7.99412 4.53516H8.56722C8.86394 4.53516 9.1045 4.77127 9.1045 5.0625C9.1045 5.35373 8.86394 5.58984 8.56722 5.58984ZM11.4326 12.3398H12.0057C12.3025 12.3398 12.543 12.1037 12.543 11.8125C12.543 11.5213 12.3025 11.2852 12.0057 11.2852H11.4326C11.1359 11.2852 10.8954 11.5213 10.8954 11.8125C10.8954 12.1037 11.1359 12.3398 11.4326 12.3398ZM12.0057 10.0898H11.4326C11.1359 10.0898 10.8954 9.85373 10.8954 9.5625C10.8954 9.27127 11.1359 9.03516 11.4326 9.03516H12.0057C12.3025 9.03516 12.543 9.27127 12.543 9.5625C12.543 9.85373 12.3025 10.0898 12.0057 10.0898ZM11.4326 7.83984H12.0057C12.3025 7.83984 12.543 7.60373 12.543 7.3125C12.543 7.02127 12.3025 6.78516 12.0057 6.78516H11.4326C11.1359 6.78516 10.8954 7.02127 10.8954 7.3125C10.8954 7.60373 11.1359 7.83984 11.4326 7.83984ZM12.0057 5.58984H11.4326C11.1359 5.58984 10.8954 5.35373 10.8954 5.0625C10.8954 4.77127 11.1359 4.53516 11.4326 4.53516H12.0057C12.3025 4.53516 12.543 4.77127 12.543 5.0625C12.543 5.35373 12.3025 5.58984 12.0057 5.58984ZM12.2925 2.28516H7.70768C7.41096 2.28516 7.1704 2.52127 7.1704 2.8125C7.1704 3.10373 7.41096 3.33984 7.70768 3.33984H12.2925C12.5892 3.33984 12.8297 3.10373 12.8297 2.8125C12.8297 2.52127 12.5892 2.28516 12.2925 2.28516Z" fill="#696969"/>
<path id="Path_3" d="M8.29265 18H11.7074V15.75H8.29265V18Z" fill="#696969"/>
</g>
</svg>
