<svg xmlns="http://www.w3.org/2000/svg" width="15" height="14" viewBox="0 0 15 14">
    <g fill="none" fill-rule="evenodd">
        <g fill="#FFF" fill-rule="nonzero">
            <g>
                <g>
                    <g>
                        <g>
                            <g>
                                <path d="M14.522 10.07h-.574v-.908c0-.227-.215-.412-.479-.412s-.478.185-.478.412v.907h-.638V14h2.169c.264 0 .478-.185.478-.412v-3.106c0-.228-.214-.413-.478-.413zM2.647 10.07H2.01v-.908c0-.227-.214-.412-.478-.412s-.479.185-.479.412v.907H.478c-.264 0-.478.185-.478.413v3.106c0 .227.214.412.478.412h2.17v-3.93zM3.53 14h1.999v-2.188c0-.226.186-.41.416-.41h3.11c.23 0 .416.184.416.41V14h2V.41c0-.226-.187-.41-.417-.41H3.946c-.23 0-.417.184-.417.41V14zm2.86-4.402h-.445c-.23 0-.416-.184-.416-.41 0-.227.186-.41.416-.41h.444c.23 0 .417.183.417.41 0 .226-.187.41-.417.41zm0-1.75h-.445c-.23 0-.416-.184-.416-.41 0-.227.186-.41.416-.41h.444c.23 0 .417.183.417.41 0 .226-.187.41-.417.41zm0-1.75h-.445c-.23 0-.416-.184-.416-.41 0-.227.186-.41.416-.41h.444c.23 0 .417.183.417.41 0 .226-.187.41-.417.41zm0-1.75h-.445c-.23 0-.416-.184-.416-.41 0-.227.186-.41.416-.41h.444c.23 0 .417.183.417.41 0 .226-.187.41-.417.41zm2.665 5.25H8.61c-.23 0-.417-.184-.417-.41 0-.227.187-.41.417-.41h.444c.23 0 .416.183.416.41 0 .226-.186.41-.416.41zm0-1.75H8.61c-.23 0-.417-.184-.417-.41 0-.227.187-.41.417-.41h.444c.23 0 .416.183.416.41 0 .226-.186.41-.416.41zm0-1.75H8.61c-.23 0-.417-.184-.417-.41 0-.227.187-.41.417-.41h.444c.23 0 .416.183.416.41 0 .226-.186.41-.416.41zm0-1.75H8.61c-.23 0-.417-.184-.417-.41 0-.227.187-.41.417-.41h.444c.23 0 .416.183.416.41 0 .226-.186.41-.416.41zm-3.332-2.57h3.554c.23 0 .417.183.417.41 0 .226-.187.41-.417.41H5.723c-.23 0-.417-.184-.417-.41 0-.227.187-.41.417-.41z" transform="translate(-339 -781) translate(303 91) translate(1 22) translate(24 540) translate(1 117) translate(10 11)"/>
                                <path d="M6.176 14L8.824 14 8.824 12.25 6.176 12.25z" transform="translate(-339 -781) translate(303 91) translate(1 22) translate(24 540) translate(1 117) translate(10 11)"/>
                            </g>
                        </g>
                    </g>
                </g>
            </g>
        </g>
    </g>
</svg>
