<svg xmlns="http://www.w3.org/2000/svg" width="14" height="14" viewBox="0 0 14 14">
    <g fill="none" fill-rule="evenodd">
        <rect width="14" height="14" fill="#49DDAA" rx="4"/>
        <path fill="#FFF" fill-rule="nonzero" d="M4.326 6.581H6.58V4.326c0-.103.14-.326.419-.326.28 0 .419.223.419.326V6.58h2.255c.103 0 .326.14.326.419 0 .279-.223.419-.326.419H7.42v2.255c0 .103-.14.326-.419.326-.28 0-.419-.223-.419-.326V7.42H4.326C4.223 7.419 4 7.279 4 7c0-.28.223-.419.326-.419z"/>
    </g>
</svg>
