<svg xmlns="http://www.w3.org/2000/svg" width="23" height="23" viewBox="0 0 23 23">
    <g fill="#B7BCD6">
        <path d="M8 12.546c0-.302-.245-.546-.547-.546H5.546c-.301 0-.546.244-.546.546v1.907c0 .302.245.547.546.547h1.907c.302 0 .547-.245.547-.547v-1.907zM13 12.546c0-.302-.245-.546-.546-.546h-1.908c-.301 0-.546.244-.546.546v1.907c0 .302.245.547.546.547h1.908c.301 0 .546-.245.546-.547v-1.907zM18 12.546c0-.302-.245-.546-.546-.546h-1.907c-.302 0-.547.244-.547.546v1.907c0 .302.245.547.547.547h1.907c.301 0 .546-.245.546-.547v-1.907zM8 17.546c0-.302-.245-.546-.547-.546H5.546c-.301 0-.546.244-.546.546v1.908c0 .302.245.546.546.546h1.907c.302 0 .547-.245.547-.546v-1.908zM13 17.546c0-.302-.245-.546-.546-.546h-1.908c-.301 0-.546.244-.546.546v1.908c0 .302.245.546.546.546h1.908c.301 0 .546-.245.546-.546v-1.908zM18 17.546c0-.302-.245-.546-.546-.546h-1.907c-.302 0-.547.244-.547.546v1.908c0 .302.245.546.547.546h1.907c.301 0 .546-.245.546-.546v-1.908z"/>
        <path d="M20.953 3.01v2.72c0 1.23-1.044 2.222-2.33 2.222h-1.469c-1.286 0-2.343-.991-2.343-2.221V3H8.19v2.73c0 1.23-1.057 2.222-2.343 2.222h-1.47c-1.285 0-2.329-.991-2.329-2.221V3.01C.923 3.042 0 3.93 0 5.025v15.947C0 22.085.944 23 2.108 23h18.784C22.054 23 23 22.083 23 20.972V5.025c0-1.094-.923-1.983-2.047-2.015zm-.683 16.969c0 .48-.408.871-.911.871H3.6c-.503 0-.911-.39-.911-.871V11.74c0-.481.408-.872.911-.872h15.758c.503 0 .911.39.911.872v8.238z"/>
        <path d="M4.785 6h1.43C6.648 6 7 5.658 7 5.235V.765C7 .342 6.648 0 6.215 0h-1.43C4.352 0 4 .342 4 .765v4.47c0 .423.352.765.785.765zM16.786 6h1.429c.433 0 .785-.342.785-.765V.765C19 .342 18.648 0 18.215 0h-1.43C16.353 0 16 .342 16 .765v4.47c0 .423.352.765.786.765z"/>
    </g>
</svg>
