<svg xmlns="http://www.w3.org/2000/svg" width="25" height="24" viewBox="0 0 25 24">
    <g fill="none" fill-rule="evenodd">
        <g fill="#109CF1" fill-rule="nonzero">
            <g>
                <g>
                    <g>
                        <path d="M25 2.6c0-.331-.266-.6-.595-.6h-2.65c-.275-1.172-1.314-2-2.509-2-1.195 0-2.234.828-2.51 2h-.933c-.276-1.172-1.314-2-2.51-2-1.194 0-2.233.828-2.509 2h-.933C9.575.828 8.536 0 7.34 0 6.146 0 5.108.828 4.832 2H3.77c-.274.001-.513.19-.579.458l-3.174 13.2c-.043.18-.002.368.11.513.113.144.286.229.468.229h2.58v2.2c0 .331.266.6.595.6h10.536c.313 2.822 2.742 4.918 5.557 4.795 2.815-.124 5.054-2.424 5.122-5.264L25 2.6zM24 15c-.212-.296-.45-.566-.712-.806v-3.81c0-.331-.24-.599-.535-.599-.295 0-.534.268-.534.599v3.068c-.388-.197-.798-.334-1.219-.408L23.173 3H24v12zM4.67 3h.59c.276 1.255 1.308 2.141 2.496 2.143.327 0 .592-.288.592-.643 0-.355-.265-.643-.592-.643-.533 0-1.019-.334-1.248-.857h4.672c.276 1.255 1.308 2.141 2.496 2.143.327 0 .592-.288.592-.643 0-.355-.265-.643-.592-.643-.534 0-1.02-.334-1.248-.857H17.1c.276 1.255 1.308 2.141 2.496 2.143.327 0 .592-.288.592-.643 0-.355-.265-.643-.592-.643-.534 0-1.02-.334-1.248-.857H22l-.67 3H4l.67-3zM19.5 1c.641 0 1.225.39 1.5 1h-3c.275-.61.859-1 1.5-1zm-6 0c.641 0 1.225.39 1.5 1h-3c.275-.61.859-1 1.5-1zm-6 0c.641 0 1.225.39 1.5 1H6c.275-.61.859-1 1.5-1zM3.89 7H21l-1.42 6.013c-1.453.105-2.799.825-3.716 1.987H2l1.89-8zM5 16h10c-.217.634-.358 1.31-.416 2H5v-2zm15.577 7v-.536c0-.318-.258-.577-.577-.577-.319 0-.577.259-.577.577V23c-1.773-.259-3.164-1.65-3.423-3.423h.536c.318 0 .577-.258.577-.577 0-.319-.259-.577-.577-.577H16c.259-1.773 1.65-3.164 3.423-3.423v.535c0 .32.258.578.577.578.319 0 .577-.259.577-.578V15c1.772.259 3.164 1.65 3.423 3.423h-.536c-.318 0-.577.258-.577.577 0 .319.259.577.577.577H24c-.259 1.772-1.65 3.164-3.423 3.423z" transform="translate(-343 -397) translate(305 98) translate(38 299)"/>
                        <path d="M12.643 9h1.714c.355 0 .643-.224.643-.5s-.288-.5-.643-.5h-1.714c-.355 0-.643.224-.643.5s.288.5.643.5zM8.643 9h1.714c.355 0 .643-.224.643-.5s-.288-.5-.643-.5H8.643C8.288 8 8 8.224 8 8.5s.288.5.643.5zM4.643 9h1.714C6.712 9 7 8.776 7 8.5S6.712 8 6.357 8H4.643C4.288 8 4 8.224 4 8.5s.288.5.643.5zM16.643 9h1.714c.355 0 .643-.224.643-.5s-.288-.5-.643-.5h-1.714c-.355 0-.643.224-.643.5s.288.5.643.5zM11.643 11h1.714c.355 0 .643-.224.643-.5s-.288-.5-.643-.5h-1.714c-.23 0-.442.095-.557.25-.115.155-.115.345 0 .5.115.155.327.25.557.25zM7.643 11h1.714c.355 0 .643-.224.643-.5s-.288-.5-.643-.5H7.643c-.23 0-.442.095-.557.25-.115.155-.115.345 0 .5.115.155.327.25.557.25zM3.643 11h1.714c.355 0 .643-.224.643-.5s-.288-.5-.643-.5H3.643c-.23 0-.442.095-.557.25-.115.155-.115.345 0 .5.115.155.327.25.557.25zM15.643 11h1.714c.355 0 .643-.224.643-.5s-.288-.5-.643-.5h-1.714c-.23 0-.442.095-.557.25-.115.155-.115.345 0 .5.115.155.327.25.557.25zM11.643 14h1.714c.355 0 .643-.224.643-.5s-.288-.5-.643-.5h-1.714c-.355 0-.643.224-.643.5s.288.5.643.5zM7.643 14h1.714c.355 0 .643-.224.643-.5s-.288-.5-.643-.5H7.643c-.355 0-.643.224-.643.5s.288.5.643.5zM6 13.5c0-.276-.288-.5-.643-.5H3.643c-.355 0-.643.224-.643.5s.288.5.643.5h1.714c.355 0 .643-.224.643-.5zM21.07 16.187l-1.177 1.387-1.103-.65c-.27-.159-.598-.03-.732.288-.135.317-.026.704.244.863l1.455.857c.21.124.463.075.63-.12l1.454-1.715c.212-.252.212-.658 0-.909-.213-.25-.558-.25-.771 0z" transform="translate(-343 -397) translate(305 98) translate(38 299)"/>
                    </g>
                </g>
            </g>
        </g>
    </g>
</svg>
