<svg width="12" height="13" viewBox="0 0 12 13" fill="none" xmlns="http://www.w3.org/2000/svg">
<path fill-rule="evenodd" clip-rule="evenodd" d="M10.5938 1.4375H10.0312V0.5H9.09375V1.4375H2.90625V0.5H1.96875V1.4375H1.40625C0.630844 1.4375 0 2.06834 0 2.84375V11.0938C0 11.8692 0.630844 12.5 1.40625 12.5H10.5938C11.3692 12.5 12 11.8692 12 11.0938V2.84375C12 2.06834 11.3692 1.4375 10.5938 1.4375ZM1.40625 2.375H1.96875V3.3125H2.90625V2.375H9.09375V3.3125H10.0312V2.375H10.5938C10.8522 2.375 11.0625 2.58528 11.0625 2.84375V3.96875H0.9375V2.84375C0.9375 2.58528 1.14778 2.375 1.40625 2.375ZM1.40625 11.5625H10.5938C10.8522 11.5625 11.0625 11.3522 11.0625 11.0938V4.90625H0.9375V11.0938C0.9375 11.3522 1.14778 11.5625 1.40625 11.5625ZM1.78125 5.89062H2.71875V6.82812H1.78125V5.89062ZM4.59375 5.89062H3.65625V6.82812H4.59375V5.89062ZM5.53125 5.89062H6.46875V6.82812H5.53125V5.89062ZM8.34375 5.89062H7.40625V6.82812H8.34375V5.89062ZM9.28125 5.89062H10.2188V6.82812H9.28125V5.89062ZM2.71875 7.76562H1.78125V8.70312H2.71875V7.76562ZM3.65625 7.76562H4.59375V8.70312H3.65625V7.76562ZM6.46875 7.76562H5.53125V8.70312H6.46875V7.76562ZM7.40625 7.76562H8.34375V8.70312H7.40625V7.76562ZM2.71875 9.64062H1.78125V10.5781H2.71875V9.64062ZM3.65625 9.64062H4.59375V10.5781H3.65625V9.64062ZM6.46875 9.64062H5.53125V10.5781H6.46875V9.64062ZM7.40625 9.64062H8.34375V10.5781H7.40625V9.64062ZM10.2188 7.76562H9.28125V8.70312H10.2188V7.76562Z" fill="#1E1E1E"/>
</svg>
