<svg width="18" height="19" viewBox="0 0 18 19" fill="none" xmlns="http://www.w3.org/2000/svg">
<path fill-rule="evenodd" clip-rule="evenodd" d="M15.8906 1.90625H15.0469V0.5H13.6406V1.90625H4.35938V0.5H2.95312V1.90625H2.10938C0.946266 1.90625 0 2.85252 0 4.01562V16.3906C0 17.5537 0.946266 18.5 2.10938 18.5H15.8906C17.0537 18.5 18 17.5537 18 16.3906V4.01562C18 2.85252 17.0537 1.90625 15.8906 1.90625ZM2.10938 3.3125H2.95312V4.71875H4.35938V3.3125H13.6406V4.71875H15.0469V3.3125H15.8906C16.2783 3.3125 16.5938 3.62792 16.5938 4.01562V5.70312H1.40625V4.01562C1.40625 3.62792 1.72167 3.3125 2.10938 3.3125ZM2.10938 17.0938H15.8906C16.2783 17.0938 16.5938 16.7783 16.5938 16.3906V7.10938H1.40625V16.3906C1.40625 16.7783 1.72167 17.0938 2.10938 17.0938ZM2.67188 8.58594H4.07812V9.99219H2.67188V8.58594ZM6.89062 8.58594H5.48438V9.99219H6.89062V8.58594ZM8.29688 8.58594H9.70312V9.99219H8.29688V8.58594ZM12.5156 8.58594H11.1094V9.99219H12.5156V8.58594ZM13.9219 8.58594H15.3281V9.99219H13.9219V8.58594ZM4.07812 11.3984H2.67188V12.8047H4.07812V11.3984ZM5.48438 11.3984H6.89062V12.8047H5.48438V11.3984ZM9.70312 11.3984H8.29688V12.8047H9.70312V11.3984ZM11.1094 11.3984H12.5156V12.8047H11.1094V11.3984ZM4.07812 14.2109H2.67188V15.6172H4.07812V14.2109ZM5.48438 14.2109H6.89062V15.6172H5.48438V14.2109ZM9.70312 14.2109H8.29688V15.6172H9.70312V14.2109ZM11.1094 14.2109H12.5156V15.6172H11.1094V14.2109ZM15.3281 11.3984H13.9219V12.8047H15.3281V11.3984Z" fill="#696969"/>
</svg>
