<svg xmlns="http://www.w3.org/2000/svg" width="12" height="12" viewBox="0 0 12 12">
    <g fill="none" fill-rule="evenodd">
        <g fill="#B7BCD6" fill-rule="nonzero">
            <g>
                <g>
                    <g>
                        <g>
                            <g>
                                <g>
                                    <g>
                                        <path d="M11.731 9.491L9.878 7.634c-.37-.369-.98-.357-1.363.026l-.933.935-.185-.103c-.59-.327-1.396-.776-2.245-1.628-.852-.853-1.3-1.663-1.628-2.254-.034-.063-.067-.123-.1-.18l.626-.628.309-.31c.382-.383.393-.995.024-1.365L2.53.27c-.368-.37-.98-.358-1.362.025L.645.822.66.836c-.175.224-.322.482-.43.76-.101.266-.164.519-.192.773C-.207 4.402.72 6.26 3.236 8.782c3.478 3.485 6.28 3.222 6.401 3.209.264-.032.516-.095.772-.195.276-.108.533-.254.757-.43l.011.011.53-.52c.381-.383.392-.995.024-1.366z" transform="translate(-854 -1294) translate(237 194) translate(66 968) translate(1 76) translate(308 27) translate(242 27) translate(0 2)"/>
                                    </g>
                                </g>
                            </g>
                        </g>
                    </g>
                </g>
            </g>
        </g>
    </g>
</svg>
