<svg xmlns="http://www.w3.org/2000/svg" width="7" height="7" viewBox="0 0 7 7">
    <g fill="none" fill-rule="evenodd">
        <g fill="#156CE4" fill-rule="nonzero" stroke="#156CE4" stroke-width=".5">
            <g>
                <g>
                    <g>
                        <g>
                            <g>
                                <g>
                                    <g>
                                        <g>
                                            <g>
                                                <g>
                                                    <g>
                                                        <path d="M4.021 3.5L6.892.629c.144-.144.144-.377 0-.521-.144-.144-.377-.144-.52 0L3.5 2.979.629.108C.485-.036.252-.036.108.108c-.144.144-.144.377 0 .52L2.979 3.5.108 6.371c-.144.144-.144.377 0 .521.144.144.377.144.52 0L3.5 4.021l2.871 2.871c.144.144.377.144.521 0 .144-.144.144-.377 0-.52L4.021 3.5z" transform="translate(-803 -734) translate(315 104) translate(37 206) translate(0 83) translate(0 217) translate(0 113) translate(150) translate(0 11) translate(301)"/>
                                                    </g>
                                                </g>
                                            </g>
                                        </g>
                                    </g>
                                </g>
                            </g>
                        </g>
                    </g>
                </g>
            </g>
        </g>
    </g>
</svg>
