<svg xmlns="http://www.w3.org/2000/svg" width="17" height="17" viewBox="0 0 17 17">
    <g fill="none" fill-rule="evenodd">
        <g fill="#FFF" fill-rule="nonzero">
            <g>
                <g>
                    <g>
                        <path stroke="#FFF" stroke-width=".6" d="M14.514 2.487C11.2-.83 5.804-.83 2.49 2.487.884 4.093 0 6.229 0 8.5c0 2.272.884 4.407 2.49 6.013C4.148 16.171 6.325 17 8.502 17c2.177 0 4.354-.829 6.012-2.487 3.315-3.315 3.315-8.71 0-12.026zm-.931 11.095c-2.802 2.802-7.36 2.802-10.162 0C2.065 12.225 1.317 10.42 1.317 8.5s.748-3.724 2.104-5.082c2.802-2.802 7.36-2.802 10.162 0 2.8 2.802 2.8 7.362 0 10.164z" transform="translate(-1494 -467) translate(337 351) translate(1139) translate(18 116)"/>
                        <path d="M11.482 10.488L9.494 8.5l1.988-1.987c.273-.274.273-.72 0-.994-.274-.276-.719-.275-.993 0L8.5 7.506 6.511 5.518c-.274-.274-.719-.275-.993.001-.274.275-.274.72 0 .994L7.506 8.5l-1.988 1.988c-.274.274-.274.719 0 .994.137.137.317.206.497.206s.36-.07.496-.206L8.5 9.494l1.989 1.988c.137.137.317.206.496.206.18 0 .36-.07.497-.206.274-.275.274-.72 0-.994z" transform="translate(-1494 -467) translate(337 351) translate(1139) translate(18 116)"/>
                    </g>
                </g>
            </g>
        </g>
    </g>
</svg>
