<svg xmlns="http://www.w3.org/2000/svg" width="17" height="17" viewBox="0 0 17 17">
    <g fill="none" fill-rule="evenodd">
        <g>
            <g>
                <g>
                    <g>
                        <g>
                            <g>
                                <g transform="translate(-964.000000, -473.000000) translate(0.000000, 16.000000) translate(151.000000, 117.000000) translate(0.000000, 250.000000) translate(28.000000, 90.000000) translate(709.000000, 0.000000) translate(76.000000, 0.000000)">
                                    <circle cx="8.5" cy="8.5" r="8.5" fill="#F99E04"/>
                                    <g fill="#FFF" fill-rule="nonzero">
                                        <path d="M.09 3.317c-.06-.06-.09-.15-.09-.21 0-.061.03-.151.09-.212l.423-.422c.12-.12.301-.12.422 0l.03.03 1.659 1.78c.06.06.15.06.21 0L6.877.09h.03c.121-.12.302-.12.423 0l.422.423c.12.12.12.301 0 .422L2.925 5.94c-.06.06-.12.09-.21.09-.091 0-.152-.03-.212-.09L.151 3.408l-.06-.09z" transform="translate(4.730159, 5.634921)"/>
                                    </g>
                                </g>
                            </g>
                        </g>
                    </g>
                </g>
            </g>
        </g>
    </g>
</svg>
