<svg xmlns="http://www.w3.org/2000/svg" xmlns:xlink="http://www.w3.org/1999/xlink" width="92" height="92" viewBox="0 0 92 92">
    <defs>
        <filter id="0v4vrh2oqa" width="154.4%" height="154.4%" x="-27.2%" y="-25.7%" filterUnits="objectBoundingBox">
            <feOffset dy="1" in="SourceAlpha" result="shadowOffsetOuter1"/>
            <feGaussianBlur in="shadowOffsetOuter1" result="shadowBlurOuter1" stdDeviation="6"/>
            <feColorMatrix in="shadowBlurOuter1" values="0 0 0 0 0.140553384 0 0 0 0 0.695887683 0 0 0 0 0.998273324 0 0 0 0.445612981 0"/>
        </filter>
        <circle id="o1am7nq3hb" cx="34" cy="34" r="34"/>
    </defs>
    <g fill="none" fill-rule="evenodd">
        <g>
            <g>
                <g>
                    <g>
                        <g>
                            <g transform="translate(-839 -1655) translate(410 302) translate(302 2) translate(139 1362)">
                                <use fill="#000" filter="url(#0v4vrh2oqa)" xlink:href="#o1am7nq3hb"/>
                                <use fill="#109CF1" xlink:href="#o1am7nq3hb"/>
                            </g>
                            <g fill="#FFF" fill-rule="nonzero">
                                <path d="M20.906 15.15l-2.019-2.5c-.079-.092-.192-.145-.31-.145-.12 0-.232.053-.311.144l-2.02 2.5c-.1.125-.122.298-.055.444.067.147.21.24.366.24h.642c-.597 2.513-2.762 4.45-5.488 4.9V10h3.635c.223 0 .404-.187.404-.417V7.916c0-.23-.181-.417-.404-.417H11.71V6.424c1.434-.598 2.255-2.161 1.96-3.727C13.376 1.13 12.046 0 10.5 0 8.954 0 7.624 1.13 7.329 2.697c-.295 1.566.526 3.129 1.96 3.727v1.075H5.653c-.223 0-.404.186-.404.417v1.666c0 .23.181.417.404.417h3.634v10.734c-2.725-.45-4.89-2.387-5.487-4.9h.642c.157 0 .3-.093.366-.24.067-.146.045-.32-.055-.444l-2.02-2.5c-.079-.091-.192-.144-.31-.144-.12 0-.232.053-.311.144l-2.02 2.5c-.1.125-.121.298-.055.444.067.147.21.24.366.24h.901c.59 3.875 3.865 6.921 7.983 7.425v.492c.001.11.043.216.118.296l.807.833c.16.161.414.161.574 0l.807-.833c.075-.08.117-.186.117-.296v-.492c4.12-.504 7.394-3.55 7.984-7.425h.9c.157 0 .3-.093.367-.24.066-.146.045-.32-.056-.444zM10.5 4.581c-.67 0-1.212-.56-1.212-1.25s.543-1.25 1.212-1.25c.67 0 1.211.56 1.211 1.25s-.542 1.25-1.211 1.25z" transform="translate(-839 -1655) translate(410 302) translate(302 2) translate(139 1362) translate(24 22)"/>
                            </g>
                        </g>
                    </g>
                </g>
            </g>
        </g>
    </g>
</svg>
