<svg xmlns="http://www.w3.org/2000/svg" xmlns:xlink="http://www.w3.org/1999/xlink" width="92" height="92" viewBox="0 0 92 92">
    <defs>
        <filter id="fdvzvlfoja" width="154.4%" height="154.4%" x="-27.2%" y="-25.7%" filterUnits="objectBoundingBox">
            <feOffset dy="1" in="SourceAlpha" result="shadowOffsetOuter1"/>
            <feGaussianBlur in="shadowOffsetOuter1" result="shadowBlurOuter1" stdDeviation="6"/>
            <feColorMatrix in="shadowBlurOuter1" values="0 0 0 0 0.140553384 0 0 0 0 0.695887683 0 0 0 0 0.998273324 0 0 0 0.445612981 0"/>
        </filter>
        <circle id="72mxxuun6b" cx="34" cy="34" r="34"/>
    </defs>
    <g fill="none" fill-rule="evenodd">
        <g>
            <g>
                <g>
                    <g>
                        <g>
                            <g transform="translate(-838 -2336) translate(410 302) translate(302 2) translate(138 2043)">
                                <use fill="#000" filter="url(#fdvzvlfoja)" xlink:href="#72mxxuun6b"/>
                                <use fill="#109CF1" xlink:href="#72mxxuun6b"/>
                            </g>
                            <g fill="#FFF" fill-rule="nonzero">
                                <path d="M29.194 13.049l-.002-.003L16.953.81C16.432.287 15.738 0 15 0s-1.431.287-1.953.81L.814 13.04l-.012.013c-1.071 1.077-1.07 2.825.005 3.9.491.49 1.14.775 1.833.805.028.003.057.004.085.004h.488v9.006C3.213 28.55 4.663 30 6.446 30h4.788c.486 0 .879-.394.879-.879v-7.06c0-.814.662-1.475 1.475-1.475h2.824c.814 0 1.475.661 1.475 1.475v7.06c0 .485.394.879.88.879h4.787c1.783 0 3.233-1.45 3.233-3.232v-9.006h.452c.738 0 1.432-.287 1.954-.81 1.076-1.075 1.076-2.827.001-3.903zM27.95 15.71c-.19.19-.442.294-.71.294h-1.332c-.485 0-.879.394-.879.88v9.884c0 .813-.661 1.474-1.475 1.474h-3.909v-6.181c0-1.783-1.45-3.233-3.233-3.233h-2.824c-1.783 0-3.233 1.45-3.233 3.233v6.181h-3.91c-.812 0-1.474-.661-1.474-1.474v-9.885c0-.485-.394-.879-.88-.879H2.785l-.042-.001c-.262-.005-.507-.109-.691-.293-.392-.392-.392-1.029 0-1.42v-.001l12.24-12.237c.189-.19.44-.294.71-.294.267 0 .52.104.709.294l12.236 12.234.005.006c.39.392.39 1.027-.001 1.418z" transform="translate(-838 -2336) translate(410 302) translate(302 2) translate(138 2043) translate(19 18)"/>
                            </g>
                        </g>
                    </g>
                </g>
            </g>
        </g>
    </g>
</svg>
