<svg xmlns="http://www.w3.org/2000/svg" xmlns:xlink="http://www.w3.org/1999/xlink" width="92" height="92" viewBox="0 0 92 92">
    <defs>
        <filter id="7zhmj9d2ma" width="154.4%" height="154.4%" x="-27.2%" y="-25.7%" filterUnits="objectBoundingBox">
            <feOffset dy="1" in="SourceAlpha" result="shadowOffsetOuter1"/>
            <feGaussianBlur in="shadowOffsetOuter1" result="shadowBlurOuter1" stdDeviation="6"/>
            <feColorMatrix in="shadowBlurOuter1" values="0 0 0 0 0.140553384 0 0 0 0 0.695887683 0 0 0 0 0.998273324 0 0 0 0.445612981 0"/>
        </filter>
        <circle id="mxc8qikwhb" cx="34" cy="34" r="34"/>
    </defs>
    <g fill="none" fill-rule="evenodd">
        <g>
            <g>
                <g>
                    <g>
                        <g>
                            <g transform="translate(-839 -1428) translate(410 302) translate(302 2) translate(139 1135)">
                                <use fill="#000" filter="url(#7zhmj9d2ma)" xlink:href="#mxc8qikwhb"/>
                                <use fill="#109CF1" xlink:href="#mxc8qikwhb"/>
                            </g>
                            <g fill="#FFF" fill-rule="nonzero">
                                <path d="M21.374 15.366l-3.095-1.8c-.223-.13-.523-.061-.66.147s-.064.492.157.62c0 0 3.093 1.8 3.095 1.8.223.13.522.064.659-.146s.067-.492-.156-.62zM15.53 12.15c-.434 0-.761.41-.662.83.04.167.155.319.307.415.105.066.227.105.353.105.238 0 .454-.12.579-.32.265-.429-.068-1.03-.577-1.03zM10.727 13.705c-.135-.202-.448-.267-.663-.14l-3.09 1.816c-.223.13-.291.41-.151.617.084.125.247.198.407.202.09.002.18-.017.256-.061l3.091-1.817c.222-.13.29-.41.15-.617zM11.474 12.15c-.314 0-.588.22-.658.526-.094.416.235.824.66.824.312 0 .589-.22.658-.526.094-.418-.232-.824-.66-.824z" transform="translate(-839 -1428) translate(410 302) translate(302 2) translate(139 1135) translate(21 21)"/>
                                <path d="M26.87 24.02c-.19-.22-.524-.243-.743-.052-.563.489-1.083.996-1.82 1.2-.821.226-1.6.047-2.343-.324l2.747-9.241c.068-.23-.028-.477-.233-.601l-2.54-1.54V8.966c0-.292-.237-.528-.528-.528h-1.055V6.856c0-.291-.236-.527-.527-.527h-1.661V4.747c0-.292-.236-.528-.527-.528h-2.558V.527c0-.29-.236-.527-.527-.527h-2.11c-.29 0-.527.236-.527.527V4.22H9.36c-.29 0-.527.236-.527.528v1.582H7.172c-.291 0-.527.236-.527.527v1.582H5.59c-.291 0-.527.236-.527.528v4.496l-2.541 1.54c-.205.124-.3.37-.233.6l2.741 9.223c-.047-.157-.89-.26-1.04-.28-1.535-.199-2.703.57-3.809 1.532-.22.191-.243.524-.052.744.183.21.522.245.744.052 1.14-.99 2.424-1.746 3.932-.992 1.364.682 2.776.975 4.196.227 1.146-.603 2.251-1.124 3.53-.515l1.314.626c1.125.536 2.409.524 3.523-.034.687-.343 1.384-.8 2.168-.854.77-.052 1.512.234 2.187.572.892.446 1.937.535 2.895.262.882-.252 1.525-.814 2.2-1.401.22-.192.244-.525.053-.744zM20.884 9.493v3.33l-5.495-3.33h5.495zm-7.91-8.438h1.054v3.164h-1.054V1.055zM9.888 5.274h7.224v1.055H9.888V5.274zm-3.77 4.22h5.494l-5.495 3.329v-3.33zm6.855 15.141c0-.093-.752-.266-.85-.288-.918-.198-1.903-.072-2.736.366-.603.318-1.186.688-1.876.777h-.004c-.403.05-.816.02-1.207-.094l-2.884-9.703 9.557-5.791v14.733zM7.699 8.438V7.384h11.602v1.054H7.699zm13.29 15.983c.006-.163-1.478-.161-1.578-.15-.915.096-1.707.567-2.515.971-.954.477-1.936.34-2.869-.104V9.902l9.557 5.79-2.595 8.73z" transform="translate(-839 -1428) translate(410 302) translate(302 2) translate(139 1135) translate(21 21)"/>
                            </g>
                        </g>
                    </g>
                </g>
            </g>
        </g>
    </g>
</svg>
