<svg xmlns="http://www.w3.org/2000/svg" xmlns:xlink="http://www.w3.org/1999/xlink" width="92" height="92" viewBox="0 0 92 92">
    <defs>
        <filter id="vnnhnzju8a" width="154.4%" height="154.4%" x="-27.2%" y="-25.7%" filterUnits="objectBoundingBox">
            <feOffset dy="1" in="SourceAlpha" result="shadowOffsetOuter1"/>
            <feGaussianBlur in="shadowOffsetOuter1" result="shadowBlurOuter1" stdDeviation="6"/>
            <feColorMatrix in="shadowBlurOuter1" values="0 0 0 0 0.140553384 0 0 0 0 0.695887683 0 0 0 0 0.998273324 0 0 0 0.445612981 0"/>
        </filter>
        <circle id="nmj1s7rmsb" cx="34" cy="34" r="34"/>
    </defs>
    <g fill="none" fill-rule="evenodd">
        <g>
            <g>
                <g>
                    <g>
                        <g>
                            <g>
                                <g transform="translate(-842 -293) translate(410 302) translate(302 2) translate(142)">
                                    <use fill="#000" filter="url(#vnnhnzju8a)" xlink:href="#nmj1s7rmsb"/>
                                    <use fill="#109CF1" xlink:href="#nmj1s7rmsb"/>
                                </g>
                                <g fill="#FFF" fill-rule="nonzero">
                                    <path d="M17 11c0-.552-.473-1-1.057-1H5.057C4.473 10 4 10.448 4 11s.473 1 1.057 1h10.886c.584 0 1.057-.448 1.057-1zM4.969 14C4.434 14 4 14.448 4 15s.434 1 .969 1h6.062c.535 0 .969-.448.969-1s-.434-1-.969-1H4.969z" transform="translate(-842 -293) translate(410 302) translate(302 2) translate(142) translate(23 21)"/>
                                    <path d="M7.238 23.969H3.942c-1.087 0-1.971-.911-1.971-2.032V4.063c0-1.12.884-2.03 1.971-2.03h12.116c1.087 0 1.971.91 1.971 2.03v6.247c0 .56.441 1.015.986 1.015.544 0 .985-.454.985-1.015V4.063C20 1.822 18.232 0 16.058 0H3.942C1.768 0 0 1.822 0 4.063v17.875C0 24.178 1.768 26 3.942 26h3.296c.544 0 .985-.455.985-1.016 0-.56-.44-1.015-.985-1.015zM22.13 14.877c-1.16-1.17-3.048-1.17-4.207 0l-5.446 5.478c-.115.117-.2.26-.248.418l-1.186 3.936c-.105.35-.014.728.239.99.19.195.446.301.71.301.088 0 .177-.012.265-.036l4.003-1.119c.165-.046.315-.134.436-.255l5.434-5.47c1.16-1.17 1.16-3.073 0-4.243zm-6.65 8.111l-2.015.563.59-1.957 3.674-3.697 1.403 1.415-3.653 3.676zm5.248-5.282l-.192.193-1.403-1.414.192-.193c.386-.39 1.015-.39 1.402 0s.387 1.024 0 1.414z" transform="translate(-842 -293) translate(410 302) translate(302 2) translate(142) translate(23 21)"/>
                                    <path d="M15.943 6H5.057C4.473 6 4 6.448 4 7s.473 1 1.057 1h10.886C16.527 8 17 7.552 17 7s-.473-1-1.057-1z" transform="translate(-842 -293) translate(410 302) translate(302 2) translate(142) translate(23 21)"/>
                                </g>
                            </g>
                        </g>
                    </g>
                </g>
            </g>
        </g>
    </g>
</svg>
