<svg xmlns="http://www.w3.org/2000/svg" xmlns:xlink="http://www.w3.org/1999/xlink" width="92" height="92" viewBox="0 0 92 92">
    <defs>
        <filter id="figgxk1v0a" width="154.4%" height="154.4%" x="-27.2%" y="-25.7%" filterUnits="objectBoundingBox">
            <feOffset dy="1" in="SourceAlpha" result="shadowOffsetOuter1"/>
            <feGaussianBlur in="shadowOffsetOuter1" result="shadowBlurOuter1" stdDeviation="6"/>
            <feColorMatrix in="shadowBlurOuter1" values="0 0 0 0 0.140553384 0 0 0 0 0.695887683 0 0 0 0 0.998273324 0 0 0 0.445612981 0"/>
        </filter>
        <circle id="ltj3ncqfvb" cx="34" cy="34" r="34"/>
    </defs>
    <g fill="none" fill-rule="evenodd">
        <g>
            <g>
                <g>
                    <g>
                        <g>
                            <g transform="translate(-841 -974) translate(410 302) translate(302 2) translate(141 681)">
                                <use fill="#000" filter="url(#figgxk1v0a)" xlink:href="#ltj3ncqfvb"/>
                                <use fill="#109CF1" xlink:href="#ltj3ncqfvb"/>
                            </g>
                            <g fill="#FFF" fill-rule="nonzero">
                                <path d="M22.475 12.857c-1.999 0-3.625 1.602-3.625 3.572 0 1.969 1.626 3.571 3.625 3.571 2 0 3.625-1.602 3.625-3.571 0-1.97-1.626-3.572-3.625-3.572zm0 5.357c-1 0-1.813-.8-1.813-1.785 0-.985.813-1.786 1.813-1.786s1.813.8 1.813 1.786c0 .984-.813 1.785-1.813 1.785zM10.875 12.857c-1.999 0-3.625 1.602-3.625 3.572C7.25 18.398 8.876 20 10.875 20s3.625-1.602 3.625-3.571c0-1.97-1.626-3.572-3.625-3.572zm0 5.357c-1 0-1.813-.8-1.813-1.785 0-.985.813-1.786 1.813-1.786s1.813.8 1.813 1.786c0 .984-.813 1.785-1.813 1.785zM24.7 1.959c-.16-.325-.489-.53-.848-.53H18.85v1.926h4.416l2.586 5.216 1.698-.865-2.85-5.747z" transform="translate(-841 -974) translate(410 302) translate(302 2) translate(141 681) rotate(1 -1350.564 1167.887)"/>
                                <path d="M11.6 15.714H18.85V17.143H11.6zM6.189 15.714H2.511c-.586 0-1.061.32-1.061.715 0 .394.475.714 1.061.714h3.678c.586 0 1.061-.32 1.061-.714 0-.395-.475-.715-1.061-.715zM28.8 9.835l-1.875-2.281c-.18-.22-.458-.349-.753-.349h-6.927V.901c0-.498-.427-.901-.954-.901H2.403c-.526 0-.953.403-.953.9 0 .498.427.901.953.901h14.935v6.305c0 .498.427.9.953.9h7.414l1.388 1.69v4.646h-2.637c-.527 0-.953.403-.953.9 0 .498.426.9.953.9h3.59c.527 0 .954-.402.954-.9v-5.854c0-.2-.07-.395-.2-.553zM7.602 11.429H2.548c-.606 0-1.098.32-1.098.714 0 .394.492.714 1.098.714h5.054c.606 0 1.098-.32 1.098-.714 0-.395-.492-.714-1.098-.714z" transform="translate(-841 -974) translate(410 302) translate(302 2) translate(141 681) rotate(1 -1350.564 1167.887)"/>
                                <path d="M9.186 7.143H.964c-.533 0-.964.32-.964.714 0 .395.431.714.964.714h8.222c.533 0 .964-.32.964-.714 0-.394-.431-.714-.964-.714zM10.636 2.857H2.414c-.533 0-.964.32-.964.714 0 .395.431.715.964.715h8.222c.533 0 .964-.32.964-.715 0-.394-.431-.714-.964-.714z" transform="translate(-841 -974) translate(410 302) translate(302 2) translate(141 681) rotate(1 -1350.564 1167.887)"/>
                            </g>
                        </g>
                    </g>
                </g>
            </g>
        </g>
    </g>
</svg>
