<svg xmlns="http://www.w3.org/2000/svg" xmlns:xlink="http://www.w3.org/1999/xlink" width="92" height="92" viewBox="0 0 92 92">
    <defs>
        <filter id="41wgi8l0ua" width="154.4%" height="154.4%" x="-27.2%" y="-25.7%" filterUnits="objectBoundingBox">
            <feOffset dy="1" in="SourceAlpha" result="shadowOffsetOuter1"/>
            <feGaussianBlur in="shadowOffsetOuter1" result="shadowBlurOuter1" stdDeviation="6"/>
            <feColorMatrix in="shadowBlurOuter1" values="0 0 0 0 0.140553384 0 0 0 0 0.695887683 0 0 0 0 0.998273324 0 0 0 0.445612981 0"/>
        </filter>
        <circle id="hnx1i898cb" cx="34" cy="34" r="34"/>
    </defs>
    <g fill="none" fill-rule="evenodd">
        <g>
            <g>
                <g>
                    <g>
                        <g>
                            <g transform="translate(-839 -1201) translate(410 302) translate(302 2) translate(139 908)">
                                <use fill="#000" filter="url(#41wgi8l0ua)" xlink:href="#hnx1i898cb"/>
                                <use fill="#109CF1" xlink:href="#hnx1i898cb"/>
                            </g>
                            <g fill="#FFF" fill-rule="nonzero">
                                <path d="M21.322 5.283l-.006-.007-.01-.01-.192-.211L17.301.863c-.424-.467-.986-.76-1.602-.84h-.002l-.025-.004C15.567.007 15.462 0 15.355 0H4.796c-1.185 0-2.15.971-2.15 2.165v1.053h-.734C.858 3.218 0 4.082 0 5.144v21.913C0 28.68 1.31 30 2.922 30H16.28c1.054 0 1.911-.864 1.911-1.925v-.918h1.66c1.185 0 2.15-.971 2.15-2.165V7.062c0-.66-.24-1.29-.678-1.779zm-.908.736h-3.965c-.23 0-.417-.188-.417-.42V1.338c.153.08.293.186.411.316l3.694 4.061.277.304zm-.564 19.966H4.796c-.543 0-.986-.445-.986-.993v-2.726c0-.324-.26-.586-.582-.586-.32 0-.582.262-.582.586v2.726c0 1.194.965 2.165 2.15 2.165h12.23v.918c0 .415-.335.753-.747.753H2.922c-.97 0-1.758-.795-1.758-1.771V5.144c0-.416.335-.754.748-.754h.734v13.188c0 .324.261.586.582.586.322 0 .582-.262.582-.586V2.165c0-.547.443-.993.986-.993h10.072v4.427c0 .878.71 1.592 1.58 1.592h4.388v17.801c0 .548-.442.993-.986.993z" transform="translate(-839 -1201) translate(410 302) translate(302 2) translate(139 908) translate(23 19)"/>
                                <path d="M7.63 9h6.74c.348 0 .63-.448.63-1s-.282-1-.63-1H7.63C7.282 7 7 7.448 7 8s.282 1 .63 1zM15.434 12H6.566C6.253 12 6 12.448 6 13s.253 1 .566 1h8.868c.313 0 .566-.448.566-1s-.253-1-.566-1zM15.434 16H6.566C6.253 16 6 16.448 6 17s.253 1 .566 1h8.868c.313 0 .566-.448.566-1s-.253-1-.566-1zM15.434 21H6.566C6.253 21 6 21.448 6 22s.253 1 .566 1h8.868c.313 0 .566-.448.566-1s-.253-1-.566-1zM3 19c-.552 0-1 .449-1 1 0 .553.448 1 1 1s1-.447 1-1v-.002C4 19.446 3.552 19 3 19z" transform="translate(-839 -1201) translate(410 302) translate(302 2) translate(139 908) translate(23 19)"/>
                            </g>
                        </g>
                    </g>
                </g>
            </g>
        </g>
    </g>
</svg>
