<svg xmlns="http://www.w3.org/2000/svg" xmlns:xlink="http://www.w3.org/1999/xlink" width="120" height="120" viewBox="0 0 120 120">
    <defs>
        <filter id="prefix__a" width="167.6%" height="167.6%" x="-33.8%" y="-32.4%" filterUnits="objectBoundingBox">
            <feOffset dy="1" in="SourceAlpha" result="shadowOffsetOuter1"/>
            <feGaussianBlur in="shadowOffsetOuter1" result="shadowBlurOuter1" stdDeviation="7.5"/>
            <feColorMatrix in="shadowBlurOuter1" values="0 0 0 0 0.215686275 0 0 0 0 0.317647059 0 0 0 0 0.494117647 0 0 0 0.207823427 0"/>
        </filter>
        <circle id="prefix__b" cx="60" cy="60" r="34"/>
    </defs>
    <g fill="none" fill-rule="evenodd">
        <circle cx="60" cy="60" r="60" fill="#ECD858" opacity=".146"/>
        <use fill="#000" filter="url(#prefix__a)" xlink:href="#prefix__b"/>
        <use fill="#ECD858" xlink:href="#prefix__b"/>
        <g fill="#FFF">
            <path d="M27.53 11.551L14.967.368c-.551-.49-1.383-.49-1.934 0L.47 11.551c-.442.394-.587 1-.372 1.544.216.544.742.896 1.34.896h2.006v11.205c0 .444.369.804.823.804h6.886c.455 0 .824-.36.824-.804v-6.804h4.047v6.804c0 .444.368.804.823.804h6.886c.454 0 .823-.36.823-.804V13.99h2.007c.597 0 1.123-.352 1.339-.896.215-.545.07-1.15-.372-1.544z" transform="translate(46 47)"/>
            <path d="M22.222 2H17l6 7V2.998c0-.551-.348-.998-.778-.998z" transform="translate(46 47)"/>
        </g>
    </g>
</svg>
