<svg xmlns="http://www.w3.org/2000/svg" xmlns:xlink="http://www.w3.org/1999/xlink" width="92" height="92" viewBox="0 0 92 92">
    <defs>
        <filter id="z8sz0ncgaa" width="154.4%" height="154.4%" x="-27.2%" y="-25.7%" filterUnits="objectBoundingBox">
            <feOffset dy="1" in="SourceAlpha" result="shadowOffsetOuter1"/>
            <feGaussianBlur in="shadowOffsetOuter1" result="shadowBlurOuter1" stdDeviation="6"/>
            <feColorMatrix in="shadowBlurOuter1" values="0 0 0 0 0.140553384 0 0 0 0 0.695887683 0 0 0 0 0.998273324 0 0 0 0.445612981 0"/>
        </filter>
        <circle id="lwuaac222b" cx="34" cy="34" r="34"/>
    </defs>
    <g fill="none" fill-rule="evenodd">
        <g>
            <g>
                <g>
                    <g>
                        <g>
                            <g>
                                <g>
                                    <g transform="translate(-840 -747) translate(410 302) translate(302 2) translate(140 454)">
                                        <use fill="#000" filter="url(#z8sz0ncgaa)" xlink:href="#lwuaac222b"/>
                                        <use fill="#109CF1" xlink:href="#lwuaac222b"/>
                                    </g>
                                </g>
                            </g>
                            <g fill="#FFF" fill-rule="nonzero">
                                <path stroke="#FFF" stroke-width=".5" d="M28.83 8.055l-.803-3.112c.22-.045.384-.233.384-.46v-.501c0-1.09-.914-1.975-2.038-1.975h-3.657V.972c0-.536-.45-.972-1.003-.972H3.074c-.553 0-1.003.436-1.003.972V9.5c0 .26.217.47.485.47s.486-.21.486-.47V.972c0-.017.014-.031.032-.031h18.639c.018 0 .032.014.032.031V9.5c0 .26.218.47.486.47s.485-.21.485-.47v-.533h5.729c.704 0 1.302.449 1.508 1.066h-1.51c-.267 0-.485.21-.485.47v1.004c0 .812.682 1.473 1.521 1.473h.55v2.07H28.76c-.417-1.167-1.561-2.007-2.905-2.007-1.344 0-2.488.84-2.905 2.007h-.234v-3.543c0-.26-.217-.47-.485-.47s-.486.21-.486.47v3.543h-10.07c-.417-1.167-1.562-2.007-2.906-2.007s-2.488.84-2.905 2.007h-2.79c-.018 0-.032-.015-.032-.032v-1.035h2.103c.268 0 .486-.21.486-.47s-.218-.47-.486-.47H.485c-.268 0-.485.21-.485.47s.217.47.485.47h1.586v1.035c0 .536.45.972 1.003.972h2.622v.031C5.695 17.664 7.073 19 8.768 19s3.074-1.336 3.074-2.979v-.03h10.939l-.001.03c0 1.643 1.379 2.979 3.074 2.979 1.695 0 3.074-1.336 3.074-2.979v-.03h1.586c.268 0 .485-.211.485-.471v-5.017c0-1.238-.943-2.267-2.17-2.448zm-6.114-5.108h3.657c.589 0 1.068.464 1.068 1.035v.031h-4.725V2.947zm0 5.08V4.953h4.313l.793 3.072h-5.106zM8.77 18.06c-1.16 0-2.103-.915-2.103-2.038 0-1.124.944-2.038 2.103-2.038 1.16 0 2.104.914 2.104 2.038 0 1.123-.944 2.038-2.104 2.038zm17.086 0c-1.16 0-2.103-.915-2.103-2.038 0-1.124.943-2.038 2.103-2.038 1.16 0 2.103.914 2.103 2.038 0 1.123-.943 2.038-2.103 2.038zm4.174-6.02h-.55c-.303 0-.55-.24-.55-.533v-.533h1.1v1.066h0z" transform="translate(-840 -747) translate(410 302) translate(302 2) translate(140 454) translate(19 25)"/>
                                <path d="M8.324 15.088c-.475 0-.861.376-.861.838 0 .463.386.839.861.839s.861-.376.861-.839c0-.462-.386-.838-.86-.838zM25.546 15.088c-.475 0-.86.376-.86.838 0 .463.385.839.86.839s.861-.376.861-.839c0-.462-.386-.838-.86-.838zM20.192 12.853h-7.088c-.262 0-.474.25-.474.559 0 .308.212.559.474.559h7.088c.262 0 .475-.25.475-.56 0-.308-.213-.558-.475-.558zM7.572 11.176H1.614c-.257 0-.466.25-.466.56 0 .308.209.558.466.558h5.958c.257 0 .465-.25.465-.559 0-.308-.208-.559-.465-.559zM17.083 4.612c-.185-.188-.486-.188-.671 0l-4.22 4.284-2.197-2.229c-.185-.188-.485-.188-.67 0-.186.188-.186.493 0 .681l2.53 2.57c.093.094.215.14.336.14.122 0 .243-.046.336-.14l4.556-4.625c.186-.188.186-.493 0-.681z" transform="translate(-840 -747) translate(410 302) translate(302 2) translate(140 454) translate(19 25)"/>
                            </g>
                        </g>
                    </g>
                </g>
            </g>
        </g>
    </g>
</svg>
