<svg xmlns="http://www.w3.org/2000/svg" xmlns:xlink="http://www.w3.org/1999/xlink" width="92" height="92" viewBox="0 0 92 92">
    <defs>
        <filter id="32qjwak27a" width="154.4%" height="154.4%" x="-27.2%" y="-25.7%" filterUnits="objectBoundingBox">
            <feOffset dy="1" in="SourceAlpha" result="shadowOffsetOuter1"/>
            <feGaussianBlur in="shadowOffsetOuter1" result="shadowBlurOuter1" stdDeviation="6"/>
            <feColorMatrix in="shadowBlurOuter1" values="0 0 0 0 0.140553384 0 0 0 0 0.695887683 0 0 0 0 0.998273324 0 0 0 0.445612981 0"/>
        </filter>
        <circle id="swtkz8mj4b" cx="34" cy="34" r="34"/>
    </defs>
    <g fill="none" fill-rule="evenodd">
        <g>
            <g>
                <g>
                    <g>
                        <g>
                            <g>
                                <g transform="translate(-840 -520) translate(410 302) translate(302 2) translate(140 227)">
                                    <use fill="#000" filter="url(#32qjwak27a)" xlink:href="#swtkz8mj4b"/>
                                    <use fill="#109CF1" xlink:href="#swtkz8mj4b"/>
                                </g>
                                <g fill="#FFF" fill-rule="nonzero">
                                    <path d="M23.836 2.11H22.57V0h-2.11v2.11H6.54V0H4.43v2.11H3.164C1.42 2.11 0 3.528 0 5.272v18.563C0 25.58 1.42 27 3.164 27h20.672C25.58 27 27 25.58 27 23.836V5.273c0-1.744-1.42-3.164-3.164-3.164zM3.164 4.218H4.43v2.11h2.11v-2.11h13.92v2.11h2.11v-2.11h1.266c.581 0 1.055.473 1.055 1.054v2.532H2.109V5.273c0-.581.474-1.054 1.055-1.054zM23.836 24.89H3.164c-.581 0-1.055-.474-1.055-1.055V9.914h22.782v13.922c0 .581-.474 1.055-1.055 1.055zM4.008 12.129h2.11v2.11h-2.11v-2.11zm4.219 0h2.109v2.11h-2.11v-2.11zm4.218 0h2.11v2.11h-2.11v-2.11zm4.22 0h2.108v2.11h-2.109v-2.11zm4.218 0h2.11v2.11h-2.11v-2.11zM4.008 16.348h2.11v2.109h-2.11v-2.11zm4.219 0h2.109v2.109h-2.11v-2.11zm4.218 0h2.11v2.109h-2.11v-2.11zm4.22 0h2.108v2.109h-2.109v-2.11zM4.007 20.566h2.11v2.11h-2.11v-2.11zm4.219 0h2.109v2.11h-2.11v-2.11zm4.218 0h2.11v2.11h-2.11v-2.11zm4.22 0h2.108v2.11h-2.109v-2.11zm4.218-4.218h2.11v2.109h-2.11v-2.11z" transform="translate(-840 -520) translate(410 302) translate(302 2) translate(140 227) translate(21 21)"/>
                                </g>
                            </g>
                        </g>
                    </g>
                </g>
            </g>
        </g>
    </g>
</svg>
