<svg xmlns="http://www.w3.org/2000/svg" width="23" height="20" viewBox="0 0 23 20">
    <g fill="#B7BCD6">
        <circle cx="12" cy="4" r="4"/>
        <circle cx="19.5" cy="5.5" r="2.5"/>
        <circle cx="3.5" cy="5.5" r="2.5"/>
        <path d="M6 9.676c-.968-.774-1.845-.672-2.964-.672C1.362 9.004 0 10.326 0 11.95v4.765c0 .705.59 1.278 1.315 1.278 3.131 0 2.754.056 2.754-.131 0-3.377-.41-5.853 1.931-8.185z"/>
        <path d="M12.07 9.054c-1.937-.167-3.62.002-5.072 1.245-2.43 2.018-1.962 4.735-1.962 8.059 0 .88.69 1.608 1.551 1.608 9.348 0 9.72.313 10.275-.96.182-.43.132-.294.132-4.412 0-3.271-2.732-5.54-4.925-5.54zM19.964 9.004c-1.125 0-1.997-.101-2.964.672 2.323 2.315 1.931 4.622 1.931 8.184 0 .189-.313.132 2.707.132.751 0 1.362-.594 1.362-1.324v-4.72c0-1.623-1.362-2.944-3.036-2.944z"/>
    </g>
</svg>
