<svg xmlns="http://www.w3.org/2000/svg" width="12" height="10" viewBox="0 0 12 10">
    <g fill="none" fill-rule="evenodd">
        <g fill="#F99E04" fill-rule="nonzero">
            <g>
                <g>
                    <g>
                        <g>
                            <g>
                                <path d="M11.845 8.416L6.923.506C6.73.193 6.376 0 6 0s-.73.194-.923.505L.155 8.415c-.2.323-.207.727-.016 1.054.191.328.55.531.939.531h9.844c.388 0 .748-.203.939-.531.19-.328.185-.731-.016-1.053zm-.664.68c-.053.09-.152.147-.259.147H1.078c-.107 0-.206-.056-.259-.146-.052-.09-.05-.202.005-.29L5.746.897c.053-.087.15-.14.254-.14.103 0 .2.053.254.14l4.922 7.91c.056.088.057.2.005.29z" transform="translate(-1511 -547) translate(312 405) translate(0 126) translate(59 12) translate(1081) translate(59 4)"/>
                                <path d="M6.007 3C5.44 3 5 3.147 5 3.407c0 .794.193 1.934.193 2.728 0 .207.373.294.814.294.331 0 .8-.087.8-.294 0-.794.193-1.934.193-2.728C7 3.147 6.545 3 6.007 3zM6.007 7.286c-.576 0-1.007.39-1.007.857C5 8.599 5.431 9 6.007 9 6.542 9 7 8.6 7 8.143c0-.468-.458-.857-.993-.857z" transform="translate(-1511 -547) translate(312 405) translate(0 126) translate(59 12) translate(1081) translate(59 4)"/>
                            </g>
                        </g>
                    </g>
                </g>
            </g>
        </g>
    </g>
</svg>
