<svg xmlns="http://www.w3.org/2000/svg" width="18" height="14" viewBox="0 0 18 14">
    <path fill="#109CF1" d="M17.769 11.046h-.563V7.82c0-.377-.11-.747-.317-1.06l-1.41-2.14c-.344-.523-.918-.836-1.534-.836h-2.184c-.257 0-.463.214-.463.475v6.786H7.72c.34.301.574.721.64 1.196h3.773c.134-.942.926-1.67 1.882-1.67.956 0 1.745.728 1.879 1.67h1.875c.127 0 .231-.107.231-.237v-.722c0-.13-.104-.237-.231-.237zm-2.305-3.858H12.58c-.127 0-.232-.105-.232-.238V5.31c0-.13.105-.236.232-.236h1.756c.077 0 .146.038.19.1l1.127 1.641c.107.157-.002.373-.19.373zm-1.45 3.858c-.795 0-1.439.662-1.439 1.478 0 .814.644 1.476 1.44 1.476.794 0 1.44-.662 1.44-1.476 0-.816-.646-1.478-1.44-1.478zm0 2.216c-.397 0-.719-.332-.719-.738 0-.408.322-.738.72-.738.398 0 .72.33.72.738 0 .406-.322.738-.72.738zM2.014 11.046c-.128 0-.232.107-.232.237v.722c0 .13.104.237.232.237H4.6c.067-.475.301-.895.639-1.196H2.013zm4.466 0c-.793 0-1.44.662-1.44 1.478 0 .814.647 1.476 1.44 1.476.796 0 1.44-.662 1.44-1.476 0-.816-.644-1.478-1.44-1.478zm0 2.216c-.398 0-.72-.332-.72-.738 0-.408.322-.738.72-.738.398 0 .72.33.72.738 0 .406-.322.738-.72.738zM9.942 2.314H7.259c.132.401.202.83.202 1.274 0 2.24-1.778 4.062-3.962 4.062-.399 0-.785-.061-1.148-.173V10.1c0 .13.104.237.231.237h7.822c.128 0 .232-.106.232-.237V3.026c0-.394-.31-.712-.694-.712zM3.499 0C1.567 0 0 1.606 0 3.587 0 5.57 1.567 7.175 3.5 7.175c1.932 0 3.498-1.606 3.498-3.588C6.998 1.607 5.432 0 3.5 0zm0 6.359C2.006 6.359.796 5.118.796 3.587c0-1.53 1.21-2.77 2.703-2.77 1.493 0 2.703 1.24 2.703 2.77S4.992 6.36 3.499 6.36zm1.032-2.186c-.03 0-.06-.004-.09-.013L3.313 3.85c-.151-.042-.257-.183-.257-.344v-1.78c0-.196.156-.355.347-.355.192 0 .348.16.348.356v1.506l.87.241c.186.051.295.247.245.436-.042.16-.182.264-.335.264z"/>
</svg>
