<svg xmlns="http://www.w3.org/2000/svg" width="27" height="19" viewBox="0 0 27 19">
    <path fill="#49DDAA" d="M.947 12.66V1.156C.947.518 1.465 0 2.103 0h11.482c.638 0 1.156.518 1.156 1.157V12.66c0 .213-.173.386-.386.386H1.333c-.213 0-.386-.173-.386-.386zm9.272 3.94c0 1.325-1.073 2.4-2.397 2.4-1.324 0-2.397-1.075-2.397-2.4 0-1.326 1.073-2.4 2.397-2.4 1.324 0 2.397 1.074 2.397 2.4zm-1.199 0c0-.663-.536-1.2-1.198-1.2-.662 0-1.199.537-1.199 1.2 0 .663.537 1.2 1.199 1.2s1.198-.537 1.198-1.2zm-3.263-2.4H.385c-.213 0-.385.172-.385.385v1.17c0 .214.172.386.385.386h4.306c.112-.772.502-1.454 1.066-1.942zm17.005 2.4c0 1.325-1.073 2.4-2.397 2.4-1.324 0-2.398-1.075-2.398-2.4 0-1.326 1.074-2.4 2.398-2.4s2.397 1.074 2.397 2.4zm-1.199 0c0-.663-.536-1.2-1.198-1.2-.662 0-1.199.537-1.199 1.2 0 .663.537 1.2 1.199 1.2s1.198-.537 1.198-1.2zM27 14.585v1.17c0 .214-.172.386-.385.386h-3.12c-.223-1.532-1.54-2.713-3.13-2.713-1.591 0-2.908 1.181-3.131 2.713h-6.281c-.113-.772-.502-1.454-1.066-1.942h5.955V3.165c0-.426.345-.771.77-.771h3.638c1.024 0 1.981.51 2.555 1.359l2.344 3.477c.344.51.528 1.112.528 1.727V14.2h.938c.213 0 .385.173.385.386zM23.092 7.32l-1.876-2.667c-.072-.103-.19-.164-.315-.164h-2.924c-.213 0-.386.173-.386.386V7.54c0 .213.173.386.386.386h4.8c.312 0 .494-.352.315-.608z"/>
</svg>
