<svg xmlns="http://www.w3.org/2000/svg" width="26" height="16" viewBox="0 0 26 16">
    <g fill="#B7BCD6">
        <path d="M24.588 4.826l-.115-.15c-.458-.603-.829-1.281-1.156-1.88-.32-.587-.623-1.141-.954-1.525C21.626.416 20.933 0 20.243 0h-3.408c-.003 0-.328.004-.72.004h-.556c-.397 0-.743.27-.842.655l-.004.017V8.201c0 .005.01.112-.076.205-.093.102-.273.156-.52.156H.847C.38 8.562 0 8.92 0 9.358v2.734c0 .438.38.795.847.795h2.914C3.914 14.63 5.382 16 7.166 16c1.784 0 3.253-1.371 3.405-3.113h4.878C15.602 14.63 17.07 16 18.854 16c1.784 0 3.252-1.371 3.405-3.113h2.217c.84 0 1.524-.682 1.524-1.521v-2.61c0-2.102-.85-3.202-1.412-3.93zm-4.46 7.761c0 .702-.571 1.273-1.274 1.273-.703 0-1.274-.571-1.274-1.273 0-.701.571-1.272 1.274-1.272.703 0 1.275.571 1.275 1.272zm2.932-6.623c-.027.044-.103.063-.218.055h-5.857V1.25h2.532c.681 0 1.164.297 1.666 1.023.335.482 1.22 2.002 1.264 2.08l.097.184c.255.487.64 1.223.516 1.428zM7.166 11.315c.703 0 1.275.571 1.275 1.272 0 .702-.572 1.273-1.275 1.273-.702 0-1.274-.571-1.274-1.273 0-.701.572-1.272 1.274-1.272z"/>
        <path d="M1.806 7h4.388C6.638 7 7 6.626 7 6.167V2.833C7 2.373 6.638 2 6.194 2H1.806C1.362 2 1 2.374 1 2.833v3.334c0 .46.362.833.806.833zM8.806 7h4.388c.444 0 .806-.374.806-.833V2.833c0-.46-.362-.833-.806-.833H8.806C8.362 2 8 2.374 8 2.833v3.334c0 .46.362.833.806.833z"/>
    </g>
</svg>
