<svg xmlns="http://www.w3.org/2000/svg" width="18" height="13" viewBox="0 0 18 13">
    <g fill="none" fill-rule="evenodd">
        <g fill="#109CF1" fill-rule="nonzero">
            <g>
                <g>
                    <g>
                        <g>
                            <g>
                                <g>
                                    <path d="M.632 8.662V.792C.632.355.977 0 1.402 0h7.655c.425 0 .77.355.77.792v7.87c0 .145-.115.264-.257.264H.888c-.141 0-.256-.119-.256-.264zm6.18 2.696c0 .907-.715 1.642-1.597 1.642-.883 0-1.599-.735-1.599-1.642 0-.907.716-1.643 1.599-1.643.882 0 1.598.736 1.598 1.643zm-.798 0c0-.454-.358-.821-.8-.821-.44 0-.799.367-.799.82 0 .454.358.822.8.822.44 0 .799-.368.799-.821zM3.838 9.715H.257c-.142 0-.257.119-.257.264v.801c0 .146.115.264.257.264h2.87c.075-.528.335-.995.711-1.329zm11.337 1.643c0 .907-.716 1.642-1.599 1.642-.882 0-1.598-.735-1.598-1.642 0-.907.716-1.643 1.598-1.643.883 0 1.599.736 1.599 1.643zm-.8 0c0-.454-.357-.821-.799-.821-.44 0-.799.367-.799.82 0 .454.358.822.8.822.44 0 .799-.368.799-.821zM18 9.979v.801c0 .146-.115.264-.257.264h-2.08c-.148-1.048-1.026-1.857-2.086-1.857-1.061 0-1.94.809-2.088 1.857H7.302c-.075-.528-.335-.995-.71-1.329h3.97v-7.55c0-.29.23-.527.513-.527H13.5c.683 0 1.321.348 1.703.93l1.563 2.38c.23.348.352.76.352 1.18v3.587h.625c.142 0 .257.119.257.264zm-2.606-4.971l-1.25-1.825c-.048-.07-.126-.112-.21-.112h-1.95c-.141 0-.256.118-.256.264V5.16c0 .146.115.264.256.264h3.2c.208 0 .33-.241.21-.416z" transform="translate(-547 -421) translate(337 351) translate(29 27) translate(0 1) translate(0 39) translate(167) translate(14 3)"/>
                                </g>
                            </g>
                        </g>
                    </g>
                </g>
            </g>
        </g>
    </g>
</svg>
