<svg xmlns="http://www.w3.org/2000/svg" width="15" height="11" viewBox="0 0 15 11">
    <g fill="none" fill-rule="evenodd">
        <g fill="#156CE4" fill-rule="nonzero">
            <g>
                <g>
                    <g>
                        <g>
                            <g>
                                <path d="M13.832 0H5.48c-.645 0-1.169.51-1.169 1.135V2.16H1.831C.82 2.159 0 2.957 0 3.937V8.46c0 .553.463 1.002 1.031 1.002H1.9C2.1 10.341 2.909 11 3.873 11s1.773-.66 1.974-1.539h3.301c.201.88 1.01 1.539 1.974 1.539.965 0 1.773-.66 1.974-1.539h.736c.644 0 1.168-.509 1.168-1.135v-7.19C15 .508 14.476 0 13.832 0zM1.899 8.608h-.868c-.084 0-.152-.067-.152-.149V3.937c0-.51.427-.925.952-.925h2.481v4.104c-.141-.03-.288-.047-.439-.047-.964 0-1.773.66-1.974 1.539zm1.974 1.538c-.63 0-1.144-.499-1.144-1.111 0-.613.513-1.112 1.144-1.112.63 0 1.144.499 1.144 1.112 0 .612-.513 1.111-1.144 1.111zm7.25 0c-.631 0-1.145-.498-1.145-1.111s.514-1.112 1.144-1.112c.63 0 1.144.499 1.144 1.112 0 .612-.513 1.111-1.144 1.111zm2.709-1.538h-.736c-.201-.88-1.01-1.539-1.974-1.539s-1.773.66-1.974 1.539H5.847c-.096-.42-.331-.79-.656-1.062v-6.41c0-.156.13-.282.29-.282h8.35c.16 0 .29.126.29.281v7.191c0 .155-.13.282-.29.282z" transform="translate(-1542 -142) translate(291 122) translate(0 2) translate(1057) translate(174) translate(20 18)"/>
                            </g>
                        </g>
                    </g>
                </g>
            </g>
        </g>
    </g>
</svg>
