<svg xmlns="http://www.w3.org/2000/svg" width="16" height="11" viewBox="0 0 16 11">
    <g fill="none" fill-rule="evenodd">
        <g fill="#FFF" fill-rule="nonzero">
            <g>
                <g>
                    <g>
                        <g>
                            <g>
                                <path d="M.561 7.33V.67C.561.3.868 0 1.246 0H8.05c.379 0 .685.3.685.67v6.66c0 .122-.102.222-.228.222H.79c-.126 0-.229-.1-.229-.223zm5.495 2.28c0 .768-.636 1.39-1.42 1.39-.785 0-1.421-.622-1.421-1.39 0-.767.636-1.39 1.42-1.39.785 0 1.42.623 1.42 1.39zm-.71 0c0-.383-.319-.694-.71-.694-.393 0-.711.31-.711.694 0 .384.318.695.71.695.392 0 .71-.31.71-.695zM3.411 8.22H.228c-.126 0-.228.1-.228.224v.678c0 .123.102.223.228.223H2.78c.067-.447.297-.842.632-1.124zm10.077 1.39c0 .768-.636 1.39-1.421 1.39s-1.42-.622-1.42-1.39c0-.767.635-1.39 1.42-1.39.785 0 1.42.623 1.42 1.39zm-.71 0c0-.383-.319-.694-.711-.694-.392 0-.71.31-.71.694 0 .384.318.695.71.695.392 0 .71-.31.71-.695zM16 8.444v.678c0 .123-.102.223-.228.223h-1.849c-.132-.887-.912-1.571-1.855-1.571s-1.723.684-1.855 1.57H6.49c-.066-.446-.297-.841-.631-1.123h3.529V1.833c0-.247.204-.447.457-.447H12c.607 0 1.174.295 1.514.787l1.39 2.013c.203.295.312.643.312 1V8.22h.556c.126 0 .228.1.228.223zm-2.316-4.206l-1.111-1.545c-.043-.06-.113-.095-.187-.095h-1.733c-.126 0-.229.1-.229.224v1.544c0 .123.103.223.229.223h2.844c.185 0 .293-.204.187-.351z" transform="translate(-339 -994) translate(303 91) translate(1 22) translate(24 537) translate(1 332) translate(10 12)"/>
                            </g>
                        </g>
                    </g>
                </g>
            </g>
        </g>
    </g>
</svg>
