<svg xmlns="http://www.w3.org/2000/svg" width="20" height="20" viewBox="0 0 20 20">
    <g fill="#FFF" stroke="#FFF">
        <path d="M17.5 4c-.276 0-.5.224-.5.5V17H4.5c-.276 0-.5.224-.5.5s.224.5.5.5h13c.276 0 .5-.224.5-.5v-13c0-.276-.224-.5-.5-.5z" transform="translate(1 1)"/>
        <path d="M17.854 17.147l-17-17C.657-.05.34-.05.145.146c-.195.194-.195.511 0 .706l17 17.001c.099.097.227.146.355.146.128 0 .256-.049.353-.146.195-.195.195-.512 0-.707z" transform="translate(1 1)"/>
    </g>
</svg>
