<svg xmlns="http://www.w3.org/2000/svg" width="14" height="18" viewBox="0 0 14 18">
    <g fill="none">
        <path fill="#109CF1" d="M1.615 18h10.77c.89 0 1.615-.71 1.615-1.582V5.273h-3.77c-.89 0-1.615-.71-1.615-1.582V0h-7C.725 0 0 .71 0 1.582v14.836C0 17.29.725 18 1.615 18z"/>
        <path fill="#FFF" d="M7 6c0 .552-.448 1-1 1s-1-.448-1-1 .448-1 1-1 1 .448 1 1zM6.538 14c-.254 0-.461-.168-.461-.375V9.75h-.615C5.207 9.75 5 9.582 5 9.375S5.207 9 5.462 9h1.076c.255 0 .462.168.462.375v4.25c0 .207-.207.375-.462.375z"/>
        <path fill="#FFF" d="M7.625 14h-2.25C5.168 14 5 13.776 5 13.5s.168-.5.375-.5h2.25c.207 0 .375.224.375.5s-.168.5-.375.5z"/>
        <path fill="#109CF1" d="M10.54 4H14l-4-4v3.46c0 .298.242.54.54.54z"/>
    </g>
</svg>
