<svg xmlns="http://www.w3.org/2000/svg" width="14" height="18" viewBox="0 0 14 18">
    <g fill="none">
        <path fill="#B7BCD6" d="M1.615 18h10.77c.89 0 1.615-.71 1.615-1.582V5.273h-3.77c-.89 0-1.615-.71-1.615-1.582V0h-7C.725 0 0 .71 0 1.582v14.836C0 17.29.725 18 1.615 18z"/>
        <g fill="#FFF">
            <path d="M2 1c0 .552-.448 1-1 1s-1-.448-1-1 .448-1 1-1 1 .448 1 1zM1.538 9c-.254 0-.461-.168-.461-.375V4.75H.462C.207 4.75 0 4.582 0 4.375S.207 4 .462 4h1.076c.255 0 .462.168.462.375v4.25C2 8.832 1.793 9 1.538 9z" transform="translate(5 5)"/>
            <path d="M2.625 9H.375C.168 9 0 8.776 0 8.5S.168 8 .375 8h2.25c.207 0 .375.224.375.5s-.168.5-.375.5z" transform="translate(5 5)"/>
        </g>
        <path fill="#B7BCD6" d="M10.54 4H14l-4-4v3.46c0 .298.242.54.54.54z"/>
    </g>
</svg>
