<svg xmlns="http://www.w3.org/2000/svg" width="13" height="17" viewBox="0 0 13 17">
    <g fill="#B7BCD6">
        <path d="M9.418 4.087c-.289 0-.523-.233-.523-.521V0H4.524C4.234 0 4 .233 4 .522V2.93h1.426c.141 0 .275.056.371.153L9.903 7.17c.092.092.153.224.153.369V14h2.42c.29 0 .524-.234.524-.522v-9.39H9.418z"/>
        <path d="M10 1L10 3 12 3zM4.894 7.518V4H.524C.234 4 0 4.23 0 4.515v11.97c0 .285.234.515.524.515h7.952c.29 0 .524-.23.524-.515V8.032H5.418c-.29 0-.524-.23-.524-.514z"/>
        <path d="M6 7L8 7 6 5z"/>
    </g>
</svg>
