<svg xmlns="http://www.w3.org/2000/svg" width="9" height="12" viewBox="0 0 9 12">
    <g fill="none" fill-rule="evenodd">
        <g fill="#24B1FF" fill-rule="nonzero">
            <g>
                <g>
                    <g>
                        <g>
                            <g>
                                <g>
                                    <g>
                                        <path d="M8.723 2.113L8.72 2.11l-.004-.004-.078-.084L7.078.345C6.904.16 6.674.041 6.422.01l-.01-.001C6.367.003 6.324 0 6.281 0h-4.32c-.485 0-.88.388-.88.866v.421h-.3c-.431 0-.782.346-.782.77v8.766C0 11.472.536 12 1.196 12h5.463c.432 0 .783-.346.783-.77v-.367h.678c.485 0 .88-.389.88-.866V2.825c0-.264-.098-.516-.277-.712zm-.372.295H6.73c-.094 0-.17-.076-.17-.168V.535c.062.032.12.075.168.127l1.511 1.624.113.122zm-.23 7.986H1.962c-.222 0-.403-.178-.403-.397v-1.09c0-.13-.107-.235-.238-.235-.132 0-.238.105-.238.234v1.09c0 .478.394.867.88.867h5.003v.367c0 .166-.138.301-.307.301H1.196c-.397 0-.72-.318-.72-.708V2.058c0-.167.137-.302.306-.302h.3v5.275c0 .13.107.235.239.235.131 0 .238-.105.238-.235V.866c0-.219.18-.397.403-.397h4.12v1.77c0 .352.29.637.647.637h1.795v7.12c0 .22-.181.398-.403.398z" transform="translate(-1293.000000, -723.000000) translate(718.000000, 106.000000) translate(0.000000, 38.000000) translate(35.000000, 109.000000) translate(530.000000, 459.000000) translate(10.000000, 10.000000) translate(0.000000, 1.000000)"/>
                                        <path d="M2.368 3.5h2.676c.138 0 .25-.112.25-.25S5.182 3 5.044 3H2.368c-.138 0-.25.112-.25.25s.112.25.25.25zM6.643 4.5H2.887c-.133 0-.24.112-.24.25s.107.25.24.25h3.756c.132 0 .24-.112.24-.25s-.108-.25-.24-.25zM6.643 7H2.887c-.133 0-.24.112-.24.25s.107.25.24.25h3.756c.132 0 .24-.112.24-.25S6.774 7 6.642 7zM6.643 8.5H2.887c-.133 0-.24.112-.24.25s.107.25.24.25h3.756c.132 0 .24-.112.24-.25s-.108-.25-.24-.25zM1.324 8c-.147 0-.265.112-.265.25s.118.25.265.25c.146 0 .264-.112.264-.25S1.47 8 1.324 8z" transform="translate(-1293.000000, -723.000000) translate(718.000000, 106.000000) translate(0.000000, 38.000000) translate(35.000000, 109.000000) translate(530.000000, 459.000000) translate(10.000000, 10.000000) translate(0.000000, 1.000000)"/>
                                    </g>
                                </g>
                            </g>
                        </g>
                    </g>
                </g>
            </g>
        </g>
    </g>
</svg>
