<svg xmlns="http://www.w3.org/2000/svg" width="20" height="20" viewBox="0 0 20 20">
    <g fill="none" fill-rule="evenodd">
        <g fill="#B7BCD6" fill-rule="nonzero">
            <g>
                <g>
                    <g>
                        <g>
                            <g>
                                <g>
                                    <path stroke="#B7BCD6" stroke-width=".3" d="M19.136 4.303l-.485-.151c-.121-.03-.243-.061-.394-.061-.546 0-1.031.364-1.213.879l-.273.818v-.636c0-.091-.061-.182-.122-.243L11.676.091C11.616.03 11.524 0 11.463 0H1.73c-.182 0-.304.121-.304.303v.94H.303c-.182 0-.303.12-.303.302v18.152c0 .182.121.303.303.303h14.739c.182 0 .303-.121.303-.303v-.94h1.122c.182 0 .304-.12.304-.302v-4.091l.849-1.152.03-.09 2.275-7.243c.242-.667-.122-1.364-.789-1.576zm-7.37-3.273L15.74 4.85h-3.972V1.03zm2.973 18.364H.607V1.848h.818v16.607c0 .181.122.303.304.303h13.01v.636h0zm1.455-1.242H2.032V.606h9.128v4.546c0 .181.121.303.303.303h4.731v2.272l-1.425 4.485v.091l.06 3.849c0 .12.092.242.213.272.121.03.273 0 .334-.12l.818-1.092v2.94h0zm-.788-2.94l-.06-2.515 1.516.485-1.456 2.03zm3.973-9.515l-2.184 6.94-1.759-.576 2.184-6.91c.121-.333.485-.545.819-.424l.485.152c.364.09.576.485.455.818z" transform="translate(-953 -234) translate(292 84) translate(19 90) translate(1) translate(427 58) translate(214 2)"/>
                                    <path d="M4.305 6h4.39C8.878 6 9 5.869 9 5.672V2.328C9 2.13 8.878 2 8.695 2h-4.39C4.122 2 4 2.131 4 2.328v3.344c0 .164.152.328.305.328zm.305-3.344h3.78v2.688H4.61V2.656zM3.309 9h9.382c.186 0 .309-.2.309-.5s-.123-.5-.309-.5H3.31C3.123 8 3 8.2 3 8.5s.123.5.309.5zM3.309 11h9.382c.186 0 .309-.2.309-.5s-.123-.5-.309-.5H3.31c-.186 0-.309.2-.309.5s.123.5.309.5zM3.309 13h9.382c.186 0 .309-.2.309-.5s-.123-.5-.309-.5H3.31c-.186 0-.309.2-.309.5s.123.5.309.5zM13 14.5c0-.3-.124-.5-.31-.5H3.31c-.186 0-.31.2-.31.5s.124.5.31.5h9.411c.155 0 .279-.25.279-.5zM13.735 16h-4.44c-.177 0-.295.2-.295.5s.118.5.294.5h4.412c.176 0 .294-.2.294-.5s-.118-.5-.265-.5z" transform="translate(-953 -234) translate(292 84) translate(19 90) translate(1) translate(427 58) translate(214 2)"/>
                                </g>
                            </g>
                        </g>
                    </g>
                </g>
            </g>
        </g>
    </g>
</svg>
