<svg xmlns="http://www.w3.org/2000/svg" width="15" height="15" viewBox="0 0 15 15">
    <g fill="none" fill-rule="evenodd">
        <g fill="#B7BCD6" fill-rule="nonzero">
            <g>
                <g>
                    <g>
                        <g>
                            <g>
                                <g>
                                    <path d="M9.9 7.249L7.97 9.18V4.219c0-.259-.21-.469-.469-.469s-.469.21-.469.469V9.18L5.1 7.249c-.184-.183-.48-.183-.663 0-.184.184-.184.48 0 .663l2.651 2.652c.113.112.267.147.412.121.146.026.3-.01.413-.121l2.651-2.652c.184-.183.184-.48 0-.663-.184-.183-.48-.183-.664 0zM7.5 0C3.358 0 0 3.358 0 7.5 0 11.642 3.358 15 7.5 15c4.142 0 7.5-3.358 7.5-7.5C15 3.358 11.642 0 7.5 0zm0 14.063C3.876 14.063.937 11.123.937 7.5.938 3.876 3.877.937 7.5.937c3.624 0 6.563 2.939 6.563 6.563 0 3.624-2.939 6.563-6.563 6.563z" transform="translate(-1405.000000, -722.000000) translate(718.000000, 106.000000) translate(0.000000, 38.000000) translate(35.000000, 109.000000) translate(530.000000, 459.000000) translate(122.000000, 10.000000)"/>
                                </g>
                            </g>
                        </g>
                    </g>
                </g>
            </g>
        </g>
    </g>
</svg>
