<svg xmlns="http://www.w3.org/2000/svg" width="19" height="19" viewBox="0 0 19 19">
    <g fill="#B7BCD6">
        <path d="M9.417 1.667H8.56C8.304.708 7.48 0 6.5 0S4.696.708 4.439 1.667h-.856c-.319 0-.583.283-.583.625v1.25C3 4.342 3.614 5 4.361 5H8.64C9.386 5 10 4.342 10 3.542v-1.25c0-.342-.264-.625-.583-.625z"/>
        <path d="M10.87 3.03h-.19V4c0 1.178-.939 2.132-2.098 2.132H4.386c-1.159 0-2.097-.954-2.097-2.133V3.03h-.19c-.558 0-1.338-.103-1.714.257C-.02 3.675 0 4.55 0 5.163v9.693c0 .619-.028 1.485.385 1.874.374.353 1.162.259 1.713.259h5.63l.167-.954c.076-.434.275-.822.58-1.14l.61-.62H2.861c-.313 0-.572-.264-.572-.582 0-.318.26-.582.572-.582h7.246c.038 0 .069 0 .107.016h.008l2.746-2.792V5.163c0-.564.15-1.495-.2-1.876-.382-.417-1.293-.257-1.898-.257zm-.763 8.724H2.861c-.313 0-.572-.263-.572-.581 0-.318.26-.582.572-.582h7.246c.313 0 .572.264.572.582 0 .318-.259.581-.572.581zm0-2.52H2.861c-.313 0-.572-.264-.572-.582 0-.318.26-.581.572-.581h7.246c.313 0 .572.263.572.581 0 .318-.259.582-.572.582zM9.613 19c-.16 0-.318-.063-.433-.178-.142-.14-.206-.34-.17-.537l.433-2.438c.021-.122.082-.236.17-.324l6.076-6.024c.746-.741 1.479-.54 1.88-.143l1.012 1.003c.559.554.559 1.454 0 2.008l-6.075 6.024c-.089.089-.203.148-.328.17l-2.458.43c-.035.006-.071.009-.107.009z"/>
    </g>
</svg>
