<svg xmlns="http://www.w3.org/2000/svg" width="18" height="18" viewBox="0 0 18 18">
    <path fill="#FFF" d="M9 0C4.03 0 0 4.03 0 9s4.03 9 9 9 9-4.03 9-9-4.03-9-9-9zm4.278 6.477l-.855.855-1.74-1.74-.66.66 1.74 1.74-4.268 4.267-1.74-1.74-.66.66 1.74 1.74-.425.426-.008-.008c-.047.077-.124.134-.215.154l-1.623.362c-.024.006-.049.008-.073.008-.089 0-.175-.035-.239-.099-.081-.081-.116-.199-.09-.312l.361-1.622c.02-.09.077-.168.155-.215l-.008-.008 6.868-6.869c.1-.1.264-.1.365 0l1.375 1.376c.1.1.1.264 0 .365z"/>
</svg>
