<svg xmlns="http://www.w3.org/2000/svg" width="20" height="19" viewBox="0 0 20 19">
    <path fill="#F99E04" d="M19.594 14.424L12.521 1.432C11.987.536 11.045 0 10 0 8.954 0 8.011.536 7.477 1.432l-.011.02-7.05 12.952c-.545.915-.555 2.015-.028 2.94.53.927 1.482 1.48 2.55 1.48h14.084c1.068 0 2.06-.553 2.588-1.48.528-.925.517-2.025-.016-2.92zM8.826 5.95c0-.647.525-1.17 1.173-1.17s1.173.523 1.173 1.17v4.681c0 .647-.525 1.17-1.173 1.17s-1.173-.523-1.173-1.17V5.95zM10 16.483c-.97 0-1.76-.788-1.76-1.756s.79-1.756 1.76-1.756 1.76.788 1.76 1.756-.79 1.756-1.76 1.756z"/>
</svg>
