<svg width="23" height="17" viewBox="0 0 23 17" fill="none" xmlns="http://www.w3.org/2000/svg">
<path d="M18.5952 3.11676V1.98343L6.44101 1.98343V0.850098L3.41925 0.850098V1.98343H1.40474V3.11676H3.41925V4.2501H6.44101V3.11676L18.5952 3.11676Z" fill="#156CE4"/>
<path d="M6.44101 15.0167H18.5952V13.8833H6.44101V12.75H3.41925V13.8833H1.40474V15.0167H3.41925V16.15H6.44101V15.0167Z" fill="#156CE4"/>
<path d="M18.5952 10.7667V9.63333H11.1415V8.5H8.11977V9.63333H1.40474V10.7667H8.11977V11.9H11.1415V10.7667H18.5952Z" fill="#156CE4"/>
<path d="M18.5952 7.36676V6.23343H16.7938V5.1001H13.7721V6.23343L1.40474 6.23343V7.36676L13.7721 7.36676V8.5001H16.7938V7.36676H18.5952Z" fill="#156CE4"/>
<circle cx="19.5" cy="3" r="2.5" fill="#49DDAA" stroke="white"/>
</svg>
