<svg xmlns="http://www.w3.org/2000/svg" width="23" height="22" viewBox="0 0 23 22">
    <g fill="none">
        <circle cx="11" cy="11" r="11" fill="#F0F0F0"/>
        <g fill="#D80027">
            <path d="M10.34 8.752H22c0-1.006-.134-1.98-.385-2.908H10.34v2.908zM10.34 2.936h10.02C19.676 1.823 18.8.84 17.78.028H10.34v2.908zM10.825 19.9c2.63 0 5.048-.907 6.956-2.424H3.87c1.91 1.517 4.326 2.423 6.956 2.423zM1.29 14.568h19.07c.549-.894.975-1.87 1.255-2.908H.035c.28 1.037.707 2.014 1.256 2.908z" transform="translate(0 2)"/>
        </g>
        <path fill="#0052B4" d="M5.095 1.718h1.003l-.933.677.357 1.096-.933-.677-.932.677.307-.947c-.82.684-1.54 1.485-2.133 2.378h.321l-.593.431c-.093.155-.182.311-.266.47l.283.873-.529-.385c-.131.279-.252.564-.36.854L1 8.127h1.152l-.932.677.356 1.096-.932-.677-.559.405C.029 10.078 0 10.535 0 11h11V0C8.827 0 6.801.63 5.095 1.718zM5.522 9.9l-.933-.677-.932.677.356-1.096-.932-.677h1.152L4.59 7.03l.356 1.097h1.153l-.933.677.357 1.096zm-.357-4.3l.357 1.096-.933-.678-.932.678.356-1.096-.932-.678h1.152l.356-1.096.356 1.096h1.153l-.933.678zm4.302 4.3l-.932-.677-.933.677.357-1.096-.933-.677H8.18l.356-1.097.356 1.097h1.152l-.932.677.356 1.096zm-.356-4.3l.356 1.096-.932-.678-.933.678L7.96 5.6l-.933-.678H8.18l.356-1.096.356 1.096h1.152l-.932.678zm0-3.205l.356 1.096-.932-.677-.933.677.357-1.096-.933-.677H8.18L8.535.622l.356 1.096h1.152l-.932.677z"/>
    </g>
</svg>
