<svg xmlns="http://www.w3.org/2000/svg" width="19" height="19" viewBox="0 0 19 19">
    <g fill="none" fill-rule="evenodd">
        <g fill="#B7BCD6" fill-rule="nonzero" stroke="#B7BCD6" stroke-width=".3">
            <g>
                <g>
                    <g>
                        <g>
                            <g>
                                <g>
                                    <path d="M18.205 8.55H17.1V6.565c0-.477-.388-.865-.865-.865h-.402V0H3.167v.633h-.95v.634h-.95v2.216H.865c-.477 0-.865.389-.865.865v13.835h.002c-.002.178.054.352.165.498.155.203.39.319.645.319h14.174c.366 0 .689-.247.775-.574L19 9.547v-.056c0-.545-.334-.941-.795-.941zm-1.97-2.217c.128 0 .232.104.232.232V8.55h-.634V6.333h.402zM15.2.633V8.55H4.031c-.073 0-.144.012-.213.031l-.018.003V.634h11.4zm-12.033.634v8.102l-.02.054-.297.814v-8.97h.317zM1.9 1.9h.317v10.073l-.317.868V1.9zM.633 4.348c0-.127.105-.231.232-.231h.402v10.432l-.634 1.727V4.348zm14.525 13.887c-.02.078-.091.132-.172.132H.812c-.077 0-.122-.044-.142-.07-.02-.027-.05-.082-.039-.13l.636-1.742h0l.95-2.604h0l.95-2.604h0l.611-1.678.022-.059h0l.05-.139.009-.026c.02-.077.092-.132.172-.132h14.174c.12 0 .151.173.159.26l-3.206 8.792z" transform="translate(-917 -235) translate(292 84) translate(19 90) translate(1) translate(427 58) translate(178 3)"/>
                                    <path d="M6.308 5h7.384c.17 0 .308-.223.308-.5s-.138-.5-.308-.5H6.308C6.138 4 6 4.223 6 4.5s.138.5.308.5zM5.333 4h3.334C8.85 4 9 3.776 9 3.5S8.85 3 8.667 3H5.333C5.15 3 5 3.224 5 3.5s.15.5.333.5zM6.308 8h7.384c.17 0 .308-.223.308-.5s-.138-.5-.308-.5H6.308C6.138 7 6 7.223 6 7.5s.138.5.308.5z" transform="translate(-917 -235) translate(292 84) translate(19 90) translate(1) translate(427 58) translate(178 3)"/>
                                </g>
                            </g>
                        </g>
                    </g>
                </g>
            </g>
        </g>
    </g>
</svg>
