<svg xmlns="http://www.w3.org/2000/svg" width="21" height="15" viewBox="0 0 21 15">
    <path fill="#B7BCD6" d="M.737 9.994V.914c0-.505.402-.914.899-.914h8.93c.496 0 .899.41.899.914v9.08c0 .168-.134.305-.3.305H1.037c-.166 0-.3-.137-.3-.305zm7.211 3.111c0 1.047-.835 1.895-1.864 1.895-1.03 0-1.865-.848-1.865-1.895 0-1.047.835-1.895 1.865-1.895s1.864.848 1.864 1.895zm-.932 0c0-.523-.417-.947-.932-.947-.515 0-.933.424-.933.947 0 .523.418.948.933.948.515 0 .932-.425.932-.948zM4.478 11.21H.3c-.166 0-.3.136-.3.305v.924c0 .168.134.304.3.304h3.349c.087-.61.39-1.148.829-1.533zm13.226 1.895c0 1.047-.835 1.895-1.865 1.895s-1.864-.848-1.864-1.895c0-1.047.834-1.895 1.864-1.895 1.03 0 1.865.848 1.865 1.895zm-.932 0c0-.523-.418-.947-.933-.947-.515 0-.932.424-.932.947 0 .523.417.948.932.948.515 0 .933-.425.933-.948zM21 11.515v.924c0 .168-.134.304-.3.304h-2.426c-.173-1.21-1.198-2.142-2.435-2.142s-2.261.933-2.435 2.142H8.52c-.088-.61-.39-1.148-.83-1.533h4.633V2.499c0-.337.268-.61.6-.61h2.828c.797 0 1.541.403 1.987 1.074l1.824 2.745c.267.403.41.878.41 1.363v4.139h.73c.165 0 .299.136.299.305zm-3.04-5.737l-1.458-2.106c-.056-.08-.148-.129-.245-.129h-2.275c-.166 0-.3.136-.3.305v2.106c0 .168.134.304.3.304h3.733c.243 0 .385-.278.245-.48z"/>
</svg>
