<svg xmlns="http://www.w3.org/2000/svg" width="335" height="80" viewBox="0 0 335 80">
    <defs>
        <linearGradient id="prefix__a" x1="100%" x2="5.185%" y1="73.482%" y2="73.482%">
            <stop offset="0%" stop-color="#58C822"/>
            <stop offset="100%" stop-color="#3390DF"/>
            <stop offset="100%" stop-color="#5187E0"/>
        </linearGradient>
    </defs>
    <g fill="none" fill-rule="evenodd">
        <path fill="url(#prefix__a)" d="M14.118 42.563c5.94.907 14.003 5.387 24.187 13.442 10.183 8.054 21.794 5.814 34.83-6.72 21.142-17.037 42.234-21.444 63.278-13.222 31.566 12.334 54.244-18.586 72.898-9.293 18.653 9.293 23.798 35.956 37.463 29.235 5.097-2.507 12.09-2.692 17.9-8.062 3.05-2.817 7.33-9.18 12.844-19.09l7.566 2.607 8.207 5.31 16.14-13.54L328.101 2l4.358 59.517c.645 8.813-5.976 16.48-14.789 17.126-.457.033-.915.047-1.374.041l-292.11-3.752C15.35 74.818 8.28 67.563 8.393 58.728c.028-2.151.489-4.275 1.356-6.244l4.37-9.92z" opacity=".207" transform="translate(1 1)"/>
        <path stroke="#109CF1" stroke-width="2.5" d="M14.102 41.793c5.932.906 13.983 5.387 24.154 13.441 10.17 8.055 21.764 5.815 34.784-6.72 21.112-17.037 42.176-21.444 63.192-13.221 31.523 12.334 54.171-18.586 72.8-9.293 18.628 9.293 23.766 35.955 37.412 29.234 13.647-6.72 18.434.22 24.249-16.007 5.814-16.227 11.545-8.765 18.008-3.934 4.308 3.22 17.441-8.544 39.4-35.293" transform="translate(1 1)"/>
    </g>
</svg>
