<svg xmlns="http://www.w3.org/2000/svg" width="444" height="97" viewBox="0 0 444 97">
    <defs>
        <linearGradient id="6nefws1bya" x1="100%" x2="5.185%" y1="73.482%" y2="73.482%">
            <stop offset="0%" stop-color="#58C822"/>
            <stop offset="100%" stop-color="#3390DF"/>
            <stop offset="100%" stop-color="#5187E0"/>
        </linearGradient>
    </defs>
    <g fill="none" fill-rule="evenodd">
        <g>
            <g>
                <g>
                    <path fill="url(#6nefws1bya)" d="M18.768 52.261c7.897 1.113 18.614 6.614 32.152 16.504s28.972 7.14 46.302-8.252c28.104-20.918 56.143-26.329 84.118-16.233 41.961 15.145 72.108-22.82 96.905-11.41 24.797 11.41 31.637 44.147 49.802 35.895 6.776-3.078 16.071-3.305 23.795-9.898 4.053-3.46 9.745-11.273 17.075-23.44l10.057 3.201 10.91 6.52 21.456-16.626 24.819-26.066 6.1 76.96c.699 8.81-5.876 16.516-14.685 17.214-.484.039-.97.055-1.454.05L25.023 91.92c-8.836-.105-15.914-7.353-15.81-16.188.028-2.319.56-4.604 1.557-6.697l7.998-16.774z" opacity=".207" transform="translate(-793 -245) translate(816 220) translate(-23 25)"/>
                    <path stroke="#109CF1" stroke-width="2.5" d="M18.746 51.315c7.886 1.113 18.59 6.614 32.109 16.504 13.52 9.89 28.933 7.14 46.24-8.252 28.066-20.918 56.067-26.329 84.004-16.233 41.905 15.145 72.012-22.82 96.775-11.41 24.764 11.41 31.594 44.147 49.735 35.895 18.14-8.252 24.505.269 32.234-19.655 7.729-19.923 15.348-10.761 23.939-4.83 5.727 3.955 23.186-10.49 52.377-43.334" transform="translate(-793 -245) translate(816 220) translate(-23 25)"/>
                </g>
            </g>
        </g>
    </g>
</svg>
