<svg xmlns="http://www.w3.org/2000/svg" width="25" height="24" viewBox="0 0 25 24">
    <g fill="#FFF" stroke="#FFF">
        <path d="M24.48 24H.52c-.287 0-.52-.224-.52-.5s.233-.5.52-.5h23.96c.287 0 .52.224.52.5s-.233.5-.52.5z"/>
        <path d="M6.5 24h-5c-.276 0-.5-.224-.5-.5V18c0-.551.448-1 1-1h4c.552 0 1 .449 1 1v5.5c0 .276-.224.5-.5.5zM2 23h4v-5H2v5zM15.5 24h-5c-.276 0-.5-.224-.5-.5V12c0-.551.448-1 1-1h4c.552 0 1 .449 1 1v11.5c0 .276-.224.5-.5.5zM11 23h4V12h-4v11zM23.5 24h-5c-.276 0-.5-.224-.5-.5V14c0-.551.448-1 1-1h4c.552 0 1 .449 1 1v9.5c0 .276-.224.5-.5.5zM19 23h4v-9h-4v9zM2.525 10c-.134 0-.269-.049-.371-.146-.205-.195-.205-.512 0-.707l5.25-5c.13-.124.318-.176.498-.132l8.112 1.931 6.09-5.8c.205-.195.538-.195.742 0 .205.195.205.512 0 .707l-6.3 6c-.129.124-.318.174-.498.131l-8.112-1.93-5.04 4.8c-.102.097-.236.146-.37.146z"/>
        <path d="M22.5 5c-.276 0-.5-.224-.5-.5V1h-3.5c-.276 0-.5-.224-.5-.5s.224-.5.5-.5h4c.276 0 .5.224.5.5v4c0 .276-.224.5-.5.5z"/>
    </g>
</svg>
