<svg xmlns="http://www.w3.org/2000/svg" width="6" height="10" viewBox="0 0 6 10">
    <g fill="none" fill-rule="evenodd">
        <g fill="#24B1FF" fill-rule="nonzero">
            <g>
                <g>
                    <g>
                        <g>
                            <g>
                                <path d="M6 1.272V1.7H4.264v-.427H6zm-.728.93H4.264v.425h1.008v-.426zM4.264 3.555H6V3.13H4.264v.426zm1.008.503H4.264v.426h1.008V4.06zM4.264 5.414H6v-.426H4.264v.426zm.27 2.428C4.535 9.032 3.519 10 2.268 10 1.017 10 0 9.032 0 7.842c0-.77.426-1.471 1.12-1.859v-4.89C1.12.49 1.635 0 2.267 0 2.9 0 3.415.49 3.415 1.092v4.891c.694.387 1.12 1.088 1.12 1.86zm-.447 0c0-.654-.382-1.245-.997-1.542l-.123-.06V1.092c0-.367-.314-.666-.7-.666-.385 0-.7.299-.7.666V6.24l-.122.06c-.615.297-.997.889-.997 1.542 0 .955.816 1.732 1.82 1.732 1.003 0 1.819-.777 1.819-1.732zm-.373 0c0 .76-.649 1.377-1.447 1.377C1.47 9.219.821 8.6.821 7.842c0-.622.442-1.168 1.074-1.328l.083-.02V1.755h.579v4.737l.083.021c.633.16 1.074.707 1.074 1.328zm-1.375-.917c-.034-.146-.188-.241-.345-.207-.549.118-.932.574-.932 1.11 0 .15.13.274.29.274.159 0 .288-.123.288-.275 0-.272.202-.513.481-.573.155-.034.253-.181.218-.329z" transform="translate(-1531 -601) translate(312 405) translate(0 192) translate(59) translate(1081) translate(79 4)"/>
                            </g>
                        </g>
                    </g>
                </g>
            </g>
        </g>
    </g>
</svg>
