<svg xmlns="http://www.w3.org/2000/svg" width="27" height="34" viewBox="0 0 27 34">
    <g fill="none">
        <path fill="#156CE4" d="M12.452 0L14.425 0 14.425 3.238 12.452 3.238z"/>
        <path fill="#109CF1" d="M13.562 0L14.548 0 14.548 3.238 13.562 3.238z"/>
        <path fill="#156CE4" d="M6.904 2.117L19.973 2.117 19.973 7.473 6.904 7.473z"/>
        <path fill="#109CF1" d="M13.438 2.117L19.973 2.117 19.973 7.473 13.438 7.473z"/>
        <g>
            <path fill="#49DDAA" d="M0.047 0.048L18.57 0.048 18.57 26.461 0.047 26.461z" transform="translate(4.192 6.476)"/>
            <path fill="#49DDAA" d="M9.308 0.048L18.57 0.048 18.57 26.461 9.308 26.461z" transform="translate(4.192 6.476)"/>
            <path fill="#D4FFF8" d="M4.336 17.201L14.28 17.201 14.28 26.461 4.336 26.461z" transform="translate(4.192 6.476)"/>
            <path fill="#156CE4" d="M9.308 17.201L14.28 17.201 14.28 26.461 9.308 26.461z" transform="translate(4.192 6.476)"/>
            <path fill="#D4FFF8" d="M3.346 3.993L5.327 3.993 5.327 5.982 3.346 5.982z" transform="translate(4.192 6.476)"/>
            <path fill="#156CE4" d="M13.29 3.993L15.27 3.993 15.27 5.982 13.29 5.982z" transform="translate(4.192 6.476)"/>
            <path fill="#D4FFF8" d="M8.318 3.993L10.298 3.993 10.298 5.982 8.318 5.982zM3.346 7.994L5.327 7.994 5.327 9.984 3.346 9.984z" transform="translate(4.192 6.476)"/>
            <path fill="#156CE4" d="M13.29 7.994L15.27 7.994 15.27 9.984 13.29 9.984z" transform="translate(4.192 6.476)"/>
            <path fill="#D4FFF8" d="M8.318 7.994L10.298 7.994 10.298 9.984 8.318 9.984zM3.346 11.996L5.327 11.996 5.327 13.985 3.346 13.985z" transform="translate(4.192 6.476)"/>
            <path fill="#156CE4" d="M13.29 11.996L15.27 11.996 15.27 13.985 13.29 13.985z" transform="translate(4.192 6.476)"/>
            <path fill="#D4FFF8" d="M8.318 11.996L10.298 11.996 10.298 13.985 8.318 13.985z" transform="translate(4.192 6.476)"/>
            <path fill="#156CE4" d="M9.308 3.993L10.298 3.993 10.298 5.982 9.308 5.982zM9.308 7.994L10.298 7.994 10.298 9.984 9.308 9.984zM9.308 11.996L10.298 11.996 10.298 13.985 9.308 13.985z" transform="translate(4.192 6.476)"/>
        </g>
        <path fill="#109CF1" d="M0 32.007L27 32.007 27 34 0 34z"/>
        <path fill="#109CF1" d="M13.562 32.007L27 32.007 27 34 13.562 34z"/>
    </g>
</svg>
