<svg xmlns="http://www.w3.org/2000/svg" width="13" height="12" viewBox="0 0 13 12">
    <g fill="#BFC5D2" fill-rule="evenodd">
        <path d="M12.782 5.331L6.949.17c-.256-.227-.642-.227-.898 0L.218 5.33c-.205.182-.273.462-.172.713.1.251.344.413.621.413H1.6v5.172c0 .205.171.371.382.371h3.197c.211 0 .383-.166.383-.371v-3.14H7.44v3.14c0 .205.17.371.382.371h3.197c.21 0 .382-.166.382-.371V6.457h.932c.277 0 .521-.162.621-.413.1-.252.033-.531-.172-.713z"/>
        <path d="M10.611 1H8l3 3V1.428C11 1.19 10.826 1 10.611 1z"/>
    </g>
</svg>
