<svg xmlns="http://www.w3.org/2000/svg" width="17" height="14" viewBox="0 0 17 14">
    <g fill="none" fill-rule="evenodd">
        <g fill="#FFF" fill-rule="nonzero">
            <g>
                <g>
                    <g>
                        <g>
                            <g>
                                <g>
                                    <g>
                                        <path d="M16.715 6.49l-2.577-2.337v-2.7c0-.489-.436-.884-.975-.884-.537 0-.974.395-.974.884v.932L10.271.645c-.948-.86-2.597-.86-3.544 0L.285 6.49c-.38.346-.38.906 0 1.25.38.346.998.346 1.379 0l6.441-5.844c.21-.19.58-.19.789 0l6.442 5.845c.191.173.44.259.69.259.249 0 .498-.086.689-.26.38-.344.38-.904 0-1.25z" transform="translate(-338 -1543) translate(303 91) translate(1 22) translate(24 540) translate(1 117) translate(0 763) translate(9 10) matrix(-1 0 0 1 17 0)"/>
                                        <path d="M8.803 4.117c-.167-.156-.439-.156-.606 0L3.125 8.825c-.08.074-.125.176-.125.282v3.434C3 13.347 3.704 14 4.571 14h2.512v-3.611h2.834V14h2.512c.867 0 1.571-.653 1.571-1.46V9.108c0-.106-.045-.208-.125-.282L8.803 4.117z" transform="translate(-338 -1543) translate(303 91) translate(1 22) translate(24 540) translate(1 117) translate(0 763) translate(9 10) matrix(-1 0 0 1 17 0)"/>
                                    </g>
                                </g>
                            </g>
                        </g>
                    </g>
                </g>
            </g>
        </g>
    </g>
</svg>
