<svg xmlns="http://www.w3.org/2000/svg" width="46" height="50" viewBox="0 0 46 50">
    <g fill="none" fill-rule="evenodd">
        <path fill="#013177" d="M1.286 48.806h7.428V10.193H1.286v38.613zM9.356 50H.644C.288 50 0 49.733 0 49.403V9.597C0 9.267.288 9 .644 9h8.712c.356 0 .644.267.644.597v39.806c0 .33-.288.597-.644.597z"/>
        <path fill="#013177" d="M9.357 17c-.163 0-.326-.062-.45-.187L.192 8.117c-.254-.252-.257-.665-.008-.922s.656-.26.91-.007l8.713 8.696c.253.252.256.664.007.922-.125.13-.292.194-.458.194M9.357 26c-.163 0-.326-.063-.45-.188L.192 17.117c-.254-.253-.257-.667-.008-.923s.656-.259.91-.006l8.713 8.695c.253.252.256.665.007.922-.125.13-.292.195-.458.195M9.357 34c-.163 0-.326-.064-.45-.188L.192 25.116c-.254-.252-.257-.664-.008-.921s.656-.26.91-.008l8.713 8.697c.253.252.256.664.007.921-.125.13-.292.195-.458.195M9.357 42c-.163 0-.326-.062-.45-.187L.192 33.117c-.254-.253-.257-.666-.008-.923s.656-.259.91-.006l8.713 8.696c.253.252.256.665.007.922-.125.13-.292.194-.458.194M9.357 50c-.163 0-.326-.063-.45-.188L.192 41.117c-.254-.253-.257-.666-.008-.922.249-.257.656-.26.91-.008l8.713 8.696c.253.252.256.666.007.922-.125.13-.292.195-.458.195"/>
        <path fill="#013177" d="M.643 17c-.166 0-.332-.065-.458-.194-.25-.258-.246-.67.008-.922l8.713-8.697c.253-.252.66-.25.91.008.248.256.245.67-.008.922l-8.713 8.696C.969 16.938.807 17 .643 17M.643 26c-.166 0-.332-.066-.458-.195-.25-.257-.246-.67.008-.922l8.713-8.695c.253-.253.66-.25.91.006.248.256.245.67-.008.923l-8.713 8.695C.969 25.937.807 26 .643 26M.643 34c-.166 0-.332-.065-.458-.195-.25-.257-.246-.669.008-.921l8.713-8.697c.253-.252.66-.25.91.008.248.257.245.67-.008.922l-8.713 8.695C.969 33.936.807 34 .643 34M.643 42c-.166 0-.332-.065-.458-.194-.25-.257-.246-.67.008-.922l8.713-8.696c.253-.253.66-.25.91.006.248.257.245.67-.008.923l-8.713 8.696C.969 41.938.807 42 .643 42M.643 50c-.166 0-.332-.066-.458-.195-.25-.256-.246-.67.008-.922l8.713-8.696c.253-.252.66-.25.91.008.248.256.245.67-.008.922l-8.713 8.695C.969 49.937.807 50 .643 50"/>
        <path fill="#013177" d="M9.356 17H.644C.288 17 0 16.776 0 16.5s.288-.5.644-.5h8.712c.356 0 .644.224.644.5s-.288.5-.644.5M9.356 25H.644C.288 25 0 24.776 0 24.5s.288-.5.644-.5h8.712c.356 0 .644.224.644.5s-.288.5-.644.5M9.356 34H.644C.288 34 0 33.776 0 33.5s.288-.5.644-.5h8.712c.356 0 .644.224.644.5s-.288.5-.644.5M9.356 41H.644C.288 41 0 40.776 0 40.5s.288-.5.644-.5h8.712c.356 0 .644.224.644.5s-.288.5-.644.5M18.217 7.748h16.564V6.253H18.217v1.495zM35.39 9H17.608C17.273 9 17 8.72 17 8.374V5.626c0-.345.273-.626.608-.626H35.39c.336 0 .61.28.61.626v2.748c0 .346-.274.626-.61.626z"/>
        <path fill="#FFF" d="M37 7c0 .552-.672 1-1.5 1-.829 0-1.5-.448-1.5-1s.671-1 1.5-1c.828 0 1.5.448 1.5 1"/>
        <path fill="#013177" d="M36 6.258c-.41 0-.743.333-.743.742 0 .41.334.743.743.743.41 0 .742-.334.742-.743 0-.41-.333-.742-.742-.742zM36 9c-1.103 0-2-.897-2-2 0-1.102.897-2 2-2 1.102 0 2 .898 2 2 0 1.103-.898 2-2 2z"/>
        <path fill="#013177" d="M35.5 18c-.276 0-.5-.282-.5-.63V8.63c0-.348.224-.63.5-.63s.5.282.5.63v8.74c0 .348-.224.63-.5.63"/>
        <path fill="#013177" d="M37.449 21h-.898C35.696 21 35 20.325 35 19.493c0-.295.246-.533.55-.533.304 0 .55.238.55.533 0 .242.203.438.451.438h.898c.249 0 .45-.196.45-.438v-.816c0-.241-.201-.438-.45-.438h-1.232c-.304 0-.55-.239-.55-.534v-2.17c0-.296.246-.535.55-.535.304 0 .55.239.55.535v1.635h.682c.854 0 1.551.676 1.551 1.507v.816c0 .832-.697 1.507-1.551 1.507"/>
        <path fill="#013177" d="M41.389 26c-.151 0-.3-.055-.419-.166l-4.632-4.358-4.292 4.343c-.24.24-.626.242-.866 0-.24-.24-.24-.63-.002-.871l4.713-4.766c.232-.237.609-.243.85-.016l5.065 4.766c.247.232.26.623.03.872-.121.13-.285.196-.447.196"/>
        <path fill="#51DB92" d="M17.611 3.557L9.221.045C9.15.016 9.076 0 9 0H.61C.273 0 0 .295 0 .658v8.684c0 .364.273.658.61.658h16.78c.338 0 .61-.294.61-.658v-5.17c0-.273-.154-.517-.389-.615"/>
        <path fill="#109CF1" d="M45.384 24H28.617c-.341 0-.617.285-.617.635v10.731c0 .351.276.634.617.634h16.767c.34 0 .616-.283.616-.634V24.635c0-.35-.276-.635-.616-.635"/>
        <path fill="#B7BCD6" d="M28 30v5.396c0 .333.292.604.65.604h16.7c.359 0 .65-.271.65-.604V30H28"/>
    </g>
</svg>
