<svg xmlns="http://www.w3.org/2000/svg" width="47" height="33" viewBox="0 0 47 33">
    <g fill="none" fill-rule="evenodd">
        <path fill="#109CF1" d="M42.474 1H31.396c-.218 0-.413.136-.491.342l-6.87 18.312c-.023.061-.035.124-.035.189v7.626c0 .292.235.531.526.531h17.948c.29 0 .526-.239.526-.53V1.53c0-.293-.235-.53-.526-.53" transform="matrix(-1 0 0 1 47 0)"/>
        <path fill="#013177" d="M41.5 22c-3.033 0-5.5 2.467-5.5 5.5 0 3.032 2.467 5.5 5.5 5.5s5.5-2.468 5.5-5.5c0-3.033-2.467-5.5-5.5-5.5" transform="matrix(-1 0 0 1 47 0)"/>
        <path fill="#51DB92" d="M22.463 0H19.65c-.297 0-.537.24-.537.536v23.577H.537c-.297 0-.537.24-.537.536v1.385c0 .28.217.514.497.535L19.609 28l.04.001h2.814c.297 0 .537-.24.537-.536V.536C23 .239 22.76 0 22.463 0" transform="matrix(-1 0 0 1 47 0)"/>
        <path fill="#013177" d="M26.5 22c-3.033 0-5.5 2.467-5.5 5.5 0 3.032 2.467 5.5 5.5 5.5s5.5-2.468 5.5-5.5c0-3.033-2.467-5.5-5.5-5.5" transform="matrix(-1 0 0 1 47 0)"/>
        <path fill="#074EA3" d="M41 25c-1.103 0-2 .898-2 2 0 1.102.897 2 2 2s2-.898 2-2c0-1.102-.897-2-2-2M26 25c-1.103 0-2 .898-2 2 0 1.102.897 2 2 2 1.102 0 2-.898 2-2 0-1.102-.898-2-2-2" transform="matrix(-1 0 0 1 47 0)"/>
        <path fill="#013177" d="M37.455 1h-5.803c-.225 0-.427.133-.508.336l-7.109 17.959c-.063.16-.04.34.062.48.1.141.269.225.447.225h12.911c.301 0 .545-.233.545-.52V1.52c0-.288-.244-.52-.545-.52M15.042 6H3.958C3.428 6 3 6.422 3 6.943v16.115c0 .52.429.942.958.942h11.084c.53 0 .958-.422.958-.942V6.943c0-.521-.429-.943-.958-.943" transform="matrix(-1 0 0 1 47 0)"/>
        <path fill="#109CF1" d="M10.055 25h-1.11C5.662 25 3 22.314 3 19h13c0 3.314-2.661 6-5.945 6M16 12H3c0-3.314 2.662-6 5.944-6h1.112C13.339 6 16 8.686 16 12" transform="matrix(-1 0 0 1 47 0)"/>
    </g>
</svg>
