<svg xmlns="http://www.w3.org/2000/svg" width="29" height="33" viewBox="0 0 29 33">
    <g fill="none" fill-rule="evenodd">
        <path fill="#013177" d="M7 28L22 28 7 28M21.36 29H6.64c-.354 0-.64-.447-.64-1 0-.553.286-1 .64-1h14.72c.354 0 .64.447.64 1 0 .553-.286 1-.64 1M6 31L23 31 6 31M24.352 32H5.647C5.29 32 5 31.551 5 31c0-.553.29-1 .647-1h18.705c.358 0 .648.447.648 1 0 .551-.29 1-.648 1"/>
        <path fill="#074EA3" d="M8.98 25.212c-.04-.136-.133-.243-.253-.294l-2.109-.888c-.169-.07-.358-.015-.473.138L.098 32.231c-.105.139-.128.334-.058.499.07.165.218.27.382.27h3.937c.143 0 .276-.08.354-.212l4.218-7.174c.07-.12.088-.267.048-.402M28.903 32.23l-6.048-8.062c-.115-.153-.305-.208-.473-.138l-2.11.888c-.119.05-.212.158-.251.294-.04.135-.022.282.048.402l4.219 7.174c.077.132.21.212.353.212h3.937c.164 0 .313-.105.382-.27.07-.165.047-.36-.057-.5"/>
        <path fill="#51DB92" d="M19.153 0H8.846C5.622 0 3 2.455 3 5.474v15.052C3 23.545 5.622 26 8.846 26h10.307C22.377 26 25 23.545 25 20.526V5.474C25 2.455 22.377 0 19.153 0"/>
        <path fill="#013177" d="M19.153 0H8.846C5.622 0 3 2.634 3 5.873v10.655c0 .26.21.472.47.472h21.06c.26 0 .47-.211.47-.472V5.873C25 2.634 22.377 0 19.153 0"/>
        <path fill="#E7F5FE" d="M22.394 4H6.606C6.271 4 6 4.255 6 4.57v7.86c0 .314.271.57.606.57h15.788c.335 0 .606-.256.606-.57V4.57c0-.315-.271-.57-.606-.57"/>
        <path fill="#FFF" d="M11 19.5c0 .829-.671 1.5-1.5 1.5S8 20.329 8 19.5 8.671 18 9.5 18s1.5.671 1.5 1.5"/>
        <path fill="#013177" d="M9.5 18.966c-.713 0-1.292.464-1.292 1.034 0 .57.579 1.034 1.292 1.034.713 0 1.292-.464 1.292-1.034 0-.57-.579-1.034-1.292-1.034zM9.5 22C8.122 22 7 21.103 7 20s1.122-2 2.5-2 2.5.897 2.5 2-1.122 2-2.5 2z"/>
        <path fill="#FFF" d="M21 19.5c0 .829-.671 1.5-1.5 1.5s-1.5-.671-1.5-1.5.671-1.5 1.5-1.5 1.5.671 1.5 1.5"/>
        <path fill="#013177" d="M19.5 18.966c-.713 0-1.292.464-1.292 1.034 0 .57.579 1.034 1.292 1.034.713 0 1.292-.464 1.292-1.034 0-.57-.579-1.034-1.292-1.034zm0 3.034c-1.378 0-2.5-.897-2.5-2s1.122-2 2.5-2c1.38 0 2.5.897 2.5 2s-1.12 2-2.5 2z"/>
        <path fill="#E7F5FE" d="M19.367 1H8.634C8.284 1 8 1.448 8 2c0 .553.284 1 .634 1h10.733c.35 0 .633-.447.633-1 0-.552-.283-1-.633-1"/>
    </g>
</svg>
