<svg xmlns="http://www.w3.org/2000/svg" width="56" height="38" viewBox="0 0 56 38">
    <g fill="none" fill-rule="evenodd">
        <path fill="#51DB92" d="M52.74 18.304l-.143-.163c-3.347-3.791-8.165-5.965-13.222-5.965-.353 0-.641.284-.646.637l-.163 12.873H3.614c-.356 0-.645.289-.645.645v5.249c0 .357.289.646.645.646h50.77c.357 0 .646-.289.646-.646v-7.224c0-2.231-.813-4.38-2.29-6.052"/>
        <path fill="#B7BCD6" d="M31.645 0H5.062C2.271 0 0 2.271 0 5.062v16.896c0 2.791 2.271 5.062 5.062 5.062h26.583c2.791 0 5.062-2.271 5.062-5.062V5.062C36.707 2.271 34.436 0 31.645 0" opacity=".539"/>
        <path fill="#013177" d="M49.91 32.441c0 2.186-1.773 3.959-3.959 3.959s-3.958-1.773-3.958-3.959 1.772-3.958 3.958-3.958 3.959 1.772 3.959 3.958"/>
        <path fill="#013177" d="M45.951 29.343c-1.708 0-3.098 1.39-3.098 3.098s1.39 3.098 3.098 3.098 3.098-1.39 3.098-3.098-1.39-3.098-3.098-3.098zm0 7.917c-2.657 0-4.819-2.161-4.819-4.819 0-2.657 2.162-4.819 4.819-4.819s4.819 2.162 4.819 4.819c0 2.658-2.162 4.819-4.819 4.819z"/>
        <path fill="#B7BCD6" d="M31.656.076H5.138C2.352.076.086 2.293.086 5.017v9.303h36.621V5.017c0-2.724-2.266-4.941-5.051-4.941" opacity=".539"/>
        <path fill="#109CF1" d="M30.229 13.75l-8.262-7.089c-.255-.219-.615-.269-.92-.128-.305.14-.501.445-.501.781v3.333H7.038c-.475 0-.86.386-.86.861v5.375c0 .475.385.861.86.861h13.508v3.332c0 .332.19.634.49.777.118.056.244.084.37.084.193 0 .385-.065.541-.191l8.263-6.673c.199-.161.315-.401.32-.657.003-.255-.107-.499-.301-.666M54.729 22.037c-.362-1.378-1.049-2.669-1.989-3.733l-.143-.163c-2.257-2.556-5.186-4.393-8.472-5.312-.194-.054-.403-.015-.564.107-.161.122-.255.312-.255.515v8.75c0 .357.289.646.645.646h10.153c.201 0 .389-.093.512-.252.122-.158.163-.364.113-.558"/>
        <path fill="#013177" d="M10.842 27.622c-2.657 0-4.819 2.162-4.819 4.819 0 2.658 2.162 4.819 4.819 4.819s4.819-2.161 4.819-4.819c0-2.657-2.162-4.819-4.819-4.819M45.951 27.622c-2.657 0-4.819 2.162-4.819 4.819 0 2.658 2.162 4.819 4.819 4.819s4.819-2.161 4.819-4.819c0-2.657-2.162-4.819-4.819-4.819"/>
        <path fill="#109CF1" d="M6.178 14.195v2.688c0 .475.385.861.86.861h13.508v3.332c0 .332.19.634.49.777.118.057.244.084.37.084.193 0 .385-.065.541-.191l8.263-6.673c.198-.16.315-.401.32-.656 0-.076-.01-.15-.028-.222H6.178"/>
        <path fill="#074EA3" d="M10.842 29.037c-1.877 0-3.405 1.527-3.405 3.404 0 1.878 1.528 3.405 3.405 3.405 1.878 0 3.405-1.527 3.405-3.405 0-1.877-1.527-3.404-3.405-3.404M45.951 29.037c-1.877 0-3.405 1.527-3.405 3.404 0 1.878 1.528 3.405 3.405 3.405 1.878 0 3.405-1.527 3.405-3.405 0-1.877-1.527-3.404-3.405-3.404"/>
    </g>
</svg>
