<svg xmlns="http://www.w3.org/2000/svg" width="23" height="50" viewBox="0 0 23 50">
    <g fill="none" fill-rule="evenodd">
        <path fill="#109CF1" d="M11.956 33.068c-.252-.082-.567-.09-.833-.023L.484 35.737c-.296.075-.484.23-.484.401v13.415c0 .154.153.298.405.379.139.045.297.068.456.068.128 0 .258-.015.377-.045l10.639-2.692c.296-.075.483-.23.483-.401V33.447c0-.155-.152-.298-.404-.38"/>
        <path fill="#51DB92" d="M20.968 9.776C20.968 4.377 16.591 0 11.192 0S1.416 4.377 1.416 9.776c0 0-.243 9.834 9.776 19.853C21.211 19.61 20.968 9.776 20.968 9.776"/>
        <path fill="#074EA3" d="M22.139 35.627l-10.262-2.599c-.049-.012-.099-.021-.15-.028v14.324l10.034 2.63c.12.03.249.046.378.046V35.627"/>
        <path fill="#51DB92" d="M11.334.002L11.192 0C5.793 0 1.416 4.377 1.416 9.776c0 0-.243 9.834 9.776 19.853l.142-.145V.002"/>
        <path fill="#FFF" d="M15.186 9.755c0 2.207-1.788 3.995-3.994 3.995-2.206 0-3.995-1.788-3.995-3.995 0-2.206 1.789-3.994 3.995-3.994 2.206 0 3.994 1.788 3.994 3.994"/>
    </g>
</svg>
