<svg xmlns="http://www.w3.org/2000/svg" width="79" height="33" viewBox="0 0 79 33">
    <g fill="none" fill-rule="evenodd">
        <path fill="#51DB92" d="M11.5 8C8.468 8 6 10.403 6 13.356v2.864c0 .43.359.78.8.78h9.4c.441 0 .8-.35.8-.78v-2.864C17 10.403 14.534 8 11.5 8"/>
        <path fill="#109CF1" d="M66.21 7h-9.422c-.435 0-.788.354-.788.79v14.419c0 .437.353.791.788.791h9.422c.437 0 .79-.354.79-.791V7.79c0-.436-.353-.79-.79-.79"/>
        <path fill="#074EA3" d="M56 23L67 23 67 15 56 15z"/>
        <path fill="#109CF1" d="M54.212 7H44.79c-.437 0-.79.354-.79.79v14.419c0 .437.353.791.79.791h9.422c.435 0 .788-.354.788-.791V7.79c0-.436-.353-.79-.788-.79"/>
        <path fill="#109CF1" d="M54.106 7h-9.211C44.4 7 44 7.408 44 7.91V14h11V7.91c0-.502-.4-.91-.894-.91M42.212 0H32.79c-.437 0-.79.347-.79.775v21.45c0 .428.353.775.79.775h9.422c.435 0 .788-.347.788-.775V.775C43 .347 42.647 0 42.212 0"/>
        <path fill="#51DB92" d="M16.523 11.44l-.21-.44H6.688l-.211.44C6.16 12.1 6 12.8 6 13.523V17h11v-3.478c0-.723-.16-1.422-.477-2.081"/>
        <path fill="#109CF1" d="M22.223 15H3.777c-.429 0-.777.346-.777.774v6.452c0 .428.348.774.777.774h18.446c.429 0 .777-.346.777-.774v-6.452c0-.428-.348-.774-.777-.774"/>
        <path fill="#074EA3" d="M32 23L43 23 43 15 32 15z"/>
        <path fill="#51DB92" d="M78.968 21.585c-.099-.347-.405-.585-.752-.585H.785c-.273 0-.526.148-.67.391-.143.242-.154.544-.028.797l4.603 9.368c.139.282.415.444.7.444.12 0 .243-.03.357-.09.271-.144.427-.43.427-.726H63.62c0 .153.04.307.126.445.237.377.722.485 1.086.238l13.812-9.366c.29-.197.422-.57.324-.916"/>
        <path fill="#B7BCD6" d="M1 25L4.503 32 64.491 32 75 25 1 25"/>
        <path fill="#013177" d="M74 33l-3.782-2.772c-2.263-1.658-4.971-1.636-7.22.06-2.247 1.693-4.957 1.715-7.218.058l-.16-.118c-2.264-1.658-4.974-1.636-7.222.06-2.247 1.693-4.957 1.715-7.22.058l-.16-.118c-2.262-1.658-4.97-1.636-7.22.06-2.248 1.693-4.958 1.715-7.22.058l-.16-.118c-2.263-1.658-4.97-1.636-7.22.06-2.248 1.693-4.957 1.715-7.219.058l-.16-.118c-2.264-1.658-4.972-1.636-7.222.06L1 33h73"/>
        <path fill="#109CF1" d="M42.106 0h-9.211C32.4 0 32 .408 32 .912V7h11V.912C43 .408 42.6 0 42.106 0"/>
    </g>
</svg>
