<svg width="176" height="150" viewBox="0 0 176 150" fill="none" xmlns="http://www.w3.org/2000/svg">
<path d="M112.303 6.13371L56.7106 0.5L1.02711 5.81097L0 129.363L55.66 126.801L111.267 130.689L166.876 126.011L167.892 3.75884L112.303 6.13371Z" fill="white"/>
<path d="M58.6333 5.28127L57.6546 123.04L6.77046 125.376L7.72851 10.1279L58.6333 5.28127Z" stroke="#929292" stroke-opacity="0.2" stroke-width="2"/>
<path d="M109.687 10.4294L108.72 126.613L57.8857 123.063L58.8646 5.28605L109.687 10.4294Z" stroke="#929292" stroke-opacity="0.2" stroke-width="2"/>
<path d="M160.734 8.31786L159.786 122.327L108.951 126.597L109.917 10.4852L160.734 8.31786Z" stroke="#929292" stroke-opacity="0.2" stroke-width="2"/>
<path opacity="0.47" d="M57.9101 4.18012L56.7129 4.16943L55.6487 124.016L56.8459 124.027L57.9101 4.18012Z" fill="white"/>
<path d="M95.6274 83.5043C95.4145 85.1764 95.2407 86.8533 95.106 88.535C95.0741 88.9355 95.1523 89.4804 95.5381 89.5196C95.7708 89.5437 95.9644 89.3477 96.1208 89.1681C96.7862 88.405 97.5011 87.421 97.1792 86.4482C97.0592 86.0863 96.8044 85.7818 96.706 85.4127C96.5587 84.8574 96.7901 84.2667 96.7308 83.6944C96.6715 83.1221 95.9852 82.5589 95.6007 82.9757L95.6274 83.5043Z" fill="#929292"/>
<path d="M52.8267 28.5137C50.2101 27.1266 48.5645 26.9391 45.7471 27.2468C43.0901 27.5369 41.2946 28.875 39.4704 30.782C39.0553 31.2159 38.6525 31.6902 38.1142 31.9398C35.8599 32.9851 33.0002 32.7728 30.6976 33.8024C27.9604 35.0287 27.1842 38.8416 24.6816 40.5279C23.2322 41.5033 21.4067 41.6268 19.8159 42.3252C17.4606 43.3594 16.3742 45.5063 15.0388 47.597C14.2163 48.8827 11.1872 51.0845 11.3586 52.5878C11.3979 52.8602 11.4967 53.1205 11.6479 53.3502C12.4821 54.6981 13.7282 54.8405 15.0421 55.2253C16.7789 55.7336 17.8262 56.515 19.363 57.6048C20.9655 58.7409 23.1429 59.7346 23.2843 61.7423C23.3495 62.674 22.9148 63.5547 22.7024 64.4628C21.7456 68.5573 25.2968 72.2375 28.7529 74.4497C32.209 76.6619 36.2868 78.8512 37.3862 82.9071C37.4866 83.2769 37.5707 83.6781 37.8424 83.9427C38.8513 84.9377 39.6073 82.687 39.9129 81.9709C40.1085 81.5136 39.9312 80.9576 39.6236 80.5669C39.316 80.1762 38.8963 79.9031 38.5156 79.5869C37.2389 78.52 36.4113 76.8951 36.2803 75.1997C36.2633 74.9841 36.262 74.7515 36.3793 74.5725C36.9789 73.6637 38.472 73.2907 39.2045 72.1892C40.2525 70.6127 40.4917 69.1185 40.6702 67.2473C41.322 60.3755 47.5661 62.8046 51.4835 59.7614C52.2128 59.1943 52.7609 58.2986 52.886 57.3839C52.9632 56.8801 52.8871 56.3646 52.6677 55.9048C52.2825 55.1208 51.4946 54.6151 50.6728 54.389C49.851 54.163 48.9894 54.1793 48.1402 54.1976L45.7764 54.2473C45.5431 54.2525 45.3033 54.259 45.0895 54.3557C44.7878 54.4923 44.5831 54.7876 44.4196 55.0835C43.8893 56.0514 43.6332 57.1463 43.6792 58.2496C42.6404 58.6155 41.6315 57.6224 41.0652 56.6483C40.4079 55.5157 39.9401 54.2829 39.6803 52.9987C39.5799 52.5022 39.518 51.9534 39.7663 51.515C39.9025 51.2739 40.1195 51.0943 40.3385 50.927C41.2209 50.2684 42.2389 49.7699 43.3201 49.6517C45.1671 49.4492 46.9619 50.3625 48.4759 51.481C49.9298 52.5564 52.3014 53.8428 53.9327 52.2977C54.7747 51.5 54.7897 50.0483 54.2032 49.031C53.2497 47.3833 50.8194 46.5216 49.2358 45.6892C48.4948 45.2972 48.019 44.4982 47.8085 43.6639C47.598 42.8296 47.6175 41.9554 47.6391 41.0943C48.7386 40.6521 49.9235 40.4643 51.1055 40.5449C52.2874 40.6254 53.4361 40.9722 54.4658 41.5595C54.7584 41.728 55.0699 41.9626 55.1045 42.3075C55.139 42.6525 54.8699 42.9576 54.6568 43.2379C52.7609 45.7206 54.4651 47.7315 56.696 49.1349C56.7488 42.8302 56.7612 36.4935 56.767 30.1829C55.4094 29.7379 54.0913 29.1795 52.8267 28.5137Z" fill="#929292"/>
<path d="M72.6429 33.8524C72.3372 33.4395 71.7304 33.544 71.2293 33.5473C69.6274 33.5577 68.3552 32.157 66.8152 31.699C66.0084 31.4592 65.154 31.4866 64.3145 31.4736C61.7476 31.4308 59.202 30.9981 56.7644 30.1904C56.7605 36.501 56.7461 42.8377 56.6934 49.1424C58.0835 50.0166 59.6782 50.6562 60.734 51.0305C61.8543 51.4278 62.9238 52.0805 64.1229 51.8361C65.2309 51.6094 66.2345 50.3517 67.3861 50.0309C68.2203 49.799 69.1112 49.9205 69.9584 49.7441C70.8057 49.5677 71.6881 48.9098 71.6529 48.0147C71.6242 47.2856 71.007 46.7375 70.3918 46.3814C70.3918 46.4507 69.3269 45.5771 69.2265 45.3883C68.2972 43.5211 69.6482 41.8767 70.165 40.2649C70.9138 37.9312 69.8053 36.5592 72.1078 35.2669C72.5959 34.9938 72.9818 34.3104 72.6429 33.8524Z" fill="#929292"/>
<path d="M41.527 92.9461C41.9278 93.7955 42.257 94.5919 42.3443 95.2727C42.7242 98.2329 40.2666 101.875 39.2213 104.577C38.9306 105.329 38.6347 106.129 38.765 106.929C38.8198 107.266 38.9488 107.583 39.0779 107.898C40.0268 110.215 41.8907 112.313 43.5474 114.1C44.1137 112.568 44.0687 108.888 43.9162 107.255C43.8647 106.717 43.7755 106.154 43.9664 105.651C44.5797 104.036 46.5733 101.815 47.953 100.852C49.302 99.9087 51.0747 99.1535 51.4247 97.5025C51.5589 96.8688 51.4462 96.1899 51.6437 95.5745C51.7623 95.2054 51.9852 94.8839 52.165 94.5409C53.0377 92.8592 53.5336 89.6115 51.7857 88.4166C49.8306 87.0811 47.0679 89.0372 45.3917 86.8584C45.1388 86.5317 44.9505 86.1469 44.6631 85.8509C44.1293 85.3008 43.3088 85.127 42.5665 85.2557C37.6252 86.1103 40.0581 89.8454 41.527 92.9461Z" fill="#929292"/>
<path d="M72.549 68.4934C74.1092 69.5283 76.8021 67.258 77.792 64.6041C77.9159 64.2722 78.0312 63.9253 78.258 63.6581C78.7201 63.1139 79.5152 63.044 80.2073 63.1446C80.8994 63.2452 81.5903 63.4752 82.2843 63.383C83.2795 63.2524 84.1013 62.4586 84.5654 61.5361C85.0294 60.6135 85.1975 59.5662 85.3585 58.5392C86.1016 58.3517 86.8863 58.4233 87.5835 58.7424C88.1192 58.988 88.6477 59.5303 88.4959 60.1177C88.4274 60.3868 88.2287 60.5966 88.0397 60.7971C87.4537 61.4252 86.9094 62.0911 86.4104 62.7905C86.1021 63.2223 85.7997 63.7861 86.0311 64.267C86.6613 65.5776 87.8135 64.8962 87.4824 66.7706C87.0653 69.1187 83.9899 70.0784 85.7469 72.8832C86.3902 73.9096 87.5593 74.5237 88.7383 74.5819C89.5855 74.6217 90.6283 74.167 90.6374 73.2889C90.6407 73.0276 90.5475 72.7604 90.6263 72.5134C90.7287 72.192 91.0825 72.0345 91.4032 71.9835C92.4596 71.8169 93.4809 72.3664 94.4558 72.8205C94.7504 72.9577 95.1017 73.0818 95.3819 72.9185C96.2943 72.3769 95.8681 71.9293 97.1077 71.8078C98.1641 71.7059 99.4011 72.5506 100 73.3863C100.143 73.5875 100.274 73.8436 100.182 74.0781C100.104 74.2794 99.884 74.3826 99.7738 74.5675C99.5914 74.8719 99.7739 75.2927 100.063 75.492C100.351 75.6912 100.707 75.7343 101.046 75.8069C102.634 76.146 102.671 77.7159 103.793 78.4993C104.705 79.1356 107.025 79.261 106.82 77.4311C106.745 76.762 106.097 76.2119 106.204 75.5481C106.298 74.9634 106.931 74.6518 107.498 74.5773C108.065 74.5028 108.671 74.559 109.177 74.2852C109.514 74.1023 109.77 73.792 110.078 73.56C111.973 72.1292 116.464 73.3444 117.916 74.9484C119.275 76.4471 119.428 79.0304 121.175 80.0013C120.971 78.0099 120.002 76.1133 118.527 74.8203C118.256 74.5825 117.957 74.3499 117.815 74.0122C117.695 73.7293 117.703 73.4078 117.718 73.0975C117.795 71.5203 118.094 70.051 118.509 68.5784C118.459 68.7548 119.617 65.5547 118.785 66.161C120.277 65.0778 123.534 63.2988 125.403 63.417C126.377 63.4771 127.338 64.0612 127.75 64.9798C128.161 65.8984 127.912 67.1195 127.107 67.6911C126.337 68.238 125.267 68.1328 124.484 68.6613C123.73 69.1696 123.408 70.2672 123.762 71.1251C124.251 70.4242 124.979 69.9256 125.808 69.7224C126.902 69.461 128.142 69.7361 129.087 69.1082C129.783 68.645 130.148 67.7604 130.157 66.9026C130.165 66.0447 129.859 65.2124 129.45 64.4669C129.153 63.9279 128.798 63.4111 128.638 62.8133C128.384 61.8536 128.685 60.8089 129.22 59.9831C131.211 56.9124 134.896 55.5855 138.305 56.7164C138.532 56.7915 138.774 56.8928 138.891 57.1084C139.063 57.42 138.898 57.8173 138.97 58.1675C139.085 58.7195 139.897 58.9286 140.247 58.4941C140.489 58.1949 140.474 57.7637 140.565 57.3835C140.803 56.3989 141.771 55.7965 142.711 55.5162C143.861 55.1726 146.947 53.5889 147.267 55.6835C147.295 55.8664 147.289 56.0604 147.366 56.2277C147.582 56.7001 148.304 56.6321 148.648 56.2499C149.355 55.462 149.48 54.1671 150.165 53.2864C150.772 52.507 151.668 52.0398 152.177 51.1696C153.435 49.0136 152.476 46.1964 150.287 45.1524C148.189 44.1521 145.747 44.5957 143.474 45.0217C141.91 45.3137 136.536 46.4316 136.153 43.8032C136.122 43.5876 136.129 43.3583 136.028 43.1669C135.904 42.9297 135.643 42.8056 135.485 42.5919C135.282 42.3195 135.274 41.9464 135.165 41.6217C134.768 40.4405 133.275 40.2243 132.068 40.2092C132.19 39.4768 132.256 38.5844 131.688 38.131C131.367 37.8749 130.934 37.8468 130.529 37.8285C129.477 37.7821 126.945 38.1734 126.069 37.5358C124.915 36.6904 125.71 35.2491 125.206 34.0849C124.671 32.8474 122.682 32.675 122.461 31.3409C122.413 31.0514 122.466 30.7528 122.432 30.4621C122.351 29.7513 121.793 29.2162 121.271 28.7484C120.324 27.8991 119.25 27.0034 118.002 27.036C117.767 27.2288 117.978 27.6332 118.243 27.7782C118.507 27.9233 118.846 27.9984 118.981 28.2761C119.238 28.8085 118.5 29.2463 117.938 29.3573C117.911 30.1361 118.665 30.6522 119.248 31.1435C120.247 31.9964 120.933 33.1589 121.197 34.4468C119.208 34.8168 117.177 34.9032 115.164 34.7036C112.742 34.4631 111.189 38.4491 108.317 37.3443C107.893 37.181 107.514 36.887 107.069 36.8008C105.952 36.5813 105.052 37.6789 104.048 38.2329C102.519 39.0757 100.645 38.6386 99.0061 38.0578C97.051 37.3646 94.6676 36.3689 92.6942 37.5652C91.9571 38.0121 91.368 38.7079 90.5872 39.0678C88.9482 39.8218 87.0888 38.896 85.3038 38.7183C80.9001 38.2799 78.2502 42.7487 76.819 46.4701C76.602 47.0346 76.4071 47.6285 76.4358 48.2341C76.4645 48.8398 76.7617 49.4703 77.2961 49.7205C78.0879 50.0909 79.0082 49.5023 79.525 48.7784C80.0418 48.0545 80.3566 47.1692 80.9887 46.5512C81.6209 45.9331 82.7836 45.7351 83.2828 46.4721C83.5285 46.8347 83.5389 47.3097 83.5395 47.7526C83.5395 48.595 83.5413 49.4369 83.5448 50.2784C83.5448 50.7416 83.5448 51.2205 83.3623 51.6439C83.0592 52.3502 82.3371 52.7402 81.6678 53.0767L77.2954 55.2719C76.804 55.5188 76.3061 55.7691 75.8884 56.1349C73.9847 57.8016 75.264 60.1079 73.7951 61.7125C73.202 62.3599 72.2186 62.5546 71.7324 63.2916C71.3726 63.8365 71.3746 64.5453 71.3896 65.2052C71.4345 67.0313 71.8907 68.0563 72.549 68.4934Z" fill="#929292"/>
<path d="M123.361 82.4954C122.771 83.6021 122.852 85.0486 121.519 85.6595C120.632 86.0659 119.499 85.8803 118.774 86.5513C117.949 87.3164 118.165 88.674 118.324 89.8095C118.353 90.0133 118.376 90.2289 118.296 90.4171C118.083 90.9156 117.322 90.9025 117.06 91.3749C116.836 91.7806 117.114 92.2895 117.448 92.6058C118.467 93.5616 120.12 93.6864 121.264 92.8945C121.568 92.6835 121.897 92.4019 122.251 92.4921C122.666 92.5973 122.805 93.1193 122.917 93.5453C123.157 94.4534 123.629 95.3262 124.376 95.862C126.726 97.5469 130.032 95.4968 132.642 97.8736C132.963 98.1656 133.268 98.5132 133.359 98.9444C133.46 99.4115 133.309 99.9473 133.562 100.347C133.879 100.848 134.658 100.78 135.084 100.376C135.51 99.9721 135.681 99.3632 135.859 98.7935C136.037 98.2238 136.271 97.6221 136.76 97.3032C137.584 96.7675 138.524 96.9727 138.98 95.8822C139.549 94.4913 137.851 93.3395 138.39 92.0726C138.631 91.5069 139.016 90.8894 138.774 90.3237C138.651 90.0368 138.391 89.8448 138.176 89.622C137.171 88.5766 136.999 87.5966 135.659 86.9616C134.804 86.5559 133.032 87.0812 132.681 85.602C132.59 85.2165 132.721 84.7324 132.434 84.4698C132.272 84.3202 132.034 84.3104 131.817 84.311C130.318 84.3162 128.534 84.3398 127.679 83.0619C126.735 81.6493 126.624 80.6308 124.706 81.3325C124.124 81.5295 123.641 81.9468 123.361 82.4954Z" fill="#929292"/>
<path d="M78.6605 74.7246C78.3477 75.1741 78.1717 75.7157 77.842 76.1515C76.9146 77.3791 76.5118 76.2939 75.4639 76.7074C75.1021 76.8505 74.7815 77.1047 74.4042 77.1948C73.641 77.3765 72.883 76.8486 72.1003 76.8453C69.0842 76.8329 70.6666 81.861 72.1277 82.8253C72.3982 83.0036 72.7384 83.0062 73.059 83.003L76.0419 82.9723C76.3254 82.9723 76.6285 82.9723 76.8631 83.1395C77.58 83.6524 76.897 84.9199 77.3297 85.7065C77.6263 86.2462 78.3158 86.3461 78.9056 86.4572C80.1523 86.6917 80.4247 88.0984 81.1866 88.9666C82.1642 90.0819 83.1033 90.5346 83.6566 92.1516C83.9825 93.1134 84.0985 94.1535 84.5312 95.0695C85.4221 96.9537 87.7318 97.9683 89.6563 97.3222C91.5808 96.676 92.8777 94.4475 92.5336 92.3803C92.3329 91.173 91.6623 90.1146 91.197 88.9882C90.2546 86.71 90.892 83.9353 93.5014 83.5002C94.1603 83.3904 95.0004 83.3519 95.2428 82.709C95.5967 81.7819 94.2301 80.698 94.7971 79.8925C95.0011 79.6024 95.396 79.5005 95.5752 79.1914C95.8157 78.7792 95.542 78.2447 95.2063 77.9109C94.8707 77.577 94.4471 77.2876 94.3083 76.827C93.5262 74.2333 90.9656 75.8542 89.2549 76.1959C87.7298 76.501 86.8598 76.303 85.5909 75.5425C83.6266 74.3646 80.6489 71.863 78.6605 74.7246Z" fill="#929292"/>
<path d="M85.1582 34.1598C85.3837 33.7234 85.9344 33.6215 86.4108 33.5882C88.0549 33.4722 89.7071 33.5821 91.3215 33.9148C89.9855 35.0039 88.495 36.1492 86.7966 36.0898C86.0263 36.063 85.2273 35.7873 84.5065 36.0708C84.424 35.806 84.4029 35.5258 84.4448 35.2516C84.4867 34.9774 84.5905 34.7164 84.7483 34.4884L85.1582 34.1598Z" fill="#929292"/>
<path d="M66.1816 54.1885C67.8566 55.5606 73.7651 53.7312 71.0083 51.9541C70.5632 51.668 70.0307 51.5798 69.5093 51.4968C68.8133 51.3864 68.099 51.276 67.4088 51.4243C66.7187 51.5726 66.0474 52.0358 65.8401 52.7342C65.642 53.4065 65.8082 53.8789 66.1816 54.1885Z" fill="#929292"/>
<path d="M139.153 42.094C140.189 43.0355 141.64 43.27 143.005 43.4601C143.686 43.5568 144.578 43.5307 144.814 42.8604C145.062 42.1535 144.261 41.5008 143.54 41.4191C142.819 41.3375 142.054 41.5348 141.386 41.2414C140.793 40.9801 140.327 40.3535 139.683 40.3594C138.934 40.3659 138.482 41.4995 139.005 42.0535L139.153 42.094Z" fill="#929292"/>
<path d="M101.913 74.38C101.664 74.3804 101.425 74.2852 101.244 74.1141L99.8104 72.7604C99.7092 72.6744 99.6266 72.5687 99.5674 72.4497C99.5083 72.3307 99.4739 72.2009 99.4664 72.0682C99.4589 71.9355 99.4784 71.8026 99.5238 71.6777C99.5691 71.5527 99.6393 71.4384 99.7301 71.3415C99.821 71.2447 99.9305 71.1673 100.052 71.1142C100.174 71.0612 100.305 71.0334 100.437 71.0327C100.57 71.032 100.701 71.0584 100.823 71.1102C100.946 71.162 101.056 71.2382 101.148 71.3341L102.582 72.6878C102.724 72.8224 102.822 72.9966 102.864 73.1879C102.907 73.3792 102.891 73.5788 102.819 73.7609C102.747 73.9431 102.622 74.0994 102.461 74.2098C102.299 74.3201 102.108 74.3794 101.913 74.38Z" fill="#F54617"/>
<path d="M116.186 87.8366C115.937 87.8368 115.698 87.7419 115.516 87.5714L111.586 83.865C111.411 83.684 111.312 83.4424 111.311 83.1904C111.309 82.9385 111.404 82.6955 111.576 82.5119C111.748 82.3284 111.984 82.2183 112.235 82.2047C112.486 82.1911 112.733 82.2749 112.924 82.4388L116.854 86.1451C116.996 86.2798 117.094 86.4539 117.137 86.6451C117.179 86.8362 117.163 87.0357 117.091 87.2177C117.019 87.3997 116.894 87.5559 116.733 87.6662C116.572 87.7766 116.381 87.8359 116.186 87.8366ZM108.323 80.4239C108.075 80.4238 107.836 80.329 107.655 80.1586L103.723 76.4522C103.622 76.3663 103.54 76.2606 103.481 76.1416C103.421 76.0226 103.387 75.8928 103.379 75.7601C103.372 75.6274 103.391 75.4945 103.437 75.3696C103.482 75.2446 103.552 75.1303 103.643 75.0334C103.734 74.9365 103.844 74.8592 103.965 74.8061C104.087 74.753 104.218 74.7253 104.35 74.7246C104.483 74.7239 104.614 74.7503 104.737 74.8021C104.859 74.8539 104.969 74.9301 105.061 75.026L108.992 78.7324C109.134 78.867 109.232 79.0412 109.274 79.2323C109.316 79.4235 109.3 79.6229 109.229 79.8049C109.157 79.9869 109.032 80.1432 108.871 80.2535C108.709 80.3638 108.519 80.4232 108.323 80.4239Z" fill="#F54617"/>
<path d="M120.137 93.9908C119.985 93.9905 119.835 93.9546 119.699 93.8859C119.563 93.8171 119.445 93.7175 119.354 93.5949C119.263 93.4722 119.202 93.3301 119.176 93.1796C119.15 93.0292 119.159 92.8748 119.203 92.7285L119.598 91.4179L118.603 90.4804C118.43 90.2992 118.332 90.0581 118.331 89.8069C118.33 89.5557 118.425 89.3136 118.596 89.1306C118.768 88.9476 119.003 88.8376 119.253 88.8234C119.503 88.8091 119.75 88.8918 119.941 89.0542L121.374 90.4079C121.507 90.5328 121.602 90.6921 121.649 90.8681C121.696 91.0441 121.693 91.2298 121.64 91.4042L121.07 93.295C121.009 93.4957 120.886 93.6717 120.718 93.797C120.55 93.9222 120.347 93.9901 120.137 93.9908Z" fill="#F54617"/>
<path d="M117.49 102.772C117.337 102.772 117.187 102.736 117.051 102.667C116.914 102.598 116.796 102.499 116.705 102.376C116.614 102.253 116.553 102.111 116.527 101.96C116.501 101.81 116.51 101.655 116.554 101.509L118.178 96.1254C118.21 95.9965 118.267 95.8754 118.347 95.7695C118.427 95.6636 118.528 95.5751 118.643 95.5095C118.759 95.4438 118.886 95.4023 119.018 95.3875C119.149 95.3726 119.283 95.3848 119.409 95.4233C119.536 95.4617 119.654 95.5256 119.756 95.6111C119.857 95.6966 119.94 95.8018 120 95.9205C120.059 96.0392 120.094 96.1687 120.102 96.3013C120.11 96.4339 120.092 96.5668 120.047 96.6919L118.423 102.076C118.363 102.277 118.239 102.453 118.071 102.578C117.903 102.704 117.699 102.771 117.49 102.772Z" fill="#F54617"/>
<path d="M69.2618 64.8693C69.0025 64.8693 68.7538 64.766 68.5705 64.5823C68.3872 64.3985 68.2842 64.1492 68.2842 63.8893V61.9136C68.2842 61.6537 68.3872 61.4044 68.5705 61.2206C68.7538 61.0368 69.0025 60.9336 69.2618 60.9336C69.521 60.9336 69.7697 61.0368 69.953 61.2206C70.1363 61.4044 70.2393 61.6537 70.2393 61.9136V63.8893C70.2393 64.1492 70.1363 64.3985 69.953 64.5823C69.7697 64.766 69.521 64.8693 69.2618 64.8693Z" fill="#F54617"/>
<path d="M69.2618 59.3374C69.0025 59.3374 68.7538 59.2341 68.5705 59.0503C68.3872 58.8666 68.2842 58.6173 68.2842 58.3574V52.7197C68.2842 52.4598 68.3872 52.2106 68.5705 52.0268C68.7538 51.843 69.0025 51.7397 69.2618 51.7397C69.521 51.7397 69.7697 51.843 69.953 52.0268C70.1363 52.2106 70.2393 52.4598 70.2393 52.7197V58.3574C70.2393 58.6173 70.1363 58.8666 69.953 59.0503C69.7697 59.2341 69.521 59.3374 69.2618 59.3374ZM69.2618 48.0628C69.0025 48.0628 68.7538 47.9595 68.5705 47.7757C68.3872 47.5919 68.2842 47.3427 68.2842 47.0828V45.9068C68.2842 45.6468 68.3872 45.3976 68.5705 45.2138C68.7538 45.03 69.0025 44.9268 69.2618 44.9268C69.521 44.9268 69.7697 45.03 69.953 45.2138C70.1363 45.3976 70.2393 45.6468 70.2393 45.9068V47.0828C70.2393 47.3427 70.1363 47.5919 69.953 47.7757C69.7697 47.9595 69.521 48.0628 69.2618 48.0628Z" fill="#F54617"/>
<path d="M69.2618 45.1144C69.0025 45.1144 68.7538 45.0111 68.5705 44.8274C68.3872 44.6436 68.2842 44.3943 68.2842 44.1344V42.1587C68.2842 41.8988 68.3872 41.6495 68.5705 41.4657C68.7538 41.282 69.0025 41.1787 69.2618 41.1787H71.2325C71.4918 41.1787 71.7405 41.282 71.9238 41.4657C72.1071 41.6495 72.2101 41.8988 72.2101 42.1587C72.2101 42.4186 72.1071 42.6679 71.9238 42.8517C71.7405 43.0355 71.4918 43.1387 71.2325 43.1387H70.2393V44.1344C70.2393 44.3943 70.1363 44.6436 69.953 44.8274C69.7697 45.0111 69.521 45.1144 69.2618 45.1144Z" fill="#F54617"/>
<path d="M75.1993 43.1309C74.94 43.1309 74.6913 43.0276 74.508 42.8438C74.3247 42.66 74.2217 42.4108 74.2217 42.1509C74.2217 41.8909 74.3247 41.6417 74.508 41.4579C74.6913 41.2741 74.94 41.1709 75.1993 41.1709L81.4896 41.1643C81.7489 41.1643 81.9976 41.2676 82.1809 41.4513C82.3642 41.6351 82.4672 41.8844 82.4672 42.1443C82.4672 42.4042 82.3642 42.6535 82.1809 42.8373C81.9976 43.0211 81.7489 43.1243 81.4896 43.1243L75.1986 43.1315L75.1993 43.1309ZM87.7807 43.1178C87.5214 43.1178 87.2728 43.0145 87.0894 42.8308C86.9061 42.647 86.8031 42.3977 86.8031 42.1378C86.8031 41.8779 86.9061 41.6286 87.0894 41.4448C87.2728 41.261 87.5214 41.1578 87.7807 41.1578L94.0717 41.1512C94.331 41.1512 94.5796 41.2545 94.763 41.4383C94.9463 41.6221 95.0493 41.8713 95.0493 42.1313C95.0493 42.3912 94.9463 42.6404 94.763 42.8242C94.5796 43.008 94.331 43.1113 94.0717 43.1113L87.7807 43.1178ZM100.363 43.1047C100.103 43.1047 99.8548 43.0015 99.6715 42.8177C99.4882 42.6339 99.3852 42.3846 99.3852 42.1247C99.3852 41.8648 99.4882 41.6155 99.6715 41.4318C99.8548 41.248 100.103 41.1447 100.363 41.1447L106.653 41.1382C106.912 41.1382 107.161 41.2414 107.344 41.4252C107.528 41.609 107.631 41.8583 107.631 42.1182C107.631 42.3781 107.528 42.6274 107.344 42.8112C107.161 42.9949 106.912 43.0982 106.653 43.0982L100.362 43.1047H100.363Z" fill="#F54617"/>
<path d="M114.882 43.0889C114.623 43.0889 114.374 42.9857 114.191 42.8019C114.007 42.6181 113.904 42.3688 113.904 42.1089C113.904 41.849 114.007 41.5997 114.191 41.4159C114.374 41.2322 114.623 41.1289 114.882 41.1289H116.852C117.111 41.1289 117.36 41.2322 117.543 41.4159C117.727 41.5997 117.83 41.849 117.83 42.1089C117.83 42.3688 117.727 42.6181 117.543 42.8019C117.36 42.9857 117.111 43.0889 116.852 43.0889H114.881H114.882Z" fill="#F54617"/>
<path d="M30.0942 71.043H28.1202C27.8609 71.043 27.6122 70.9398 27.4289 70.756C27.2456 70.5722 27.1426 70.3229 27.1426 70.063C27.1426 69.8031 27.2456 69.5538 27.4289 69.37C27.6122 69.1863 27.8609 69.083 28.1202 69.083H30.0942C30.3535 69.083 30.6021 69.1863 30.7855 69.37C30.9688 69.5538 31.0718 69.8031 31.0718 70.063C31.0718 70.3229 30.9688 70.5722 30.7855 70.756C30.6021 70.9398 30.3535 71.043 30.0942 71.043Z" fill="#F54617"/>
<path d="M45.6102 71.043H44.4736C44.2144 71.043 43.9657 70.9398 43.7824 70.756C43.5991 70.5722 43.4961 70.3229 43.4961 70.063C43.4961 69.8031 43.5991 69.5538 43.7824 69.37C43.9657 69.1863 44.2144 69.083 44.4736 69.083H45.6102C45.8695 69.083 46.1182 69.1863 46.3015 69.37C46.4848 69.5538 46.5878 69.8031 46.5878 70.063C46.5878 70.3229 46.4848 70.5722 46.3015 70.756C46.1182 70.9398 45.8695 71.043 45.6102 71.043ZM39.0064 71.043H33.5391C33.2798 71.043 33.0312 70.9398 32.8479 70.756C32.6645 70.5722 32.5615 70.3229 32.5615 70.063C32.5615 69.8031 32.6645 69.5538 32.8479 69.37C33.0312 69.1863 33.2798 69.083 33.5391 69.083H39.0064C39.2656 69.083 39.5143 69.1863 39.6976 69.37C39.8809 69.5538 39.9839 69.8031 39.9839 70.063C39.9839 70.3229 39.8809 70.5722 39.6976 70.756C39.5143 70.9398 39.2656 71.043 39.0064 71.043Z" fill="#F54617"/>
<path d="M50.6503 72.4892C50.5159 72.4895 50.3829 72.4621 50.2595 72.4086C50.1362 72.3551 50.0251 72.2767 49.9334 72.1782L48.8796 71.044H47.333C47.0738 71.044 46.8251 70.9407 46.6418 70.757C46.4585 70.5732 46.3555 70.3239 46.3555 70.064C46.3555 69.8041 46.4585 69.5548 46.6418 69.371C46.8251 69.1872 47.0738 69.084 47.333 69.084H49.3038C49.4382 69.0836 49.5713 69.1111 49.6946 69.1646C49.818 69.2181 49.929 69.2965 50.0207 69.395L51.3646 70.8402C51.4937 70.9798 51.5795 71.1541 51.6115 71.3418C51.6434 71.5295 51.6201 71.7225 51.5444 71.8971C51.4687 72.0718 51.3439 72.2205 51.1852 72.3252C51.0265 72.4299 50.8409 72.486 50.6509 72.4866L50.6503 72.4892Z" fill="#F54617"/>
<path d="M80.9934 105.123C80.863 105.123 80.7341 105.097 80.614 105.046C80.4939 104.996 80.3851 104.921 80.2941 104.828C79.9988 104.524 79.7075 104.258 79.4188 104.001C78.8857 103.521 78.3819 103.066 77.972 102.458C77.5881 101.947 77.2069 101.501 76.8041 101.029C76.6946 100.901 76.5858 100.774 76.4782 100.645C76.3874 100.548 76.3171 100.434 76.2717 100.309C76.2262 100.184 76.2066 100.052 76.214 99.9188C76.2215 99.7861 76.2557 99.6563 76.3147 99.5372C76.3738 99.4182 76.4563 99.3125 76.5574 99.2264C76.6585 99.1404 76.776 99.0759 76.9027 99.0368C77.0295 98.9978 77.1628 98.9849 77.2946 98.9992C77.4265 99.0134 77.554 99.0543 77.6696 99.1195C77.7851 99.1847 77.8863 99.2728 77.9668 99.3784C78.0737 99.5052 78.1812 99.6299 78.2874 99.7554C78.6987 100.236 79.1236 100.735 79.5504 101.304C79.5615 101.318 79.572 101.333 79.5817 101.348C79.8581 101.763 80.2602 102.126 80.7255 102.545C81.0201 102.811 81.3544 103.112 81.6939 103.46C81.828 103.598 81.9184 103.773 81.954 103.962C81.9895 104.151 81.9686 104.347 81.8939 104.524C81.8191 104.702 81.6938 104.853 81.5336 104.96C81.3735 105.066 81.1855 105.123 80.9934 105.123ZM73.1806 96.7317C73.0488 96.7319 72.9183 96.7053 72.7971 96.6534C72.6758 96.6015 72.5664 96.5255 72.4754 96.4299C71.2176 95.1134 69.9897 93.7676 68.8023 92.4655L68.468 92.0989C68.3084 91.9051 68.2291 91.6573 68.2466 91.4065C68.2641 91.1558 68.3771 90.9214 68.5621 90.7518C68.7471 90.5822 68.99 90.4903 69.2407 90.4952C69.4914 90.5 69.7306 90.6012 69.9089 90.7779L70.2433 91.1451C71.4235 92.4387 72.6435 93.7761 73.8851 95.0755C74.0169 95.2142 74.1054 95.3886 74.1394 95.5771C74.1735 95.7656 74.1517 95.9599 74.0767 96.1362C74.0018 96.3124 73.8769 96.4627 73.7176 96.5686C73.5584 96.6744 73.3716 96.7311 73.1806 96.7317ZM65.1775 88.1208C65.0471 88.121 64.918 88.095 64.7979 88.0443C64.6778 87.9936 64.569 87.9192 64.4782 87.8255C63.6309 86.9507 62.8313 86.1634 62.0433 85.4166C62.027 85.4016 62.0114 85.3853 61.9964 85.3689C61.4451 84.7696 60.9002 84.1773 60.3619 83.5919C60.2644 83.4996 60.1869 83.3882 60.1341 83.2647C60.0814 83.1411 60.0546 83.0079 60.0553 82.8735C60.0561 82.7391 60.0845 82.6063 60.1386 82.4834C60.1928 82.3604 60.2716 82.2499 60.3701 82.1588C60.4687 82.0677 60.5849 81.9978 60.7115 81.9536C60.8382 81.9095 60.9725 81.8919 61.1062 81.9019C61.2399 81.912 61.3701 81.9496 61.4887 82.0122C61.6073 82.0749 61.7118 82.1614 61.7957 82.2663C62.3266 82.8447 62.8634 83.4283 63.4061 84.0172C64.2057 84.7751 65.0132 85.5741 65.8735 86.4587C66.007 86.5968 66.097 86.7711 66.1324 86.96C66.1677 87.149 66.1469 87.3442 66.0724 87.5213C65.998 87.6985 65.8731 87.8498 65.7136 87.9564C65.554 88.063 65.3666 88.1201 65.1749 88.1208H65.1775ZM57.1151 79.5686C56.9791 79.5686 56.8447 79.5402 56.7204 79.4852C56.5961 79.4302 56.4845 79.3498 56.3929 79.2492C55.0419 77.7628 53.7522 76.3333 52.4501 74.8797C52.3553 74.7857 52.2808 74.6733 52.231 74.5494C52.1812 74.4255 52.1572 74.2927 52.1604 74.1591C52.1637 74.0256 52.1942 73.8941 52.25 73.7728C52.3057 73.6515 52.3857 73.5429 52.4849 73.4537C52.584 73.3645 52.7004 73.2965 52.8267 73.254C52.953 73.2115 53.0867 73.1954 53.2195 73.2066C53.3523 73.2177 53.4814 73.256 53.5989 73.319C53.7164 73.382 53.8198 73.4685 53.9027 73.573C55.2016 75.0234 56.4888 76.4477 57.8365 77.932C57.9634 78.0724 58.0469 78.2467 58.077 78.4337C58.1072 78.6207 58.0826 78.8125 58.0062 78.9858C57.9299 79.1591 57.8051 79.3065 57.6469 79.4102C57.4888 79.5138 57.304 79.5693 57.1151 79.5699V79.5686Z" fill="#F54617"/>
<path d="M149.543 108.74C149.394 108.74 149.247 108.706 149.114 108.64C148.999 108.619 148.676 108.575 147.849 108.531C147.716 108.531 147.585 108.504 147.463 108.452C147.341 108.399 147.231 108.322 147.14 108.226C147.049 108.129 146.978 108.015 146.932 107.891C146.886 107.766 146.866 107.633 146.873 107.5C146.879 107.368 146.913 107.238 146.972 107.118C147.03 106.999 147.112 106.893 147.213 106.807C147.314 106.72 147.431 106.655 147.558 106.616C147.684 106.576 147.818 106.563 147.95 106.576C149.602 106.662 149.939 106.766 150.242 107.078C150.376 107.216 150.466 107.391 150.501 107.579C150.536 107.768 150.515 107.963 150.441 108.14C150.366 108.318 150.241 108.469 150.082 108.575C149.922 108.682 149.735 108.739 149.543 108.74ZM100.909 108.669C100.649 108.669 100.401 108.566 100.217 108.382C100.034 108.198 99.9311 107.949 99.9311 107.689C99.9311 107.429 100.034 107.18 100.217 106.996C100.401 106.812 100.649 106.709 100.909 106.709C102.752 106.702 104.724 106.691 106.78 106.676H106.787C107.046 106.675 107.295 106.778 107.479 106.961C107.663 107.144 107.767 107.393 107.768 107.653C107.769 107.913 107.667 108.163 107.484 108.347C107.301 108.531 107.053 108.635 106.794 108.636C104.736 108.651 102.761 108.662 100.915 108.669H100.909ZM95.0354 108.669H95.0295C92.2271 108.653 90.2909 108.613 89.11 108.546C88.8612 108.519 88.6324 108.397 88.4707 108.205C88.309 108.014 88.2267 107.767 88.2408 107.517C88.2549 107.266 88.3644 107.031 88.5465 106.859C88.7287 106.687 88.9698 106.591 89.2201 106.592C90.3678 106.657 92.2721 106.696 95.0406 106.712C95.2999 106.712 95.5482 106.816 95.7311 107C95.9139 107.185 96.0163 107.434 96.0156 107.694C96.0149 107.954 95.9112 108.203 95.7274 108.386C95.5436 108.57 95.2946 108.672 95.0354 108.672V108.669ZM112.658 108.589C112.399 108.59 112.149 108.488 111.965 108.305C111.781 108.122 111.677 107.873 111.676 107.613C111.675 107.354 111.777 107.104 111.959 106.919C112.142 106.735 112.39 106.63 112.649 106.629L118.523 106.575H118.532C118.792 106.574 119.041 106.676 119.225 106.859C119.409 107.042 119.513 107.291 119.515 107.55C119.516 107.81 119.414 108.06 119.231 108.245C119.049 108.429 118.801 108.534 118.542 108.535L112.667 108.589H112.658ZM124.406 108.481C124.147 108.483 123.898 108.38 123.714 108.197C123.53 108.014 123.426 107.766 123.425 107.506C123.423 107.246 123.525 106.996 123.708 106.811C123.89 106.627 124.139 106.523 124.398 106.521C126.402 106.504 128.373 106.488 130.274 106.475H130.281C130.54 106.474 130.789 106.577 130.973 106.76C131.157 106.943 131.261 107.192 131.262 107.452C131.263 107.712 131.16 107.961 130.978 108.146C130.795 108.33 130.547 108.434 130.287 108.435C128.387 108.448 126.418 108.464 124.415 108.481H124.406ZM142.03 108.412H142.024C140.903 108.405 139.683 108.404 138.383 108.402C137.665 108.402 136.923 108.402 136.159 108.402C136.03 108.403 135.903 108.377 135.785 108.328C135.666 108.279 135.558 108.207 135.467 108.117C135.283 107.933 135.18 107.684 135.18 107.424C135.179 107.164 135.282 106.915 135.465 106.731C135.648 106.546 135.896 106.443 136.156 106.442C136.98 106.442 137.785 106.442 138.551 106.442C139.793 106.442 140.963 106.442 142.039 106.452C142.298 106.453 142.546 106.557 142.729 106.741C142.912 106.926 143.014 107.175 143.013 107.435C143.012 107.695 142.909 107.944 142.725 108.127C142.541 108.31 142.292 108.413 142.033 108.412H142.03Z" fill="#F54617"/>
<path d="M29.1055 72.0741C30.5002 72.0741 31.6309 70.9406 31.6309 69.5424C31.6309 68.1442 30.5002 67.0107 29.1055 67.0107C27.7107 67.0107 26.5801 68.1442 26.5801 69.5424C26.5801 70.9406 27.7107 72.0741 29.1055 72.0741Z" fill="white"/>
<path d="M69.5069 67.1351C70.9016 67.1351 72.0323 66.0017 72.0323 64.6035C72.0323 63.2052 70.9016 62.0718 69.5069 62.0718C68.1121 62.0718 66.9814 63.2052 66.9814 64.6035C66.9814 66.0017 68.1121 67.1351 69.5069 67.1351Z" fill="white"/>
<path d="M69.5069 45.4022C70.9016 45.4022 72.0323 44.2687 72.0323 42.8705C72.0323 41.4723 70.9016 40.3389 69.5069 40.3389C68.1121 40.3389 66.9814 41.4723 66.9814 42.8705C66.9814 44.2687 68.1121 45.4022 69.5069 45.4022Z" fill="white"/>
<path d="M100.547 74.5438C101.942 74.5438 103.072 73.4103 103.072 72.0121C103.072 70.6139 101.942 69.4805 100.547 69.4805C99.1521 69.4805 98.0215 70.6139 98.0215 72.0121C98.0215 73.4103 99.1521 74.5438 100.547 74.5438Z" fill="white"/>
<path d="M84.7803 110.6C86.175 110.6 87.3057 109.467 87.3057 108.068C87.3057 106.67 86.175 105.537 84.7803 105.537C83.3855 105.537 82.2549 106.67 82.2549 108.068C82.2549 109.467 83.3855 110.6 84.7803 110.6Z" fill="white"/>
<path d="M99.7848 72.8593C99.7077 72.8594 99.6309 72.8502 99.556 72.8319L93.4807 71.3684C93.2406 71.2971 93.0369 71.1361 92.9117 70.9187C92.7865 70.7012 92.7493 70.4439 92.8078 70.1998C92.8663 69.9557 93.0161 69.7434 93.2262 69.6067C93.4363 69.47 93.6907 69.4194 93.9369 69.4653L100.012 70.9287C100.243 70.9866 100.444 71.1267 100.579 71.3228C100.714 71.519 100.773 71.7577 100.746 71.9943C100.718 72.231 100.605 72.4493 100.428 72.6085C100.251 72.7677 100.022 72.8569 99.7848 72.8593ZM87.6348 69.9324C87.5575 69.9322 87.4805 69.923 87.4054 69.905L81.3301 68.4415C81.1997 68.4172 81.0755 68.3665 80.9652 68.2926C80.855 68.2187 80.7608 68.123 80.6886 68.0115C80.6164 67.8999 80.5676 67.7748 80.5452 67.6437C80.5227 67.5126 80.5271 67.3783 80.5581 67.249C80.5891 67.1197 80.6461 66.998 80.7255 66.8915C80.8049 66.7849 80.9051 66.6957 81.02 66.6292C81.1349 66.5627 81.262 66.5204 81.3938 66.5048C81.5255 66.4891 81.6591 66.5006 81.7863 66.5383L87.8616 68.0018C88.0921 68.0596 88.2937 68.1997 88.4287 68.3958C88.5637 68.5918 88.6228 68.8305 88.595 69.0671C88.5673 69.3037 88.4544 69.522 88.2777 69.6813C88.101 69.8405 87.8724 69.9298 87.6348 69.9324ZM75.4835 67.0048C75.4064 67.0049 75.3296 66.9957 75.2548 66.9774L69.1794 65.5139C68.9393 65.4426 68.7356 65.2816 68.6104 65.0642C68.4852 64.8467 68.448 64.5894 68.5066 64.3453C68.5651 64.1011 68.7148 63.8888 68.9249 63.7522C69.135 63.6155 69.3894 63.5649 69.6357 63.6107L75.711 65.0742C75.9415 65.1321 76.1432 65.2722 76.2782 65.4683C76.4131 65.6644 76.4722 65.9032 76.4443 66.1398C76.4165 66.3764 76.3035 66.5948 76.1267 66.754C75.9499 66.9132 75.7212 67.0024 75.4835 67.0048Z" fill="white"/>
<path d="M35.1445 50.9804C38.8016 47.3143 38.8016 41.3703 35.1445 37.7041C31.4874 34.038 25.5581 34.038 21.901 37.7041C18.2439 41.3703 18.2439 47.3143 21.901 50.9804C25.5581 54.6466 31.4874 54.6466 35.1445 50.9804Z" fill="#F54617"/>
<path d="M37.8698 43.8389H19.1577C19.1577 43.8389 18.4121 49.0492 26.7698 63.3213C26.9512 63.6243 27.2076 63.8751 27.5142 64.0495C27.8208 64.2239 28.1671 64.3159 28.5196 64.3166C28.8721 64.3174 29.2187 64.2268 29.526 64.0536C29.8333 63.8805 30.0908 63.6307 30.2734 63.3285C38.631 49.0551 37.8698 43.8389 37.8698 43.8389Z" fill="#F54617"/>
<path opacity="0.8" d="M28.5175 64.6215V64.6738C28.1157 64.6708 27.7215 64.5634 27.3734 64.3621C27.0254 64.1608 26.7354 63.8725 26.5317 63.5252C21.6438 55.1828 19.8562 49.9077 19.2155 46.956C19.0355 46.2945 18.9277 45.6154 18.8942 44.9306C18.8375 44.2322 18.8805 43.9382 18.8858 43.9068L18.9105 43.7572C19.2879 38.7141 23.4726 34.7896 28.5188 34.7896C33.6296 34.7896 37.8534 38.7697 38.1395 43.8526C38.1551 44.0246 38.1601 44.1974 38.1544 44.3701V44.4047C38.1551 45.3234 38.025 46.2375 37.768 47.1193C37.1052 50.0684 35.3038 55.2912 30.502 63.4932C30.2999 63.8401 30.0099 64.1272 29.6614 64.3253C29.3128 64.5235 28.9182 64.6257 28.5175 64.6215ZM19.413 44.261C19.413 44.4021 19.413 44.6033 19.4397 44.9058C19.4713 45.5529 19.5736 46.1946 19.7447 46.8194V46.8299C20.3762 49.7418 22.1476 54.9508 27.0003 63.2371C27.1561 63.5007 27.3777 63.7191 27.6432 63.8708C27.9088 64.0225 28.2092 64.1022 28.5149 64.1021V64.3739V64.1014C28.8203 64.0934 29.119 64.0095 29.3841 63.8573C29.6493 63.7051 29.8726 63.4893 30.034 63.2292C34.8053 55.0795 36.5864 49.9012 37.2401 46.9912L37.2446 46.9743C37.4884 46.1426 37.5575 45.2756 37.5575 44.4047L37.5027 44.3661C37.5066 44.2129 37.5205 44.0602 37.5444 43.9088L37.5699 43.8931C37.304 39.095 33.3337 35.3344 28.5058 35.3344C23.6778 35.3344 19.7076 39.1453 19.4358 43.9852L19.428 44.2623L19.413 44.261Z" fill="white"/>
<path d="M32.3759 48.145C34.4876 46.0281 34.4876 42.5959 32.3759 40.479C30.2642 38.3621 26.8405 38.3621 24.7288 40.479C22.6171 42.5959 22.6171 46.0281 24.7288 48.145C26.8405 50.262 30.2642 50.262 32.3759 48.145Z" fill="white"/>
<path d="M28.5521 50.0353C27.423 50.0352 26.3193 49.6994 25.3805 49.0705C24.4418 48.4415 23.7101 47.5476 23.2781 46.5018C22.8461 45.456 22.7332 44.3053 22.9535 43.1951C23.1739 42.085 23.7177 41.0653 24.5161 40.2649C25.3146 39.4646 26.3318 38.9196 27.4393 38.6988C28.5467 38.478 29.6946 38.5914 30.7377 39.0246C31.7809 39.4578 32.6725 40.1913 33.2997 41.1325C33.927 42.0737 34.2618 43.1802 34.2618 44.3121C34.2601 45.8296 33.658 47.2844 32.5876 48.3573C31.5171 49.4303 30.0659 50.0337 28.5521 50.0353ZM28.5521 39.1945C27.5425 39.1946 26.5556 39.4949 25.7162 40.0573C24.8768 40.6197 24.2226 41.419 23.8363 42.3541C23.45 43.2893 23.349 44.3182 23.5461 45.3109C23.7431 46.3035 24.2294 47.2154 24.9433 47.931C25.6573 48.6466 26.5669 49.134 27.5571 49.3314C28.5474 49.5288 29.5737 49.4274 30.5065 49.04C31.4393 48.6527 32.2365 47.9968 32.7974 47.1552C33.3583 46.3136 33.6577 45.3242 33.6577 44.3121C33.6561 42.9552 33.1177 41.6543 32.1606 40.6949C31.2034 39.7355 29.9057 39.1959 28.5521 39.1945Z" fill="#F54617"/>
<path d="M90.2968 89.3745C93.9539 85.7083 93.9539 79.7643 90.2968 76.0982C86.6398 72.432 80.7105 72.432 77.0534 76.0982C73.3963 79.7643 73.3963 85.7083 77.0534 89.3745C80.7105 93.0407 86.6398 93.0407 90.2968 89.3745Z" fill="#F54617"/>
<path d="M93.0216 82.2329H74.3101C74.3101 82.2329 73.5645 87.4439 81.9221 101.716C82.1036 102.019 82.3601 102.27 82.6667 102.444C82.9733 102.618 83.3196 102.71 83.6721 102.711C84.0246 102.712 84.3713 102.621 84.6785 102.448C84.9858 102.275 85.2432 102.025 85.4258 101.723C93.7821 87.4504 93.0216 82.2329 93.0216 82.2329Z" fill="#F54617"/>
<path opacity="0.8" d="M83.6705 103.016V103.069H83.6738C83.2718 103.066 82.8775 102.958 82.5294 102.757C82.1814 102.556 81.8914 102.267 81.688 101.919C76.8001 93.577 75.0124 88.3019 74.3711 85.3508C74.1913 84.6894 74.0838 84.0103 74.0505 83.3255C73.9938 82.6277 74.0368 82.3337 74.042 82.3024L74.0668 82.1521C74.4441 77.1096 78.6288 73.1851 83.6751 73.1851C88.7852 73.1851 93.0096 77.1652 93.2951 82.2481C93.3108 82.4201 93.316 82.5929 93.3107 82.7656V82.8002C93.311 83.7189 93.1809 84.6329 92.9242 85.5148C92.2608 88.464 90.4601 93.6867 85.6576 101.888C85.4555 102.235 85.1651 102.523 84.816 102.721C84.4669 102.919 84.0716 103.021 83.6705 103.016ZM74.566 82.6558C74.566 82.7963 74.566 82.9975 74.5927 83.3C74.6238 83.9469 74.7259 84.5885 74.8971 85.213V85.2241C75.5286 88.1353 77.3006 93.3444 82.1533 101.631C82.3092 101.895 82.5308 102.113 82.7963 102.265C83.0619 102.416 83.3623 102.496 83.6679 102.496V102.767V102.495C83.9733 102.487 84.272 102.403 84.5372 102.251C84.8023 102.099 85.0256 101.883 85.187 101.623C89.9583 93.4737 91.7394 88.2947 92.3931 85.3848L92.3977 85.3685C92.6407 84.5361 92.7098 83.6698 92.7098 82.7989L92.6557 82.7603C92.6599 82.6072 92.6736 82.4545 92.6968 82.303L92.7229 82.2873C92.457 77.4899 88.4867 73.7286 83.6588 73.7286C78.8308 73.7286 74.8606 77.5402 74.5881 82.3801L74.5803 82.6571L74.566 82.6558Z" fill="white"/>
<path d="M85.6495 88.3075C88.5164 87.4393 90.1385 84.4056 89.2724 81.5316C88.4064 78.6575 85.3802 77.0315 82.5133 77.8997C79.6464 78.7679 78.0243 81.8016 78.8904 84.6756C79.7564 87.5496 82.7826 89.1757 85.6495 88.3075Z" fill="white"/>
<path d="M84.5007 90.5C83.2151 90.5002 81.9583 90.0898 80.8893 89.3207C79.8203 88.5516 78.9871 87.4584 78.495 86.1793C78.0029 84.9003 77.8741 83.4928 78.1248 82.1349C78.3755 80.7769 78.9945 79.5296 79.9035 78.5505C80.8126 77.5715 81.9707 76.9047 83.2316 76.6346C84.4925 76.3644 85.7995 76.503 86.9873 77.0328C88.175 77.5626 89.1902 78.4598 89.9045 79.6109C90.6188 80.7621 91 82.1155 91 83.5C90.998 85.3557 90.3127 87.1349 89.0943 88.4471C87.8759 89.7594 86.2239 90.4977 84.5007 90.5ZM84.5007 77.2415C83.3511 77.2413 82.2273 77.6083 81.2714 78.296C80.3154 78.9838 79.5703 79.9613 79.1303 81.1051C78.6903 82.2489 78.5752 83.5075 78.7994 84.7217C79.0237 85.936 79.5772 87.0514 80.3901 87.9268C81.203 88.8022 82.2387 89.3984 83.3663 89.6399C84.4938 89.8814 85.6625 89.7574 86.7246 89.2835C87.7867 88.8097 88.6944 88.0073 89.333 86.9778C89.9716 85.9483 90.3124 84.738 90.3122 83.5C90.3107 81.8406 89.6979 80.2496 88.6084 79.0761C87.5189 77.9027 86.0416 77.2426 84.5007 77.2407V77.2415Z" fill="#F54617"/>
<path d="M117.066 28.8063C122.238 28.8063 126.43 24.6033 126.43 19.4185C126.43 14.2338 122.238 10.0308 117.066 10.0308C111.894 10.0308 107.701 14.2338 107.701 19.4185C107.701 24.6033 111.894 28.8063 117.066 28.8063Z" fill="#F54617"/>
<path d="M126.413 18.9155H107.701C107.701 18.9155 106.956 24.1265 115.313 38.398C115.495 38.7011 115.751 38.9521 116.057 39.1266C116.364 39.3011 116.71 39.3932 117.063 39.394C117.415 39.3947 117.762 39.304 118.069 39.1308C118.377 38.9575 118.634 38.7076 118.816 38.4052C127.173 24.1318 126.413 18.9155 126.413 18.9155Z" fill="#F54617"/>
<path opacity="0.8" d="M117.062 39.6982V39.7511C116.66 39.748 116.266 39.6405 115.918 39.4391C115.57 39.2377 115.28 38.9492 115.077 38.6019C110.189 30.2594 108.401 24.9844 107.76 22.0326C107.58 21.3712 107.472 20.6921 107.439 20.0073C107.383 19.3089 107.426 19.0149 107.431 18.9842L107.456 18.8339C107.833 13.7908 112.018 9.86621 117.063 9.86621C122.174 9.86621 126.398 13.8463 126.684 18.9293C126.7 19.1013 126.705 19.2741 126.7 19.4467V19.4814C126.7 20.4 126.57 21.3141 126.313 22.196C125.65 25.1451 123.848 30.3679 119.046 38.5698C118.844 38.9169 118.555 39.2041 118.206 39.4023C117.857 39.6005 117.463 39.7026 117.062 39.6982ZM107.957 19.3383C107.957 19.4787 107.957 19.68 107.984 19.9825C108.016 20.6296 108.118 21.2713 108.289 21.8961L108.292 21.9072C108.924 24.8184 110.696 30.0275 115.548 38.3137C115.704 38.5775 115.925 38.796 116.191 38.9476C116.457 39.0993 116.757 39.179 117.063 39.1788V39.4506V39.1781C117.369 39.17 117.667 39.0861 117.932 38.9339C118.198 38.7817 118.421 38.5659 118.582 38.3059C123.354 30.1562 125.135 24.9779 125.788 22.0679L125.793 22.0509C126.036 21.2192 126.105 20.3522 126.105 19.4814L126.05 19.4435C126.055 19.2903 126.069 19.1375 126.092 18.9861L126.118 18.9704C125.852 14.1723 121.878 10.4117 117.053 10.4117C112.239 10.4117 108.255 14.2227 107.983 19.0626L107.976 19.3402L107.957 19.3383Z" fill="#F54617"/>
<path d="M118.66 24.5918C121.518 23.7245 123.134 20.6986 122.269 17.8331C121.404 14.9677 118.385 13.348 115.527 14.2153C112.669 15.0826 111.053 18.1085 111.918 20.9739C112.783 23.8393 115.802 25.4591 118.66 24.5918Z" fill="#F7F7F9"/>
<path d="M117.098 25.1123C115.969 25.1124 114.865 24.7768 113.926 24.148C112.987 23.5191 112.255 22.6252 111.823 21.5793C111.39 20.5334 111.277 19.3825 111.497 18.2722C111.718 17.1618 112.261 16.1418 113.06 15.3413C113.858 14.5407 114.876 13.9955 115.983 13.7746C117.091 13.5537 118.239 13.667 119.282 14.1002C120.326 14.5334 121.217 15.267 121.845 16.2083C122.472 17.1496 122.807 18.2563 122.807 19.3884C122.805 20.9058 122.203 22.3606 121.133 23.4337C120.063 24.5067 118.612 25.1104 117.098 25.1123ZM117.098 14.2709C116.088 14.2707 115.101 14.5708 114.261 15.1332C113.422 15.6955 112.767 16.4949 112.381 17.4301C111.994 18.3654 111.893 19.3945 112.09 20.3874C112.287 21.3803 112.773 22.2924 113.487 23.0082C114.201 23.7241 115.111 24.2115 116.101 24.409C117.092 24.6065 118.119 24.505 119.052 24.1176C119.984 23.7301 120.782 23.074 121.343 22.2322C121.904 21.3904 122.203 20.4008 122.203 19.3884C122.201 18.0316 121.663 16.7309 120.706 15.7715C119.749 14.8121 118.451 14.2724 117.098 14.2709Z" fill="#F54617"/>
<path d="M143.831 144.977C145.831 145.15 149.301 145.431 152.036 145.552C153.68 145.624 154.627 145.463 155.172 145.244C155.172 145.306 155.172 145.364 155.167 145.418C155.16 145.558 155.101 145.69 155.001 145.789C154.902 145.888 154.77 145.947 154.63 145.953C151.052 146.158 147.465 146.162 143.887 145.964C143.818 145.961 143.751 145.939 143.693 145.902C143.634 145.865 143.587 145.814 143.554 145.753C143.521 145.692 143.505 145.623 143.506 145.554C143.507 145.485 143.526 145.417 143.561 145.357C143.642 145.224 143.732 145.097 143.831 144.977Z" fill="#F54617"/>
<path d="M152.036 145.552C149.298 145.431 145.831 145.15 143.831 144.977C145.797 142.559 152.036 140.929 152.036 140.929H153.795C155.007 142.681 155.183 144.348 155.169 145.241C154.627 145.463 153.68 145.624 152.036 145.552Z" fill="#F54617"/>
<path d="M154.094 138.045L153.929 141.317C153.921 141.489 153.853 141.654 153.737 141.782C153.621 141.91 153.464 141.994 153.293 142.019C152.849 142.086 152.396 142.048 151.969 141.909C151.819 141.86 151.684 141.771 151.58 141.651C151.476 141.531 151.406 141.386 151.377 141.23L150.807 138.045H154.094Z" fill="url(#paint0_linear_3645_856242)"/>
<path d="M174.545 148.75C175.412 148.593 175.804 148.01 175.969 147.386V147.403C176.034 147.725 175.996 148.06 175.859 148.359C175.723 148.658 175.495 148.906 175.21 149.067C174.493 149.459 173.711 149.525 173.107 149.493C172.787 149.479 172.476 149.385 172.201 149.221C171.926 149.057 171.696 148.827 171.531 148.552L171.525 148.543C172.182 148.962 173.099 149.011 174.545 148.75Z" fill="#F54617"/>
<path d="M170.457 139.054H171.91C174.126 138.995 175.514 145.043 175.969 147.386C175.804 148.009 175.412 148.593 174.545 148.75C173.099 149.011 172.182 148.962 171.529 148.543C170.333 146.504 169.74 143.518 169.455 141.776C169.131 139.794 170.457 139.054 170.457 139.054Z" fill="#F54617"/>
<path d="M171.724 136.018L172.53 139.235C172.578 139.427 172.559 139.629 172.477 139.809C172.394 139.989 172.254 140.135 172.077 140.224C171.626 140.456 170.99 140.701 170.406 140.63C170.272 140.612 170.145 140.557 170.04 140.471C169.936 140.386 169.857 140.272 169.813 140.143L168.628 136.758L171.724 136.018Z" fill="url(#paint1_linear_3645_856242)"/>
<path d="M143.339 93.6441C143.339 93.6441 150.55 138.83 150.431 139.078C150.431 139.078 152.423 139.986 154.594 139.194C154.594 139.194 153.942 115.039 152.414 105.777C152.414 105.777 164.72 127.367 168.628 138.125C168.628 138.125 170.667 137.882 172.354 136.768C172.354 136.768 159.103 97.9072 155.568 92.7334L143.339 93.6441Z" fill="#D6D6D6"/>
<path d="M152.126 105.542C152.166 105.542 152.205 105.531 152.239 105.509C152.286 105.479 152.32 105.431 152.332 105.376C152.344 105.321 152.334 105.263 152.304 105.215L149.609 100.903C149.594 100.878 149.574 100.857 149.55 100.841C149.526 100.824 149.499 100.813 149.47 100.807L147.487 100.407C147.432 100.397 147.376 100.409 147.33 100.44C147.283 100.472 147.252 100.52 147.241 100.575C147.23 100.63 147.24 100.686 147.271 100.733C147.301 100.78 147.349 100.813 147.403 100.825L149.296 101.208L151.942 105.445C151.962 105.475 151.989 105.5 152.022 105.517C152.054 105.534 152.09 105.543 152.126 105.542Z" fill="#F54617"/>
<path d="M110.249 49.3975C110.249 49.3975 115.115 50.4715 118.076 51.8435C118.661 52.1159 119.131 52.589 119.399 53.1777C120.284 55.1213 122.932 59.9952 128.067 62.3244C127.327 63.3083 126.137 65.3552 125.618 68.7956C122.533 66.4939 119.87 62.6504 118.592 56.347C118.592 56.347 117.619 56.8775 116.404 56.2862C115.763 55.9739 115.022 55.531 114.466 55.1821C113.909 54.8405 113.506 54.2972 113.338 53.665C113.127 52.8327 113.252 52.1003 113.252 51.313L110.75 50.5369C110.75 50.5369 109.998 50.2507 110.249 49.3975Z" fill="url(#paint2_linear_3645_856242)"/>
<path d="M125.617 68.7927C126.139 65.3523 127.327 63.3047 128.066 62.3214C131.257 63.766 135.407 64.2279 140.691 62.392C141.179 62.2236 141.687 62.1232 142.202 62.0934C145.016 61.9281 154.286 61.6263 161.957 64.1671C162.753 64.43 163.484 64.8582 164.104 65.4236C164.724 65.9891 165.218 66.6792 165.553 67.4488C167.628 72.2227 170.988 83.0949 161.661 88.5842C161.061 87.0858 160.307 85.6544 159.41 84.3134C160.912 81.7738 161.357 78.3027 158.693 73.7875C156.75 79.0488 155.838 86.7235 155.647 90.1209C155.585 91.2392 155.78 92.3569 156.218 93.3875L156.266 93.5006C156.288 93.5528 156.298 93.6091 156.296 93.6657C156.294 93.7222 156.279 93.7776 156.253 93.8279C156.228 93.8782 156.191 93.9223 156.146 93.9569C156.102 93.9916 156.05 94.016 155.995 94.0285C150.744 95.211 145.283 94.8896 143.652 94.7543C143.51 94.7428 143.376 94.6867 143.268 94.5941C143.161 94.5015 143.085 94.3772 143.052 94.2388C140.499 83.4542 140.493 76.0977 141.118 71.4466C138.728 71.9843 131.425 73.1257 125.617 68.7927Z" fill="#F54617"/>
<path d="M141.106 71.7386C141.157 71.7386 141.207 71.7197 141.246 71.6856C141.285 71.6515 141.31 71.6044 141.317 71.553C141.916 67.0123 143.137 65.0308 143.149 65.0112C143.177 64.9634 143.186 64.9066 143.173 64.8528C143.16 64.799 143.126 64.7523 143.08 64.7227C143.033 64.693 142.977 64.6827 142.923 64.6938C142.869 64.705 142.821 64.7368 142.79 64.7825C142.738 64.8648 141.508 66.849 140.894 71.4968C140.891 71.5247 140.893 71.5529 140.9 71.5801C140.907 71.6072 140.919 71.6326 140.936 71.6549C140.953 71.6772 140.975 71.6959 140.999 71.7099C141.023 71.7239 141.05 71.733 141.078 71.7366C141.087 71.7379 141.096 71.7386 141.106 71.7386Z" fill="url(#paint3_linear_3645_856242)"/>
<path d="M154.065 55.8105C154.065 55.8105 154.596 61.441 155.063 63.1063C155.098 63.229 155.09 63.3598 155.042 63.4777C154.993 63.5956 154.907 63.6937 154.796 63.7564C154.002 64.2137 152.098 64.9527 149.494 63.6734C149.288 63.5717 149.117 63.412 149 63.2139C148.883 63.0159 148.827 62.788 148.837 62.5582L149.067 57.1172L154.065 55.8105Z" fill="url(#paint4_linear_3645_856242)"/>
<path d="M148.953 48.6084C148.953 48.6084 147.253 52.5206 147.139 54.574C147.025 56.6274 146.584 57.9602 148.953 58.3731C151.321 58.786 153.319 57.6042 154.397 55.5586C154.397 55.5586 156.091 52.4069 155.711 51.1159C155.33 49.8249 148.953 48.6084 148.953 48.6084Z" fill="url(#paint5_linear_3645_856242)"/>
<path d="M153.587 54.088L153.452 54.0286C153.412 54.0106 153.375 53.9845 153.345 53.9519C153.315 53.9193 153.292 53.8809 153.277 53.839C153.262 53.7971 153.256 53.7526 153.259 53.7083C153.262 53.6639 153.274 53.6206 153.294 53.5811C153.628 52.9336 154.279 51.4512 153.438 51.1056C152.354 50.66 148.06 49.7819 147.133 48.2551C146.243 46.787 147.032 44.8917 148.218 44.3527C148.256 44.3348 148.299 44.332 148.339 44.345C148.378 44.358 148.412 44.3858 148.432 44.4226L148.53 44.6101C148.545 44.6386 148.568 44.662 148.596 44.6772C148.625 44.6924 148.657 44.6988 148.689 44.6955C148.721 44.6922 148.751 44.6793 148.776 44.6587C148.8 44.638 148.818 44.6104 148.827 44.5794C148.836 44.5495 148.852 44.5227 148.876 44.5022C148.899 44.4818 148.928 44.4686 148.958 44.4642C148.989 44.4599 149.02 44.4645 149.048 44.4777C149.077 44.4908 149.1 44.5119 149.117 44.5383C149.401 44.9956 150.17 45.7358 152.227 46.116C155.148 46.657 157.08 47.8422 157.128 49.8662C157.129 49.8949 157.137 49.9229 157.152 49.9472C157.168 49.9716 157.189 49.9914 157.214 50.0047C157.24 50.018 157.268 50.0243 157.297 50.023C157.325 50.0216 157.353 50.0126 157.377 49.9969C157.593 49.8662 157.938 49.8009 158.4 50.1929C159.202 50.8691 158.874 52.6239 157.114 54.0671C157.094 54.0826 157.078 54.1028 157.067 54.1258C157.056 54.1489 157.051 54.1743 157.051 54.1998C157.052 54.2254 157.059 54.2504 157.071 54.2728C157.084 54.2951 157.101 54.3142 157.122 54.3285C157.441 54.5362 157.917 55.0315 156.685 55.6913C155.411 56.3747 154.459 56.3185 154.093 56.2578C154.071 56.2543 154.05 56.2463 154.032 56.2343C154.013 56.2223 153.998 56.2067 153.985 56.1883C153.973 56.1699 153.965 56.1491 153.961 56.1274C153.957 56.1056 153.958 56.0833 153.963 56.0618L154.354 54.2827C154.359 54.2592 154.359 54.2348 154.353 54.2113C154.348 54.1878 154.337 54.1659 154.322 54.1471C154.307 54.1282 154.288 54.1131 154.266 54.1026C154.245 54.0922 154.221 54.0868 154.197 54.0867L153.587 54.088Z" fill="#D6D6D6"/>
<path d="M153.514 54.4637C153.514 54.4637 154.162 51.964 155.28 52.665C156.398 53.3661 154.7 55.4652 153.801 55.5587L153.514 54.4637Z" fill="url(#paint6_linear_3645_856242)"/>
<path d="M117.294 55.7639C117.334 55.7639 117.373 55.7524 117.407 55.7309C117.441 55.7093 117.469 55.6786 117.486 55.6421C117.503 55.6057 117.51 55.5651 117.505 55.525C117.5 55.4849 117.484 55.447 117.459 55.4156C117.275 55.1889 115.642 53.1877 115.013 52.831C114.784 52.7004 114.648 52.5697 114.618 52.4442C114.606 52.3758 114.616 52.3051 114.647 52.243L116.566 52.6291L117.653 53.5641C117.696 53.601 117.752 53.6192 117.808 53.6146C117.865 53.6101 117.918 53.5832 117.954 53.5399C117.991 53.4966 118.009 53.4404 118.005 53.3836C118 53.3269 117.973 53.2743 117.93 53.2374L116.801 52.2659C116.773 52.2419 116.74 52.2254 116.704 52.2182L114.58 51.7916C114.539 51.7835 114.496 51.7878 114.457 51.8038C114.418 51.8198 114.385 51.8469 114.361 51.8817C114.206 52.1137 114.154 52.3286 114.204 52.5396C114.262 52.7892 114.459 53.0055 114.803 53.2002C115.277 53.4687 116.642 55.0831 117.129 55.6828C117.148 55.7079 117.173 55.7282 117.202 55.7422C117.23 55.7562 117.262 55.7636 117.294 55.7639Z" fill="#F8A570"/>
<path d="M153.595 91.2893L146.085 91.3827L148.713 88.9C149.031 88.5988 149.441 88.4129 149.877 88.3719C150.312 88.3309 150.749 88.4373 151.118 88.674C151.623 88.9981 152.073 89.4006 152.453 89.8663C152.453 89.8663 157.137 88.1507 159.408 84.313C160.305 85.654 161.059 87.0854 161.659 88.5838C159.626 89.7814 156.987 90.7235 153.595 91.2893Z" fill="url(#paint7_linear_3645_856242)"/>
<path d="M152.788 92.2601H152.743L133.681 92.2392C133.565 92.249 133.447 92.2344 133.336 92.1963C133.225 92.1582 133.124 92.0974 133.037 92.0179C132.951 91.9383 132.882 91.8417 132.835 91.7341C132.788 91.6265 132.764 91.5103 132.764 91.3928C132.764 91.2753 132.788 91.1591 132.835 91.0515C132.882 90.9439 132.951 90.8473 133.037 90.7678C133.124 90.6882 133.225 90.6275 133.336 90.5894C133.447 90.5513 133.565 90.5366 133.681 90.5464L152.743 90.5673C152.955 90.5808 153.153 90.6731 153.3 90.826C153.447 90.9789 153.531 91.1814 153.537 91.3936C153.542 91.6058 153.468 91.8123 153.329 91.9725C153.19 92.1326 152.996 92.2348 152.786 92.2588L152.788 92.2601Z" fill="#D6D6D6"/>
<path d="M116.545 75.0933H132.421C132.992 75.0918 133.553 75.2526 134.037 75.5571C134.522 75.8617 134.91 76.2975 135.158 76.8142L142.497 92.2505H122.768C122.4 92.2516 122.041 92.1423 121.736 91.9366C121.431 91.7309 121.195 91.4384 121.058 91.0967L115.366 76.8129C115.291 76.6212 115.264 76.4139 115.287 76.2093C115.311 76.0046 115.384 75.8089 115.5 75.6391C115.617 75.4694 115.773 75.3308 115.955 75.2357C116.137 75.1405 116.34 75.0916 116.545 75.0933Z" fill="#D6D6D6"/>
<path d="M127.166 85.3128C127.821 85.0963 128.07 84.0624 127.722 83.0035C127.374 81.9445 126.561 81.2616 125.905 81.4781C125.25 81.6946 125.001 82.7286 125.349 83.7875C125.697 84.8464 126.511 85.5293 127.166 85.3128Z" fill="white"/>
<defs>
<linearGradient id="paint0_linear_3645_856242" x1="154.094" y1="140.048" x2="150.807" y2="140.048" gradientUnits="userSpaceOnUse">
<stop stop-color="#FEBBBA"/>
<stop offset="1" stop-color="#FF928E"/>
</linearGradient>
<linearGradient id="paint1_linear_3645_856242" x1="-11643" y1="14384.3" x2="-11406.2" y2="14384.3" gradientUnits="userSpaceOnUse">
<stop stop-color="#FEBBBA"/>
<stop offset="1" stop-color="#FF928E"/>
</linearGradient>
<linearGradient id="paint2_linear_3645_856242" x1="-38807.5" y1="35179.9" x2="-43522.4" y2="40830.7" gradientUnits="userSpaceOnUse">
<stop stop-color="#FEBBBA"/>
<stop offset="1" stop-color="#FF928E"/>
</linearGradient>
<linearGradient id="paint3_linear_3645_856242" x1="140.893" y1="68.2112" x2="143.183" y2="68.2112" gradientUnits="userSpaceOnUse">
<stop stop-color="#E1473D"/>
<stop offset="1" stop-color="#E9605A"/>
</linearGradient>
<linearGradient id="paint4_linear_3645_856242" x1="-16784.3" y1="17311.1" x2="-16486.1" y2="16170.2" gradientUnits="userSpaceOnUse">
<stop stop-color="#FEBBBA"/>
<stop offset="1" stop-color="#FF928E"/>
</linearGradient>
<linearGradient id="paint5_linear_3645_856242" x1="-22905.6" y1="17380.5" x2="-24318.4" y2="18339.3" gradientUnits="userSpaceOnUse">
<stop stop-color="#FEBBBA"/>
<stop offset="1" stop-color="#FF928E"/>
</linearGradient>
<linearGradient id="paint6_linear_3645_856242" x1="-5519.88" y1="5291.26" x2="-5909.94" y2="5502.38" gradientUnits="userSpaceOnUse">
<stop stop-color="#FEBBBA"/>
<stop offset="1" stop-color="#FF928E"/>
</linearGradient>
<linearGradient id="paint7_linear_3645_856242" x1="-39886" y1="14995.7" x2="-40329" y2="16459.4" gradientUnits="userSpaceOnUse">
<stop stop-color="#FEBBBA"/>
<stop offset="1" stop-color="#FF928E"/>
</linearGradient>
</defs>
</svg>
