<svg xmlns="http://www.w3.org/2000/svg" width="15" height="19" viewBox="0 0 15 19">
    <g fill="#B7BCD6">
        <path d="M6 15.318L7.5 17 9 15.318 7.5 12z"/>
        <path d="M12.049 10c-.866 1.022-2.074 1.748-3.446 2.005l1.255 3.19c.086.218.05.466-.093.651l-1.733 2.23c-.127.165-.324.261-.532.261-.208 0-.405-.096-.532-.26l-1.733-2.23c-.144-.186-.18-.434-.093-.652l1.255-3.19c-1.372-.257-2.58-.983-3.446-2.005C1.288 10.221 0 11.645 0 13.364v4.968c0 .177.07.347.197.472.126.126.297.196.476.196h13.654c.372 0 .673-.3.673-.669v-4.967c0-1.72-1.288-3.143-2.951-3.364z"/>
        <g>
            <path d="M4.56 5.963c1.185 0 1.855-.338 2.559-.963H2c.704.625 1.374.963 2.56.963zM.658 4H8.3l.658-1.6C9 2.36 9 2.28 9 2.24V1.08c0-.2-.164-.36-.329-.4L4.561 0h-.123L.328.68C.124.72 0 .88 0 1.08v1.16c0 .04 0 .12.041.16L.658 4zM4.75 1c.425 0 .75.325.75.75s-.325.75-.75.75S4 2.175 4 1.75 4.325 1 4.75 1z" transform="translate(3)"/>
            <path d="M.336 6.502l.784.424v.231c0 1.58.934 3.005 2.353 3.583l.336.116c.448.192.934.192 1.382 0l.336-.116c1.42-.578 2.353-2.003 2.353-3.583v-.23l.821-.425c.187-.077.299-.308.299-.5v-.424C9 5.27 8.739 5 8.44 5h-.598c-1.68 1.926-4.556 2.042-6.423.308-.112-.115-.224-.192-.299-.308H.56C.261 5 0 5.27 0 5.578v.424c0 .23.15.423.336.5z" transform="translate(3)"/>
        </g>
    </g>
</svg>
