<svg xmlns="http://www.w3.org/2000/svg" width="16" height="15" viewBox="0 0 16 15">
    <g fill="none" fill-rule="evenodd">
        <g fill="#109CF1" fill-rule="nonzero" stroke="#109CF1" stroke-width=".4">
            <g>
                <g>
                    <g>
                        <g>
                            <g>
                                <path d="M3.582 3.79l-.898.854C3.568 1.889 6.632.338 9.527 1.178c1.104.32 2.073.964 2.77 1.839l.794-.573C10.933-.269 6.87-.805 4.019 1.248c-1.182.85-2.021 2.061-2.378 3.43L.705 3.79 0 4.46 2.144 6.5 4.29 4.46l-.707-.67zM13.871 6.5l-2.129 2.037.7.67.902-.862c-.87 2.754-3.908 4.313-6.788 3.481-1.145-.33-2.144-1.013-2.843-1.942l-.804.553c.993 1.329 2.5 2.222 4.185 2.482.345.054.695.08 1.044.081 2.956-.001 5.529-1.933 6.233-4.68l.927.887.702-.67L13.871 6.5zm-.025 1.409l.041-.068.06.1-.1-.032z" transform="translate(-375 -556) translate(303 95) translate(1 15) translate(25 431) translate(46 16)"/>
                            </g>
                        </g>
                    </g>
                </g>
            </g>
        </g>
    </g>
</svg>
