<svg xmlns="http://www.w3.org/2000/svg" width="38" height="38" viewBox="0 0 38 38">
    <g fill="none" fill-rule="evenodd">
        <g fill="#156CE4" fill-rule="nonzero">
            <g>
                <g>
                    <g>
                        <g transform="translate(-96 -225) translate(53 182) translate(43 26) translate(0 17)">
                            <circle cx="17.19" cy="25.333" r="1"/>
                            <circle cx="17.19" cy="28.952" r="1"/>
                            <circle cx="17.19" cy="31.667" r="1"/>
                            <circle cx="17.19" cy="34.381" r="1"/>
                            <path d="M34.381 25.032c0-.333-.27-.603-.603-.603h-2.413c-.333 0-.603.27-.603.603v2.412c0 .334.27.604.603.604h2.413c.333 0 .603-.27.603-.604v-2.412zm-1.206 1.81h-1.207v-1.207h1.207v1.206zM33.778 30.762h-2.413c-.333 0-.603.27-.603.603v2.413c0 .333.27.603.603.603h2.413c.333 0 .603-.27.603-.603v-2.413c0-.333-.27-.603-.603-.603zm-.603 2.413h-1.207v-1.207h1.207v1.207zM28.048 25.032c0-.333-.27-.603-.604-.603h-2.412c-.333 0-.603.27-.603.603v2.412c0 .334.27.604.603.604h2.412c.334 0 .604-.27.604-.604v-2.412zm-1.207 1.81h-1.206v-1.207h1.206v1.206zM27.444 30.762h-2.412c-.333 0-.603.27-.603.603v2.413c0 .333.27.603.603.603h2.412c.334 0 .604-.27.604-.603v-2.413c0-.333-.27-.603-.604-.603zm-.603 2.413h-1.206v-1.207h1.206v1.207zM22.619 25.032c0-.333-.27-.603-.603-.603h-2.413c-.333 0-.603.27-.603.603v2.412c0 .334.27.604.603.604h2.413c.333 0 .603-.27.603-.604v-2.412zm-1.206 1.81h-1.207v-1.207h1.207v1.206zM22.016 30.762h-2.413c-.333 0-.603.27-.603.603v2.413c0 .333.27.603.603.603h2.413c.333 0 .603-.27.603-.603v-2.413c0-.333-.27-.603-.603-.603zm-.603 2.413h-1.207v-1.207h1.207v1.207z"/>
                            <circle cx="37.095" cy="29.857" r="1"/>
                            <path d="M37.703 21.82l-2.786-2.09-1.373-14.604c-.036-.381-.356-.673-.74-.673h-.742v-.742c0-2.046-1.664-3.711-3.71-3.711-1.212 0-2.34.597-3.027 1.565-.224-.053-.454-.08-.684-.08-1.086 0-2.068.594-2.586 1.508-.126-.016-.254-.024-.383-.024-.633 0-1.24.2-1.742.564-.586-.367-1.266-.564-1.97-.564-2.045 0-3.71 1.664-3.71 3.71 0 2.047 1.665 3.712 3.71 3.712.361 0 .717-.054 1.059-.156.494.977 1.513 1.64 2.653 1.64 1.206 0 2.255-.727 2.717-1.775.544.191 1.13.29 1.736.29.928 0 1.803-.235 2.53-.651 0 .012.003.023.005.034-.083.735-.794 8.341-.854 9.077l-1.978-1.483c-.225-.168-.526-.196-.777-.07-.252.126-.41.383-.41.664v2.969l-4.75-3.563c-.225-.168-.526-.196-.778-.07-.251.126-.41.383-.41.664v2.969l-1.484-1.114v-5.27c0-1.227-1-2.226-2.227-2.226H8.61c-1.227 0-2.226 1-2.226 2.227v1.262c-1.692.345-2.969 1.844-2.969 3.636v8.164H.742c-.41 0-.742.333-.742.743v8.906c0 .41.332.742.742.742h36.516c.41 0 .742-.332.742-.742v-4.082c0-.41-.332-.742-.742-.742s-.742.332-.742.742v3.34H14.25v-17.07L19 23.007c.225.168.526.196.777.07.252-.126.41-.383.41-.664v-2.969l4.75 3.563c.225.168.526.196.778.07.251-.126.41-.383.41-.664v-2.969l4.75 3.563c.225.168.526.196.777.07.252-.126.41-.383.41-.664v-2.969l4.454 3.34v3.711c0 .41.332.742.742.742s.742-.332.742-.742v-4.082c0-.234-.11-.453-.297-.594zM4.898 19.445c0-1.227 1-2.226 2.227-2.226 1.228 0 2.227.999 2.227 2.226v8.164H4.898v-8.164zm4.454 17.07H4.898v-4.453h4.454v4.454zm3.414 0h-1.93V31.32c0-.41-.332-.742-.742-.742H4.156c-.41 0-.742.332-.742.742v5.196h-1.93v-7.422h11.282v7.422zm2.968-17.812l-1.78-1.336c-.49-.366-1.188-.017-1.188.594v9.648h-1.93v-8.164c0-1.792-1.277-3.291-2.969-3.636v-1.262c0-.41.333-.742.742-.742h6.383c.41 0 .742.333.742.742v4.156zm16.953-6.828h-2.734l.14-1.484h2.455l.14 1.484zm-.558-5.938l.28 2.97h-2.177l.28-2.97h1.617zm-3.256 1.575c-.458.837-1.548 1.394-2.748 1.394-.537 0-1.048-.107-1.5-.31-.157-1.492-1.421-2.659-2.953-2.659-.41 0-.742.333-.742.743s.332.742.742.742c.874 0 1.546.758 1.481 1.572v.01c-.05.778-.7 1.387-1.481 1.387-.73 0-1.361-.543-1.468-1.264-.011-.072-.017-.146-.017-.22 0-.41-.332-.743-.742-.743-.364 0-.667.263-.73.61-.24.087-.495.132-.754.132-1.228 0-2.227-.999-2.227-2.226 0-1.228 1-2.227 2.227-2.227.561 0 1.097.21 1.51.59.148.137.347.208.548.195.202-.012.39-.106.521-.26.282-.334.695-.525 1.132-.525.188 0 .373.035.548.104.41.162.872-.068.988-.495.175-.644.764-1.093 1.433-1.093.807 0 1.484.65 1.484 1.484 0 .41.332.742.742.742s.742-.332.742-.742c0-.846-.353-1.63-.954-2.182.417-.49 1.036-.787 1.697-.787 1.227 0 2.226 1 2.226 2.227v.742h-.742c-.383 0-.703.292-.739.673l-.224 2.386zm2.893 9.855c-.225-.168-.526-.196-.778-.07-.251.126-.41.383-.41.664v2.969l-1.38-1.035.615-6.536h3.014l.486 5.169-1.547-1.16z"/>
                        </g>
                    </g>
                </g>
            </g>
        </g>
    </g>
</svg>
