<svg xmlns="http://www.w3.org/2000/svg" width="14" height="18" viewBox="0 0 14 18">
    <path fill="#109CF1" d="M1.925 0h10.15C13.137 0 14 .925 14 2.063v13.874C14 17.075 13.137 18 12.075 18H1.925C.863 18 0 17.075 0 15.937V2.063C0 .925.863 0 1.925 0zm6.629 14.04c-.205.22-.205.576 0 .796.102.11.237.164.371.164s.269-.055.371-.165l.504-.54.504.54c.102.11.237.165.371.165s.269-.055.371-.165c.205-.22.205-.576 0-.796l-.503-.539.504-.54c.205-.22.205-.576 0-.796-.205-.22-.538-.22-.743 0l-.504.54-.504-.54c-.205-.22-.538-.22-.743 0-.205.22-.205.576 0 .796l.504.54-.503.54zm.371-4.477h.35v.374c0 .311.235.563.525.563.29 0 .525-.252.525-.563v-.374h.35c.29 0 .525-.253.525-.563 0-.31-.235-.563-.525-.563h-.35v-.374c0-.311-.235-.563-.525-.563-.29 0-.525.252-.525.563v.374h-.35c-.29 0-.525.253-.525.563 0 .31.235.563.525.563zM3.325 15h1.75c.29 0 .525-.252.525-.563 0-.31-.235-.562-.525-.562h-1.75c-.29 0-.525.252-.525.563 0 .31.235.562.525.562zm0-1.875h1.75c.29 0 .525-.252.525-.563 0-.31-.235-.562-.525-.562h-1.75c-.29 0-.525.252-.525.563 0 .31.235.562.525.562zm0-3.375h1.75c.29 0 .525-.252.525-.563 0-.31-.235-.562-.525-.562h-1.75c-.29 0-.525.252-.525.563 0 .31.235.562.525.562zM2.1 4.687C2.1 5.412 2.65 6 3.325 6h7.35c.675 0 1.225-.589 1.225-1.313V3.563c0-.723-.55-1.312-1.225-1.312h-7.35c-.675 0-1.225.589-1.225 1.313v1.124z"/>
</svg>
