<svg xmlns="http://www.w3.org/2000/svg" width="12" height="15" viewBox="0 0 12 15">
    <path fill="#B7BCD6" d="M1.65 0h8.7C11.26 0 12 .77 12 1.719V13.28C12 14.23 11.26 15 10.35 15h-8.7C.74 15 0 14.23 0 13.281V1.72C0 .77.74 0 1.65 0zm5.682 11.7c-.176.183-.176.48 0 .663.088.091.203.137.318.137.115 0 .23-.046.318-.137l.432-.45.432.45c.088.091.203.137.318.137.115 0 .23-.046.318-.137.176-.184.176-.48 0-.664l-.431-.449.432-.45c.175-.183.175-.48 0-.663-.176-.183-.461-.183-.637 0l-.432.45-.432-.45c-.176-.183-.46-.183-.637 0-.175.183-.175.48 0 .663l.432.45-.431.45zm.318-3.731h.3v.312c0 .259.202.469.45.469s.45-.21.45-.469V7.97h.3c.248 0 .45-.21.45-.469s-.202-.469-.45-.469h-.3V6.72c0-.259-.202-.469-.45-.469s-.45.21-.45.469v.312h-.3c-.248 0-.45.21-.45.469s.202.469.45.469zM2.85 12.5h1.5c.248 0 .45-.21.45-.469 0-.258-.202-.469-.45-.469h-1.5c-.248 0-.45.21-.45.47 0 .258.202.468.45.468zm0-1.563h1.5c.248 0 .45-.21.45-.468 0-.259-.202-.469-.45-.469h-1.5c-.248 0-.45.21-.45.469 0 .258.202.469.45.469zm0-2.812h1.5c.248 0 .45-.21.45-.469 0-.258-.202-.468-.45-.468h-1.5c-.248 0-.45.21-.45.468 0 .259.202.469.45.469zM1.8 3.906C1.8 4.51 2.271 5 2.85 5h6.3c.579 0 1.05-.49 1.05-1.094V2.97c0-.603-.471-1.094-1.05-1.094h-6.3c-.579 0-1.05.49-1.05 1.094v.937z"/>
</svg>
