<svg xmlns="http://www.w3.org/2000/svg" width="12" height="15" viewBox="0 0 12 15">
    <g fill="none" fill-rule="evenodd">
        <g fill="#FFF" fill-rule="nonzero">
            <g>
                <g>
                    <g>
                        <g>
                            <g>
                                <path d="M10.35 0h-8.7C.74 0 0 .77 0 1.719V13.28C0 14.23.74 15 1.65 15h8.7c.91 0 1.65-.77 1.65-1.719V1.72C12 .77 11.26 0 10.35 0zM4.668 11.7c.176.183.176.48 0 .663-.088.091-.203.137-.318.137-.115 0-.23-.046-.318-.137l-.432-.45-.432.45c-.088.091-.203.137-.318.137-.115 0-.23-.046-.318-.137-.176-.184-.176-.48 0-.664l.431-.449-.432-.45c-.175-.183-.175-.48 0-.663.176-.183.461-.183.637 0l.432.45.432-.45c.176-.183.46-.183.637 0 .175.183.175.48 0 .663l-.432.45.431.45zM4.35 7.969h-.3v.312c0 .259-.202.469-.45.469s-.45-.21-.45-.469V7.97h-.3c-.248 0-.45-.21-.45-.469s.202-.469.45-.469h.3V6.72c0-.259.202-.469.45-.469s.45.21.45.469v.312h.3c.248 0 .45.21.45.469s-.202.469-.45.469zm4.8 4.531h-1.5c-.248 0-.45-.21-.45-.469 0-.258.202-.469.45-.469h1.5c.248 0 .45.21.45.47 0 .258-.202.468-.45.468zm0-1.563h-1.5c-.248 0-.45-.21-.45-.468 0-.259.202-.469.45-.469h1.5c.248 0 .45.21.45.469 0 .258-.202.469-.45.469zm0-2.812h-1.5c-.248 0-.45-.21-.45-.469 0-.258.202-.468.45-.468h1.5c.248 0 .45.21.45.468 0 .259-.202.469-.45.469zm1.05-4.219C10.2 4.51 9.729 5 9.15 5h-6.3C2.271 5 1.8 4.51 1.8 3.906V2.97c0-.603.471-1.094 1.05-1.094h6.3c.579 0 1.05.49 1.05 1.094v.937z" transform="translate(-699 -756) translate(312 405) translate(0 192) translate(60 148) translate(327) translate(0 11) matrix(-1 0 0 1 12 0)"/>
                            </g>
                        </g>
                    </g>
                </g>
            </g>
        </g>
    </g>
</svg>
