<svg xmlns="http://www.w3.org/2000/svg" width="18" height="18" viewBox="0 0 18 18">
    <g fill="#B7BCD6">
        <path d="M16.593 11v4.846c0 .396-.316.718-.704.718H11V18h4.89c1.163 0 2.11-.966 2.11-2.154V11h-1.407zM15.89 0H11v1.421h4.89c.387 0 .703.32.703.711V7H18V2.132C18 .956 17.053 0 15.89 0z"/>
        <path d="M18 8.802L12.729 8.802 14.651 6.965 13.642 6 10 9.482 13.639 13 14.654 12.041 12.716 10.167 18 10.167zM2.11 16.564c-.387 0-.703-.322-.703-.718V11H0v4.846C0 17.034.947 18 2.11 18H7v-1.436H2.11zM2.11 0C.948 0 0 .956 0 2.132V7h1.407V2.132c0-.392.316-.71.704-.71H7V0H2.11z"/>
        <path d="M4.358 6L3.349 6.965 5.271 8.802 0 8.802 0 10.167 5.284 10.167 3.346 12.041 4.361 13 8 9.482z"/>
    </g>
</svg>
