<svg xmlns="http://www.w3.org/2000/svg" width="33" height="33" viewBox="0 0 33 33">
    <g fill="none" fill-rule="evenodd">
        <g fill="#156CE4" fill-rule="nonzero">
            <g>
                <g>
                    <g>
                        <g>
                            <path d="M12.5 20C9.462 20 7 22.462 7 25.5S9.462 31 12.5 31s5.5-2.462 5.5-5.5c-.003-3.036-2.464-5.497-5.5-5.5zm0 9.9c-2.43 0-4.4-1.97-4.4-4.4 0-2.43 1.97-4.4 4.4-4.4 2.43 0 4.4 1.97 4.4 4.4-.003 2.429-1.971 4.397-4.4 4.4z" transform="translate(-1240 -226) translate(53 182) translate(1140) translate(47 26) translate(0 18)"/>
                            <path d="M12.5 23.75c.763 0 1.25.345 1.25.583H15c0-.829-.787-1.5-1.875-1.691V22h-1.25v.642c-1.088.19-1.875.861-1.875 1.691 0 .982 1.098 1.75 2.5 1.75.763 0 1.25.346 1.25.584s-.487.583-1.25.583-1.25-.345-1.25-.583H10c0 .829.787 1.5 1.875 1.691V29h1.25v-.642c1.088-.19 1.875-.861 1.875-1.691 0-.982-1.098-1.75-2.5-1.75-.763 0-1.25-.346-1.25-.584s.487-.583 1.25-.583z" transform="translate(-1240 -226) translate(53 182) translate(1140) translate(47 26) translate(0 18)"/>
                            <path d="M28.868 31.9H5.094V18.7h9.057c.938 0 1.698-.739 1.698-1.65V3.3h6.226v6.6h6.793v7.7H30V9.122L22.876 2.2h-7.027v-.55c0-.911-.76-1.65-1.698-1.65H1.698C.76 0 0 .739 0 1.65v15.4c0 .911.76 1.65 1.698 1.65h2.264V33H30v-7.7h-1.132v6.6zm-5.66-27.822l4.86 4.722h-4.86V4.078zM1.132 17.05V1.65c0-.304.254-.55.566-.55h12.453c.313 0 .566.246.566.55v15.4c0 .304-.253.55-.566.55H1.698c-.312 0-.566-.246-.566-.55z" transform="translate(-1240 -226) translate(53 182) translate(1140) translate(47 26) translate(0 18)"/>
                            <path d="M18 14L19 14 19 15 18 15zM19 14L26 14 26 15 19 15zM18 11L19 11 19 12 18 12zM19 11L26 11 26 12 19 12zM18 16L19 16 19 17 18 17zM19 16L26 16 26 17 19 17zM18 18L19 18 19 19 18 19zM19 18L26 18 26 19 19 19zM14 2H1v3h13V2zm-1.182 2.143H2.182V2.857h10.636v1.286zM4 6H3c-.552 0-1 .448-1 1v1c0 .552.448 1 1 1h1c.552 0 1-.448 1-1V7c0-.552-.448-1-1-1zM3 8V7h1v1H3zM8 6H7c-.552 0-1 .448-1 1v1c0 .552.448 1 1 1h1c.552 0 1-.448 1-1V7c0-.552-.448-1-1-1zM7 8V7h1v1H7zM12 6h-1c-.552 0-1 .448-1 1v1c0 .552.448 1 1 1h1c.552 0 1-.448 1-1V7c0-.552-.448-1-1-1zm-1 2V7h1v1h-1zM4 10H3c-.552 0-1 .448-1 1v1c0 .552.448 1 1 1h1c.552 0 1-.448 1-1v-1c0-.552-.448-1-1-1zm-1 2v-1h1v1H3zM8 10H7c-.552 0-1 .448-1 1v1c0 .552.448 1 1 1h1c.552 0 1-.448 1-1v-1c0-.552-.448-1-1-1zm-1 2v-1h1v1H7zM12 10h-1c-.552 0-1 .448-1 1v1c0 .552.448 1 1 1h1c.552 0 1-.448 1-1v-1c0-.552-.448-1-1-1zm-1 2v-1h1v1h-1zM4 14H3c-.552 0-1 .448-1 1v1c0 .552.448 1 1 1h1c.552 0 1-.448 1-1v-1c0-.552-.448-1-1-1zm-1 2v-1h1v1H3zM8 14H7c-.552 0-1 .448-1 1v1c0 .552.448 1 1 1h1c.552 0 1-.448 1-1v-1c0-.552-.448-1-1-1zm-1 2v-1h1v1H7zM12 14h-1c-.552 0-1 .448-1 1v1c0 .552.448 1 1 1h1c.552 0 1-.448 1-1v-1c0-.552-.448-1-1-1zm-1 2v-1h1v1h-1zM32.507 17.477c-.665-.636-1.713-.636-2.378 0L20.517 27.1c-.047.047-.085.102-.112.162l-1.354 2.942c-.098.214-.053.466.113.631.166.167.418.212.63.114l2.94-1.355c.06-.028.115-.066.162-.113l9.611-9.622c.657-.658.657-1.724 0-2.382zM22.173 28.616l-1.469.677.677-1.47 7.167-7.176.792.794-7.167 7.175zm7.962-7.971l-.793-.793.393-.394.793.794-.393.393zm1.581-1.583l-.396.397-.793-.794.397-.397c.221-.212.57-.212.792 0 .219.22.219.575 0 .794z" transform="translate(-1240 -226) translate(53 182) translate(1140) translate(47 26) translate(0 18)"/>
                        </g>
                    </g>
                </g>
            </g>
        </g>
    </g>
</svg>
