<svg xmlns="http://www.w3.org/2000/svg" width="23" height="22" viewBox="0 0 23 22">
    <g fill="#FFF" stroke="#FFF">
        <path d="M17.074 2.853h-4.652c-.059 0-.115-.025-.155-.07L10.579.94C10.03.34 9.259 0 8.448 0h-5.56C1.292.002.001 1.292 0 2.885v16.23C.002 20.708 1.293 21.998 2.887 22h17.226c1.594-.002 2.885-1.292 2.887-2.885V8.719c-.002-1.593-1.293-2.884-2.887-2.885h-.152v-.096c-.002-1.593-1.294-2.883-2.887-2.885h0zM3.148 21.183h-.26c-1.144-.001-2.07-.926-2.07-2.068V2.885c0-1.142.926-2.067 2.07-2.068h5.56c.58 0 1.135.244 1.527.673l1.688 1.845c.195.213.47.334.759.334h4.651c1.143.002 2.069.927 2.07 2.069v.096H8.105c-1.594.001-2.885 1.292-2.887 2.885v10.396c-.001 1.142-.927 2.067-2.07 2.068zM20.113 6.65c1.143.002 2.068.927 2.07 2.069v10.396c-.002 1.142-.927 2.067-2.07 2.068H5.159c.56-.542.876-1.289.876-2.068V8.719c.001-1.142.927-2.067 2.07-2.069h12.008z"/>
        <path d="M11.43 13.93h2.64v2.64c0 .238.193.43.43.43s.43-.192.43-.43v-2.64h2.64c.238 0 .43-.193.43-.43s-.192-.43-.43-.43h-2.64v-2.64c0-.238-.193-.43-.43-.43s-.43.192-.43.43v2.64h-2.64c-.237 0-.43.193-.43.43s.193.43.43.43h0z"/>
    </g>
</svg>
