<svg xmlns="http://www.w3.org/2000/svg" width="32" height="32" viewBox="0 0 32 32">
    <g fill="none" fill-rule="evenodd">
        <g>
            <g>
                <g>
                    <g>
                        <g transform="translate(-1025 -1032) translate(58 268) translate(661 764) translate(306)">
                            <rect width="32" height="32" fill="#EFF0F6" rx="16"/>
                            <g fill="#B7BCD6">
                                <g>
                                    <path d="M2.305 12.922l6.616-6.234c.105-.1.105-.276 0-.375L2.305.078C2.252.028 2.181 0 2.106 0c-.074 0-.146.028-.198.078L.082 1.798C.027 1.85 0 1.918 0 1.985c0 .068.027.136.082.187L4.674 6.5.082 10.828c-.105.1-.105.275 0 .375l1.826 1.72c.11.103.288.103.397 0z" transform="translate(12 9)"/>
                                </g>
                            </g>
                        </g>
                    </g>
                </g>
            </g>
        </g>
    </g>
</svg>
