<svg xmlns="http://www.w3.org/2000/svg" width="20" height="21" viewBox="0 0 20 21">
    <g fill="none" fill-rule="evenodd">
        <g fill="#109CF1" fill-rule="nonzero">
            <g>
                <g>
                    <g>
                        <g>
                            <path stroke="#109CF1" stroke-width=".5" d="M19.565 4.922h-8.26V.41c0-.226-.195-.41-.435-.41H.435C.195 0 0 .184 0 .41v20.18c0 .226.195.41.435.41H19.565c.24 0 .435-.184.435-.41V5.332c0-.226-.195-.41-.435-.41zm-8.26.82h7.825v10.336h-7.826V5.742zM4.347 20.18v-3.282h2.609v3.282h-2.61zm3.043-4.102H3.913c-.24 0-.435.184-.435.41v3.692H.87V.82h9.565v19.36H7.826v-3.692c0-.226-.195-.41-.435-.41zm3.913 4.102v-3.282h7.826v3.282h-7.826z" transform="translate(-825 -700) translate(303 91) translate(522 609)"/>
                            <path d="M6.071 4.2h.715c.197 0 .357-.157.357-.35v-.7c0-.193-.16-.35-.357-.35H6.07c-.197 0-.357.157-.357.35v.7c0 .193.16.35.357.35zM6.071 7h.715c.197 0 .357-.157.357-.35v-.7c0-.193-.16-.35-.357-.35H6.07c-.197 0-.357.157-.357.35v.7c0 .193.16.35.357.35zM6.071 9.8h.715c.197 0 .357-.157.357-.35v-.7c0-.193-.16-.35-.357-.35H6.07c-.197 0-.357.157-.357.35v.7c0 .193.16.35.357.35zM6.071 12.6h.715c.197 0 .357-.157.357-.35v-.7c0-.193-.16-.35-.357-.35H6.07c-.197 0-.357.157-.357.35v.7c0 .193.16.35.357.35zM6.071 15.4h.715c.197 0 .357-.157.357-.35v-.7c0-.193-.16-.35-.357-.35H6.07c-.197 0-.357.157-.357.35v.7c0 .193.16.35.357.35zM3.214 4.2h.715c.197 0 .357-.157.357-.35v-.7c0-.193-.16-.35-.357-.35h-.715c-.197 0-.357.157-.357.35v.7c0 .193.16.35.357.35zM3.214 7h.715c.197 0 .357-.157.357-.35v-.7c0-.193-.16-.35-.357-.35h-.715c-.197 0-.357.157-.357.35v.7c0 .193.16.35.357.35zM3.214 9.8h.715c.197 0 .357-.157.357-.35v-.7c0-.193-.16-.35-.357-.35h-.715c-.197 0-.357.157-.357.35v.7c0 .193.16.35.357.35zM3.214 12.6h.715c.197 0 .357-.157.357-.35v-.7c0-.193-.16-.35-.357-.35h-.715c-.197 0-.357.157-.357.35v.7c0 .193.16.35.357.35zM3.214 15.4h.715c.197 0 .357-.157.357-.35v-.7c0-.193-.16-.35-.357-.35h-.715c-.197 0-.357.157-.357.35v.7c0 .193.16.35.357.35zM9.643 2.8h-.714c-.198 0-.358.157-.358.35v.7c0 .193.16.35.358.35h.714c.197 0 .357-.157.357-.35v-.7c0-.193-.16-.35-.357-.35zM9.643 5.6h-.714c-.198 0-.358.157-.358.35v.7c0 .193.16.35.358.35h.714C9.84 7 10 6.843 10 6.65v-.7c0-.193-.16-.35-.357-.35zM9.643 8.4h-.714c-.198 0-.358.157-.358.35v.7c0 .193.16.35.358.35h.714c.197 0 .357-.157.357-.35v-.7c0-.193-.16-.35-.357-.35zM9.643 11.2h-.714c-.198 0-.358.157-.358.35v.7c0 .193.16.35.358.35h.714c.197 0 .357-.157.357-.35v-.7c0-.193-.16-.35-.357-.35zM9.643 14h-.714c-.198 0-.358.157-.358.35v.7c0 .193.16.35.358.35h.714c.197 0 .357-.157.357-.35v-.7c0-.193-.16-.35-.357-.35zM16.786 8.4h-.715c-.197 0-.357.157-.357.35v.7c0 .193.16.35.357.35h.715c.197 0 .357-.157.357-.35v-.7c0-.193-.16-.35-.357-.35zM16.786 11.2h-.715c-.197 0-.357.157-.357.35v.7c0 .193.16.35.357.35h.715c.197 0 .357-.157.357-.35v-.7c0-.193-.16-.35-.357-.35zM16.786 14h-.715c-.197 0-.357.157-.357.35v.7c0 .193.16.35.357.35h.715c.197 0 .357-.157.357-.35v-.7c0-.193-.16-.35-.357-.35zM13.929 8.4h-.715c-.197 0-.357.157-.357.35v.7c0 .193.16.35.357.35h.715c.197 0 .357-.157.357-.35v-.7c0-.193-.16-.35-.357-.35zM13.929 11.2h-.715c-.197 0-.357.157-.357.35v.7c0 .193.16.35.357.35h.715c.197 0 .357-.157.357-.35v-.7c0-.193-.16-.35-.357-.35zM13.929 14h-.715c-.197 0-.357.157-.357.35v.7c0 .193.16.35.357.35h.715c.197 0 .357-.157.357-.35v-.7c0-.193-.16-.35-.357-.35z" transform="translate(-825 -700) translate(303 91) translate(522 609)"/>
                        </g>
                    </g>
                </g>
            </g>
        </g>
    </g>
</svg>
