<svg width="14" height="14" xmlns="http://www.w3.org/2000/svg" xmlns:xlink="http://www.w3.org/1999/xlink">
    <defs>
        <filter x="-.6%" y="-.9%" width="101.2%" height="102%" filterUnits="objectBoundingBox" id="a">
            <feOffset dy="1" in="SourceAlpha" result="shadowOffsetOuter1"/>
            <feGaussianBlur stdDeviation="2.5" in="shadowOffsetOuter1" result="shadowBlurOuter1"/>
            <feComposite in="shadowBlurOuter1" in2="SourceAlpha" operator="out" result="shadowBlurOuter1"/>
            <feColorMatrix values="0 0 0 0 0.156862745 0 0 0 0 0.180392157 0 0 0 0 0.231372549 0 0 0 0.183894231 0" in="shadowBlurOuter1"/>
        </filter>
        <rect id="b" x="0" y="0" width="1305" height="810" rx="4"/>
    </defs>
    <g fill="none" fill-rule="evenodd">
        <path fill="#FFF" d="M-1079-375H510v871h-1589z"/>
        <path d="M-788-376H859v3380H-788z" fill="#EFF8FE" opacity=".604"/>
        <g transform="translate(-775 -220)">
            <use fill="#000" filter="url(#a)" xlink:href="#b"/>
            <rect stroke="#FFF" stroke-linejoin="square" fill="#FFF" x=".5" y=".5" width="1304" height="809" rx="4"/>
        </g>
        <g transform="translate(-755 -43)">
            <rect stroke-opacity=".332" stroke="#109CF1" opacity=".65" stroke-linecap="square" width="1167" height="129" rx="4"/>
            <g fill="#109CF1" fill-rule="nonzero">
                <path d="m762.189 43.994-6.063-.981a.936.936 0 0 0-.784.23 1.08 1.08 0 0 0-.342.787v12.382c0 .324.248.588.552.588h1.793v-3.085c0-.57.43-1.029.965-1.029h1.38c.535 0 .965.459.965 1.029V57H763V45.011c0-.505-.342-.934-.811-1.017zm-4.155 7.57h-.827c-.229 0-.414-.198-.414-.44 0-.244.185-.442.414-.442h.827c.229 0 .414.198.414.441s-.185.44-.414.44zm0-1.763h-.827c-.229 0-.414-.198-.414-.441s.185-.44.414-.44h.827c.229 0 .414.197.414.44s-.185.44-.414.44zm0-1.763h-.827c-.229 0-.414-.198-.414-.441s.185-.44.414-.44h.827c.229 0 .414.197.414.44s-.185.44-.414.44zm0-1.763h-.827c-.229 0-.414-.198-.414-.441s.185-.44.414-.44h.827c.229 0 .414.197.414.44s-.185.44-.414.44zm2.76 5.289h-.828c-.229 0-.414-.198-.414-.44 0-.244.185-.442.414-.442h.827c.229 0 .414.198.414.441s-.185.44-.414.44zm0-1.763h-.828c-.229 0-.414-.198-.414-.441s.185-.44.414-.44h.827c.229 0 .414.197.414.44s-.185.44-.414.44zm0-1.763h-.828c-.229 0-.414-.198-.414-.441s.185-.44.414-.44h.827c.229 0 .414.197.414.44s-.185.44-.414.44zm0-1.763h-.828c-.229 0-.414-.198-.414-.441s.185-.44.414-.44h.827c.229 0 .414.197.414.44s-.185.44-.414.44zM768.188 49.814 764 49v8h3.97c.568 0 1.03-.429 1.03-.956v-5.296c0-.451-.331-.835-.812-.934zm-1.394 5.548h-.882c-.244 0-.441-.184-.441-.41 0-.226.197-.41.44-.41h.883c.244 0 .441.184.441.41 0 .226-.197.41-.44.41zm0-1.639h-.882c-.244 0-.441-.183-.441-.41 0-.225.197-.409.44-.409h.883c.244 0 .441.184.441.41 0 .226-.197.41-.44.41zm0-1.638h-.882c-.244 0-.441-.184-.441-.41 0-.226.197-.41.44-.41h.883c.244 0 .441.184.441.41 0 .226-.197.41-.44.41z"/>
            </g>
        </g>
    </g>
</svg>
