<svg xmlns="http://www.w3.org/2000/svg" width="10" height="15" viewBox="0 0 10 15">
    <g fill="none" fill-rule="evenodd">
        <g fill="#B7BCD6" fill-rule="nonzero">
            <g>
                <g>
                    <g>
                        <g>
                            <g>
                                <path d="M9.44 6.366h-.137l.265-1.943c.14-1.03-.126-2.054-.75-2.883C8.192.712 7.284.178 6.26.036 4.965-.143 3.676.345 2.816 1.34c-.264.305-.232.769.071 1.035.304.266.764.234 1.029-.072.536-.62 1.339-.924 2.148-.813 1.316.182 2.241 1.408 2.06 2.734l-.292 2.142H.561c-.31 0-.561.253-.561.564v7.506c0 .311.25.564.56.564h8.88c.31 0 .56-.253.56-.564V6.93c0-.311-.251-.564-.56-.564zM5.66 11.99v2.087H4.29v-2.144c-.123-.156-.198-.354-.198-.57 0-.504.407-.913.908-.913.501 0 .908.41.908.914 0 .242-.095.462-.248.626z" transform="translate(-553 -371) translate(337 351) translate(29 19) translate(187 1)"/>
                            </g>
                        </g>
                    </g>
                </g>
            </g>
        </g>
    </g>
</svg>
