<svg xmlns="http://www.w3.org/2000/svg" width="13" height="19" viewBox="0 0 13 19">
    <g fill="none" fill-rule="evenodd">
        <g fill="#FFF" fill-rule="nonzero">
            <g>
                <g>
                    <g>
                        <g>
                            <g>
                                <g>
                                    <path d="M12.27 8.064h-.175l.344-2.461c.182-1.306-.164-2.602-.977-3.652C10.65.901 9.47.225 8.14.046 6.454-.18 4.78.436 3.66 1.697c-.343.387-.301.974.093 1.311.395.337.994.296 1.337-.09.697-.787 1.741-1.172 2.793-1.03 1.711.23 2.913 1.783 2.679 3.462l-.38 2.714H.73c-.403 0-.729.32-.729.714v9.507c0 .395.326.715.729.715H12.27c.403 0 .729-.32.729-.715V8.78c0-.395-.326-.715-.73-.715zm-4.912 7.123v2.643h-1.78v-2.715c-.161-.198-.258-.448-.258-.721 0-.64.528-1.157 1.18-1.157.651 0 1.18.518 1.18 1.157 0 .307-.123.585-.322.793z" transform="translate(-1018 -195) translate(305 97) translate(561 1) translate(152 97)"/>
                                </g>
                            </g>
                        </g>
                    </g>
                </g>
            </g>
        </g>
    </g>
</svg>
