<svg width="430" height="322" viewBox="0 0 430 322" fill="none" xmlns="http://www.w3.org/2000/svg">
<path opacity="0.24" d="M426.784 231.694C424.941 238.189 422.132 244.369 418.45 250.025C411.453 260.835 401.494 269.57 389.959 275.917C373.894 284.727 366.311 301.785 348.315 307.876C336.07 312.008 322.868 312.14 309.963 311.636C290.048 310.85 270.214 308.641 250.612 305.024C225.52 300.405 199.694 293.454 174.883 299.438C157.819 303.529 142.703 313.487 125.813 318.198C111.497 322.206 96.3889 322.388 81.5368 321.677C54.6213 320.404 23.9268 313.727 11.1539 289.967C8.7568 285.462 7.08592 280.606 6.20321 275.578C3.72785 262.149 6.1042 247.579 9.24791 234.025C13.5303 215.413 19.1494 196.149 14.7927 177.538C11.6655 163.893 3.4143 151.835 0.82342 138.075C-0.986884 128.239 0.203507 118.084 4.23942 108.935C10.8404 94.1332 24.2321 83.4722 38.4242 75.7284C52.6163 67.9847 68.0295 62.6045 82.1556 54.7616C110.54 39.0592 133.858 13.6627 164.874 4.22475C189.842 -3.37024 216.857 0.365274 242.105 6.8611C267.354 13.3569 292.083 22.4974 317.959 25.7949C344.643 29.175 373.918 26.8114 395.966 42.2741C414.267 55.117 423.261 77.811 426.182 100.001C429.103 122.191 426.916 144.678 427.873 167.017C428.838 188.67 432.692 210.851 426.784 231.694Z" fill="#EB5E13" fill-opacity="0.6"/>
<path opacity="0.51" d="M419.16 249.908C412.153 260.736 402.179 269.485 390.628 275.843C374.54 284.667 366.946 301.752 348.924 307.853C336.662 311.992 323.441 312.124 310.518 311.619C290.574 310.832 270.711 308.619 251.082 304.997C225.954 300.37 200.091 293.408 175.244 299.401C158.156 303.499 143.019 313.474 126.104 318.192C111.768 322.207 96.6383 322.389 81.7649 321.677C54.811 320.402 24.0727 313.714 11.2815 289.915C8.88097 285.403 7.20771 280.539 6.32373 275.503C30.7657 266.323 68.5111 273.922 93.6637 275.454C202.43 282.067 310.915 246.216 419.16 249.908Z" fill="#EB5E13"/>
<path opacity="0.37" d="M64.5903 303.006C88.2887 303.006 107.5 300.171 107.5 296.674C107.5 293.177 88.2887 290.343 64.5903 290.343C40.892 290.343 21.6807 293.177 21.6807 296.674C21.6807 300.171 40.892 303.006 64.5903 303.006Z" fill="url(#paint0_linear_9342_223838)"/>
<path d="M54.2822 287.732L54.2017 292.637C55.8335 293.15 57.5584 293.193 59.2096 292.761C61.625 291.992 63.2353 288.642 63.2353 288.642L62.9937 286.725L54.2822 287.732Z" fill="#F5C7C8"/>
<path d="M53.3085 293.03C53.2597 293.739 53.3869 294.449 53.6786 295.095C54.212 295.913 55.0262 296.503 55.965 296.753C57.6712 297.258 59.4424 297.503 61.2203 297.483C63.9919 297.582 66.7635 297.599 69.5269 297.557C70.7687 297.557 72.208 297.383 72.8824 296.339C73.3847 295.349 73.224 294.149 72.4794 293.329C71.7332 292.545 70.8306 291.929 69.8312 291.521L64.6663 288.968C64.2737 288.741 63.8405 288.594 63.3915 288.537C62.3717 288.479 61.5575 289.308 60.7269 289.905C59.3622 290.87 57.6965 291.303 56.039 291.123C53.8267 290.908 53.3414 290.286 53.3085 293.03Z" fill="#606161"/>
<path opacity="0.37" d="M53.3085 293.03C53.2597 293.739 53.3869 294.449 53.6786 295.095C54.212 295.913 55.0262 296.503 55.965 296.753C57.6712 297.258 59.4424 297.503 61.2203 297.483C63.9919 297.582 66.7635 297.599 69.5269 297.557C70.7687 297.557 72.208 297.383 72.8824 296.339C73.3847 295.349 73.224 294.149 72.4794 293.329C71.7332 292.545 70.8306 291.929 69.8312 291.521L64.6663 288.968C64.2737 288.741 63.8405 288.594 63.3915 288.537C62.3717 288.479 61.5575 289.308 60.7269 289.905C59.3622 290.87 57.6965 291.303 56.039 291.123C53.8267 290.908 53.3414 290.286 53.3085 293.03Z" fill="url(#paint1_linear_9342_223838)"/>
<path d="M60.2728 211.848L62.7349 240.01L63.2355 287.236C63.2355 287.236 55.9888 289.537 53.576 288.011L50.0307 247.489L38.8447 213.844C38.8447 213.844 53.3873 206.373 60.2728 211.848Z" fill="#606161"/>
<path opacity="0.37" d="M60.2728 211.848L62.7349 240.01L63.2355 287.236C63.2355 287.236 55.9888 289.537 53.576 288.011L50.0307 247.489L38.8447 213.844C38.8447 213.844 53.3873 206.373 60.2728 211.848Z" fill="url(#paint2_linear_9342_223838)"/>
<path opacity="0.37" d="M392.962 144.517L365.816 173.035H177.667L164.882 186.326H44.2646L85.1285 143.833L44.2646 109.444H164.882L205.779 143.833L203.318 146.388L383.935 134.994L392.962 144.517Z" fill="url(#paint3_linear_9342_223838)"/>
<path d="M205.966 133.871L165.041 176.376H44.2646L85.1985 133.871L44.2646 99.4941H165.041L205.966 133.871Z" fill="#EB5E13"/>
<path opacity="0.37" d="M86.642 157.709C86.7773 155.612 86.742 153.508 86.5364 151.418C86.2035 147.397 85.6839 143.384 84.9612 139.412C84.7177 138.088 84.0113 136.418 82.6878 136.591C82.2586 136.673 81.863 136.882 81.5511 137.191C79.5293 138.91 78.5063 141.574 78.0597 144.206C77.6131 146.837 77.6862 149.543 77.4264 152.199C77.0126 156.405 75.7936 160.488 73.8376 164.222C72.0838 167.577 69.9646 176.178 69.5586 176.327C69.5586 176.154 80.3007 176.499 81.0558 176.327C81.0558 176.302 86.2116 162.873 86.642 157.709Z" fill="url(#paint4_linear_9342_223838)"/>
<path d="M299.013 133.824L267.005 167.332H172.542L204.558 133.824L172.542 106.73H267.005L299.013 133.824Z" fill="#EB5E13"/>
<path d="M393.866 133.824L361.858 167.332H267.395L299.411 133.824L267.395 106.73H361.858L393.866 133.824Z" fill="#EB5E13"/>
<path d="M319 133.824L282.05 167H173L209.959 133.824L173 107H282.05L319 133.824Z" fill="#B1B1B1"/>
<path d="M408.866 133.824L376.858 167.332H282.395L314.411 133.824L282.395 106.73H376.858L408.866 133.824Z" fill="#1E1E1E"/>
<path d="M124.135 125.624V127.198C124.135 127.849 124.059 128.421 123.906 128.912C123.758 129.403 123.542 129.813 123.259 130.143C122.979 130.469 122.641 130.714 122.243 130.879C121.85 131.044 121.41 131.127 120.923 131.127C120.44 131.127 120 131.044 119.603 130.879C119.209 130.714 118.868 130.469 118.581 130.143C118.297 129.813 118.077 129.403 117.92 128.912C117.768 128.421 117.692 127.849 117.692 127.198V125.624C117.692 124.963 117.768 124.386 117.92 123.891C118.073 123.391 118.291 122.974 118.574 122.64C118.862 122.306 119.203 122.054 119.596 121.885C119.994 121.715 120.432 121.631 120.91 121.631C121.397 121.631 121.837 121.715 122.23 121.885C122.628 122.054 122.969 122.306 123.252 122.64C123.536 122.974 123.754 123.391 123.906 123.891C124.059 124.386 124.135 124.963 124.135 125.624ZM122.605 127.198V125.611C122.605 125.141 122.567 124.739 122.491 124.405C122.419 124.066 122.311 123.791 122.167 123.58C122.023 123.364 121.845 123.205 121.634 123.104C121.426 122.998 121.185 122.945 120.91 122.945C120.644 122.945 120.404 122.998 120.193 123.104C119.986 123.205 119.808 123.364 119.66 123.58C119.516 123.791 119.406 124.066 119.33 124.405C119.258 124.739 119.222 125.141 119.222 125.611V127.198C119.222 127.659 119.26 128.057 119.336 128.391C119.412 128.721 119.522 128.992 119.666 129.204C119.814 129.411 119.994 129.565 120.206 129.667C120.417 129.769 120.656 129.819 120.923 129.819C121.194 129.819 121.435 129.769 121.646 129.667C121.858 129.565 122.034 129.411 122.173 129.204C122.317 128.992 122.425 128.721 122.497 128.391C122.569 128.057 122.605 127.659 122.605 127.198ZM127.055 125.458V131H125.576V124.132H126.985L127.055 125.458ZM128.711 124.087L128.705 125.547C128.62 125.526 128.529 125.514 128.432 125.509C128.339 125.501 128.246 125.497 128.153 125.497C127.95 125.497 127.774 125.533 127.626 125.604C127.478 125.676 127.353 125.78 127.251 125.916C127.15 126.051 127.069 126.214 127.01 126.404C126.955 126.595 126.921 126.811 126.909 127.052L126.591 127.064C126.591 126.633 126.625 126.233 126.693 125.865C126.761 125.492 126.862 125.169 126.998 124.894C127.137 124.614 127.311 124.396 127.518 124.24C127.725 124.083 127.967 124.005 128.242 124.005C128.318 124.005 128.405 124.013 128.502 124.03C128.599 124.047 128.669 124.066 128.711 124.087ZM133.053 129.565V121.25H134.532V131L133.193 131.006L133.053 129.565ZM129.365 127.845V127.306C129.365 126.743 129.416 126.256 129.518 125.846C129.619 125.431 129.767 125.086 129.962 124.811C130.161 124.536 130.4 124.333 130.679 124.202C130.958 124.07 131.274 124.005 131.625 124.005C131.968 124.005 132.264 124.083 132.514 124.24C132.763 124.392 132.975 124.61 133.148 124.894C133.322 125.177 133.459 125.516 133.561 125.909C133.667 126.299 133.739 126.734 133.777 127.217V127.966C133.73 128.431 133.656 128.859 133.555 129.248C133.453 129.633 133.316 129.965 133.142 130.245C132.969 130.524 132.755 130.742 132.501 130.898C132.251 131.051 131.957 131.127 131.619 131.127C131.267 131.127 130.952 131.057 130.673 130.917C130.398 130.778 130.161 130.57 129.962 130.295C129.767 130.02 129.619 129.68 129.518 129.273C129.416 128.863 129.365 128.387 129.365 127.845ZM130.844 127.306V127.845C130.844 128.196 130.865 128.499 130.908 128.753C130.95 129.007 131.018 129.216 131.111 129.381C131.204 129.542 131.327 129.663 131.479 129.743C131.631 129.819 131.815 129.857 132.031 129.857C132.302 129.857 132.522 129.79 132.691 129.654C132.865 129.519 132.998 129.337 133.091 129.108C133.189 128.876 133.256 128.618 133.294 128.334V126.855C133.273 126.631 133.231 126.423 133.167 126.233C133.104 126.038 133.021 125.869 132.92 125.725C132.818 125.581 132.694 125.469 132.545 125.389C132.402 125.304 132.232 125.262 132.038 125.262C131.822 125.262 131.638 125.304 131.485 125.389C131.333 125.469 131.21 125.594 131.117 125.763C131.024 125.928 130.954 126.14 130.908 126.398C130.865 126.652 130.844 126.954 130.844 127.306ZM138.677 131.127C138.233 131.127 137.837 131.061 137.49 130.93C137.143 130.795 136.849 130.596 136.608 130.333C136.367 130.067 136.183 129.741 136.056 129.356C135.929 128.967 135.865 128.516 135.865 128.004V127.344C135.865 126.764 135.931 126.265 136.062 125.846C136.197 125.423 136.384 125.076 136.621 124.805C136.858 124.534 137.137 124.333 137.458 124.202C137.784 124.07 138.138 124.005 138.519 124.005C138.95 124.005 139.325 124.075 139.642 124.214C139.959 124.354 140.22 124.563 140.423 124.843C140.63 125.122 140.783 125.467 140.88 125.877C140.981 126.288 141.032 126.76 141.032 127.293V128.036H136.576V126.918H139.572V126.76C139.564 126.447 139.526 126.178 139.458 125.954C139.39 125.725 139.28 125.552 139.128 125.433C138.98 125.31 138.775 125.249 138.512 125.249C138.322 125.249 138.153 125.285 138.004 125.357C137.856 125.429 137.734 125.545 137.636 125.706C137.543 125.867 137.471 126.083 137.42 126.354C137.37 126.62 137.344 126.95 137.344 127.344V128.004C137.344 128.347 137.374 128.637 137.433 128.874C137.497 129.111 137.59 129.305 137.712 129.458C137.835 129.606 137.983 129.716 138.157 129.788C138.334 129.855 138.54 129.889 138.772 129.889C139.115 129.889 139.409 129.826 139.655 129.699C139.904 129.568 140.12 129.398 140.302 129.191L140.956 130.099C140.833 130.264 140.668 130.427 140.461 130.587C140.254 130.744 140.002 130.873 139.706 130.975C139.414 131.076 139.071 131.127 138.677 131.127ZM143.698 125.458V131H142.219V124.132H143.628L143.698 125.458ZM145.355 124.087L145.349 125.547C145.264 125.526 145.173 125.514 145.076 125.509C144.983 125.501 144.889 125.497 144.796 125.497C144.593 125.497 144.418 125.533 144.27 125.604C144.121 125.676 143.997 125.78 143.895 125.916C143.793 126.051 143.713 126.214 143.654 126.404C143.599 126.595 143.565 126.811 143.552 127.052L143.235 127.064C143.235 126.633 143.269 126.233 143.336 125.865C143.404 125.492 143.506 125.169 143.641 124.894C143.781 124.614 143.954 124.396 144.162 124.24C144.369 124.083 144.61 124.005 144.885 124.005C144.961 124.005 145.048 124.013 145.146 124.03C145.243 124.047 145.313 124.066 145.355 124.087Z" fill="white"/>
<path d="M124.167 157.167V138.833H133.333L138.833 144.333V147.175L131.5 154.486V157.167H124.167ZM133.333 157.167V155.219L138.054 150.475L140.025 152.4L135.281 157.167H133.333ZM140.689 151.758L138.742 149.811L140.048 148.504L141.95 150.498L140.689 151.758ZM132.417 145.25H137L132.417 140.667V145.25Z" fill="white"/>
<path d="M333.129 131H331.523L331.536 129.711H333.129C333.625 129.711 334.02 129.62 334.316 129.438C334.613 129.252 334.826 128.969 334.958 128.588C335.089 128.207 335.154 127.72 335.154 127.128V125.624C335.154 125.167 335.116 124.777 335.04 124.456C334.968 124.13 334.854 123.865 334.697 123.662C334.545 123.455 334.344 123.302 334.094 123.205C333.845 123.104 333.544 123.053 333.193 123.053H331.492V121.758H333.193C333.722 121.758 334.2 121.842 334.627 122.012C335.055 122.181 335.421 122.431 335.726 122.761C336.035 123.087 336.271 123.491 336.437 123.973C336.602 124.456 336.684 125.01 336.684 125.636V127.128C336.684 127.754 336.602 128.309 336.437 128.791C336.271 129.269 336.035 129.673 335.726 130.003C335.417 130.329 335.044 130.577 334.608 130.746C334.173 130.915 333.68 131 333.129 131ZM332.406 121.758V131H330.863V121.758H332.406ZM340.759 131.127C340.315 131.127 339.919 131.061 339.572 130.93C339.225 130.795 338.931 130.596 338.69 130.333C338.449 130.067 338.265 129.741 338.138 129.356C338.011 128.967 337.947 128.516 337.947 128.004V127.344C337.947 126.764 338.013 126.265 338.144 125.846C338.279 125.423 338.466 125.076 338.703 124.805C338.94 124.534 339.219 124.333 339.541 124.202C339.866 124.07 340.22 124.005 340.601 124.005C341.032 124.005 341.407 124.075 341.724 124.214C342.042 124.354 342.302 124.563 342.505 124.843C342.712 125.122 342.865 125.467 342.962 125.877C343.063 126.288 343.114 126.76 343.114 127.293V128.036H338.658V126.918H341.654V126.76C341.646 126.447 341.608 126.178 341.54 125.954C341.472 125.725 341.362 125.552 341.21 125.433C341.062 125.31 340.857 125.249 340.594 125.249C340.404 125.249 340.235 125.285 340.086 125.357C339.938 125.429 339.816 125.545 339.718 125.706C339.625 125.867 339.553 126.083 339.502 126.354C339.452 126.62 339.426 126.95 339.426 127.344V128.004C339.426 128.347 339.456 128.637 339.515 128.874C339.579 129.111 339.672 129.305 339.794 129.458C339.917 129.606 340.065 129.716 340.239 129.788C340.417 129.855 340.622 129.889 340.854 129.889C341.197 129.889 341.491 129.826 341.737 129.699C341.986 129.568 342.202 129.398 342.384 129.191L343.038 130.099C342.915 130.264 342.75 130.427 342.543 130.587C342.336 130.744 342.084 130.873 341.788 130.975C341.496 131.076 341.153 131.127 340.759 131.127ZM345.869 121.25V131H344.39V121.25H345.869ZM349.018 124.132V131H347.539V124.132H349.018ZM347.462 122.335C347.462 122.098 347.534 121.902 347.678 121.745C347.822 121.584 348.023 121.504 348.281 121.504C348.539 121.504 348.74 121.584 348.884 121.745C349.028 121.902 349.1 122.098 349.1 122.335C349.1 122.564 349.028 122.757 348.884 122.913C348.74 123.07 348.539 123.148 348.281 123.148C348.023 123.148 347.822 123.07 347.678 122.913C347.534 122.757 347.462 122.564 347.462 122.335ZM352.515 129.769L353.785 124.132H355.314L353.359 131H352.414L352.515 129.769ZM351.614 124.132L352.928 129.788L352.991 131H352.052L350.084 124.132H351.614ZM358.85 131.127C358.406 131.127 358.01 131.061 357.663 130.93C357.316 130.795 357.022 130.596 356.781 130.333C356.54 130.067 356.355 129.741 356.229 129.356C356.102 128.967 356.038 128.516 356.038 128.004V127.344C356.038 126.764 356.104 126.265 356.235 125.846C356.37 125.423 356.556 125.076 356.793 124.805C357.03 124.534 357.31 124.333 357.631 124.202C357.957 124.07 358.311 124.005 358.691 124.005C359.123 124.005 359.498 124.075 359.815 124.214C360.132 124.354 360.393 124.563 360.596 124.843C360.803 125.122 360.955 125.467 361.053 125.877C361.154 126.288 361.205 126.76 361.205 127.293V128.036H356.749V126.918H359.745V126.76C359.737 126.447 359.699 126.178 359.631 125.954C359.563 125.725 359.453 125.552 359.301 125.433C359.153 125.31 358.947 125.249 358.685 125.249C358.495 125.249 358.325 125.285 358.177 125.357C358.029 125.429 357.906 125.545 357.809 125.706C357.716 125.867 357.644 126.083 357.593 126.354C357.542 126.62 357.517 126.95 357.517 127.344V128.004C357.517 128.347 357.547 128.637 357.606 128.874C357.669 129.111 357.763 129.305 357.885 129.458C358.008 129.606 358.156 129.716 358.33 129.788C358.507 129.855 358.713 129.889 358.945 129.889C359.288 129.889 359.582 129.826 359.828 129.699C360.077 129.568 360.293 129.398 360.475 129.191L361.129 130.099C361.006 130.264 360.841 130.427 360.634 130.587C360.426 130.744 360.175 130.873 359.878 130.975C359.586 131.076 359.244 131.127 358.85 131.127ZM363.871 125.458V131H362.392V124.132H363.801L363.871 125.458ZM365.528 124.087L365.521 125.547C365.437 125.526 365.346 125.514 365.249 125.509C365.155 125.501 365.062 125.497 364.969 125.497C364.766 125.497 364.59 125.533 364.442 125.604C364.294 125.676 364.169 125.78 364.068 125.916C363.966 126.051 363.886 126.214 363.827 126.404C363.772 126.595 363.738 126.811 363.725 127.052L363.408 127.064C363.408 126.633 363.442 126.233 363.509 125.865C363.577 125.492 363.679 125.169 363.814 124.894C363.954 124.614 364.127 124.396 364.334 124.24C364.542 124.083 364.783 124.005 365.058 124.005C365.134 124.005 365.221 124.013 365.318 124.03C365.416 124.047 365.486 124.066 365.528 124.087ZM368.327 130.245L369.8 124.132H371.355L369.089 132.041C369.038 132.215 368.966 132.401 368.873 132.6C368.784 132.799 368.668 132.987 368.524 133.165C368.384 133.347 368.209 133.493 367.997 133.603C367.79 133.717 367.542 133.774 367.254 133.774C367.136 133.774 367.022 133.763 366.912 133.742C366.802 133.721 366.696 133.696 366.594 133.666V132.473C366.628 132.477 366.666 132.481 366.708 132.485C366.751 132.49 366.789 132.492 366.823 132.492C367.03 132.492 367.201 132.46 367.337 132.396C367.472 132.337 367.584 132.24 367.673 132.104C367.762 131.973 367.84 131.798 367.908 131.578L368.327 130.245ZM367.673 124.132L368.879 129.242L369.14 130.898L368.124 131.159L366.08 124.132H367.673Z" fill="white"/>
<path d="M345.5 155.333C344.736 155.333 344.087 155.066 343.552 154.531C343.017 153.996 342.75 153.347 342.75 152.583H340.917V140.667H355.583V144.333H358.333L361.083 148V152.583H359.25C359.25 153.347 358.982 153.996 358.448 154.531C357.913 155.066 357.264 155.333 356.5 155.333C355.736 155.333 355.087 155.066 354.552 154.531C354.017 153.996 353.75 153.347 353.75 152.583H348.25C348.25 153.347 347.982 153.996 347.448 154.531C346.913 155.066 346.264 155.333 345.5 155.333ZM345.5 153.5C345.76 153.5 345.977 153.412 346.153 153.236C346.329 153.06 346.417 152.842 346.417 152.583C346.417 152.323 346.329 152.106 346.153 151.93C345.977 151.754 345.759 151.666 345.5 151.667C345.24 151.667 345.022 151.755 344.846 151.931C344.67 152.107 344.583 152.324 344.583 152.583C344.583 152.843 344.671 153.061 344.847 153.237C345.023 153.413 345.241 153.5 345.5 153.5ZM356.5 153.5C356.76 153.5 356.977 153.412 357.153 153.236C357.329 153.06 357.417 152.842 357.417 152.583C357.417 152.323 357.329 152.106 357.153 151.93C356.977 151.754 356.759 151.666 356.5 151.667C356.24 151.667 356.022 151.755 355.846 151.931C355.67 152.107 355.583 152.324 355.583 152.583C355.583 152.843 355.671 153.061 355.847 153.237C356.023 153.413 356.241 153.5 356.5 153.5ZM355.583 148.917H359.479L357.417 146.167H355.583V148.917Z" fill="white"/>
<path d="M230.837 128.613C230.837 128.423 230.816 128.254 230.773 128.105C230.735 127.953 230.661 127.816 230.551 127.693C230.441 127.57 230.285 127.45 230.082 127.331C229.883 127.213 229.625 127.092 229.307 126.969C228.943 126.83 228.603 126.677 228.285 126.512C227.972 126.343 227.695 126.153 227.454 125.941C227.217 125.725 227.03 125.473 226.895 125.186C226.76 124.898 226.692 124.563 226.692 124.183C226.692 123.806 226.757 123.463 226.889 123.154C227.024 122.841 227.215 122.572 227.46 122.348C227.71 122.12 228.006 121.944 228.349 121.821C228.691 121.694 229.07 121.631 229.485 121.631C230.082 121.631 230.591 121.758 231.015 122.012C231.442 122.266 231.768 122.606 231.992 123.034C232.221 123.461 232.335 123.935 232.335 124.456H230.799C230.799 124.155 230.752 123.889 230.659 123.656C230.566 123.423 230.422 123.241 230.228 123.11C230.033 122.979 229.781 122.913 229.472 122.913C229.189 122.913 228.954 122.968 228.768 123.078C228.586 123.188 228.45 123.338 228.361 123.529C228.277 123.719 228.234 123.937 228.234 124.183C228.234 124.352 228.27 124.506 228.342 124.646C228.414 124.781 228.518 124.906 228.653 125.021C228.789 125.135 228.954 125.243 229.148 125.344C229.343 125.446 229.567 125.543 229.821 125.636C230.253 125.793 230.63 125.966 230.951 126.157C231.273 126.347 231.537 126.561 231.745 126.798C231.956 127.031 232.113 127.295 232.214 127.591C232.32 127.888 232.373 128.224 232.373 128.601C232.373 128.981 232.307 129.328 232.176 129.642C232.049 129.951 231.863 130.215 231.618 130.435C231.372 130.655 231.076 130.826 230.729 130.949C230.382 131.068 229.993 131.127 229.561 131.127C229.163 131.127 228.78 131.068 228.412 130.949C228.048 130.831 227.722 130.651 227.435 130.41C227.147 130.164 226.918 129.857 226.749 129.489C226.584 129.121 226.501 128.689 226.501 128.194H228.044C228.044 128.491 228.08 128.744 228.152 128.956C228.224 129.163 228.327 129.335 228.463 129.47C228.603 129.601 228.765 129.699 228.952 129.762C229.142 129.821 229.354 129.851 229.586 129.851C229.874 129.851 230.109 129.8 230.291 129.699C230.477 129.593 230.615 129.447 230.704 129.261C230.792 129.075 230.837 128.859 230.837 128.613ZM235.09 121.25V131H233.617V121.25H235.09ZM234.83 127.318H234.36C234.356 126.84 234.406 126.4 234.512 125.998C234.618 125.596 234.77 125.245 234.969 124.944C235.168 124.644 235.407 124.413 235.687 124.252C235.97 124.087 236.283 124.005 236.626 124.005C236.91 124.005 237.166 124.054 237.394 124.151C237.627 124.244 237.826 124.392 237.991 124.595C238.16 124.798 238.289 125.065 238.378 125.395C238.467 125.721 238.511 126.119 238.511 126.588V131H237.032V126.576C237.032 126.25 236.996 125.992 236.924 125.801C236.857 125.611 236.755 125.473 236.62 125.389C236.484 125.304 236.313 125.262 236.105 125.262C235.902 125.262 235.72 125.317 235.56 125.427C235.399 125.533 235.263 125.681 235.153 125.871C235.048 126.057 234.967 126.275 234.912 126.525C234.857 126.77 234.83 127.035 234.83 127.318ZM241.552 124.132V131H240.073V124.132H241.552ZM239.997 122.335C239.997 122.098 240.069 121.902 240.212 121.745C240.356 121.584 240.557 121.504 240.815 121.504C241.074 121.504 241.275 121.584 241.418 121.745C241.562 121.902 241.634 122.098 241.634 122.335C241.634 122.564 241.562 122.757 241.418 122.913C241.275 123.07 241.074 123.148 240.815 123.148C240.557 123.148 240.356 123.07 240.212 122.913C240.069 122.757 239.997 122.564 239.997 122.335ZM244.611 125.452V133.641H243.139V124.132H244.491L244.611 125.452ZM248.306 127.293V127.839C248.306 128.376 248.257 128.85 248.16 129.261C248.062 129.671 247.918 130.016 247.728 130.295C247.542 130.57 247.311 130.778 247.036 130.917C246.761 131.057 246.439 131.127 246.071 131.127C245.724 131.127 245.422 131.051 245.164 130.898C244.91 130.746 244.696 130.532 244.522 130.257C244.349 129.982 244.209 129.656 244.104 129.28C244.002 128.899 243.928 128.484 243.881 128.036V127.198C243.928 126.724 244 126.292 244.097 125.903C244.199 125.509 244.336 125.171 244.51 124.887C244.688 124.604 244.903 124.386 245.157 124.233C245.411 124.081 245.714 124.005 246.065 124.005C246.433 124.005 246.757 124.07 247.036 124.202C247.315 124.333 247.548 124.534 247.734 124.805C247.925 125.076 248.067 125.418 248.16 125.833C248.257 126.243 248.306 126.73 248.306 127.293ZM246.827 127.839V127.293C246.827 126.942 246.803 126.639 246.757 126.385C246.715 126.127 246.643 125.916 246.541 125.75C246.444 125.585 246.319 125.463 246.167 125.382C246.018 125.302 245.834 125.262 245.614 125.262C245.42 125.262 245.248 125.302 245.1 125.382C244.952 125.463 244.827 125.575 244.726 125.719C244.624 125.858 244.544 126.026 244.484 126.22C244.425 126.411 244.387 126.618 244.37 126.842V128.397C244.408 128.668 244.472 128.918 244.561 129.146C244.649 129.371 244.778 129.551 244.948 129.686C245.121 129.821 245.348 129.889 245.627 129.889C245.843 129.889 246.027 129.847 246.179 129.762C246.332 129.678 246.454 129.551 246.547 129.381C246.645 129.212 246.715 129 246.757 128.747C246.803 128.488 246.827 128.186 246.827 127.839ZM251.035 125.452V133.641H249.562V124.132H250.915L251.035 125.452ZM254.729 127.293V127.839C254.729 128.376 254.681 128.85 254.583 129.261C254.486 129.671 254.342 130.016 254.152 130.295C253.966 130.57 253.735 130.778 253.46 130.917C253.185 131.057 252.863 131.127 252.495 131.127C252.148 131.127 251.846 131.051 251.587 130.898C251.333 130.746 251.12 130.532 250.946 130.257C250.773 129.982 250.633 129.656 250.527 129.28C250.426 128.899 250.352 128.484 250.305 128.036V127.198C250.352 126.724 250.424 126.292 250.521 125.903C250.623 125.509 250.76 125.171 250.934 124.887C251.111 124.604 251.327 124.386 251.581 124.233C251.835 124.081 252.138 124.005 252.489 124.005C252.857 124.005 253.181 124.07 253.46 124.202C253.739 124.333 253.972 124.534 254.158 124.805C254.349 125.076 254.49 125.418 254.583 125.833C254.681 126.243 254.729 126.73 254.729 127.293ZM253.25 127.839V127.293C253.25 126.942 253.227 126.639 253.181 126.385C253.138 126.127 253.066 125.916 252.965 125.75C252.868 125.585 252.743 125.463 252.59 125.382C252.442 125.302 252.258 125.262 252.038 125.262C251.843 125.262 251.672 125.302 251.524 125.382C251.376 125.463 251.251 125.575 251.149 125.719C251.048 125.858 250.967 126.026 250.908 126.22C250.849 126.411 250.811 126.618 250.794 126.842V128.397C250.832 128.668 250.896 128.918 250.984 129.146C251.073 129.371 251.202 129.551 251.372 129.686C251.545 129.821 251.771 129.889 252.051 129.889C252.267 129.889 252.451 129.847 252.603 129.762C252.755 129.678 252.878 129.551 252.971 129.381C253.069 129.212 253.138 129 253.181 128.747C253.227 128.488 253.25 128.186 253.25 127.839ZM257.548 124.132V131H256.069V124.132H257.548ZM255.993 122.335C255.993 122.098 256.065 121.902 256.208 121.745C256.352 121.584 256.553 121.504 256.812 121.504C257.07 121.504 257.271 121.584 257.415 121.745C257.558 121.902 257.63 122.098 257.63 122.335C257.63 122.564 257.558 122.757 257.415 122.913C257.271 123.07 257.07 123.148 256.812 123.148C256.553 123.148 256.352 123.07 256.208 122.913C256.065 122.757 255.993 122.564 255.993 122.335ZM260.588 125.598V131H259.109V124.132H260.5L260.588 125.598ZM260.322 127.318H259.852C259.848 126.823 259.901 126.373 260.011 125.966C260.121 125.56 260.277 125.211 260.48 124.919C260.688 124.627 260.933 124.403 261.217 124.246C261.505 124.085 261.824 124.005 262.175 124.005C262.446 124.005 262.694 124.051 262.918 124.145C263.146 124.233 263.341 124.379 263.502 124.583C263.663 124.786 263.785 125.05 263.87 125.376C263.959 125.702 264.003 126.1 264.003 126.569V131H262.524V126.557C262.524 126.235 262.488 125.981 262.417 125.795C262.349 125.604 262.247 125.469 262.112 125.389C261.976 125.304 261.805 125.262 261.598 125.262C261.407 125.262 261.232 125.317 261.071 125.427C260.914 125.533 260.779 125.681 260.665 125.871C260.555 126.057 260.47 126.275 260.411 126.525C260.351 126.77 260.322 127.035 260.322 127.318ZM269.151 124.132H270.491V131.025C270.491 131.643 270.376 132.149 270.148 132.542C269.924 132.94 269.611 133.234 269.208 133.425C268.806 133.615 268.341 133.71 267.812 133.71C267.617 133.71 267.387 133.679 267.12 133.615C266.854 133.552 266.593 133.459 266.339 133.336C266.085 133.213 265.874 133.061 265.705 132.879L266.244 131.851C266.443 132.054 266.678 132.21 266.949 132.32C267.22 132.435 267.48 132.492 267.729 132.492C268 132.492 268.229 132.445 268.415 132.352C268.605 132.263 268.751 132.113 268.853 131.901C268.955 131.694 269.005 131.413 269.005 131.057V125.687L269.151 124.132ZM265.267 127.845V127.306C265.267 126.743 265.319 126.256 265.425 125.846C265.531 125.431 265.683 125.086 265.882 124.811C266.081 124.536 266.325 124.333 266.612 124.202C266.9 124.07 267.222 124.005 267.577 124.005C267.945 124.005 268.256 124.083 268.51 124.24C268.768 124.392 268.978 124.61 269.139 124.894C269.304 125.177 269.433 125.516 269.526 125.909C269.619 126.299 269.687 126.734 269.729 127.217V127.966C269.687 128.431 269.615 128.859 269.513 129.248C269.412 129.633 269.274 129.965 269.101 130.245C268.931 130.524 268.72 130.742 268.466 130.898C268.216 131.051 267.916 131.127 267.564 131.127C267.213 131.127 266.896 131.057 266.612 130.917C266.329 130.778 266.085 130.57 265.882 130.295C265.683 130.02 265.531 129.68 265.425 129.273C265.319 128.863 265.267 128.387 265.267 127.845ZM266.746 127.306V127.845C266.746 128.196 266.769 128.499 266.815 128.753C266.866 129.007 266.94 129.216 267.038 129.381C267.135 129.542 267.262 129.663 267.418 129.743C267.575 129.819 267.761 129.857 267.977 129.857C268.261 129.857 268.489 129.79 268.663 129.654C268.84 129.519 268.976 129.337 269.069 129.108C269.166 128.876 269.234 128.618 269.272 128.334V126.855C269.251 126.631 269.208 126.423 269.145 126.233C269.086 126.038 269.003 125.869 268.897 125.725C268.796 125.581 268.669 125.469 268.517 125.389C268.368 125.304 268.193 125.262 267.99 125.262C267.778 125.262 267.592 125.304 267.431 125.389C267.275 125.469 267.146 125.594 267.044 125.763C266.942 125.928 266.866 126.14 266.815 126.398C266.769 126.652 266.746 126.954 266.746 127.306Z" fill="white"/>
<path d="M246.25 140.667H251.242C251.397 140.667 251.55 140.706 251.686 140.781C251.822 140.857 251.937 140.965 252.019 141.097L255.187 146.167H259.228C259.308 146.166 259.386 146.187 259.455 146.226C259.524 146.266 259.582 146.323 259.623 146.391C259.663 146.459 259.685 146.537 259.687 146.617C259.688 146.696 259.669 146.775 259.63 146.845L256.022 153.46C255.214 153.569 254.393 153.459 253.642 153.144C252.891 152.829 252.238 152.319 251.75 151.667C251.323 152.236 250.77 152.698 250.133 153.017C249.497 153.335 248.795 153.5 248.083 153.5C247.372 153.5 246.67 153.335 246.033 153.017C245.397 152.698 244.843 152.236 244.417 151.667C243.939 152.305 243.303 152.807 242.571 153.124C241.84 153.441 241.038 153.561 240.246 153.472L239.113 147.247C239.089 147.115 239.094 146.979 239.128 146.849C239.162 146.72 239.225 146.599 239.311 146.496C239.397 146.393 239.504 146.31 239.626 146.253C239.748 146.196 239.88 146.166 240.015 146.167H240.75V141.583C240.75 141.34 240.846 141.107 241.018 140.935C241.19 140.763 241.423 140.667 241.667 140.667H242.583V137.917H246.25V140.667ZM242.583 146.167H253.026L250.734 142.5H242.583V146.167ZM240.75 155.333C242.103 155.335 243.409 154.836 244.417 153.933C245.424 154.836 246.73 155.335 248.083 155.333C249.436 155.335 250.742 154.836 251.75 153.933C252.757 154.836 254.063 155.335 255.417 155.333H257.25V157.167H255.417C254.129 157.169 252.864 156.83 251.75 156.186C250.635 156.83 249.37 157.169 248.083 157.167C246.796 157.169 245.531 156.83 244.417 156.186C243.302 156.83 242.037 157.169 240.75 157.167H238.917V155.333H240.75Z" fill="white"/>
<path d="M36.5613 286.23L36.1343 291.731C37.4015 292.75 39.0285 293.211 40.6429 293.01C43.1887 292.6 45.1679 289.468 45.1679 289.468V285.82L36.5613 286.23Z" fill="#F5C7C8"/>
<path d="M67.752 168.068C67.752 168.068 75.1123 155.013 76.0692 151.272C77.026 147.53 78.9642 137.901 78.9642 137.901C78.9642 137.901 80.2564 136.471 81.0333 138.899C81.8102 141.327 83.6503 143.165 82.9552 146.466C82.26 149.767 83.1515 151.987 82.5708 154.88C81.9902 157.774 74.5889 161.532 73.1168 169.14" fill="#F5C7C8"/>
<path d="M73.1724 156.763L73.9381 154.668L80.3993 159.617L79.2586 161L73.1724 156.763Z" fill="white"/>
<path d="M50.8798 162.456L63.5161 175.272L73.3728 157.382C75.5194 158.746 77.5656 160.259 79.496 161.908C79.496 161.908 73.5969 180.592 67.1086 187.434C63.9558 190.707 49.6851 181.451 49.6851 181.451" fill="#EB5E13"/>
<path d="M50.8798 162.456L63.5161 175.272L73.3728 157.382C75.5194 158.746 77.5656 160.259 79.496 161.908C79.496 161.908 73.5969 180.592 67.1086 187.434C63.9558 190.707 49.6851 181.451 49.6851 181.451" fill="url(#paint5_linear_9342_223838)"/>
<path d="M56.0082 211.826L53.2204 240.59L45.9586 287.32C45.9586 287.32 38.3045 288.41 36.1343 286.495L39.256 245.899L38.3546 211.925C38.3546 211.925 50.0152 205.271 56.0082 211.826Z" fill="#606161"/>
<path d="M35.2412 293.028C35.1923 293.735 35.3195 294.443 35.6113 295.087C36.1423 295.909 36.9575 296.501 37.8976 296.748C39.6033 297.256 41.3745 297.505 43.1529 297.487C45.9245 297.578 48.6879 297.603 51.4595 297.553C52.7014 297.553 54.1406 297.387 54.815 296.333C55.3174 295.342 55.1567 294.14 54.412 293.319C53.6575 292.544 52.7533 291.933 51.7556 291.526L46.5907 288.968C46.1975 288.742 45.7645 288.596 45.3159 288.537C44.2961 288.478 43.4819 289.317 42.6513 289.915C41.2832 290.873 39.6178 291.297 37.9634 291.11C35.7593 290.895 35.307 290.28 35.2412 293.028Z" fill="#606161"/>
<path opacity="0.37" d="M56.0082 211.826L53.2204 240.59L45.9586 287.32C45.9586 287.32 38.3045 288.41 36.1343 286.495L39.256 245.899L38.3546 211.925C38.3546 211.925 50.0152 205.271 56.0082 211.826Z" fill="url(#paint6_linear_9342_223838)"/>
<path d="M56.1309 154.389L55.5411 154.877C55.2202 155.163 54.8559 155.399 54.4613 155.577C53.7386 155.853 52.5757 155.617 51.9693 156.146C51.363 156.675 51.4128 158.547 51.3796 159.352C51.3083 160.815 51.4255 162.28 51.7284 163.714C51.7284 163.714 43.422 162.249 40.9301 160.093C40.9301 160.093 42.6994 154.999 41.7607 152.249C40.8221 149.498 38.5378 145.088 40.5563 141.337C42.5748 137.586 46.3708 133.762 51.9859 133.867C54.5859 133.916 57.1941 134.624 58.2324 137.195C58.8803 138.823 58.7142 140.532 58.656 142.216C58.5813 144.6 58.4982 146.976 58.4234 149.36C58.4518 150.304 58.2997 151.245 57.9749 152.135C57.5486 153.017 56.917 153.789 56.1309 154.389Z" fill="#F5C7C8"/>
<path d="M51.2019 217.399C49.1595 217.865 47.0615 218.054 44.9668 217.959C42.4541 217.911 39.9791 217.35 37.6995 216.311C37.6995 216.311 36.231 196.011 35.2491 180.64C34.6533 171.681 34.2421 164.387 34.3428 163.761C34.6281 162.014 38.6478 157.382 41.2828 157.382C43.9178 157.382 52.5697 161.255 52.5697 161.255L61.4146 212.544C61.4146 212.544 62.237 214.967 51.2019 217.399Z" fill="#EB5E13"/>
<path opacity="0.37" d="M48.7566 213.692C48.9379 215.226 48.1128 216.707 46.6893 217.403C46.1615 217.68 45.5921 217.876 45.0018 217.983C42.4753 217.936 39.9868 217.379 37.6948 216.348C37.6948 216.348 36.2182 196.215 35.231 180.97C35.9313 180.267 36.6569 179.622 37.0957 179.237C37.5344 178.853 40.9855 176.859 41.0108 176.376C40.3923 183.819 40.2795 191.293 40.6733 198.749C40.7745 200.76 41.0361 203.016 42.6646 204.3C44.1496 205.477 46.605 205.632 47.3306 207.365C47.8031 208.419 47.3306 209.646 47.6175 210.749C47.9044 211.853 48.5541 212.662 48.7566 213.692Z" fill="url(#paint7_linear_9342_223838)"/>
<path d="M62.6032 130.768C63.9707 133.673 63.0586 137.15 60.447 138.99C58.1036 140.716 55.8172 137.058 51.6268 138.357C47.4364 139.656 48.3721 144.589 48.1442 148.297L47.1678 148.066C47.1678 148.066 47.2655 142.262 45.8497 142.213C42.8879 142.097 42.0173 144.408 44.32 148.502L43.7423 152.843L42.2939 153.764C42.2939 153.764 41.106 152.054 40.1296 150.755C37.1678 146.973 35.8578 139.294 38.3558 134.69C40.8538 130.086 45.7439 128.532 47.9896 129.403C50.2354 130.275 59.2427 123.878 62.6032 130.768Z" fill="#292F67"/>
<path d="M52.6201 161.694L53.2985 163.713L37.9414 158.367L40.192 154.668L52.6201 161.694Z" fill="white"/>
<path d="M37.9895 202.607C37.9895 202.607 39.6809 205.196 40.3743 205.372C41.0678 205.549 41.3976 204.599 43.1567 205.666C44.9157 206.734 46.3365 206.625 46.1927 207.28C46.049 207.936 45.1863 207.474 44.5521 207.768C43.9178 208.062 43.9009 209.331 45.7783 209.735C47.6558 210.138 48.7805 209.213 48.7805 210.13C48.7805 211.046 48.8397 214.391 47.9856 214.845C47.1314 215.299 42.1672 215.685 40.6873 214.357C39.2073 213.029 37.5666 209.558 36.3066 208.995C35.0465 208.432 34.3276 205.28 34.3276 205.28" fill="#F5C7C8"/>
<path d="M37.8471 159.191C37.8471 159.191 34.0595 159.49 20.3932 183.461C16.6549 190.028 34.3301 208.934 34.3301 208.934C34.3301 208.934 39.7819 209.2 40.3639 205.331C40.3639 205.331 30.8541 188.268 31.141 186.234C31.4279 184.2 40.9788 175.307 40.6427 171.421C40.3065 167.535 41.6592 159.357 37.8471 159.191Z" fill="#EB5E13"/>
<path d="M62.6032 130.768C63.9707 133.673 63.0586 137.15 60.447 138.99C58.1036 140.716 55.8172 137.058 51.6268 138.357C47.4364 139.656 48.3721 144.589 48.1442 148.297L47.1678 148.066C47.1678 148.066 47.2655 142.262 45.8497 142.213C42.8879 142.097 42.0173 144.408 44.32 148.502L43.7423 152.843L42.2939 153.764C42.2939 153.764 41.106 152.054 40.1296 150.755C37.1678 146.973 35.8578 139.294 38.3558 134.69C40.8538 130.086 45.7439 128.532 47.9896 129.403C50.2354 130.275 59.2427 123.878 62.6032 130.768Z" fill="#606161"/>
<path opacity="0.37" d="M62.6032 130.768C63.9707 133.673 63.0586 137.15 60.447 138.99C58.1036 140.716 55.8172 137.058 51.6268 138.357C47.4364 139.656 48.3721 144.589 48.1442 148.297L47.1678 148.066C47.1678 148.066 47.2655 142.262 45.8497 142.213C42.8879 142.097 42.0173 144.408 44.32 148.502L43.7423 152.843L42.2939 153.764C42.2939 153.764 41.106 152.054 40.1296 150.755C37.1678 146.973 35.8578 139.294 38.3558 134.69C40.8538 130.086 45.7439 128.532 47.9896 129.403C50.2354 130.275 59.2427 123.878 62.6032 130.768Z" fill="url(#paint8_linear_9342_223838)"/>
<path d="M55.1048 152.814C53.4843 152.639 51.8968 152.232 50.3901 151.605C48.3367 150.66 48.1724 150.992 47.926 152.085C47.6571 153.482 48.5435 154.84 49.9219 155.143C51.5647 155.524 53.8974 155.797 54.0863 155.317C54.5103 154.52 54.8517 153.682 55.1048 152.814Z" fill="#F5C7C8"/>
<path d="M41.1259 204.416C41.1259 204.416 40.4557 206.902 38.5929 207.874C37.2596 208.467 35.7824 208.687 34.3276 208.508L35.6246 210.639C35.6246 210.639 36.3732 211.214 39.4546 209.709C42.536 208.204 42.4577 205.701 42.4577 205.701L41.1259 204.416Z" fill="white"/>
<path opacity="0.37" d="M35.2415 293.028C35.1912 293.736 35.3215 294.445 35.6198 295.087C36.1483 295.908 36.9605 296.5 37.8979 296.748C39.6074 297.252 41.3806 297.501 43.1614 297.487C45.9247 297.578 48.6962 297.603 51.4595 297.553C52.7014 297.553 54.1489 297.387 54.815 296.333C55.3174 295.342 55.1567 294.14 54.412 293.319C53.6542 292.54 52.7439 291.929 51.7392 291.526L46.5744 288.968C46.1823 288.74 45.7489 288.593 45.2996 288.537C44.2799 288.478 43.4657 289.309 42.6432 289.915C41.2777 290.864 39.6197 291.285 37.9719 291.102C35.7596 290.895 35.2908 290.272 35.2415 293.028Z" fill="url(#paint9_linear_9342_223838)"/>
<defs>
<linearGradient id="paint0_linear_9342_223838" x1="4354.59" y1="961.223" x2="4350.34" y2="785.546" gradientUnits="userSpaceOnUse">
<stop stop-color="#010101" stop-opacity="0"/>
<stop offset="0.95" stop-color="#010101"/>
</linearGradient>
<linearGradient id="paint1_linear_9342_223838" x1="1225.46" y1="652.539" x2="1112.9" y2="967.575" gradientUnits="userSpaceOnUse">
<stop stop-color="#010101" stop-opacity="0"/>
<stop offset="0.95" stop-color="#010101"/>
</linearGradient>
<linearGradient id="paint2_linear_9342_223838" x1="1422.63" y1="3879.63" x2="1197.75" y2="3923.35" gradientUnits="userSpaceOnUse">
<stop stop-color="#010101" stop-opacity="0"/>
<stop offset="0.95" stop-color="#010101"/>
</linearGradient>
<linearGradient id="paint3_linear_9342_223838" x1="17549.3" y1="3576.24" x2="17528.4" y2="5275.47" gradientUnits="userSpaceOnUse">
<stop stop-color="#010101" stop-opacity="0"/>
<stop offset="0.95" stop-color="#010101"/>
</linearGradient>
<linearGradient id="paint4_linear_9342_223838" x1="1247.97" y1="1780.03" x2="-271.06" y2="2166.59" gradientUnits="userSpaceOnUse">
<stop stop-color="#010101" stop-opacity="0"/>
<stop offset="0.95" stop-color="#010101"/>
</linearGradient>
<linearGradient id="paint5_linear_9342_223838" x1="2852.39" y1="1634.61" x2="-3087.73" y2="1634.61" gradientUnits="userSpaceOnUse">
<stop stop-color="#EB5E13"/>
<stop offset="1" stop-color="#141515"/>
</linearGradient>
<linearGradient id="paint6_linear_9342_223838" x1="36.1343" y1="4142.01" x2="2023.53" y2="4142.01" gradientUnits="userSpaceOnUse">
<stop stop-color="#010101" stop-opacity="0"/>
<stop offset="0.95" stop-color="#010101"/>
</linearGradient>
<linearGradient id="paint7_linear_9342_223838" x1="804.808" y1="2225.65" x2="285.762" y2="2247.65" gradientUnits="userSpaceOnUse">
<stop stop-color="#010101" stop-opacity="0"/>
<stop offset="0.95" stop-color="#010101"/>
</linearGradient>
<linearGradient id="paint8_linear_9342_223838" x1="2733.55" y1="1440.85" x2="599.288" y2="1440.85" gradientUnits="userSpaceOnUse">
<stop stop-color="#010101" stop-opacity="0"/>
<stop offset="0.95" stop-color="#010101"/>
</linearGradient>
<linearGradient id="paint9_linear_9342_223838" x1="1206.58" y1="678.793" x2="1117.99" y2="863.418" gradientUnits="userSpaceOnUse">
<stop stop-color="#010101" stop-opacity="0"/>
<stop offset="0.95" stop-color="#010101"/>
</linearGradient>
</defs>
</svg>
