<svg xmlns="http://www.w3.org/2000/svg" width="476" height="356" viewBox="0 0 476 356">
    <defs>
        <linearGradient id="nivsuwkywa" x1="50.489%" x2="48.275%" y1="52.98%" y2="39.461%">
            <stop offset="0%" stop-color="#010101" stop-opacity="0"/>
            <stop offset="95%" stop-color="#010101"/>
        </linearGradient>
        <linearGradient id="05umwb3ijb" x1="58.98%" x2="39.903%" y1="40.244%" y2="64.544%">
            <stop offset="0%" stop-color="#010101" stop-opacity="0"/>
            <stop offset="95%" stop-color="#010101"/>
        </linearGradient>
        <linearGradient id="w145snw0bc" x1="56.734%" x2="49.867%" y1="46.635%" y2="50.942%">
            <stop offset="0%" stop-color="#010101" stop-opacity="0"/>
            <stop offset="95%" stop-color="#010101"/>
        </linearGradient>
        <linearGradient id="nhe9lchx2d" x1="50.201%" x2="48.972%" y1="45.092%" y2="67.129%">
            <stop offset="0%" stop-color="#010101" stop-opacity="0"/>
            <stop offset="95%" stop-color="#010101"/>
        </linearGradient>
        <linearGradient id="lexxa4lmve" x1="68.657%" x2="-1.24%" y1="41.295%" y2="82.538%">
            <stop offset="0%" stop-color="#010101" stop-opacity="0"/>
            <stop offset="95%" stop-color="#010101"/>
        </linearGradient>
        <linearGradient id="os7eh1tz1f" x1="133.225%" x2="-16.785%" y1="50.865%" y2="49.511%">
            <stop offset="0%" stop-color="#010101" stop-opacity="0"/>
            <stop offset="95%" stop-color="#010101"/>
        </linearGradient>
        <linearGradient id="2gppirj3tg" x1="117.502%" x2="-32.507%" y1="49.856%" y2="50.125%">
            <stop offset="0%" stop-color="#010101" stop-opacity="0"/>
            <stop offset="95%" stop-color="#010101"/>
        </linearGradient>
        <linearGradient id="672ol27w8h" x1="91.465%" x2="-42.33%" y1="48.035%" y2="57.829%">
            <stop offset="0%" stop-color="#010101" stop-opacity="0"/>
            <stop offset="95%" stop-color="#010101"/>
        </linearGradient>
        <linearGradient id="dfnng9jizi" x1="0%" x2="100%" y1="49.981%" y2="49.981%">
            <stop offset="0%" stop-color="#010101" stop-opacity="0"/>
            <stop offset="95%" stop-color="#010101"/>
        </linearGradient>
        <linearGradient id="bhpudbaxlj" x1="56.794%" x2="19.059%" y1="49.253%" y2="54.165%">
            <stop offset="0%" stop-color="#010101" stop-opacity="0"/>
            <stop offset="95%" stop-color="#010101"/>
        </linearGradient>
        <linearGradient id="ax1hz0wq0k" x1="102.93%" x2="21.462%" y1="50.069%" y2="50.069%">
            <stop offset="0%" stop-color="#010101" stop-opacity="0"/>
            <stop offset="95%" stop-color="#010101"/>
        </linearGradient>
        <linearGradient id="s0sfcirtkl" x1="58.939%" x2="46.4%" y1="43.147%" y2="55.038%">
            <stop offset="0%" stop-color="#010101" stop-opacity="0"/>
            <stop offset="95%" stop-color="#010101"/>
        </linearGradient>
    </defs>
    <g fill="none" fill-rule="evenodd">
        <g>
            <g>
                <g>
                    <g transform="translate(-299 -194) translate(299 194)">
                        <path fill="#4EAEF9" fill-rule="nonzero" d="M472.44 256.159c-2.04 7.18-5.15 14.013-9.225 20.266-7.746 11.951-18.77 21.609-31.54 28.626-17.783 9.74-26.177 28.6-46.098 35.333-13.555 4.569-28.17 4.715-42.455 4.158-22.046-.87-44.002-3.312-65.7-7.31-27.776-5.108-56.365-12.792-83.83-6.177-18.89 4.523-35.623 15.533-54.32 20.741-15.848 4.432-32.572 4.633-49.013 3.847-29.794-1.407-63.773-8.79-77.912-35.059-2.653-4.98-4.503-10.349-5.48-15.907-2.74-14.848-.11-30.957 3.37-45.941 4.74-20.577 10.96-41.876 6.138-62.452-3.462-15.085-12.595-28.416-15.463-43.63-2.004-10.875-.687-22.102 3.78-32.217C12 104.073 26.825 92.286 42.536 83.725c15.71-8.562 32.772-14.51 48.41-23.181 31.42-17.36 57.232-45.439 91.567-55.873 27.639-8.397 57.543-4.267 85.493 2.915 27.95 7.181 55.324 17.287 83.968 20.933 29.539 3.737 61.946 1.123 86.352 18.219 20.259 14.199 30.215 39.29 33.448 63.822 3.234 24.533.813 49.395 1.873 74.092 1.068 23.94 5.334 48.463-1.206 71.507z" opacity=".24"/>
                        <path fill="#4EAEF9" fill-rule="nonzero" d="M464 276.296c-7.757 11.97-18.797 21.644-31.584 28.673-17.81 9.755-26.216 28.645-46.165 35.39-13.574 4.576-28.21 4.722-42.515 4.164-22.078-.87-44.065-3.317-65.794-7.322-27.816-5.115-56.446-12.812-83.95-6.186-18.917 4.53-35.674 15.558-54.398 20.775-15.87 4.438-32.618 4.64-49.082 3.852-29.838-1.409-63.864-8.804-78.024-35.115-2.657-4.989-4.51-10.366-5.488-15.934 27.057-10.15 68.84-1.748 96.683-.055 120.402 7.313 240.492-32.324 360.317-28.242z" opacity=".51"/>
                        <ellipse cx="71.5" cy="328" fill="url(#nivsuwkywa)" fill-rule="nonzero" opacity=".37" rx="47.5" ry="7"/>
                        <path fill="#F5C7C8" fill-rule="nonzero" d="M60.09 318.114l-.09 5.423c1.806.567 3.716.614 5.544.136 2.673-.85 4.456-4.553 4.456-4.553l-.267-2.12-9.644 1.114z"/>
                        <path fill="#606161" fill-rule="nonzero" d="M59.011 323.972c-.054.783.087 1.567.41 2.282.59.904 1.492 1.557 2.53 1.833 1.89.558 3.85.83 5.818.807 3.069.11 6.137.128 9.196.083 1.374 0 2.968-.193 3.714-1.348.556-1.094.378-2.42-.446-3.327-.826-.868-1.825-1.549-2.932-1.999l-5.717-2.823c-.435-.251-.914-.413-1.411-.477-1.129-.064-2.03.853-2.95 1.513-1.51 1.067-3.354 1.546-5.19 1.347-2.448-.238-2.985-.926-3.022 2.109z"/>
                        <path fill="url(#05umwb3ijb)" fill-rule="nonzero" d="M59.011 323.972c-.054.783.087 1.567.41 2.282.59.904 1.492 1.557 2.53 1.833 1.89.558 3.85.83 5.818.807 3.069.11 6.137.128 9.196.083 1.374 0 2.968-.193 3.714-1.348.556-1.094.378-2.42-.446-3.327-.826-.868-1.825-1.549-2.932-1.999l-5.717-2.823c-.435-.251-.914-.413-1.411-.477-1.129-.064-2.03.853-2.95 1.513-1.51 1.067-3.354 1.546-5.19 1.347-2.448-.238-2.985-.926-3.022 2.109z" opacity=".37"/>
                        <path fill="#606161" fill-rule="nonzero" d="M66.72 234.217l2.726 31.135.554 52.213s-8.022 2.544-10.693.857l-3.924-44.8L43 236.423s16.098-8.26 23.72-2.207z"/>
                        <path fill="url(#w145snw0bc)" fill-rule="nonzero" d="M66.72 234.217l2.726 31.135.554 52.213s-8.022 2.544-10.693.857l-3.924-44.8L43 236.423s16.098-8.26 23.72-2.207z" opacity=".37"/>
                        <path fill="url(#nhe9lchx2d)" fill-rule="nonzero" d="M435 159.776L404.95 191.306 196.673 191.306 182.521 206 49 206 94.235 159.02 49 121 182.521 121 227.793 159.02 225.069 161.846 425.008 149.248z" opacity=".37"/>
                        <path fill="#4EAEF9" fill-rule="nonzero" d="M228 148.007L182.696 195 49 195 94.313 148.007 49 110 182.696 110z"/>
                        <path fill="url(#lexxa4lmve)" fill-rule="nonzero" d="M95.91 174.361c.15-2.317.112-4.644-.116-6.955-.368-4.446-.944-8.883-1.744-13.274-.27-1.464-1.051-3.31-2.516-3.118-.475.09-.913.321-1.259.663-2.238 1.9-3.37 4.846-3.864 7.756-.495 2.909-.414 5.9-.702 8.837-.458 4.65-1.807 9.164-3.972 13.292-1.942 3.71-4.288 13.22-4.737 13.383 0-.191 11.891.19 12.727 0 0-.027 5.708-14.874 6.184-20.584z" opacity=".37"/>
                        <path fill="#4EAEF9" fill-rule="nonzero" d="M331 147.954L295.569 185 191 185 226.44 147.954 191 118 295.569 118z"/>
                        <path fill="url(#os7eh1tz1f)" fill-rule="nonzero" d="M331 147.954L295.569 185 191 185 226.44 147.954 191 118 295.569 118z" opacity=".37"/>
                        <path fill="#4EAEF9" fill-rule="nonzero" d="M436 147.954L400.569 185 296 185 331.44 147.954 296 118 400.569 118z"/>
                        <path fill="url(#2gppirj3tg)" fill-rule="nonzero" d="M436 147.954L400.569 185 296 185 331.44 147.954 296 118 400.569 118z" opacity=".37"/>
                        <path fill="#FFF" fill-rule="nonzero" d="M154 155L124 155 126.897 129 150.128 129z"/>
                        <path stroke="#FFF" stroke-width="3.07" d="M132 129.675s.084-6.899 5.967-7.631C143.85 121.31 145 130 145 130"/>
                        <path fill="#FFF" fill-rule="nonzero" d="M276 145L276 163 245 163 245 145 256.388 145 256.388 149.05 263.298 149.05 263.298 145zM278 136.009L278 144 263.767 144 263.767 136 256.899 136 256.899 144 244 144 244 136.009zM384.936 136h-31.024c-2.16 0-3.912 1.76-3.912 3.932v16.535c0 1.399 1.128 2.533 2.52 2.533h1.874c-.081-1.989.928-3.863 2.63-4.882 1.7-1.018 3.82-1.018 5.522 0 1.701 1.02 2.71 2.893 2.63 4.882h16.603c.119-2.916 2.505-5.218 5.408-5.218 2.904 0 5.29 2.302 5.409 5.218h2.73c1.476 0 2.674-1.204 2.674-2.689v-9.51c.001-.85-.364-1.657-1-2.214l-8.262-7.17c-1.058-.914-2.407-1.417-3.802-1.417zm-3.712 9.831v-7.106h6.823l8.661 7.106h-15.484z"/>
                        <path fill="#FFF" fill-rule="nonzero" d="M387.518 155c-1.824-.007-3.471 1.087-4.172 2.77-.701 1.683-.317 3.623.972 4.912 1.29 1.29 3.23 1.673 4.912.972 1.683-.701 2.777-2.348 2.77-4.172-.014-2.47-2.013-4.468-4.482-4.482zm.052 7.559c-1.21.007-2.304-.716-2.772-1.83-.469-1.116-.219-2.403.632-3.262.852-.86 2.137-1.12 3.256-.662 1.12.46 1.851 1.547 1.855 2.757.005 1.646-1.324 2.987-2.97 2.997zM359.5 155c-1.822 0-3.464 1.098-4.159 2.782-.695 1.684-.307 3.62.983 4.906 1.291 1.286 3.23 1.666 4.91.964 1.681-.702 2.773-2.348 2.766-4.17-.015-2.476-2.024-4.477-4.5-4.482zm-.062 7.559c-1.209.007-2.303-.716-2.772-1.831-.468-1.115-.219-2.402.633-3.261.851-.86 2.136-1.12 3.255-.662 1.12.459 1.852 1.547 1.855 2.756-.01 1.642-1.33 2.974-2.97 2.998z"/>
                        <text fill="#FFF" font-family="Helvetica" font-size="15.17">
                            <tspan x="118" y="172">ORDER</tspan>
                        </text>
                        <text fill="#FFF" font-family="Helvetica" font-size="9.22">
                            <tspan x="221" y="177">ITEM BEING</tspan>
                        </text>
                        <text fill="#FFF" font-family="Helvetica" font-size="9.22">
                            <tspan x="331" y="177">ORDER IS ON </tspan> <tspan x="331" y="188">I</tspan>
                        </text>
                        <path fill="#FFF" fill-rule="nonzero" d="M258 135H263V148H258z"/>
                        <path fill="#F5C7C8" fill-rule="nonzero" d="M40.473 316.453L40 322.535c1.403 1.126 3.204 1.636 4.99 1.414 2.82-.453 5.01-3.916 5.01-3.916V316l-9.527.453zM75 185.814s8.148-14.433 9.207-18.57c1.06-4.136 3.205-14.781 3.205-14.781s1.43-1.582 2.29 1.103c.86 2.684 2.897 4.716 2.128 8.365-.77 3.65.217 6.104-.426 9.303-.643 3.2-8.836 7.355-10.465 15.766"/>
                        <path fill="#FFF" fill-rule="nonzero" d="M81 173.316L81.848 171 89 176.471 87.737 178z"/>
                        <path fill="#4EAEF9" fill-rule="nonzero" d="M56.323 179.61l13.988 14.17L81.22 174c2.377 1.508 4.642 3.18 6.779 5.004 0 0-6.53 20.657-13.712 28.221-3.49 3.62-19.288-6.614-19.288-6.614"/>
                        <path fill="url(#672ol27w8h)" fill-rule="nonzero" d="M56.323 179.61l13.988 14.17L81.22 174c2.377 1.508 4.642 3.18 6.779 5.004 0 0-6.53 20.657-13.712 28.221-3.49 3.62-19.288-6.614-19.288-6.614" opacity=".37"/>
                        <path fill="#606161" fill-rule="nonzero" d="M62 234.193l-3.086 31.802-8.039 51.664s-8.473 1.205-10.875-.913l3.456-44.882-.998-37.561s12.908-7.358 19.542-.11zM39.011 323.97c-.054.78.087 1.563.41 2.276.588.908 1.49 1.562 2.53 1.836 1.89.562 3.85.837 5.818.817 3.069.1 6.128.128 9.196.073 1.374 0 2.968-.183 3.714-1.35.556-1.095.378-2.424-.446-3.331-.835-.857-1.836-1.532-2.94-1.983l-5.718-2.827c-.435-.25-.915-.412-1.411-.478-1.13-.064-2.03.863-2.95 1.524-1.514 1.059-3.358 1.528-5.19 1.322-2.44-.239-2.94-.918-3.013 2.12z"/>
                        <path fill="url(#dfnng9jizi)" fill-rule="nonzero" d="M62 234.193l-3.086 31.802-8.039 51.664s-8.473 1.205-10.875-.913l3.456-44.882-.998-37.561s12.908-7.358 19.542-.11z" opacity=".37"/>
                        <path fill="#F5C7C8" fill-rule="nonzero" d="M62.135 170.69l-.652.54c-.356.317-.759.578-1.196.774-.8.306-2.087.045-2.758.63-.672.584-.616 2.653-.653 3.544-.079 1.617.05 3.237.386 4.822 0 0-9.195-1.62-11.954-4.003 0 0 1.959-5.632.92-8.672-1.04-3.041-3.568-7.917-1.333-12.064 2.234-4.147 6.436-8.376 12.652-8.259 2.878.054 5.765.837 6.915 3.68.717 1.799.533 3.688.469 5.55-.083 2.636-.175 5.263-.258 7.899.032 1.044-.137 2.084-.496 3.068-.472.975-1.171 1.828-2.042 2.491z"/>
                        <path fill="#4EAEF9" fill-rule="nonzero" d="M56.68 240.354c-2.261.516-4.584.725-6.903.62-2.781-.053-5.521-.674-8.044-1.823 0 0-1.626-22.443-2.713-39.437-.66-9.905-1.115-17.969-1.003-18.661.316-1.932 4.765-7.053 7.682-7.053 2.917 0 12.495 4.283 12.495 4.283l9.79 56.704s.911 2.679-11.305 5.367z"/>
                        <path fill="url(#bhpudbaxlj)" fill-rule="nonzero" d="M53.973 236.255c.2 1.697-.713 3.335-2.289 4.103-.584.307-1.214.524-1.868.642-2.797-.052-5.551-.668-8.089-1.807 0 0-1.634-22.26-2.727-39.114.775-.777 1.579-1.491 2.064-1.916.486-.425 4.306-2.63 4.334-3.163-.685 8.228-.81 16.491-.373 24.735.112 2.223.401 4.718 2.204 6.137 1.644 1.3 4.362 1.473 5.165 3.389.523 1.165 0 2.52.318 3.741.317 1.22 1.036 2.115 1.26 3.253z" opacity=".37"/>
                        <path fill="#292F67" fill-rule="nonzero" d="M69.3 144.576c1.514 3.211.505 7.056-2.386 9.09-2.594 1.908-5.125-2.137-9.764-.7-4.639 1.436-3.603 6.89-3.855 10.99l-1.081-.255s.108-6.418-1.46-6.472c-3.278-.127-4.242 2.427-1.693 6.954l-.64 4.799L46.82 170s-1.315-1.89-2.396-3.327c-3.279-4.181-4.729-12.671-1.964-17.761s8.179-6.809 10.665-5.845c2.486.963 12.457-6.109 16.177 1.509z"/>
                        <path fill="#FFF" fill-rule="nonzero" d="M58.249 178.768L59 181 42 175.089 44.491 171z"/>
                        <path fill="#F5C7C8" fill-rule="nonzero" d="M42.054 224s1.872 2.862 2.64 3.057c.767.195 1.132-.855 3.08.326 1.947 1.18 3.52 1.059 3.36 1.784-.159.725-1.114.213-1.816.539-.702.325-.72 1.728 1.358 2.174 2.078.446 3.323-.576 3.323.437s.066 4.711-.88 5.213c-.945.502-6.44.93-8.08-.539-1.637-1.468-3.453-5.306-4.848-5.929-1.395-.622-2.191-4.107-2.191-4.107"/>
                        <path fill="#4EAEF9" fill-rule="nonzero" d="M41.896 176s-4.193.33-19.321 26.832c-4.139 7.261 15.428 28.164 15.428 28.164s6.035.293 6.679-3.984c0 0-10.527-18.865-10.21-21.114.318-2.249 10.89-12.08 10.518-16.376-.372-4.296 1.126-13.338-3.094-13.522z"/>
                        <path fill="#606161" fill-rule="nonzero" d="M69.3 144.576c1.514 3.211.505 7.056-2.386 9.09-2.594 1.908-5.125-2.137-9.764-.7-4.639 1.436-3.603 6.89-3.855 10.99l-1.081-.255s.108-6.418-1.46-6.472c-3.278-.127-4.242 2.427-1.693 6.954l-.64 4.799L46.82 170s-1.315-1.89-2.396-3.327c-3.279-4.181-4.729-12.671-1.964-17.761s8.179-6.809 10.665-5.845c2.486.963 12.457-6.109 16.177 1.509z"/>
                        <path fill="url(#ax1hz0wq0k)" fill-rule="nonzero" d="M69.3 144.576c1.514 3.211.505 7.056-2.386 9.09-2.594 1.908-5.125-2.137-9.764-.7-4.639 1.436-3.603 6.89-3.855 10.99l-1.081-.255s.108-6.418-1.46-6.472c-3.278-.127-4.242 2.427-1.693 6.954l-.64 4.799L46.82 170s-1.315-1.89-2.396-3.327c-3.279-4.181-4.729-12.671-1.964-17.761s8.179-6.809 10.665-5.845c2.486.963 12.457-6.109 16.177 1.509z" opacity=".37"/>
                        <path fill="#F5C7C8" fill-rule="nonzero" d="M61 168.95c-1.794-.194-3.551-.645-5.22-1.338-2.272-1.044-2.454-.677-2.727.532-.297 1.544.684 3.045 2.21 3.38 1.818.421 4.4.724 4.61.192.469-.88.847-1.807 1.127-2.766z"/>
                        <path fill="#FFF" fill-rule="nonzero" d="M45.526 226s-.742 2.749-2.804 3.824c-1.476.655-3.112.898-4.722.7l1.436 2.357s.828.635 4.24-1.029c3.41-1.664 3.324-4.431 3.324-4.431L45.526 226z"/>
                        <path fill="url(#s0sfcirtkl)" fill-rule="nonzero" d="M39.012 323.97c-.056.782.088 1.566.418 2.276.585.907 1.485 1.561 2.522 1.836 1.893.557 3.856.832 5.827.817 3.059.1 6.127.128 9.186.073 1.374 0 2.977-.183 3.714-1.35.556-1.095.378-2.424-.446-3.331-.839-.861-1.847-1.537-2.959-1.983l-5.717-2.827c-.434-.253-.914-.415-1.411-.478-1.13-.064-2.03.854-2.94 1.524-1.512 1.049-3.348 1.515-5.172 1.313-2.449-.23-2.968-.918-3.022 2.13z" opacity=".37"/>
                    </g>
                </g>
            </g>
        </g>
    </g>
</svg>
