<svg xmlns="http://www.w3.org/2000/svg" width="18" height="18" viewBox="0 0 18 18">
    <g fill="#B7BCD6">
        <path d="M7 8.802L2.757 8.802 4.698 6.965 3.679 6 0 9.482 3.676 13 4.701 12.041 2.743 10.167 7 10.167zM14.321 6L13.302 6.965 15.243 8.802 11 8.802 11 10.167 15.257 10.167 13.299 12.041 14.324 13 18 9.482z"/>
        <path d="M18 5.098V2.109C18 .946 17.054 0 15.89 0H2.11C.945 0 0 .946 0 2.11v2.988h1.406V2.109c0-.387.316-.703.703-.703h6.188v15.188H2.109c-.387 0-.703-.316-.703-.703v-3.024H0v3.024C0 17.054.946 18 2.11 18h13.78c1.164 0 2.11-.946 2.11-2.11v-3.023h-1.406v3.024c0 .387-.316.703-.703.703H9.703V1.406h6.188c.387 0 .703.316.703.703v2.989H18z"/>
    </g>
</svg>
