<svg xmlns="http://www.w3.org/2000/svg" width="15" height="15" viewBox="0 0 15 15">
    <g fill="none" fill-rule="evenodd">
        <g fill="#B7BCD6" fill-rule="nonzero">
            <g>
                <g>
                    <g>
                        <g>
                            <g>
                                <g>
                                    <g>
                                        <path d="M11.05 14h-9.1C.875 14 0 13.125 0 12.05v-9.1C0 1.875.875 1 1.95 1h5.2c.359 0 .65.29.65.65 0 .36-.291.65-.65.65h-5.2c-.358 0-.65.291-.65.65v9.1c0 .359.292.65.65.65h9.1c.358 0 .65-.291.65-.65v-5.2c0-.36.291-.65.65-.65.359 0 .65.29.65.65v5.2c0 1.075-.875 1.95-1.95 1.95z" transform="translate(-81 -549) translate(36 195) translate(0 65) translate(1 266) translate(20 9) translate(24 14) translate(0 1)"/>
                                        <path d="M13.385 0H9.692c-.248 0-.473.15-.568.38-.096.23-.043.495.133.67l1.411 1.412L6.18 6.95c-.24.24-.24.63 0 .87.12.12.278.18.435.18.158 0 .316-.06.436-.18l4.488-4.488 1.41 1.41c.118.118.276.181.436.181.08 0 .159-.015.235-.047.23-.094.38-.32.38-.568V.615c0-.34-.276-.615-.615-.615z" transform="translate(-81 -549) translate(36 195) translate(0 65) translate(1 266) translate(20 9) translate(24 14) translate(0 1)"/>
                                    </g>
                                </g>
                            </g>
                        </g>
                    </g>
                </g>
            </g>
        </g>
    </g>
</svg>
