<svg xmlns="http://www.w3.org/2000/svg" width="15" height="15" viewBox="0 0 15 15">
    <g fill="#FFF">
        <path d="M11.84 15H2.09C.936 15 0 14.063 0 12.91V3.16C0 2.01.937 1.072 2.09 1.072h5.57c.385 0 .697.312.697.697 0 .385-.312.696-.696.696H2.089c-.383 0-.696.312-.696.697v9.75c0 .384.313.696.696.696h9.75c.384 0 .697-.312.697-.696V7.339c0-.385.312-.696.696-.696.385 0 .697.311.697.696v5.572c0 1.152-.938 2.089-2.09 2.089z"/>
        <path d="M14.34 0h-3.955c-.267 0-.507.16-.61.407-.102.246-.045.53.144.718l1.511 1.512-4.808 4.809c-.258.258-.258.675 0 .932.128.129.297.193.466.193.169 0 .338-.064.466-.193l4.809-4.808 1.512 1.512c.125.126.294.193.466.193.085 0 .17-.016.252-.05.246-.102.407-.343.407-.61V.66C15 .295 14.705 0 14.34 0z"/>
    </g>
</svg>
