<svg xmlns="http://www.w3.org/2000/svg" width="24" height="24" viewBox="0 0 24 24">
    <g fill="#BFC5D2" fill-rule="evenodd">
        <path fill-rule="nonzero" d="M23.25 24h-4c-.414 0-.75-.42-.75-.938V21.5h-3v1.563c0 .517-.336.937-.75.937h-5.5c-.414 0-.75-.42-.75-.938V21.5h-3v1.563c0 .517-.336.937-.75.937h-4c-.414 0-.75-.42-.75-.938V19h24v4.063c0 .517-.336.937-.75.937zM16 0h-3v2c0 .552-.448 1-1 1s-1-.448-1-1V0H8c-.552 0-1 .448-1 1v6c0 .552.448 1 1 1h8c.552 0 1-.448 1-1V1c0-.552-.448-1-1-1zM10 10H7v2c0 .552-.448 1-1 1s-1-.448-1-1v-2H2c-.552 0-1 .448-1 1v6c0 .552.448 1 1 1h8c.552 0 1-.448 1-1v-6c0-.552-.448-1-1-1zM22 10h-3v2c0 .552-.448 1-1 1s-1-.448-1-1v-2h-3c-.552 0-1 .448-1 1v6c0 .552.448 1 1 1h8c.552 0 1-.448 1-1v-6c0-.552-.448-1-1-1z"/>
    </g>
</svg>
