<svg xmlns="http://www.w3.org/2000/svg" width="18" height="16" viewBox="0 0 18 16">
    <g fill="none" fill-rule="evenodd">
        <g fill="#FFF" fill-rule="nonzero">
            <g>
                <g>
                    <g>
                        <g>
                            <path d="M7 12v3.443c0 .24.102.454.254.53.038.018.076.027.115.027.115 0 .226-.082.297-.227L9 13.032 7 12z" transform="translate(-1563 -408) translate(305 312) translate(1246) translate(12 96)"/>
                            <path d="M17.764.104c-.173-.122-.4-.138-.587-.04L.302 8.876c-.2.105-.317.318-.3.542.017.225.166.417.378.49l4.692 1.603 9.99-8.542-7.73 9.314 7.861 2.687c.059.02.12.03.182.03.102 0 .203-.028.292-.082.143-.087.24-.233.264-.397L17.994.646c.03-.21-.058-.419-.23-.542z" transform="translate(-1563 -408) translate(305 312) translate(1246) translate(12 96)"/>
                        </g>
                    </g>
                </g>
            </g>
        </g>
    </g>
</svg>
