<svg xmlns="http://www.w3.org/2000/svg" width="18" height="17" viewBox="0 0 18 17">
    <g fill="none" fill-rule="evenodd">
        <g fill="#B7BCD6" fill-rule="nonzero">
            <g>
                <g>
                    <g>
                        <g>
                            <g>
                                <path d="M16.474 1.437c-1.972-1.916-5.126-1.916-7.099.001L1.103 9.65c-1.495 1.52-1.467 3.956.064 5.441 1.506 1.461 3.91 1.461 5.417 0l7.49-7.436c.974-.967.974-2.534 0-3.501-.974-.967-2.552-.967-3.526 0l-7.165 7.113c-.25.257-.243.666.016.914.253.242.653.242.905 0l7.165-7.113c.475-.452 1.23-.436 1.684.036.442.458.442 1.18 0 1.637l-7.49 7.436c-1.012.99-2.641.979-3.639-.026-.987-.994-.987-2.592 0-3.586l8.272-8.213C11.77.89 14.16.89 15.633 2.352c1.474 1.462 1.475 3.834.001 5.298l-8.272 8.212c-.273.232-.305.64-.07.912.233.271.644.303.917.07.026-.021.05-.045.072-.07l8.272-8.213c1.96-1.988 1.925-5.178-.079-7.124z" transform="translate(-1308.000000, -1068.000000) translate(718.000000, 106.000000) translate(0.000000, 38.000000) translate(42.000000, 109.000000) translate(0.000000, 799.000000) translate(548.000000, 16.000000)"/>
                            </g>
                        </g>
                    </g>
                </g>
            </g>
        </g>
    </g>
</svg>
