<svg width="15" height="20" viewBox="0 0 15 20" fill="none" xmlns="http://www.w3.org/2000/svg">
<path fill-rule="evenodd" clip-rule="evenodd" d="M0 6.66668C0 2.99074 3.36458 0 7.5 0C11.6354 0 15 2.99074 15 6.66664C15 7.77016 14.6896 8.86434 14.1018 9.83152L7.91014 19.7852C7.82774 19.9178 7.67073 20 7.5 20C7.32927 20 7.17226 19.9178 7.08986 19.7852L0.900438 9.8348C0.310385 8.86434 0 7.7702 0 6.66668ZM3.75002 6.66668C3.75002 8.50465 5.43229 10 7.5 10C9.56771 10 11.25 8.50465 11.25 6.66668C11.25 4.82871 9.56771 3.33336 7.5 3.33336C5.43229 3.33336 3.75002 4.82871 3.75002 6.66668Z" fill="#B7BCD6"/>
</svg>
