<svg xmlns="http://www.w3.org/2000/svg" width="17" height="16" viewBox="0 0 17 16">
    <g fill="#B7BCD6">
        <path d="M11.438 13H6.563c-.311 0-.563.224-.563.5s.252.5.563.5h4.874c.311 0 .563-.224.563-.5s-.252-.5-.562-.5zM11.438 11H6.563c-.311 0-.563.224-.563.5s.252.5.563.5h4.874c.311 0 .563-.224.563-.5s-.252-.5-.562-.5z"/>
        <path d="M15.678 3.895h-1.803V.574c0-.317-.254-.574-.567-.574H3.692c-.313 0-.567.257-.567.574v3.32H1.322C.593 3.895 0 4.497 0 5.235v5.773c0 .738.593 1.339 1.322 1.339h1.803v3.08c0 .317.254.574.567.574h9.616c.313 0 .567-.257.567-.574v-3.08h1.803c.729 0 1.322-.6 1.322-1.34V5.235c0-.738-.593-1.34-1.322-1.34zM4.258 1.148h8.483v2.747H4.26V1.148zm8.483 13.704H4.26v-4.694h8.482v4.694zm.567-7.588h-1.442c-.313 0-.567-.257-.567-.573 0-.317.254-.574.567-.574h1.442c.313 0 .567.257.567.574 0 .316-.254.573-.567.573z"/>
    </g>
</svg>
