<svg xmlns="http://www.w3.org/2000/svg" width="25" height="10" viewBox="0 0 25 10">
    <path fill="#B7BCD6" d="M24.795 4.497L20.452.205c-.265-.262-.731-.262-.996 0l-.38.374c-.273.272-.273.731.001 1.003l2.462 2.45H3.451L5.925 1.57c.275-.272.275-.722 0-.994L5.547.198C5.28-.065 4.815-.067 4.55.196L.205 4.488c-.136.135-.208.314-.205.498-.004.192.07.372.205.506l4.343 4.292c.265.263.731.263.997 0l.378-.374c.275-.272.275-.692 0-.964L3.39 5.963h18.23l-2.545 2.495c-.132.13-.206.295-.206.482 0 .186.073.356.206.487l.379.371c.132.131.31.202.498.202.189 0 .366-.073.499-.204l4.344-4.294c.136-.134.208-.314.205-.499.004-.192-.07-.371-.205-.506z"/>
</svg>
