<svg xmlns="http://www.w3.org/2000/svg" width="14" height="14" viewBox="0 0 14 14">
    <g fill="none" fill-rule="evenodd">
        <g fill="#109CF1" fill-rule="nonzero">
            <g>
                <g>
                    <g>
                        <g>
                            <path d="M8.313 0H.436C.197 0 0 .197 0 .438 0 .68.196.875.438.875h.437v1.613c0 1.051.41 2.04 1.153 2.784l.853.853-.853.853C1.284 7.723.875 8.711.875 9.762v1.613H.437c-.241 0-.437.196-.437.438 0 .241.196.437.438.437h4.681c.241 0 .437-.196.437-.438 0-.241-.196-.437-.437-.437H1.75V9.762c0-.818.318-1.587.897-2.165L3.81 6.435c.081-.082.127-.194.127-.31 0-.115-.046-.228-.127-.31L2.647 4.653c-.579-.578-.897-1.347-.897-2.165V.875H7v1.61c0 .808-.326 1.598-.895 2.167L4.94 5.816c-.17.17-.17.448 0 .619l.691.691c.085.085.197.128.31.128.111 0 .223-.043.309-.128.17-.17.17-.448 0-.619l-.382-.382.854-.855c.732-.731 1.152-1.747 1.152-2.785V.875h.438c.241 0 .437-.196.437-.438C8.75.197 8.554 0 8.312 0z" transform="translate(-820 -283) translate(318 195) translate(22 85) translate(480 3)"/>
                            <path d="M5.688 1.75H3.063c-.242 0-.438.196-.438.438v.3c0 .583.228 1.133.64 1.547l.801.8c.082.082.194.128.309.128.116 0 .228-.046.31-.129l.8-.8c.412-.412.64-.962.64-1.546v-.3c0-.242-.196-.438-.438-.438z" transform="translate(-820 -283) translate(318 195) translate(22 85) translate(480 3)"/>
                            <path d="M5.27 7.82H3.098c-.2 0-.363.162-.363.361v.248c0 .482.189.936.53 1.277l.664.661c.067.067.16.106.256.106s.188-.039.256-.107l.662-.66c.342-.34.53-.794.53-1.277v-.248c0-.199-.161-.36-.361-.36z" transform="translate(-820 -283) translate(318 195) translate(22 85) translate(480 3) rotate(180 4.184 9.146)"/>
                            <path d="M10.063 6.125c-2.171 0-3.938 1.767-3.938 3.938 0 2.17 1.767 3.937 3.938 3.937C12.232 14 14 12.233 14 10.062c0-2.17-1.767-3.937-3.938-3.937zm0 7C8.373 13.125 7 11.751 7 10.062 7 8.374 8.374 7 10.063 7c1.688 0 3.062 1.374 3.062 3.063 0 1.688-1.374 3.062-3.063 3.062z" transform="translate(-820 -283) translate(318 195) translate(22 85) translate(480 3)"/>
                            <path d="M11.685 11.066L10.5 9.881V8.312c0-.241-.196-.437-.438-.437-.241 0-.437.196-.437.438v1.75c0 .116.046.227.128.31l1.312 1.312c.086.085.198.127.31.127.112 0 .224-.042.31-.127.17-.17.17-.448 0-.619z" transform="translate(-820 -283) translate(318 195) translate(22 85) translate(480 3)"/>
                        </g>
                    </g>
                </g>
            </g>
        </g>
    </g>
</svg>
