<svg xmlns="http://www.w3.org/2000/svg" width="20" height="20" viewBox="0 0 20 20">
    <g fill="#FFF">
        <path d="M5 14H15V16H5zM5 18L5 19 5 20 15 20 15 19 15 18z"/>
        <path d="M19.818 5.228L16.165.363C15.993.135 15.724 0 15.438 0h-1.499V7.576c0 .502-.407.909-.909.909H4.545c-.502 0-.909-.407-.909-.91V0H.91C.407 0 0 .407 0 .91v18.18c0 .503.407.91.91.91h2.726V13.636c0-.502.407-.909.91-.909h10.909c.502 0 .909.407.909.91V20h2.727c.502 0 .909-.407.909-.91V5.775c0-.197-.064-.388-.182-.546z"/>
        <path d="M5 0L5 0.955 5 1.909 5 7 12 7 12 1.909 12 0.955 12 0z"/>
    </g>
</svg>
