<svg xmlns="http://www.w3.org/2000/svg" width="14" height="16" viewBox="0 0 14 16">
    <g fill="#B7BCD6">
        <path d="M13 3c0 1.105-.895 2-2 2s-2-.895-2-2 .895-2 2-2 2 .895 2 2z"/>
        <path d="M11.5 5C10.121 5 9 3.879 9 2.5S10.121 0 11.5 0 14 1.121 14 2.5 12.879 5 11.5 5zm0-4.063c-.862 0-1.562.702-1.562 1.563s.7 1.563 1.562 1.563c.862 0 1.562-.702 1.562-1.563S12.362.937 11.5.937zM13 13c0 1.105-.895 2-2 2s-2-.895-2-2 .895-2 2-2 2 .895 2 2z"/>
        <path d="M11.5 16C10.121 16 9 14.879 9 13.5s1.121-2.5 2.5-2.5 2.5 1.121 2.5 2.5-1.121 2.5-2.5 2.5zm0-4.063c-.862 0-1.562.702-1.562 1.563s.7 1.563 1.562 1.563c.862 0 1.562-.702 1.562-1.563s-.7-1.563-1.562-1.563zM5 8c0 1.105-.895 2-2 2s-2-.895-2-2 .895-2 2-2 2 .895 2 2z"/>
        <path d="M2.5 10C1.12 10 0 8.879 0 7.5S1.121 5 2.5 5 5 6.121 5 7.5 3.879 10 2.5 10zm0-4.062c-.862 0-1.563.7-1.563 1.562 0 .861.701 1.562 1.563 1.562s1.563-.7 1.563-1.562c0-.861-.701-1.562-1.563-1.562z"/>
        <path d="M4.621 8c-.216 0-.426-.124-.54-.346-.17-.329-.065-.748.232-.936l5.76-3.627c.296-.189.676-.074.846.256.17.329.065.748-.232.936L4.927 7.91c-.096.061-.202.09-.306.09z"/>
        <path d="M10.379 13c-.104 0-.21-.029-.307-.09L4.313 9.282c-.297-.187-.401-.606-.232-.935.169-.33.549-.445.847-.256l5.759 3.627c.297.187.401.606.232.936-.115.222-.325.346-.54.346z"/>
    </g>
</svg>
