<svg xmlns="http://www.w3.org/2000/svg" width="20" height="20" viewBox="0 0 20 20">
    <g fill="#FFF">
        <path d="M15.833 11.382L13.54 10.05c-.165-.096-.387-.046-.488.109-.102.154-.048.365.115.46l2.293 1.333c.165.096.387.047.488-.109.101-.155.05-.364-.115-.46zM11.503 9c-.32 0-.563.304-.49.615.03.124.115.236.228.307.077.049.168.078.261.078.176 0 .337-.088.429-.237.196-.318-.05-.763-.428-.763zM7.946 10.152c-.1-.15-.332-.198-.491-.104l-2.29 1.345c-.164.097-.215.304-.111.457.062.093.183.147.302.15.067.002.134-.013.19-.046l2.289-1.345c.165-.097.215-.304.111-.457zM8.5 9c-.233 0-.437.163-.488.39-.07.308.174.61.488.61.232 0 .437-.163.488-.39.07-.31-.172-.61-.489-.61z"/>
        <path d="M19.904 17.792c-.141-.163-.388-.18-.55-.038-.417.362-.803.738-1.35.889-.607.167-1.184.035-1.734-.24l2.034-6.845c.05-.17-.02-.354-.172-.446l-1.882-1.14v-3.33c0-.216-.175-.391-.39-.391h-.782V5.079c0-.216-.175-.391-.39-.391h-1.231V3.516c0-.216-.175-.39-.39-.39h-1.895V.39c0-.216-.175-.391-.39-.391H9.218c-.216 0-.39.175-.39.39v2.735H6.933c-.216 0-.391.175-.391.391v1.172h-1.23c-.216 0-.391.175-.391.39v1.173H4.14c-.216 0-.391.175-.391.39v3.33l-1.882 1.141c-.152.092-.223.275-.172.446l2.03 6.831c-.035-.117-.66-.193-.77-.208-1.138-.147-2.002.423-2.822 1.135-.162.142-.18.389-.038.552.135.155.386.181.55.038.845-.734 1.797-1.293 2.913-.735 1.01.506 2.056.722 3.109.168.848-.446 1.667-.832 2.614-.381l.974.464c.833.396 1.784.387 2.61-.025.508-.255 1.025-.593 1.605-.633.57-.04 1.12.173 1.62.423.661.33 1.435.397 2.145.194.653-.186 1.129-.602 1.63-1.038.162-.141.18-.388.038-.55zM15.47 7.032v2.466l-4.07-2.466h4.07zM9.609.782h.782v2.343h-.782V.781zM7.324 3.906h5.352v.78H7.324v-.78zM4.531 7.032h4.07l-4.07 2.466V7.032zM9.61 18.248c0-.069-.556-.197-.63-.213-.68-.147-1.409-.054-2.025.27-.448.236-.879.51-1.39.577H5.56c-.299.036-.605.014-.894-.07L2.53 11.624l7.078-4.29v10.914zM5.703 6.251v-.782h8.594v.782H5.703zm9.845 11.839c.004-.12-1.096-.12-1.17-.112-.677.072-1.264.42-1.862.72-.707.353-1.434.252-2.125-.078V7.335l7.078 4.29-1.921 6.465z"/>
    </g>
</svg>
