<svg xmlns="http://www.w3.org/2000/svg" width="23" height="23" viewBox="0 0 23 23">
    <g fill="none" fill-rule="evenodd">
        <g fill="#109CF1" fill-rule="nonzero">
            <g>
                <g>
                    <g>
                        <g>
                            <path d="M21.205 14.666c-.322.204-.555.35-1.08.35-.526 0-.759-.146-1.08-.35-.252-.159-.544-.342-.96-.454l1.21-4.919c.24-.978-.324-1.96-1.284-2.235l-.806-.23V2.543h-3.347V0H9.142v2.543H5.794v4.32l-.679.199c-.93.272-1.494 1.235-1.282 2.19l1.097 4.956c-.424.111-.72.297-.975.458-.322.204-.555.35-1.08.35-.526 0-.758-.146-1.08-.35C1.4 14.418.912 14.11 0 14.11v1.362c.525 0 .758.147 1.08.35.394.249.883.558 1.795.558.912 0 1.401-.31 1.794-.558.323-.203.555-.35 1.08-.35.526 0 .76.147 1.081.35.393.249.883.558 1.795.558.912 0 1.401-.31 1.794-.558.322-.203.555-.35 1.08-.35.526 0 .759.147 1.081.35.393.249.883.558 1.795.558.912 0 1.401-.31 1.794-.558.322-.203.555-.35 1.08-.35.526 0 .759.147 1.081.35.393.249.883.558 1.795.558.912 0 1.401-.31 1.794-.558.323-.203.555-.35 1.081-.35v-1.362c-.912 0-1.401.309-1.795.557zm-3.219-5.7l-.37 1.508-5.442-2.498V6.803l5.47 1.566c.256.073.406.335.342.596zM10.49 1.361h2.022v1.18h-2.022v-1.18zM7.142 3.905h8.715v2.537l-4.36-1.248L7.143 6.47V3.905zM5.49 8.37l5.336-1.561v1.167L5.475 10.43l-.327-1.475c-.056-.255.094-.512.342-.585zm4.215 6.296c-.322.203-.555.35-1.08.35-.526 0-.758-.146-1.08-.35-.306-.193-.671-.422-1.246-.515l-.523-2.363 5.05-2.316v4.702c-.504.104-.838.313-1.12.492zm5.75 0c-.322.204-.555.35-1.08.35-.526 0-.759-.146-1.08-.35-.284-.179-.617-.388-1.122-.492V9.472l5.112 2.347-.572 2.33c-.582.092-.95.323-1.258.517zM20.125 18.26c-.526 0-.759-.135-1.08-.322-.394-.229-.883-.514-1.795-.514-.912 0-1.402.285-1.795.514-.322.187-.555.323-1.08.323-.526 0-.759-.136-1.08-.323-.394-.229-.883-.514-1.795-.514-.912 0-1.402.285-1.795.514-.322.187-.555.323-1.08.323-.526 0-.758-.136-1.08-.323-.394-.229-.883-.514-1.795-.514-.912 0-1.402.285-1.795.514-.322.187-.555.323-1.08.323-.526 0-.758-.136-1.08-.323-.394-.229-.883-.514-1.795-.514v1.255c.525 0 .758.135 1.08.323.394.228.883.513 1.795.513.912 0 1.401-.285 1.794-.513.323-.188.555-.323 1.08-.323.526 0 .76.135 1.081.323.393.228.883.513 1.795.513.912 0 1.401-.285 1.794-.513.322-.188.555-.323 1.08-.323.526 0 .759.135 1.081.323.393.228.883.513 1.795.513.912 0 1.401-.285 1.794-.513.322-.188.555-.323 1.08-.323.526 0 .759.135 1.081.323.393.228.883.513 1.795.513.912 0 1.401-.285 1.794-.513.323-.188.555-.323 1.081-.323v-1.255c-.912 0-1.401.285-1.795.514-.322.187-.555.323-1.08.323zM14.59 21.745c-.534 0-.77-.135-1.097-.322-.4-.23-.896-.514-1.821-.514-.926 0-1.423.285-1.822.514-.327.187-.563.322-1.096.322-.534 0-.77-.135-1.097-.322-.399-.23-.896-.514-1.821-.514v1.255c.533 0 .77.135 1.096.322.4.23.896.514 1.822.514.925 0 1.422-.285 1.821-.514.327-.187.563-.322 1.097-.322.533 0 .77.135 1.096.322.4.23.896.514 1.821.514.926 0 1.423-.285 1.822-.514.327-.187.563-.322 1.096-.322v-1.255c-.925 0-1.422.285-1.821.514-.327.187-.563.322-1.097.322z" transform="translate(-345 -695) translate(305 98) translate(0 2) translate(40 595)"/>
                        </g>
                    </g>
                </g>
            </g>
        </g>
    </g>
</svg>
