<svg xmlns="http://www.w3.org/2000/svg" width="23" height="23" viewBox="0 0 23 23">
    <g fill="#FFF">
        <path d="M22.265 23h-10.53c-.406 0-.735-.336-.735-.75v-10.5c0-.414.33-.75.735-.75h10.53c.406 0 .735.336.735.75v10.5c0 .414-.33.75-.735.75zm-9.796-1.5h9.062v-9h-9.062v9z"/>
        <path d="M16.25 12H5.75c-.414 0-.75-.323-.75-.72V.72c0-.397.336-.72.75-.72h10.5c.414 0 .75.323.75.72v10.56c0 .397-.336.72-.75.72zM6.5 10.56h9V1.44h-9v9.12z"/>
        <path d="M12.25 6h-2.5C9.336 6 9 5.597 9 5.1V.9c0-.497.336-.9.75-.9h2.5c.414 0 .75.403.75.9v4.2c0 .497-.336.9-.75.9zM10.5 4.2h1V1.8h-1v2.4zM18.25 17h-2.5c-.414 0-.75-.403-.75-.9v-4.2c0-.497.336-.9.75-.9h2.5c.414 0 .75.403.75.9v4.2c0 .497-.336.9-.75.9zm-1.75-1.8h1v-2.4h-1v2.4zM11.265 23H.735C.329 23 0 22.664 0 22.25v-10.5c0-.414.33-.75.735-.75h10.53c.406 0 .735.336.735.75v10.5c0 .414-.33.75-.735.75zM1.47 21.5h9.062v-9H1.469v9z"/>
        <path d="M7.25 17h-2.5c-.414 0-.75-.403-.75-.9v-4.2c0-.497.336-.9.75-.9h2.5c.414 0 .75.403.75.9v4.2c0 .497-.336.9-.75.9zM5.5 15.2h1v-2.4h-1v2.4z"/>
    </g>
</svg>
