<svg xmlns="http://www.w3.org/2000/svg" width="14" height="16" viewBox="0 0 14 16">
    <g fill="none" fill-rule="evenodd">
        <g fill="#156CE4" fill-rule="nonzero">
            <g>
                <g>
                    <g>
                        <g>
                            <g>
                                <path d="M13.526 7.13c-.263 0-.475.21-.475.47v1.636c0 .545-.448.989-1 .989H4.668c-.55 0-.999-.444-.999-.99V2.039c0-.523-.332-.998-.825-1.183L.643.031C.398-.061.123.06.03.303-.062.546.06.817.307.91l2.2.824c.127.048.212.17.212.305v9.916c0 1 .805 1.815 1.807 1.847-.086.193-.134.406-.134.63 0 .865.711 1.569 1.585 1.569s1.585-.704 1.585-1.568c0-.224-.048-.437-.134-.63h2.832c-.085.193-.133.406-.133.63 0 .864.71 1.568 1.585 1.568.874 0 1.585-.704 1.585-1.568 0-.865-.711-1.569-1.585-1.569H4.587c-.507 0-.919-.408-.919-.909V10.89c.292.173.634.274 1 .274h7.384c1.074 0 1.948-.865 1.948-1.928V7.6c0-.26-.212-.47-.474-.47zm-1.814 6.672c.35 0 .636.282.636.63 0 .347-.286.629-.636.629-.351 0-.636-.282-.636-.63 0-.347.285-.629.636-.629zm-5.735 0c.35 0 .636.282.636.63 0 .347-.285.629-.636.629-.35 0-.636-.282-.636-.63 0-.347.285-.629.636-.629z" transform="translate(-1368 -139) translate(291 122) translate(0 2) translate(1057) translate(20 15)"/>
                                <path d="M10.795 5.397c-.234-.169-.572-.132-.756.083l-.52.606V1.494c0-.273-.24-.494-.538-.494-.298 0-.539.221-.539.494v4.562l-.476-.571c-.181-.217-.52-.258-.755-.092-.236.167-.28.477-.1.694l1.436 1.72c.1.118.245.183.396.191L8.975 8h.011l.03-.001h.002c.149-.009.293-.072.392-.188l1.474-1.72c.185-.214.144-.525-.09-.694z" transform="translate(-1368 -139) translate(291 122) translate(0 2) translate(1057) translate(20 15)"/>
                            </g>
                        </g>
                    </g>
                </g>
            </g>
        </g>
    </g>
</svg>
