<svg xmlns="http://www.w3.org/2000/svg" width="22" height="18" viewBox="0 0 22 18">
    <g fill="#B7BCD6">
        <path d="M14.385 10.194v5.19H2.615V3.616h3.923V1h-5.23C.586 1 0 1.586 0 2.308v14.384C0 17.415.586 18 1.308 18h14.384c.723 0 1.308-.585 1.308-1.308v-6.498h-2.615z"/>
        <path d="M21.717 4.263L16.05.138c-.213-.157-.502-.182-.74-.065-.242.117-.393.355-.393.615V2.75h-2.125C8.495 2.75 5 6.142 5 10.313c0 .319.227.596.545.67.054.012.11.017.163.017.264 0 .512-.143.634-.38l.167-.323c1.086-2.11 3.27-3.422 5.702-3.422h2.706v2.063c0 .26.151.497.39.614.24.117.53.092.743-.064l5.667-4.125c.178-.13.283-.335.283-.55 0-.216-.105-.421-.283-.55z"/>
    </g>
</svg>
