<svg xmlns="http://www.w3.org/2000/svg" width="18" height="18" viewBox="0 0 18 18">
    <g fill="none" fill-rule="evenodd">
        <g fill="#B7BCD6" fill-rule="nonzero">
            <g>
                <g>
                    <g>
                        <g>
                            <g transform="translate(-1338.000000, -1067.000000) translate(718.000000, 106.000000) translate(0.000000, 38.000000) translate(42.000000, 109.000000) translate(0.000000, 799.000000) translate(578.000000, 15.000000)">
                                <path d="M15.364 2.636C13.664.936 11.404 0 9 0S4.336.936 2.636 2.636C.936 4.336 0 6.596 0 9s.936 4.664 2.636 6.364C4.336 17.064 6.596 18 9 18s4.664-.936 6.364-2.636C17.064 13.664 18 11.404 18 9s-.936-4.664-2.636-6.364zM9 16.594c-4.187 0-7.594-3.407-7.594-7.594S4.813 1.406 9 1.406 16.594 4.813 16.594 9 13.187 16.594 9 16.594z"/>
                                <path d="M12.74 10.025c-.003.007-.242.703-.83 1.379-.747.86-1.701 1.295-2.835 1.295-1.143 0-2.128-.44-2.927-1.31-.627-.682-.904-1.384-.906-1.389L4 10.455c.014.036.349.904 1.127 1.765C6.18 13.384 7.544 14 9.075 14c1.538 0 2.88-.62 3.88-1.794.74-.868 1.033-1.742 1.045-1.778l-1.26-.403z"/>
                                <circle cx="6" cy="7" r="1"/>
                                <circle cx="12" cy="7" r="1"/>
                            </g>
                        </g>
                    </g>
                </g>
            </g>
        </g>
    </g>
</svg>
