<svg viewBox="0 0 17 15" fill="none" xmlns="http://www.w3.org/2000/svg">
<path d="M16.477 5.69589C16.4219 5.52909 16.2752 5.40754 16.0987 5.38235L11.1386 4.67398L8.92033 0.256782C8.8414 0.0995373 8.67843 0 8.50002 0C8.32159 0 8.15865 0.0995373 8.07968 0.256782L5.86132 4.67398L0.901338 5.38235C0.724807 5.40754 0.578089 5.52909 0.522965 5.69586C0.467809 5.86266 0.513808 6.04573 0.641589 6.16812L4.23057 9.60644L3.38345 14.4615C3.35326 14.6343 3.42558 14.8089 3.56992 14.912C3.65158 14.9703 3.74829 15 3.84548 15C3.92011 15 3.99498 14.9825 4.06354 14.9471L8.49999 12.6548L12.9363 14.9471C13.0942 15.0287 13.2856 15.0151 13.4299 14.912C13.5743 14.8089 13.6466 14.6343 13.6164 14.4614L12.769 9.60644L16.3584 6.16809C16.4862 6.04573 16.5322 5.86266 16.477 5.69589Z" fill="#D6D6D6" fill-opacity="0.7"/>
</svg>
