<svg xmlns="http://www.w3.org/2000/svg" width="17" height="18" viewBox="0 0 17 18">
    <path fill="#109CF1" d="M16.851 4.104c-.126-.162-.315-.256-.515-.256H4.308l-.05-.474-.001-.015C4.02 1.479 2.477.062.664.062.297.062 0 .372 0 .756c0 .384.297.695.664.695 1.146 0 2.123.894 2.275 2.082l.79 7.586c-.691.328-1.172 1.056-1.172 1.899v.035c0 1.149.893 2.084 1.992 2.084h.27c-.067.207-.104.429-.104.66 0 1.13.879 2.05 1.959 2.05s1.959-.92 1.959-2.05c0-.231-.037-.453-.104-.66h2.864c-.067.207-.104.429-.104.66 0 1.13.879 2.05 1.96 2.05 1.08 0 1.958-.92 1.958-2.05s-.879-2.05-1.959-2.05h-8.7c-.365 0-.663-.311-.663-.694v-.018-.017c0-.383.298-.695.664-.695h8.478c1.178 0 2.26-.763 2.756-1.944.147-.351-.006-.76-.341-.915-.336-.154-.728.006-.875.357-.28.666-.899 1.113-1.54 1.113H5.045l-.593-5.697H15.52l-.325 1.63c-.075.375.156.743.515.822.045.01.09.015.136.015.308 0 .584-.226.65-.553l.491-2.467c.04-.204-.009-.418-.135-.58zm-3.603 11.033c.348 0 .63.296.63.66 0 .364-.282.66-.63.66-.348 0-.63-.296-.63-.66 0-.364.282-.66.63-.66zm-6.574 0c.348 0 .63.296.63.66 0 .364-.282.66-.63.66-.348 0-.631-.296-.631-.66 0-.364.283-.66.63-.66z"/>
</svg>
