<svg xmlns="http://www.w3.org/2000/svg" width="27" height="23" viewBox="0 0 27 23">
    <g fill="#fff">
        <path d="M23.093 12H21c.213.608.33 1.265.33 1.949v8.237c0 .286-.048.56-.135.814h3.46C25.949 23 27 21.905 27 20.559v-4.49C27 13.824 25.247 12 23.093 12zM5.67 13.949c0-.684.117-1.34.33-1.949H3.907C1.753 12 0 13.825 0 16.068v4.491C0 21.905 1.052 23 2.344 23h3.46c-.086-.255-.134-.528-.134-.814V13.95zM15.969 11H11.03C8.808 11 7 12.67 7 14.721v7.535c0 .41.361.744.806.744h11.388c.445 0 .806-.333.806-.744V14.72C20 12.67 18.192 11 15.969 11zM13.5 0C11.019 0 9 2.019 9 4.5c0 1.683.929 3.153 2.3 3.925.652.366 1.402.575 2.2.575.798 0 1.548-.21 2.2-.575C17.07 7.653 18 6.183 18 4.5 18 2.019 15.981 0 13.5 0zM4.5 4C2.57 4 1 5.57 1 7.5S2.57 11 4.5 11c.49 0 .956-.101 1.38-.284.731-.315 1.335-.873 1.709-1.572C7.85 8.654 8 8.094 8 7.5 8 5.57 6.43 4 4.5 4zM22.5 4C20.57 4 19 5.57 19 7.5c0 .594.15 1.154.411 1.644.374.7.978 1.257 1.71 1.572.423.183.89.284 1.379.284 1.93 0 3.5-1.57 3.5-3.5S24.43 4 22.5 4z"/>
    </g>
</svg>
