<svg xmlns="http://www.w3.org/2000/svg" width="13" height="15" viewBox="0 0 13 15">
    <g fill="none" fill-rule="evenodd">
        <g fill="#109CF1" fill-rule="nonzero">
            <g>
                <g>
                    <g>
                        <g>
                            <g>
                                <g>
                                    <path d="M6.5 0C3.25 0 0 .395 0 3.158v7.5c0 1.524 1.276 2.763 2.844 2.763l-1.219 1.184V15h1.812l1.625-1.579h3.063L9.75 15h1.625v-.395l-1.219-1.184c1.568 0 2.844-1.24 2.844-2.763v-7.5C13 .395 10.091 0 6.5 0zM2.844 11.842c-.675 0-1.219-.529-1.219-1.184 0-.655.544-1.184 1.219-1.184.674 0 1.219.529 1.219 1.184 0 .655-.545 1.184-1.22 1.184zm2.844-5.526H1.625V3.158h4.063v3.158zm4.468 5.526c-.674 0-1.219-.529-1.219-1.184 0-.655.545-1.184 1.22-1.184.674 0 1.218.529 1.218 1.184 0 .655-.544 1.184-1.219 1.184zm1.219-5.526H7.312V3.158h4.063v3.158z" transform="translate(-564 -434) translate(337 352) translate(29 19) translate(0 62) translate(181) translate(17 1)"/>
                                </g>
                            </g>
                        </g>
                    </g>
                </g>
            </g>
        </g>
    </g>
</svg>
