<svg xmlns="http://www.w3.org/2000/svg" width="45" height="31" viewBox="0 0 45 31">
    <g fill="none" fill-rule="evenodd">
        <g fill="#156CE4" fill-rule="nonzero">
            <g>
                <g>
                    <g>
                        <g>
                            <path d="M44.884 18.843l-2.278-3.499c-1.006-1.546-2.715-2.469-4.572-2.469h-5.891V9.472c0-2.077-1.683-3.767-3.753-3.767H17.362C16.744 2.461 13.9 0 10.49 0 6.63 0 3.488 3.153 3.488 7.028c0 2.437 1.243 4.586 3.125 5.847H.714c-.394 0-.714.321-.714.717 0 .397.32.718.714.718h7.143v1.433H5c-.395 0-.714.321-.714.718 0 .396.32.716.714.716h2.857v1.434H.714c-.394 0-.714.321-.714.717 0 .397.32.718.714.718h7.143v3.175c-1.259.558-2.143 1.819-2.143 3.287v.708c0 .396.32.717.715.717h6.335C13.17 29.687 14.737 31 16.607 31c1.87 0 3.437-1.313 3.843-3.067h13.743C34.599 29.687 36.166 31 38.036 31c1.87 0 3.437-1.313 3.843-3.067h2.407c.395 0 .714-.321.714-.717v-7.981c0-.14-.04-.276-.116-.392zM4.916 7.028c0-3.084 2.5-5.594 5.573-5.594 3.074 0 5.573 2.51 5.573 5.594 0 3.084-2.5 5.594-5.573 5.594-3.072 0-5.573-2.51-5.573-5.594zm4.37 13.018h1.428c.395 0 .715-.321.715-.718 0-.396-.32-.717-.715-.717H9.286v-1.434h5c.394 0 .714-.32.714-.716 0-.397-.32-.718-.714-.718h-5V14.31h9.285c.395 0 .715-.321.715-.718 0-.396-.32-.717-.715-.717h-4.205c1.853-1.242 3.082-3.346 3.12-5.736H28.39c1.282 0 2.324 1.047 2.324 2.333v13.441H9.294l-.008.001v-2.868zm21.428 6.452H20.515c-.112-.824-.477-1.568-1.015-2.15h11.214v2.15zm-21.42-2.15h4.42c-.538.582-.903 1.326-1.015 2.15H7.143c.005-1.186.968-2.15 2.152-2.15zm7.313 5.218c-1.39 0-2.52-1.135-2.52-2.53 0-1.394 1.13-2.53 2.52-2.53 1.39 0 2.52 1.136 2.52 2.53 0 1.395-1.13 2.53-2.52 2.53zm21.429 0c-1.39 0-2.52-1.135-2.52-2.53 0-1.394 1.13-2.53 2.52-2.53 1.39 0 2.52 1.136 2.52 2.53 0 1.395-1.13 2.53-2.52 2.53zm5.536-3.068h-1.628c-.263-1.93-1.913-3.425-3.908-3.425-1.995 0-3.645 1.494-3.908 3.425h-1.985V14.31h5.89c1.374 0 2.636.68 3.378 1.818l2.16 3.32v7.05z" transform="translate(-474 -227) translate(53 182) translate(380) translate(41 26) translate(0 19)"/>
                            <path d="M39.474 27.423c0 .659-.53 1.192-1.185 1.192-.654 0-1.184-.533-1.184-1.192 0-.658.53-1.192 1.184-1.192.655 0 1.185.534 1.185 1.192zM18.158 27.423c0 .659-.53 1.192-1.185 1.192-.653 0-1.184-.533-1.184-1.192 0-.658.53-1.192 1.184-1.192.655 0 1.185.534 1.185 1.192zM11.053 7.254V3.937c0-.419-.334-.758-.747-.758-.411 0-.745.34-.745.758v3.07L8.038 9.128c-.243.338-.17.812.163 1.058.133.1.287.146.44.146.23 0 .457-.108.603-.312L10.91 7.7c.092-.13.143-.285.143-.446zM37.712 15.103h-1.435c-.415 0-.75.316-.75.706v4.946c0 .39.335.707.75.707h5.05c.47 0 .89-.23 1.127-.613.236-.382.236-.84.004-1.223l-1.752-2.888c-.612-1.008-1.76-1.635-2.994-1.635zm-.685 4.946v-3.533h.685c.697 0 1.345.354 1.69.924l1.584 2.609h-3.959z" transform="translate(-474 -227) translate(53 182) translate(380) translate(41 26) translate(0 19)"/>
                        </g>
                    </g>
                </g>
            </g>
        </g>
    </g>
</svg>
