<svg xmlns="http://www.w3.org/2000/svg" width="49" height="23" viewBox="0 0 49 23">
    <path fill="#B7BCD6" d="M4.947 16.9c-1.679 0-3.046 1.369-3.046 3.05 0 1.682 1.367 3.05 3.046 3.05 1.681 0 3.047-1.368 3.047-3.05 0-1.681-1.366-3.05-3.047-3.05zm0 5.167c-1.165 0-2.115-.95-2.115-2.117s.949-2.117 2.115-2.117c1.167 0 2.116.95 2.116 2.117 0 1.168-.949 2.117-2.116 2.117zM49 11.899V9.988L47.094 1.59c0-.582-.843-.582-1.165-.582H35.861c-.32 0-.581.061-.581.582v15.292c0 1.524.26 1.785.581 1.785h2.054c.644-1.42 2.074-2.409 3.73-2.409 1.656 0 3.084.99 3.73 2.41h3.042c.322 0 .583-.262.583-.584v-2.94h-.547V11.9H49zm-9.235-1.923h-2.201V9.53h2.201v.447zm-2.643-1.162v-6.25h8.408l.96 6.25h-9.368zm9.77 8.495H45.33c-.441-.841-1.402-1.443-1.402-1.443h2.962v1.443zM2.035 15.308h31.847v3.651H17.005c-.572-1.574-2.081-2.7-3.848-2.7-1.768 0-3.276 1.126-3.848 2.7H8.93c-.572-1.574-2.08-2.7-3.847-2.7-1.741 0-3.23 1.094-3.822 2.63C.533 18.68 0 18.01 0 17.211v-.156c0-.395.136-.754.356-1.046v-1.426L.339 0h33.036l-.033 14.584H2.036v.724zM41.51 16.9c-1.68 0-3.047 1.368-3.047 3.05 0 1.68 1.367 3.049 3.047 3.049 1.68 0 3.047-1.368 3.047-3.05 0-1.681-1.367-3.05-3.047-3.05zm0 5.166c-1.166 0-2.115-.95-2.115-2.117s.948-2.117 2.115-2.117c1.167 0 2.116.95 2.116 2.117 0 1.168-.95 2.117-2.116 2.117zM13.02 16.9c-1.68 0-3.047 1.368-3.047 3.05C9.973 21.63 11.34 23 13.02 23c1.68 0 3.047-1.368 3.047-3.05 0-1.681-1.366-3.05-3.047-3.05zm0 5.166c-1.166 0-2.115-.95-2.115-2.117s.949-2.117 2.115-2.117c1.166 0 2.116.95 2.116 2.117 0 1.168-.95 2.117-2.116 2.117z" opacity=".85"/>
</svg>
