<svg xmlns="http://www.w3.org/2000/svg" width="48" height="30" viewBox="0 0 48 30">
    <g fill="none" fill-rule="evenodd">
        <g fill="#156CE4" fill-rule="nonzero">
            <g>
                <g>
                    <g>
                        <g>
                            <path d="M44.64 12.718l-1.243-4.913c.34-.07.595-.369.595-.726v-.792c0-1.72-1.416-3.119-3.157-3.119h-5.662V1.535C35.173.688 34.477 0 33.62 0H4.76c-.857 0-1.553.688-1.553 1.535V15c0 .41.336.743.751.743s.752-.333.752-.743V1.535c0-.028.022-.05.05-.05h28.86c.028 0 .05.022.05.05V15c0 .41.337.743.752.743s.751-.333.751-.743v-.841H44.043c1.091 0 2.017.708 2.336 1.683h-2.337c-.415 0-.752.332-.752.742v1.585c0 1.283 1.056 2.326 2.355 2.326h.852v3.268h-1.965c-.646-1.842-2.418-3.169-4.499-3.169-2.08 0-3.853 1.327-4.498 3.169h-.362v-5.595c0-.41-.336-.742-.751-.742-.416 0-.752.332-.752.742v5.594H18.077c-.646-1.841-2.418-3.168-4.499-3.168-2.08 0-3.853 1.327-4.498 3.168H4.76c-.028 0-.05-.022-.05-.05V22.08h3.257c.415 0 .751-.332.751-.742s-.336-.743-.751-.743H.752c-.415 0-.752.332-.752.743 0 .41.336.742.752.742h2.455v1.634c0 .846.696 1.535 1.553 1.535h4.06l-.002.049c0 2.593 2.136 4.703 4.76 4.703 2.625 0 4.76-2.11 4.76-4.703l-.001-.05h16.938l-.002.05c0 2.593 2.136 4.703 4.76 4.703 2.625 0 4.76-2.11 4.76-4.703l-.001-.05h2.456c.415 0 .752-.332.752-.742v-7.92c0-1.956-1.46-3.581-3.36-3.867zm-9.467-8.064h5.662c.912 0 1.654.732 1.654 1.633v.05h-7.316V4.654zm0 8.02V7.821h6.679l1.227 4.851h-7.906zM13.578 28.514c-1.795 0-3.256-1.443-3.256-3.218 0-1.774 1.46-3.218 3.256-3.218 1.796 0 3.257 1.444 3.257 3.218 0 1.775-1.46 3.218-3.257 3.218zm26.455 0c-1.795 0-3.256-1.443-3.256-3.218 0-1.774 1.46-3.218 3.256-3.218 1.796 0 3.257 1.444 3.257 3.218 0 1.775-1.46 3.218-3.257 3.218zm6.464-9.505h-.852c-.47 0-.852-.378-.852-.842v-.841h1.704v1.683z" transform="translate(-852 -229) translate(53 182) translate(760) translate(39 26) translate(0 21)"/>
                            <path d="M12.889 23.824c-.735 0-1.333.593-1.333 1.323s.598 1.324 1.333 1.324 1.333-.594 1.333-1.324c0-.73-.598-1.323-1.333-1.323zM39.556 23.824c-.736 0-1.334.593-1.334 1.323s.598 1.324 1.334 1.324c.735 0 1.333-.594 1.333-1.324 0-.73-.598-1.323-1.333-1.323zM31.265 20.294H20.29c-.405 0-.734.395-.734.882 0 .488.329.883.734.883h10.975c.406 0 .735-.395.735-.883 0-.487-.329-.882-.735-.882zM11.724 17.647H2.499c-.398 0-.721.395-.721.882 0 .488.322.883.72.883h9.226c.398 0 .72-.395.72-.883 0-.487-.322-.882-.72-.882zM26.451 7.282c-.286-.297-.752-.297-1.039 0l-6.535 6.764-3.4-3.519c-.287-.297-.753-.297-1.04 0-.287.297-.287.779 0 1.076l3.92 4.057c.144.148.332.222.52.222s.376-.074.52-.222l7.054-7.303c.287-.297.287-.778 0-1.075z" transform="translate(-852 -229) translate(53 182) translate(760) translate(39 26) translate(0 21)"/>
                        </g>
                    </g>
                </g>
            </g>
        </g>
    </g>
</svg>
