<svg xmlns="http://www.w3.org/2000/svg" width="26" height="24" viewBox="0 0 26 24">
    <g fill="#B7BCD6">
        <path d="M20.998 6.586c-.879-4.433-5.162-7.31-9.568-6.427-3.223.647-5.743 3.18-6.387 6.422-3.124.362-5.365 3.203-5.005 6.346.331 2.893 2.766 5.075 5.66 5.073h4.068c.45 0 .814-.366.814-.818 0-.452-.365-.819-.814-.819H5.7c-2.247-.013-4.057-1.856-4.044-4.116.014-2.26 1.845-4.08 4.092-4.067.414 0 .763-.314.808-.729.413-3.591 3.642-6.166 7.213-5.75 3.001.349 5.37 2.73 5.716 5.75.069.422.432.731.857.729 2.246 0 4.067 1.832 4.067 4.092s-1.82 4.091-4.067 4.091h-4.067c-.45 0-.814.367-.814.819 0 .452.364.818.814.818h4.067c3.145-.02 5.678-2.6 5.659-5.764-.018-2.881-2.16-5.3-5.002-5.65z"/>
        <path d="M15.691 14.9c.292.327.774.336 1.077.02.302-.316.31-.837.018-1.164l-.018-.02-3.229-3.494c-.297-.322-.779-.323-1.077-.002l-.001.002-3.229 3.493c-.302.316-.31.838-.018 1.165.292.327.774.336 1.076.02l.019-.02 1.93-2.089v10.365c0 .455.34.824.761.824.42 0 .761-.369.761-.824V12.811l1.93 2.089z"/>
    </g>
</svg>
