<svg xmlns="http://www.w3.org/2000/svg" width="17" height="15" viewBox="0 0 17 15">
    <g fill="none" fill-rule="evenodd">
        <g fill="#109CF1" fill-rule="nonzero" stroke="#109CF1" stroke-width=".5">
            <g>
                <g>
                    <g>
                        <g>
                            <g>
                                <g>
                                    <g>
                                        <g>
                                            <path d="M13.826 4.229c-.182-1.113-.717-2.129-1.535-2.9C11.382.472 10.201 0 8.971 0c-.952 0-1.878.281-2.672.81-.66.44-1.21 1.034-1.597 1.733-.168-.032-.343-.05-.518-.05C2.7 2.493 1.49 3.739 1.49 5.27c0 .198.021.389.056.576C.584 6.566 0 7.726 0 8.962c0 .998.36 1.967 1.017 2.734.675.785 1.566 1.25 2.517 1.304H6.57c.262 0 .472-.216.472-.486s-.21-.487-.472-.487H3.576c-1.43-.09-2.632-1.49-2.632-3.069 0-1.019.531-1.97 1.388-2.485.199-.119.283-.367.206-.59-.07-.195-.105-.4-.105-.62 0-.995.787-1.805 1.751-1.805.207 0 .41.036.598.108.231.087.486-.022.591-.248.654-1.43 2.066-2.353 3.6-2.353 2.063 0 3.766 1.592 3.961 3.703.021.22.182.397.392.433 1.556.273 2.73 1.754 2.73 3.443 0 1.79-1.367 3.347-3.052 3.48h-2.576c-.262 0-.472.216-.472.486s.21.486.472.486h2.629c1.066-.079 2.062-.583 2.803-1.426.738-.836 1.14-1.91 1.14-3.026-.003-2.02-1.342-3.818-3.174-4.315z" transform="translate(-1035 -633) translate(305 97) translate(38 223) translate(0 291) translate(692 21) translate(0 1)"/>
                                            <path d="M10.86 9.014c.187-.169.187-.44 0-.609L8.335 6.127C8.247 6.047 8.124 6 8 6c-.124 0-.247.045-.335.127L5.14 8.405c-.187.17-.187.44 0 .609.092.083.216.127.336.127.12 0 .243-.041.335-.127l1.712-1.545v7.1c0 .24.212.431.477.431s.477-.191.477-.43V7.469l1.712 1.545c.183.169.484.169.67 0z" transform="translate(-1035 -633) translate(305 97) translate(38 223) translate(0 291) translate(692 21) translate(0 1)"/>
                                        </g>
                                    </g>
                                </g>
                            </g>
                        </g>
                    </g>
                </g>
            </g>
        </g>
    </g>
</svg>
