<svg xmlns="http://www.w3.org/2000/svg" width="32" height="32" viewBox="0 0 32 32">
    <defs>
        <filter id="chvs2m9oya" width="220.4%" height="800%" x="-60.2%" y="-350%" filterUnits="objectBoundingBox">
            <feOffset dy="18" in="SourceAlpha" result="shadowOffsetOuter1"/>
            <feGaussianBlur in="shadowOffsetOuter1" result="shadowBlurOuter1" stdDeviation="20"/>
            <feColorMatrix in="shadowBlurOuter1" result="shadowMatrixOuter1" values="0 0 0 0 0 0 0 0 0 0 0 0 0 0 0 0 0 0 0.04 0"/>
            <feMerge>
                <feMergeNode in="shadowMatrixOuter1"/>
                <feMergeNode in="SourceGraphic"/>
            </feMerge>
        </filter>
    </defs>
    <g fill="none" fill-rule="evenodd" opacity=".366">
        <g fill-rule="nonzero">
            <g>
                <g>
                    <g>
                        <g filter="url(#chvs2m9oya)" transform="translate(-310.000000, -106.000000) translate(297.000000, 96.000000) translate(13.000000, 7.000000) translate(0.000000, 3.000000)">
                            <g>
                                <g>
                                    <path fill="#E7ECED" d="M10.663 25.131l-4.88 2.588c-.286.152-.544.338-.783.542C7.845 30.593 11.518 32 15.53 32c3.984 0 7.633-1.386 10.47-3.686-.262-.215-.546-.408-.86-.56l-5.226-2.54c-.675-.329-1.101-1-1.101-1.734v-1.993c.146-.162.314-.371.494-.618.712-.978 1.25-2.054 1.624-3.182.67-.201 1.164-.803 1.164-1.518V14.04c0-.468-.214-.886-.547-1.179V9.786S22.198 5 15.531 5C8.864 5 9.514 9.786 9.514 9.786v3.076c-.333.293-.547.711-.547 1.179v2.128c0 .56.303 1.053.757 1.338.547 2.315 1.978 3.98 1.978 3.98v1.944c0 .708-.399 1.36-1.039 1.7z"/>
                                    <path fill="#556080" d="M16.274.002C7.44-.147.154 6.822.002 15.566c-.085 4.958 2.147 9.415 5.703 12.378.232-.2.481-.384.759-.534l4.774-2.577c.626-.339 1.016-.988 1.016-1.695v-1.936s-1.401-1.659-1.936-3.964c-.443-.284-.74-.774-.74-1.333v-2.12c0-.465.21-.882.535-1.174V9.548S9.477 4.781 16 4.781s5.887 4.767 5.887 4.767v3.063c.326.292.535.709.535 1.175v2.119c0 .712-.483 1.312-1.139 1.512-.365 1.124-.892 2.195-1.589 3.17-.176.245-.34.453-.484.615v1.985c0 .731.418 1.4 1.078 1.726l5.112 2.53c.307.152.584.344.84.557 3.447-2.846 5.675-7.1 5.758-11.893C32.15 7.363 25.11.152 16.274.002z"/>
                                </g>
                            </g>
                        </g>
                    </g>
                </g>
            </g>
        </g>
    </g>
</svg>
