<svg xmlns="http://www.w3.org/2000/svg" width="15" height="17" viewBox="0 0 15 17">
    <g fill="none" fill-opacity=".22" fill-rule="evenodd">
        <g fill="#24B1FF" fill-rule="nonzero">
            <g>
                <g>
                    <g>
                        <g>
                            <g>
                                <path d="M7.5 0C5.019 0 3 2.019 3 4.5S5.019 9 7.5 9 12 6.981 12 4.5 9.981 0 7.5 0zM13.099 11.922C11.867 10.682 10.234 10 8.5 10h-2c-1.734 0-3.367.682-4.599 1.922C.675 13.155 0 14.782 0 16.505c0 .273.224.495.5.495h14c.276 0 .5-.222.5-.495 0-1.723-.675-3.35-1.901-4.583z" transform="translate(-380 -145) translate(315 104) translate(65 41)"/>
                            </g>
                        </g>
                    </g>
                </g>
            </g>
        </g>
    </g>
</svg>
