<svg width="17" height="16" viewBox="0 0 17 16" fill="none" xmlns="http://www.w3.org/2000/svg">
<path fill-rule="evenodd" clip-rule="evenodd" d="M0.5 8C0.5 3.58888 4.08888 0 8.5 0C12.9111 0 16.5 3.58888 16.5 8C16.5 12.4111 12.9111 16 8.5 16C4.08888 16 0.5 12.4111 0.5 8ZM1.5 8C1.5 11.8599 4.64013 15 8.5 15C12.3599 15 15.5 11.8599 15.5 8C15.5 4.14013 12.3599 1 8.5 1C4.64013 1 1.5 4.14013 1.5 8Z" fill="#696969"/>
<path d="M9.10773 3.04785H8.11914V8.27198L11.2297 11.4288L11.9287 10.7194L9.10773 7.85656V3.04785Z" fill="#696969"/>
</svg>
