<svg xmlns="http://www.w3.org/2000/svg" width="27" height="21" viewBox="0 0 27 21">
    <g fill="none" fill-rule="evenodd">
        <g fill="#109CF1" fill-rule="nonzero" stroke="#109CF1" stroke-width=".7">
            <g>
                <g>
                    <g>
                        <g>
                            <g>
                                <path d="M21.5 11c-.827 0-1.5.673-1.5 1.5s.673 1.5 1.5 1.5 1.5-.673 1.5-1.5-.673-1.5-1.5-1.5zm0 2.1c-.33 0-.6-.27-.6-.6 0-.33.27-.6.6-.6.33 0 .6.27.6.6 0 .33-.27.6-.6.6z" transform="translate(-351 -775) translate(305 97) translate(43 677) translate(3) translate(0 1)"/>
                                <path d="M25.575 9.078h-.158v-4.58c0-.783-.64-1.42-1.426-1.42h-1.82V1.42C22.17.638 21.53 0 20.744 0H1.425C.64 0 0 .638 0 1.421v15.08c0 .198 0 .722 3.388 4.047.092.09.213.136.333.136.018 0 .035-.009.053-.01.246.2.555.326.897.326h19.32c.786 0 1.426-.638 1.426-1.421v-4.027h.158c.785 0 1.425-.638 1.425-1.421v-3.632c0-.783-.64-1.42-1.425-1.42zM.95 16.448V1.422c0-.26.213-.474.475-.474h19.32c.262 0 .475.213.475.474v1.656H4.671c-.785 0-1.425.638-1.425 1.421v14.565C2.138 17.933 1.105 16.788.95 16.45zm23.516 3.131c0 .261-.212.474-.475.474H4.671c-.262 0-.475-.213-.475-.474V4.5c0-.261.213-.474.475-.474h19.32c.263 0 .475.213.475.474v4.58h-2.77c-1.791 0-3.247 1.45-3.247 3.236 0 1.786 1.456 3.237 3.246 3.237h2.771v4.027zm1.584-5.448c0 .261-.213.474-.475.474h-3.88c-1.266 0-2.296-1.027-2.296-2.29 0-1.262 1.03-2.29 2.296-2.29h3.88c.262 0 .475.213.475.475v3.631z" transform="translate(-351 -775) translate(305 97) translate(43 677) translate(3) translate(0 1)"/>
                                <path d="M22.5 8c.277 0 .5-.229.5-.51V4.51c0-.281-.223-.51-.5-.51s-.5.229-.5.51v2.98c0 .281.223.51.5.51z" transform="translate(-351 -775) translate(305 97) translate(43 677) translate(3) translate(0 1)"/>
                            </g>
                        </g>
                    </g>
                </g>
            </g>
        </g>
    </g>
</svg>
