<svg xmlns="http://www.w3.org/2000/svg" width="18" height="18" viewBox="0 0 18 18">
    <path fill="#FFF" d="M14.69 11.44c-1.051 0-1.978.497-2.584 1.257L6.49 9.848c.073-.272.126-.553.126-.848 0-.322-.063-.625-.15-.92l5.593-2.836c.602.795 1.553 1.314 2.633 1.314 1.83 0 3.309-1.467 3.309-3.28C18 1.469 16.52 0 14.69 0c-1.824 0-3.306 1.468-3.306 3.279 0 .296.053.578.127.85L5.895 6.98c-.607-.762-1.536-1.26-2.588-1.26C1.479 5.72 0 7.19 0 9c0 1.812 1.479 3.28 3.307 3.28 1.081 0 2.031-.521 2.636-1.316l5.59 2.835c-.087.294-.15.6-.15.922 0 1.812 1.481 3.28 3.306 3.28 1.83 0 3.31-1.468 3.31-3.28 0-1.813-1.48-3.28-3.309-3.28z"/>
</svg>
