<svg width="19" height="11" viewBox="0 0 19 11" fill="none" xmlns="http://www.w3.org/2000/svg">
<path fill-rule="evenodd" clip-rule="evenodd" d="M0 7.31259H12.5251V0H0V7.31259ZM0.293982 7.02075H12.2315V0.292188H0.293982V7.02075Z" fill="#156CE4"/>
<path fill-rule="evenodd" clip-rule="evenodd" d="M17.6292 9.59199H16.4619L16.4198 9.5528C16.352 9.49059 16.2861 9.43662 16.2222 9.39021L16.3949 9.15371C16.454 9.19634 16.5144 9.2448 16.5766 9.2998H17.5905L18.3747 9.0908V8.00559L18.1156 7.25999H18.3747V5.87984C18.3747 5.36318 18.0354 4.2673 17.7874 3.4674C17.7069 3.20649 17.634 2.97102 17.5819 2.78643C17.4834 2.43684 16.8992 2.24434 15.9365 2.24434H13.8057V6.80315H13.5117V1.95215H15.9365C17.0747 1.95215 17.7235 2.20618 17.8644 2.70702C17.9159 2.89059 17.9881 3.12296 18.0683 3.38146C18.3356 4.24462 18.6683 5.31918 18.6683 5.87984V7.55218H18.5281L18.6683 7.98084V9.31493L17.6292 9.59199Z" fill="#156CE4"/>
<path fill-rule="evenodd" clip-rule="evenodd" d="M18.4793 5.46633C18.3563 4.74205 17.9939 3.65442 17.7887 2.9707H17.4395L17.9469 5.33398C17.9469 5.33398 18.1967 5.36217 18.4793 5.46633Z" fill="#156CE4"/>
<path fill-rule="evenodd" clip-rule="evenodd" d="M13.2139 9.4462V8.64835C13.2139 7.88626 13.8405 7.2627 14.6064 7.2627H14.8669C15.7764 7.2627 16.5202 8.00279 16.5202 8.90754V9.4462H16.2559C16.1951 9.74388 16.0466 10.0106 15.8386 10.2176V10.2179C15.5623 10.4933 15.1798 10.6638 14.7577 10.6638C14.3362 10.6638 13.9538 10.4933 13.6771 10.2179H13.6768C13.4685 10.011 13.3203 9.74423 13.2595 9.4462H13.2139ZM14.7577 8.40223C14.3466 8.40223 14.0136 8.7336 14.0136 9.14232C14.0136 9.55138 14.3466 9.88276 14.7577 9.88276C15.1684 9.88276 15.5018 9.55138 15.5018 9.14232C15.5018 8.7336 15.1684 8.40223 14.7577 8.40223Z" fill="#156CE4"/>
<path fill-rule="evenodd" clip-rule="evenodd" d="M16.9938 9.54355H16.4214V8.90762C16.4214 8.05443 15.7239 7.36005 14.8662 7.36005H14.6057C13.892 7.36005 13.3113 7.9379 13.3113 8.64877V9.54355H12.6611V8.32393C12.6611 7.37896 13.5258 6.51855 14.4758 6.51855H14.7784C15.9174 6.51855 16.9938 7.54259 16.9938 8.6254V9.54355ZM16.6176 9.34899H16.798V8.6254C16.798 7.66049 15.7979 6.71346 14.7784 6.71346H14.4758C13.6436 6.71346 12.857 7.49618 12.857 8.32393V9.34899H13.1151V8.64877C13.1151 7.83065 13.7842 7.16515 14.6057 7.16515H14.8662C15.8317 7.16515 16.6176 7.94718 16.6176 8.90762V9.34899Z" fill="#156CE4"/>
<path fill-rule="evenodd" clip-rule="evenodd" d="M14.7572 9.54615C14.981 9.54615 15.1638 9.3643 15.1638 9.14155C15.1638 8.9188 14.981 8.7373 14.7572 8.7373C14.5333 8.7373 14.3506 8.9188 14.3506 9.14155C14.3506 9.3643 14.5333 9.54615 14.7572 9.54615Z" fill="#156CE4"/>
<path fill-rule="evenodd" clip-rule="evenodd" d="M15.5364 2.09828C14.7387 1.6435 14.2292 1.51941 13.4757 1.49913C13.3182 1.495 13.1856 1.61463 13.1745 1.77103C13.0767 3.17216 12.9786 4.57363 12.8809 5.97475V8.04791C12.9658 7.5481 13.2747 7.09606 13.6975 6.83894L13.6592 6.80353C13.6592 5.235 13.6592 3.66681 13.6592 2.09828H15.5364Z" fill="#156CE4"/>
<path fill-rule="evenodd" clip-rule="evenodd" d="M17.9502 8.98966H18.5219V7.98145H17.9502V8.98966Z" fill="#156CE4"/>
<path fill-rule="evenodd" clip-rule="evenodd" d="M16.8916 8.5172H18.1442V8.32264H16.8916V8.5172Z" fill="#156CE4"/>
<path fill-rule="evenodd" clip-rule="evenodd" d="M15.1006 6.19689H15.7376V6.00233H15.1006V6.19689Z" fill="#156CE4"/>
<path fill-rule="evenodd" clip-rule="evenodd" d="M16.8916 8.98905H18.1442V8.79415H16.8916V8.98905Z" fill="#156CE4"/>
<path fill-rule="evenodd" clip-rule="evenodd" d="M13.0423 7.55664H1.65234V8.56623H4.40043C4.52825 8.46345 4.69096 8.40192 4.86818 8.40192C5.0454 8.40192 5.20811 8.46345 5.33593 8.56623H12.8572V8.32355C12.8572 8.05508 12.9242 7.79245 13.0423 7.55664Z" fill="#156CE4"/>
<path fill-rule="evenodd" clip-rule="evenodd" d="M6.38989 9.28859C6.355 9.64987 6.19298 9.97437 5.94909 10.2174V10.2177C5.67272 10.4931 5.2903 10.6636 4.86816 10.6636C4.4467 10.6636 4.06429 10.4931 3.78758 10.2177H3.78723C3.54299 9.97505 3.38132 9.65021 3.34643 9.28859H3.00098V9.14215C3.00098 8.6083 3.16783 8.12465 3.51121 7.78296L3.51156 7.78262V7.78227C3.82247 7.47324 4.27329 7.28418 4.86816 7.28418C5.46407 7.28418 5.91489 7.47324 6.22545 7.78227V7.78262C6.56849 8.1243 6.73569 8.60796 6.73569 9.14215V9.28859H6.38989ZM4.86816 8.40205C4.45741 8.40205 4.12405 8.73343 4.12405 9.14215C4.12405 9.55121 4.45741 9.88259 4.86816 9.88259C5.27925 9.88259 5.61227 9.55121 5.61227 9.14215C5.61227 8.73343 5.27925 8.40205 4.86816 8.40205Z" fill="#156CE4"/>
<path fill-rule="evenodd" clip-rule="evenodd" d="M4.86817 9.54615C5.09202 9.54615 5.27477 9.3643 5.27477 9.14155C5.27477 8.9188 5.09202 8.7373 4.86817 8.7373C4.64431 8.7373 4.46191 8.9188 4.46191 9.14155C4.46191 9.3643 4.64431 9.54615 4.86817 9.54615Z" fill="#156CE4"/>
<path fill-rule="evenodd" clip-rule="evenodd" d="M9.77692 8.21191H7.11035V9.03691C7.11035 9.19779 7.24232 9.3291 7.40399 9.3291H9.48293C9.64495 9.3291 9.77692 9.19779 9.77692 9.03691V8.88773H9.98592C9.98522 8.89701 9.98488 8.90629 9.98488 8.91591C9.98488 9.13076 10.16 9.30504 10.3763 9.30504C10.5369 9.30504 10.6754 9.20845 10.7356 9.07026H11.2099C11.27 9.20845 11.4082 9.30504 11.5691 9.30504C11.785 9.30504 11.9602 9.13076 11.9602 8.91591C11.9602 8.90629 11.9598 8.89701 11.9592 8.88773H12.0884V9.29885H12.8608V8.2236H12.0884V8.40957H9.77692V8.21191Z" fill="#156CE4"/>
<path fill-rule="evenodd" clip-rule="evenodd" d="M1.42328 8.69319H1.08301V9.55772H1.42328V9.31916L2.07654 8.88397H3.13432V8.24219H1.87652V8.52303L1.86512 8.52372L1.42328 8.91525V8.69319Z" fill="#156CE4"/>
<path fill-rule="evenodd" clip-rule="evenodd" d="M18.1484 6.95037H18.5219V5.9834H18.1484V6.95037Z" fill="#156CE4"/>
<path fill-rule="evenodd" clip-rule="evenodd" d="M8.9502 7.82665H11.2281V7.16699H8.9502V7.82665Z" fill="#156CE4"/>
<path fill-rule="evenodd" clip-rule="evenodd" d="M2.49512 7.82665H4.77304V7.16699H2.49512V7.82665Z" fill="#156CE4"/>
<path fill-rule="evenodd" clip-rule="evenodd" d="M16.8869 3.22472H15.1514V4.57772C15.1514 4.72141 15.2536 4.84206 15.3959 4.86578L17.4359 5.20816L17.3875 4.90806C17.3402 4.94141 17.2825 4.961 17.2206 4.961H17.1401C16.9805 4.961 16.8503 4.83141 16.8503 4.67259V3.36497C16.8503 3.31409 16.8634 3.26631 16.8869 3.22472ZM17.2206 3.22266C17.2994 3.22266 17.3637 3.28694 17.3637 3.36497V4.67259C17.3637 4.75062 17.2991 4.81491 17.2206 4.81491H17.1401C17.0617 4.81491 16.9971 4.75062 16.9971 4.67259V3.36497C16.9971 3.28694 17.0614 3.22266 17.1401 3.22266H17.2206Z" fill="#156CE4"/>
</svg>
