<svg width="40" height="9" viewBox="0 0 40 9" fill="none" xmlns="http://www.w3.org/2000/svg">
<path fill-rule="evenodd" clip-rule="evenodd" d="M38.7304 7.72871H37.5236L37.4801 7.69239C37.4101 7.63389 37.3418 7.58343 37.2758 7.54003L37.4543 7.31921C37.5154 7.35907 37.5779 7.40407 37.6422 7.4555H38.6904L39.5011 7.26007V6.24564L39.2333 5.54846H39.5011V4.2576C39.5011 3.77482 39.1508 2.75139 38.8947 2.00375C38.8108 1.75914 38.7354 1.53832 38.6815 1.36475C38.5797 1.0385 37.9758 0.858175 36.9804 0.858175H34.7776V5.12128H34.4736V0.584961H36.9804C38.1572 0.584961 38.8279 0.822818 38.974 1.29114C39.0272 1.46278 39.1022 1.68135 39.1851 1.92339C39.4611 2.72985 39.8051 3.73368 39.8051 4.2576V5.82135H39.6597L39.8051 6.22282V7.46964L38.7304 7.72871Z" fill="#156CE4"/>
<path fill-rule="evenodd" clip-rule="evenodd" d="M39.6092 3.87166C39.482 3.19473 39.1074 2.17741 38.8953 1.53809H38.5342L39.0588 3.74791C39.0588 3.74791 39.317 3.77426 39.6092 3.87166Z" fill="#156CE4"/>
<path fill-rule="evenodd" clip-rule="evenodd" d="M34.165 7.5925V6.84678C34.165 6.13385 34.8129 5.55078 35.605 5.55078H35.8743C36.8143 5.55078 37.5833 6.24282 37.5833 7.08914V7.5925H37.31C37.2472 7.87117 37.0936 8.12028 36.8786 8.31378V8.31442C36.5929 8.57157 36.1975 8.731 35.7611 8.731C35.3254 8.731 34.93 8.57157 34.644 8.3141L34.6436 8.31442C34.4283 8.12092 34.275 7.8715 34.2122 7.5925H34.165ZM35.7611 6.61632C35.3365 6.61632 34.9918 6.92617 34.9918 7.30867C34.9918 7.69085 35.3365 8.00071 35.7611 8.00071C36.1858 8.00071 36.5304 7.69085 36.5304 7.30867C36.5304 6.92617 36.1858 6.61632 35.7611 6.61632Z" fill="#156CE4"/>
<path fill-rule="evenodd" clip-rule="evenodd" d="M38.074 7.68274H37.4822V7.08842C37.4822 6.29031 36.7612 5.64135 35.8747 5.64135H35.6051C34.8672 5.64135 34.2669 6.18199 34.2669 6.84606V7.68274H33.5947V6.54263C33.5947 5.65903 34.4887 4.85449 35.4708 4.85449H35.7837C36.9612 4.85449 38.074 5.81171 38.074 6.82453V7.68274ZM37.6851 7.50081H37.8715V6.82453C37.8715 5.92228 36.8376 5.03642 35.7837 5.03642H35.4708C34.6104 5.03642 33.7972 5.76831 33.7972 6.54264V7.50081H34.064V6.84606C34.064 6.08139 34.7558 5.4591 35.6051 5.4591H35.8747C36.8729 5.4591 37.6851 6.19003 37.6851 7.08842V7.50081Z" fill="#156CE4"/>
<path fill-rule="evenodd" clip-rule="evenodd" d="M35.7612 6.92969C35.529 6.92969 35.3408 7.09908 35.3408 7.30801C35.3408 7.51694 35.529 7.68633 35.7612 7.68633C35.9933 7.68633 36.1815 7.51694 36.1815 7.30801C36.1815 7.09908 35.9933 6.92969 35.7612 6.92969Z" fill="#156CE4"/>
<path fill-rule="evenodd" clip-rule="evenodd" d="M36.567 0.721801C35.742 0.29623 35.2156 0.180515 34.4363 0.16123C34.2734 0.157372 34.1363 0.26923 34.1249 0.41548C34.0238 1.72594 33.9224 3.03609 33.8213 4.34655V6.28509C33.9091 5.81741 34.2284 5.39505 34.6656 5.15462L34.6259 5.12152C34.6259 3.65484 34.6259 2.18816 34.6259 0.721801H36.567Z" fill="#156CE4"/>
<path fill-rule="evenodd" clip-rule="evenodd" d="M39.0625 7.16541H39.6536V6.22266H39.0625V7.16541Z" fill="#156CE4"/>
<path fill-rule="evenodd" clip-rule="evenodd" d="M37.9678 6.72433H39.2631V6.54241H37.9678V6.72433Z" fill="#156CE4"/>
<path fill-rule="evenodd" clip-rule="evenodd" d="M36.1152 4.55441H36.7738V4.37248H36.1152V4.55441Z" fill="#156CE4"/>
<path fill-rule="evenodd" clip-rule="evenodd" d="M37.9678 7.16493H39.2628V6.98268H37.9678V7.16493Z" fill="#156CE4"/>
<path fill-rule="evenodd" clip-rule="evenodd" d="M33.9889 5.8252H22.2139V6.76955H25.0546C25.1867 6.67312 25.3553 6.61559 25.5382 6.61559C25.7214 6.61559 25.8896 6.67312 26.0217 6.76955H33.7974V6.54262C33.7974 6.29127 33.8667 6.0457 33.9889 5.8252Z" fill="#156CE4"/>
<path fill-rule="evenodd" clip-rule="evenodd" d="M27.111 7.44473C27.0749 7.78255 26.9078 8.0863 26.6553 8.31323V8.31388C26.3696 8.57102 25.9742 8.73045 25.5378 8.73045C25.1021 8.73045 24.7067 8.57102 24.4206 8.31356L24.4203 8.31388C24.1678 8.08663 24.0006 7.7832 23.9649 7.44473H23.6074V7.30813C23.6074 6.80863 23.7799 6.35638 24.1349 6.03688L24.1353 6.03655V6.03623C24.2699 5.9157 24.4296 5.81445 24.6146 5.7373H26.4617C26.6471 5.81413 26.8067 5.91538 26.941 6.03623V6.03688C27.2956 6.35605 27.4685 6.80863 27.4685 7.30813V7.44473H27.111ZM25.5378 6.61577C25.1131 6.61577 24.7689 6.92563 24.7689 7.30813C24.7689 7.6903 25.1131 8.00016 25.5378 8.00016C25.9628 8.00016 26.3071 7.6903 26.3071 7.30813C26.3071 6.92563 25.9628 6.61577 25.5378 6.61577Z" fill="#156CE4"/>
<path fill-rule="evenodd" clip-rule="evenodd" d="M25.5382 6.92969C25.3064 6.92969 25.1182 7.09908 25.1182 7.30801C25.1182 7.51694 25.3064 7.68633 25.5382 7.68633C25.7703 7.68633 25.9585 7.51694 25.9585 7.30801C25.9585 7.09908 25.7703 6.92969 25.5382 6.92969Z" fill="#156CE4"/>
<path fill-rule="evenodd" clip-rule="evenodd" d="M30.6123 6.43848H27.8555V7.20958C27.8555 7.36033 27.9919 7.48312 28.159 7.48312H30.3083C30.4758 7.48312 30.6123 7.36033 30.6123 7.20958V7.07041H30.8283C30.8276 7.07908 30.8273 7.08776 30.8273 7.09644C30.8273 7.29766 31.0083 7.46062 31.2319 7.46062C31.398 7.46062 31.5412 7.3703 31.6033 7.24108H32.0937C32.1558 7.3703 32.2987 7.46062 32.4651 7.46062C32.6883 7.46062 32.8698 7.29766 32.8698 7.09644C32.8698 7.08776 32.869 7.07908 32.8683 7.07041H33.0019V7.45451H33.8005V6.44941H33.0019V6.6233H30.6123V6.43848Z" fill="#156CE4"/>
<path fill-rule="evenodd" clip-rule="evenodd" d="M21.9768 6.88819H21.625V7.6969H21.9768V7.47351L22.6521 7.0669H23.7457V6.4668H22.4454V6.7294L22.4339 6.72973L21.9768 7.09583V6.88819Z" fill="#156CE4"/>
<path fill-rule="evenodd" clip-rule="evenodd" d="M39.2676 5.25867H39.6536V4.35449H39.2676V5.25867Z" fill="#156CE4"/>
<path fill-rule="evenodd" clip-rule="evenodd" d="M23.084 6.0777H25.439V5.7373H23.084V6.0777Z" fill="#156CE4"/>
<path fill-rule="evenodd" clip-rule="evenodd" d="M37.9632 1.77537H36.1689V3.04019C36.1689 3.17454 36.2747 3.28737 36.4222 3.30987L38.5307 3.63001L38.4807 3.3494C38.4318 3.38026 38.3725 3.39858 38.3082 3.39858H38.225C38.06 3.39858 37.9254 3.2774 37.9254 3.1289V1.90651C37.9254 1.85894 37.9393 1.81426 37.9632 1.77537ZM38.3082 1.77344C38.3897 1.77344 38.4561 1.83322 38.4561 1.90651V3.1289C38.4561 3.20219 38.3893 3.26197 38.3082 3.26197H38.225C38.1439 3.26197 38.0772 3.20219 38.0772 3.1289V1.90651C38.0772 1.83322 38.1436 1.77344 38.225 1.77344H38.3082Z" fill="#156CE4"/>
<path fill-rule="evenodd" clip-rule="evenodd" d="M1.26338 5.7373V6.76973H1.43302L1.02623 7.09534V6.8877H0.674805V7.69641H1.02623V7.47302L1.70159 7.06641H2.79552V6.76973H4.0873C4.21945 6.6733 4.38766 6.61577 4.57088 6.61577C4.75373 6.61577 4.92195 6.6733 5.05409 6.76973H7.64445C7.77659 6.6733 7.9448 6.61577 8.12802 6.61577C8.31123 6.61577 8.47945 6.6733 8.61159 6.76973H11.2423V5.7373H1.26338Z" fill="#156CE4"/>
<path fill-rule="evenodd" clip-rule="evenodd" d="M6.34991 6.55534C6.4367 6.35991 6.5617 6.18441 6.72563 6.03688L6.72598 6.03655V6.03623C6.86063 5.9157 7.02027 5.81445 7.20527 5.7373H9.05241C9.23777 5.81413 9.39741 5.91538 9.5317 6.03623V6.03688C9.88634 6.35605 10.0592 6.80863 10.0592 7.30813V7.44473H9.7017C9.66563 7.78255 9.49813 8.0863 9.24598 8.31323V8.31388C8.96027 8.57102 8.56491 8.73045 8.12848 8.73045C7.69205 8.73045 7.29705 8.57102 7.01098 8.31388C6.75848 8.08663 6.59134 7.7832 6.55527 7.44473H6.1442C6.10848 7.78255 5.94098 8.0863 5.68884 8.31323V8.31388C5.40277 8.57102 5.00741 8.73045 4.57134 8.73045C4.13491 8.73045 3.73955 8.57102 3.45348 8.31388C3.20134 8.08663 3.03384 7.7832 2.99813 7.44473H2.64062V7.30813C2.64062 6.80863 2.81312 6.35638 3.16813 6.03688L3.16848 6.03655L3.16884 6.03623C3.30313 5.9157 3.46277 5.81445 3.64813 5.7373H5.49491C5.68027 5.81413 5.83991 5.91538 5.9742 6.03623V6.03688C6.13777 6.18409 6.26277 6.35991 6.34991 6.55534ZM4.57134 6.61577C4.14634 6.61577 3.80205 6.92563 3.80205 7.30813C3.80205 7.6903 4.14634 8.00016 4.57134 8.00016C4.99598 8.00016 5.34027 7.6903 5.34027 7.30813C5.34027 6.92563 4.99598 6.61577 4.57134 6.61577ZM8.12848 6.61577C7.70384 6.61577 7.3592 6.92563 7.3592 7.30813C7.3592 7.6903 7.70384 8.00016 8.12848 8.00016C8.55348 8.00016 8.89777 7.6903 8.89777 7.30813C8.89777 6.92563 8.55348 6.61577 8.12848 6.61577Z" fill="#156CE4"/>
<path fill-rule="evenodd" clip-rule="evenodd" d="M8.12801 6.92969C7.89586 6.92969 7.70801 7.09908 7.70801 7.30801C7.70801 7.51694 7.89586 7.68633 8.12801 7.68633C8.36015 7.68633 8.54837 7.51694 8.54837 7.30801C8.54837 7.09908 8.36015 6.92969 8.12801 6.92969Z" fill="#156CE4"/>
<path fill-rule="evenodd" clip-rule="evenodd" d="M4.57075 6.92969C4.3386 6.92969 4.15039 7.09908 4.15039 7.30801C4.15039 7.51694 4.3386 7.68633 4.57075 7.68633C4.80253 7.68633 4.99075 7.51694 4.99075 7.30801C4.99075 7.09908 4.80253 6.92969 4.57075 6.92969Z" fill="#156CE4"/>
<path fill-rule="evenodd" clip-rule="evenodd" d="M19.051 7.51521H19.3549V5.38574H19.051V7.51521Z" fill="#156CE4"/>
<path fill-rule="evenodd" clip-rule="evenodd" d="M13.1586 7.51521H13.4622V5.38574H13.1586V7.51521Z" fill="#156CE4"/>
<path fill-rule="evenodd" clip-rule="evenodd" d="M12.5742 7.75586H19.9849V7.19336H12.5742V7.75586Z" fill="#156CE4"/>
<path fill-rule="evenodd" clip-rule="evenodd" d="M12.5742 6.75391H19.9849V6.19141H12.5742V6.75391Z" fill="#156CE4"/>
<path fill-rule="evenodd" clip-rule="evenodd" d="M31.5425 5.87443H0V0H0.811429V4.97957H30.7311V0H31.5425V5.87443ZM0.303571 5.60121H31.2389V0.273214H31.035V5.25279H0.5075V0.273214H0.303571V5.60121Z" fill="#156CE4"/>
<path fill-rule="evenodd" clip-rule="evenodd" d="M25.6938 5.11583H25.9978V1.32715H25.6938V5.11583ZM20.6564 5.11583H20.9603V1.32715H20.6564V5.11583ZM15.6192 5.11583H15.9231V1.32715H15.6192V5.11583ZM10.5821 5.11583H10.886V1.32715H10.5821V5.11583ZM5.54492 5.11583H5.84885V1.32715H5.54492V5.11583Z" fill="#156CE4"/>
</svg>
