<svg width="40" height="9" viewBox="0 0 40 9" fill="none" xmlns="http://www.w3.org/2000/svg">
<path fill-rule="evenodd" clip-rule="evenodd" d="M19.4229 7.56717H19.7241V5.60742H19.4229V7.56717Z" fill="#156CE4"/>
<path fill-rule="evenodd" clip-rule="evenodd" d="M15.541 7.56717H15.8423V5.60742H15.541V7.56717Z" fill="#156CE4"/>
<path fill-rule="evenodd" clip-rule="evenodd" d="M15.2061 7.80859H20.0878V7.24609H15.2061V7.80859Z" fill="#156CE4"/>
<path fill-rule="evenodd" clip-rule="evenodd" d="M15.2061 6.80664H20.0878V6.24414H15.2061V6.80664Z" fill="#156CE4"/>
<path fill-rule="evenodd" clip-rule="evenodd" d="M31.3632 5.74459H1.53274C0.673274 5.74459 0 4.61252 0 3.16706C0 1.72192 0.673274 0.589844 1.53274 0.589844H31.3632C32.2227 0.589844 32.8963 1.72192 32.8963 3.16706C32.8963 4.61252 32.2227 5.74459 31.3632 5.74459ZM1.53274 0.863058C0.865133 0.863058 0.300885 1.91831 0.300885 3.16706C0.300885 4.41613 0.865133 5.47138 1.53274 5.47138H31.3632C32.0308 5.47138 32.595 4.41613 32.595 3.16706C32.595 1.91831 32.0308 0.863058 31.3632 0.863058H1.53274Z" fill="#156CE4"/>
<path fill-rule="evenodd" clip-rule="evenodd" d="M31.0138 1.63931H1.88174C1.75713 1.63931 1.65625 1.54771 1.65625 1.43424C1.65625 1.3211 1.75713 1.22949 1.88174 1.22949H31.0138C31.1384 1.22949 31.2396 1.3211 31.2396 1.43424C31.2396 1.54771 31.1384 1.63931 31.0138 1.63931Z" fill="#156CE4"/>
<path fill-rule="evenodd" clip-rule="evenodd" d="M30.269 1.90675H30.4697V1.43457H30.269V1.90675Z" fill="#156CE4"/>
<path fill-rule="evenodd" clip-rule="evenodd" d="M27.9487 1.90675H28.1494V1.43457H27.9487V1.90675Z" fill="#156CE4"/>
<path fill-rule="evenodd" clip-rule="evenodd" d="M25.6284 1.90675H25.8291V1.43457H25.6284V1.90675Z" fill="#156CE4"/>
<path fill-rule="evenodd" clip-rule="evenodd" d="M23.3081 1.90675H23.5088V1.43457H23.3081V1.90675Z" fill="#156CE4"/>
<path fill-rule="evenodd" clip-rule="evenodd" d="M20.9878 1.90675H21.1885V1.43457H20.9878V1.90675Z" fill="#156CE4"/>
<path fill-rule="evenodd" clip-rule="evenodd" d="M18.6675 1.90675H18.8682V1.43457H18.6675V1.90675Z" fill="#156CE4"/>
<path fill-rule="evenodd" clip-rule="evenodd" d="M16.3471 1.90675H16.5479V1.43457H16.3471V1.90675Z" fill="#156CE4"/>
<path fill-rule="evenodd" clip-rule="evenodd" d="M14.0278 1.90675H14.2285V1.43457H14.0278V1.90675Z" fill="#156CE4"/>
<path fill-rule="evenodd" clip-rule="evenodd" d="M11.7065 1.90675H11.9072V1.43457H11.7065V1.90675Z" fill="#156CE4"/>
<path fill-rule="evenodd" clip-rule="evenodd" d="M9.38718 1.90675H9.58789V1.43457H9.38718V1.90675Z" fill="#156CE4"/>
<path fill-rule="evenodd" clip-rule="evenodd" d="M7.06687 1.90675H7.26758V1.43457H7.06687V1.90675Z" fill="#156CE4"/>
<path fill-rule="evenodd" clip-rule="evenodd" d="M4.74656 1.90675H4.94727V1.43457H4.74656V1.90675Z" fill="#156CE4"/>
<path fill-rule="evenodd" clip-rule="evenodd" d="M2.42625 1.90675H2.62695V1.43457H2.42625V1.90675Z" fill="#156CE4"/>
<path fill-rule="evenodd" clip-rule="evenodd" d="M1.38184 5.74398H20.7298V4.99023H1.38184V5.74398ZM1.68272 5.47077H20.4286V5.26345H1.68272V5.47077Z" fill="#156CE4"/>
<path fill-rule="evenodd" clip-rule="evenodd" d="M1.5332 0.72654H31.3633V0.136719H1.5332V0.72654Z" fill="#156CE4"/>
<path fill-rule="evenodd" clip-rule="evenodd" d="M1.38184 0.863036H31.5132V0H1.38184V0.863036ZM1.68272 0.5895H31.2119V0.272893H1.68272V0.5895Z" fill="#156CE4"/>
<path fill-rule="evenodd" clip-rule="evenodd" d="M38.6683 7.78145H37.4722L37.429 7.7448C37.3597 7.68662 37.2921 7.63584 37.2262 7.59277L37.4039 7.37162C37.4644 7.4118 37.526 7.45712 37.5894 7.50823H38.6287L39.4322 7.3128V6.29805L39.1667 5.6012H39.4322V4.31034C39.4322 3.82755 39.085 2.8038 38.8312 2.05648C38.748 1.81155 38.6733 1.59105 38.6198 1.41748C38.519 1.09091 37.9204 0.91091 36.9338 0.91091H34.7505V5.1737H34.4492V0.637695H36.9338C38.1002 0.637695 38.765 0.875231 38.9097 1.34355C38.9625 1.51552 39.0368 1.73377 39.119 1.97612C39.3926 2.78259 39.7335 3.78641 39.7335 4.31034V5.87441H39.5894L39.7335 6.27523V7.52237L38.6683 7.78145Z" fill="#156CE4"/>
<path fill-rule="evenodd" clip-rule="evenodd" d="M39.5391 3.92342C39.4131 3.24617 39.0418 2.22917 38.8315 1.58984H38.4736L38.9936 3.79967C38.9936 3.79967 39.2496 3.82602 39.5391 3.92342Z" fill="#156CE4"/>
<path fill-rule="evenodd" clip-rule="evenodd" d="M34.1436 7.64425V6.89854C34.1436 6.18561 34.7857 5.60254 35.5708 5.60254H35.8377C36.7694 5.60254 37.5315 6.29457 37.5315 7.14057V7.64425H37.2607C37.1984 7.92293 37.0462 8.17204 36.8331 8.36554V8.36618C36.5499 8.62332 36.1581 8.78275 35.7255 8.78275C35.2936 8.78275 34.9018 8.62332 34.6182 8.36586L34.6179 8.36618C34.4044 8.17236 34.2526 7.92325 34.1903 7.64425H34.1436ZM35.7255 6.66807C35.3046 6.66807 34.963 6.97793 34.963 7.36043C34.963 7.74261 35.3046 8.05247 35.7255 8.05247C36.1464 8.05247 36.488 7.74261 36.488 7.36043C36.488 6.97793 36.1464 6.66807 35.7255 6.66807Z" fill="#156CE4"/>
<path fill-rule="evenodd" clip-rule="evenodd" d="M38.0178 7.7358H37.4312V7.14115C37.4312 6.34337 36.7165 5.69408 35.8379 5.69408H35.5707C34.8394 5.69408 34.2443 6.23473 34.2443 6.89912V7.7358H33.5781V6.59569C33.5781 5.71208 34.4641 4.90723 35.4376 4.90723H35.7477C36.9148 4.90723 38.0178 5.86476 38.0178 6.87726V7.7358ZM37.6323 7.55387H37.8171V6.87726C37.8171 5.97533 36.7923 5.08948 35.7477 5.08948H35.4376C34.5848 5.08948 33.7788 5.82137 33.7788 6.59569V7.55387H34.0433V6.89912C34.0433 6.13444 34.7289 5.51216 35.5707 5.51216H35.8379C36.8273 5.51216 37.6323 6.24308 37.6323 7.14116V7.55387Z" fill="#156CE4"/>
<path fill-rule="evenodd" clip-rule="evenodd" d="M35.7252 6.98242C35.4951 6.98242 35.3086 7.15181 35.3086 7.36074C35.3086 7.56967 35.4951 7.73906 35.7252 7.73906C35.9553 7.73906 36.1419 7.56967 36.1419 7.36074C36.1419 7.15181 35.9553 6.98242 35.7252 6.98242Z" fill="#156CE4"/>
<path fill-rule="evenodd" clip-rule="evenodd" d="M36.5242 0.773559C35.7065 0.347987 35.1847 0.232273 34.4123 0.212987C34.2509 0.20913 34.1149 0.320987 34.1036 0.467237C34.0034 1.7777 33.9029 3.08784 33.8027 4.39831V6.33684C33.8898 5.86917 34.2063 5.44681 34.6395 5.20606L34.6003 5.17295C34.6003 3.70659 34.6003 2.23992 34.6003 0.773559H36.5242Z" fill="#156CE4"/>
<path fill-rule="evenodd" clip-rule="evenodd" d="M38.9971 7.21814H39.5829V6.27539H38.9971V7.21814Z" fill="#156CE4"/>
<path fill-rule="evenodd" clip-rule="evenodd" d="M37.9121 6.77609H39.1956V6.59416H37.9121V6.77609Z" fill="#156CE4"/>
<path fill-rule="evenodd" clip-rule="evenodd" d="M36.0762 4.60617H36.7289V4.42424H36.0762V4.60617Z" fill="#156CE4"/>
<path fill-rule="evenodd" clip-rule="evenodd" d="M37.9121 7.21766H39.1956V7.03541H37.9121V7.21766Z" fill="#156CE4"/>
<path fill-rule="evenodd" clip-rule="evenodd" d="M33.9677 5.87793H22.2969V6.82229H25.1125C25.2434 6.72586 25.4105 6.66832 25.5917 6.66832C25.7733 6.66832 25.9401 6.72586 26.071 6.82229H33.7779V6.59536C33.7779 6.344 33.8466 6.09843 33.9677 5.87793Z" fill="#156CE4"/>
<path fill-rule="evenodd" clip-rule="evenodd" d="M27.1513 7.49747C27.1155 7.83529 26.9499 8.13904 26.6996 8.36597V8.36661C26.4164 8.62375 26.0246 8.78318 25.592 8.78318C25.1601 8.78318 24.7683 8.62375 24.4847 8.36629L24.4844 8.36661C24.2341 8.13936 24.0684 7.83561 24.033 7.49747H23.6787V7.36086C23.6787 6.86136 23.8497 6.40911 24.2015 6.08961L24.2019 6.08929V6.08897C24.3353 5.96811 24.4936 5.86718 24.6769 5.79004H26.5077C26.6915 5.86686 26.8497 5.96811 26.9828 6.08897V6.08961C27.3343 6.40879 27.5056 6.86104 27.5056 7.36086V7.49747H27.1513ZM25.592 6.6685C25.1711 6.6685 24.8299 6.97836 24.8299 7.36086C24.8299 7.74304 25.1711 8.0529 25.592 8.0529C26.0132 8.0529 26.3545 7.74304 26.3545 7.36086C26.3545 6.97836 26.0132 6.6685 25.592 6.6685Z" fill="#156CE4"/>
<path fill-rule="evenodd" clip-rule="evenodd" d="M25.5921 6.98242C25.3623 6.98242 25.1758 7.15181 25.1758 7.36074C25.1758 7.56967 25.3623 7.73906 25.5921 7.73906C25.8222 7.73906 26.0087 7.56967 26.0087 7.36074C26.0087 7.15181 25.8222 6.98242 25.5921 6.98242Z" fill="#156CE4"/>
<path fill-rule="evenodd" clip-rule="evenodd" d="M30.622 6.49023H27.8896V7.26166C27.8896 7.41209 28.0249 7.5352 28.1905 7.5352H30.3208C30.4868 7.5352 30.622 7.41209 30.622 7.26166V7.12216H30.8362C30.8355 7.13084 30.8351 7.13984 30.8351 7.14852C30.8351 7.34973 31.0146 7.5127 31.2362 7.5127C31.4008 7.5127 31.5427 7.42238 31.6043 7.29316H32.0904C32.1519 7.42238 32.2935 7.5127 32.4585 7.5127C32.6797 7.5127 32.8596 7.34973 32.8596 7.14852C32.8596 7.13984 32.8589 7.13084 32.8581 7.12216H32.9905V7.50659H33.782V6.50148H32.9905V6.67538H30.622V6.49023Z" fill="#156CE4"/>
<path fill-rule="evenodd" clip-rule="evenodd" d="M22.0625 6.94027H21.7139V7.74898H22.0625V7.52559L22.7319 7.11898H23.8158V6.51855H22.527V6.78116L22.5156 6.7818L22.0625 7.14791V6.94027Z" fill="#156CE4"/>
<path fill-rule="evenodd" clip-rule="evenodd" d="M39.2002 5.31141H39.5828V4.40723H39.2002V5.31141Z" fill="#156CE4"/>
<path fill-rule="evenodd" clip-rule="evenodd" d="M37.9073 1.8281H36.1289V3.09292C36.1289 3.22728 36.2337 3.3401 36.3799 3.36228L38.4698 3.68274L38.4202 3.40181C38.3717 3.43299 38.313 3.45131 38.2493 3.45131H38.1668C38.0032 3.45131 37.8698 3.33014 37.8698 3.18164V1.95924C37.8698 1.91167 37.8836 1.86667 37.9073 1.8281ZM38.2493 1.82617C38.33 1.82617 38.3958 1.88596 38.3958 1.95924V3.18164C38.3958 3.25492 38.3296 3.31471 38.2493 3.31471H38.1668C38.0864 3.31471 38.0202 3.2546 38.0202 3.18164V1.95924C38.0202 1.88596 38.0861 1.82617 38.1668 1.82617H38.2493Z" fill="#156CE4"/>
<path fill-rule="evenodd" clip-rule="evenodd" d="M1.53294 5.60742V6.8221H1.70108L1.29789 7.14771V6.94006H0.949219V7.74878H1.29789V7.52539L1.96727 7.11878H3.05117V6.8221H4.33152C4.46249 6.72567 4.62922 6.66814 4.81081 6.66814C4.9924 6.66814 5.15913 6.45246 5.2901 6.54856C5.66639 6.54856 6.13294 6.75942 6.57364 6.75942C7.03807 6.75942 7.47948 6.54856 7.9832 6.54856C8.54285 6.54856 9.11665 6.54856 9.68231 6.54856C9.83347 6.54856 9.94993 7.3441 10.0997 7.3441C10.4405 7.3441 10.8105 6.54856 11.1358 6.54856C11.7478 6.54856 12.323 6.54856 12.8282 6.54856V5.60742H1.53294Z" fill="#156CE4"/>
<path fill-rule="evenodd" clip-rule="evenodd" d="M6.57392 7.49747H6.37038C6.33463 7.83529 6.16861 8.13904 5.9187 8.36597V8.36661C5.63516 8.62375 5.24366 8.78318 4.81109 8.78318C4.37852 8.78318 3.98666 8.62375 3.70348 8.36661C3.45321 8.13936 3.2872 7.83561 3.2518 7.49747H2.89746V7.36086C2.89746 6.86136 3.06879 6.40911 3.42029 6.08961L3.42065 6.08929L3.421 6.08897C3.5541 5.96811 3.71233 5.86718 3.89605 5.79004H5.72684C5.9102 5.86686 6.06843 5.96811 6.20153 6.08897V6.08961C6.36366 6.23682 6.48755 6.41265 6.57392 6.60807V7.49747ZM4.81109 6.6685C4.38985 6.6685 4.04861 6.97836 4.04861 7.36086C4.04861 7.74304 4.38985 8.0529 4.81109 8.0529C5.23197 8.0529 5.57357 7.74304 5.57357 7.36086C5.57357 6.97836 5.23197 6.6685 4.81109 6.6685Z" fill="#156CE4"/>
<path fill-rule="evenodd" clip-rule="evenodd" d="M4.81117 6.98242C4.58108 6.98242 4.39453 7.15181 4.39453 7.36074C4.39453 7.56967 4.58108 7.73906 4.81117 7.73906C5.04126 7.73906 5.22745 7.56967 5.22745 7.36074C5.22745 7.15181 5.04126 6.98242 4.81117 6.98242Z" fill="#156CE4"/>
<path fill-rule="evenodd" clip-rule="evenodd" d="M10.1003 7.49747H9.89639C9.861 7.83529 9.69498 8.13904 9.44507 8.36597V8.36661C9.16153 8.62375 8.76967 8.78318 8.3371 8.78318C7.90454 8.78318 7.51303 8.62375 7.22949 8.36661C6.97958 8.13936 6.81356 7.83561 6.77816 7.49747H6.42383V7.36086C6.42383 6.86136 6.5948 6.40911 6.94666 6.08961L6.94701 6.08929L6.94737 6.08897C7.08047 5.96811 7.2387 5.86718 7.42241 5.79004H9.25285C9.43657 5.86686 9.5948 5.96811 9.7279 6.08897V6.08961C9.89002 6.23682 10.0139 6.41265 10.1003 6.60807V7.49747ZM8.3371 6.6685C7.91622 6.6685 7.57498 6.97836 7.57498 7.36086C7.57498 7.74304 7.91622 8.0529 8.3371 8.0529C8.75834 8.0529 9.09958 7.74304 9.09958 7.36086C9.09958 6.97836 8.75834 6.6685 8.3371 6.6685Z" fill="#156CE4"/>
<path fill-rule="evenodd" clip-rule="evenodd" d="M8.3362 6.98242C8.10647 6.98242 7.91992 7.15181 7.91992 7.36074C7.91992 7.56967 8.10647 7.73906 8.3362 7.73906C8.56629 7.73906 8.75284 7.56967 8.75284 7.36074C8.75284 7.15181 8.56629 6.98242 8.3362 6.98242Z" fill="#156CE4"/>
<path fill-rule="evenodd" clip-rule="evenodd" d="M10.0996 7.49747H10.3031C10.3389 7.83529 10.5049 8.13904 10.7548 8.36597V8.36661C11.038 8.62375 11.4299 8.78318 11.8624 8.78318C12.295 8.78318 12.6869 8.62375 12.9701 8.36661C13.2203 8.13936 13.386 7.83561 13.4217 7.49747H13.7761V7.36086C13.7761 6.86136 13.6047 6.40911 13.2529 6.08961V6.08929L13.2525 6.08897C13.1194 5.96811 12.9612 5.86718 12.7775 5.79004H10.9467C10.763 5.86686 10.6047 5.96811 10.4716 6.08897V6.08961C10.3095 6.23682 10.186 6.41265 10.0996 6.60807V7.49747ZM11.8624 6.6685C12.2833 6.6685 12.6249 6.97836 12.6249 7.36086C12.6249 7.74304 12.2833 8.0529 11.8624 8.0529C11.4412 8.0529 11.1 7.74304 11.1 7.36086C11.1 6.97836 11.4412 6.6685 11.8624 6.6685Z" fill="#156CE4"/>
<path fill-rule="evenodd" clip-rule="evenodd" d="M11.8629 6.98242C12.093 6.98242 12.2796 7.15181 12.2796 7.36074C12.2796 7.56967 12.093 7.73906 11.8629 7.73906C11.6328 7.73906 11.4463 7.56967 11.4463 7.36074C11.4463 7.15181 11.6328 6.98242 11.8629 6.98242Z" fill="#156CE4"/>
</svg>
