<svg width="44" height="13" viewBox="0 0 44 13" fill="none" xmlns="http://www.w3.org/2000/svg">
<path fill-rule="evenodd" clip-rule="evenodd" d="M1.37845 9.2373V10.6762H1.56353L1.11973 11.0624V10.8164H0.736328V11.7746H1.11973V11.5099L1.85654 11.0277H3.05001V10.6762H14.609V9.82307H31.2817V9.2373H1.37845Z" fill="#156CE4"/>
<path fill-rule="evenodd" clip-rule="evenodd" d="M25.1677 11.5594H25.4993V9.03613H25.1677V11.5594Z" fill="#156CE4"/>
<path fill-rule="evenodd" clip-rule="evenodd" d="M18.739 11.5594H19.0706V9.03613H18.739V11.5594Z" fill="#156CE4"/>
<path fill-rule="evenodd" clip-rule="evenodd" d="M18.1016 11.8452H26.1866V11.1787H18.1016V11.8452Z" fill="#156CE4"/>
<path fill-rule="evenodd" clip-rule="evenodd" d="M18.1016 10.6577H26.1866V9.99121H18.1016V10.6577Z" fill="#156CE4"/>
<path fill-rule="evenodd" clip-rule="evenodd" d="M0 9.52158H35.8468V0H0V9.52158ZM0.389639 9.14071H35.4572V0.380863H0.389639V9.14071Z" fill="#156CE4"/>
<path fill-rule="evenodd" clip-rule="evenodd" d="M33.4088 9.12988H30.9007C30.1292 9.12988 29.9418 9.41629 29.9414 9.41705L30.2173 9.59644C30.2173 9.59606 30.3022 9.46314 30.8426 9.454V9.70194H32.8154V9.45362H33.4088V9.12988Z" fill="#156CE4"/>
<path fill-rule="evenodd" clip-rule="evenodd" d="M27.8459 9.85547H27V10.9744H27.7434V10.7056C27.7434 10.4077 27.7804 10.1167 27.8459 9.85547Z" fill="#156CE4"/>
<path fill-rule="evenodd" clip-rule="evenodd" d="M27.1572 11.3144C27.1572 10.7229 27.3454 10.1871 27.7327 9.80849L27.7331 9.80811V9.80773C28.0838 9.46533 28.5923 9.25586 29.2632 9.25586C29.9354 9.25586 30.4438 9.46533 30.7941 9.80773V9.80811C31.181 10.1867 31.3696 10.7226 31.3696 11.3144V11.813H30.9102C30.807 12.1398 30.6048 12.4239 30.3382 12.6322C30.0433 12.8623 29.6696 13.0001 29.2632 13.0001C28.7879 13.0001 28.3565 12.8112 28.0444 12.5061H28.044C27.7686 12.2373 27.5862 11.8773 27.5473 11.4767H27.1572V11.3144ZM29.2632 10.4944C28.7999 10.4944 28.4243 10.8616 28.4243 11.3144C28.4243 11.7677 28.7999 12.1348 29.2632 12.1348C29.7269 12.1348 30.1025 11.7677 30.1025 11.3144C30.1025 10.8616 29.7269 10.4944 29.2632 10.4944Z" fill="#156CE4"/>
<path fill-rule="evenodd" clip-rule="evenodd" d="M29.2643 11.7624C29.5168 11.7624 29.7225 11.5609 29.7225 11.3141C29.7225 11.0673 29.5168 10.8662 29.2643 10.8662C29.0118 10.8662 28.8057 11.0673 28.8057 11.3141C28.8057 11.5609 29.0118 11.7624 29.2643 11.7624Z" fill="#156CE4"/>
<path fill-rule="evenodd" clip-rule="evenodd" d="M42.828 11.8124H41.024V11.4887H42.7844L43.6685 11.2571V10.0548L43.3763 9.22905H43.6685V7.6995C43.6685 7.13468 43.1518 5.50459 42.8097 4.42636C42.7162 4.13272 42.6336 3.87068 42.5721 3.6673C42.3983 3.08877 42.0336 2.87396 41.0719 2.7818L38.7813 2.59174L37.4117 2.34114C37.3049 2.89529 37.2176 3.8943 37.1732 4.3978C37.0294 6.03779 37.0294 7.57077 37.0298 8.80248V8.80667L37.7374 9.30903L37.5426 9.57106L36.6982 8.97196V8.80248C36.6982 7.56429 36.6982 6.0237 36.8432 4.37038C36.8923 3.8086 36.9948 2.64011 37.1218 2.11567L37.158 1.96484L38.8261 2.27106L41.1019 2.4592C42.0258 2.54795 42.6461 2.76504 42.89 3.57589C42.9512 3.77813 43.0334 4.03864 43.1261 4.33038C43.4951 5.49316 44.0001 7.08555 44.0001 7.6995V9.5524H43.8415L44.0001 10.0273V11.5055L42.828 11.8124Z" fill="#156CE4"/>
<path fill-rule="evenodd" clip-rule="evenodd" d="M38.1429 11.8124H30.3256L30.4308 11.5839C30.4448 11.5534 30.458 11.4651 30.4685 11.3527C30.4822 11.2118 30.4892 11.0359 30.4892 10.882C30.4892 10.8412 30.3606 10.7662 30.1954 10.6881C29.6406 10.4269 29.6012 10.041 29.1543 10.3499V9.53906H37.5783C37.5163 9.64647 37.4645 9.75882 37.4252 9.87498V9.86318H29.4859V10.1267C29.6947 10.1599 30.0579 10.2646 30.3388 10.3971C30.6096 10.5247 30.8208 10.6916 30.8208 10.882C30.8208 11.0366 30.8126 11.2229 30.7974 11.3821C30.7939 11.419 30.7896 11.4548 30.7853 11.4883H37.9975V11.6506H38.3089V11.8124H38.1429Z" fill="#156CE4"/>
<path fill-rule="evenodd" clip-rule="evenodd" d="M43.7867 7.24163C43.648 6.43915 43.2396 5.2341 43.0078 4.47656H42.6143L43.1866 7.095C43.1866 7.095 43.4683 7.12623 43.7867 7.24163Z" fill="#156CE4"/>
<path fill-rule="evenodd" clip-rule="evenodd" d="M42.1115 11.7588H41.4654V11.0542C41.4654 10.1089 40.6788 9.33958 39.7117 9.33958H39.4179C38.6125 9.33958 37.9575 9.97981 37.9575 10.7674V11.7588H37.2246V10.4075C37.2246 9.36053 38.1999 8.40723 39.2714 8.40723H39.6127C40.897 8.40723 42.1115 9.54182 42.1115 10.7415V11.7588ZM41.6868 11.5433H41.8905V10.7415C41.8905 9.67283 40.7621 8.62318 39.6127 8.62318H39.2714C38.3327 8.62318 37.4455 9.4904 37.4455 10.4075V11.5433H37.7366V10.7674C37.7366 9.86098 38.4909 9.12363 39.4179 9.12363H39.7117C40.8007 9.12363 41.6868 9.99009 41.6868 11.0542V11.5433Z" fill="#156CE4"/>
<path fill-rule="evenodd" clip-rule="evenodd" d="M43.1895 11.1454H43.8343V10.0283H43.1895V11.1454Z" fill="#156CE4"/>
<path fill-rule="evenodd" clip-rule="evenodd" d="M41.9951 10.6215H43.4083V10.4059H41.9951V10.6215Z" fill="#156CE4"/>
<path fill-rule="evenodd" clip-rule="evenodd" d="M39.9746 8.05115H40.6931V7.83558H39.9746V8.05115Z" fill="#156CE4"/>
<path fill-rule="evenodd" clip-rule="evenodd" d="M41.9951 11.1451H43.4079V10.9291H41.9951V11.1451Z" fill="#156CE4"/>
<path fill-rule="evenodd" clip-rule="evenodd" d="M43.4131 8.88582H43.8343V7.81445H43.4131V8.88582Z" fill="#156CE4"/>
<path fill-rule="evenodd" clip-rule="evenodd" d="M37.8945 4.52771H42.9824V4.31214H37.8945V4.52771Z" fill="#156CE4"/>
<path fill-rule="evenodd" clip-rule="evenodd" d="M37.0264 8.94629V9.70154H37.4943C37.5734 9.52863 37.6798 9.36638 37.8064 9.22013L37.0264 8.94629Z" fill="#156CE4"/>
<path fill-rule="evenodd" clip-rule="evenodd" d="M41.9902 4.75797H40.0322V6.25705C40.0322 6.41625 40.1476 6.54993 40.3085 6.57621L42.6089 6.95555L42.5544 6.62306C42.5014 6.66 42.4363 6.68171 42.3662 6.68171H42.2754C42.0954 6.68171 41.9485 6.53812 41.9485 6.36216V4.91336C41.9485 4.85699 41.9637 4.80405 41.9902 4.75797ZM42.3662 4.75586C42.455 4.75586 42.5275 4.82708 42.5275 4.91354V6.36234C42.5275 6.4488 42.455 6.52002 42.3662 6.52002H42.2754C42.1869 6.52002 42.1145 6.4488 42.1145 6.36234V4.91354C42.1145 4.82708 42.1869 4.75586 42.2754 4.75586H42.3662Z" fill="#156CE4"/>
<path fill-rule="evenodd" clip-rule="evenodd" d="M37.8467 11.6507V10.7667C37.8467 9.92233 38.5535 9.23145 39.4177 9.23145H39.7115C40.737 9.23145 41.5759 10.0514 41.5759 11.0539V11.6507H41.2778C41.2093 11.9809 41.0421 12.2761 40.8072 12.5053V12.5057C40.4954 12.8108 40.0641 12.9997 39.588 12.9997C39.1126 12.9997 38.6813 12.8108 38.3692 12.5057H38.3688C38.1342 12.2764 37.9667 11.9813 37.8981 11.6507H37.8467ZM39.588 10.494C39.1247 10.494 38.7491 10.8612 38.7491 11.314C38.7491 11.7672 39.1247 12.1344 39.588 12.1344C40.0516 12.1344 40.4273 11.7672 40.4273 11.314C40.4273 10.8612 40.0516 10.494 39.588 10.494Z" fill="#156CE4"/>
<path fill-rule="evenodd" clip-rule="evenodd" d="M39.5885 11.7624C39.841 11.7624 40.0467 11.5609 40.0467 11.3141C40.0467 11.0673 39.841 10.8662 39.5885 10.8662C39.336 10.8662 39.1299 11.0673 39.1299 11.3141C39.1299 11.5609 39.336 11.7624 39.5885 11.7624Z" fill="#156CE4"/>
<path fill-rule="evenodd" clip-rule="evenodd" d="M36.4706 10.1465H35.5468C35.4984 10.1465 35.4575 10.1754 35.4423 10.22L35.3566 10.4683C35.3449 10.5022 35.3504 10.5365 35.3718 10.5658C35.3932 10.5948 35.4248 10.6108 35.4614 10.6108H36.3849C36.4332 10.6108 36.4741 10.5818 36.4897 10.5372L36.575 10.2889C36.5867 10.255 36.5816 10.2208 36.5602 10.1914C36.5388 10.1625 36.5072 10.1465 36.4706 10.1465Z" fill="#156CE4"/>
<path fill-rule="evenodd" clip-rule="evenodd" d="M36.2391 10.7422H35.3153C35.267 10.7422 35.2261 10.7708 35.2109 10.8157L35.1252 11.0636C35.1135 11.0979 35.1189 11.1322 35.1404 11.1611C35.1618 11.1901 35.1934 11.2061 35.23 11.2061H36.1538C36.2017 11.2061 36.243 11.1771 36.2582 11.1326L36.3436 10.8846C36.3553 10.8504 36.3502 10.8161 36.3288 10.7871C36.3073 10.7578 36.2758 10.7422 36.2391 10.7422Z" fill="#156CE4"/>
<path fill-rule="evenodd" clip-rule="evenodd" d="M6.92765 11.4763H6.70322C6.66426 11.8766 6.48151 12.2361 6.20643 12.5054V12.5057C5.89433 12.8108 5.463 12.9997 4.98725 12.9997C4.51111 12.9997 4.07978 12.8108 3.76768 12.5057C3.49259 12.2369 3.30985 11.8769 3.27089 11.4763H2.88086V11.314C2.88086 10.7225 3.06906 10.1867 3.45636 9.80809L3.45675 9.80771L3.45714 9.80733C3.60364 9.66412 3.77781 9.54415 3.98003 9.45312H5.99486C6.19708 9.54415 6.37125 9.66412 6.51775 9.80733V9.80771C6.69621 9.98252 6.83258 10.1905 6.92765 10.4224V11.4763ZM4.98725 10.494C4.52358 10.494 4.14797 10.8612 4.14797 11.314C4.14797 11.7672 4.52358 12.1344 4.98725 12.1344C5.45053 12.1344 5.82614 11.7672 5.82614 11.314C5.82614 10.8612 5.45053 10.494 4.98725 10.494Z" fill="#156CE4"/>
<path fill-rule="evenodd" clip-rule="evenodd" d="M4.98693 10.8662C4.73366 10.8662 4.52832 11.0669 4.52832 11.3145C4.52832 11.5617 4.73366 11.7624 4.98693 11.7624C5.2398 11.7624 5.44514 11.5617 5.44514 11.3145C5.44514 11.0669 5.2398 10.8662 4.98693 10.8662Z" fill="#156CE4"/>
<path fill-rule="evenodd" clip-rule="evenodd" d="M10.8081 11.4763H10.5841C10.5447 11.8766 10.362 12.2361 10.0869 12.5054V12.5057C9.77519 12.8108 9.34386 12.9997 8.86772 12.9997C8.39158 12.9997 7.96064 12.8108 7.64854 12.5057C7.37306 12.2369 7.19071 11.8769 7.15136 11.4763H6.76172V11.314C6.76172 10.7225 6.94991 10.1867 7.33722 9.80809L7.33761 9.80771V9.80733C7.4845 9.66412 7.65867 9.54415 7.8605 9.45312H9.87572C10.0779 9.54415 10.2521 9.66412 10.3986 9.80733V9.80771C10.5771 9.98252 10.713 10.1905 10.8081 10.4224V11.4763ZM8.86772 10.494C8.40444 10.494 8.02844 10.8612 8.02844 11.314C8.02844 11.7672 8.40444 12.1344 8.86772 12.1344C9.33139 12.1344 9.707 11.7672 9.707 11.314C9.707 10.8612 9.33139 10.494 8.86772 10.494Z" fill="#156CE4"/>
<path fill-rule="evenodd" clip-rule="evenodd" d="M8.8674 10.8662C8.61413 10.8662 8.40918 11.0669 8.40918 11.3145C8.40918 11.5617 8.61413 11.7624 8.8674 11.7624C9.12066 11.7624 9.326 11.5617 9.326 11.3145C9.326 11.0669 9.12066 10.8662 8.8674 10.8662Z" fill="#156CE4"/>
<path fill-rule="evenodd" clip-rule="evenodd" d="M10.8086 11.4763H11.033C11.072 11.8766 11.2547 12.2361 11.5298 12.5054V12.5057C11.8419 12.8108 12.2732 12.9997 12.7494 12.9997C13.2255 12.9997 13.6565 12.8108 13.9686 12.5057C14.2437 12.2369 14.4264 11.8769 14.4654 11.4763H14.8554V11.314C14.8554 10.7225 14.6672 10.1867 14.2799 9.80809L14.2795 9.80771L14.2791 9.80733C14.1326 9.66412 13.9584 9.54415 13.7562 9.45312H11.7414C11.5392 9.54415 11.365 9.66412 11.2185 9.80733V9.80771C11.04 9.98252 10.9037 10.1905 10.8086 10.4224V11.4763ZM12.7494 10.494C13.2127 10.494 13.5883 10.8612 13.5883 11.314C13.5883 11.7672 13.2127 12.1344 12.7494 12.1344C12.2857 12.1344 11.9101 11.7672 11.9101 11.314C11.9101 10.8612 12.2857 10.494 12.7494 10.494Z" fill="#156CE4"/>
<path fill-rule="evenodd" clip-rule="evenodd" d="M12.7486 10.8662C13.0015 10.8662 13.2069 11.0669 13.2069 11.3145C13.2069 11.5617 13.0015 11.7624 12.7486 11.7624C12.4954 11.7624 12.29 11.5617 12.29 11.3145C12.29 11.0669 12.4954 10.8662 12.7486 10.8662Z" fill="#156CE4"/>
</svg>
