<svg width="40" height="11" viewBox="0 0 40 11" fill="none" xmlns="http://www.w3.org/2000/svg">
<path fill-rule="evenodd" clip-rule="evenodd" d="M21.3955 6.4043L15.7471 7.75336L15.814 8.01086L21.4624 6.66148L21.3955 6.4043Z" fill="#156CE4"/>
<path fill-rule="evenodd" clip-rule="evenodd" d="M10.3967 7.20312C6.01456 7.20312 6.83204 7.20312 2.44985 7.20312L1.6875 8.52313H3.25389C3.34027 8.48094 3.43876 8.45719 3.54296 8.45719C3.64716 8.45719 3.74565 8.48094 3.83204 8.52313H6.13456C6.22095 8.48094 6.3191 8.45719 6.4233 8.45719C6.52784 8.45719 6.62599 8.48094 6.71237 8.52313H9.01489C9.10128 8.48094 9.19943 8.45719 9.30397 8.45719C9.40817 8.45719 9.50632 8.48094 9.59305 8.52313H11.1591L10.3967 7.20312Z" fill="#156CE4"/>
<path fill-rule="evenodd" clip-rule="evenodd" d="M30.8412 6.98047H28.6772C28.0116 6.98047 27.8503 7.21547 27.8496 7.21609L28.0876 7.36359C28.0879 7.36328 28.1612 7.25422 28.6274 7.24672V7.44984H30.3289V7.24641H30.8412V6.98047Z" fill="#156CE4"/>
<path fill-rule="evenodd" clip-rule="evenodd" d="M27.2193 7.66406H22.1621V8.58219H23.5298C23.6441 8.34969 23.8962 8.18844 24.1887 8.18844C24.4814 8.18844 24.7335 8.34969 24.8478 8.58219H26.6072C26.7151 8.36219 26.9466 8.20594 27.2193 8.18969V7.66406Z" fill="#156CE4"/>
<path fill-rule="evenodd" clip-rule="evenodd" d="M38.9674 9.27047H37.4111V9.00516H38.9298L39.6925 8.81484V7.82859L39.4404 7.15109H39.6925V5.89578C39.6925 5.43266 39.2471 4.09641 38.952 3.21234C38.8713 2.97047 38.7997 2.75516 38.7466 2.58734C38.5967 2.11297 38.2824 1.93641 37.4525 1.86078L35.4767 1.70484L34.2948 1.49953C34.203 1.95391 34.1274 2.77391 34.0894 3.18703C33.9654 4.53078 33.9654 5.78766 33.9654 6.79766V6.80453L34.5758 7.21672L34.4078 7.43141L33.6797 6.93984V6.79766C33.6797 5.78266 33.6794 4.51922 33.8044 3.16453C33.8471 2.70391 33.9351 1.74484 34.0447 1.31453L34.076 1.19141L35.515 1.44172L37.4787 1.59641C38.2757 1.66891 38.8104 1.84703 39.0209 2.51234C39.0736 2.67891 39.1449 2.89297 39.2252 3.13359C39.5432 4.08672 39.9785 5.39234 39.9785 5.89578V7.41672H39.842L39.9785 7.80641V9.01891L38.9674 9.27047Z" fill="#156CE4"/>
<path fill-rule="evenodd" clip-rule="evenodd" d="M34.9259 9.27027H28.0863L28.1773 9.08277C28.1894 9.05777 28.2009 8.98527 28.21 8.89309C28.2217 8.77746 28.2278 8.63309 28.2278 8.50715C28.2278 8.4734 28.1168 8.41184 27.9743 8.34777C27.7135 8.2309 27.3757 8.14402 27.2658 8.14402V8.1434H27.2422L27.2342 8.14434H27.2331L27.0762 8.15902V7.40527H34.4385C34.3851 7.49309 34.3407 7.58527 34.3064 7.68059V7.6709H27.3622V7.88746C27.5424 7.91434 27.8557 8.00027 28.098 8.10902C28.3316 8.21402 28.5135 8.35059 28.5135 8.50715C28.5135 8.63371 28.5068 8.78652 28.4937 8.91715C28.4906 8.94746 28.4869 8.97684 28.4829 9.00465H34.8002V9.13746H35.0688V9.27027H34.9259Z" fill="#156CE4"/>
<path fill-rule="evenodd" clip-rule="evenodd" d="M39.795 5.5207C39.6753 4.86227 39.3227 3.87352 39.123 3.25195H38.7832L39.277 5.40039C39.277 5.40039 39.52 5.42602 39.795 5.5207Z" fill="#156CE4"/>
<path fill-rule="evenodd" clip-rule="evenodd" d="M38.3496 9.22656H37.7926V8.64844C37.7926 7.8725 37.1136 7.24156 36.2793 7.24156H36.0259C35.3314 7.24156 34.7664 7.76719 34.7664 8.41281V9.22656H34.1338V8.11813C34.1338 7.25906 34.9751 6.47656 35.8995 6.47656H36.194C37.3022 6.47656 38.3496 7.40719 38.3496 8.39188V9.22656ZM37.9832 9.04938H38.159V8.39188C38.159 7.51469 37.1856 6.65344 36.194 6.65344H35.8995C35.0898 6.65344 34.3244 7.36531 34.3244 8.11813V9.04938H34.5755V8.41281C34.5755 7.66938 35.2262 7.06469 36.0259 7.06469H36.2793C37.2188 7.06469 37.9832 7.775 37.9832 8.64844V9.04938Z" fill="#156CE4"/>
<path fill-rule="evenodd" clip-rule="evenodd" d="M39.2793 8.7232H39.8356V7.80664H39.2793V8.7232Z" fill="#156CE4"/>
<path fill-rule="evenodd" clip-rule="evenodd" d="M38.249 8.29352H39.4678V8.11664H38.249V8.29352Z" fill="#156CE4"/>
<path fill-rule="evenodd" clip-rule="evenodd" d="M36.5059 6.18414H37.1257V6.00727H36.5059V6.18414Z" fill="#156CE4"/>
<path fill-rule="evenodd" clip-rule="evenodd" d="M38.249 8.72238H39.4678V8.5452H38.249V8.72238Z" fill="#156CE4"/>
<path fill-rule="evenodd" clip-rule="evenodd" d="M39.4727 6.8693H39.836V5.99023H39.4727V6.8693Z" fill="#156CE4"/>
<path fill-rule="evenodd" clip-rule="evenodd" d="M34.7109 3.29352H39.1002V3.11664H34.7109V3.29352Z" fill="#156CE4"/>
<path fill-rule="evenodd" clip-rule="evenodd" d="M33.2124 7.90332H32.4154C32.3737 7.90332 32.3384 7.92707 32.3253 7.96363L32.2514 8.16738C32.2413 8.1952 32.2457 8.22332 32.2642 8.24738C32.2826 8.27113 32.3099 8.28426 32.3418 8.28426H33.1384C33.1801 8.28426 33.2154 8.26051 33.2289 8.22395L33.3025 8.0202C33.3126 7.99238 33.3082 7.96426 33.2897 7.9402C33.2712 7.91645 33.244 7.90332 33.2124 7.90332Z" fill="#156CE4"/>
<path fill-rule="evenodd" clip-rule="evenodd" d="M33.0121 8.3916H32.2151C32.1734 8.3916 32.1382 8.41504 32.125 8.45191L32.0511 8.65535C32.041 8.68348 32.0457 8.7116 32.0642 8.73535C32.0827 8.75941 32.1099 8.77223 32.1415 8.77223H32.9382C32.9798 8.77223 33.0151 8.74879 33.0286 8.71191L33.1022 8.50848C33.1123 8.48035 33.1079 8.45223 33.0894 8.42848C33.0709 8.40441 33.0437 8.3916 33.0121 8.3916Z" fill="#156CE4"/>
<path fill-rule="evenodd" clip-rule="evenodd" d="M33.9629 6.91895V7.53832H34.3663C34.4348 7.39645 34.5263 7.26332 34.6355 7.14332L33.9629 6.91895Z" fill="#156CE4"/>
<path fill-rule="evenodd" clip-rule="evenodd" d="M23.1374 9.83973L23.1371 9.84004C22.8998 9.6191 22.7422 9.32379 22.7085 8.99504H22.3721V8.86223C22.3721 8.3766 22.5344 7.93691 22.8685 7.62629L22.8689 7.62598L22.8692 7.62566C23.1714 7.34473 23.6101 7.17285 24.1889 7.17285C24.6033 7.17285 24.9465 7.2616 25.2195 7.41535C25.4329 7.53566 25.6016 7.69441 25.7277 7.88129C25.8534 7.69441 26.0225 7.53566 26.2356 7.41535C26.5085 7.2616 26.8517 7.17285 27.2662 7.17285C27.8457 7.17285 28.2843 7.34473 28.5865 7.62566V7.62629C28.9203 7.9366 29.083 8.37629 29.083 8.86223V9.27098H28.6867C28.5976 9.5391 28.4232 9.77223 28.1932 9.94316C27.9388 10.1319 27.6164 10.245 27.2662 10.245C26.8558 10.245 26.484 10.09 26.2144 9.83973V9.84004C26.0453 9.68285 25.9169 9.48848 25.8447 9.27098H25.6097C25.5206 9.5391 25.3462 9.77223 25.1163 9.94316C24.8618 10.1319 24.5395 10.245 24.1889 10.245C23.7788 10.245 23.407 10.09 23.1374 9.83973ZM27.2662 8.1891C26.8662 8.1891 26.5422 8.49035 26.5422 8.86223C26.5422 9.23379 26.8662 9.53504 27.2662 9.53504C27.6659 9.53504 27.9899 9.23379 27.9899 8.86223C27.9899 8.49035 27.6659 8.1891 27.2662 8.1891ZM24.1889 8.1891C23.7892 8.1891 23.4652 8.49035 23.4652 8.86223C23.4652 9.23379 23.7892 9.53504 24.1889 9.53504C24.5889 9.53504 24.9129 9.23379 24.9129 8.86223C24.9129 8.49035 24.5889 8.1891 24.1889 8.1891Z" fill="#156CE4"/>
<path fill-rule="evenodd" clip-rule="evenodd" d="M38.2447 3.48234H36.5557V4.71203C36.5557 4.84266 36.6555 4.95234 36.794 4.97391L38.7789 5.28516L38.7318 5.01234C38.6857 5.04266 38.6296 5.06047 38.5694 5.06047H38.4911C38.3358 5.06047 38.2091 4.94266 38.2091 4.79828V3.60953C38.2091 3.56359 38.2219 3.51984 38.2447 3.48234ZM38.5694 3.48047C38.6457 3.48047 38.7086 3.53859 38.7086 3.60953V4.79828C38.7086 4.86953 38.6457 4.92766 38.5694 4.92766H38.4911C38.4145 4.92766 38.352 4.86922 38.352 4.79828V3.60953C38.352 3.53859 38.4145 3.48047 38.4911 3.48047H38.5694Z" fill="#156CE4"/>
<path fill-rule="evenodd" clip-rule="evenodd" d="M20.2592 7.86328H0V8.60422H0.595966V8.89266H2.93983C3.0084 8.64234 3.25244 8.45734 3.54319 8.45734C3.83361 8.45734 4.07765 8.64234 4.14655 8.89266H5.82017C5.88908 8.64234 6.13311 8.45734 6.42353 8.45734C6.71429 8.45734 6.95832 8.64234 7.02723 8.89266H8.70084C8.76941 8.64234 9.01344 8.45734 9.3042 8.45734C9.59462 8.45734 9.83866 8.64234 9.90756 8.89266H11.715V8.78141H20.2592V7.86328Z" fill="#156CE4"/>
<path fill-rule="evenodd" clip-rule="evenodd" d="M4.98315 8.3582C5.05374 8.20883 5.15021 8.07414 5.27324 7.95945C5.53677 7.71445 5.91895 7.56445 6.42349 7.56445C6.92803 7.56445 7.31021 7.71445 7.57374 7.95945C7.6971 8.07414 7.79357 8.20883 7.86383 8.3582C7.93408 8.20883 8.03055 8.07414 8.15391 7.95945C8.41744 7.71445 8.79963 7.56445 9.30416 7.56445C9.8087 7.56445 10.1905 7.71445 10.4541 7.95945C10.7455 8.23039 10.8874 8.61352 10.8874 9.03633V9.16914H10.5959C10.563 9.44977 10.4265 9.70164 10.2232 9.8907C9.98786 10.1095 9.66282 10.2448 9.30416 10.2448C8.94551 10.2448 8.62013 10.1095 8.38517 9.8907C8.18181 9.70164 8.04534 9.44977 8.0124 9.16914H7.71559C7.68231 9.44977 7.54618 9.70164 7.34248 9.8907C7.10752 10.1095 6.78248 10.2448 6.42349 10.2448C6.06484 10.2448 5.73979 10.1095 5.5045 9.8907C5.30114 9.70164 5.16467 9.44977 5.13173 9.16914H4.83492C4.80198 9.44977 4.66551 9.70164 4.46215 9.8907C4.22719 10.1095 3.90181 10.2448 3.54315 10.2448C3.1845 10.2448 2.85912 10.1095 2.62416 9.8907C2.4208 9.70164 2.28433 9.44977 2.25139 9.16914H1.95996V9.03633C1.95996 8.61352 2.10181 8.23039 2.3929 7.95945C2.65643 7.71445 3.03862 7.56445 3.54315 7.56445C4.04769 7.56445 4.42988 7.71445 4.69341 7.95945C4.81643 8.07414 4.9129 8.20883 4.98315 8.3582ZM6.42349 8.45727C6.07962 8.45727 5.80063 8.71664 5.80063 9.03633C5.80063 9.35633 6.07962 9.61539 6.42349 9.61539C6.76769 9.61539 7.04635 9.35633 7.04635 9.03633C7.04635 8.71664 6.76769 8.45727 6.42349 8.45727ZM3.54315 8.45727C3.19929 8.45727 2.9203 8.71664 2.9203 9.03633C2.9203 9.35633 3.19929 9.61539 3.54315 9.61539C3.88702 9.61539 4.16601 9.35633 4.16601 9.03633C4.16601 8.71664 3.88702 8.45727 3.54315 8.45727ZM9.30416 8.45727C8.95996 8.45727 8.68131 8.71664 8.68131 9.03633C8.68131 9.35633 8.95996 9.61539 9.30416 9.61539C9.64803 9.61539 9.92702 9.35633 9.92702 9.03633C9.92702 8.71664 9.64803 8.45727 9.30416 8.45727Z" fill="#156CE4"/>
<path fill-rule="evenodd" clip-rule="evenodd" d="M6.42318 8.71973C6.23528 8.71973 6.08301 8.8616 6.08301 9.03629C6.08301 9.21066 6.23528 9.35254 6.42318 9.35254C6.61107 9.35254 6.76368 9.21066 6.76368 9.03629C6.76368 8.8616 6.61107 8.71973 6.42318 8.71973Z" fill="#156CE4"/>
<path fill-rule="evenodd" clip-rule="evenodd" d="M3.54329 8.71973C3.35539 8.71973 3.20312 8.8616 3.20312 9.03629C3.20312 9.21066 3.35539 9.35254 3.54329 9.35254C3.73119 9.35254 3.88346 9.21066 3.88346 9.03629C3.88346 8.8616 3.73119 8.71973 3.54329 8.71973Z" fill="#156CE4"/>
<path fill-rule="evenodd" clip-rule="evenodd" d="M9.30404 8.71973C9.11614 8.71973 8.96387 8.8616 8.96387 9.03629C8.96387 9.21066 9.11614 9.35254 9.30404 9.35254C9.49193 9.35254 9.6442 9.21066 9.6442 9.03629C9.6442 8.8616 9.49193 8.71973 9.30404 8.71973Z" fill="#156CE4"/>
<path fill-rule="evenodd" clip-rule="evenodd" d="M32.394 6.38672H21.4145L21.3304 6.46453L20.0171 7.68547H0V8.39422H20.2538L21.6508 7.09547H32.394V6.38672Z" fill="#156CE4"/>
<path fill-rule="evenodd" clip-rule="evenodd" d="M37.2782 0.5H21.414L21.33 0.577813L20.0167 1.79875H0.0341797V2.33031H20.2533L21.6503 1.03156H37.2782V0.5Z" fill="#156CE4"/>
<path fill-rule="evenodd" clip-rule="evenodd" d="M31.8662 7.09594H32.3943V0.5H31.8662V7.09594Z" fill="#156CE4"/>
<path fill-rule="evenodd" clip-rule="evenodd" d="M0 8.39469H0.528067V1.00781H0V8.39469Z" fill="#156CE4"/>
<path fill-rule="evenodd" clip-rule="evenodd" d="M15.4434 8.39492H15.9714V2.0918H15.4434V8.39492Z" fill="#156CE4"/>
<path fill-rule="evenodd" clip-rule="evenodd" d="M19.793 8.12992H20.321V2.0918H19.793V8.12992Z" fill="#156CE4"/>
<path fill-rule="evenodd" clip-rule="evenodd" d="M21.3955 6.84055H21.9236V0.919922H21.3955V6.84055Z" fill="#156CE4"/>
<path fill-rule="evenodd" clip-rule="evenodd" d="M26.5996 6.83078H27.1277V0.792969H26.5996V6.83078Z" fill="#156CE4"/>
<path fill-rule="evenodd" clip-rule="evenodd" d="M8.61084 1.9375L8.10059 2.06469L9.9147 8.35906L10.425 8.23187L8.61084 1.9375Z" fill="#156CE4"/>
<path fill-rule="evenodd" clip-rule="evenodd" d="M4.25179 1.88281L4.76204 2.01L2.93213 8.35906L2.42188 8.23188L4.25179 1.88281Z" fill="#156CE4"/>
<path fill-rule="evenodd" clip-rule="evenodd" d="M3.30176 5.73734H9.54579V5.41016H3.30176V5.73734Z" fill="#156CE4"/>
<path fill-rule="evenodd" clip-rule="evenodd" d="M21.4736 0.5L15.8252 1.84906L15.8921 2.10656L21.5405 0.7575L21.4736 0.5Z" fill="#156CE4"/>
<path fill-rule="evenodd" clip-rule="evenodd" d="M27.2657 9.22945C27.4836 9.22945 27.6614 9.06445 27.6614 8.86195C27.6614 8.65914 27.4836 8.49414 27.2657 8.49414C27.0479 8.49414 26.8701 8.65914 26.8701 8.86195C26.8701 9.06445 27.0479 9.22945 27.2657 9.22945Z" fill="#156CE4"/>
<path fill-rule="evenodd" clip-rule="evenodd" d="M24.1886 9.22945C24.4064 9.22945 24.5839 9.06445 24.5839 8.86195C24.5839 8.65914 24.4064 8.49414 24.1886 8.49414C23.9708 8.49414 23.793 8.65914 23.793 8.86195C23.793 9.06445 23.9708 9.22945 24.1886 9.22945Z" fill="#156CE4"/>
<path fill-rule="evenodd" clip-rule="evenodd" d="M34.6709 9.13734V8.41203C34.6709 7.71922 35.2806 7.15234 36.0259 7.15234H36.2793C37.1643 7.15234 37.888 7.82516 37.888 8.64766V9.13734H37.6306C37.5717 9.40828 37.4272 9.65047 37.2248 9.83859V9.83922C36.9556 10.0892 36.5835 10.2442 36.1731 10.2442C35.7627 10.2442 35.3909 10.0892 35.1213 9.83891L35.121 9.83922C34.9186 9.65078 34.7741 9.40859 34.7153 9.13734H34.6709ZM36.1731 8.18828C35.7731 8.18828 35.4491 8.48953 35.4491 8.86141C35.4491 9.23297 35.7731 9.53422 36.1731 9.53422C36.5727 9.53422 36.8968 9.23297 36.8968 8.86141C36.8968 8.48953 36.5727 8.18828 36.1731 8.18828Z" fill="#156CE4"/>
<path fill-rule="evenodd" clip-rule="evenodd" d="M36.173 9.22945C36.3908 9.22945 36.5686 9.06445 36.5686 8.86195C36.5686 8.65914 36.3908 8.49414 36.173 8.49414C35.9552 8.49414 35.7773 8.65914 35.7773 8.86195C35.7773 9.06445 35.9552 9.22945 36.173 9.22945Z" fill="#156CE4"/>
</svg>
