<svg width="22" height="11" viewBox="0 0 22 11" fill="none" xmlns="http://www.w3.org/2000/svg">
<path fill-rule="evenodd" clip-rule="evenodd" d="M0 7.31259H15.7957V0H0V7.31259ZM0.288031 7.02041H15.508V0.291844H0.288031V7.02041Z" fill="#156CE4"/>
<path fill-rule="evenodd" clip-rule="evenodd" d="M12.1016 7.82665H14.3334V7.16699H12.1016V7.82665Z" fill="#156CE4"/>
<path fill-rule="evenodd" clip-rule="evenodd" d="M2.61328 7.82665H4.8451V7.16699H2.61328V7.82665Z" fill="#156CE4"/>
<path fill-rule="evenodd" clip-rule="evenodd" d="M16.3025 7.55664H1.78825V8.56658H1.94902L1.56351 8.9148V8.69273H1.23047V9.55761H1.56351V9.3187L2.20355 8.88386H3.24025V8.56658H4.46447C4.58936 8.46345 4.74911 8.40192 4.92241 8.40192C5.09604 8.40192 5.25545 8.46345 5.38068 8.56658H7.83555C7.96078 8.46345 8.12019 8.40192 8.29382 8.40192C8.46745 8.40192 8.62687 8.46345 8.7521 8.56658H16.1211V8.32389C16.1211 8.05508 16.1867 7.79245 16.3025 7.55664Z" fill="#156CE4"/>
<path fill-rule="evenodd" clip-rule="evenodd" d="M13.1028 8.21191H10.4902V9.03691C10.4902 9.19813 10.6195 9.32944 10.7779 9.32944H12.8148C12.9732 9.32944 13.1028 9.19813 13.1028 9.03691V8.88807H13.3076C13.3069 8.89701 13.3066 8.90663 13.3066 8.91591C13.3066 9.1311 13.4782 9.30538 13.6897 9.30538C13.8474 9.30538 13.9828 9.20879 14.0417 9.0706H14.5064C14.5657 9.20879 14.701 9.30538 14.8588 9.30538C15.0703 9.30538 15.2419 9.1311 15.2419 8.91591C15.2419 8.90663 15.2416 8.89701 15.2409 8.88807H15.3675V9.29885H16.1243V8.22395H15.3675V8.40991H13.1028V8.21191Z" fill="#156CE4"/>
<path fill-rule="evenodd" clip-rule="evenodd" d="M3.86345 10.2177L3.86311 10.2181C3.62416 9.97505 3.46542 9.65021 3.43157 9.28859H3.09277V9.14249C3.09277 8.6083 3.25625 8.12499 3.59268 7.78296L3.59302 7.78262L3.59336 7.78227C3.89763 7.47324 4.33933 7.28418 4.92216 7.28418C5.506 7.28418 5.9477 7.47324 6.25197 7.78227V7.78296C6.40699 7.9404 6.52545 8.12843 6.60803 8.33743C6.69062 8.12843 6.80874 7.94074 6.96376 7.78296L6.9641 7.78262L6.96444 7.78227C7.26905 7.47324 7.7104 7.28418 8.29357 7.28418C8.87742 7.28418 9.31877 7.47324 9.62339 7.78227V7.78296C9.95948 8.1243 10.123 8.60796 10.123 9.14249V9.28859H9.7845C9.75031 9.65021 9.59191 9.97505 9.35262 10.2181C9.08185 10.4931 8.70717 10.6636 8.29357 10.6636C7.88065 10.6636 7.50597 10.4931 7.23487 10.2177L7.23453 10.2181C6.99524 9.97505 6.83684 9.65021 6.80265 9.28859H6.41308C6.37924 9.65021 6.2205 9.97505 5.98154 10.2181C5.71043 10.4931 5.33576 10.6636 4.92216 10.6636C4.50924 10.6636 4.13456 10.4931 3.86345 10.2177ZM8.29357 8.40205C7.89114 8.40205 7.56453 8.73343 7.56453 9.14249C7.56453 9.55121 7.89114 9.88293 8.29357 9.88293C8.696 9.88293 9.02262 9.55121 9.02262 9.14249C9.02262 8.73343 8.696 8.40205 8.29357 8.40205ZM4.92216 8.40205C4.51973 8.40205 4.19345 8.73343 4.19345 9.14249C4.19345 9.55121 4.51973 9.88293 4.92216 9.88293C5.32493 9.88293 5.6512 9.55121 5.6512 9.14249C5.6512 8.73343 5.32493 8.40205 4.92216 8.40205Z" fill="#156CE4"/>
<path fill-rule="evenodd" clip-rule="evenodd" d="M20.7968 9.59199H19.6532L19.6115 9.55315C19.5452 9.49059 19.4809 9.43662 19.4179 9.39021L19.5875 9.15371C19.6454 9.19668 19.7046 9.24515 19.7652 9.2998H20.7589L21.5272 9.0908V8.00593L21.2734 7.26034H21.5272V5.87984C21.5272 5.36352 21.1948 4.26902 20.9525 3.46946C20.873 3.20787 20.8016 2.97171 20.7501 2.78609C20.6536 2.43684 20.0813 2.24434 19.1387 2.24434H17.0507V6.80349H16.7627V1.95215H19.1387C20.2532 1.95215 20.8889 2.20652 21.0273 2.70737C21.0781 2.89093 21.1488 3.12434 21.2273 3.38352C21.4893 4.24599 21.8149 5.31952 21.8149 5.87984V7.55218H21.6775L21.8149 7.98118V9.31493L20.7968 9.59199Z" fill="#156CE4"/>
<path fill-rule="evenodd" clip-rule="evenodd" d="M21.6301 5.46633C21.5096 4.74205 21.1546 3.65442 20.9535 2.9707H20.6113L21.1085 5.33398C21.1085 5.33398 21.3532 5.36217 21.6301 5.46633Z" fill="#156CE4"/>
<path fill-rule="evenodd" clip-rule="evenodd" d="M16.4707 9.44522V8.64772C16.4707 7.88528 17.0847 7.26172 17.835 7.26172H18.0902C18.9814 7.26172 19.7101 8.00181 19.7101 8.90691V9.44522H19.4509C19.3916 9.74325 19.2461 10.0097 19.0423 10.2166V10.2173C18.7712 10.4923 18.3965 10.6628 17.9833 10.6628C17.57 10.6628 17.1957 10.4923 16.9242 10.2169V10.2173C16.7201 10.01 16.5746 9.74359 16.5154 9.44522H16.4707ZM17.9833 8.40125C17.5805 8.40125 17.2542 8.73262 17.2542 9.14169C17.2542 9.55041 17.5805 9.88212 17.9833 9.88212C18.3857 9.88212 18.712 9.55041 18.712 9.14169C18.712 8.73262 18.3857 8.40125 17.9833 8.40125Z" fill="#156CE4"/>
<path fill-rule="evenodd" clip-rule="evenodd" d="M20.1747 9.54321H19.6138V8.90762C19.6138 8.05409 18.9305 7.36005 18.0901 7.36005H17.8349C17.1356 7.36005 16.5663 7.9379 16.5663 8.64843V9.54321H15.9297V8.32393C15.9297 7.37896 16.7772 6.51855 17.7076 6.51855H18.0041C19.1197 6.51855 20.1747 7.54224 20.1747 8.62505V9.54321ZM19.8057 9.34865H19.9828V8.62505C19.9828 7.66049 19.0026 6.71312 18.0041 6.71312H17.7076C16.8923 6.71312 16.1216 7.49584 16.1216 8.32393V9.34865H16.3744V8.64843C16.3744 7.83065 17.0297 7.16515 17.8349 7.16515H18.0901C19.0361 7.16515 19.8057 7.94684 19.8057 8.90762V9.34865Z" fill="#156CE4"/>
<path fill-rule="evenodd" clip-rule="evenodd" d="M17.9824 9.54615C18.2017 9.54615 18.3807 9.36465 18.3807 9.1419C18.3807 8.91915 18.2017 8.7373 17.9824 8.7373C17.763 8.7373 17.584 8.91915 17.584 9.1419C17.584 9.36465 17.763 9.54615 17.9824 9.54615Z" fill="#156CE4"/>
<path fill-rule="evenodd" clip-rule="evenodd" d="M18.7463 2.09765C17.9648 1.64253 17.4655 1.51878 16.7274 1.49815C16.573 1.49403 16.4431 1.61365 16.4322 1.77006C16.3364 3.17153 16.2403 4.57265 16.1445 5.97412V8.04728C16.2275 7.54712 16.53 7.09543 16.9447 6.83831L16.9067 6.80256C16.9067 5.23437 16.9067 3.66584 16.9067 2.09765H18.7463Z" fill="#156CE4"/>
<path fill-rule="evenodd" clip-rule="evenodd" d="M21.1113 8.98869H21.6715V7.98047H21.1113V8.98869Z" fill="#156CE4"/>
<path fill-rule="evenodd" clip-rule="evenodd" d="M20.0742 8.5172H21.3015V8.32264H20.0742V8.5172Z" fill="#156CE4"/>
<path fill-rule="evenodd" clip-rule="evenodd" d="M18.3184 6.19689H18.9425V6.00233H18.3184V6.19689Z" fill="#156CE4"/>
<path fill-rule="evenodd" clip-rule="evenodd" d="M20.0742 8.98905H21.3015V8.79415H20.0742V8.98905Z" fill="#156CE4"/>
<path fill-rule="evenodd" clip-rule="evenodd" d="M21.3047 6.95037H21.6706V5.9834H21.3047V6.95037Z" fill="#156CE4"/>
<path fill-rule="evenodd" clip-rule="evenodd" d="M20.0689 3.22472H18.3682V4.57737C18.3682 4.72106 18.4687 4.84172 18.6081 4.86578L20.6067 5.20816L20.5594 4.90806C20.513 4.94106 20.4565 4.96066 20.3959 4.96066H20.317C20.1607 4.96066 20.0331 4.83106 20.0331 4.67225V3.36497C20.0331 3.31409 20.0459 3.26597 20.0689 3.22472ZM20.3959 3.22266C20.4727 3.22266 20.536 3.28659 20.536 3.36497V4.67225C20.536 4.75062 20.4727 4.81456 20.3959 4.81456H20.317C20.2399 4.81456 20.1769 4.75062 20.1769 4.67225V3.36497C20.1769 3.28659 20.2399 3.22266 20.317 3.22266H20.3959Z" fill="#156CE4"/>
<path fill-rule="evenodd" clip-rule="evenodd" d="M8.29354 9.54615C8.51286 9.54615 8.69191 9.36465 8.69191 9.1419C8.69191 8.91915 8.51286 8.7373 8.29354 8.7373C8.07422 8.7373 7.89551 8.91915 7.89551 9.1419C7.89551 9.36465 8.07422 9.54615 8.29354 9.54615Z" fill="#156CE4"/>
<path fill-rule="evenodd" clip-rule="evenodd" d="M4.92278 9.54615C5.14211 9.54615 5.32081 9.36465 5.32081 9.1419C5.32081 8.91915 5.14211 8.7373 4.92278 8.7373C4.70346 8.7373 4.52441 8.91915 4.52441 9.1419C4.52441 9.36465 4.70346 9.54615 4.92278 9.54615Z" fill="#156CE4"/>
</svg>
