<svg width="40" height="11" viewBox="0 0 40 11" fill="none" xmlns="http://www.w3.org/2000/svg">
<path fill-rule="evenodd" clip-rule="evenodd" d="M1.25367 7.81641V9.03394H1.42193L1.01847 9.36072V9.15253H0.669922V9.96336H1.01847V9.73938L1.6883 9.33139H2.77327V9.03394H13.2815V8.31206H28.4384V7.81641H1.25367Z" fill="#156CE4"/>
<path fill-rule="evenodd" clip-rule="evenodd" d="M22.8799 9.78151H23.1813V7.64648H22.8799V9.78151Z" fill="#156CE4"/>
<path fill-rule="evenodd" clip-rule="evenodd" d="M17.0362 9.78151H17.3376V7.64648H17.0362V9.78151Z" fill="#156CE4"/>
<path fill-rule="evenodd" clip-rule="evenodd" d="M16.4561 10.023H23.8061V9.45898H16.4561V10.023Z" fill="#156CE4"/>
<path fill-rule="evenodd" clip-rule="evenodd" d="M16.4561 9.01807H23.8061V8.4541H16.4561V9.01807Z" fill="#156CE4"/>
<path fill-rule="evenodd" clip-rule="evenodd" d="M0 8.05672H32.588V0H0V8.05672ZM0.354205 7.73444H32.2338V0.322253H0.354205V7.73444Z" fill="#156CE4"/>
<path fill-rule="evenodd" clip-rule="evenodd" d="M30.3709 7.72559H28.0908C27.3895 7.72559 27.2191 7.96793 27.2188 7.96858L27.4695 8.12037C27.4695 8.12004 27.5468 8.00757 28.0381 7.99984V8.20963H29.8315V7.99951H30.3709V7.72559Z" fill="#156CE4"/>
<path fill-rule="evenodd" clip-rule="evenodd" d="M25.3149 8.33887H24.5459V9.28569H25.2217V9.05817C25.2217 8.80616 25.2554 8.55994 25.3149 8.33887Z" fill="#156CE4"/>
<path fill-rule="evenodd" clip-rule="evenodd" d="M24.6885 9.57389C24.6885 9.07341 24.8596 8.61998 25.2117 8.29964L25.212 8.29932V8.299C25.5308 8.00928 25.9931 7.83203 26.603 7.83203C27.214 7.83203 27.6763 8.00928 27.9947 8.299V8.29932C28.3465 8.61966 28.5179 9.07309 28.5179 9.57389V9.99574H28.1003C28.0064 10.2723 27.8226 10.5127 27.5803 10.6889C27.3122 10.8836 26.9725 11.0003 26.603 11.0003C26.1709 11.0003 25.7788 10.8404 25.495 10.5823H25.4947C25.2442 10.3548 25.0785 10.0502 25.043 9.71118H24.6885V9.57389ZM26.603 8.88001C26.1819 8.88001 25.8404 9.19068 25.8404 9.57386C25.8404 9.95736 26.1819 10.268 26.603 10.268C27.0246 10.268 27.366 9.95736 27.366 9.57386C27.366 9.19068 27.0246 8.88001 26.603 8.88001Z" fill="#156CE4"/>
<path fill-rule="evenodd" clip-rule="evenodd" d="M26.6034 9.95263C26.833 9.95263 27.02 9.78215 27.02 9.57332C27.02 9.36449 26.833 9.19434 26.6034 9.19434C26.3739 9.19434 26.1865 9.36449 26.1865 9.57332C26.1865 9.78215 26.3739 9.95263 26.6034 9.95263Z" fill="#156CE4"/>
<path fill-rule="evenodd" clip-rule="evenodd" d="M38.9349 9.99567H37.2948V9.72174H38.8952L39.6989 9.5258V8.5084L39.4332 7.80972H39.6989V6.51549C39.6989 6.03756 39.2292 4.65825 38.9182 3.74591C38.8332 3.49744 38.7581 3.27572 38.7021 3.10363C38.5442 2.6141 38.2126 2.43234 37.3384 2.35435L35.256 2.19354L34.0109 1.98149C33.9138 2.45039 33.8345 3.2957 33.7941 3.72174C33.6634 5.10943 33.6634 6.40656 33.6637 7.44878V7.45232L34.307 7.87739L34.1299 8.09912L33.3623 7.59219V7.44878C33.3623 6.40108 33.3623 5.0975 33.4941 3.69854C33.5387 3.22319 33.6319 2.23447 33.7473 1.7907L33.7803 1.66309L35.2967 1.92219L37.3657 2.08139C38.2055 2.15648 38.7694 2.34017 38.9912 3.02628C39.0468 3.19741 39.1215 3.41784 39.2058 3.6647C39.5413 4.64858 40.0003 5.99599 40.0003 6.51549V8.08332H39.8562L40.0003 8.48519V9.73592L38.9349 9.99567Z" fill="#156CE4"/>
<path fill-rule="evenodd" clip-rule="evenodd" d="M34.6754 9.99589H27.5687L27.6643 9.80253C27.6771 9.77675 27.6891 9.70198 27.6987 9.60691C27.7111 9.48767 27.7175 9.33878 27.7175 9.20859C27.7175 9.1741 27.6006 9.11062 27.4504 9.04455C26.946 8.82347 26.9102 8.49702 26.5039 8.75838V8.07227H34.1621C34.1058 8.16315 34.0587 8.25821 34.0229 8.35651V8.34652H26.8053V8.56953C26.9952 8.59756 27.3253 8.68619 27.5807 8.79834C27.8269 8.9063 28.0189 9.04745 28.0189 9.20859C28.0189 9.33943 28.0115 9.49702 27.9976 9.63172C27.9945 9.66298 27.9906 9.69328 27.9867 9.72164H34.5432V9.85892H34.8262V9.99589H34.6754Z" fill="#156CE4"/>
<path fill-rule="evenodd" clip-rule="evenodd" d="M39.8061 6.12776C39.68 5.44874 39.3088 4.42908 39.098 3.78809H38.7402L39.2606 6.00368C39.2606 6.00368 39.5167 6.03011 39.8061 6.12776Z" fill="#156CE4"/>
<path fill-rule="evenodd" clip-rule="evenodd" d="M38.2834 9.95022H37.6961V9.35403C37.6961 8.55415 36.981 7.90317 36.1018 7.90317H35.8347C35.1025 7.90317 34.5071 8.44491 34.5071 9.11136V9.95022H33.8408V8.80681C33.8408 7.9209 34.7274 7.11426 35.7015 7.11426H36.0118C37.1793 7.11426 38.2834 8.0743 38.2834 9.08944V9.95022ZM37.8973 9.76781H38.0825V9.08944C38.0825 8.18515 37.0567 7.29698 36.0118 7.29698H35.7015C34.8482 7.29698 34.0416 8.03078 34.0416 8.80681V9.76781H34.3062V9.11135C34.3062 8.34435 34.992 7.72044 35.8346 7.72044H36.1017C37.0918 7.72044 37.8973 8.4536 37.8973 9.35402V9.76781Z" fill="#156CE4"/>
<path fill-rule="evenodd" clip-rule="evenodd" d="M39.2627 9.43057H39.8489V8.48535H39.2627V9.43057Z" fill="#156CE4"/>
<path fill-rule="evenodd" clip-rule="evenodd" d="M38.1777 8.98769H39.4625V8.80528H38.1777V8.98769Z" fill="#156CE4"/>
<path fill-rule="evenodd" clip-rule="evenodd" d="M36.3408 6.81288H36.994V6.63048H36.3408V6.81288Z" fill="#156CE4"/>
<path fill-rule="evenodd" clip-rule="evenodd" d="M38.1777 9.43023H39.4621V9.24751H38.1777V9.43023Z" fill="#156CE4"/>
<path fill-rule="evenodd" clip-rule="evenodd" d="M39.4668 7.51885H39.8497V6.6123H39.4668V7.51885Z" fill="#156CE4"/>
<path fill-rule="evenodd" clip-rule="evenodd" d="M34.4492 3.83046H39.0746V3.64806H34.4492V3.83046Z" fill="#156CE4"/>
<path fill-rule="evenodd" clip-rule="evenodd" d="M33.6602 7.57031V8.20937H34.0856C34.1575 8.06306 34.2542 7.92577 34.3693 7.80202L33.6602 7.57031Z" fill="#156CE4"/>
<path fill-rule="evenodd" clip-rule="evenodd" d="M38.1735 4.02639H36.3936V5.29484C36.3936 5.42954 36.4984 5.54266 36.6447 5.5649L38.736 5.88588L38.6864 5.60454C38.6382 5.6358 38.5791 5.65417 38.5153 5.65417H38.4328C38.2691 5.65417 38.1356 5.53267 38.1356 5.38378V4.15787C38.1356 4.11018 38.1494 4.06538 38.1735 4.02639ZM38.5153 4.02441C38.5961 4.02441 38.662 4.08468 38.662 4.15783V5.38374C38.662 5.4569 38.5961 5.51716 38.5153 5.51716H38.4328C38.3524 5.51716 38.2865 5.4569 38.2865 5.38374V4.15783C38.2865 4.08468 38.3524 4.02441 38.4328 4.02441H38.5153Z" fill="#156CE4"/>
<path fill-rule="evenodd" clip-rule="evenodd" d="M34.4062 9.85857V9.11059C34.4062 8.39612 35.0488 7.81152 35.8345 7.81152H36.1015C37.0338 7.81152 37.7965 8.50537 37.7965 9.35358V9.85857H37.5255C37.4631 10.138 37.3112 10.3877 37.0976 10.5817V10.5821C36.8142 10.8402 36.4221 11.0001 35.9892 11.0001C35.5571 11.0001 35.165 10.8402 34.8813 10.5821H34.8809C34.6677 10.3881 34.5153 10.1383 34.453 9.85857H34.4062ZM35.9893 8.87984C35.5681 8.87984 35.2266 9.19051 35.2266 9.57368C35.2266 9.95718 35.5681 10.2679 35.9893 10.2679C36.4108 10.2679 36.7523 9.95718 36.7523 9.57368C36.7523 9.19051 36.4108 8.87984 35.9893 8.87984Z" fill="#156CE4"/>
<path fill-rule="evenodd" clip-rule="evenodd" d="M35.9892 9.95263C36.2187 9.95263 36.4057 9.78215 36.4057 9.57332C36.4057 9.36449 36.2187 9.19434 35.9892 9.19434C35.7596 9.19434 35.5723 9.36449 35.5723 9.57332C35.5723 9.78215 35.7596 9.95263 35.9892 9.95263Z" fill="#156CE4"/>
<path fill-rule="evenodd" clip-rule="evenodd" d="M33.1549 8.58594H32.3151C32.2711 8.58594 32.2339 8.61043 32.2201 8.64814L32.1422 8.85825C32.1316 8.88694 32.1365 8.91594 32.156 8.94076C32.1755 8.96525 32.2042 8.97878 32.2375 8.97878H33.077C33.1209 8.97878 33.1581 8.95429 33.1723 8.91658L33.2498 8.70647C33.2605 8.67778 33.2559 8.64878 33.2364 8.62397C33.2169 8.59947 33.1882 8.58594 33.1549 8.58594Z" fill="#156CE4"/>
<path fill-rule="evenodd" clip-rule="evenodd" d="M32.944 9.08887H32.1041C32.0602 9.08887 32.023 9.11304 32.0092 9.15106L31.9313 9.36086C31.9206 9.38987 31.9256 9.41887 31.9451 9.44336C31.9646 9.46785 31.9932 9.48139 32.0265 9.48139H32.8664C32.91 9.48139 32.9475 9.4569 32.9613 9.41919L33.0389 9.2094C33.0495 9.18039 33.0449 9.15139 33.0254 9.12689C33.006 9.10208 32.9773 9.08887 32.944 9.08887Z" fill="#156CE4"/>
<path fill-rule="evenodd" clip-rule="evenodd" d="M6.29804 9.71092H6.09401C6.05859 10.0496 5.89246 10.3538 5.64239 10.5817V10.582C5.35866 10.8401 4.96654 11 4.53404 11C4.10119 11 3.70907 10.8401 3.42534 10.582C3.17526 10.3545 3.00913 10.0499 2.97371 9.71092H2.61914V9.57363C2.61914 9.07315 2.79023 8.61971 3.14232 8.29938L3.14267 8.29906L3.14303 8.29873C3.27621 8.17756 3.43455 8.07605 3.61839 7.99902H5.45005C5.63389 8.07605 5.79222 8.17756 5.92541 8.29873V8.29906C6.08764 8.44698 6.21161 8.62294 6.29804 8.8192V9.71092ZM4.53404 8.8798C4.11252 8.8798 3.77105 9.19047 3.77105 9.57365C3.77105 9.95715 4.11252 10.2678 4.53404 10.2678C4.9552 10.2678 5.29667 9.95715 5.29667 9.57365C5.29667 9.19047 4.9552 8.8798 4.53404 8.8798Z" fill="#156CE4"/>
<path fill-rule="evenodd" clip-rule="evenodd" d="M4.5341 9.19434C4.30386 9.19434 4.11719 9.36417 4.11719 9.57365C4.11719 9.7828 4.30386 9.95263 4.5341 9.95263C4.76399 9.95263 4.95066 9.7828 4.95066 9.57365C4.95066 9.36417 4.76399 9.19434 4.5341 9.19434Z" fill="#156CE4"/>
<path fill-rule="evenodd" clip-rule="evenodd" d="M9.82601 9.71092H9.62233C9.58656 10.0496 9.42043 10.3538 9.17035 10.5817V10.582C8.88698 10.8401 8.49486 11 8.06201 11C7.62915 11 7.23739 10.8401 6.95366 10.582C6.70323 10.3545 6.53745 10.0499 6.50168 9.71092H6.14746V9.57363C6.14746 9.07315 6.31855 8.61971 6.67064 8.29938L6.67099 8.29906V8.29873C6.80453 8.17756 6.96287 8.07605 7.14635 7.99902H8.97837C9.16221 8.07605 9.32054 8.17756 9.45373 8.29873V8.29906C9.61596 8.44698 9.73958 8.62294 9.82601 8.8192V9.71092ZM8.06207 8.8798C7.64091 8.8798 7.29909 9.19047 7.29909 9.57365C7.29909 9.95715 7.64091 10.2678 8.06207 10.2678C8.48359 10.2678 8.82506 9.95715 8.82506 9.57365C8.82506 9.19047 8.48359 8.8798 8.06207 8.8798Z" fill="#156CE4"/>
<path fill-rule="evenodd" clip-rule="evenodd" d="M8.06207 9.19434C7.83183 9.19434 7.64551 9.36417 7.64551 9.57365C7.64551 9.7828 7.83183 9.95263 8.06207 9.95263C8.29231 9.95263 8.47898 9.7828 8.47898 9.57365C8.47898 9.36417 8.29231 9.19434 8.06207 9.19434Z" fill="#156CE4"/>
<path fill-rule="evenodd" clip-rule="evenodd" d="M9.8252 9.71092H10.0292C10.0646 10.0496 10.2308 10.3538 10.4809 10.5817V10.582C10.7646 10.8401 11.1567 11 11.5896 11C12.0224 11 12.4142 10.8401 12.6979 10.582C12.948 10.3545 13.1141 10.0499 13.1495 9.71092H13.5041V9.57363C13.5041 9.07315 13.333 8.61971 12.9809 8.29938L12.9806 8.29906L12.9802 8.29873C12.847 8.17756 12.6887 8.07605 12.5048 7.99902H10.6732C10.4894 8.07605 10.331 8.17756 10.1978 8.29873V8.29906C10.0356 8.44698 9.91162 8.62294 9.8252 8.8192V9.71092ZM11.5896 8.8798C12.0107 8.8798 12.3522 9.19047 12.3522 9.57365C12.3522 9.95715 12.0107 10.2678 11.5896 10.2678C11.168 10.2678 10.8266 9.95715 10.8266 9.57365C10.8266 9.19047 11.168 8.8798 11.5896 8.8798Z" fill="#156CE4"/>
<path fill-rule="evenodd" clip-rule="evenodd" d="M11.5898 9.19434C11.8197 9.19434 12.0063 9.36417 12.0063 9.57365C12.0063 9.7828 11.8197 9.95263 11.5898 9.95263C11.3595 9.95263 11.1729 9.7828 11.1729 9.57365C11.1729 9.36417 11.3595 9.19434 11.5898 9.19434Z" fill="#156CE4"/>
</svg>
