<svg xmlns="http://www.w3.org/2000/svg" width="16" height="17" viewBox="0 0 16 17">
    <g fill="#109CF1" transform="translate(0 .108)">
        <circle cx="12.5" cy="6.8" r="1"/>
        <path d="M13.5 1.308h-.813V.654c0-.361-.28-.654-.624-.654-.346 0-.626.293-.626.654v.654H8.595V.654c0-.361-.28-.654-.625-.654s-.625.293-.625.654v.654H4.53V.654c0-.361-.28-.654-.625-.654s-.625.293-.625.654v.654H2.5C1.121 1.308 0 2.48 0 3.923v10.2c0 1.442 1.121 2.615 2.5 2.615h4.781c.345 0 .625-.292.625-.653 0-.362-.28-.654-.625-.654H2.5c-.69 0-1.25-.587-1.25-1.308v-10.2c0-.721.56-1.308 1.25-1.308h.781v.654c0 .361.28.654.625.654s.625-.293.625-.654v-.654h2.813v.654c0 .361.28.654.625.654s.625-.293.625-.654v-.654h2.844v.654c0 .361.28.654.624.654.346 0 .626-.293.626-.654v-.654h.812c.69 0 1.25.587 1.25 1.308V7.65c0 .361.28.654.625.654S16 8.01 16 7.65V3.923c0-1.442-1.121-2.615-2.5-2.615z"/>
        <path d="M12 8.37c-2.206 0-4 1.876-4 4.184 0 2.307 1.794 4.184 4 4.184s4-1.877 4-4.184c0-2.308-1.794-4.185-4-4.185zm0 6.985c-1.476 0-2.678-1.257-2.678-2.801 0-1.545 1.202-2.801 2.678-2.801s2.678 1.256 2.678 2.8c0 1.545-1.202 2.802-2.678 2.802z"/>
        <path d="M13.42 12.05h-.26v-.814c0-.428-.26-.774-.58-.774-.32 0-.58.346-.58.774v1.59c0 .427.26.774.58.774h.84c.32 0 .58-.347.58-.775 0-.428-.26-.775-.58-.775z"/>
        <circle cx="9.5" cy="6.8" r="1"/>
        <circle cx="6.5" cy="9.938" r="1"/>
        <circle cx="3.5" cy="6.8" r="1"/>
        <circle cx="3.5" cy="9.938" r="1"/>
        <circle cx="3.5" cy="12.031" r="1"/>
        <circle cx="6.5" cy="12.031" r="1"/>
        <circle cx="6.5" cy="6.8" r="1"/>
    </g>
</svg>
