<svg xmlns="http://www.w3.org/2000/svg" width="16" height="16" viewBox="0 0 16 16">
    <g fill="#109CF1" stroke="#109CF1" stroke-width=".5">
        <path d="M13 8.974v-3.59c.004-1.686-1.361-3.108-3.176-3.307L10.75.371c.043-.08.038-.174-.013-.25C10.687.045 10.597 0 10.5 0h-5c-.096 0-.186.046-.236.122-.051.075-.056.17-.013.249l.925 1.706C4.365 2.281 3.002 3.7 3 5.385V10h.556V5.385c.002-1.557 1.368-2.819 3.055-2.82H9.39c.81-.002 1.589.295 2.162.824.573.53.895 1.247.893 1.996v3.59H13zM9.217 2.051H6.783L5.949.513h4.101L9.217 2.05zM.76 13.23l4.528 2.363c.51.267 1.08.407 1.661.407h8.784c.148 0 .267-.114.267-.255V11.15c0-.141-.12-.256-.267-.256h-2.04l-.03-.022c-.314-.234-.66-.425-1.03-.566-1.293-.506-2.762-.381-3.944.333H6.667c-.425 0-.824.194-1.076.521-.25.328-.324.75-.197 1.138l-3.296-1.58c-.49-.236-1.077-.182-1.51.138-.37.264-.587.68-.588 1.12v.029c0 .51.291.98.76 1.224h0zm13.107-1.824h1.6v4.084h-1.6v-4.084zm-13.334.572c.002-.286.146-.554.387-.723.271-.196.636-.227.94-.08l4.154 1.99c.037.018.078.027.12.027h4v-.51H6.666c-.442 0-.8-.343-.8-.766s.358-.765.8-.765h2.101c.052 0 .103-.015.147-.042 1.045-.659 2.362-.782 3.52-.329.322.124.625.29.898.494v4.216H6.95c-.491 0-.974-.119-1.406-.345l-4.528-2.363c-.297-.155-.482-.453-.482-.776v-.028z"/>
        <path d="M15 14L16 14 16 15 15 15zM7.75 9v-.556H8c.552 0 1-.497 1-1.11 0-.614-.448-1.112-1-1.112H7c-.276 0-.5-.249-.5-.555 0-.307.224-.556.5-.556h1.75v-.555h-1V4h-.5v.556H7c-.552 0-1 .497-1 1.11 0 .614.448 1.112 1 1.112h1c.276 0 .5.249.5.555 0 .307-.224.556-.5.556H6.25v.555h1V9h.5z"/>
    </g>
</svg>
