<svg xmlns="http://www.w3.org/2000/svg" width="17" height="17" viewBox="0 0 17 17">
    <g fill="none" fill-rule="evenodd">
        <g fill="#109CF1" fill-rule="nonzero">
            <path d="M6.771 5.368h-5.49C.575 5.368 0 4.842 0 4.194v-3.02C0 .527.575 0 1.281 0h5.49c.707 0 1.282.527 1.282 1.174v3.02c0 .648-.575 1.174-1.282 1.174zm-5.49-4.361c-.1 0-.183.075-.183.167v3.02c0 .093.082.168.183.168h5.49c.102 0 .184-.075.184-.168v-3.02c0-.092-.082-.167-.184-.167h-5.49zM6.771 17h-5.49C.575 17 0 16.448 0 15.77V8.388c0-.678.575-1.23 1.281-1.23h5.49c.707 0 1.282.552 1.282 1.23v7.382c0 .678-.575 1.23-1.282 1.23zm-5.49-8.788c-.1 0-.183.08-.183.176v7.382c0 .097.082.175.183.175h5.49c.102 0 .184-.078.184-.175V8.388c0-.097-.082-.176-.184-.176h-5.49zM15.719 17h-5.49c-.707 0-1.282-.527-1.282-1.174v-3.02c0-.648.575-1.174 1.282-1.174h5.49c.706 0 1.281.526 1.281 1.174v3.02c0 .647-.575 1.174-1.281 1.174zm-5.49-4.362c-.102 0-.184.075-.184.168v3.02c0 .092.082.167.184.167h5.49c.1 0 .183-.075.183-.167v-3.02c0-.093-.082-.168-.183-.168h-5.49zM15.719 9.842h-5.49c-.707 0-1.282-.552-1.282-1.23V1.23C8.947.552 9.522 0 10.23 0h5.49C16.425 0 17 .552 17 1.23v7.382c0 .678-.575 1.23-1.281 1.23zm-5.49-8.787c-.102 0-.184.078-.184.175v7.382c0 .097.082.176.184.176h5.49c.1 0 .183-.08.183-.176V1.23c0-.097-.082-.175-.183-.175h-5.49z" transform="translate(-35 -120) translate(-10 -9) translate(45 129)"/>    
        </g>
    </g>
</svg>
