<svg xmlns="http://www.w3.org/2000/svg" width="17" height="23" viewBox="0 0 17 23">
    <g fill="#109CF1" stroke="#109CF1" stroke-width=".3">
        <path d="M14.953 20.186l-2.637-5.835c-.052-.116-.143-.205-.253-.254l-1.311-.61L13.024 9.5l.016-.03c.451-.922.68-1.919.68-2.962 0-1.756-.657-3.402-1.852-4.635C10.673.642 9.09-.024 7.412.001 5.782.024 4.246.71 3.089 1.93c-1.157 1.22-1.8 2.832-1.81 4.538-.005 1.043.23 2.081.681 3.003l.016.029 2.272 3.985-1.319.614c-.108.05-.195.14-.245.251L.047 20.186c-.088.195-.05.427.094.582.144.154.365.198.553.11l3.303-1.538 3.302 1.538c.128.06.274.06.402 0l3.302-1.538 3.303 1.538c.065.03.133.045.2.045.13 0 .259-.054.353-.155.145-.155.182-.387.094-.582zM2.832 8.986c-.38-.781-.57-1.626-.566-2.51.017-2.96 2.332-5.402 5.16-5.443 1.412-.02 2.744.54 3.749 1.577s1.559 2.421 1.559 3.899c0 .872-.19 1.706-.566 2.478L7.924 16.43c-.13.227-.34.252-.424.252-.084 0-.294-.025-.424-.252L2.832 8.987zm8.372 9.317c-.128-.06-.274-.06-.401 0L7.5 19.842l-3.303-1.539c-.127-.06-.273-.06-.401 0L1.508 19.37l1.99-4.403 1.26-.587 1.47 2.58c.27.473.746.755 1.272.755s1.001-.282 1.271-.755l1.471-2.58 1.26.587 1.99 4.403-2.288-1.066z" transform="translate(1 1.062)"/>
        <path d="M7.5 4.185c-1.379 0-2.5.938-2.5 2.092C5 7.43 6.121 8.369 7.5 8.369S10 7.431 10 6.277c0-1.154-1.121-2.092-2.5-2.092zm0 3.267c-.774 0-1.404-.527-1.404-1.175S6.726 5.1 7.5 5.1c.774 0 1.404.528 1.404 1.176 0 .648-.63 1.175-1.404 1.175z" transform="translate(1 1.062)"/>
    </g>
</svg>
