<svg xmlns="http://www.w3.org/2000/svg" width="17" height="15" viewBox="0 0 17 15">
    <g fill="#109CF1">
        <path d="M9.5 3c-.276 0-.5.224-.5.5s.224.5.5.5.5-.224.5-.5-.224-.5-.5-.5zM2.5 10c.276 0 .5-.224.5-.5S2.776 9 2.5 9s-.5.224-.5.5.224.5.5.5z"/>
        <path stroke="#109CF1" stroke-width=".6" d="M11.156 0C8.167 0 5.714 2.024 5.524 4.573 2.677 4.713 0 6.73 0 9.457c0 1.139.46 2.243 1.295 3.118.165.67-.035 1.38-.534 1.868-.095.094-.123.234-.072.356.052.122.173.201.307.201.947 0 1.86-.365 2.538-1.007.66.22 1.522.355 2.31.355 2.989 0 5.442-2.024 5.632-4.573.695-.03 1.418-.156 1.99-.348.678.643 1.591 1.008 2.538 1.008.134 0 .255-.08.307-.201.051-.122.023-.263-.072-.356-.499-.49-.7-1.199-.534-1.868C16.541 7.135 17 6.03 17 4.89 17 2.058 14.117 0 11.156 0zM5.844 13.696c-.784 0-1.677-.151-2.275-.385-.128-.05-.275-.017-.368.083-.4.43-.922.73-1.49.868.313-.589.393-1.283.202-1.94-.015-.053-.042-.1-.08-.139-.754-.762-1.169-1.73-1.169-2.726 0-2.298 2.372-4.24 5.18-4.24 2.651 0 4.98 1.811 4.98 4.24 0 2.337-2.234 4.239-4.98 4.239zm9.324-6.078c-.039.039-.066.086-.081.138-.19.658-.111 1.352.202 1.94-.568-.137-1.09-.437-1.49-.868-.093-.1-.24-.133-.368-.082-.518.202-1.258.342-1.956.376-.097-1.233-.723-2.392-1.794-3.252h4.33c.184 0 .333-.146.333-.327 0-.18-.149-.326-.332-.326H8.66c-.754-.376-1.6-.596-2.471-.642.19-2.19 2.345-3.923 4.966-3.923 2.808 0 5.18 1.941 5.18 4.24 0 .996-.415 1.964-1.168 2.726z"/>
        <path d="M9.658 9H5.342C5.153 9 5 9.224 5 9.5s.153.5.342.5h4.316c.189 0 .342-.224.342-.5S9.847 9 9.658 9zM7.677 11H2.323c-.179 0-.323.224-.323.5s.144.5.323.5h5.354c.179 0 .323-.224.323-.5s-.144-.5-.323-.5zM14.658 3h-4.316c-.189 0-.342.224-.342.5s.153.5.342.5h4.316c.189 0 .342-.224.342-.5s-.153-.5-.342-.5z"/>
    </g>
</svg>
