<svg xmlns="http://www.w3.org/2000/svg" width="17" height="17" viewBox="0 0 17 17">
    <g fill="#109CF1">
        <path stroke="#109CF1" stroke-width=".2" d="M15.506 0H1.494C.67 0 0 .67 0 1.494v14.012C0 16.33.67 17 1.494 17h14.012C16.33 17 17 16.33 17 15.506V1.494C17 .67 16.33 0 15.506 0zM1.494.996h14.012c.274 0 .498.224.498.498v2.49H.996v-2.49c0-.274.224-.498.498-.498zm14.012 15.008H1.494c-.274 0-.498-.224-.498-.498V4.98h15.008v10.526c0 .274-.224.498-.498.498z"/>
        <circle cx="3.5" cy="2.5" r="1"/>
        <circle cx="5.5" cy="2.5" r="1"/>
        <circle cx="7.5" cy="2.5" r="1"/>
        <path d="M13.502 6H3.498C3.223 6 3 6.222 3 6.496v3.008c0 .274.223.496.498.496h10.004c.275 0 .498-.222.498-.496V6.496c0-.274-.223-.496-.498-.496zm-.499 3.008H3.997V6.992h9.006v2.016zM8.5 11h-5c-.276 0-.5.222-.5.496v3.008c0 .274.224.496.5.496h5c.276 0 .5-.222.5-.496v-3.008c0-.274-.224-.496-.5-.496zM8 14.008H4v-2.016h4v2.016zM13.504 11h-3.008c-.274 0-.496.222-.496.496v3.008c0 .274.222.496.496.496h3.008c.274 0 .496-.222.496-.496v-3.008c0-.274-.222-.496-.496-.496zm-.496 3.008h-2.016v-2.016h2.016v2.016z"/>
    </g>
</svg>
