<svg xmlns="http://www.w3.org/2000/svg" width="17" height="13" viewBox="0 0 17 13">
    <g fill="#109CF1">
        <path d="M12 8.37c-1.103 0-2 .938-2 2.092 0 1.153.897 2.092 2 2.092s2-.939 2-2.092c0-1.154-.897-2.093-2-2.093zm0 3.138c-.551 0-1-.47-1-1.046 0-.577.449-1.047 1-1.047.551 0 1 .47 1 1.047s-.449 1.046-1 1.046zM4 8.37c-1.103 0-2 .938-2 2.092 0 1.153.897 2.092 2 2.092s2-.939 2-2.092c0-1.154-.897-2.093-2-2.093zm0 3.138c-.551 0-1-.47-1-1.046 0-.577.449-1.047 1-1.047.551 0 1 .47 1 1.047s-.449 1.046-1 1.046zM13.69 2.325c-.074-.143-.225-.233-.39-.233H11v.847h2.03l1.19 2.292.78-.38-1.31-2.526zM7 9.415H10V10.460999999999999H7z" transform="translate(0 .246)"/>
        <path d="M2.451 9.415H.55c-.303 0-.549.235-.549.523 0 .29.246.524.549.524H2.45c.303 0 .549-.235.549-.524 0-.288-.246-.523-.549-.523zM16.884 6.002l-1.09-1.392c-.104-.134-.265-.213-.436-.213h-4.024V.55c0-.304-.247-.55-.553-.55H1.554C1.248 0 1 .246 1 .55c0 .303.248.55.554.55h8.673v3.847c0 .303.248.55.554.55h4.305l.807 1.03v2.835H14.36c-.306 0-.554.246-.554.55 0 .304.248.55.554.55h2.085c.306 0 .554-.247.554-.55V6.339c0-.122-.041-.24-.116-.337zM2.545 7.323H.455c-.252 0-.455.234-.455.523 0 .29.203.523.455.523h2.09c.252 0 .455-.234.455-.523 0-.289-.203-.523-.455-.523z" transform="translate(0 .246)"/>
        <path d="M5.43 4.185H.57c-.315 0-.57.234-.57.523 0 .289.255.523.57.523h4.86c.315 0 .57-.234.57-.523 0-.29-.255-.523-.57-.523zM5.43 2.092H.57c-.315 0-.57.234-.57.523 0 .29.255.523.57.523h4.86c.315 0 .57-.234.57-.523 0-.289-.255-.523-.57-.523z" transform="translate(0 .246)"/>
    </g>
</svg>
