<svg xmlns="http://www.w3.org/2000/svg" width="16" height="16" viewBox="0 0 16 16">
    <path fill="#109CF1" stroke="#109CF1" stroke-width=".3" d="M15.734 4s0 0 0 0h-4V.267c0-.148-.12-.267-.267-.267 0 0 0 0 0 0H4.533c-.147 0-.266.12-.266.266 0 0 0 0 0 0V4h-4C.119 4 0 4.12 0 4.266c0 0 0 0 0 0v9.6c0 .148.12.267.266.267 0 0 0 0 0 0h.558c-.015.088-.023.178-.024.267v1.333c0 .148.12.267.266.267 0 0 0 0 0 0h13.867c.148 0 .267-.12.267-.266 0 0 0 0 0 0V14.4c0-.09-.009-.179-.024-.267h.557c.148 0 .267-.119.267-.266 0 0 0 0 0 0v-9.6c0-.148-.12-.267-.266-.267zm-4.267 7.467c0 .294-.24.533-.534.533-.294 0-.533-.239-.533-.533 0-.295.239-.534.533-.534.295 0 .533.24.534.534zm-6.4-.534c.294 0 .533.24.533.534 0 .294-.239.533-.533.533-.295 0-.534-.239-.534-.533 0-.295.24-.533.534-.534zm-1.6 4.534H1.333V14.4c0-.59.478-1.067 1.067-1.067.59 0 1.067.478 1.067 1.067v1.067zm-1.6-3.2c0-.295.238-.534.533-.534.295 0 .533.24.533.534 0 .294-.238.533-.533.533-.294 0-.533-.239-.533-.533zm1.64.98c-.1-.096-.213-.18-.335-.248.406-.426.39-1.101-.035-1.508-.427-.407-1.102-.39-1.509.035-.393.412-.393 1.061 0 1.473-.254.141-.466.35-.612.601H.533V4.533h3.734v6.236c-.367.41-.354 1.034.028 1.43-.4.221-.687.603-.788 1.049zm2.626 2.22H4V13.6c0-.59.478-1.067 1.067-1.067s1.066.478 1.066 1.067v1.867zm3.2 0H6.667V13.6c0-.736.597-1.333 1.333-1.333s1.333.597 1.333 1.333v1.867zM7.2 10.933c0-.441.358-.8.8-.8.442 0 .8.359.8.8 0 .442-.358.8-.8.8-.442 0-.8-.358-.8-.8zm2.424 1.75c-.178-.315-.444-.571-.765-.738.563-.475.635-1.316.16-1.88-.474-.563-1.315-.635-1.878-.16-.563.474-.635 1.315-.16 1.879.048.058.102.112.16.16-.32.168-.586.424-.765.74-.14-.2-.324-.366-.538-.485.41-.418.402-1.089-.017-1.497-.27-.264-.658-.364-1.021-.264V.533h6.4v9.905c-.087-.024-.177-.037-.267-.038-.587-.002-1.065.473-1.066 1.061-.001.275.105.54.295.738-.214.119-.398.284-.538.484zM12 14.4v1.067H9.867V13.6c0-.59.477-1.067 1.066-1.067.59 0 1.067.478 1.067 1.067v.8zm2.667 1.067h-2.134V14.4c0-.59.478-1.067 1.067-1.067.59 0 1.067.478 1.067 1.067v1.067zm-1.6-3.2c0-.295.238-.534.533-.534.295 0 .533.24.533.534 0 .294-.238.533-.533.533-.294 0-.533-.239-.533-.533zm2.4 1.333h-.483c-.146-.252-.358-.46-.612-.6.406-.427.39-1.102-.035-1.509-.427-.407-1.102-.39-1.509.035-.393.412-.393 1.061 0 1.473-.122.068-.235.151-.335.248-.101-.445-.388-.827-.788-1.048.382-.396.395-1.02.028-1.43V4.533h3.734V13.6h0z"/>
</svg>
