<svg width="14" height="14" viewBox="0 0 14 14" fill="none" xmlns="http://www.w3.org/2000/svg">
<path d="M1.1656 0.584087L13.2056 6.34294C13.3271 6.40112 13.4297 6.49248 13.5016 6.60649C13.5734 6.72049 13.6115 6.85249 13.6115 6.98723C13.6115 7.12197 13.5734 7.25397 13.5016 7.36797C13.4297 7.48198 13.3271 7.57334 13.2056 7.63151L1.1656 13.3904C1.04212 13.4496 0.904236 13.472 0.768361 13.455C0.632486 13.4381 0.504352 13.3824 0.399219 13.2947C0.294086 13.2069 0.216385 13.0908 0.175371 12.9602C0.134358 12.8296 0.13176 12.6899 0.167887 12.5578L1.37246 8.1418C1.3872 8.08768 1.41755 8.0391 1.45972 8.00211C1.5019 7.96512 1.55402 7.94136 1.6096 7.9338L7.44389 7.14123C7.46821 7.13781 7.49125 7.12819 7.51077 7.11327C7.53029 7.09836 7.54563 7.07866 7.55532 7.05609L7.5656 7.02009C7.57011 6.98818 7.5637 6.95569 7.54741 6.92789C7.53113 6.90009 7.50592 6.87861 7.47589 6.86694L7.44446 6.85837L1.61589 6.06637C1.56041 6.0587 1.50841 6.0349 1.46635 5.99792C1.42429 5.96094 1.39402 5.91241 1.37932 5.85837L0.167887 1.41666C0.13176 1.28458 0.134358 1.1449 0.175371 1.01426C0.216385 0.883615 0.294086 0.767513 0.399219 0.679782C0.504352 0.59205 0.632486 0.536387 0.768361 0.519421C0.904236 0.502454 1.04212 0.524901 1.1656 0.584087Z" fill="#109CF1"/>
</svg>
