<?xml version="1.0" encoding="utf-8"?><svg viewBox="0 0 335 120" xmlns="http://www.w3.org/2000/svg" xmlns:xlink="http://www.w3.org/1999/xlink"><style>:root>svg{display:none}:root>svg:target{display:block}</style><svg viewBox="0 0 45 45" id="add" xmlns="http://www.w3.org/2000/svg"><g fill="none" fill-rule="evenodd"><rect width="45" height="45" fill="#109CF1" opacity=".104" rx="4"/><text fill="#156CE4" font-family="Roboto-Regular, Roboto" font-size="30"><tspan x="14" y="33">+</tspan></text></g></svg><svg viewBox="0 0 20 20" id="add-1" xmlns="http://www.w3.org/2000/svg"><path fill="#FFF" d="M1.085 8.605h7.52v-7.52C8.605.743 9.07 0 10 0c.93 0 1.395.743 1.395 1.085v7.52h7.52C19.257 8.605 20 9.07 20 10c0 .93-.743 1.395-1.085 1.395h-7.52v7.52C11.395 19.257 10.93 20 10 20c-.93 0-1.395-.743-1.395-1.085v-7.52h-7.52C.743 11.395 0 10.93 0 10c0-.93.743-1.395 1.085-1.395z"/></svg><svg viewBox="0 0 20 20" id="add-1-aquamarine" xmlns="http://www.w3.org/2000/svg"><path fill="#49ddaa" d="M1.085 8.605h7.52v-7.52C8.605.743 9.07 0 10 0c.93 0 1.395.743 1.395 1.085v7.52h7.52C19.257 8.605 20 9.07 20 10c0 .93-.743 1.395-1.085 1.395h-7.52v7.52C11.395 19.257 10.93 20 10 20c-.93 0-1.395-.743-1.395-1.085v-7.52h-7.52C.743 11.395 0 10.93 0 10c0-.93.743-1.395 1.085-1.395z"/></svg><svg viewBox="0 0 59 56" id="architecture-and-city-1" xmlns="http://www.w3.org/2000/svg"><g fill="none"><path fill="#51DB92" d="M2 40h36v15H2z"/><path fill="#BFC5D2" d="M2 40h6v15H2z"/><path fill="#0E1FD7" d="M38 29H11.541c-.696 0-1.363.264-1.855.734L.221 38.777C-.25 39.228.083 40 .751 40H38V29z"/><path fill="#109CF1" d="M6.534 38.777l9.587-9.043A2.74 2.74 0 0118 29h-6.31c-.704 0-1.38.264-1.879.734L.224 38.777C-.255 39.228.084 40 .761 40h6.31c-.677 0-1.016-.772-.537-1.223z"/><path fill="#0E1FD7" d="M54.113 2H47v6h7.113c.49 0 .887-.418.887-.934V2.934c0-.516-.397-.934-.887-.934z"/><path fill="#109CF1" d="M51.274 7.066V2.934c0-.516.325-.934.726-.934h-4v6h4c-.4 0-.726-.418-.726-.934z"/><path fill="#DDEAFB" d="M48 15c-.552 0-1-.382-1-.853V.853C47 .382 47.448 0 48 0s1 .382 1 .853v13.294c0 .471-.448.853-1 .853z"/><path fill="#51DB92" d="M37 25h20v30H37z"/><path fill="#BFC5D2" d="M37 25h5v30h-5z"/><path fill="#0E1FD7" d="M50.304 45h-5.607c-.385 0-.697.339-.697.757V55h7v-9.243c0-.418-.312-.757-.696-.757z"/><path fill="#0E1FD7" d="M48 45h-3.336c-.367 0-.664.339-.664.757V55h3.336v-9.243c0-.418.297-.757.664-.757z"/><path fill="#109CF1" d="M58.121 56H.88C.393 56 0 55.552 0 55s.393-1 .879-1H58.12c.486 0 .879.448.879 1s-.393 1-.879 1z"/><path fill="#9DC6FB" d="M31.562 46h-3.124c-.242 0-.438.226-.438.505v2.99c0 .279.196.505.438.505h3.124c.242 0 .438-.226.438-.505v-2.99c0-.279-.196-.505-.438-.505zm20.899-8H42.54c-.298 0-.539.226-.539.505v2.99c0 .279.241.505.539.505h9.922c.298 0 .539-.226.539-.505v-2.99c0-.279-.241-.505-.539-.505z"/><path fill="#80B4FB" d="M45.499 41.495v-2.99c0-.279.224-.505.501-.505h-3.499a.503.503 0 00-.501.505v2.99c0 .279.224.505.501.505H46a.503.503 0 01-.501-.505z"/><path fill="#9DC6FB" d="M52.461 30H42.54c-.298 0-.539.226-.539.505v2.99c0 .279.241.505.539.505h9.922c.298 0 .539-.226.539-.505v-2.99c0-.279-.241-.505-.539-.505z"/><path fill="#80B4FB" d="M45.499 33.495v-2.99c0-.279.224-.505.501-.505h-3.499a.503.503 0 00-.501.505v2.99c0 .279.224.505.501.505H46a.503.503 0 01-.501-.505z"/><path fill="#9DC6FB" d="M21.562 46h-3.124c-.242 0-.438.226-.438.505v2.99c0 .279.196.505.438.505h3.124c.242 0 .438-.226.438-.505v-2.99c0-.279-.196-.505-.438-.505zm-10 0H8.438c-.242 0-.438.226-.438.505v2.99c0 .279.196.505.438.505h3.124c.242 0 .438-.226.438-.505v-2.99c0-.279-.196-.505-.438-.505z"/><path d="M28.453 49.414v-2.832c0-.264.227-.479.507-.479h-2.317a.494.494 0 00-.507.479v2.832c0 .265.227.479.507.479h2.317a.493.493 0 01-.507-.479zm-9.528 0v-2.832c0-.264.227-.479.507-.479h-2.318a.494.494 0 00-.507.479v2.832c0 .265.227.479.507.479h2.318a.493.493 0 01-.507-.479zm-9.529 0v-2.832c0-.264.227-.479.507-.479H7.585a.494.494 0 00-.507.479v2.832c0 .265.227.479.507.479h2.318a.493.493 0 01-.507-.479z" fill="#80B4FB"/><path fill="#DDEAFB" d="M48.178 51h-.356c-.454 0-.822-.448-.822-1s.368-1 .822-1h.356c.454 0 .822.448.822 1s-.368 1-.822 1z"/><path fill="#B7BCD6" d="M57.779 23.8L47.53 14.206a.787.787 0 00-1.062 0L36.22 23.8c-.473.442-.138 1.2.532 1.2h20.494c.67 0 1.005-.758.532-1.2z"/><path fill="#109CF1" d="M42.043 23.8L50 16.41l-2.374-2.204a.798.798 0 00-1.071 0L36.223 23.8c-.477.442-.139 1.2.536 1.2h5.82c-.675 0-1.013-.757-.536-1.2z"/></g></svg><svg viewBox="0 0 10 5" id="arrow-drop-down-24-px" xmlns="http://www.w3.org/2000/svg"><path fill="#B7BCD6" d="M0 0l5 5 5-5z"/></svg><svg viewBox="0 0 6 10" id="arrow-point-to-right" xmlns="http://www.w3.org/2000/svg"><path fill="#B7BCD6" d="M5.784 5.495l-4.526 4.3a.765.765 0 01-1.042 0 .675.675 0 010-.99L4.22 5 .216 1.195a.675.675 0 010-.99.765.765 0 011.042 0l4.526 4.3A.68.68 0 016 5a.68.68 0 01-.216.495z"/></svg><svg viewBox="0 0 12 16" id="bin" xmlns="http://www.w3.org/2000/svg"><path fill-rule="nonzero" d="M3.585 1.233c0-.404.347-.7.79-.7h3.25c.443 0 .79.296.79.7V2H9v-.767C9 .535 8.391 0 7.624 0H4.376C3.609 0 3 .535 3 1.233V2h.585v-.767zM2.276 16h7.448c.719 0 1.276-.624 1.276-1.4V5H1v9.6c0 .776.557 1.4 1.276 1.4zm5.732-9.515c0-.172.14-.311.315-.311.174 0 .315.14.315.31v7.347a.313.313 0 01-.315.311.313.313 0 01-.315-.31V6.484zm-2.323 0c0-.172.141-.311.315-.311.174 0 .315.14.315.31v7.347a.313.313 0 01-.315.311.313.313 0 01-.315-.31V6.484zm-2.323 0c0-.172.141-.311.315-.311.174 0 .315.14.315.31v7.347c0 .172-.14.311-.315.311a.313.313 0 01-.315-.31V6.484zM.773 4h10.454c.427 0 .773-.448.773-1s-.346-1-.773-1H.773C.346 2 0 2.448 0 3s.346 1 .773 1z" fill="#B7BCD6"/></svg><svg viewBox="0 0 16 16" id="blue__check-box-empty-copy-6" xmlns="http://www.w3.org/2000/svg"><g fill="none"><path fill="#109CF1" d="M15.04.96A3.153 3.153 0 0012.727 0H3.273C2.37 0 1.6.32.96.96.32 1.6 0 2.371 0 3.273v9.454c0 .902.32 1.672.96 2.313.64.64 1.411.96 2.313.96h9.454c.902 0 1.672-.32 2.313-.96.64-.64.96-1.411.96-2.313V3.273c0-.902-.32-1.673-.96-2.313z"/><path fill="#fff" d="M3.127 8.4A.419.419 0 013 8.12c0-.08.042-.2.127-.28l.592-.56c.17-.16.423-.16.593 0l.042.04L6.68 9.68c.084.08.211.08.296 0l5.67-5.56h.041c.17-.16.424-.16.593 0l.592.56c.17.16.17.4 0 .56l-6.77 6.64a.391.391 0 01-.295.12.393.393 0 01-.296-.12l-3.3-3.36-.085-.12z"/></g></svg><svg viewBox="0 0 19 22" id="boat" xmlns="http://www.w3.org/2000/svg"><g fill="#109CF1"><path d="M3 5v4l6.035-2.012.465-.155.465.155L16 9V5zm14.384 15.482c-.259.158-.401.246-.76.246-.357 0-.5-.088-.76-.246-.33-.204-.785-.482-1.615-.482s-1.283.278-1.615.482c-.259.158-.402.246-.76.246-.357 0-.5-.088-.76-.246-.33-.204-.785-.482-1.615-.482-.829 0-1.283.278-1.615.482-.259.158-.401.246-.76.246-.357 0-.5-.088-.759-.246C6.033 20.278 5.58 20 4.75 20s-1.284.278-1.616.482c-.259.158-.401.246-.76.246-.357 0-.5-.088-.759-.246C1.284 20.278.83 20 0 20v1.272c.358 0 .5.088.76.246.331.204.785.482 1.615.482s1.284-.278 1.615-.482c.26-.158.402-.246.76-.246s.5.088.76.246c.331.204.785.482 1.615.482s1.283-.278 1.615-.482c.259-.158.402-.246.76-.246s.5.088.76.246c.33.204.785.482 1.615.482s1.283-.278 1.615-.482c.259-.158.402-.246.76-.246s.5.088.76.246c.331.204.785.482 1.615.482s1.284-.278 1.615-.482c.26-.158.402-.246.76-.246V20c-.83 0-1.284.278-1.616.482zM10.671 1.054V0H9.283v1.054H6V3h8V1.054z"/><path d="M1 10.832l2.954 7.627a3.67 3.67 0 011.254-.21c1.139 0 1.84.456 2.245.751A3.644 3.644 0 019 18.311V8l-8 2.832zM10 8v10.311c.738.135 1.232.46 1.546.689.404-.295 1.106-.751 2.244-.751.484 0 .888.083 1.225.2L18 10.833 10 8z"/></g></svg><svg viewBox="0 0 19 22" id="boat-gray" xmlns="http://www.w3.org/2000/svg"><g fill="#b7bcd6"><path d="M3 5v4l6.035-2.012.465-.155.465.155L16 9V5zm14.384 15.482c-.259.158-.401.246-.76.246-.357 0-.5-.088-.76-.246-.33-.204-.785-.482-1.615-.482s-1.283.278-1.615.482c-.259.158-.402.246-.76.246-.357 0-.5-.088-.76-.246-.33-.204-.785-.482-1.615-.482-.829 0-1.283.278-1.615.482-.259.158-.401.246-.76.246-.357 0-.5-.088-.759-.246C6.033 20.278 5.58 20 4.75 20s-1.284.278-1.616.482c-.259.158-.401.246-.76.246-.357 0-.5-.088-.759-.246C1.284 20.278.83 20 0 20v1.272c.358 0 .5.088.76.246.331.204.785.482 1.615.482s1.284-.278 1.615-.482c.26-.158.402-.246.76-.246s.5.088.76.246c.331.204.785.482 1.615.482s1.283-.278 1.615-.482c.259-.158.402-.246.76-.246s.5.088.76.246c.33.204.785.482 1.615.482s1.283-.278 1.615-.482c.259-.158.402-.246.76-.246s.5.088.76.246c.331.204.785.482 1.615.482s1.284-.278 1.615-.482c.26-.158.402-.246.76-.246V20c-.83 0-1.284.278-1.616.482zM10.671 1.054V0H9.283v1.054H6V3h8V1.054z"/><path d="M1 10.832l2.954 7.627a3.67 3.67 0 011.254-.21c1.139 0 1.84.456 2.245.751A3.644 3.644 0 019 18.311V8l-8 2.832zM10 8v10.311c.738.135 1.232.46 1.546.689.404-.295 1.106-.751 2.244-.751.484 0 .888.083 1.225.2L18 10.833 10 8z"/></g></svg><svg viewBox="0 0 30 32" id="buildings" xmlns="http://www.w3.org/2000/svg"><g fill="none"><path d="M27.444 0h-3.888l-.064 2.171h4.016zm-3.952 2.171L23 19h5l-.492-16.829z" fill="#156CE4"/><path d="M27.539 3.097L27.508 2h-4.016l-.031 1.097zM23.061 16.9L23 19h5l-.142-4.886z" fill="#24B1FF"/><path fill="#156CE4" d="M20 19.625V14l-10 5.625V14L0 19.625V32h30V14z"/><path d="M3 22h4.364v2H3zm9.818 0h4.364v2h-4.364zm9.818 0H27v2h-4.364z" fill="#49DDAA"/><path d="M10 28h4.5v4H10zm4.5 0H19v4h-4.5z" fill="#87CED9"/><path d="M14.5 31.714V32H19v-4h-.844zm-4.5 0V32h4.5v-4h-.844z" fill="#109CF1"/><path fill="#49DDAA" d="M14 28h1v4h-1zM4 24h3.048v-2h-.831zm9.976 0h3.048v-2h-.831zm9.976 0H27v-2h-.831z"/></g></svg><svg viewBox="0 0 23 23" id="calendar-1" xmlns="http://www.w3.org/2000/svg"><g fill="#B7BCD6"><path d="M8 12.546A.546.546 0 007.453 12H5.546a.546.546 0 00-.546.546v1.907c0 .302.245.547.546.547h1.907A.547.547 0 008 14.453v-1.907zm5 0a.546.546 0 00-.546-.546h-1.908a.546.546 0 00-.546.546v1.907c0 .302.245.547.546.547h1.908a.547.547 0 00.546-.547v-1.907zm5 0a.546.546 0 00-.546-.546h-1.907a.546.546 0 00-.547.546v1.907c0 .302.245.547.547.547h1.907a.547.547 0 00.546-.547v-1.907zm-10 5A.546.546 0 007.453 17H5.546a.546.546 0 00-.546.546v1.908c0 .302.245.546.546.546h1.907A.547.547 0 008 19.454v-1.908zm5 0a.546.546 0 00-.546-.546h-1.908a.546.546 0 00-.546.546v1.908c0 .302.245.546.546.546h1.908a.547.547 0 00.546-.546v-1.908zm5 0a.546.546 0 00-.546-.546h-1.907a.546.546 0 00-.547.546v1.908c0 .302.245.546.547.546h1.907a.547.547 0 00.546-.546v-1.908z"/><path d="M20.953 3.01v2.72c0 1.23-1.044 2.222-2.33 2.222h-1.469c-1.286 0-2.343-.991-2.343-2.221V3H8.19v2.73c0 1.23-1.057 2.222-2.343 2.222h-1.47c-1.285 0-2.329-.991-2.329-2.221V3.01C.923 3.042 0 3.93 0 5.025v15.947C0 22.085.944 23 2.108 23h18.784C22.054 23 23 22.083 23 20.972V5.025c0-1.094-.923-1.983-2.047-2.015zm-.683 16.969c0 .48-.408.871-.911.871H3.6c-.503 0-.911-.39-.911-.871V11.74c0-.481.408-.872.911-.872h15.758c.503 0 .911.39.911.872v8.238z"/><path d="M4.785 6h1.43A.775.775 0 007 5.235V.765A.775.775 0 006.215 0h-1.43A.775.775 0 004 .765v4.47c0 .423.352.765.785.765zm12.001 0h1.429A.775.775 0 0019 5.235V.765A.775.775 0 0018.215 0h-1.43A.776.776 0 0016 .765v4.47c0 .423.352.765.786.765z"/></g></svg><svg viewBox="0 0 23 23" id="calendar-1-white" xmlns="http://www.w3.org/2000/svg"><g fill="#FFF"><path d="M8 12.546A.546.546 0 007.453 12H5.546a.546.546 0 00-.546.546v1.907c0 .302.245.547.546.547h1.907A.547.547 0 008 14.453v-1.907zm5 0a.546.546 0 00-.546-.546h-1.908a.546.546 0 00-.546.546v1.907c0 .302.245.547.546.547h1.908a.547.547 0 00.546-.547v-1.907zm5 0a.546.546 0 00-.546-.546h-1.907a.546.546 0 00-.547.546v1.907c0 .302.245.547.547.547h1.907a.547.547 0 00.546-.547v-1.907zm-10 5A.546.546 0 007.453 17H5.546a.546.546 0 00-.546.546v1.908c0 .302.245.546.546.546h1.907A.547.547 0 008 19.454v-1.908zm5 0a.546.546 0 00-.546-.546h-1.908a.546.546 0 00-.546.546v1.908c0 .302.245.546.546.546h1.908a.547.547 0 00.546-.546v-1.908zm5 0a.546.546 0 00-.546-.546h-1.907a.546.546 0 00-.547.546v1.908c0 .302.245.546.547.546h1.907a.547.547 0 00.546-.546v-1.908z"/><path d="M20.953 3.01v2.72c0 1.23-1.044 2.222-2.33 2.222h-1.469c-1.286 0-2.343-.991-2.343-2.221V3H8.19v2.73c0 1.23-1.057 2.222-2.343 2.222h-1.47c-1.285 0-2.329-.991-2.329-2.221V3.01C.923 3.042 0 3.93 0 5.025v15.947C0 22.085.944 23 2.108 23h18.784C22.054 23 23 22.083 23 20.972V5.025c0-1.094-.923-1.983-2.047-2.015zm-.683 16.969c0 .48-.408.871-.911.871H3.6c-.503 0-.911-.39-.911-.871V11.74c0-.481.408-.872.911-.872h15.758c.503 0 .911.39.911.872v8.238z"/><path d="M4.785 6h1.43A.775.775 0 007 5.235V.765A.775.775 0 006.215 0h-1.43A.775.775 0 004 .765v4.47c0 .423.352.765.785.765zm12.001 0h1.429A.775.775 0 0019 5.235V.765A.775.775 0 0018.215 0h-1.43A.776.776 0 0016 .765v4.47c0 .423.352.765.786.765z"/></g></svg><svg viewBox="0 0 20 20" id="calendar-blue" xmlns="http://www.w3.org/2000/svg"><g fill="#24B1FF"><path d="M6.957 10.91a.475.475 0 00-.476-.475H4.823a.475.475 0 00-.475.475v1.658c0 .263.213.475.475.475H6.48a.475.475 0 00.476-.475V10.91zm4.347 0a.474.474 0 00-.474-.475H9.17a.474.474 0 00-.474.475v1.658c0 .263.212.475.475.475h1.659a.474.474 0 00.474-.475V10.91zm4.348 0a.475.475 0 00-.475-.475H13.52a.475.475 0 00-.476.475v1.658c0 .263.213.475.476.475h1.658a.475.475 0 00.475-.475V10.91zm-8.695 4.348a.475.475 0 00-.476-.475H4.823a.475.475 0 00-.475.475v1.658c0 .263.213.475.475.475H6.48a.475.475 0 00.476-.475v-1.658zm4.347 0a.474.474 0 00-.474-.475H9.17a.474.474 0 00-.474.475v1.658c0 .263.212.475.475.475h1.659a.474.474 0 00.474-.475v-1.658zm4.348 0a.475.475 0 00-.475-.475H13.52a.475.475 0 00-.476.475v1.658c0 .263.213.475.476.475h1.658a.475.475 0 00.475-.475v-1.658z"/><path d="M18.22 2.617v2.366c0 1.07-.907 1.932-2.026 1.932h-1.277c-1.118 0-2.038-.862-2.038-1.932V2.61H7.121v2.374c0 1.07-.92 1.932-2.038 1.932H3.806c-1.119 0-2.026-.862-2.026-1.932V2.617C.803 2.645 0 3.42 0 4.37v13.867C0 19.205.82 20 1.833 20h16.334c1.01 0 1.833-.797 1.833-1.764V4.37c0-.95-.803-1.724-1.78-1.752zm-.594 14.756c0 .418-.354.758-.792.758H3.13c-.437 0-.792-.34-.792-.758V10.21c0-.419.354-.758.792-.758h13.703c.438 0 .792.34.792.758v7.163z"/><path d="M4.161 5.217h1.243a.674.674 0 00.683-.665V.665A.674.674 0 005.404 0H4.16a.674.674 0 00-.683.665v3.887c0 .368.306.665.683.665zm10.435 0h1.243a.674.674 0 00.683-.665V.665A.674.674 0 0015.839 0h-1.243a.674.674 0 00-.683.665v3.887c0 .368.306.665.683.665z"/></g></svg><svg viewBox="0 0 14 14" id="cancel" xmlns="http://www.w3.org/2000/svg"><path fill="#B7BCD6" d="M8.042 7l5.742-5.742A.736.736 0 1012.742.216L7 5.958 1.258.216A.736.736 0 10.216 1.258L5.958 7 .216 12.742a.736.736 0 101.042 1.042L7 8.042l5.742 5.742a.736.736 0 101.042-1.042L8.042 7z"/></svg><svg viewBox="0 0 16 15" id="chat-1" xmlns="http://www.w3.org/2000/svg"><path fill="#B7BCD6" d="M2.33 14H1.196l.801-.797c.433-.43.703-.988.775-1.594C.922 10.402 0 8.653 0 6.819 0 3.438 3.128 0 8.027 0 13.217 0 16 3.163 16 6.523c0 3.383-2.812 6.544-7.973 6.544-.904 0-1.847-.12-2.69-.34A4.215 4.215 0 012.33 14z"/></svg><svg viewBox="0 0 24 24" id="check" xmlns="http://www.w3.org/2000/svg"><g fill="none"><path fill="#fff" d="M22.56 1.44C21.6.48 20.443 0 19.09 0H4.91C3.557 0 2.401.48 1.44 1.44.48 2.4 0 3.557 0 4.91v14.18c0 1.353.48 2.51 1.44 3.47.96.96 2.117 1.44 3.47 1.44h14.182c1.352 0 2.508-.48 3.469-1.44.96-.96 1.44-2.117 1.44-3.47V4.91c0-1.353-.48-2.51-1.44-3.47z"/><path fill="#37517e" d="M4.69 12.6c-.127-.12-.19-.3-.19-.42s.063-.3.19-.42l.889-.84a.638.638 0 01.888 0l.064.06 3.49 3.54c.127.12.317.12.444 0l8.504-8.34h.064a.638.638 0 01.888 0l.889.84a.56.56 0 010 .84l-10.154 9.96c-.127.12-.254.18-.444.18s-.318-.06-.445-.18l-4.95-5.04-.127-.18z"/></g></svg><svg viewBox="0 0 11 8" id="check-box-empty" xmlns="http://www.w3.org/2000/svg"><path fill="#FFF" d="M.127 4.4A.419.419 0 010 4.12c0-.08.042-.2.127-.28l.592-.56c.17-.16.423-.16.593 0l.042.04L3.68 5.68c.084.08.211.08.296 0L9.647.12h.041c.17-.16.424-.16.593 0l.592.56c.17.16.17.4 0 .56l-6.77 6.64a.391.391 0 01-.295.12.393.393 0 01-.296-.12l-3.3-3.36-.085-.12z"/></svg><svg viewBox="0 0 11 8" id="check-box-empty-blue" xmlns="http://www.w3.org/2000/svg"><path fill="#156CE4" d="M.127 4.4A.419.419 0 010 4.12c0-.08.042-.2.127-.28l.592-.56c.17-.16.423-.16.593 0l.042.04L3.68 5.68c.084.08.211.08.296 0L9.647.12h.041c.17-.16.424-.16.593 0l.592.56c.17.16.17.4 0 .56l-6.77 6.64a.391.391 0 01-.295.12.393.393 0 01-.296-.12l-3.3-3.36-.085-.12z"/></svg><svg viewBox="0 0 16 16" id="check-box-empty-copy-6" xmlns="http://www.w3.org/2000/svg"><g fill="none"><path fill="#FFF" d="M15.04.96A3.153 3.153 0 0012.727 0H3.273C2.37 0 1.6.32.96.96.32 1.6 0 2.371 0 3.273v9.454c0 .902.32 1.672.96 2.313.64.64 1.411.96 2.313.96h9.454c.902 0 1.672-.32 2.313-.96.64-.64.96-1.411.96-2.313V3.273c0-.902-.32-1.673-.96-2.313z"/><path fill="#109CF1" d="M3.127 8.4A.419.419 0 013 8.12c0-.08.042-.2.127-.28l.592-.56c.17-.16.423-.16.593 0l.042.04L6.68 9.68c.084.08.211.08.296 0l5.67-5.56h.041c.17-.16.424-.16.593 0l.592.56c.17.16.17.4 0 .56l-6.77 6.64a.391.391 0 01-.295.12.393.393 0 01-.296-.12l-3.3-3.36-.085-.12z"/></g></svg><svg viewBox="0 0 120 120" id="check-copy-4" xmlns="http://www.w3.org/2000/svg"><defs><filter id="aua" width="167.6%" height="167.6%" x="-33.8%" y="-32.4%" filterUnits="objectBoundingBox"><feOffset dy="1" in="SourceAlpha" result="shadowOffsetOuter1"/><feGaussianBlur in="shadowOffsetOuter1" result="shadowBlurOuter1" stdDeviation="7.5"/><feColorMatrix in="shadowBlurOuter1" values="0 0 0 0 0.215686275 0 0 0 0 0.317647059 0 0 0 0 0.494117647 0 0 0 0.207823427 0"/></filter><circle id="aub" cx="60" cy="60" r="34"/></defs><g fill="none" fill-rule="evenodd"><circle cx="60" cy="60" r="60" fill="#ECD858" opacity=".146"/><use fill="#000" filter="url(#aua)" xlink:href="#aub"/><use fill="#ECD858" xlink:href="#aub"/><g fill="#FFF"><path d="M73.53 58.551L60.967 47.368a1.456 1.456 0 00-1.934 0L46.47 58.551c-.442.394-.587 1-.372 1.544.216.544.742.896 1.34.896h2.006v11.205c0 .444.369.804.823.804h6.886c.455 0 .824-.36.824-.804v-6.804h4.047v6.804c0 .444.368.804.823.804h6.886c.454 0 .823-.36.823-.804V60.99h2.007c.597 0 1.123-.352 1.339-.896.215-.545.07-1.15-.372-1.544z"/><path d="M68.222 49H63l6 7v-6.002c0-.551-.348-.998-.778-.998z"/></g></g></svg><svg viewBox="0 0 24 24" id="check-gray" xmlns="http://www.w3.org/2000/svg"><g fill="none"><path fill="#BFC5D2" d="M22.56 1.44C21.6.48 20.443 0 19.09 0H4.91C3.557 0 2.401.48 1.44 1.44.48 2.4 0 3.557 0 4.91v14.18c0 1.353.48 2.51 1.44 3.47.96.96 2.117 1.44 3.47 1.44h14.182c1.352 0 2.508-.48 3.469-1.44.96-.96 1.44-2.117 1.44-3.47V4.91c0-1.353-.48-2.51-1.44-3.47z"/><path fill="#fff" d="M4.69 12.6c-.127-.12-.19-.3-.19-.42s.063-.3.19-.42l.889-.84a.638.638 0 01.888 0l.064.06 3.49 3.54c.127.12.317.12.444 0l8.504-8.34h.064a.638.638 0 01.888 0l.889.84a.56.56 0 010 .84l-10.154 9.96c-.127.12-.254.18-.444.18s-.318-.06-.445-.18l-4.95-5.04-.127-.18z"/></g></svg><svg viewBox="0 0 18 13" id="check-white" xmlns="http://www.w3.org/2000/svg"><path fill="#FFF" d="M.208 7.15A.68.68 0 010 6.695c0-.13.07-.325.208-.455l.969-.91a.7.7 0 01.97 0l.068.065L6.023 9.23a.35.35 0 00.485 0L15.785.195h.069a.7.7 0 01.97 0l.968.91c.277.26.277.65 0 .91L6.715 12.805a.647.647 0 01-.484.195.65.65 0 01-.485-.195l-5.4-5.46-.138-.195z"/></svg><svg viewBox="0 0 20 20" id="close" xmlns="http://www.w3.org/2000/svg"><path fill="#E30C0C" d="M10 0C4.486 0 0 4.486 0 10s4.486 10 10 10 10-4.486 10-10S15.514 0 10 0zm4.045 12.866a.419.419 0 010 .59l-.59.589a.418.418 0 01-.589 0L10 11.178l-2.866 2.867a.419.419 0 01-.59 0l-.589-.59a.418.418 0 010-.589L8.822 10 5.955 7.134a.419.419 0 010-.59l.59-.589a.418.418 0 01.589 0L10 8.822l2.866-2.867a.419.419 0 01.59 0l.589.59a.418.418 0 010 .589L11.178 10l2.867 2.866z"/></svg><svg viewBox="0 0 20 20" id="correct" xmlns="http://www.w3.org/2000/svg"><path fill="#2ACC46" d="M10 0C4.486 0 0 4.486 0 10s4.486 10 10 10 10-4.486 10-10S15.514 0 10 0zm4.75 8.406l-5.53 5.353a.866.866 0 01-.602.241.862.862 0 01-.602-.241L5.25 11.082a.803.803 0 010-1.164.87.87 0 011.203 0l2.164 2.094 4.93-4.77a.868.868 0 011.203 0 .803.803 0 010 1.164z"/></svg><svg viewBox="0 0 15 15" id="create-14" xmlns="http://www.w3.org/2000/svg"><path fill="#49ddaa" d="M0 11.875V15h3.125l9.215-9.215L9.215 2.66 0 11.875zm14.756-8.507a.83.83 0 000-1.175l-1.95-1.95a.83.83 0 00-1.174 0L10.107 1.77l3.124 3.124 1.525-1.525z"/></svg><svg viewBox="0 0 15 15" id="create-24-px" xmlns="http://www.w3.org/2000/svg"><path fill="#BFC5D2" d="M0 11.875V15h3.125l9.215-9.215L9.215 2.66 0 11.875zm14.756-8.507a.83.83 0 000-1.175l-1.95-1.95a.83.83 0 00-1.174 0L10.107 1.77l3.124 3.124 1.525-1.525z"/></svg><svg viewBox="0 0 14 14" id="create-24-px-blue" xmlns="http://www.w3.org/2000/svg"><path fill="#109CF1" d="M0 11.084V14h2.916l8.601-8.601-2.916-2.916L0 11.083zm13.773-7.94a.776.776 0 000-1.097l-1.82-1.82a.776.776 0 00-1.097 0L9.433 1.651l2.916 2.916 1.424-1.423z"/></svg><svg viewBox="0 0 14 20" id="cursor" xmlns="http://www.w3.org/2000/svg"><path fill="#FFF" d="M13.819 13.1L1.054.183A.609.609 0 00.618 0 .622.622 0 000 .625v18.75a.617.617 0 001.062.435l5.377-5.643h6.943c.341 0 .618-.28.618-.625a.622.622 0 00-.181-.442z"/></svg><svg viewBox="0 0 14 20" id="cursor-aquamarine" xmlns="http://www.w3.org/2000/svg"><path fill="#49ddaa" d="M13.819 13.1L1.054.183A.609.609 0 00.618 0 .622.622 0 000 .625v18.75a.617.617 0 001.062.435l5.377-5.643h6.943c.341 0 .618-.28.618-.625a.622.622 0 00-.181-.442z"/></svg><svg viewBox="0 0 14 20" id="cursor-gray" xmlns="http://www.w3.org/2000/svg"><path fill="#B7BCD6" d="M13.819 13.1L1.054.183A.609.609 0 00.618 0 .622.622 0 000 .625v18.75a.617.617 0 001.062.435l5.377-5.643h6.943c.341 0 .618-.28.618-.625a.622.622 0 00-.181-.442z"/></svg><svg viewBox="0 0 20 20" id="danger" xmlns="http://www.w3.org/2000/svg"><path fill="#109CF1" d="M10 0C4.486 0 0 4.486 0 10s4.486 10 10 10 10-4.486 10-10S15.514 0 10 0zm0 15.833a.833.833 0 110-1.666.833.833 0 010 1.666zm.833-4.166a.833.833 0 01-1.666 0V5a.833.833 0 011.666 0v6.667z"/></svg><svg viewBox="0 0 26 16" id="delivery" xmlns="http://www.w3.org/2000/svg"><g fill="#B7BCD6"><path d="M24.588 4.826l-.115-.15c-.458-.603-.829-1.281-1.156-1.88-.32-.587-.623-1.141-.954-1.525C21.626.416 20.933 0 20.243 0h-3.408c-.003 0-.328.004-.72.004h-.556a.87.87 0 00-.842.655l-.004.017v7.525c0 .005.01.112-.076.205-.093.102-.273.156-.52.156H.847C.38 8.562 0 8.92 0 9.358v2.734c0 .438.38.795.847.795h2.914a3.42 3.42 0 006.81 0h4.878a3.42 3.42 0 006.81 0h2.217c.84 0 1.524-.682 1.524-1.521v-2.61c0-2.102-.85-3.202-1.412-3.93zm-4.46 7.761a1.275 1.275 0 01-2.548 0 1.274 1.274 0 012.549 0zm2.932-6.623c-.027.044-.103.063-.218.055h-5.857V1.25h2.532c.681 0 1.164.297 1.666 1.023.335.482 1.22 2.002 1.264 2.08l.097.184c.255.487.64 1.223.516 1.428zM7.166 11.315c.703 0 1.275.571 1.275 1.272a1.275 1.275 0 01-2.549 0c0-.701.572-1.272 1.274-1.272z"/><path d="M1.806 7h4.388C6.638 7 7 6.626 7 6.167V2.833A.82.82 0 006.194 2H1.806C1.362 2 1 2.374 1 2.833v3.334c0 .46.362.833.806.833zm7 0h4.388c.444 0 .806-.374.806-.833V2.833A.82.82 0 0013.194 2H8.806C8.362 2 8 2.374 8 2.833v3.334c0 .46.362.833.806.833z"/></g></svg><svg viewBox="0 0 27 19" id="delivery-truck-1" xmlns="http://www.w3.org/2000/svg"><path fill="#49DDAA" d="M.947 12.66V1.156C.947.518 1.465 0 2.103 0h11.482c.638 0 1.156.518 1.156 1.157V12.66a.386.386 0 01-.386.386H1.333a.386.386 0 01-.386-.386zm9.272 3.94c0 1.325-1.073 2.4-2.397 2.4a2.399 2.399 0 01-2.397-2.4 2.398 2.398 0 114.794 0zm-1.199 0a1.199 1.199 0 10-2.397 0 1.2 1.2 0 102.397 0zm-3.263-2.4H.385a.385.385 0 00-.385.385v1.17c0 .214.172.386.385.386h4.306a3.17 3.17 0 011.066-1.942zm17.005 2.4a2.399 2.399 0 11-4.795 0 2.398 2.398 0 114.795 0zm-1.199 0a1.199 1.199 0 10-2.397 0 1.2 1.2 0 102.397 0zM27 14.585v1.17a.385.385 0 01-.385.386h-3.12a3.17 3.17 0 00-3.13-2.713 3.17 3.17 0 00-3.131 2.713h-6.281a3.174 3.174 0 00-1.066-1.942h5.955V3.165a.77.77 0 01.77-.771h3.638c1.024 0 1.981.51 2.555 1.359l2.344 3.477a3.09 3.09 0 01.528 1.727V14.2h.938c.213 0 .385.173.385.386zM23.092 7.32l-1.876-2.667a.385.385 0 00-.315-.164h-2.924a.386.386 0 00-.386.386V7.54c0 .213.173.386.386.386h4.8a.386.386 0 00.315-.608z"/></svg><svg viewBox="0 0 18 14" id="delivery-truck-with-circular-clock-1" xmlns="http://www.w3.org/2000/svg"><path fill="#109CF1" d="M17.769 11.046h-.563V7.82c0-.377-.11-.747-.317-1.06l-1.41-2.14a1.837 1.837 0 00-1.534-.836h-2.184a.47.47 0 00-.463.475v6.786H7.72c.34.301.574.721.64 1.196h3.773c.134-.942.926-1.67 1.882-1.67.956 0 1.745.728 1.879 1.67h1.875a.235.235 0 00.231-.237v-.722a.235.235 0 00-.231-.237zm-2.305-3.858H12.58a.235.235 0 01-.232-.238V5.31c0-.13.105-.236.232-.236h1.756c.077 0 .146.038.19.1l1.127 1.641c.107.157-.002.373-.19.373zm-1.45 3.858c-.795 0-1.439.662-1.439 1.478 0 .814.644 1.476 1.44 1.476.794 0 1.44-.662 1.44-1.476 0-.816-.646-1.478-1.44-1.478zm0 2.216a.73.73 0 01-.719-.738c0-.408.322-.738.72-.738.398 0 .72.33.72.738a.73.73 0 01-.72.738zm-12-2.216a.235.235 0 00-.232.237v.722c0 .13.104.237.232.237H4.6a1.97 1.97 0 01.639-1.196H2.013zm4.466 0c-.793 0-1.44.662-1.44 1.478 0 .814.647 1.476 1.44 1.476.796 0 1.44-.662 1.44-1.476 0-.816-.644-1.478-1.44-1.478zm0 2.216a.73.73 0 01-.72-.738c0-.408.322-.738.72-.738.398 0 .72.33.72.738a.73.73 0 01-.72.738zM9.942 2.314H7.259c.132.401.202.83.202 1.274 0 2.24-1.778 4.062-3.962 4.062a3.89 3.89 0 01-1.148-.173V10.1c0 .13.104.237.231.237h7.822a.235.235 0 00.232-.237V3.026a.702.702 0 00-.694-.712zM3.499 0C1.567 0 0 1.606 0 3.587 0 5.57 1.567 7.175 3.5 7.175c1.932 0 3.498-1.606 3.498-3.588C6.998 1.607 5.432 0 3.5 0zm0 6.359C2.006 6.359.796 5.118.796 3.587c0-1.53 1.21-2.77 2.703-2.77 1.493 0 2.703 1.24 2.703 2.77S4.992 6.36 3.499 6.36zm1.032-2.186a.311.311 0 01-.09-.013l-1.128-.31a.356.356 0 01-.257-.344v-1.78c0-.196.156-.355.347-.355.192 0 .348.16.348.356v1.506l.87.241a.356.356 0 01.245.436.348.348 0 01-.335.264z"/></svg><svg viewBox="0 0 20 20" id="diagonal-arrow-1" xmlns="http://www.w3.org/2000/svg"><g fill="#FFF" stroke="#FFF"><path d="M18.5 5a.5.5 0 00-.5.5V18H5.5a.5.5 0 000 1h13a.5.5 0 00.5-.5v-13a.5.5 0 00-.5-.5z"/><path d="M18.854 18.147l-17-17a.5.5 0 10-.709.705l17 17.001a.506.506 0 00.708 0 .5.5 0 000-.707z"/></g></svg><svg viewBox="0 0 14 18" id="doc" xmlns="http://www.w3.org/2000/svg"><g fill="none"><path fill="#B7BCD6" d="M1.615 18h10.77c.89 0 1.615-.71 1.615-1.582V5.273h-3.77c-.89 0-1.615-.71-1.615-1.582V0h-7C.725 0 0 .71 0 1.582v14.836C0 17.29.725 18 1.615 18z"/><g fill="#FFF"><path d="M7 6a1 1 0 11-2 0 1 1 0 012 0zm-.462 8c-.254 0-.461-.168-.461-.375V9.75h-.615C5.207 9.75 5 9.582 5 9.375S5.207 9 5.462 9h1.076c.255 0 .462.168.462.375v4.25c0 .207-.207.375-.462.375z"/><path d="M7.625 14h-2.25C5.168 14 5 13.776 5 13.5s.168-.5.375-.5h2.25c.207 0 .375.224.375.5s-.168.5-.375.5z"/></g><path fill="#B7BCD6" d="M10.54 4H14l-4-4v3.46c0 .298.242.54.54.54z"/></g></svg><svg viewBox="0 0 14 18" id="doc-active" xmlns="http://www.w3.org/2000/svg"><g fill="none"><path fill="#109CF1" d="M1.615 18h10.77c.89 0 1.615-.71 1.615-1.582V5.273h-3.77c-.89 0-1.615-.71-1.615-1.582V0h-7C.725 0 0 .71 0 1.582v14.836C0 17.29.725 18 1.615 18z"/><path fill="#FFF" d="M7 6a1 1 0 11-2 0 1 1 0 012 0zm-.462 8c-.254 0-.461-.168-.461-.375V9.75h-.615C5.207 9.75 5 9.582 5 9.375S5.207 9 5.462 9h1.076c.255 0 .462.168.462.375v4.25c0 .207-.207.375-.462.375z"/><path fill="#FFF" d="M7.625 14h-2.25C5.168 14 5 13.776 5 13.5s.168-.5.375-.5h2.25c.207 0 .375.224.375.5s-.168.5-.375.5z"/><path fill="#109CF1" d="M10.54 4H14l-4-4v3.46c0 .298.242.54.54.54z"/></g></svg><svg viewBox="0 0 13 17" id="document" xmlns="http://www.w3.org/2000/svg"><g fill="#B7BCD6"><path d="M9.418 4.087a.522.522 0 01-.523-.521V0H4.524A.522.522 0 004 .522V2.93h1.426c.141 0 .275.056.371.153L9.903 7.17a.525.525 0 01.153.369V14h2.42c.29 0 .524-.234.524-.522v-9.39H9.418z"/><path d="M10 1v2h2zM4.894 7.518V4H.524C.234 4 0 4.23 0 4.515v11.97c0 .285.234.515.524.515h7.952c.29 0 .524-.23.524-.515V8.032H5.418a.519.519 0 01-.524-.514z"/><path d="M6 7h2L6 5z"/></g></svg><svg viewBox="0 0 23 26" id="document-1" xmlns="http://www.w3.org/2000/svg"><g fill="#FFF"><path d="M17 11c0-.552-.473-1-1.057-1H5.057C4.473 10 4 10.448 4 11s.473 1 1.057 1h10.886c.584 0 1.057-.448 1.057-1zM4.969 14C4.434 14 4 14.448 4 15s.434 1 .969 1h6.062c.535 0 .969-.448.969-1s-.434-1-.969-1H4.969z"/><path d="M7.238 23.969H3.942c-1.087 0-1.971-.911-1.971-2.032V4.063c0-1.12.884-2.03 1.971-2.03h12.116c1.087 0 1.971.91 1.971 2.03v6.247c0 .56.441 1.015.986 1.015.544 0 .985-.454.985-1.015V4.063C20 1.822 18.232 0 16.058 0H3.942C1.768 0 0 1.822 0 4.063v17.875C0 24.178 1.768 26 3.942 26h3.296c.544 0 .985-.455.985-1.016 0-.56-.44-1.015-.985-1.015zm14.892-9.092a2.96 2.96 0 00-4.207 0l-5.446 5.478c-.115.117-.2.26-.248.418l-1.186 3.936c-.105.35-.014.728.239.99a.99.99 0 00.975.265l4.003-1.119a.994.994 0 00.436-.255l5.434-5.47a3.022 3.022 0 000-4.243zm-6.65 8.111l-2.015.563.59-1.957 3.674-3.697 1.403 1.415-3.653 3.676zm5.248-5.282l-.192.193-1.403-1.414.192-.193c.386-.39 1.015-.39 1.402 0s.387 1.024 0 1.414z"/><path d="M15.943 6H5.057C4.473 6 4 6.448 4 7s.473 1 1.057 1h10.886C16.527 8 17 7.552 17 7s-.473-1-1.057-1z"/></g></svg><svg viewBox="0 0 13 17" id="document-white" xmlns="http://www.w3.org/2000/svg"><g fill="#fff"><path d="M9.418 4.087a.522.522 0 01-.523-.521V0H4.524A.522.522 0 004 .522V2.93h1.426c.141 0 .275.056.371.153L9.903 7.17a.525.525 0 01.153.369V14h2.42c.29 0 .524-.234.524-.522v-9.39H9.418z"/><path d="M10 1v2h2zM4.894 7.518V4H.524C.234 4 0 4.23 0 4.515v11.97c0 .285.234.515.524.515h7.952c.29 0 .524-.23.524-.515V8.032H5.418a.519.519 0 01-.524-.514z"/><path d="M6 7h2L6 5z"/></g></svg><svg viewBox="0 0 16 9" id="down" xmlns="http://www.w3.org/2000/svg"><path fill="none" stroke="#B7BCD6" stroke-linecap="round" stroke-linejoin="round" stroke-width="2" d="M1 1l7 7 7-7"/></svg><svg viewBox="0 0 19 19" id="edit-2" xmlns="http://www.w3.org/2000/svg"><g fill="#B7BCD6"><path d="M9.417 1.667H8.56C8.304.708 7.48 0 6.5 0S4.696.708 4.439 1.667h-.856c-.319 0-.583.283-.583.625v1.25C3 4.342 3.614 5 4.361 5H8.64C9.386 5 10 4.342 10 3.542v-1.25c0-.342-.264-.625-.583-.625z"/><path d="M10.87 3.03h-.19V4c0 1.178-.939 2.132-2.098 2.132H4.386c-1.159 0-2.097-.954-2.097-2.133V3.03h-.19c-.558 0-1.338-.103-1.714.257C-.02 3.675 0 4.55 0 5.163v9.693c0 .619-.028 1.485.385 1.874.374.353 1.162.259 1.713.259h5.63l.167-.954c.076-.434.275-.822.58-1.14l.61-.62H2.861a.582.582 0 010-1.164h7.246a.25.25 0 01.107.016h.008l2.746-2.792V5.163c0-.564.15-1.495-.2-1.876-.382-.417-1.293-.257-1.898-.257zm-.763 8.724H2.861a.582.582 0 010-1.163h7.246a.581.581 0 010 1.163zm0-2.52H2.861a.581.581 0 010-1.163h7.246a.581.581 0 010 1.163zM9.613 19a.615.615 0 01-.433-.178.6.6 0 01-.17-.537l.433-2.438a.608.608 0 01.17-.324l6.076-6.024c.746-.741 1.479-.54 1.88-.143l1.012 1.003a1.412 1.412 0 010 2.008l-6.075 6.024a.612.612 0 01-.328.17l-2.458.43a.635.635 0 01-.107.009z"/></g></svg><svg viewBox="0 0 19 19" id="edit-2-active" xmlns="http://www.w3.org/2000/svg"><g fill="#109CF1"><path d="M9.417 1.667H8.56C8.304.708 7.48 0 6.5 0S4.696.708 4.439 1.667h-.856c-.319 0-.583.283-.583.625v1.25C3 4.342 3.614 5 4.361 5H8.64C9.386 5 10 4.342 10 3.542v-1.25c0-.342-.264-.625-.583-.625z"/><path d="M10.87 3.03h-.19V4c0 1.178-.939 2.132-2.098 2.132H4.386c-1.159 0-2.097-.954-2.097-2.133V3.03h-.19c-.558 0-1.338-.103-1.714.257C-.02 3.675 0 4.55 0 5.163v9.693c0 .619-.028 1.485.385 1.874.374.353 1.162.259 1.713.259h5.63l.167-.954c.076-.434.275-.822.58-1.14l.61-.62H2.861a.582.582 0 010-1.164h7.246a.25.25 0 01.107.016h.008l2.746-2.792V5.163c0-.564.15-1.495-.2-1.876-.382-.417-1.293-.257-1.898-.257zm-.763 8.724H2.861a.582.582 0 010-1.163h7.246a.581.581 0 010 1.163zm0-2.52H2.861a.581.581 0 010-1.163h7.246a.581.581 0 010 1.163zM9.613 19a.615.615 0 01-.433-.178.6.6 0 01-.17-.537l.433-2.438a.608.608 0 01.17-.324l6.076-6.024c.746-.741 1.479-.54 1.88-.143l1.012 1.003a1.412 1.412 0 010 2.008l-6.075 6.024a.612.612 0 01-.328.17l-2.458.43a.635.635 0 01-.107.009z"/></g></svg><svg viewBox="0 0 20 19" id="error" xmlns="http://www.w3.org/2000/svg"><path fill="#F99E04" d="M19.594 14.424L12.521 1.432A2.91 2.91 0 0010 0a2.912 2.912 0 00-2.523 1.432l-.011.02-7.05 12.952a2.889 2.889 0 00-.028 2.94 2.904 2.904 0 002.55 1.48h14.084c1.068 0 2.06-.553 2.588-1.48a2.877 2.877 0 00-.016-2.92zM8.826 5.95c0-.647.525-1.17 1.173-1.17s1.173.523 1.173 1.17v4.681c0 .647-.525 1.17-1.173 1.17s-1.173-.523-1.173-1.17V5.95zM10 16.483c-.97 0-1.76-.788-1.76-1.756a1.76 1.76 0 013.52 0A1.76 1.76 0 0110 16.483z"/></svg><svg viewBox="0 0 10 14" id="facebook-placeholder-for-locate-places-on-maps" xmlns="http://www.w3.org/2000/svg"><path fill="#BFC5D2" fill-rule="evenodd" d="M9.764 3.484c-.052-.186-.157-.385-.234-.56C8.6.772 6.57 0 4.932 0 2.74 0 .322 1.419 0 4.343v.597c0 .025.009.25.022.361.18 1.394 1.32 2.875 2.172 4.269.916 1.493 1.867 2.962 2.809 4.43.58-.958 1.16-1.929 1.727-2.862.154-.274.334-.548.489-.81.103-.173.3-.347.39-.51C8.525 8.202 10 6.572 10 4.966v-.66c0-.173-.224-.783-.236-.82zm-4.791 3c-.645 0-1.351-.311-1.7-1.17-.051-.137-.047-.41-.047-.436v-.386c0-1.095.964-1.592 1.802-1.592 1.033 0 1.831.796 1.831 1.792 0 .995-.854 1.792-1.886 1.792z"/></svg><svg viewBox="0 0 23 22" id="flag" xmlns="http://www.w3.org/2000/svg"><g fill="none"><circle cx="11" cy="11" r="11" fill="#F0F0F0"/><path d="M10.34 10.752H22c0-1.006-.134-1.98-.385-2.908H10.34v2.908zm0-5.816h10.02a11.252 11.252 0 00-2.58-2.908h-7.44v2.908zm.485 16.964c2.63 0 5.048-.907 6.956-2.424H3.87a11.143 11.143 0 006.956 2.423zM1.29 16.568h19.07c.549-.894.975-1.87 1.255-2.908H.035c.28 1.037.707 2.014 1.256 2.908z" fill="#D80027"/><path fill="#0052B4" d="M5.095 1.718h1.003l-.933.677.357 1.096-.933-.677-.932.677.307-.947c-.82.684-1.54 1.485-2.133 2.378h.321l-.593.431a9.92 9.92 0 00-.266.47l.283.873-.529-.385c-.131.279-.252.564-.36.854L1 8.127h1.152l-.932.677.356 1.096-.932-.677-.559.405C.029 10.078 0 10.535 0 11h11V0C8.827 0 6.801.63 5.095 1.718zM5.522 9.9l-.933-.677-.932.677.356-1.096-.932-.677h1.152L4.59 7.03l.356 1.097h1.153l-.933.677.357 1.096zm-.357-4.3l.357 1.096-.933-.678-.932.678.356-1.096-.932-.678h1.152l.356-1.096.356 1.096h1.153l-.933.678zm4.302 4.3l-.932-.677-.933.677.357-1.096-.933-.677H8.18l.356-1.097.356 1.097h1.152l-.932.677.356 1.096zm-.356-4.3l.356 1.096-.932-.678-.933.678L7.96 5.6l-.933-.678H8.18l.356-1.096.356 1.096h1.152l-.932.678zm0-3.205l.356 1.096-.932-.677-.933.677.357-1.096-.933-.677H8.18L8.535.622l.356 1.096h1.152l-.932.677z"/></g></svg><svg viewBox="0 0 335 80" id="graphic" xmlns="http://www.w3.org/2000/svg"><defs><linearGradient id="bva" x1="100%" x2="5.185%" y1="73.482%" y2="73.482%"><stop offset="0%" stop-color="#22B8C8"/><stop offset="100%" stop-color="#3390DF"/><stop offset="100%" stop-color="#5187E0"/></linearGradient></defs><g fill="none" fill-rule="evenodd"><path fill="url(#bva)" d="M14.118 42.563c5.94.907 14.003 5.387 24.187 13.442 10.183 8.054 21.794 5.814 34.83-6.72 21.142-17.037 42.234-21.444 63.278-13.222 31.566 12.334 54.244-18.586 72.898-9.293 18.653 9.293 23.798 35.956 37.463 29.235 5.097-2.507 12.09-2.692 17.9-8.062 3.05-2.817 7.33-9.18 12.844-19.09l7.566 2.607 8.207 5.31 16.14-13.54L328.101 2l4.358 59.517c.645 8.813-5.976 16.48-14.789 17.126a16.14 16.14 0 01-1.374.041l-292.11-3.752C15.35 74.818 8.28 67.563 8.393 58.728a16.013 16.013 0 011.356-6.244l4.37-9.92z" opacity=".215" transform="translate(1 1)"/><path stroke="#109CF1" stroke-width="2.5" d="M15.102 42.793c5.932.906 13.983 5.387 24.154 13.441 10.17 8.055 21.764 5.815 34.784-6.72 21.112-17.037 42.176-21.444 63.192-13.221 31.523 12.334 54.171-18.586 72.8-9.293 18.628 9.293 23.766 35.955 37.412 29.234 13.647-6.72 18.434.22 24.249-16.007 5.814-16.227 11.545-8.765 18.008-3.934 4.308 3.22 17.441-8.544 39.4-35.293"/></g></svg><svg viewBox="0 0 20 20" id="gray__cancel" xmlns="http://www.w3.org/2000/svg"><path fill="#B7BCD6" d="M11.489 10l8.203-8.203c.41-.411.41-1.078 0-1.489a1.055 1.055 0 00-1.489 0L10 8.511 1.797.308a1.055 1.055 0 00-1.489 0 1.055 1.055 0 000 1.489L8.511 10 .308 18.203a1.055 1.055 0 000 1.489c.411.41 1.078.41 1.489 0L10 11.489l8.203 8.203c.411.41 1.078.41 1.489 0 .41-.411.41-1.078 0-1.489L11.489 10z"/></svg><svg viewBox="0 0 21 15" id="gray__delivery-truck-1" xmlns="http://www.w3.org/2000/svg"><path fill="#B7BCD6" d="M.737 9.994V.914c0-.505.402-.914.899-.914h8.93c.496 0 .899.41.899.914v9.08a.303.303 0 01-.3.305H1.037a.303.303 0 01-.3-.305zm7.211 3.111c0 1.047-.835 1.895-1.864 1.895-1.03 0-1.865-.848-1.865-1.895 0-1.047.835-1.895 1.865-1.895s1.864.848 1.864 1.895zm-.932 0a.94.94 0 00-.932-.947.94.94 0 00-.933.947c0 .523.418.948.933.948a.94.94 0 00.932-.948zM4.478 11.21H.3c-.166 0-.3.136-.3.305v.924c0 .168.134.304.3.304h3.349c.087-.61.39-1.148.829-1.533zm13.226 1.895c0 1.047-.835 1.895-1.865 1.895s-1.864-.848-1.864-1.895c0-1.047.834-1.895 1.864-1.895 1.03 0 1.865.848 1.865 1.895zm-.932 0a.94.94 0 00-.933-.947.94.94 0 00-.932.947.94.94 0 00.932.948.941.941 0 00.933-.948zM21 11.515v.924a.302.302 0 01-.3.304h-2.426c-.173-1.21-1.198-2.142-2.435-2.142s-2.261.933-2.435 2.142H8.52a2.509 2.509 0 00-.83-1.533h4.633V2.499c0-.337.268-.61.6-.61h2.828c.797 0 1.541.403 1.987 1.074l1.824 2.745c.267.403.41.878.41 1.363v4.139h.73c.165 0 .299.136.299.305zm-3.04-5.737l-1.458-2.106a.301.301 0 00-.245-.129h-2.275c-.166 0-.3.136-.3.305v2.106c0 .168.134.304.3.304h3.733a.305.305 0 00.245-.48z"/></svg><svg viewBox="0 0 335 80" id="group-9" xmlns="http://www.w3.org/2000/svg"><defs><linearGradient id="bya" x1="100%" x2="5.185%" y1="73.482%" y2="73.482%"><stop offset="0%" stop-color="#58C822"/><stop offset="100%" stop-color="#3390DF"/><stop offset="100%" stop-color="#5187E0"/></linearGradient></defs><g fill="none" fill-rule="evenodd"><path fill="url(#bya)" d="M14.118 42.563c5.94.907 14.003 5.387 24.187 13.442 10.183 8.054 21.794 5.814 34.83-6.72 21.142-17.037 42.234-21.444 63.278-13.222 31.566 12.334 54.244-18.586 72.898-9.293 18.653 9.293 23.798 35.956 37.463 29.235 5.097-2.507 12.09-2.692 17.9-8.062 3.05-2.817 7.33-9.18 12.844-19.09l7.566 2.607 8.207 5.31 16.14-13.54L328.101 2l4.358 59.517c.645 8.813-5.976 16.48-14.789 17.126a16.14 16.14 0 01-1.374.041l-292.11-3.752C15.35 74.818 8.28 67.563 8.393 58.728a16.013 16.013 0 011.356-6.244l4.37-9.92z" opacity=".207" transform="translate(1 1)"/><path stroke="#109CF1" stroke-width="2.5" d="M15.102 42.793c5.932.906 13.983 5.387 24.154 13.441 10.17 8.055 21.764 5.815 34.784-6.72 21.112-17.037 42.176-21.444 63.192-13.221 31.523 12.334 54.171-18.586 72.8-9.293 18.628 9.293 23.766 35.955 37.412 29.234 13.647-6.72 18.434.22 24.249-16.007 5.814-16.227 11.545-8.765 18.008-3.934 4.308 3.22 17.441-8.544 39.4-35.293"/></g></svg><svg viewBox="0 0 25 24" id="growth" xmlns="http://www.w3.org/2000/svg"><g fill="#FFF" stroke="#FFF"><path d="M24.48 24H.52c-.287 0-.52-.224-.52-.5s.233-.5.52-.5h23.96c.287 0 .52.224.52.5s-.233.5-.52.5z"/><path d="M6.5 24h-5a.5.5 0 01-.5-.5V18c0-.551.448-1 1-1h4c.552 0 1 .449 1 1v5.5a.5.5 0 01-.5.5zM2 23h4v-5H2v5zm13.5 1h-5a.5.5 0 01-.5-.5V12c0-.551.448-1 1-1h4c.552 0 1 .449 1 1v11.5a.5.5 0 01-.5.5zM11 23h4V12h-4v11zm12.5 1h-5a.5.5 0 01-.5-.5V14c0-.551.448-1 1-1h4c.552 0 1 .449 1 1v9.5a.5.5 0 01-.5.5zM19 23h4v-9h-4v9zM2.525 10a.539.539 0 01-.371-.146.483.483 0 010-.707l5.25-5a.538.538 0 01.498-.132l8.112 1.931 6.09-5.8a.544.544 0 01.742 0 .483.483 0 010 .707l-6.3 6a.54.54 0 01-.498.131l-8.112-1.93-5.04 4.8a.536.536 0 01-.37.146z"/><path d="M22.5 5a.5.5 0 01-.5-.5V1h-3.5a.5.5 0 010-1h4a.5.5 0 01.5.5v4a.5.5 0 01-.5.5z"/></g></svg><svg viewBox="0 0 27 34" id="holidays" xmlns="http://www.w3.org/2000/svg"><g fill="none"><path fill="#156CE4" d="M12.452 0h1.973v3.238h-1.973z"/><path fill="#109CF1" d="M13.562 0h.986v3.238h-.986z"/><path fill="#156CE4" d="M6.904 2.117h13.069v5.356H6.904z"/><path fill="#109CF1" d="M13.438 2.117h6.535v5.356h-6.535z"/><path fill="#49DDAA" d="M4.239 6.524h18.523v26.413H4.239z"/><path fill="#49DDAA" d="M13.5 6.524h9.262v26.413H13.5z"/><path fill="#D4FFF8" d="M8.528 23.677h9.944v9.26H8.528z"/><path fill="#156CE4" d="M13.5 23.677h4.972v9.26H13.5z"/><path fill="#D4FFF8" d="M7.538 10.469h1.981v1.989H7.538z"/><path fill="#156CE4" d="M17.482 10.469h1.98v1.989h-1.98z"/><path fill="#D4FFF8" d="M12.51 10.469h1.98v1.989h-1.98zM7.538 14.47h1.981v1.99H7.538z"/><path fill="#156CE4" d="M17.482 14.47h1.98v1.99h-1.98z"/><path fill="#D4FFF8" d="M12.51 14.47h1.98v1.99h-1.98zm-4.972 4.002h1.981v1.989H7.538z"/><path fill="#156CE4" d="M17.482 18.472h1.98v1.989h-1.98z"/><path fill="#D4FFF8" d="M12.51 18.472h1.98v1.989h-1.98z"/><path fill="#156CE4" d="M13.5 10.469h.99v1.989h-.99zm0 4.001h.99v1.99h-.99zm0 4.002h.99v1.989h-.99z"/><path fill="#109CF1" d="M0 32.007h27V34H0z"/><path fill="#109CF1" d="M13.562 32.007H27V34H13.562z"/></g></svg><svg viewBox="0 0 13 12" id="home-run-1" xmlns="http://www.w3.org/2000/svg"><g fill="#BFC5D2" fill-rule="evenodd"><path d="M12.782 5.331L6.949.17a.677.677 0 00-.898 0L.218 5.33a.63.63 0 00-.172.713c.1.251.344.413.621.413H1.6v5.172c0 .205.171.371.382.371h3.197a.377.377 0 00.383-.371v-3.14H7.44v3.14c0 .205.17.371.382.371h3.197c.21 0 .382-.166.382-.371V6.457h.932a.661.661 0 00.621-.413.632.632 0 00-.172-.713z"/><path d="M10.611 1H8l3 3V1.428C11 1.19 10.826 1 10.611 1z"/></g></svg><svg viewBox="0 0 13 13" id="icon-1" xmlns="http://www.w3.org/2000/svg"><g fill="#BFC5D2"><path d="M10 3a.99.99 0 001-.984V.986A.992.992 0 0010 0c-.553 0-1 .44-1 .986v1.03A.99.99 0 0010 3z"/><path d="M12.986 2.022h-1.841v.44c0 .726-.624 1.317-1.393 1.317-.77 0-1.392-.591-1.392-1.317v-.44H4.644v.44c0 .726-.625 1.317-1.393 1.317-.769 0-1.393-.59-1.393-1.317v-.44L0 2v11h12.072l.928-.003-.014-10.975zm-.915 10.102H.93V5.097h11.143v7.027z"/><path d="M3 3a.99.99 0 001-.984V.986A.992.992 0 003 0c-.553 0-1 .44-1 .986v1.03A.99.99 0 003 3zm2 3h2v1H5z"/><path d="M6 6h2v1H6zm2 0h2v1H8zM5 7h2v1H5z"/><path d="M6 7h2v1H6zm2 0h2v1H8zM5 9h2v1H5zM3 7h2v1H3zm0 2h2v1H3z"/><path d="M6 9h2v1H6zm2 0h2v1H8z"/></g></svg><svg viewBox="0 0 23 50" id="icon-ocean-1" xmlns="http://www.w3.org/2000/svg"><g fill="none" fill-rule="evenodd"><path fill="#109CF1" d="M11.956 33.068a1.578 1.578 0 00-.833-.023L.484 35.737c-.296.075-.484.23-.484.401v13.415c0 .154.153.298.405.379a1.563 1.563 0 00.833.023l10.639-2.692c.296-.075.483-.23.483-.401V33.447c0-.155-.152-.298-.404-.38"/><path fill="#51DB92" d="M20.968 9.776C20.968 4.377 16.591 0 11.192 0S1.416 4.377 1.416 9.776c0 0-.243 9.834 9.776 19.853C21.211 19.61 20.968 9.776 20.968 9.776"/><path fill="#074EA3" d="M22.139 35.627l-10.262-2.599a1.47 1.47 0 00-.15-.028v14.324l10.034 2.63c.12.03.249.046.378.046V35.627"/><path fill="#51DB92" d="M11.334.002L11.192 0C5.793 0 1.416 4.377 1.416 9.776c0 0-.243 9.834 9.776 19.853l.142-.145V.002"/><path fill="#FFF" d="M15.186 9.755a3.994 3.994 0 11-7.988.002 3.994 3.994 0 017.988-.002"/></g></svg><svg viewBox="0 0 46 50" id="icon-ocean-2" xmlns="http://www.w3.org/2000/svg"><g fill="none" fill-rule="evenodd"><path fill="#013177" d="M1.286 48.806h7.428V10.193H1.286v38.613zM9.356 50H.644C.288 50 0 49.733 0 49.403V9.597C0 9.267.288 9 .644 9h8.712c.356 0 .644.267.644.597v39.806c0 .33-.288.597-.644.597z"/><path fill="#013177" d="M9.357 17a.631.631 0 01-.45-.187L.192 8.117c-.254-.252-.257-.665-.008-.922s.656-.26.91-.007l8.713 8.696a.659.659 0 01.007.922.633.633 0 01-.458.194m.001 9a.632.632 0 01-.45-.188L.192 17.117c-.254-.253-.257-.667-.008-.923s.656-.259.91-.006l8.713 8.695a.659.659 0 01.007.922.634.634 0 01-.458.195m.001 8a.637.637 0 01-.45-.188L.192 25.116c-.254-.252-.257-.664-.008-.921s.656-.26.91-.008l8.713 8.697a.657.657 0 01.007.921.634.634 0 01-.458.195m.001 8a.631.631 0 01-.45-.187L.192 33.117c-.254-.253-.257-.666-.008-.923s.656-.259.91-.006l8.713 8.696a.659.659 0 01.007.922.633.633 0 01-.458.194m.001 8a.632.632 0 01-.45-.188L.192 41.117a.658.658 0 01-.008-.922.638.638 0 01.91-.008l8.713 8.696a.659.659 0 01.007.922.634.634 0 01-.458.195"/><path fill="#013177" d="M.643 17a.639.639 0 01-.458-.194.657.657 0 01.008-.922l8.713-8.697a.637.637 0 01.91.008.66.66 0 01-.008.922l-8.713 8.696A.638.638 0 01.643 17m0 9a.64.64 0 01-.458-.195.657.657 0 01.008-.922l8.713-8.695a.638.638 0 01.91.006.66.66 0 01-.008.923l-8.713 8.695A.639.639 0 01.643 26m0 8a.636.636 0 01-.458-.195.656.656 0 01.008-.921l8.713-8.697a.637.637 0 01.91.008.66.66 0 01-.008.922l-8.713 8.695A.643.643 0 01.643 34m0 8a.639.639 0 01-.458-.194.657.657 0 01.008-.922l8.713-8.696a.638.638 0 01.91.006.66.66 0 01-.008.923l-8.713 8.696A.638.638 0 01.643 42m0 8a.64.64 0 01-.458-.195.657.657 0 01.008-.922l8.713-8.696a.637.637 0 01.91.008.66.66 0 01-.008.922l-8.713 8.695A.639.639 0 01.643 50"/><path fill="#013177" d="M9.356 17H.644C.288 17 0 16.776 0 16.5s.288-.5.644-.5h8.712c.356 0 .644.224.644.5s-.288.5-.644.5m0 8H.644C.288 25 0 24.776 0 24.5s.288-.5.644-.5h8.712c.356 0 .644.224.644.5s-.288.5-.644.5m0 9H.644C.288 34 0 33.776 0 33.5s.288-.5.644-.5h8.712c.356 0 .644.224.644.5s-.288.5-.644.5m0 7H.644C.288 41 0 40.776 0 40.5s.288-.5.644-.5h8.712c.356 0 .644.224.644.5s-.288.5-.644.5m8.861-33.252h16.564V6.253H18.217v1.495zM35.39 9H17.608A.618.618 0 0117 8.374V5.626c0-.345.273-.626.608-.626H35.39c.336 0 .61.28.61.626v2.748a.619.619 0 01-.61.626z"/><path fill="#FFF" d="M37 7c0 .552-.672 1-1.5 1-.829 0-1.5-.448-1.5-1s.671-1 1.5-1c.828 0 1.5.448 1.5 1"/><path fill="#013177" d="M36 6.258a.743.743 0 100 1.486.743.743 0 000-1.486zM36 9c-1.103 0-2-.897-2-2 0-1.102.897-2 2-2 1.102 0 2 .898 2 2 0 1.103-.898 2-2 2z"/><path fill="#013177" d="M35.5 18c-.276 0-.5-.282-.5-.63V8.63c0-.348.224-.63.5-.63s.5.282.5.63v8.74c0 .348-.224.63-.5.63"/><path fill="#013177" d="M37.449 21h-.898C35.696 21 35 20.325 35 19.493c0-.295.246-.533.55-.533.304 0 .55.238.55.533 0 .242.203.438.451.438h.898c.249 0 .45-.196.45-.438v-.816a.444.444 0 00-.45-.438h-1.232a.542.542 0 01-.55-.534v-2.17c0-.296.246-.535.55-.535.304 0 .55.239.55.535v1.635h.682c.854 0 1.551.676 1.551 1.507v.816c0 .832-.697 1.507-1.551 1.507"/><path fill="#013177" d="M41.389 26a.61.61 0 01-.419-.166l-4.632-4.358-4.292 4.343a.609.609 0 01-.866 0 .619.619 0 01-.002-.871l4.713-4.766a.606.606 0 01.85-.016l5.065 4.766c.247.232.26.623.03.872a.611.611 0 01-.447.196"/><path fill="#51DB92" d="M17.611 3.557L9.221.045A.582.582 0 009 0H.61C.273 0 0 .295 0 .658v8.684c0 .364.273.658.61.658h16.78c.338 0 .61-.294.61-.658v-5.17a.659.659 0 00-.389-.615"/><path fill="#109CF1" d="M45.384 24H28.617a.626.626 0 00-.617.635v10.731c0 .351.276.634.617.634h16.767c.34 0 .616-.283.616-.634V24.635a.626.626 0 00-.616-.635"/><path fill="#B7BCD6" d="M28 30v5.396c0 .333.292.604.65.604h16.7c.359 0 .65-.271.65-.604V30H28"/></g></svg><svg viewBox="0 0 79 33" id="icon-ocean-3" xmlns="http://www.w3.org/2000/svg"><g fill="none" fill-rule="evenodd"><path fill="#51DB92" d="M11.5 8C8.468 8 6 10.403 6 13.356v2.864c0 .43.359.78.8.78h9.4c.441 0 .8-.35.8-.78v-2.864C17 10.403 14.534 8 11.5 8"/><path fill="#109CF1" d="M66.21 7h-9.422a.79.79 0 00-.788.79v14.419a.79.79 0 00.788.791h9.422a.79.79 0 00.79-.791V7.79a.79.79 0 00-.79-.79"/><path fill="#074EA3" d="M56 23h11v-8H56z"/><path fill="#109CF1" d="M54.212 7H44.79a.79.79 0 00-.79.79v14.419a.79.79 0 00.79.791h9.422a.79.79 0 00.788-.791V7.79a.79.79 0 00-.788-.79"/><path fill="#109CF1" d="M54.106 7h-9.211a.903.903 0 00-.895.91V14h11V7.91c0-.502-.4-.91-.894-.91M42.212 0H32.79a.782.782 0 00-.79.775v21.45c0 .428.353.775.79.775h9.422a.782.782 0 00.788-.775V.775A.782.782 0 0042.212 0"/><path fill="#51DB92" d="M16.523 11.44l-.21-.44H6.688l-.211.44A4.772 4.772 0 006 13.523V17h11v-3.478a4.76 4.76 0 00-.477-2.081"/><path fill="#109CF1" d="M22.223 15H3.777a.775.775 0 00-.777.774v6.452c0 .428.348.774.777.774h18.446a.775.775 0 00.777-.774v-6.452a.775.775 0 00-.777-.774"/><path fill="#074EA3" d="M32 23h11v-8H32z"/><path fill="#51DB92" d="M78.968 21.585a.79.79 0 00-.752-.585H.785a.781.781 0 00-.67.391.838.838 0 00-.028.797l4.603 9.368a.783.783 0 00.7.444c.12 0 .243-.03.357-.09a.82.82 0 00.427-.726H63.62c0 .153.04.307.126.445a.766.766 0 001.086.238l13.812-9.366a.835.835 0 00.324-.916"/><path fill="#B7BCD6" d="M1 25l3.503 7h59.988L75 25H1"/><path fill="#013177" d="M74 33l-3.782-2.772c-2.263-1.658-4.971-1.636-7.22.06-2.247 1.693-4.957 1.715-7.218.058l-.16-.118c-2.264-1.658-4.974-1.636-7.222.06-2.247 1.693-4.957 1.715-7.22.058l-.16-.118c-2.262-1.658-4.97-1.636-7.22.06-2.248 1.693-4.958 1.715-7.22.058l-.16-.118c-2.263-1.658-4.97-1.636-7.22.06-2.248 1.693-4.957 1.715-7.219.058l-.16-.118c-2.264-1.658-4.972-1.636-7.222.06L1 33h73"/><path fill="#109CF1" d="M42.106 0h-9.211A.903.903 0 0032 .912V7h11V.912C43 .408 42.6 0 42.106 0"/></g></svg><svg viewBox="0 0 56 38" id="icon-ocean-4" xmlns="http://www.w3.org/2000/svg"><g fill="none" fill-rule="evenodd"><path fill="#51DB92" d="M52.74 18.304l-.143-.163a17.644 17.644 0 00-13.222-5.965.646.646 0 00-.646.637l-.163 12.873H3.614a.645.645 0 00-.645.645v5.249c0 .357.289.646.645.646h50.77a.646.646 0 00.646-.646v-7.224c0-2.231-.813-4.38-2.29-6.052"/><path fill="#B7BCD6" d="M31.645 0H5.062A5.068 5.068 0 000 5.062v16.896a5.068 5.068 0 005.062 5.062h26.583a5.068 5.068 0 005.062-5.062V5.062A5.068 5.068 0 0031.645 0" opacity=".539"/><path fill="#013177" d="M49.91 32.441a3.96 3.96 0 01-7.917 0 3.958 3.958 0 117.917 0"/><path fill="#013177" d="M45.951 29.343c-1.708 0-3.098 1.39-3.098 3.098s1.39 3.098 3.098 3.098 3.098-1.39 3.098-3.098-1.39-3.098-3.098-3.098zm0 7.917a4.824 4.824 0 01-4.819-4.819c0-2.657 2.162-4.819 4.819-4.819s4.819 2.162 4.819 4.819a4.824 4.824 0 01-4.819 4.819z"/><path fill="#B7BCD6" d="M31.656.076H5.138C2.352.076.086 2.293.086 5.017v9.303h36.621V5.017c0-2.724-2.266-4.941-5.051-4.941" opacity=".539"/><path fill="#109CF1" d="M30.229 13.75l-8.262-7.089a.86.86 0 00-1.421.653v3.333H7.038a.86.86 0 00-.86.861v5.375a.86.86 0 00.86.861h13.508v3.332a.86.86 0 001.401.67l8.263-6.673a.865.865 0 00.32-.657.866.866 0 00-.301-.666m24.5 8.287a9.19 9.19 0 00-1.989-3.733l-.143-.163a17.6 17.6 0 00-8.472-5.312.647.647 0 00-.819.622v8.75c0 .357.289.646.645.646h10.153a.646.646 0 00.625-.81"/><path fill="#013177" d="M10.842 27.622a4.825 4.825 0 00-4.819 4.819c0 2.658 2.162 4.819 4.819 4.819s4.819-2.161 4.819-4.819a4.825 4.825 0 00-4.819-4.819m35.109 0a4.825 4.825 0 00-4.819 4.819c0 2.658 2.162 4.819 4.819 4.819s4.819-2.161 4.819-4.819a4.825 4.825 0 00-4.819-4.819"/><path fill="#109CF1" d="M6.178 14.195v2.688a.86.86 0 00.86.861h13.508v3.332a.86.86 0 001.401.67l8.263-6.673a.866.866 0 00.32-.656c0-.076-.01-.15-.028-.222H6.178"/><path fill="#074EA3" d="M10.842 29.037a3.409 3.409 0 00-3.405 3.404 3.409 3.409 0 003.405 3.405 3.408 3.408 0 003.405-3.405 3.408 3.408 0 00-3.405-3.404m35.109 0a3.409 3.409 0 00-3.405 3.404 3.409 3.409 0 003.405 3.405 3.408 3.408 0 003.405-3.405 3.408 3.408 0 00-3.405-3.404"/></g></svg><svg viewBox="0 0 47 33" id="icon-ocean-5" xmlns="http://www.w3.org/2000/svg"><g fill="none" fill-rule="evenodd"><path fill="#109CF1" d="M4.526 1h11.078c.218 0 .413.136.491.342l6.87 18.312a.532.532 0 01.035.189v7.626a.529.529 0 01-.526.531H4.526A.53.53 0 014 27.47V1.53c0-.293.235-.53.526-.53"/><path fill="#013177" d="M5.5 22c3.033 0 5.5 2.467 5.5 5.5 0 3.032-2.467 5.5-5.5 5.5S0 30.532 0 27.5C0 24.467 2.467 22 5.5 22"/><path fill="#51DB92" d="M24.537 0h2.813c.297 0 .537.24.537.536v23.577h18.576c.297 0 .537.24.537.536v1.385c0 .28-.217.514-.497.535L27.391 28l-.04.001h-2.814a.536.536 0 01-.537-.536V.536c0-.297.24-.536.537-.536"/><path fill="#013177" d="M20.5 22c3.033 0 5.5 2.467 5.5 5.5 0 3.032-2.467 5.5-5.5 5.5S15 30.532 15 27.5c0-3.033 2.467-5.5 5.5-5.5"/><path fill="#074EA3" d="M6 25c1.103 0 2 .898 2 2 0 1.102-.897 2-2 2s-2-.898-2-2c0-1.102.897-2 2-2m15 0c1.103 0 2 .898 2 2 0 1.102-.897 2-2 2-1.102 0-2-.898-2-2 0-1.102.898-2 2-2"/><path fill="#013177" d="M9.545 1h5.803c.225 0 .427.133.508.336l7.109 17.959c.063.16.04.34-.062.48a.549.549 0 01-.447.225H9.545A.533.533 0 019 19.48V1.52c0-.288.244-.52.545-.52m22.413 5h11.084a.95.95 0 01.958.943v16.115a.95.95 0 01-.958.942H31.958a.95.95 0 01-.958-.942V6.943A.95.95 0 0131.958 6"/><path fill="#109CF1" d="M36.945 25h1.11C41.338 25 44 22.314 44 19H31c0 3.314 2.661 6 5.945 6M31 12h13c0-3.314-2.662-6-5.944-6h-1.112C33.661 6 31 8.686 31 12"/></g></svg><svg viewBox="0 0 29 33" id="icon-ocean-6" xmlns="http://www.w3.org/2000/svg"><g fill="none" fill-rule="evenodd"><path fill="#013177" d="M7 28h15H7m14.36 1H6.64c-.354 0-.64-.447-.64-1 0-.553.286-1 .64-1h14.72c.354 0 .64.447.64 1 0 .553-.286 1-.64 1M6 31h17H6m18.352 1H5.647C5.29 32 5 31.551 5 31c0-.553.29-1 .647-1h18.705c.358 0 .648.447.648 1 0 .551-.29 1-.648 1"/><path fill="#074EA3" d="M8.98 25.212a.454.454 0 00-.253-.294l-2.109-.888a.396.396 0 00-.473.138L.098 32.231a.509.509 0 00-.058.499c.07.165.218.27.382.27h3.937c.143 0 .276-.08.354-.212l4.218-7.174a.513.513 0 00.048-.402m19.924 7.018l-6.048-8.062a.396.396 0 00-.473-.138l-2.11.888a.449.449 0 00-.251.294.513.513 0 00.048.402l4.219 7.174c.077.132.21.212.353.212h3.937a.42.42 0 00.382-.27.513.513 0 00-.057-.5"/><path fill="#51DB92" d="M19.153 0H8.846C5.622 0 3 2.455 3 5.474v15.052C3 23.545 5.622 26 8.846 26h10.307C22.377 26 25 23.545 25 20.526V5.474C25 2.455 22.377 0 19.153 0"/><path fill="#013177" d="M19.153 0H8.846C5.622 0 3 2.634 3 5.873v10.655c0 .26.21.472.47.472h21.06a.47.47 0 00.47-.472V5.873C25 2.634 22.377 0 19.153 0"/><path fill="#E7F5FE" d="M22.394 4H6.606C6.271 4 6 4.255 6 4.57v7.86c0 .314.271.57.606.57h15.788c.335 0 .606-.256.606-.57V4.57c0-.315-.271-.57-.606-.57"/><path fill="#FFF" d="M11 19.5a1.5 1.5 0 11-2.999.001A1.5 1.5 0 0111 19.5"/><path fill="#013177" d="M9.5 18.966c-.713 0-1.292.464-1.292 1.034 0 .57.579 1.034 1.292 1.034.713 0 1.292-.464 1.292-1.034 0-.57-.579-1.034-1.292-1.034zM9.5 22C8.122 22 7 21.103 7 20s1.122-2 2.5-2 2.5.897 2.5 2-1.122 2-2.5 2z"/><path fill="#FFF" d="M21 19.5a1.5 1.5 0 11-2.999.001A1.5 1.5 0 0121 19.5"/><path fill="#013177" d="M19.5 18.966c-.713 0-1.292.464-1.292 1.034 0 .57.579 1.034 1.292 1.034.713 0 1.292-.464 1.292-1.034 0-.57-.579-1.034-1.292-1.034zm0 3.034c-1.378 0-2.5-.897-2.5-2s1.122-2 2.5-2c1.38 0 2.5.897 2.5 2s-1.12 2-2.5 2z"/><path fill="#E7F5FE" d="M19.367 1H8.634C8.284 1 8 1.448 8 2c0 .553.284 1 .634 1h10.733c.35 0 .633-.447.633-1 0-.552-.283-1-.633-1"/></g></svg><svg viewBox="0 0 15 10" id="interface-3" xmlns="http://www.w3.org/2000/svg"><g fill="#B7BCD6"><path d="M7.5 7.049L0 1v9h15V1z"/><path d="M15 0H0l7.5 6z"/></g></svg><svg viewBox="0 0 49 49" id="left-arrow" xmlns="http://www.w3.org/2000/svg"><defs><filter id="cka" width="142.9%" height="142.9%" x="-21.4%" y="-21.4%" filterUnits="objectBoundingBox"><feOffset in="SourceAlpha" result="shadowOffsetOuter1"/><feGaussianBlur in="shadowOffsetOuter1" result="shadowBlurOuter1" stdDeviation="3.5"/><feColorMatrix in="shadowBlurOuter1" values="0 0 0 0 0 0 0 0 0 0 0 0 0 0 0 0 0 0 0.119290865 0"/></filter><circle id="ckb" cx="24.5" cy="24.5" r="24.5"/></defs><g fill="none" fill-rule="evenodd" transform="matrix(-1 0 0 1 49 0)"><use fill="#000" filter="url(#cka)" xlink:href="#ckb"/><use fill="#FFF" xlink:href="#ckb"/><path stroke="#488DFF" stroke-linecap="square" stroke-width="2" d="M22 17l7.009 7.057L22 31.114"/></g></svg><svg viewBox="0 0 20 16" id="mail" xmlns="http://www.w3.org/2000/svg"><defs><path id="cla" d="M1.524 14.527V2.132l8.48 6.845 8.472-6.845v12.395H1.524zM17.143 1.49l-7.095 5.587-7.19-5.587h14.285zM18.182 0H1.818C.815 0 0 .797 0 1.778v12.444C0 15.202.815 16 1.818 16h16.364C19.185 16 20 15.203 20 14.222V1.778C20 .798 19.185 0 18.182 0z"/></defs><use fill="#B7BCD6" xlink:href="#cla" fill-rule="evenodd"/></svg><svg viewBox="0 0 12 15" id="maths" xmlns="http://www.w3.org/2000/svg"><path fill="#B7BCD6" d="M1.65 0h8.7C11.26 0 12 .77 12 1.719V13.28c0 .95-.74 1.72-1.65 1.72h-8.7C.74 15 0 14.23 0 13.281V1.72C0 .77.74 0 1.65 0zm5.682 11.7a.482.482 0 000 .663.441.441 0 00.318.137c.115 0 .23-.046.318-.137l.432-.45.432.45a.441.441 0 00.318.137c.115 0 .23-.046.318-.137a.484.484 0 000-.664l-.431-.449.432-.45a.484.484 0 000-.663.438.438 0 00-.637 0l-.432.45-.432-.45a.438.438 0 00-.637 0 .484.484 0 000 .663l.432.45-.431.45zm.318-3.731h.3v.312c0 .259.202.469.45.469s.45-.21.45-.469V7.97h.3c.248 0 .45-.21.45-.469s-.202-.469-.45-.469h-.3V6.72c0-.259-.202-.469-.45-.469s-.45.21-.45.469v.312h-.3c-.248 0-.45.21-.45.469s.202.469.45.469zM2.85 12.5h1.5a.46.46 0 00.45-.469.46.46 0 00-.45-.469h-1.5a.46.46 0 00-.45.47.46.46 0 00.45.468zm0-1.563h1.5a.46.46 0 00.45-.468.46.46 0 00-.45-.469h-1.5a.46.46 0 00-.45.469.46.46 0 00.45.469zm0-2.812h1.5a.46.46 0 00.45-.469.46.46 0 00-.45-.468h-1.5a.46.46 0 00-.45.468.46.46 0 00.45.469zM1.8 3.906C1.8 4.51 2.271 5 2.85 5h6.3c.579 0 1.05-.49 1.05-1.094V2.97c0-.603-.471-1.094-1.05-1.094h-6.3c-.579 0-1.05.49-1.05 1.094v.937z"/></svg><svg viewBox="0 0 14 18" id="maths-active" xmlns="http://www.w3.org/2000/svg"><path fill="#109CF1" d="M1.925 0h10.15C13.137 0 14 .925 14 2.063v13.874C14 17.075 13.137 18 12.075 18H1.925C.863 18 0 17.075 0 15.937V2.063C0 .925.863 0 1.925 0zm6.629 14.04a.592.592 0 000 .796.504.504 0 00.742-.001l.504-.54.504.54c.102.11.237.165.371.165s.269-.055.371-.165a.592.592 0 000-.796l-.503-.539.504-.54a.592.592 0 000-.796.5.5 0 00-.743 0l-.504.54-.504-.54a.5.5 0 00-.743 0 .592.592 0 000 .796l.504.54-.503.54zm.371-4.477h.35v.374c0 .311.235.563.525.563.29 0 .525-.252.525-.563v-.374h.35c.29 0 .525-.253.525-.563 0-.31-.235-.563-.525-.563h-.35v-.374c0-.311-.235-.563-.525-.563-.29 0-.525.252-.525.563v.374h-.35c-.29 0-.525.253-.525.563 0 .31.235.563.525.563zM3.325 15h1.75c.29 0 .525-.252.525-.563 0-.31-.235-.562-.525-.562h-1.75c-.29 0-.525.252-.525.563 0 .31.235.562.525.562zm0-1.875h1.75c.29 0 .525-.252.525-.563 0-.31-.235-.562-.525-.562h-1.75c-.29 0-.525.252-.525.563 0 .31.235.562.525.562zm0-3.375h1.75c.29 0 .525-.252.525-.563 0-.31-.235-.562-.525-.562h-1.75c-.29 0-.525.252-.525.563 0 .31.235.562.525.562zM2.1 4.687C2.1 5.412 2.65 6 3.325 6h7.35c.675 0 1.225-.589 1.225-1.313V3.563c0-.723-.55-1.312-1.225-1.312h-7.35c-.675 0-1.225.589-1.225 1.313v1.124z"/></svg><svg viewBox="0 0 3 13" id="menu-1" xmlns="http://www.w3.org/2000/svg"><g fill="#B7BCD6" transform="matrix(-1 0 0 1 3 0)"><circle cx="1.5" cy="6.5" r="1.5"/><circle cx="1.5" cy="11.5" r="1.5"/><circle cx="1.5" cy="1.5" r="1.5"/></g></svg><svg viewBox="0 0 18 18" id="merge" xmlns="http://www.w3.org/2000/svg"><g fill="#B7BCD6"><path d="M16.593 11v4.846a.712.712 0 01-.704.718H11V18h4.89c1.163 0 2.11-.966 2.11-2.154V11h-1.407zM15.89 0H11v1.421h4.89c.387 0 .703.32.703.711V7H18V2.132C18 .956 17.053 0 15.89 0z"/><path d="M18 8.802h-5.271l1.922-1.837L13.642 6 10 9.482 13.639 13l1.015-.959-1.938-1.874H18zM2.11 16.564a.712.712 0 01-.703-.718V11H0v4.846C0 17.034.947 18 2.11 18H7v-1.436H2.11zM2.11 0C.948 0 0 .956 0 2.132V7h1.407V2.132c0-.392.316-.71.704-.71H7V0H2.11z"/><path d="M4.358 6l-1.009.965 1.922 1.837H0v1.365h5.284l-1.938 1.874L4.361 13 8 9.482z"/></g></svg><svg viewBox="0 0 12 12" id="miscellaneous" xmlns="http://www.w3.org/2000/svg"><g fill="#B7BCD6"><path d="M11.643 4.246a.984.984 0 00-1.424.129l-.219.27L11.55 6l.209-.269c.36-.445.314-1.11-.116-1.485zM7.589 8l-.105.12a.867.867 0 00-.19.364l-.286 1.151a.29.29 0 00.102.296c.086.07.209.09.319.045l1.127-.471a.96.96 0 00.339-.243L9 9.142 7.589 8zm2.049-3L8 7.516 9.362 9 11 6.484zm-.932-3.536L7.426.23A.975.975 0 007 0v2h2a1.04 1.04 0 00-.294-.536z"/><path d="M5.948 8.627c.062-.263.185-.512.356-.72L9 4.667V2.814H6.577a.35.35 0 01-.346-.352V0H1.038C.466 0 0 .473 0 1.055v9.89C0 11.527.466 12 1.038 12h6.924C8.534 12 9 11.527 9 10.945v-.83l-.045.053a1.74 1.74 0 01-.634.48l-1.271.56a1.022 1.022 0 01-1.08-.16 1.058 1.058 0 01-.344-1.053l.322-1.368zM1.731 2.11h3.461c.192 0 .346.158.346.352a.349.349 0 01-.346.352H1.731a.349.349 0 01-.346-.352c0-.194.154-.352.346-.352zm0 2.133h5.538c.192 0 .346.157.346.352a.348.348 0 01-.346.351H1.731a.348.348 0 01-.346-.351c0-.195.154-.352.346-.352zM4.5 9.164H1.73a.348.348 0 01-.345-.351c0-.195.154-.352.346-.352H4.5c.191 0 .346.157.346.351a.349.349 0 01-.346.352zm-2.77-2.11a.348.348 0 01-.345-.35c0-.195.154-.352.346-.352h4.154a.35.35 0 01.346.351.35.35 0 01-.346.352H1.73z"/></g></svg><svg viewBox="0 0 23 22" id="new" xmlns="http://www.w3.org/2000/svg"><g fill="#FFF" stroke="#FFF"><path d="M17.074 2.853h-4.652a.207.207 0 01-.155-.07L10.579.94C10.03.34 9.259 0 8.448 0h-5.56A2.888 2.888 0 000 2.885v16.23A2.89 2.89 0 002.887 22h17.226A2.89 2.89 0 0023 19.115V8.719a2.888 2.888 0 00-2.887-2.885h-.152v-.096a2.89 2.89 0 00-2.887-2.885h0zM3.148 21.183h-.26a2.07 2.07 0 01-2.07-2.068V2.885A2.07 2.07 0 012.888.817h5.56c.58 0 1.135.244 1.527.673l1.688 1.845c.195.213.47.334.759.334h4.651a2.072 2.072 0 012.07 2.069v.096H8.105a2.888 2.888 0 00-2.887 2.885v10.396a2.07 2.07 0 01-2.07 2.068zM20.113 6.65a2.073 2.073 0 012.07 2.069v10.396a2.071 2.071 0 01-2.07 2.068H5.159c.56-.542.876-1.289.876-2.068V8.719a2.072 2.072 0 012.07-2.069h12.008z"/><path d="M11.43 13.93h2.64v2.64a.43.43 0 10.86 0v-2.64h2.64a.43.43 0 100-.86h-2.64v-2.64a.43.43 0 10-.86 0v2.64h-2.64a.43.43 0 000 .86h0z"/></g></svg><svg viewBox="0 0 18 18" id="orientation" xmlns="http://www.w3.org/2000/svg"><g fill="#B7BCD6"><path d="M7 8.802H2.757l1.941-1.837L3.679 6 0 9.482 3.676 13l1.025-.959-1.958-1.874H7zM14.321 6l-1.019.965 1.941 1.837H11v1.365h4.257l-1.958 1.874 1.025.959L18 9.482z"/><path d="M18 5.098V2.109A2.111 2.111 0 0015.89 0H2.11C.945 0 0 .946 0 2.11v2.988h1.406V2.109c0-.387.316-.703.703-.703h6.188v15.188H2.109a.705.705 0 01-.703-.703v-3.024H0v3.024C0 17.054.946 18 2.11 18h13.78c1.164 0 2.11-.946 2.11-2.11v-3.023h-1.406v3.024a.705.705 0 01-.703.703H9.703V1.406h6.188c.387 0 .703.316.703.703v2.989H18z"/></g></svg><svg viewBox="0 0 24 24" id="pallet" xmlns="http://www.w3.org/2000/svg"><path fill-rule="nonzero" d="M23.25 24h-4c-.414 0-.75-.42-.75-.938V21.5h-3v1.563c0 .517-.336.937-.75.937h-5.5c-.414 0-.75-.42-.75-.938V21.5h-3v1.563c0 .517-.336.937-.75.937h-4c-.414 0-.75-.42-.75-.938V19h24v4.063c0 .517-.336.937-.75.937zM16 0h-3v2a1 1 0 01-2 0V0H8a1 1 0 00-1 1v6a1 1 0 001 1h8a1 1 0 001-1V1a1 1 0 00-1-1zm-6 10H7v2a1 1 0 01-2 0v-2H2a1 1 0 00-1 1v6a1 1 0 001 1h8a1 1 0 001-1v-6a1 1 0 00-1-1zm12 0h-3v2a1 1 0 01-2 0v-2h-3a1 1 0 00-1 1v6a1 1 0 001 1h8a1 1 0 001-1v-6a1 1 0 00-1-1z" fill="#BFC5D2"/></svg><svg viewBox="0 0 17 16" id="print" xmlns="http://www.w3.org/2000/svg"><g fill="#B7BCD6"><path d="M11.438 13H6.563c-.311 0-.563.224-.563.5s.252.5.563.5h4.874c.311 0 .563-.224.563-.5s-.252-.5-.562-.5zm0-2H6.563c-.311 0-.563.224-.563.5s.252.5.563.5h4.874c.311 0 .563-.224.563-.5s-.252-.5-.562-.5z"/><path d="M15.678 3.895h-1.803V.574A.57.57 0 0013.308 0H3.692a.57.57 0 00-.567.574v3.32H1.322A1.335 1.335 0 000 5.235v5.773c0 .738.593 1.339 1.322 1.339h1.803v3.08a.57.57 0 00.567.574h9.616a.57.57 0 00.567-.574v-3.08h1.803c.729 0 1.322-.6 1.322-1.34V5.235c0-.738-.593-1.34-1.322-1.34zM4.258 1.148h8.483v2.747H4.26V1.148zm8.483 13.704H4.26v-4.694h8.482v4.694zm.567-7.588h-1.442a.57.57 0 01-.567-.573.57.57 0 01.567-.574h1.442a.57.57 0 01.567.574.57.57 0 01-.567.573z"/></g></svg><svg viewBox="0 0 25 10" id="resize" xmlns="http://www.w3.org/2000/svg"><path fill="#B7BCD6" d="M24.795 4.497L20.452.205a.73.73 0 00-.996 0l-.38.374a.716.716 0 00.001 1.003l2.462 2.45H3.451L5.925 1.57a.702.702 0 000-.994L5.547.198A.729.729 0 004.55.196L.205 4.488A.684.684 0 000 4.986a.688.688 0 00.205.506l4.343 4.292a.729.729 0 00.997 0l.378-.374a.666.666 0 000-.964L3.39 5.963h18.23l-2.545 2.495a.675.675 0 000 .969l.379.371c.132.131.31.202.498.202a.707.707 0 00.499-.204l4.344-4.294A.683.683 0 0025 5.003a.69.69 0 00-.205-.506z"/></svg><svg viewBox="0 0 49 49" id="right-arrow" xmlns="http://www.w3.org/2000/svg"><defs><filter id="cwa" width="142.9%" height="142.9%" x="-21.4%" y="-21.4%" filterUnits="objectBoundingBox"><feOffset in="SourceAlpha" result="shadowOffsetOuter1"/><feGaussianBlur in="shadowOffsetOuter1" result="shadowBlurOuter1" stdDeviation="3.5"/><feColorMatrix in="shadowBlurOuter1" values="0 0 0 0 0 0 0 0 0 0 0 0 0 0 0 0 0 0 0.119290865 0"/></filter><circle id="cwb" cx="24.5" cy="24.5" r="24.5"/></defs><g fill="none" fill-rule="evenodd"><use fill="#000" filter="url(#cwa)" xlink:href="#cwb"/><use fill="#FFF" xlink:href="#cwb"/><path stroke="#488DFF" stroke-linecap="square" stroke-width="2" d="M22 17l7.009 7.057L22 31.114"/></g></svg><svg viewBox="0 0 20 20" id="save" xmlns="http://www.w3.org/2000/svg"><g fill="#FFF"><path d="M5 14h10v2H5zm0 4v2h10v-2z"/><path d="M19.818 5.228L16.165.363A.911.911 0 0015.438 0h-1.499v7.576a.909.909 0 01-.909.909H4.545a.91.91 0 01-.909-.91V0H.91A.91.91 0 000 .91v18.18c0 .503.407.91.91.91h2.726v-6.364a.91.91 0 01.91-.909h10.909a.91.91 0 01.909.91V20h2.727a.91.91 0 00.909-.91V5.775a.912.912 0 00-.182-.546z"/><path d="M5 0v7h7V0z"/></g></svg><svg viewBox="0 0 16 16" id="search-1" xmlns="http://www.w3.org/2000/svg"><path fill="#B7BCD6" d="M15.902 14.96l-4.648-4.648a6.3 6.3 0 001.413-3.979A6.34 6.34 0 006.333 0 6.34 6.34 0 000 6.333a6.34 6.34 0 006.333 6.334 6.3 6.3 0 003.979-1.413l4.648 4.648c.13.13.34.13.471 0l.471-.47a.334.334 0 000-.472zm-9.569-3.627c-2.757 0-5-2.242-5-5 0-2.757 2.243-5 5-5 2.758 0 5 2.243 5 5 0 2.758-2.242 5-5 5z"/></svg><svg viewBox="0 0 16 16" id="search-white" xmlns="http://www.w3.org/2000/svg"><path fill="#fff" d="M15.902 14.96l-4.648-4.648a6.3 6.3 0 001.413-3.979A6.34 6.34 0 006.333 0 6.34 6.34 0 000 6.333a6.34 6.34 0 006.333 6.334 6.3 6.3 0 003.979-1.413l4.648 4.648c.13.13.34.13.471 0l.471-.47a.334.334 0 000-.472zm-9.569-3.627c-2.757 0-5-2.242-5-5 0-2.757 2.243-5 5-5 2.758 0 5 2.243 5 5 0 2.758-2.242 5-5 5z"/></svg><svg viewBox="0 0 14 16" id="share" xmlns="http://www.w3.org/2000/svg"><g fill="#B7BCD6"><path d="M13 3a2 2 0 11-3.999.001A2 2 0 0113 3z"/><path d="M11.5 5C10.121 5 9 3.879 9 2.5S10.121 0 11.5 0 14 1.121 14 2.5 12.879 5 11.5 5zm0-4.063c-.862 0-1.562.702-1.562 1.563s.7 1.563 1.562 1.563c.862 0 1.562-.702 1.562-1.563S12.362.937 11.5.937zM13 13a2 2 0 11-3.999.001A2 2 0 0113 13z"/><path d="M11.5 16C10.121 16 9 14.879 9 13.5s1.121-2.5 2.5-2.5 2.5 1.121 2.5 2.5-1.121 2.5-2.5 2.5zm0-4.063c-.862 0-1.562.702-1.562 1.563s.7 1.563 1.562 1.563c.862 0 1.562-.702 1.562-1.563s-.7-1.563-1.562-1.563zM5 8a2 2 0 11-3.999.001A2 2 0 015 8z"/><path d="M2.5 10C1.12 10 0 8.879 0 7.5S1.121 5 2.5 5 5 6.121 5 7.5 3.879 10 2.5 10zm0-4.062c-.862 0-1.563.7-1.563 1.562a1.564 1.564 0 003.126 0c0-.861-.701-1.562-1.563-1.562z"/><path d="M4.621 8a.611.611 0 01-.54-.346c-.17-.329-.065-.748.232-.936l5.76-3.627c.296-.189.676-.074.846.256.17.329.065.748-.232.936L4.927 7.91a.57.57 0 01-.306.09z"/><path d="M10.379 13a.575.575 0 01-.307-.09L4.313 9.282c-.297-.187-.401-.606-.232-.935.169-.33.549-.445.847-.256l5.759 3.627c.297.187.401.606.232.936a.614.614 0 01-.54.346z"/></g></svg><svg viewBox="0 0 20 20" id="ship" xmlns="http://www.w3.org/2000/svg"><g fill="#FFF"><path d="M15.833 11.382L13.54 10.05a.37.37 0 00-.488.109.327.327 0 00.115.46l2.293 1.333a.37.37 0 00.488-.109.326.326 0 00-.115-.46zM11.503 9a.505.505 0 00-.49.615.515.515 0 00.489.385.5.5 0 00.429-.237c.196-.318-.05-.763-.428-.763zm-3.557 1.152c-.1-.15-.332-.198-.491-.104l-2.29 1.345a.32.32 0 00-.111.457.377.377 0 00.302.15.355.355 0 00.19-.046l2.289-1.345a.32.32 0 00.111-.457zM8.5 9a.502.502 0 00-.488.39c-.07.308.174.61.488.61a.502.502 0 00.488-.39.504.504 0 00-.489-.61z"/><path d="M19.904 17.792a.389.389 0 00-.55-.038c-.417.362-.803.738-1.35.889-.607.167-1.184.035-1.734-.24l2.034-6.845a.392.392 0 00-.172-.446l-1.882-1.14v-3.33a.39.39 0 00-.39-.391h-.782V5.079a.39.39 0 00-.39-.391h-1.231V3.516a.39.39 0 00-.39-.39h-1.895V.39a.39.39 0 00-.39-.391H9.218a.39.39 0 00-.39.39v2.735H6.933a.39.39 0 00-.391.391v1.172h-1.23a.39.39 0 00-.391.39V6.25H4.14a.39.39 0 00-.391.39v3.33l-1.882 1.141a.39.39 0 00-.172.446l2.03 6.831c-.035-.117-.66-.193-.77-.208-1.138-.147-2.002.423-2.822 1.135a.392.392 0 00-.038.552.395.395 0 00.55.038c.845-.734 1.797-1.293 2.913-.735 1.01.506 2.056.722 3.109.168.848-.446 1.667-.832 2.614-.381l.974.464a2.962 2.962 0 002.61-.025c.508-.255 1.025-.593 1.605-.633.57-.04 1.12.173 1.62.423a2.99 2.99 0 002.145.194c.653-.186 1.129-.602 1.63-1.038a.39.39 0 00.038-.55zM15.47 7.032v2.466L11.4 7.032h4.07zM9.609.782h.782v2.343h-.782V.781zM7.324 3.906h5.352v.78H7.324v-.78zM4.531 7.032h4.07l-4.07 2.466V7.032zM9.61 18.248c0-.069-.556-.197-.63-.213a3.016 3.016 0 00-2.025.27c-.448.236-.879.51-1.39.577H5.56a2.249 2.249 0 01-.894-.07L2.53 11.624l7.078-4.29v10.914zM5.703 6.251v-.782h8.594v.782H5.703zm9.845 11.839c.004-.12-1.096-.12-1.17-.112-.677.072-1.264.42-1.862.72-.707.353-1.434.252-2.125-.078V7.335l7.078 4.29-1.921 6.465z"/></g></svg><svg viewBox="0 0 23 23" id="shipping" xmlns="http://www.w3.org/2000/svg"><g fill="#FFF"><path d="M22.265 23h-10.53a.743.743 0 01-.735-.75v-10.5c0-.414.33-.75.735-.75h10.53c.406 0 .735.336.735.75v10.5c0 .414-.33.75-.735.75zm-9.796-1.5h9.062v-9h-9.062v9z"/><path d="M16.25 12H5.75c-.414 0-.75-.323-.75-.72V.72c0-.397.336-.72.75-.72h10.5c.414 0 .75.323.75.72v10.56c0 .397-.336.72-.75.72zM6.5 10.56h9V1.44h-9v9.12z"/><path d="M12.25 6h-2.5C9.336 6 9 5.597 9 5.1V.9c0-.497.336-.9.75-.9h2.5c.414 0 .75.403.75.9v4.2c0 .497-.336.9-.75.9zM10.5 4.2h1V1.8h-1v2.4zM18.25 17h-2.5c-.414 0-.75-.403-.75-.9v-4.2c0-.497.336-.9.75-.9h2.5c.414 0 .75.403.75.9v4.2c0 .497-.336.9-.75.9zm-1.75-1.8h1v-2.4h-1v2.4zM11.265 23H.735A.743.743 0 010 22.25v-10.5c0-.414.33-.75.735-.75h10.53c.406 0 .735.336.735.75v10.5c0 .414-.33.75-.735.75zM1.47 21.5h9.062v-9H1.469v9z"/><path d="M7.25 17h-2.5c-.414 0-.75-.403-.75-.9v-4.2c0-.497.336-.9.75-.9h2.5c.414 0 .75.403.75.9v4.2c0 .497-.336.9-.75.9zM5.5 15.2h1v-2.4h-1v2.4z"/></g></svg><svg viewBox="0 0 22 18" id="signs" xmlns="http://www.w3.org/2000/svg"><g fill="#B7BCD6"><path d="M14.385 10.194v5.19H2.615V3.616h3.923V1h-5.23C.586 1 0 1.586 0 2.308v14.384C0 17.415.586 18 1.308 18h14.384c.723 0 1.308-.585 1.308-1.308v-6.498h-2.615z"/><path d="M21.717 4.263L16.05.138a.72.72 0 00-.74-.065.685.685 0 00-.393.615V2.75h-2.125C8.495 2.75 5 6.142 5 10.313a.695.695 0 00.708.687.711.711 0 00.634-.38l.167-.323c1.086-2.11 3.27-3.422 5.702-3.422h2.706v2.063c0 .26.151.497.39.614.24.117.53.092.743-.064l5.667-4.125a.684.684 0 00.283-.55.68.68 0 00-.283-.55z"/></g></svg><svg viewBox="0 0 11 11" id="supermarket" xmlns="http://www.w3.org/2000/svg"><g fill="#BFC5D2"><path d="M10.195.941H2c-.025 0-.047.009-.07.015L1.728.334A.496.496 0 001.25 0h-1C.112 0 0 .105 0 .235v.47c0 .13.112.236.25.236h.63l1.562 4.831-.584.64c-.23.254-.334.603-.228.921A.988.988 0 002.587 8H9.75c.138 0 .25-.105.25-.235v-.47c0-.13-.112-.236-.25-.236H2.587l.793-.87c.02-.022.034-.047.05-.071h4.844c.387 0 .74-.211.905-.541l1.745-3.489c.05-.1.076-.212.076-.322v-.067c0-.419-.36-.758-.805-.758z"/><circle cx="3" cy="10" r="1"/><circle cx="9" cy="10" r="1"/></g></svg><svg viewBox="0 0 21 21" id="tag" xmlns="http://www.w3.org/2000/svg"><path fill="#B7BCD6" d="M20.25 0H12c-.199 0-.39.08-.53.22L.22 11.47a.749.749 0 000 1.06l8.25 8.25a.749.749 0 001.06 0L20.78 9.53A.747.747 0 0021 9V.75a.75.75 0 00-.75-.75zm-4.5 6.75a1.5 1.5 0 11.001-3.001 1.5 1.5 0 01-.001 3.001z"/></svg><svg viewBox="0 0 27 23" id="team" xmlns="http://www.w3.org/2000/svg"><path d="M23.093 12H21a5.89 5.89 0 01.33 1.949v8.237c0 .286-.048.56-.135.814h3.46C25.949 23 27 21.905 27 20.559v-4.49C27 13.824 25.247 12 23.093 12zM5.67 13.949c0-.684.117-1.34.33-1.949H3.907C1.753 12 0 13.825 0 16.068v4.491C0 21.905 1.052 23 2.344 23h3.46a2.54 2.54 0 01-.134-.814V13.95zM15.969 11H11.03C8.808 11 7 12.67 7 14.721v7.535c0 .41.361.744.806.744h11.388c.445 0 .806-.333.806-.744V14.72c0-2.05-1.808-3.72-4.031-3.72zM13.5 0A4.505 4.505 0 009 4.5 4.505 4.505 0 0013.5 9 4.507 4.507 0 0018 4.5C18 2.019 15.981 0 13.5 0zm-9 4C2.57 4 1 5.57 1 7.5a3.504 3.504 0 004.88 3.216 3.526 3.526 0 001.709-1.572A3.49 3.49 0 008 7.5C8 5.57 6.43 4 4.5 4zm18 0C20.57 4 19 5.57 19 7.5c0 .594.15 1.154.411 1.644a3.52 3.52 0 001.71 1.572c.423.183.89.284 1.379.284 1.93 0 3.5-1.57 3.5-3.5S24.43 4 22.5 4z" fill="#49DDAA"/></svg><svg viewBox="0 0 27 23" id="team-white" xmlns="http://www.w3.org/2000/svg"><path d="M23.093 12H21a5.89 5.89 0 01.33 1.949v8.237c0 .286-.048.56-.135.814h3.46C25.949 23 27 21.905 27 20.559v-4.49C27 13.824 25.247 12 23.093 12zM5.67 13.949c0-.684.117-1.34.33-1.949H3.907C1.753 12 0 13.825 0 16.068v4.491C0 21.905 1.052 23 2.344 23h3.46a2.54 2.54 0 01-.134-.814V13.95zM15.969 11H11.03C8.808 11 7 12.67 7 14.721v7.535c0 .41.361.744.806.744h11.388c.445 0 .806-.333.806-.744V14.72c0-2.05-1.808-3.72-4.031-3.72zM13.5 0A4.505 4.505 0 009 4.5 4.505 4.505 0 0013.5 9 4.507 4.507 0 0018 4.5C18 2.019 15.981 0 13.5 0zm-9 4C2.57 4 1 5.57 1 7.5a3.504 3.504 0 004.88 3.216 3.526 3.526 0 001.709-1.572A3.49 3.49 0 008 7.5C8 5.57 6.43 4 4.5 4zm18 0C20.57 4 19 5.57 19 7.5c0 .594.15 1.154.411 1.644a3.52 3.52 0 001.71 1.572c.423.183.89.284 1.379.284 1.93 0 3.5-1.57 3.5-3.5S24.43 4 22.5 4z" fill="#fff"/></svg><svg viewBox="0 0 25 21" id="transfer-2" xmlns="http://www.w3.org/2000/svg"><path d="M23 15.255H2.618l3.29-3.2L4.826 11l-4.6 4.473a.73.73 0 000 1.054L4.825 21l1.084-1.054-3.291-3.2H23v-1.491zm1.775-10.782L20.175 0l-1.084 1.054 3.291 3.2H2v1.491h20.382l-3.29 3.2L20.174 10l4.6-4.473a.73.73 0 000-1.054z" fill="#B7BCD6"/></svg><svg viewBox="0 0 20 14" id="truck" xmlns="http://www.w3.org/2000/svg"><g fill="#109CF1"><path d="M15.5 9c-1.379 0-2.5 1.121-2.5 2.5s1.121 2.5 2.5 2.5 2.5-1.121 2.5-2.5S16.879 9 15.5 9zm0 3.75a1.25 1.25 0 110-2.5 1.25 1.25 0 010 2.5zM7.5 9C6.121 9 5 10.121 5 11.5S6.121 14 7.5 14s2.5-1.121 2.5-2.5S8.879 9 7.5 9zm0 3.75a1.25 1.25 0 110-2.5 1.25 1.25 0 010 2.5zm9.535-11.379A.654.654 0 0016.45 1H13v1.348h3.046L17.829 6 19 5.394l-1.965-4.023z"/><path d="M8 11h5v1H8zm-3.732 0H1.732c-.404 0-.732.224-.732.5s.328.5.732.5h2.536c.404 0 .732-.224.732-.5s-.328-.5-.732-.5zm15.594-4.115l-1.293-1.597a.667.667 0 00-.52-.244h-4.777V.63a.644.644 0 00-.657-.63H1.657A.644.644 0 001 .63c0 .349.294.63.657.63h10.3v4.414c0 .349.295.63.658.63h5.113l.957 1.183v3.252h-1.819a.644.644 0 00-.657.63c0 .349.294.631.657.631h2.477a.644.644 0 00.657-.63V7.272a.617.617 0 00-.138-.387zM5.242 8H1.758C1.339 8 1 8.224 1 8.5s.34.5.758.5h3.484C5.661 9 6 8.776 6 8.5S5.66 8 5.242 8z"/><path d="M6.335 5H.665C.298 5 0 5.224 0 5.5s.298.5.665.5h5.67C6.703 6 7 5.776 7 5.5S6.703 5 6.335 5zm1-3h-5.67C1.297 2 1 2.224 1 2.5s.298.5.665.5h5.67C7.703 3 8 2.776 8 2.5S7.703 2 7.335 2z"/></g></svg><svg viewBox="0 0 49 23" id="truck-1" xmlns="http://www.w3.org/2000/svg"><path fill="#B7BCD6" d="M4.947 16.9a3.052 3.052 0 00-3.046 3.05A3.052 3.052 0 004.947 23a3.051 3.051 0 000-6.1zm0 5.167c-1.165 0-2.115-.95-2.115-2.117s.949-2.117 2.115-2.117c1.167 0 2.116.95 2.116 2.117a2.118 2.118 0 01-2.116 2.117zM49 11.899V9.988L47.094 1.59c0-.582-.843-.582-1.165-.582H35.861c-.32 0-.581.061-.581.582v15.292c0 1.524.26 1.785.581 1.785h2.054a4.099 4.099 0 013.73-2.409c1.656 0 3.084.99 3.73 2.41h3.042a.584.584 0 00.583-.584v-2.94h-.547V11.9H49zm-9.235-1.923h-2.201V9.53h2.201v.447zm-2.643-1.162v-6.25h8.408l.96 6.25h-9.368zm9.77 8.495H45.33c-.441-.841-1.402-1.443-1.402-1.443h2.962v1.443zM2.035 15.308h31.847v3.651H17.005a4.1 4.1 0 00-3.848-2.7 4.099 4.099 0 00-3.848 2.7H8.93a4.098 4.098 0 00-3.847-2.7 4.102 4.102 0 00-3.822 2.63A1.744 1.744 0 010 17.211v-.156c0-.395.136-.754.356-1.046v-1.426L.339 0h33.036l-.033 14.584H2.036v.724zM41.51 16.9a3.052 3.052 0 00-3.047 3.05 3.052 3.052 0 003.047 3.049 3.052 3.052 0 003.047-3.05 3.053 3.053 0 00-3.047-3.05zm0 5.166a2.118 2.118 0 010-4.234c1.167 0 2.116.95 2.116 2.117 0 1.168-.95 2.117-2.116 2.117zM13.02 16.9a3.052 3.052 0 00-3.047 3.05c0 1.68 1.367 3.05 3.047 3.05a3.052 3.052 0 003.047-3.05 3.052 3.052 0 00-3.047-3.05zm0 5.166c-1.166 0-2.115-.95-2.115-2.117s.949-2.117 2.115-2.117a2.12 2.12 0 012.116 2.117c0 1.168-.95 2.117-2.116 2.117z" opacity=".85"/></svg><svg viewBox="0 0 49 23" id="truck-2" xmlns="http://www.w3.org/2000/svg"><path fill="#B7BCD6" d="M4.949 16.901a3.052 3.052 0 00-3.047 3.049A3.053 3.053 0 004.95 23a3.052 3.052 0 003.047-3.05 3.052 3.052 0 00-3.047-3.049zm0 5.166a2.117 2.117 0 010-4.234 2.118 2.118 0 010 4.234zM48.999 11.9V9.988l-1.905-8.397c0-.581-.843-.581-1.165-.581H35.862c-.321 0-.582.06-.582.581v15.293c0 1.523.261 1.784.582 1.784h2.054a4.1 4.1 0 013.73-2.408c1.656 0 3.084.99 3.729 2.408h3.044c.32 0 .581-.261.581-.582v-2.94h-.547V11.9H49zm-9.233-1.923h-2.202v-.448h2.202v.448zm-2.643-1.162V2.563h8.407l.962 6.252h-9.369zm9.767 8.494h-1.56c-.44-.841-1.4-1.443-1.4-1.443h2.96v1.443zM2.037 14.583h31.306L33.376 0H.34l.016 14.583v1.427c-.22.292-.356.65-.356 1.046v.155c0 .798.533 1.47 1.262 1.679a4.101 4.101 0 013.822-2.63 4.1 4.1 0 013.848 2.7h.377c.572-1.574 2.08-2.7 3.847-2.7s3.277 1.126 3.85 2.7h16.877v-3.652H2.037v-.725zM28.628 1.01h2.403v12.494h-2.403V1.01zm-3.69 0h2.403v12.494h-2.403V1.01zm-3.737 0h2.403v12.494H21.2V1.01zm-3.691 0h2.403v12.494H17.51V1.01zm-3.538 0h2.403v12.494h-2.403V1.01zm-3.69 0h2.402v12.494h-2.402V1.01zm-3.739 0h2.403v12.494H6.543V1.01zm-3.69 0h2.402v12.494H2.853V1.01zM41.51 16.9a3.052 3.052 0 00-3.047 3.049 3.052 3.052 0 003.047 3.05 3.051 3.051 0 003.046-3.05A3.053 3.053 0 0041.51 16.9zm0 5.166a2.117 2.117 0 010-4.234c1.166 0 2.115.95 2.115 2.117 0 1.168-.95 2.117-2.115 2.117zM13.022 16.9a3.052 3.052 0 00-3.047 3.049 3.051 3.051 0 003.047 3.05 3.051 3.051 0 003.046-3.05 3.052 3.052 0 00-3.046-3.049zm0 5.166a2.118 2.118 0 01-2.116-2.117 2.12 2.12 0 012.116-2.117 2.118 2.118 0 010 4.234z" opacity=".85"/></svg><svg viewBox="0 0 26 24" id="upload" xmlns="http://www.w3.org/2000/svg"><g fill="#B7BCD6"><path d="M20.998 6.586c-.879-4.433-5.162-7.31-9.568-6.427a8.16 8.16 0 00-6.387 6.422C1.919 6.943-.322 9.784.038 12.927.369 15.82 2.804 18.002 5.698 18h4.068c.45 0 .814-.366.814-.818a.817.817 0 00-.814-.819H5.7c-2.247-.013-4.057-1.856-4.044-4.116.014-2.26 1.845-4.08 4.092-4.067a.815.815 0 00.808-.729c.413-3.591 3.642-6.166 7.213-5.75 3.001.349 5.37 2.73 5.716 5.75a.866.866 0 00.857.729c2.246 0 4.067 1.832 4.067 4.092s-1.82 4.091-4.067 4.091h-4.067a.816.816 0 00-.814.819c0 .452.364.818.814.818h4.067c3.145-.02 5.678-2.6 5.659-5.764-.018-2.881-2.16-5.3-5.002-5.65z"/><path d="M15.691 14.9a.722.722 0 001.077.02.872.872 0 00.018-1.164l-.018-.02-3.229-3.494a.722.722 0 00-1.077-.002l-.001.002-3.229 3.493a.873.873 0 00-.018 1.165.72.72 0 001.076.02l.019-.02 1.93-2.089v10.365c0 .455.34.824.761.824.42 0 .761-.369.761-.824V12.811l1.93 2.089z"/></g></svg><svg viewBox="0 0 21 21" id="wall-clock" xmlns="http://www.w3.org/2000/svg"><g fill="#B7BCD6"><path d="M10.5 0C4.71 0 0 4.71 0 10.5S4.71 21 10.5 21 21 16.29 21 10.5 16.29 0 10.5 0zm0 19.687c-5.066 0-9.187-4.12-9.187-9.187 0-5.066 4.12-9.187 9.187-9.187 5.066 0 9.187 4.12 9.187 9.187 0 5.066-4.12 9.187-9.187 9.187z"/><path d="M11.298 4H10v6.857L14.083 15l.917-.931-3.702-3.758z"/></g></svg><svg viewBox="0 0 13 13" id="wallet" xmlns="http://www.w3.org/2000/svg"><g fill="#BFC5D2"><path d="M11.897 10.636h-2.03c-1.281 0-2.322-1.06-2.322-2.363s1.041-2.364 2.321-2.364h2.031c.16 0 .29-.132.29-.295v-.887a1.17 1.17 0 00-1.068-1.172L9.453.591A1.15 1.15 0 008.75.04a1.123 1.123 0 00-.873.12L2.164 3.545H1.161A1.174 1.174 0 000 4.727v7.091C0 12.47.52 13 1.16 13h9.867c.64 0 1.16-.53 1.16-1.182v-.886a.293.293 0 00-.29-.296zM9.813 2.421l.632 1.125h-2.53L9.814 2.42zM3.318 3.546L8.169.67A.553.553 0 018.6.61a.577.577 0 01.349.275v.001l-4.486 2.66H3.318z"/><path d="M12.086 6.5H9.953c-1.008 0-1.828.729-1.828 1.625s.82 1.625 1.828 1.625h2.133c.504 0 .914-.364.914-.813V7.313c0-.449-.41-.813-.914-.813zM9.953 8.667c-.336 0-.61-.243-.61-.542 0-.299.274-.542.61-.542.336 0 .61.243.61.542 0 .299-.274.542-.61.542z"/></g></svg><svg viewBox="0 0 12 16" id="white-bin" xmlns="http://www.w3.org/2000/svg"><path fill-rule="nonzero" d="M3.585 1.233c0-.404.347-.7.79-.7h3.25c.443 0 .79.296.79.7V2H9v-.767C9 .535 8.391 0 7.624 0H4.376C3.609 0 3 .535 3 1.233V2h.585v-.767zM2.276 16h7.448c.719 0 1.276-.624 1.276-1.4V5H1v9.6c0 .776.557 1.4 1.276 1.4zm5.732-9.515c0-.172.14-.311.315-.311.174 0 .315.14.315.31v7.347a.313.313 0 01-.315.311.313.313 0 01-.315-.31V6.484zm-2.323 0c0-.172.141-.311.315-.311.174 0 .315.14.315.31v7.347a.313.313 0 01-.315.311.313.313 0 01-.315-.31V6.484zm-2.323 0c0-.172.141-.311.315-.311.174 0 .315.14.315.31v7.347c0 .172-.14.311-.315.311a.313.313 0 01-.315-.31V6.484zM.773 4h10.454c.427 0 .773-.448.773-1s-.346-1-.773-1H.773C.346 2 0 2.448 0 3s.346 1 .773 1z" fill="#fff"/></svg><svg viewBox="0 0 17 17" id="white__cancel" xmlns="http://www.w3.org/2000/svg"><path fill="#FFF" d="M9.765 8.5l6.973-6.973a.893.893 0 000-1.265.893.893 0 00-1.265 0L8.5 7.235 1.527.262a.893.893 0 00-1.265 0 .893.893 0 000 1.265L7.235 8.5.262 15.473a.893.893 0 000 1.265c.35.35.916.35 1.265 0L8.5 9.765l6.973 6.973c.349.35.915.35 1.265 0a.893.893 0 000-1.265L9.765 8.5z"/></svg><svg viewBox="0 0 15 15" id="white__create-24-px" xmlns="http://www.w3.org/2000/svg"><path fill="#fff" d="M0 11.875V15h3.125l9.215-9.215L9.215 2.66 0 11.875zm14.756-8.507a.83.83 0 000-1.175l-1.95-1.95a.83.83 0 00-1.174 0L10.107 1.77l3.124 3.124 1.525-1.525z"/></svg><svg id="round-create-new-folder" viewBox="0 0 13 11" fill="none" xmlns="http://www.w3.org/2000/svg"><path d="M11.1665 2.00004H6.49984L5.67734 1.17754C5.45567 0.955874 5.15817 0.833374 4.849 0.833374H1.83317C1.18567 0.833374 0.672337 1.35254 0.672337 2.00004L0.666504 9.00004C0.666504 9.64754 1.18567 10.1667 1.83317 10.1667H11.1665C11.8082 10.1667 12.3332 9.64171 12.3332 9.00004V3.16671C12.3332 2.52504 11.8082 2.00004 11.1665 2.00004ZM9.99984 6.66671H8.83317V7.83337C8.83317 8.15421 8.57067 8.41671 8.24984 8.41671C7.929 8.41671 7.6665 8.15421 7.6665 7.83337V6.66671H6.49984C6.179 6.66671 5.9165 6.40421 5.9165 6.08337C5.9165 5.76254 6.179 5.50004 6.49984 5.50004H7.6665V4.33337C7.6665 4.01254 7.929 3.75004 8.24984 3.75004C8.57067 3.75004 8.83317 4.01254 8.83317 4.33337V5.50004H9.99984C10.3207 5.50004 10.5832 5.76254 10.5832 6.08337C10.5832 6.40421 10.3207 6.66671 9.99984 6.66671Z" /></svg><svg id="star" viewBox="0 0 16 16" fill="none" xmlns="http://www.w3.org/2000/svg"><path d="M15.4922 5.7809L10.7811 5.09624L8.67519 0.826801C8.61767 0.709907 8.52304 0.615278 8.40614 0.557758C8.11298 0.413032 7.75673 0.533637 7.61015 0.826801L5.50419 5.09624L0.793155 5.7809C0.663272 5.79946 0.544522 5.86069 0.453604 5.95346C0.343689 6.06644 0.283121 6.21842 0.285208 6.37603C0.287296 6.53364 0.351868 6.68397 0.464737 6.79399L3.87323 10.1171L3.06796 14.8096C3.04908 14.9188 3.06115 15.031 3.10283 15.1337C3.1445 15.2363 3.2141 15.3252 3.30373 15.3903C3.39336 15.4554 3.49944 15.4941 3.60994 15.502C3.72044 15.5099 3.83093 15.4866 3.9289 15.4349L8.14267 13.2195L12.3564 15.4349C12.4715 15.4961 12.6051 15.5165 12.7331 15.4943C13.0559 15.4386 13.273 15.1325 13.2174 14.8096L12.4121 10.1171L15.8206 6.79399C15.9134 6.70307 15.9746 6.58432 15.9932 6.45444C16.0433 6.12973 15.8169 5.82915 15.4922 5.7809Z"/></svg></svg>