<svg width="78" height="20" viewBox="0 0 78 20" fill="none" xmlns="http://www.w3.org/2000/svg">
<rect y="-1" width="78" height="21" rx="2" fill="#109CF1" fill-opacity="0.332195"/>
<path fill-rule="evenodd" clip-rule="evenodd" d="M41.1424 11.3575L43.0608 10.8217C43.2997 10.7564 43.5459 10.9032 43.6096 11.1524C43.6737 11.4018 43.5318 11.6583 43.2926 11.7247L42.2402 12.0191L43.2111 12.6036C43.4254 12.7328 43.4989 13.0185 43.375 13.242C43.2919 13.3925 43.1413 13.4758 42.9866 13.4758C42.9106 13.4758 42.8335 13.456 42.7628 13.4129L41.7866 12.8257L42.0709 13.9317C42.1349 14.1815 41.9933 14.4372 41.7539 14.5044C41.7151 14.5154 41.6761 14.5205 41.6376 14.5205C41.4398 14.5205 41.2588 14.3825 41.2052 14.1735L40.6889 12.1645L39.9547 11.7226L39.2581 12.1419V13.0354L40.6682 14.506C40.8433 14.6887 40.8433 14.9845 40.6682 15.1672C40.5807 15.2585 40.4662 15.3038 40.3512 15.3038C40.2363 15.3038 40.1218 15.2585 40.0343 15.1672L39.2581 14.3577V15.5325C39.2581 15.7911 39.0573 16 38.8097 16C38.5622 16 38.3614 15.7911 38.3614 15.5325V14.3636L37.5909 15.1672C37.5033 15.2585 37.3884 15.3038 37.2739 15.3038C37.159 15.3038 37.0445 15.2585 36.9569 15.1672C36.7818 14.9844 36.7818 14.6886 36.9569 14.506L38.3614 13.0412V12.1383L37.6707 11.7226L36.9363 12.1645L36.42 14.1736C36.3664 14.3825 36.1853 14.5206 35.9875 14.5206C35.9489 14.5206 35.91 14.5154 35.8712 14.5045C35.632 14.4373 35.49 14.1816 35.5541 13.9317L35.8382 12.8257L34.8623 13.413C34.7917 13.4561 34.7145 13.4758 34.6385 13.4758C34.4838 13.4758 34.3331 13.3925 34.2501 13.2421C34.1261 13.0185 34.1997 12.7328 34.414 12.6036L35.3849 12.0191L34.3325 11.7247C34.0932 11.6583 33.9513 11.4018 34.0154 11.1524C34.0795 10.9032 34.3268 10.7567 34.5643 10.8217L36.4827 11.3583L37.2224 10.9127L37.2216 10.0771L36.4914 9.63986L34.5643 10.1785C34.5255 10.1893 34.4866 10.1946 34.448 10.1946C34.2501 10.1946 34.069 10.0567 34.0154 9.84793C33.9513 9.5984 34.0932 9.34197 34.3325 9.27519L35.3888 8.98003L34.4151 8.39699C34.2004 8.26843 34.1261 7.98283 34.2493 7.75886C34.3724 7.53462 34.6462 7.45721 34.8614 7.5861L35.8371 8.17036L35.5541 7.06856C35.49 6.8191 35.632 6.56262 35.8712 6.49584C36.1103 6.4304 36.356 6.5771 36.42 6.82639L36.9338 8.82682L37.6694 9.26698L38.3614 8.85061V7.95909L36.9569 6.49435C36.7818 6.31167 36.7818 6.01582 36.9569 5.83316C37.132 5.65053 37.4157 5.65053 37.5909 5.83316L38.3614 6.63683V5.46752C38.3614 5.20932 38.5622 5 38.8097 5C39.0573 5 39.2581 5.20935 39.258 5.46752V6.64262L40.0342 5.83316C40.2095 5.65053 40.4931 5.65053 40.6682 5.83316C40.8433 6.01584 40.8433 6.31169 40.6682 6.49435L39.258 7.96495V8.84722L39.9554 9.26769L40.691 8.82713L41.2051 6.82637C41.2692 6.57708 41.5161 6.43078 41.7539 6.49582C41.9932 6.56259 42.1349 6.81908 42.0709 7.06853L41.7879 8.17052L42.7637 7.5861C42.9784 7.45723 43.2519 7.53481 43.3756 7.75874C43.4989 7.98267 43.4246 8.26845 43.21 8.39701L42.2362 8.98005L43.2925 9.27522C43.5318 9.34199 43.6736 9.59843 43.6095 9.84795C43.556 10.0568 43.3749 10.1946 43.177 10.1946C43.1384 10.1946 43.0995 10.1893 43.0608 10.1785L41.134 9.64008L40.403 10.0779V10.9127L41.1424 11.3575ZM38.8124 11.3306L39.5062 10.9127V10.077L38.8124 9.65875L38.1183 10.0764L38.1191 10.9127L38.8124 11.3306Z" fill="#109CF1"/>
</svg>
