<svg width="78" height="19" viewBox="0 0 78 19" fill="none" xmlns="http://www.w3.org/2000/svg">
<rect y="-2" width="78" height="21" rx="2" fill="#109CF1" fill-opacity="0.332195"/>
<path fill-rule="evenodd" clip-rule="evenodd" d="M40.4042 3.82364C40.1146 3.31397 39.5793 3 39 3C38.4207 3 37.8854 3.31397 37.5958 3.82364L33.2172 11.529C32.9276 12.0387 32.9276 12.6666 33.2172 13.1763C33.5069 13.686 34.0421 14 34.6214 14H43.3786C43.9579 14 44.4931 13.686 44.7828 13.1763C45.0724 12.6666 45.0724 12.0387 44.7828 11.529L40.4042 3.82364ZM39 12.6658C38.6546 12.6658 38.3746 12.3813 38.3746 12.0303C38.3746 11.6794 38.6546 11.3949 39 11.3949C39.3454 11.3949 39.6254 11.6794 39.6254 12.0303C39.6254 12.1988 39.5595 12.3605 39.4423 12.4796C39.325 12.5988 39.1659 12.6658 39 12.6658ZM39.6621 10.1052L39.883 6.28977C39.9023 5.95664 39.7384 5.64008 39.4572 5.4676C39.176 5.29512 38.8239 5.29512 38.5427 5.4676C38.2616 5.64008 38.0976 5.95664 38.1169 6.28977L38.3378 10.1052C38.3584 10.4614 38.6488 10.7396 39 10.7396C39.3512 10.7396 39.6415 10.4614 39.6621 10.1052Z" fill="#109CF1"/>
</svg>
