<svg width="78" height="20" viewBox="0 0 78 20" fill="none" xmlns="http://www.w3.org/2000/svg">
<rect y="-1" width="78" height="21" rx="2" fill="#109CF1" fill-opacity="0.332195"/>
<rect x="7" y="1" width="3" height="17" rx="1" fill="white"/>
<rect x="12" y="1" width="3" height="17" rx="1" fill="white"/>
<rect x="17" y="1" width="3" height="17" rx="1" fill="white"/>
<rect x="22" y="1" width="3" height="17" rx="1" fill="white"/>
<rect x="27" y="1" width="3" height="17" rx="1" fill="white"/>
<rect x="32" y="1" width="3" height="17" rx="1" fill="white"/>
<rect x="37" y="1" width="3" height="17" rx="1" fill="white"/>
<rect x="42" y="1" width="3" height="17" rx="1" fill="white"/>
<rect x="47" y="1" width="3" height="17" rx="1" fill="white"/>
<rect x="52" y="1" width="3" height="17" rx="1" fill="white"/>
<rect x="57" y="1" width="3" height="17" rx="1" fill="white"/>
<rect x="62" y="1" width="3" height="17" rx="1" fill="white"/>
<rect x="67" y="1" width="3" height="17" rx="1" fill="white"/>
<rect y="-1" width="78" height="5" rx="2" fill="#109CF1"/>
</svg>
