<svg width="51" height="16" viewBox="0 0 51 16" fill="none" xmlns="http://www.w3.org/2000/svg">
<rect x="1" y="1" width="49" height="14" rx="1" stroke="#156CE4" stroke-width="0.5"/>
<rect x="3.5" y="2.83301" width="1.5" height="11" rx="0.75" stroke="#156CE4" stroke-width="0.5"/>
<rect x="6.5" y="2.83301" width="1.5" height="11" rx="0.75" stroke="#156CE4" stroke-width="0.5"/>
<rect x="9.5" y="2.83301" width="1.5" height="11" rx="0.75" stroke="#156CE4" stroke-width="0.5"/>
<rect x="12.5" y="2.83301" width="1.5" height="11" rx="0.75" stroke="#156CE4" stroke-width="0.5"/>
<rect x="15.5" y="2.83301" width="1.5" height="11" rx="0.75" stroke="#156CE4" stroke-width="0.5"/>
<rect x="18.5" y="2.83301" width="1.5" height="11" rx="0.75" stroke="#156CE4" stroke-width="0.5"/>
<rect x="21.5" y="2.83301" width="1.5" height="11" rx="0.75" stroke="#156CE4" stroke-width="0.5"/>
<rect x="24.5" y="2.83301" width="1.5" height="11" rx="0.75" stroke="#156CE4" stroke-width="0.5"/>
<rect x="27.5" y="2.83301" width="1.5" height="11" rx="0.75" stroke="#156CE4" stroke-width="0.5"/>
<rect x="30.5" y="2.83301" width="1.5" height="11" rx="0.75" stroke="#156CE4" stroke-width="0.5"/>
<rect x="33.5" y="2.83301" width="1.5" height="11" rx="0.75" stroke="#156CE4" stroke-width="0.5"/>
<rect x="36.5" y="2.83301" width="1.5" height="11" rx="0.75" stroke="#156CE4" stroke-width="0.5"/>
<rect x="39.5" y="2.83301" width="1.5" height="11" rx="0.75" stroke="#156CE4" stroke-width="0.5"/>
<rect x="42.5" y="2.83301" width="1.5" height="11" rx="0.75" stroke="#156CE4" stroke-width="0.5"/>
<rect x="45.5" y="2.83301" width="1.5" height="11" rx="0.75" stroke="#156CE4" stroke-width="0.5"/>
</svg>
