<svg width="41" height="15" viewBox="0 0 41 15" fill="none" xmlns="http://www.w3.org/2000/svg">
<rect x="1" y="0.5" width="39" height="14" rx="1" stroke="#156CE4" stroke-width="0.5"/>
<rect x="3.5" y="1.83301" width="1.5" height="11" rx="0.75" stroke="#156CE4" stroke-width="0.5"/>
<rect x="6.5" y="1.83301" width="1.5" height="11" rx="0.75" stroke="#156CE4" stroke-width="0.5"/>
<rect x="9.5" y="1.83301" width="1.5" height="11" rx="0.75" stroke="#156CE4" stroke-width="0.5"/>
<rect x="12.5" y="1.83301" width="1.5" height="11" rx="0.75" stroke="#156CE4" stroke-width="0.5"/>
<rect x="27.5" y="1.83301" width="1.5" height="11" rx="0.75" stroke="#156CE4" stroke-width="0.5"/>
<rect x="30.5" y="1.83301" width="1.5" height="11" rx="0.75" stroke="#156CE4" stroke-width="0.5"/>
<rect x="33.5" y="1.83301" width="1.5" height="11" rx="0.75" stroke="#156CE4" stroke-width="0.5"/>
<rect x="36.5" y="1.83301" width="1.5" height="11" rx="0.75" stroke="#156CE4" stroke-width="0.5"/>
<path fill-rule="evenodd" clip-rule="evenodd" d="M22.1945 7.62367L23.5897 7.23399C23.7634 7.18646 23.9425 7.29321 23.9888 7.47447C24.0354 7.65584 23.9322 7.84241 23.7583 7.89072L22.9928 8.10483L23.699 8.52988C23.8549 8.62388 23.9083 8.83162 23.8182 8.9942C23.7578 9.10362 23.6482 9.1642 23.5357 9.1642C23.4804 9.1642 23.4243 9.14983 23.3729 9.11851L22.663 8.69139L22.8698 9.49577C22.9163 9.67748 22.8133 9.86345 22.6392 9.9123C22.611 9.92026 22.5826 9.92403 22.5547 9.92403C22.4108 9.92403 22.2791 9.82362 22.2401 9.67166L21.8646 8.21054L21.3307 7.88916L20.824 8.19411V8.84393L21.8496 9.91348C21.9769 10.0463 21.9769 10.2614 21.8496 10.3943C21.7859 10.4607 21.7027 10.4936 21.6191 10.4936C21.5355 10.4936 21.4522 10.4607 21.3886 10.3943L20.824 9.80561V10.66C20.824 10.848 20.678 11 20.498 11C20.3179 11 20.1719 10.8481 20.1719 10.66V9.80986L19.6115 10.3943C19.5478 10.4607 19.4643 10.4936 19.381 10.4936C19.2974 10.4936 19.2141 10.4607 19.1505 10.3943C19.0231 10.2614 19.0231 10.0463 19.1505 9.91348L20.1719 8.84818V8.19149L19.6696 7.8892L19.1355 8.21057L18.76 9.6717C18.721 9.82366 18.5893 9.92406 18.4454 9.92406C18.4174 9.92406 18.3891 9.9203 18.3609 9.91234C18.1869 9.86348 18.0837 9.67752 18.1303 9.4958L18.3368 8.69142L17.6271 9.11854C17.5757 9.1499 17.5197 9.16424 17.4644 9.16424C17.3518 9.16424 17.2423 9.10365 17.1819 8.99423C17.0917 8.83165 17.1452 8.62388 17.3011 8.52991L18.0072 8.10479L17.2418 7.8907C17.0678 7.84239 16.9646 7.65584 17.0112 7.47444C17.0579 7.29321 17.2377 7.18669 17.4104 7.23397L18.8056 7.62424L19.3435 7.30012L19.343 6.69242L18.8119 6.37445L17.4104 6.76616C17.3822 6.77401 17.3539 6.77787 17.3258 6.77787C17.1819 6.77787 17.0502 6.67762 17.0112 6.52577C16.9646 6.34429 17.0678 6.1578 17.2418 6.10923L18.01 5.89457L17.3019 5.47054C17.1458 5.37704 17.0917 5.16933 17.1813 5.00644C17.2709 4.84336 17.47 4.78706 17.6264 4.8808L18.3361 5.30571L18.1303 4.5044C18.0837 4.32298 18.1869 4.13645 18.3609 4.08789C18.5347 4.04029 18.7134 4.14698 18.76 4.32828L19.1336 5.78314L19.6686 6.10326L20.1719 5.80045V5.15206L19.1505 4.0868C19.0231 3.95394 19.0231 3.73877 19.1505 3.60593C19.2779 3.47311 19.4842 3.47311 19.6115 3.60593L20.1719 4.19042V3.34001C20.1719 3.15223 20.3179 3 20.498 3C20.678 3 20.824 3.15225 20.824 3.34001V4.19463L21.3885 3.60593C21.516 3.47311 21.7223 3.47311 21.8496 3.60593C21.9769 3.73879 21.9769 3.95396 21.8496 4.0868L20.824 5.15633V5.79798L21.3312 6.10378L21.8662 5.78337L22.2401 4.32827C22.2867 4.14697 22.4663 4.04057 22.6392 4.08787C22.8133 4.13643 22.9163 4.32297 22.8697 4.50439L22.6639 5.30583L23.3736 4.8808C23.5297 4.78708 23.7286 4.8435 23.8186 5.00636C23.9083 5.16921 23.8543 5.37706 23.6982 5.47055L22.99 5.89458L23.7582 6.10925C23.9322 6.15781 24.0354 6.34431 23.9888 6.52578C23.9499 6.67764 23.8181 6.77789 23.6742 6.77789C23.6461 6.77789 23.6178 6.77402 23.5897 6.76618L22.1884 6.3746L21.6567 6.69299V7.30013L22.1945 7.62367ZM20.4998 7.60405L21.0045 7.30011V6.69232L20.4998 6.38814L19.995 6.69187L19.9956 7.3001L20.4998 7.60405Z" fill="#156CE4"/>
</svg>
