<svg xmlns="http://www.w3.org/2000/svg" width="13" height="13" viewBox="0 0 13 13">
    <path fill="#B7BCD6" d="M11.205 1.639C10.009.546 8.52 0 6.745 0c-1.868 0-3.46.62-4.773 1.864C.658 3.108 0 4.654 0 6.505c0 1.774.626 3.3 1.875 4.578C3.13 12.36 4.815 13 6.937 13c1.28 0 2.534-.26 3.765-.782.401-.17.596-.626.433-1.027-.168-.413-.645-.604-1.06-.43-1.07.457-2.118.685-3.14.685-1.627 0-2.887-.49-3.78-1.475-.892-.98-1.338-2.134-1.338-3.458 0-1.437.479-2.636 1.434-3.598.952-.96 2.127-1.443 3.518-1.443 1.281 0 2.365.395 3.248 1.185s1.324 1.785 1.324 2.984c0 .82-.203 1.503-.607 2.047-.404.546-.824.817-1.26.817-.236 0-.353-.125-.353-.377 0-.204.016-.443.045-.718l.498-4.034H7.95l-.11.395c-.435-.353-.914-.53-1.433-.53-.824 0-1.53.326-2.117.976-.588.65-.88 1.487-.88 2.511 0 1 .26 1.809.781 2.421.522.616 1.148.92 1.881.92.656 0 1.215-.273 1.68-.816.35.522.867.782 1.55.782 1.003 0 1.87-.432 2.6-1.3C12.633 7.872 13 6.827 13 5.605c0-1.55-.597-2.872-1.795-3.965zM7.26 7.74c-.302.403-.663.607-1.083.607-.287 0-.517-.148-.69-.445-.177-.297-.266-.666-.266-1.109 0-.546.124-.986.37-1.32.246-.334.55-.504.915-.504.315 0 .596.124.842.376.247.252.37.586.37 1.005-.003.523-.156.984-.458 1.39z"/>
</svg>
