<svg xmlns="http://www.w3.org/2000/svg" width="15" height="15" viewBox="0 0 15 15">
    <g fill="#B7BCD6">
        <path d="M10.53 11.002c-.138-.016-.262.077-.278.206-.016.13.082.246.219.261C13.1 11.76 14.5 12.545 14.5 13c0 .639-2.663 1.53-7 1.53s-7-.891-7-1.53c0-.455 1.4-1.24 4.03-1.53.136-.016.234-.133.218-.262-.016-.13-.14-.222-.277-.206C1.838 11.294 0 12.115 0 13c0 .994 2.576 2 7.5 2 4.924 0 7.5-1.006 7.5-2 0-.885-1.838-1.706-4.47-1.998z"/>
        <path d="M7 14l4-5.665c1.501-1.961 1.284-5.185-.464-6.899C9.592.51 8.336 0 7.001 0 5.665 0 4.409.51 3.465 1.436 1.717 3.15 1.5 6.373 2.995 8.327L7 14zm.047-10.932c1.006 0 1.825.803 1.825 1.79 0 .986-.819 1.79-1.825 1.79-1.007 0-1.826-.804-1.826-1.79 0-.987.82-1.79 1.826-1.79z"/>
    </g>
</svg>
