<svg xmlns="http://www.w3.org/2000/svg" width="16" height="15" viewBox="0 0 16 15">
    <path fill="#FBC60C" d="M15.977 5.696c-.055-.167-.202-.288-.378-.314l-4.96-.708L8.42.257C8.341.1 8.178 0 8 0s-.341.1-.42.257L5.36 4.674l-4.96.708c-.176.026-.323.147-.378.314-.055.167-.01.35.119.472L3.73 9.606l-.848 4.855c-.03.173.043.348.187.451.082.058.178.088.275.088.075 0 .15-.017.219-.053L8 12.655l4.436 2.292c.158.082.35.068.494-.035.144-.103.217-.278.186-.45l-.847-4.856 3.59-3.438c.127-.122.173-.305.118-.472z"/>
</svg>
