<svg xmlns="http://www.w3.org/2000/svg" width="17" height="13" viewBox="0 0 17 13">
    <path fill="#BFC5D2" d="M4.585 12.626c.51.499 1.337.499 1.847 0l6.322-6.181c.181-.178.321-.39.412-.615.635.174 1.253.266 1.798.263 1.347-.007 1.794-.584 1.94-.928.147-.342.252-1.059-.694-2l-.031-.031c-.587-.574-1.439-1.103-2.406-1.495-.178-.072-.356-.137-.53-.198v-.01c-.01-.758-.636-1.37-1.41-1.38L8.044.001c-.503-.008-.985.183-1.337.532L.382 6.714c-.51.499-.51 1.308 0 1.806l4.203 4.106zM9.46 2.212c.422-.413 1.106-.413 1.529 0 .25.246.352.584.303.901.416.287.911.553 1.442.768.189.075.37.144.545.202l-.021-1.489.09.038c.828.338 1.571.795 2.05 1.263l.02.02c.454.454.503.744.465.833-.119.277-1.393.522-3.327-.266-.566-.232-1.096-.519-1.526-.83-.014.018-.031.035-.045.052-.422.413-1.107.413-1.529 0-.419-.41-.419-1.079.004-1.492z"/>
</svg>
